<svg width="51" height="51" viewBox="0 0 51 51" fill="none" xmlns="http://www.w3.org/2000/svg">
<rect x="0.906952" y="0.557129" width="49" height="49" fill="white" stroke="black"/>
<path d="M8.86644 25.5229L0.855433 25.5229" stroke="black"/>
<path d="M24.9983 50.0571L24.9983 42.2338" stroke="black"/>
<path d="M25.0441 0.73877L25.0441 9.7816" stroke="black"/>
<path d="M49.9431 25.5229H41.7115" stroke="black"/>
<mask id="path-6-inside-1_108_541" fill="white">
<path d="M28.3384 22.271H41.7114V28.938H28.3384V43.3823H21.6723V28.938H7.26707V22.271H21.6723V8.93799H28.3384V22.271Z"/>
</mask>
<path d="M28.3384 22.271H41.7114V28.938H28.3384V43.3823H21.6723V28.938H7.26707V22.271H21.6723V8.93799H28.3384V22.271Z" fill="#2FAA96"/>
<path d="M28.3384 22.271H27.3384V23.271H28.3384V22.271ZM41.7114 22.271H42.7114V21.271H41.7114V22.271ZM41.7114 28.938V29.938H42.7114V28.938H41.7114ZM28.3384 28.938V27.938H27.3384V28.938H28.3384ZM28.3384 43.3823V44.3823H29.3384V43.3823H28.3384ZM21.6723 43.3823H20.6723V44.3823H21.6723V43.3823ZM21.6723 28.938H22.6723V27.938H21.6723V28.938ZM7.26707 28.938H6.26707V29.938H7.26707V28.938ZM7.26707 22.271V21.271H6.26707V22.271H7.26707ZM21.6723 22.271V23.271H22.6723V22.271H21.6723ZM21.6723 8.93799V7.93799H20.6723V8.93799H21.6723ZM28.3384 8.93799H29.3384V7.93799H28.3384V8.93799ZM28.3384 22.271V23.271H41.7114V22.271V21.271H28.3384V22.271ZM41.7114 22.271H40.7114V28.938H41.7114H42.7114V22.271H41.7114ZM41.7114 28.938V27.938H28.3384V28.938V29.938H41.7114V28.938ZM28.3384 28.938H27.3384V43.3823H28.3384H29.3384V28.938H28.3384ZM28.3384 43.3823V42.3823H21.6723V43.3823V44.3823H28.3384V43.3823ZM21.6723 43.3823H22.6723V28.938H21.6723H20.6723V43.3823H21.6723ZM21.6723 28.938V27.938H7.26707V28.938V29.938H21.6723V28.938ZM7.26707 28.938H8.26707V22.271H7.26707H6.26707V28.938H7.26707ZM7.26707 22.271V23.271H21.6723V22.271V21.271H7.26707V22.271ZM21.6723 22.271H22.6723V8.93799H21.6723H20.6723V22.271H21.6723ZM21.6723 8.93799V9.93799H28.3384V8.93799V7.93799H21.6723V8.93799ZM28.3384 8.93799H27.3384V22.271H28.3384H29.3384V8.93799H28.3384Z" fill="black" mask="url(#path-6-inside-1_108_541)"/>
</svg>
