<?xml version="1.0" encoding="UTF-8" standalone="no"?>
<svg
   width="54.086338mm"
   height="10.000004mm"
   viewBox="0 0 54.086338 10.000004"
   version="1.1"
   id="svg1"
   xmlns="http://www.w3.org/2000/svg"
   xmlns:svg="http://www.w3.org/2000/svg">
  <defs
     id="defs1" />
  <path
     id="logo"
     style="fill:#e6e6e6"
     d="m 17.015084,8.8518009 q -0.563033,0 -1.02729,-0.2667 -0.454377,-0.2765768 -0.721077,-0.770464 -0.2667,-0.5037666 -0.2667,-1.1557 0,-0.6815666 0.27658,-1.1655768 0.286454,-0.4840103 0.770464,-0.7408334 0.484013,-0.2568204 1.086556,-0.2568204 0.48401,0 0.918631,0.2074333 0.4445,0.2074333 0.691446,0.5729102 l -0.03951,0.3259667 V 1.1076294 h 0.908757 V 8.753024 H 18.694304 V 7.7356138 l 0.09878,0.2568231 Q 18.50663,8.3677907 18.052251,8.6147343 17.597874,8.8518009 17.015087,8.8518009 Z m 0.286454,-0.7803435 q 0.365479,0 0.651933,-0.1284102 0.286456,-0.1382898 0.474133,-0.3753565 0.187677,-0.2370666 0.2667,-0.5630307 V 6.2341934 q -0.07902,-0.2963333 -0.286456,-0.5136436 -0.197554,-0.2271897 -0.48401,-0.3556 -0.276577,-0.1382897 -0.6223,-0.1382897 -0.375354,0 -0.691444,0.1876769 -0.30621,0.1778 -0.493887,0.4938897 -0.187679,0.3160871 -0.187679,0.7309538 0,0.4049898 0.187679,0.7309564 0.187677,0.3160872 0.503767,0.5136436 0.316087,0.1876769 0.681564,0.1876769 z m 4.731456,-3.4078307 0.0889,1.1853334 -0.04939,-0.1580436 q 0.158047,-0.3753564 0.454377,-0.6321795 0.306213,-0.2666974 0.63218,-0.4049872 0.335843,-0.1481666 0.582787,-0.1481666 l -0.04939,0.9087538 q -0.464254,-0.029633 -0.819854,0.1778 -0.345723,0.2074333 -0.553153,0.5531564 -0.197557,0.3457204 -0.197557,0.7408333 V 8.753024 H 21.21314 V 4.6636267 Z m 2.894182,0 h 0.918631 V 8.753024 h -0.918631 z m -0.06915,-1.481664 q 0,-0.2173102 0.167923,-0.3654768 0.1778,-0.1481667 0.385233,-0.1481667 0.207433,0 0.365477,0.1481667 0.167923,0.1481666 0.167923,0.3654768 0,0.2271872 -0.167923,0.3753538 -0.158044,0.1382898 -0.365477,0.1382898 -0.207433,0 -0.385233,-0.1481667 Q 24.85803,3.399273 24.85803,3.1819627 Z M 27.43612,1.1076294 h 0.918634 V 8.753024 H 27.43612 Z m 2.508951,0 h 0.918634 V 8.753024 h -0.918634 z m 4.168418,7.7441715 q -0.563033,0 -1.02729,-0.2667 -0.454376,-0.2765768 -0.721076,-0.770464 -0.2667,-0.5037666 -0.2667,-1.1557 0,-0.6815666 0.276579,-1.1655768 0.286454,-0.4840103 0.770464,-0.7408334 0.48401,-0.2568204 1.086557,-0.2568204 0.48401,0 0.91863,0.2074333 0.4445,0.2074333 0.691444,0.5729102 l -0.03951,0.3259667 V 1.1076294 h 0.908756 V 8.753024 H 35.792714 V 7.7356138 l 0.09878,0.2568231 Q 35.605037,8.3677907 35.150657,8.6147343 34.69628,8.8518009 34.113493,8.8518009 Z m 0.286454,-0.7803435 q 0.365477,0 0.651933,-0.1284102 Q 35.338333,7.8047574 35.52601,7.5676907 35.713687,7.3306241 35.79271,7.00466 V 6.2341934 q -0.07902,-0.2963333 -0.286457,-0.5136436 -0.197554,-0.2271897 -0.48401,-0.3556 -0.276577,-0.1382897 -0.6223,-0.1382897 -0.375354,0 -0.691444,0.1876769 -0.30621,0.1778 -0.493887,0.4938897 -0.187679,0.3160871 -0.187679,0.7309538 0,0.4049898 0.187679,0.7309564 0.187677,0.3160872 0.503764,0.5136436 0.31609,0.1876769 0.681567,0.1876769 z M 37.95595,6.6688138 q 0,-0.6124204 0.286453,-1.1063102 0.296334,-0.4938871 0.809977,-0.7803435 0.513647,-0.2864538 1.165577,-0.2864538 0.67169,0 1.175457,0.2864538 0.503764,0.2864564 0.780343,0.7803435 0.276577,0.4938898 0.276577,1.1063102 0,0.6124231 -0.276577,1.1161898 -0.276579,0.4938871 -0.790223,0.7803436 -0.503767,0.2864537 -1.175454,0.2864537 -0.651933,0 -1.165577,-0.2667 -0.503766,-0.2765768 -0.8001,-0.7605871 -0.286453,-0.4938897 -0.286453,-1.1557 z m 0.91863,0.00987 q 0,0.3951102 0.1778,0.7210769 0.1778,0.3160871 0.474134,0.5037666 0.30621,0.1876769 0.671689,0.1876769 0.385234,0 0.681564,-0.1876769 0.306213,-0.1876795 0.474134,-0.5037666 0.167923,-0.3259667 0.167923,-0.7210769 0,-0.3951129 -0.167923,-0.7112 -0.167921,-0.3259667 -0.474134,-0.5136435 -0.29633,-0.1975565 -0.681564,-0.1975565 -0.375356,0 -0.681566,0.1975565 Q 39.220303,5.651394 39.042503,5.9773607 38.87458,6.2934505 38.87458,6.6786838 Z m 7.309546,-2.0150666 1.205087,2.7558973 -0.1778,0.019764 1.126067,-2.7756538 h 0.898877 L 47.35958,8.999965 46.045836,6.1946779 44.850626,8.999965 42.954095,4.6636241 h 0.898877 l 1.274234,2.8843102 -0.31609,-0.059267 0.908754,-2.1138435 -0.325967,-0.7112 z m 4.859861,0 0.07902,0.9976564 -0.03951,-0.1580462 q 0.197556,-0.4543769 0.642056,-0.7210769 0.4445,-0.2765769 1.027287,-0.2765769 0.58279,0 0.948267,0.3457231 0.375354,0.3358436 0.385233,0.8791204 V 8.7530145 H 53.15783 V 6.0563828 Q 53.14793,5.7205393 52.960273,5.5131059 52.782473,5.295793 52.39724,5.295793 q -0.3556,0 -0.642054,0.1975565 -0.286456,0.1975564 -0.454377,0.5432769 -0.158046,0.3457231 -0.158046,0.8001 v 1.9162871 h -0.91863 V 4.6636162 Z M -3.1411264e-7,1.4999562 H 10.000001 V 4.4999661 H -3.1411264e-7 Z m 0,-1.499978368318 H 10 V 0.99996788 H -3.1411264e-7 Z m 0,5.000000468318 H 10 V 9.9999762 H -3.1411264e-7 Z" />
</svg>
