<svg xmlns="http://www.w3.org/2000/svg" width="1024" height="1024" viewBox="0 0 1024 1024">
<g>
<path d="M 361.43 460.51 C360.63,462.43 359.60,464.00 359.14,464.00 C358.23,464.00 355.59,454.81 353.99,446.11 C353.45,443.15 353.00,423.79 353.00,403.10 L 353.00 365.47 L 358.25 362.37 C361.14,360.67 382.62,347.85 405.98,333.89 C429.35,319.92 448.92,308.34 449.48,308.14 C450.53,307.77 456.42,304.10 461.21,300.84 C462.70,299.83 464.56,299.00 465.35,299.00 C466.14,299.00 468.23,297.65 470.00,296.00 C471.77,294.35 474.26,293.00 475.55,293.00 C476.83,293.00 478.16,292.55 478.50,292.00 C478.84,291.45 479.97,291.00 481.00,291.00 C482.04,291.00 483.56,290.04 484.39,288.86 C486.68,285.58 491.16,283.01 494.59,283.01 C496.93,283.00 497.96,282.38 498.85,280.43 C499.69,278.59 500.65,277.95 502.26,278.18 C505.34,278.62 505.33,282.38 502.25,282.82 C499.90,283.15 499.08,284.98 501.25,285.03 C501.94,285.05 503.35,285.71 504.39,286.49 C506.19,287.85 506.14,287.98 503.39,289.20 C500.36,290.54 497.90,293.04 498.57,294.11 C499.22,295.16 495.68,297.69 492.50,298.44 C490.85,298.83 486.91,301.40 483.75,304.14 C479.49,307.85 477.49,308.97 476.00,308.50 C474.49,308.02 474.00,308.32 474.00,309.73 C474.00,311.01 471.64,312.95 466.52,315.86 C462.41,318.20 457.79,321.35 456.27,322.87 C454.75,324.39 450.35,327.35 446.50,329.46 C442.65,331.56 437.70,334.49 435.50,335.97 C433.30,337.45 430.83,338.96 430.00,339.33 C429.17,339.69 425.64,341.79 422.15,343.99 C418.66,346.20 415.61,348.00 415.38,348.00 C414.89,348.00 409.90,351.11 398.50,358.52 C394.10,361.38 386.00,366.40 380.50,369.69 L 370.50 375.66 L 369.85 406.58 C369.23,435.52 368.10,452.07 366.45,456.31 C366.05,457.34 365.13,457.88 364.32,457.57 C363.37,457.21 362.39,458.20 361.43,460.51 ZM 474.10 363.15 C473.46,363.89 472.25,365.40 471.41,366.50 C469.94,368.44 469.92,368.43 470.98,366.25 C471.83,364.50 471.78,364.00 470.74,364.00 C470.00,364.00 468.93,364.47 468.34,365.06 C467.12,366.28 462.00,365.26 462.00,363.80 C462.00,363.26 462.90,362.58 464.00,362.29 C466.20,361.71 466.78,359.00 464.70,359.00 C461.58,359.00 461.07,356.77 463.30,352.86 C464.51,350.75 466.03,349.01 466.68,349.01 C467.33,349.00 468.83,347.65 470.00,346.00 C471.28,344.20 473.03,343.00 474.37,343.00 C475.60,343.00 477.16,342.44 477.86,341.75 C478.55,341.06 481.22,340.43 483.81,340.35 C486.39,340.26 489.96,339.88 491.75,339.48 C495.22,338.73 496.54,340.59 493.25,341.60 C492.29,341.90 490.72,342.56 489.76,343.07 C488.81,343.58 486.28,344.00 484.14,344.00 C481.91,344.00 479.72,344.64 479.01,345.49 C477.83,346.91 477.16,351.99 477.03,360.50 C476.99,363.11 476.67,364.03 476.12,363.15 C475.40,362.02 475.07,362.02 474.10,363.15 ZM 321.30 690.74 C321.53,691.98 321.16,693.45 320.48,694.02 C319.52,694.81 319.07,693.74 318.53,689.41 C318.12,686.11 318.23,683.37 318.79,682.81 C319.83,681.77 329.00,682.75 329.00,683.90 C329.00,684.26 327.76,684.66 326.25,684.78 C322.92,685.05 320.73,687.69 321.30,690.74 ZM 327.00 695.17 C327.00,698.25 325.59,698.97 324.60,696.40 C323.73,694.13 326.05,687.00 327.65,687.00 C328.99,687.00 329.02,690.31 327.69,691.64 C327.31,692.02 327.00,693.61 327.00,695.17 ZM 513.00 278.11 C513.00,279.34 512.30,280.00 510.97,280.00 C508.55,280.00 507.16,277.14 509.01,275.99 C510.92,274.82 513.00,275.92 513.00,278.11 ZM 473.83 369.03 C474.49,370.95 473.54,371.96 472.00,370.97 C470.67,370.11 470.67,369.89 472.00,369.03 C472.97,368.41 473.62,368.41 473.83,369.03 ZM 447.15 359.75 C447.79,360.39 447.60,360.94 446.60,361.32 C445.75,361.65 444.82,361.51 444.52,361.03 C443.71,359.72 446.01,358.61 447.15,359.75 Z" fill="rgb(8,125,215)"/>
<path d="M 328.67 747.22 C327.09,748.23 321.02,748.08 318.24,746.96 L 315.97 746.05 L 316.50 680.50 L 354.71 680.50 L 361.53 684.00 C367.00,686.81 368.39,687.99 368.55,690.00 C368.66,691.38 369.37,694.00 370.13,695.84 C371.41,698.95 371.35,699.30 369.25,701.00 C366.81,702.97 366.23,705.15 368.25,704.75 C370.52,704.29 370.14,709.62 367.55,714.49 C363.51,722.09 362.93,722.56 360.88,719.84 C358.61,716.83 357.28,718.19 359.02,721.75 C359.77,723.26 360.42,725.49 360.48,726.70 C360.54,727.90 361.30,729.70 362.16,730.70 C363.02,731.69 364.03,733.74 364.38,735.25 C364.74,736.76 365.49,738.00 366.03,738.00 C367.34,738.00 371.05,744.12 370.39,745.18 C370.11,745.63 367.97,746.00 365.64,746.00 C361.62,746.00 361.14,745.66 356.22,739.49 C353.37,735.92 350.12,731.20 349.01,729.01 C346.71,724.52 343.49,723.15 339.23,724.88 C337.73,725.49 335.15,725.88 333.50,725.74 L 330.50 725.50 L 330.17 735.99 C329.97,742.59 329.41,746.75 328.67,747.22 ZM 503.11 378.94 C500.64,380.26 490.71,381.41 489.80,380.48 C489.13,379.79 481.67,377.73 473.88,376.08 C468.92,375.03 464.52,371.69 461.86,366.96 C459.65,363.04 459.57,363.00 453.70,363.00 C448.49,363.00 447.33,363.38 444.25,366.08 C441.06,368.89 440.60,369.02 439.17,367.60 C437.74,366.17 437.86,365.75 440.49,363.01 L 443.37 360.00 L 440.49 356.99 C438.29,354.69 437.89,353.71 438.79,352.81 C439.69,351.91 441.00,352.38 444.40,354.82 C448.00,357.41 449.79,358.00 453.97,358.00 C459.06,358.00 459.13,357.96 461.00,353.72 C463.42,348.27 466.04,345.85 473.50,342.20 C486.92,335.64 493.01,333.76 499.37,334.22 C504.99,334.63 505.62,334.94 509.46,339.18 C512.84,342.91 514.38,343.83 518.26,344.41 C523.17,345.15 523.89,346.46 520.70,348.84 C519.71,349.58 519.00,350.93 519.11,351.84 C519.22,352.75 519.03,354.17 518.68,355.00 C518.34,355.83 517.61,357.74 517.05,359.25 C516.50,360.76 515.38,362.00 514.56,362.00 C513.64,362.00 513.29,362.58 513.64,363.50 C514.75,366.40 513.01,369.52 509.03,371.78 C506.50,373.21 505.00,374.78 505.00,375.99 C505.00,377.06 504.15,378.39 503.11,378.94 ZM 433.82 453.00 C432.99,453.00 431.90,453.85 431.40,454.88 C430.55,456.65 430.33,456.59 427.61,453.99 C424.90,451.39 424.77,450.88 425.42,445.86 C425.80,442.91 426.28,438.42 426.48,435.87 C427.20,426.76 436.37,413.84 445.71,408.76 C453.47,404.53 461.06,403.00 474.24,403.00 C484.00,403.00 486.17,403.27 486.66,404.55 C487.31,406.26 483.44,411.00 481.38,411.00 C479.37,411.00 478.85,412.71 480.40,414.26 C481.96,415.82 481.52,416.85 478.50,418.76 C477.40,419.46 475.15,420.93 473.50,422.04 C471.85,423.14 468.30,424.82 465.61,425.77 C461.81,427.11 460.41,428.22 459.36,430.71 C458.61,432.48 457.11,434.41 456.01,434.99 C454.92,435.58 453.32,437.42 452.46,439.08 C449.93,443.98 444.17,449.48 441.35,449.70 C439.93,449.81 438.00,450.60 437.06,451.45 C436.11,452.30 434.66,453.00 433.82,453.00 ZM 437.59 334.64 C440.09,333.09 443.61,331.04 446.50,329.46 C450.35,327.35 454.75,324.39 456.27,322.87 C457.79,321.35 462.41,318.20 466.52,315.86 C471.64,312.95 474.00,311.01 474.00,309.73 C474.00,308.32 474.49,308.02 476.00,308.50 C477.49,308.97 479.49,307.85 483.75,304.14 C486.91,301.40 490.85,298.83 492.50,298.44 C495.68,297.69 499.22,295.16 498.57,294.11 C497.90,293.04 500.36,290.54 503.39,289.20 C506.14,287.98 506.19,287.85 504.39,286.49 C503.35,285.71 501.94,285.05 501.25,285.03 C499.08,284.98 499.90,283.15 502.25,282.82 C505.33,282.38 505.34,278.62 502.26,278.18 C500.65,277.95 499.69,278.59 498.85,280.43 C497.96,282.38 496.93,283.00 494.59,283.01 C491.16,283.01 486.68,285.58 484.39,288.86 C483.56,290.04 482.04,291.00 481.00,291.00 C479.97,291.00 478.84,291.45 478.50,292.00 C478.16,292.55 476.83,293.00 475.55,293.00 C474.26,293.00 471.77,294.35 470.00,296.00 C468.23,297.65 466.14,299.00 465.35,299.00 C464.94,299.00 464.23,299.23 463.43,299.59 C466.74,297.52 470.92,294.94 474.92,292.50 C482.13,288.10 491.50,282.37 495.76,279.77 C496.15,279.54 496.52,279.31 496.88,279.09 C504.67,274.33 506.79,273.04 508.67,273.31 C509.46,273.43 510.21,273.82 511.31,274.34 C513.19,275.24 517.15,277.94 520.11,280.36 C523.08,282.78 526.49,285.06 527.71,285.43 C528.92,285.80 531.02,287.42 532.37,289.03 C533.72,290.64 536.42,292.71 538.37,293.64 C542.28,295.50 543.76,297.90 541.78,299.15 L 541.74 299.18 C541.23,299.51 540.90,299.72 540.92,299.86 C540.97,300.13 542.26,300.18 545.92,300.33 C548.43,300.42 550.51,301.04 550.75,301.75 C551.12,302.86 550.43,303.19 548.36,302.91 C548.01,302.87 547.45,303.21 547.11,303.67 C546.78,304.14 544.87,305.37 542.88,306.42 C538.91,308.50 536.08,308.02 535.33,305.15 C534.85,303.30 526.05,299.00 522.76,299.00 C521.83,299.00 519.24,298.05 517.02,296.89 C509.85,293.16 506.54,292.88 502.79,295.71 C500.98,297.08 497.70,299.05 495.50,300.10 C493.30,301.15 488.94,303.69 485.82,305.75 C475.08,312.84 455.49,324.72 447.50,328.99 C444.16,330.77 440.24,333.01 437.59,334.64 ZM 361.43 460.51 C362.39,458.20 363.37,457.21 364.32,457.57 C365.13,457.88 366.05,457.34 366.45,456.31 C368.10,452.07 369.23,435.52 369.85,406.58 L 370.50 375.66 L 370.50 375.66 L 380.50 369.69 L 370.50 375.66 L 370.22 389.08 C370.07,396.46 369.54,422.98 369.06,448.00 C368.57,473.02 367.85,495.02 367.46,496.88 C367.01,498.97 366.01,500.45 364.83,500.76 C362.85,501.27 360.00,505.78 360.00,508.39 C360.00,510.52 358.32,511.27 357.62,509.46 C357.30,508.62 356.13,500.94 355.02,492.40 C353.20,478.43 353.00,471.23 353.00,421.16 L 353.00 403.10 C353.00,423.79 353.45,443.15 353.99,446.11 C355.59,454.81 358.23,464.00 359.14,464.00 C359.60,464.00 360.63,462.43 361.43,460.51 ZM 330.68 717.29 C330.97,717.75 331.94,717.81 332.85,717.40 C333.76,717.00 338.47,716.35 343.32,715.96 C351.52,715.30 352.39,715.02 355.57,711.93 C358.57,709.02 359.00,707.98 359.00,703.64 C359.00,699.38 358.57,698.30 355.96,695.97 C353.17,693.47 352.10,693.22 342.21,692.76 C336.32,692.48 331.33,692.41 331.13,692.59 C330.52,693.11 330.10,716.35 330.68,717.29 ZM 474.10 363.15 C475.07,362.02 475.40,362.02 476.12,363.15 C476.67,364.03 476.99,363.11 477.03,360.50 C477.16,351.99 477.83,346.91 479.01,345.49 C479.72,344.64 481.91,344.00 484.14,344.00 C486.28,344.00 488.81,343.58 489.76,343.07 C490.72,342.56 492.29,341.90 493.25,341.60 C496.54,340.59 495.22,338.73 491.75,339.48 C489.96,339.88 486.39,340.26 483.81,340.35 C481.22,340.43 478.55,341.06 477.86,341.75 C477.16,342.44 475.60,343.00 474.37,343.00 C473.03,343.00 471.28,344.20 470.00,346.00 C468.83,347.65 467.33,349.00 466.68,349.01 C466.03,349.01 464.51,350.75 463.30,352.86 C461.07,356.77 461.58,359.00 464.70,359.00 C466.78,359.00 466.20,361.71 464.00,362.29 C462.90,362.58 462.00,363.26 462.00,363.80 C462.00,365.26 467.12,366.28 468.34,365.06 C468.93,364.47 470.00,364.00 470.74,364.00 C471.78,364.00 471.83,364.50 470.98,366.25 C469.92,368.43 469.94,368.44 471.41,366.50 C472.25,365.40 473.46,363.89 474.10,363.15 ZM 481.00 359.00 C481.00,367.36 481.31,370.00 482.30,370.00 C484.16,370.00 486.00,367.91 486.00,365.80 C486.00,364.47 486.78,364.00 488.95,364.00 C497.30,364.00 502.10,355.71 496.96,350.19 C495.24,348.34 493.83,348.00 487.96,348.00 L 481.00 348.00 ZM 492.60 357.49 C491.04,359.87 487.21,360.88 485.67,359.33 C485.30,358.97 485.00,357.17 485.00,355.33 C485.00,352.21 485.22,352.00 488.38,352.00 C493.06,352.00 494.75,354.21 492.60,357.49 ZM 321.30 690.74 C320.73,687.69 322.92,685.05 326.25,684.78 C327.76,684.66 329.00,684.26 329.00,683.90 C329.00,682.75 319.83,681.77 318.79,682.81 C318.23,683.37 318.12,686.11 318.53,689.41 C319.07,693.74 319.52,694.81 320.48,694.02 C321.16,693.45 321.53,691.98 321.30,690.74 ZM 327.00 695.17 C327.00,693.61 327.31,692.02 327.69,691.64 C329.02,690.31 328.99,687.00 327.65,687.00 C326.05,687.00 323.73,694.13 324.60,696.40 C325.59,698.97 327.00,698.25 327.00,695.17 ZM 513.00 278.11 C513.00,275.92 510.92,274.82 509.01,275.99 C507.16,277.14 508.55,280.00 510.97,280.00 C512.30,280.00 513.00,279.34 513.00,278.11 ZM 493.00 376.00 C493.00,376.55 493.90,377.00 495.00,377.00 C496.10,377.00 497.00,376.55 497.00,376.00 C497.00,375.45 496.10,375.00 495.00,375.00 C493.90,375.00 493.00,375.45 493.00,376.00 ZM 473.83 369.03 C473.62,368.41 472.97,368.41 472.00,369.03 C470.67,369.89 470.67,370.11 472.00,370.97 C473.54,371.96 474.49,370.95 473.83,369.03 ZM 447.15 359.75 C446.01,358.61 443.71,359.72 444.52,361.03 C444.82,361.51 445.75,361.65 446.60,361.32 C447.60,360.94 447.79,360.39 447.15,359.75 ZM 453.64 305.76 C451.58,307.04 449.98,307.96 449.48,308.14 C449.38,308.18 448.61,308.61 447.27,309.39 C449.38,308.16 450.68,307.40 451.00,307.25 C451.62,306.93 452.57,306.40 453.64,305.76 Z" fill="rgb(21,138,201)"/>
<path d="M 433.82 453.00 C434.66,453.00 436.11,452.30 437.06,451.45 C438.00,450.60 439.93,449.81 441.35,449.70 C444.17,449.48 449.93,443.98 452.46,439.08 C453.32,437.42 454.92,435.58 456.01,434.99 C457.11,434.41 458.61,432.48 459.36,430.71 C460.41,428.22 461.81,427.11 465.61,425.77 C468.30,424.82 471.85,423.14 473.50,422.04 C475.15,420.93 477.40,419.46 478.50,418.76 C481.52,416.85 481.96,415.82 480.40,414.26 C478.85,412.71 479.37,411.00 481.38,411.00 C483.44,411.00 487.31,406.26 486.66,404.55 C486.29,403.59 484.97,403.20 480.18,403.06 C484.19,403.01 488.86,402.98 494.32,402.96 C512.02,402.89 526.37,403.21 526.21,403.67 C526.04,404.13 524.69,404.37 523.19,404.22 C521.70,404.06 519.59,404.58 518.52,405.36 C516.85,406.58 516.77,407.02 517.93,408.42 C519.53,410.35 519.50,410.39 515.00,411.61 C512.12,412.39 511.44,413.09 511.18,415.53 C510.77,419.33 501.55,429.00 498.34,429.00 C497.12,429.00 495.84,429.45 495.50,430.00 C495.16,430.55 492.88,431.00 490.44,431.00 C488.00,431.00 486.00,431.45 486.00,432.00 C486.00,432.60 481.79,433.00 475.37,433.00 C463.45,433.00 459.32,434.55 456.44,440.11 C454.84,443.21 454.57,455.64 456.07,457.53 C456.52,458.10 457.35,459.78 457.91,461.27 C458.83,463.69 458.65,464.14 456.22,465.45 C454.72,466.26 450.66,469.64 447.19,472.96 C443.72,476.28 440.48,479.00 439.98,479.00 C439.48,479.00 438.61,478.13 438.04,477.07 C437.47,476.00 436.10,474.85 435.00,474.50 C429.76,472.84 423.31,453.92 424.45,443.57 C425.81,431.32 430.87,421.09 438.75,413.97 C432.25,420.17 427.02,429.08 426.48,435.87 C426.28,438.42 425.80,442.91 425.42,445.86 C424.77,450.88 424.90,451.39 427.61,453.99 C430.33,456.59 430.55,456.65 431.40,454.88 C431.90,453.85 432.99,453.00 433.82,453.00 ZM 379.00 553.62 C379.00,556.55 368.13,553.61 356.00,547.41 L 353.50 546.13 L 353.28 468.48 C353.55,479.48 354.06,484.99 355.02,492.40 C356.13,500.94 357.30,508.62 357.62,509.46 C358.32,511.27 360.00,510.52 360.00,508.39 C360.00,505.78 362.85,501.27 364.83,500.76 C366.01,500.45 367.01,498.97 367.46,496.88 C367.85,495.02 368.57,473.02 369.06,448.00 C369.54,422.98 370.07,396.46 370.22,389.08 L 370.50 375.66 L 370.50 375.66 L 380.50 369.69 C385.61,366.63 392.97,362.07 397.52,359.15 C392.97,362.07 385.61,366.63 380.50,369.69 L 370.50 375.66 L 370.27 456.50 L 370.03 537.34 L 372.99 539.14 C376.12,541.04 377.58,544.58 376.57,547.79 C376.20,548.94 376.57,550.23 377.48,550.98 C378.31,551.68 379.00,552.86 379.00,553.62 ZM 503.11 378.94 C504.15,378.39 505.00,377.06 505.00,375.99 C505.00,374.78 506.50,373.21 509.03,371.78 C513.01,369.52 514.75,366.40 513.64,363.50 C513.29,362.58 513.64,362.00 514.56,362.00 C515.38,362.00 516.50,360.76 517.05,359.25 C517.61,357.74 518.34,355.83 518.68,355.00 C519.03,354.17 519.22,352.75 519.11,351.84 C519.00,350.93 519.71,349.58 520.70,348.84 C523.89,346.46 523.17,345.15 518.26,344.41 C517.48,344.29 516.80,344.16 516.17,344.00 L 521.73 344.00 C530.92,344.00 539.27,346.18 542.52,349.43 C543.77,350.68 545.52,351.99 546.40,352.32 C547.28,352.66 548.99,354.97 550.20,357.47 C551.41,359.96 552.76,362.00 553.20,362.00 C553.64,362.00 554.00,363.19 554.00,364.65 C554.00,367.16 553.90,367.22 552.17,365.65 C549.51,363.24 548.33,363.60 547.07,367.22 C546.46,368.99 544.47,371.84 542.65,373.55 L 539.36 376.66 L 533.93 374.88 C529.76,373.51 526.79,373.23 521.13,373.70 C514.00,374.29 513.61,374.46 509.73,378.67 C507.52,381.07 504.54,383.29 503.11,383.61 C501.67,383.93 499.83,384.33 499.00,384.51 C496.21,385.12 479.40,379.31 470.78,375.10 C471.78,375.53 472.82,375.86 473.88,376.08 C481.67,377.73 489.13,379.79 489.80,380.48 C490.71,381.41 500.64,380.26 503.11,378.94 ZM 507.49 293.82 C509.91,293.69 512.80,294.69 517.02,296.89 C519.24,298.05 521.83,299.00 522.76,299.00 C526.05,299.00 534.85,303.30 535.33,305.15 C536.08,308.02 538.91,308.50 542.88,306.42 C544.87,305.37 546.78,304.14 547.11,303.67 C547.45,303.21 548.01,302.87 548.36,302.91 C550.43,303.19 551.12,302.86 550.75,301.75 C550.51,301.04 548.43,300.42 545.92,300.33 C542.26,300.18 540.97,300.13 540.92,299.86 C540.90,299.72 541.23,299.51 541.74,299.18 L 541.78 299.15 C543.76,297.90 542.28,295.50 538.37,293.64 C536.42,292.71 533.72,290.64 532.37,289.03 C531.02,287.42 528.92,285.80 527.71,285.43 C526.49,285.06 523.08,282.78 520.11,280.36 C518.15,278.76 515.76,277.03 513.82,275.79 C531.84,285.72 562.08,304.23 565.63,307.56 C567.35,309.18 571.06,312.52 573.88,314.99 C576.70,317.47 579.00,319.86 579.00,320.32 C579.00,320.78 577.54,321.00 575.75,320.83 C572.85,320.54 572.47,320.80 572.18,323.25 C571.94,325.37 571.33,326.00 569.56,326.00 C568.28,326.00 566.71,325.36 566.06,324.58 C565.42,323.80 563.00,322.84 560.69,322.45 C556.80,321.79 551.28,318.74 520.00,300.01 C513.10,295.88 509.82,294.04 507.49,293.82 ZM 399.74 741.27 C398.35,745.45 392.62,740.21 390.13,732.49 C388.99,728.92 388.57,726.12 389.10,725.55 C390.29,724.29 390.24,723.00 389.00,723.00 C388.45,723.00 388.11,723.34 388.25,723.75 C388.77,725.32 387.42,725.40 385.31,723.93 C383.24,722.48 382.77,719.90 384.29,718.38 C384.67,718.00 384.71,716.03 384.38,714.00 C383.29,707.13 389.60,699.78 397.52,698.72 C399.71,698.42 402.40,698.03 403.50,697.84 C404.92,697.60 405.59,698.12 405.80,699.63 C406.24,702.71 399.39,708.28 396.84,706.91 C395.22,706.05 395.00,706.34 395.00,709.41 C395.00,713.34 393.60,714.75 391.46,712.96 C390.32,712.02 389.68,712.02 388.51,712.99 C386.50,714.66 387.53,716.00 390.81,716.00 C394.37,716.00 397.04,721.11 394.70,723.44 C391.77,726.37 394.34,738.34 398.16,739.55 C399.23,739.89 399.94,740.67 399.74,741.27 ZM 330.42 728.00 L 330.50 725.50 L 333.50 725.74 C335.15,725.88 337.73,725.49 339.23,724.88 C343.49,723.15 346.71,724.52 349.01,729.01 C350.12,731.20 353.37,735.92 356.22,739.49 C361.14,745.66 361.62,746.00 365.64,746.00 C367.97,746.00 370.11,745.63 370.39,745.18 C371.05,744.12 367.34,738.00 366.03,738.00 C365.49,738.00 364.74,736.76 364.38,735.25 C364.03,733.74 363.02,731.69 362.16,730.70 C361.30,729.70 360.54,727.90 360.48,726.70 C360.42,725.49 359.77,723.26 359.02,721.75 C357.28,718.19 358.61,716.83 360.88,719.84 C362.93,722.56 363.51,722.09 367.55,714.49 C370.14,709.62 370.52,704.29 368.25,704.75 C366.23,705.15 366.81,702.97 369.25,701.00 C371.35,699.30 371.41,698.95 370.13,695.84 C369.37,694.00 368.66,691.38 368.55,690.00 C368.39,687.99 367.00,686.81 361.53,684.00 L 354.71 680.50 L 361.61 684.00 C367.73,687.11 368.82,688.12 371.33,693.00 C373.76,697.72 374.10,699.35 373.71,704.55 C373.17,711.82 371.25,715.80 365.52,721.54 L 361.19 725.86 L 367.15 735.06 C370.42,740.12 372.96,744.99 372.78,745.88 C372.53,747.19 371.13,747.50 365.52,747.50 L 358.57 747.50 L 352.54 737.76 L 346.50 728.03 L 338.25 728.01 ZM 406.68 513.87 C407.39,516.61 405.22,516.60 402.50,513.87 C401.40,512.76 399.25,511.60 397.73,511.30 C394.40,510.63 393.66,509.64 394.50,506.99 C394.89,505.78 396.02,505.00 397.38,505.00 C398.61,505.00 400.49,504.34 401.56,503.53 C404.53,501.29 406.93,501.69 408.05,504.63 C408.80,506.61 408.69,507.83 407.59,509.51 C406.78,510.74 406.37,512.70 406.68,513.87 ZM 330.68 717.29 C330.44,716.90 330.37,712.66 330.42,707.80 C330.48,710.49 330.64,712.66 330.92,713.37 L 332.04 716.23 L 342.00 715.83 C344.60,715.73 346.52,715.64 348.02,715.52 C346.77,715.67 345.25,715.81 343.32,715.96 C338.47,716.35 333.76,717.00 332.85,717.40 C331.94,717.81 330.97,717.75 330.68,717.29 ZM 493.00 376.00 C493.00,375.45 493.90,375.00 495.00,375.00 C496.10,375.00 497.00,375.45 497.00,376.00 C497.00,376.55 496.10,377.00 495.00,377.00 C493.90,377.00 493.00,376.55 493.00,376.00 ZM 568.00 320.00 C568.00,320.55 568.67,321.00 569.50,321.00 C570.33,321.00 571.00,320.55 571.00,320.00 C571.00,319.45 570.33,319.00 569.50,319.00 C568.67,319.00 568.00,319.45 568.00,320.00 ZM 328.67 747.22 C329.25,746.86 329.71,744.27 329.98,740.04 C329.91,745.49 329.54,746.96 328.42,747.39 C326.17,748.26 320.90,748.03 318.24,746.96 C321.02,748.08 327.09,748.23 328.67,747.22 ZM 468.37 373.85 C467.78,373.51 467.27,373.19 466.86,372.90 C466.05,372.33 465.04,371.31 464.09,370.15 C465.34,371.61 466.79,372.86 468.37,373.85 ZM 460.07 403.91 C457.75,404.28 455.62,404.77 453.59,405.40 C454.51,405.09 455.44,404.82 456.39,404.57 C457.38,404.31 458.56,404.10 460.07,403.91 ZM 330.90 693.92 C330.97,693.14 331.05,692.66 331.13,692.59 C331.14,692.58 331.16,692.57 331.20,692.56 C331.09,692.80 330.99,693.27 330.90,693.92 ZM 509.86 273.67 C509.44,273.50 509.06,273.37 508.67,273.31 C506.79,273.04 504.67,274.33 496.88,279.09 C496.99,279.03 497.09,278.96 497.20,278.90 C504.67,274.33 506.84,273.00 508.74,273.31 C509.11,273.37 509.47,273.50 509.86,273.67 ZM 353.00 369.19 L 352.99 365.47 L 353.00 365.47 Z" fill="rgb(34,146,184)"/>
<path d="M 467.58 433.35 C469.73,433.10 472.29,433.00 475.37,433.00 C481.79,433.00 486.00,432.60 486.00,432.00 C486.00,431.45 488.00,431.00 490.44,431.00 C492.88,431.00 495.16,430.55 495.50,430.00 C495.84,429.45 497.12,429.00 498.34,429.00 C501.55,429.00 510.77,419.33 511.18,415.53 C511.44,413.09 512.12,412.39 515.00,411.61 C519.50,410.39 519.53,410.35 517.93,408.42 C516.77,407.02 516.85,406.58 518.52,405.36 C519.59,404.58 521.70,404.06 523.19,404.22 C524.69,404.37 526.04,404.13 526.21,403.67 C526.33,403.32 518.10,403.06 506.39,402.97 C522.06,402.89 524.04,402.51 527.03,400.99 C533.86,397.50 537.02,387.80 533.52,381.04 C530.83,375.83 527.42,374.00 520.42,374.00 C519.34,374.00 518.45,374.00 517.68,374.03 C518.63,373.92 519.75,373.82 521.13,373.70 C526.79,373.23 529.76,373.51 533.93,374.88 L 539.36 376.66 L 542.65 373.55 C544.47,371.84 546.46,368.99 547.07,367.22 C548.33,363.60 549.51,363.24 552.17,365.65 C553.90,367.22 554.00,367.16 554.00,364.65 C554.00,363.19 553.64,362.00 553.20,362.00 C552.76,362.00 551.41,359.96 550.20,357.47 C548.99,354.97 547.28,352.66 546.40,352.32 C545.52,351.99 543.77,350.68 542.52,349.43 C540.54,347.45 536.68,345.87 531.88,344.94 C534.59,345.38 536.74,346.02 539.00,346.98 C551.03,352.13 559.41,361.23 563.14,373.20 C564.70,378.20 564.82,380.19 563.97,386.19 C562.03,399.91 560.05,405.79 556.06,409.79 C554.38,411.47 553.00,413.73 553.00,414.81 C553.00,415.89 551.76,417.55 550.25,418.51 C548.74,419.47 546.38,421.29 545.00,422.54 C543.62,423.79 540.47,425.85 538.00,427.11 C535.53,428.36 533.22,429.80 532.87,430.31 C531.51,432.29 522.33,432.91 494.12,432.96 C479.12,432.98 471.72,433.02 467.58,433.35 ZM 423.40 745.59 C406.20,753.19 387.56,745.79 383.01,729.54 C381.09,722.67 382.12,712.35 385.23,707.42 C390.92,698.41 398.02,694.57 409.00,694.57 C416.82,694.57 422.05,696.22 426.46,700.10 C432.20,705.14 436.66,719.03 434.08,723.85 C432.97,725.93 432.32,726.00 414.96,726.00 C398.28,726.00 397.00,726.13 397.00,727.81 C397.00,729.75 401.08,734.02 404.68,735.88 C408.40,737.79 415.32,737.20 420.29,734.56 C424.87,732.12 424.89,732.12 427.37,734.07 C429.46,735.72 429.72,736.48 429.02,738.94 C428.56,740.54 428.44,742.10 428.75,742.41 C429.05,742.72 426.65,744.15 423.40,745.59 ZM 410.50 520.75 C410.26,521.44 409.71,521.99 409.28,521.98 C407.90,521.95 391.00,509.91 391.00,508.96 C391.00,507.60 407.18,497.00 409.24,497.00 C410.56,497.00 411.00,497.82 411.00,500.30 C411.00,505.49 412.21,506.00 424.44,506.00 L 435.48 506.00 L 454.09 487.41 L 472.69 468.83 L 472.22 463.92 C471.82,459.76 472.14,458.50 474.36,455.59 C478.88,449.66 487.56,448.50 493.34,453.05 C494.74,454.15 496.19,456.05 496.56,457.28 C496.93,458.50 497.93,460.29 498.77,461.25 C499.62,462.22 499.83,463.00 499.23,463.00 C498.64,463.00 497.65,464.52 497.04,466.38 C495.14,472.14 492.87,473.41 484.70,473.29 C478.71,473.21 477.12,473.54 475.25,475.27 C474.01,476.41 473.00,477.71 473.00,478.14 C473.00,478.58 465.52,486.59 456.38,495.94 L 439.76 512.95 L 411.67 513.50 L 411.30 516.50 C411.10,518.15 410.74,520.06 410.50,520.75 ZM 513.59 275.65 C532.07,285.66 600.91,327.58 601.34,329.19 C601.58,330.12 603.29,331.51 605.14,332.29 C608.97,333.89 610.66,335.63 611.15,338.50 C611.45,340.18 610.95,340.50 608.00,340.50 C604.97,340.50 604.50,340.82 604.48,342.92 C604.45,346.01 602.96,346.48 598.26,344.88 C596.19,344.18 594.05,343.52 593.50,343.41 C592.95,343.30 587.33,340.08 581.00,336.25 C574.67,332.43 560.50,323.99 549.50,317.51 C547.34,316.23 545.09,314.90 542.82,313.57 C554.63,320.44 558.04,322.00 560.69,322.45 C563.00,322.84 565.42,323.80 566.06,324.58 C566.71,325.36 568.28,326.00 569.56,326.00 C571.33,326.00 571.94,325.37 572.18,323.25 C572.47,320.80 572.85,320.54 575.75,320.83 C577.54,321.00 579.00,320.78 579.00,320.32 C579.00,319.86 576.70,317.47 573.88,314.99 C571.06,312.52 567.35,309.18 565.63,307.56 C562.08,304.23 531.84,285.72 513.82,275.79 C513.74,275.74 513.66,275.70 513.59,275.65 ZM 379.00 553.62 C379.00,552.86 378.31,551.68 377.48,550.98 C376.57,550.23 376.20,548.94 376.57,547.79 C377.58,544.58 376.12,541.04 372.99,539.14 L 370.03 537.34 L 370.04 535.73 L 385.37 544.95 C397.93,552.51 401.15,554.92 402.94,558.10 C404.14,560.24 406.00,562.46 407.06,563.03 C409.84,564.52 409.63,568.83 406.75,569.42 C405.51,569.68 401.67,569.80 398.21,569.70 C391.57,569.51 389.08,568.24 360.25,550.36 L 353.00 545.86 L 353.00 421.16 C353.00,444.67 353.05,458.73 353.28,468.48 L 353.50 546.13 L 356.00 547.41 C368.13,553.61 379.00,556.55 379.00,553.62 ZM 471.00 721.97 C471.00,723.59 470.16,723.78 463.61,723.65 C459.55,723.57 454.98,723.18 453.45,722.79 C451.92,722.40 450.30,722.32 449.84,722.60 C449.38,722.89 449.00,722.59 449.00,721.95 C449.00,721.31 447.71,719.15 446.13,717.14 C444.56,715.14 442.96,712.50 442.57,711.28 C441.64,708.28 445.11,700.63 448.36,698.50 C454.35,694.57 468.66,693.02 470.55,696.09 C470.86,696.59 472.89,697.00 475.06,697.00 C478.89,697.00 479.00,697.10 479.00,700.45 C479.00,704.82 477.03,706.02 471.77,704.84 C467.64,703.91 462.44,704.41 457.74,706.20 C455.49,707.06 455.03,707.79 455.22,710.24 C455.34,711.89 456.02,713.45 456.72,713.72 C457.42,713.99 458.00,714.81 458.00,715.55 C458.00,717.30 458.73,717.68 463.50,718.42 C469.73,719.39 471.00,719.99 471.00,721.97 ZM 399.74 741.27 C399.94,740.67 399.23,739.89 398.16,739.55 C394.34,738.34 391.77,726.37 394.70,723.44 C397.04,721.11 394.37,716.00 390.81,716.00 C387.53,716.00 386.50,714.66 388.51,712.99 C389.68,712.02 390.32,712.02 391.46,712.96 C393.60,714.75 395.00,713.34 395.00,709.41 C395.00,706.34 395.22,706.05 396.84,706.91 C399.39,708.28 406.24,702.71 405.80,699.63 C405.59,698.12 404.92,697.60 403.50,697.84 C402.40,698.03 399.71,698.42 397.52,698.72 C389.60,699.78 383.29,707.13 384.38,714.00 C384.71,716.03 384.67,718.00 384.29,718.38 C382.77,719.90 383.24,722.48 385.31,723.93 C387.42,725.40 388.77,725.32 388.25,723.75 C388.11,723.34 388.45,723.00 389.00,723.00 C390.24,723.00 390.29,724.29 389.10,725.55 C388.57,726.12 388.99,728.92 390.13,732.49 C392.62,740.21 398.35,745.45 399.74,741.27 ZM 407.75 717.24 C408.46,717.26 409.12,717.28 409.75,717.30 C417.87,717.54 419.85,717.60 420.46,716.71 C420.70,716.36 420.72,715.85 420.82,715.14 C421.04,713.69 419.97,711.77 417.67,709.47 C414.70,706.50 413.53,706.00 409.53,706.00 C402.56,706.00 397.11,709.80 397.03,714.72 C397.00,716.85 397.40,716.94 407.75,717.24 ZM 473.00 742.22 C467.67,745.23 462.68,745.93 454.50,744.79 C451.20,744.33 447.74,744.14 446.81,744.37 C443.89,745.08 442.79,738.25 445.47,736.02 C446.66,735.03 447.86,735.31 451.72,737.49 C454.42,739.00 458.80,740.41 461.79,740.73 C466.60,741.24 467.48,741.00 471.62,738.02 C475.49,735.24 476.39,734.96 477.55,736.12 C479.35,737.93 478.45,739.14 473.00,742.22 ZM 406.68 513.87 C406.37,512.70 406.78,510.74 407.59,509.51 C408.69,507.83 408.80,506.61 408.05,504.63 C406.93,501.69 404.53,501.29 401.56,503.53 C400.49,504.34 398.61,505.00 397.38,505.00 C396.02,505.00 394.89,505.78 394.50,506.99 C393.66,509.64 394.40,510.63 397.73,511.30 C399.25,511.60 401.40,512.76 402.50,513.87 C405.22,516.60 407.39,516.61 406.68,513.87 ZM 451.62 472.75 C446.66,477.84 442.31,482.00 441.94,482.00 C440.24,482.00 435.61,477.32 432.24,472.25 C433.17,473.42 434.11,474.22 435.00,474.50 C436.10,474.85 437.47,476.00 438.04,477.07 C438.61,478.13 439.48,479.00 439.98,479.00 C440.48,479.00 443.72,476.28 447.19,472.96 C450.66,469.64 454.72,466.26 456.22,465.45 C458.65,464.14 458.83,463.69 457.91,461.27 C457.35,459.78 456.52,458.10 456.07,457.53 C455.37,456.65 455.06,453.46 455.08,449.99 C455.32,452.55 456.15,453.99 458.57,456.81 C460.76,459.37 461.84,461.46 461.38,462.24 C460.96,462.93 456.57,467.66 451.62,472.75 ZM 481.63 466.93 C483.08,468.07 484.60,469.00 485.00,469.00 C486.82,469.00 491.00,464.65 491.00,462.76 C491.00,457.79 484.63,455.22 480.83,458.65 C478.22,461.01 478.56,464.51 481.63,466.93 ZM 485.89 498.41 C484.08,500.71 480.38,501.47 478.03,500.02 C477.26,499.54 478.12,498.54 480.48,497.14 C484.42,494.82 489.00,494.29 489.00,496.17 C489.00,496.81 488.72,497.05 488.37,496.70 C488.02,496.35 486.91,497.12 485.89,498.41 ZM 568.00 320.00 C568.00,319.45 568.67,319.00 569.50,319.00 C570.33,319.00 571.00,319.45 571.00,320.00 C571.00,320.55 570.33,321.00 569.50,321.00 C568.67,321.00 568.00,320.55 568.00,320.00 ZM 455.92 441.61 C456.08,440.99 456.25,440.49 456.44,440.11 C457.83,437.42 459.52,435.67 462.23,434.58 C461.94,434.74 461.65,434.91 461.34,435.10 C458.67,436.75 456.90,438.85 455.92,441.61 ZM 493.17 383.50 C490.06,382.77 486.33,381.50 481.66,379.68 C485.75,381.21 489.91,382.60 493.17,383.50 ZM 426.54 459.78 C424.86,454.31 424.03,448.67 424.39,444.19 C424.04,448.61 424.97,454.42 426.54,459.78 ZM 519.22 344.00 L 516.17 344.00 C515.98,343.95 515.80,343.90 515.62,343.84 ZM 436.43 416.24 C429.90,423.17 425.70,432.50 424.47,443.45 C425.70,432.48 429.89,423.16 436.43,416.24 ZM 465.12 371.32 C463.82,370.09 462.84,368.71 461.86,366.96 C462.51,368.11 463.25,369.18 464.09,370.15 C464.43,370.56 464.77,370.96 465.12,371.32 ZM 460.07 403.91 C458.59,404.09 457.42,404.31 456.44,404.56 L 456.53 404.53 C457.85,404.19 459.40,403.92 461.48,403.71 C461.00,403.77 460.53,403.84 460.07,403.91 ZM 524.09 302.46 C522.45,301.49 521.06,300.66 520.00,300.02 C514.75,296.88 511.60,295.06 509.36,294.27 C511.60,295.06 514.75,296.87 520.00,300.01 C521.42,300.86 522.78,301.68 524.09,302.46 ZM 484.28 403.02 C482.84,403.03 481.47,403.04 480.18,403.06 C480.01,403.06 479.84,403.05 479.66,403.05 C481.11,403.03 482.65,403.02 484.28,403.02 Z" fill="rgb(45,159,170)"/>
<path d="M 479.06 568.65 C479.61,570.09 479.91,571.43 479.72,571.61 C479.54,571.79 477.06,570.38 474.22,568.46 C468.03,564.30 461.95,556.53 459.01,549.03 C456.86,543.57 456.86,543.56 458.93,545.43 C460.07,546.47 461.00,547.89 461.00,548.60 C461.00,551.16 463.22,551.16 465.89,548.61 C467.38,547.17 469.03,546.00 469.55,545.99 C472.25,545.96 480.15,536.77 483.44,529.83 C485.40,525.71 488.35,521.13 490.00,519.66 C491.65,518.19 493.00,517.28 493.00,517.65 C493.00,518.01 493.79,517.62 494.75,516.77 C495.71,515.93 498.30,514.32 500.50,513.21 C505.04,510.91 519.00,496.90 519.00,494.65 C519.00,493.83 519.48,493.01 520.06,492.81 C521.57,492.31 520.15,489.20 518.16,488.67 C517.25,488.43 525.72,488.22 537.00,488.21 C556.51,488.20 557.28,488.27 553.00,489.69 C550.53,490.51 547.93,491.22 547.23,491.26 C546.52,491.30 544.64,492.72 543.04,494.42 C532.76,505.32 528.12,510.00 527.56,510.00 C527.20,510.00 525.92,510.93 524.71,512.07 C522.63,514.02 522.61,514.22 524.25,515.43 C525.21,516.14 526.00,517.01 526.00,517.36 C526.00,517.71 519.06,518.00 510.58,518.00 C495.40,518.00 495.10,518.04 492.04,520.62 C485.70,525.95 484.39,532.56 488.27,539.50 C489.54,541.77 491.91,544.15 493.73,545.00 C497.06,546.55 498.00,548.00 495.68,548.00 C493.87,548.00 484.78,556.84 485.46,557.93 C486.51,559.64 484.81,561.88 482.00,562.50 C478.60,563.25 477.71,565.11 479.06,568.65 ZM 549.93 474.54 C546.60,476.26 545.64,476.28 541.02,474.69 C539.00,474.00 536.69,472.15 535.52,470.29 C533.93,467.77 532.80,467.07 530.25,467.04 C526.64,467.00 525.68,465.02 529.25,464.97 C531.64,464.93 534.39,463.17 534.67,461.48 C534.77,460.89 533.28,460.61 531.14,460.82 C529.10,461.01 525.87,460.72 523.97,460.17 C520.62,459.22 520.70,459.18 526.18,459.09 C531.31,459.01 532.07,458.71 534.01,455.98 C537.19,451.53 541.46,449.66 547.00,450.31 L 551.64 450.86 L 581.37 421.00 L 590.93 421.00 L 600.50 421.01 L 600.58 424.50 L 600.65 428.00 L 584.10 428.00 L 570.80 441.60 L 557.50 455.20 L 557.84 460.92 C558.13,465.94 557.85,467.03 555.47,469.85 C553.98,471.62 551.49,473.73 549.93,474.54 ZM 541.45 745.09 C537.65,746.77 533.88,747.39 525.25,747.76 C517.15,748.12 514.00,747.93 514.00,747.10 C514.00,745.50 517.60,744.36 523.47,744.10 C526.21,743.98 528.65,743.69 528.89,743.45 C529.13,743.21 528.81,741.88 528.18,740.50 C527.14,738.22 526.49,738.00 520.77,737.98 C509.97,737.96 511.02,736.31 522.16,735.80 C536.14,735.16 541.15,732.63 545.52,724.03 C547.41,720.31 548.08,710.08 546.68,706.25 C545.59,703.25 547.31,703.35 548.93,706.37 C550.06,708.49 550.52,708.63 553.06,707.67 C554.64,707.08 555.72,706.39 555.47,706.14 C555.22,705.89 555.48,705.13 556.04,704.45 C556.73,703.62 556.72,701.71 556.00,698.48 C554.16,690.30 556.74,691.11 560.08,699.77 C563.46,708.54 563.24,719.58 559.52,727.81 C556.25,735.05 549.46,741.55 541.45,745.09 ZM 649.40 394.67 C648.25,395.68 647.06,397.17 646.75,398.00 C646.44,398.83 646.04,393.88 645.85,387.00 L 645.50 374.50 L 637.50 369.71 C636.49,369.10 635.57,368.55 634.73,368.05 C628.42,364.28 626.86,363.35 626.98,362.81 C627.04,362.57 627.46,362.40 627.95,362.09 C628.84,361.50 630.05,361.49 631.12,362.07 C633.06,363.10 636.00,362.33 636.00,360.79 C636.00,360.24 636.63,360.03 637.40,360.32 C639.41,361.09 640.09,360.03 638.95,357.91 C638.19,356.49 638.42,355.84 640.02,354.99 C641.14,354.39 641.79,353.47 641.47,352.95 C641.15,352.43 641.21,352.00 641.61,352.00 C642.29,352.00 653.55,358.70 660.74,363.39 L 663.99 365.50 L 663.99 376.25 C664.00,386.12 663.85,387.00 662.11,387.00 C660.94,387.00 659.60,388.32 658.58,390.47 C657.16,393.46 656.56,393.86 654.21,393.39 C652.38,393.03 650.79,393.45 649.40,394.67 ZM 457.61 605.31 C457.55,606.42 457.05,607.47 456.50,607.64 C455.59,607.92 444.29,601.38 426.57,590.32 C418.93,585.55 418.80,585.31 425.00,587.50 C430.87,589.57 433.66,589.42 434.29,587.01 C434.57,585.92 435.98,584.58 437.40,584.04 C440.68,582.79 440.71,581.28 437.50,579.82 C434.89,578.63 434.36,577.52 435.92,576.55 C436.43,576.24 444.14,580.37 453.06,585.74 C465.49,593.22 468.72,595.57 466.89,595.80 C460.21,596.63 457.94,598.95 457.61,605.31 ZM 586.23 705.25 C582.79,709.16 583.43,706.36 588.88,693.75 L 594.61 680.50 L 602.13 680.21 C609.33,679.93 609.69,680.03 610.80,682.46 C611.74,684.53 611.69,685.00 610.54,685.00 C609.76,685.00 608.84,684.55 608.50,684.00 C607.61,682.55 603.67,682.77 600.44,684.45 C598.90,685.25 597.20,685.63 596.67,685.29 C596.13,684.96 595.99,685.17 596.35,685.76 C596.72,686.35 596.55,686.98 595.99,687.17 C595.43,687.36 594.78,689.00 594.55,690.82 C594.24,693.28 594.44,693.90 595.31,693.21 C597.01,691.87 600.00,692.11 600.00,693.58 C600.00,694.27 600.56,695.03 601.25,695.27 C602.14,695.59 601.85,696.61 600.25,698.82 C599.01,700.52 598.00,703.06 598.00,704.46 C598.00,705.96 597.43,707.00 596.61,707.00 C594.88,707.00 594.00,704.83 594.00,700.58 C594.00,696.71 593.50,696.06 591.00,696.71 C589.87,697.00 588.84,698.47 588.45,700.35 C588.08,702.08 587.08,704.29 586.23,705.25 ZM 579.71 745.75 C577.99,747.63 576.61,748.00 571.33,748.00 C567.85,748.00 565.00,747.89 565.00,747.75 C565.00,746.32 575.94,723.52 576.75,723.25 C578.65,722.62 577.38,727.93 575.18,729.84 C573.74,731.09 572.93,733.27 572.58,736.83 C572.30,739.67 572.46,742.00 572.93,742.00 C574.22,742.00 580.00,736.36 580.00,735.10 C580.00,734.49 580.34,734.07 580.75,734.16 C581.16,734.25 582.31,733.97 583.29,733.54 C584.28,733.10 585.30,732.96 585.56,733.22 C586.31,733.97 581.96,743.28 579.71,745.75 ZM 568.00 468.24 C568.00,470.07 566.16,468.77 565.60,466.55 C565.07,464.44 566.33,462.80 574.58,454.80 C579.86,449.68 584.61,445.34 585.15,445.15 C585.68,444.95 586.98,445.57 588.03,446.53 C589.89,448.21 589.84,448.33 585.97,451.14 C583.79,452.72 582.00,454.68 582.00,455.51 C582.00,456.33 581.51,457.00 580.90,457.00 C580.30,457.00 578.39,458.01 576.65,459.25 C574.92,460.48 573.39,461.38 573.25,461.25 C573.11,461.11 573.01,461.23 573.02,461.52 C573.03,461.81 571.91,463.26 570.52,464.76 C569.13,466.26 568.00,467.82 568.00,468.24 ZM 541.65 467.17 C542.57,468.18 544.00,469.00 544.84,469.00 C547.34,469.00 551.00,464.86 551.00,462.03 C551.00,458.56 549.29,457.00 545.50,457.00 C543.79,457.00 541.86,457.54 541.20,458.20 C539.47,459.93 539.73,465.04 541.65,467.17 ZM 533.00 739.05 C533.00,739.79 533.64,739.93 534.75,739.43 C535.71,739.00 538.85,738.73 541.73,738.82 C546.15,738.96 547.19,738.64 548.43,736.74 C550.01,734.33 549.95,730.82 548.33,730.28 C547.78,730.09 547.37,730.84 547.42,731.93 C547.46,733.02 547.05,733.91 546.50,733.90 C545.95,733.89 545.56,733.24 545.63,732.47 C545.72,731.53 545.04,731.19 543.63,731.45 C542.46,731.67 541.14,731.88 540.69,731.93 C540.25,731.97 540.20,732.52 540.60,733.15 C541.05,733.89 540.87,734.04 540.09,733.56 C538.66,732.67 535.00,735.66 535.00,737.71 C535.00,738.49 534.55,738.84 534.00,738.50 C533.45,738.16 533.00,738.41 533.00,739.05 Z" fill="rgb(69,179,136)"/>
<path d="M 546.14 488.22 C543.70,488.21 540.68,488.21 537.00,488.21 C525.72,488.22 517.25,488.43 518.16,488.67 C520.15,489.20 521.57,492.31 520.06,492.81 C519.48,493.01 519.00,493.83 519.00,494.65 C519.00,496.90 505.04,510.91 500.50,513.21 C498.30,514.32 495.71,515.93 494.75,516.77 C493.79,517.62 493.00,518.01 493.00,517.65 C493.00,517.28 491.65,518.19 490.00,519.66 C488.35,521.13 485.40,525.71 483.44,529.83 C480.15,536.77 472.25,545.96 469.55,545.99 C469.03,546.00 467.38,547.17 465.89,548.61 C463.22,551.16 461.00,551.16 461.00,548.60 C461.00,547.89 460.07,546.47 458.93,545.43 C458.24,544.81 457.78,544.40 457.55,544.32 C452.22,524.52 460.81,502.49 480.08,492.76 C488.46,488.54 493.93,487.99 526.89,488.10 C535.60,488.13 541.82,488.16 546.14,488.22 ZM 511.75 735.44 C512.16,735.87 517.00,736.02 522.50,735.77 C523.56,735.73 524.57,735.67 525.53,735.59 C524.47,735.68 523.35,735.74 522.16,735.80 C511.02,736.31 509.97,737.96 520.77,737.98 C526.49,738.00 527.14,738.22 528.18,740.50 C528.81,741.88 529.13,743.21 528.89,743.45 C528.65,743.69 526.21,743.98 523.47,744.10 C517.60,744.36 514.00,745.50 514.00,747.10 C514.00,747.44 514.54,747.68 515.75,747.81 L 497.28 748.18 L 496.71 744.34 C496.39,742.23 496.08,726.89 496.03,710.25 L 495.92 680.00 L 514.94 680.00 C538.99,680.00 544.07,681.33 552.96,689.92 C553.98,690.91 554.90,691.88 555.73,692.86 C555.23,693.23 555.23,695.08 556.00,698.48 C556.72,701.71 556.73,703.62 556.04,704.45 C555.48,705.13 555.22,705.89 555.47,706.14 C555.72,706.39 554.64,707.08 553.06,707.67 C550.52,708.63 550.06,708.49 548.93,706.37 C547.31,703.35 545.59,703.25 546.68,706.25 C546.94,706.95 547.12,707.87 547.25,708.93 C546.40,704.59 544.39,700.67 541.32,697.98 C536.36,693.62 533.97,692.92 521.75,692.27 L 511.00 691.70 L 511.00 713.18 C511.00,725.00 511.34,735.02 511.75,735.44 ZM 471.00 721.97 C471.00,719.99 469.73,719.39 463.50,718.42 C458.73,717.68 458.00,717.30 458.00,715.55 C458.00,714.81 457.42,713.99 456.72,713.72 C456.02,713.45 455.34,711.89 455.22,710.24 C455.21,710.16 455.20,710.09 455.20,710.01 C456.17,712.16 460.54,714.70 464.87,715.46 C477.87,717.74 483.12,721.08 485.08,728.32 C487.03,735.51 483.11,742.65 475.28,746.17 C469.07,748.96 459.78,749.36 452.32,747.15 C445.10,745.01 441.00,742.58 441.00,740.43 C441.00,739.16 443.49,733.37 444.56,732.15 C444.73,731.95 447.36,732.97 450.41,734.41 C460.07,738.98 469.97,738.81 471.49,734.03 C472.53,730.74 470.86,729.01 465.14,727.48 C458.09,725.58 453.27,724.09 449.94,722.55 C450.51,722.33 452.02,722.43 453.45,722.79 C454.98,723.18 459.55,723.57 463.61,723.65 C470.16,723.78 471.00,723.59 471.00,721.97 ZM 589.84 341.47 C591.87,342.62 593.24,343.36 593.50,343.41 C594.05,343.52 596.19,344.18 598.26,344.88 C602.96,346.48 604.45,346.01 604.48,342.92 C604.50,340.82 604.97,340.50 608.00,340.50 C610.95,340.50 611.45,340.18 611.15,338.50 C610.66,335.63 608.97,333.89 605.14,332.29 C603.29,331.51 601.58,330.12 601.34,329.19 C601.10,328.26 578.28,314.04 555.39,300.20 C580.34,315.07 611.41,333.66 623.50,341.00 C629.37,344.56 636.64,348.92 642.23,352.25 C641.90,352.09 641.68,352.00 641.61,352.00 C641.21,352.00 641.15,352.43 641.47,352.95 C641.79,353.47 641.14,354.39 640.02,354.99 C638.42,355.84 638.19,356.49 638.95,357.91 C640.09,360.03 639.41,361.09 637.40,360.32 C636.63,360.03 636.00,360.24 636.00,360.79 C636.00,362.33 633.06,363.10 631.12,362.07 C630.05,361.49 628.84,361.50 627.95,362.09 C627.46,362.40 627.04,362.57 626.98,362.81 C626.86,363.35 628.42,364.28 634.73,368.05 C635.57,368.55 636.49,369.10 637.50,369.71 L 645.50 374.50 L 645.51 374.71 L 642.25 372.64 C640.19,371.33 628.38,364.28 616.00,356.97 C607.46,351.93 597.42,345.97 589.84,341.47 ZM 453.47 586.00 C452.17,585.22 450.89,584.45 449.64,583.71 C442.25,579.37 436.36,576.28 435.92,576.55 C434.36,577.52 434.89,578.63 437.50,579.82 C440.71,581.28 440.68,582.79 437.40,584.04 C435.98,584.58 434.57,585.92 434.29,587.01 C433.66,589.42 430.87,589.57 425.00,587.50 C418.80,585.31 418.93,585.55 426.57,590.32 C428.44,591.49 430.23,592.60 431.95,593.66 C433.30,594.46 434.34,595.08 435.00,595.46 C438.02,597.23 443.88,600.75 448.00,603.30 C448.20,603.43 448.40,603.55 448.59,603.67 C453.19,606.31 455.94,607.71 456.47,607.65 C455.85,607.73 452.41,605.99 448.59,603.67 C444.44,601.28 438.80,597.89 431.95,593.66 C423.09,588.39 400.83,574.98 382.92,564.14 C378.07,561.37 371.29,557.20 361.18,550.93 C359.50,549.91 358.32,549.17 357.75,548.81 L 357.28 548.51 L 353.00 545.86 L 353.00 545.79 L 353.50 546.11 L 353.63 546.19 L 357.28 548.51 L 360.25 550.36 L 361.18 550.93 C365.68,553.69 373.73,558.57 382.92,564.14 C391.48,569.03 394.02,569.58 398.21,569.70 C401.67,569.80 405.51,569.68 406.75,569.42 C409.63,568.83 409.84,564.52 407.06,563.03 C406.00,562.46 404.14,560.24 402.94,558.10 C401.55,555.63 399.30,553.63 392.51,549.33 L 370.04 535.74 L 369.99 535.71 L 370.24 455.68 L 370.50 375.85 L 370.27 456.50 L 370.04 535.73 L 385.37 544.95 C388.19,546.65 390.54,548.09 392.51,549.33 L 402.04 555.10 C419.67,565.77 434.89,574.95 435.86,575.50 C436.68,575.97 442.54,579.46 449.64,583.71 C450.75,584.36 451.89,585.04 453.06,585.74 C454.51,586.62 455.84,587.42 457.05,588.16 C455.96,587.50 454.77,586.78 453.47,586.00 ZM 495.94 469.08 C496.34,468.31 496.70,467.42 497.04,466.38 C497.65,464.52 498.64,463.00 499.23,463.00 C499.83,463.00 499.62,462.22 498.77,461.25 C498.00,460.37 497.10,458.80 496.67,457.61 L 497.50 458.92 L 514.68 458.96 L 528.84 458.99 C528.10,459.05 527.23,459.07 526.18,459.09 C520.70,459.18 520.62,459.22 523.97,460.17 C525.87,460.72 529.10,461.01 531.14,460.82 C533.28,460.61 534.77,460.89 534.67,461.48 C534.39,463.17 531.64,464.93 529.25,464.97 C525.68,465.02 526.64,467.00 530.25,467.04 C531.49,467.05 532.39,467.22 533.17,467.68 C531.13,467.25 524.43,466.93 515.82,466.88 L 498.14 466.77 ZM 473.00 742.22 C478.45,739.14 479.35,737.93 477.55,736.12 C476.39,734.96 475.49,735.24 471.62,738.02 C467.48,741.00 466.60,741.24 461.79,740.73 C458.80,740.41 454.42,739.00 451.72,737.49 C447.86,735.31 446.66,735.03 445.47,736.02 C442.79,738.25 443.89,745.08 446.81,744.37 C447.74,744.14 451.20,744.33 454.50,744.79 C462.68,745.93 467.67,745.23 473.00,742.22 ZM 518.01 432.64 C528.01,432.27 532.01,431.56 532.87,430.31 C533.22,429.80 535.53,428.36 538.00,427.11 C540.47,425.85 543.62,423.79 545.00,422.54 C546.38,421.29 548.74,419.47 550.25,418.51 C551.76,417.55 553.00,415.89 553.00,414.81 C553.00,413.73 554.38,411.47 556.06,409.79 C560.05,405.79 562.03,399.91 563.97,386.19 C564.82,380.19 564.70,378.20 563.14,373.20 C562.73,371.87 562.26,370.59 561.73,369.33 C562.29,370.64 562.79,372.00 563.23,373.40 C564.74,378.18 565.08,381.66 564.80,389.50 C564.49,398.23 564.04,400.36 561.27,406.26 C555.17,419.25 542.08,429.41 528.11,432.00 C526.81,432.24 523.11,432.46 518.01,432.64 ZM 533.00 739.05 C533.00,738.41 533.45,738.16 534.00,738.50 C534.55,738.84 535.00,738.49 535.00,737.71 C535.00,735.66 538.66,732.67 540.09,733.56 C540.87,734.04 541.05,733.89 540.60,733.15 C540.20,732.52 540.25,731.97 540.69,731.93 C541.14,731.88 542.46,731.67 543.63,731.45 C545.04,731.19 545.72,731.53 545.63,732.47 C545.56,733.24 545.95,733.89 546.50,733.90 C547.05,733.91 547.46,733.02 547.42,731.93 C547.37,730.84 547.78,730.09 548.33,730.28 C549.95,730.82 550.01,734.33 548.43,736.74 C547.19,738.64 546.15,738.96 541.73,738.82 C538.85,738.73 535.71,739.00 534.75,739.43 C533.64,739.93 533.00,739.79 533.00,739.05 ZM 465.93 694.50 C466.79,694.52 467.65,694.57 468.50,694.64 C476.44,695.32 484.46,698.28 483.65,700.23 C483.37,700.93 482.57,703.21 481.89,705.29 C480.98,708.10 480.25,708.92 479.08,708.47 C475.19,706.96 466.29,705.00 463.34,705.00 C462.54,705.00 461.77,705.06 461.03,705.18 C464.76,704.26 468.58,704.12 471.77,704.84 C477.03,706.02 479.00,704.82 479.00,700.45 C479.00,697.10 478.89,697.00 475.06,697.00 C472.89,697.00 470.86,696.59 470.55,696.09 C469.97,695.15 468.24,694.64 465.93,694.50 ZM 439.78 512.95 L 439.76 512.95 L 456.38 495.94 C465.52,486.59 473.00,478.58 473.00,478.14 C473.00,477.71 474.01,476.41 475.25,475.27 C477.12,473.54 478.71,473.21 484.70,473.29 C488.52,473.35 491.05,473.10 492.86,472.23 C489.08,475.70 485.86,476.50 481.84,475.09 C481.06,474.82 480.51,474.56 479.92,474.49 C477.76,474.24 475.29,476.77 460.22,492.13 C459.12,493.25 457.94,494.45 456.69,495.72 ZM 485.89 498.41 C486.91,497.12 488.02,496.35 488.37,496.70 C488.72,497.05 489.00,496.81 489.00,496.17 C489.00,494.29 484.42,494.82 480.48,497.14 C478.12,498.54 477.26,499.54 478.03,500.02 C480.38,501.47 484.08,500.71 485.89,498.41 ZM 449.01 722.09 C444.62,719.85 443.16,717.38 442.40,713.31 C442.17,712.08 442.22,710.63 442.49,709.12 C442.38,709.96 442.40,710.71 442.57,711.28 C442.96,712.50 444.56,715.14 446.13,717.14 C447.71,719.15 449.00,721.31 449.00,721.95 C449.00,722.00 449.00,722.05 449.01,722.09 ZM 428.77 742.49 C428.77,742.46 428.77,742.43 428.75,742.41 C428.44,742.10 428.56,740.54 429.02,738.94 C429.48,737.32 429.53,736.44 428.90,735.55 L 432.47 738.82 L 430.49 741.05 C430.13,741.46 429.53,741.95 428.77,742.49 ZM 541.45 745.09 C548.55,741.95 554.69,736.49 558.27,730.25 C554.75,736.58 549.04,741.70 541.45,745.14 C539.08,746.22 537.30,746.80 533.51,747.15 C536.87,746.73 539.16,746.10 541.45,745.09 ZM 533.93 468.25 C534.46,468.73 534.96,469.40 535.52,470.29 C536.16,471.31 537.14,472.33 538.23,473.15 C536.26,471.79 534.61,469.97 533.93,468.25 ZM 467.58 433.35 C471.72,433.02 479.12,432.98 494.12,432.96 C501.87,432.94 508.18,432.89 513.29,432.77 C507.52,432.91 500.67,433.00 493.73,433.00 C478.97,433.00 471.66,433.03 467.56,433.36 ZM 472.10 462.40 C472.12,462.86 472.17,463.37 472.22,463.92 L 472.69 468.83 L 454.09 487.41 L 453.17 488.33 L 454.01 487.49 L 472.50 468.98 L 472.17 463.65 C472.14,463.20 472.12,462.78 472.10,462.40 ZM 426.86 733.68 C424.90,732.17 424.55,732.30 420.53,734.43 L 425.06 732.03 ZM 474.34 568.54 C477.13,570.42 479.54,571.79 479.72,571.61 C479.29,572.04 477.03,570.64 474.34,568.54 ZM 421.88 746.22 C415.04,748.98 407.93,749.28 401.65,747.56 C407.88,749.23 414.96,748.91 421.88,746.22 ZM 474.04 456.02 C472.58,458.00 472.07,459.25 472.07,461.45 C472.04,458.95 472.45,457.86 474.04,456.02 ZM 462.11 555.24 C463.56,557.64 465.25,559.94 467.09,562.03 C466.30,561.21 465.62,560.43 465.10,559.74 C464.00,558.28 463.01,556.78 462.11,555.24 ZM 559.89 699.29 C560.93,701.61 561.61,704.12 561.99,706.98 C561.59,704.49 560.96,702.05 560.08,699.77 C560.02,699.61 559.96,699.45 559.89,699.29 ZM 508.35 273.27 C507.39,273.23 506.29,273.61 504.47,274.58 C505.04,274.25 505.49,274.00 505.78,273.85 C506.71,273.36 507.29,273.06 508.35,273.27 ZM 649.50 394.59 C650.87,393.43 652.43,393.04 654.21,393.39 C652.68,393.09 650.95,393.58 649.50,394.59 ZM 466.91 595.80 C464.83,596.05 463.18,596.45 461.88,597.08 C463.17,596.45 464.82,596.05 466.89,595.80 C468.50,595.60 466.18,593.74 457.06,588.16 C466.31,593.79 468.58,595.59 466.91,595.80 ZM 549.93 474.54 C551.12,473.92 552.84,472.55 554.26,471.16 C552.58,472.92 551.00,474.13 549.36,474.83 C549.54,474.73 549.73,474.64 549.93,474.54 ZM 451.24 697.03 C453.43,696.08 456.08,695.38 458.92,694.95 C456.24,695.38 453.51,696.09 451.24,697.03 ZM 457.11 706.46 C456.35,706.89 455.76,707.39 455.40,707.94 C455.67,707.30 456.19,706.87 457.11,706.46 ZM 556.76 468.17 C557.94,466.36 558.07,464.84 557.84,460.96 C558.07,464.90 558.00,466.35 556.76,468.17 ZM 546.19 722.30 C545.98,722.96 545.76,723.55 545.52,724.03 C545.28,724.51 545.04,724.96 544.79,725.40 C544.88,725.23 544.97,725.07 545.05,724.90 C545.48,724.05 545.86,723.18 546.19,722.30 ZM 658.39 361.87 C659.42,362.51 660.24,363.02 660.74,363.36 L 663.99 365.50 L 660.74 363.39 C660.00,362.90 659.21,362.39 658.39,361.87 ZM 490.11 451.20 C488.32,450.49 486.40,450.19 484.50,450.29 C486.44,450.17 488.36,450.47 490.11,451.20 ZM 443.89 704.57 C444.48,703.23 445.20,701.96 446.01,700.90 C445.22,701.98 444.49,703.26 443.89,704.57 ZM 420.29 734.56 C418.06,735.75 415.43,736.52 412.88,736.84 C415.41,736.52 418.03,735.75 420.29,734.56 ZM 646.46 397.33 C646.54,397.81 646.61,398.07 646.68,398.09 C646.60,398.12 646.53,397.85 646.46,397.33 ZM 520.50 279.52 C520.82,279.69 521.32,279.99 522.00,280.38 C521.29,279.97 520.60,279.58 519.93,279.20 ZM 407.75 717.24 C408.98,717.28 410.08,717.31 411.08,717.34 C410.66,717.33 410.22,717.31 409.75,717.30 C409.12,717.28 408.46,717.26 407.75,717.24 Z" fill="rgb(57,170,149)"/>
<path d="M 568.00 468.24 C568.00,467.82 569.13,466.26 570.52,464.76 C571.91,463.26 573.03,461.81 573.02,461.52 C573.01,461.23 573.11,461.11 573.25,461.25 C573.39,461.38 574.92,460.48 576.65,459.25 C578.39,458.01 580.30,457.00 580.90,457.00 C581.51,457.00 582.00,456.33 582.00,455.51 C582.00,454.68 583.79,452.72 585.97,451.14 C588.33,449.43 589.27,448.72 589.22,448.04 C589.93,449.03 590.70,450.31 591.65,451.88 C598.45,463.11 599.55,477.72 594.43,488.57 C593.09,491.39 592.00,494.24 592.00,494.91 C592.00,498.47 580.08,509.37 571.27,513.86 C564.54,517.30 556.73,518.00 525.39,518.00 L 510.58 518.00 C519.06,518.00 526.00,517.71 526.00,517.36 C526.00,517.01 525.21,516.14 524.25,515.43 C522.61,514.22 522.63,514.02 524.71,512.07 C525.92,510.93 527.20,510.00 527.56,510.00 C528.12,510.00 532.76,505.32 543.04,494.42 C544.64,492.72 546.52,491.30 547.23,491.26 C547.93,491.22 550.53,490.51 553.00,489.69 C556.47,488.54 556.62,488.27 546.14,488.22 C541.82,488.16 535.60,488.13 526.89,488.10 C509.19,488.04 499.42,488.17 492.86,488.96 C499.44,488.16 509.28,488.00 527.10,488.00 L 557.93 488.00 L 561.34 485.00 C565.95,480.96 567.42,477.09 566.58,471.23 C566.41,470.06 566.24,468.85 566.09,467.79 C566.84,469.18 568.00,469.69 568.00,468.24 ZM 479.06 568.65 C477.71,565.11 478.60,563.25 482.00,562.50 C484.81,561.88 486.51,559.64 485.46,557.93 C484.78,556.84 493.87,548.00 495.68,548.00 C497.71,548.00 497.24,546.89 494.88,545.58 C496.90,546.50 499.17,547.00 501.58,547.00 C505.14,547.00 506.08,546.49 508.88,543.00 C513.46,537.30 517.16,535.64 523.94,536.27 C531.18,536.93 547.00,543.35 544.34,544.54 C543.33,544.99 541.38,545.39 540.00,545.43 C538.28,545.48 537.41,546.13 537.21,547.52 C536.95,549.37 536.33,549.50 529.58,549.16 L 522.25 548.79 L 521.81 555.60 C521.40,562.02 521.98,567.81 523.49,572.61 C524.34,575.28 521.68,576.54 519.60,574.46 C517.98,572.83 516.56,572.49 517.46,573.93 C517.77,574.44 517.63,575.11 517.13,575.42 C516.63,575.73 515.93,577.16 515.57,578.60 C514.85,581.44 517.00,583.91 520.25,583.97 C521.21,583.99 522.00,584.45 522.00,585.00 C522.00,587.86 513.48,584.54 509.90,580.29 C507.61,577.57 506.70,577.26 498.95,576.64 C490.60,575.96 485.31,574.67 479.63,571.67 C479.67,571.65 479.70,571.64 479.72,571.61 C479.91,571.43 479.61,570.09 479.06,568.65 ZM 586.23 705.25 C587.08,704.29 588.08,702.08 588.45,700.35 C588.84,698.47 589.87,697.00 591.00,696.71 C593.50,696.06 594.00,696.71 594.00,700.58 C594.00,704.83 594.88,707.00 596.61,707.00 C596.87,707.00 597.10,706.90 597.30,706.71 C596.74,708.47 595.91,710.70 595.00,712.84 C593.35,716.72 592.00,720.38 592.00,720.98 C592.00,721.71 595.20,721.98 601.74,721.79 C609.75,721.55 611.53,721.21 611.78,719.89 C612.08,718.33 604.55,699.43 602.90,697.59 C602.30,696.92 600.94,697.95 599.81,699.47 C599.95,699.24 600.10,699.02 600.25,698.82 C601.85,696.61 602.14,695.59 601.25,695.27 C600.56,695.03 600.00,694.27 600.00,693.58 C600.00,692.11 597.01,691.87 595.31,693.21 C594.44,693.90 594.24,693.28 594.55,690.82 C594.78,689.00 595.43,687.36 595.99,687.17 C596.55,686.98 596.72,686.35 596.35,685.76 C595.99,685.17 596.13,684.96 596.67,685.29 C597.20,685.63 598.90,685.25 600.44,684.45 C603.67,682.77 607.61,682.55 608.50,684.00 C608.84,684.55 609.76,685.00 610.54,685.00 C611.24,685.00 611.53,684.83 611.45,684.23 C612.61,687.01 615.40,693.43 618.20,699.73 C618.49,700.39 618.77,701.01 619.04,701.61 C622.22,708.78 623.54,711.72 622.99,714.27 C622.56,716.26 620.99,718.00 618.30,721.32 C616.45,723.59 616.22,724.54 617.08,726.15 C617.67,727.26 618.78,727.92 619.54,727.62 C621.72,726.79 622.24,728.69 620.88,732.45 C619.89,735.19 619.42,735.60 618.57,734.49 C617.75,733.43 614.19,733.07 603.50,732.97 C595.80,732.91 588.77,732.89 587.87,732.93 C587.01,732.97 585.71,734.62 584.50,737.18 C585.35,735.16 585.85,733.52 585.56,733.22 C585.30,732.96 584.28,733.10 583.29,733.54 C582.31,733.97 581.16,734.25 580.75,734.16 C580.34,734.07 580.00,734.49 580.00,735.10 C580.00,736.36 574.22,742.00 572.93,742.00 C572.46,742.00 572.30,739.67 572.58,736.83 C572.93,733.27 573.74,731.09 575.18,729.84 C577.38,727.93 578.65,722.62 576.75,723.25 C576.33,723.39 573.18,729.61 570.24,735.75 C571.13,733.79 572.08,731.68 573.06,729.50 C577.04,720.70 583.51,706.08 587.45,697.00 L 594.60 680.50 L 594.61 680.50 L 588.88 693.75 C583.43,706.36 582.79,709.16 586.23,705.25 ZM 649.40 394.67 C649.43,394.64 649.47,394.61 649.50,394.59 C650.95,393.58 652.68,393.09 654.21,393.39 C656.56,393.86 657.16,393.46 658.58,390.47 C659.60,388.32 660.94,387.00 662.11,387.00 C663.66,387.00 663.95,386.29 663.99,379.05 L 663.99 412.75 C664.00,443.59 663.65,460.00 663.00,460.00 C662.45,460.00 662.00,459.31 662.00,458.46 C662.00,457.61 661.05,455.06 659.89,452.78 L 657.77 448.63 L 655.54 452.33 C652.39,457.54 652.21,457.61 651.24,453.86 C649.97,448.94 647.63,449.55 646.90,455.00 C646.57,457.48 646.23,440.49 646.15,417.26 L 646.06 392.46 C646.18,394.69 646.32,396.41 646.46,397.33 C646.53,397.85 646.60,398.12 646.68,398.09 C646.70,398.10 646.73,398.07 646.75,398.00 C647.06,397.17 648.25,395.68 649.40,394.67 ZM 457.61 605.31 C457.82,601.33 458.78,598.93 461.11,597.49 C461.35,597.34 461.61,597.20 461.87,597.07 C463.18,596.45 464.83,596.05 466.91,595.80 C468.04,595.66 467.36,594.78 463.91,592.47 C468.01,595.05 470.73,596.86 470.83,597.14 C471.02,597.61 471.65,598.00 472.25,598.00 C472.84,598.00 475.39,599.29 477.91,600.86 C480.44,602.43 486.85,606.28 492.17,609.41 C504.16,616.47 505.20,617.55 499.96,617.55 C495.02,617.55 492.89,619.34 495.91,620.95 C497.34,621.72 499.11,621.79 501.39,621.16 L 504.74 620.23 L 503.68 623.70 C502.70,626.88 502.33,627.14 499.31,626.79 C496.46,626.46 496.00,626.70 496.00,628.58 C496.00,629.78 497.01,631.46 498.25,632.33 C499.49,633.19 500.05,633.88 499.50,633.86 C498.95,633.84 490.95,629.25 481.71,623.66 C472.48,618.07 457.86,609.28 449.21,604.11 C446.91,602.74 444.54,601.31 442.22,599.92 C444.62,601.36 446.75,602.61 448.59,603.67 C452.41,605.99 455.85,607.73 456.47,607.65 C456.48,607.64 456.49,607.64 456.50,607.64 C457.05,607.47 457.55,606.42 457.61,605.31 ZM 610.00 428.00 L 600.65 428.00 L 600.58 424.50 L 600.50 421.01 L 590.93 421.00 L 583.97 421.00 L 595.41 420.78 L 609.50 420.50 L 610.00 416.50 C610.45,412.91 610.77,412.52 613.14,412.67 C615.56,412.83 625.50,419.04 627.23,421.47 C629.14,424.14 627.86,426.75 623.17,429.79 C613.98,435.75 610.00,436.08 610.00,430.89 ZM 522.51 614.98 C522.16,615.54 520.90,615.96 519.69,615.92 C515.32,615.76 514.93,614.86 518.24,612.62 L 518.38 612.52 C521.95,610.11 523.29,609.20 523.68,609.51 C523.91,609.69 523.80,610.32 523.62,611.34 L 523.60 611.40 C523.35,612.81 522.86,614.42 522.51,614.98 ZM 638.15 745.50 C638.42,747.04 637.87,747.57 635.75,747.82 C632.48,748.19 632.34,747.63 634.99,744.78 C637.18,742.43 637.64,742.53 638.15,745.50 ZM 531.48 566.98 C530.24,565.95 529.60,566.05 527.98,567.52 C526.06,569.25 526.00,569.24 526.00,567.15 C526.00,565.36 526.58,565.00 529.50,565.00 C532.06,565.00 533.00,565.43 533.00,566.62 C533.00,567.96 532.73,568.02 531.48,566.98 ZM 539.44 620.10 C538.52,621.59 535.00,621.11 535.00,619.50 C535.00,617.89 535.92,617.65 538.41,618.60 C539.28,618.94 539.74,619.61 539.44,620.10 ZM 457.70 520.16 C460.84,508.31 468.67,498.52 480.08,492.76 C468.61,498.55 460.92,508.71 457.70,520.16 ZM 610.43 681.70 C609.56,680.09 608.58,679.97 603.01,680.18 L 609.72 679.92 ZM 582.30 447.53 C580.33,449.31 577.54,451.94 574.58,454.80 C573.52,455.83 572.57,456.75 571.73,457.59 C572.83,456.45 574.03,455.25 575.29,454.03 C578.36,451.06 580.58,448.90 582.30,447.53 ZM 428.00 570.78 C421.70,566.99 412.28,561.30 402.04,555.10 L 392.51 549.33 L 392.51 549.33 C392.34,549.23 392.17,549.12 392.00,549.01 L 401.74 554.90 C412.24,561.25 421.83,567.05 428.00,570.78 ZM 462.11 555.24 C463.01,556.78 464.00,558.28 465.10,559.74 C465.62,560.43 466.30,561.21 467.09,562.03 C468.13,563.23 469.22,564.35 470.34,565.37 C466.70,562.16 463.69,558.33 461.40,554.03 C461.63,554.43 461.87,554.84 462.11,555.24 ZM 431.95 593.66 C434.45,595.21 436.80,596.64 438.96,597.96 C435.06,595.60 431.55,593.47 429.23,592.04 C430.24,592.64 431.15,593.19 431.95,593.66 ZM 579.71 745.75 C580.85,744.50 582.52,741.50 583.80,738.75 C582.57,741.51 580.79,744.58 579.72,745.75 C578.98,746.55 578.31,747.08 577.37,747.42 C578.31,747.08 578.98,746.55 579.71,745.75 ZM 493.80 545.03 C493.78,545.02 493.76,545.01 493.73,545.00 C492.82,544.58 491.78,543.77 490.80,542.79 C491.70,543.67 492.71,544.42 493.80,545.03 ZM 463.16 592.00 C461.61,590.98 459.60,589.72 457.06,588.16 C460.03,589.97 462.28,591.38 463.91,592.47 C463.66,592.32 463.41,592.16 463.16,592.00 ZM 488.93 540.55 C488.69,540.20 488.47,539.85 488.27,539.50 C486.91,537.06 486.18,534.66 486.10,532.34 C486.18,534.66 486.91,537.06 488.28,539.50 C488.48,539.86 488.70,540.21 488.93,540.55 ZM 355.52 547.42 L 357.28 548.51 L 357.75 548.81 C356.68,548.16 355.98,547.72 355.71,547.55 Z" fill="rgb(74,187,123)"/>
<path d="M 522.51 614.98 C522.86,614.42 523.35,612.81 523.60,611.40 L 523.62 611.34 C523.80,610.32 523.91,609.69 523.68,609.51 C523.59,609.44 523.46,609.43 523.26,609.49 C526.64,607.44 530.52,605.10 534.19,602.88 C542.06,598.14 564.70,584.46 584.50,572.46 C604.30,560.47 625.45,547.74 631.50,544.17 C637.55,540.61 643.29,537.01 644.25,536.19 C645.89,534.78 646.00,529.65 646.00,454.86 L 646.00 391.22 C646.02,391.64 646.04,392.06 646.06,392.46 L 646.15 417.26 C646.23,440.49 646.57,457.48 646.90,455.00 C647.63,449.55 649.97,448.94 651.24,453.86 C652.21,457.61 652.39,457.54 655.54,452.33 L 657.77 448.63 L 659.89 452.78 C661.05,455.06 662.00,457.61 662.00,458.46 C662.00,459.31 662.45,460.00 663.00,460.00 C663.61,460.00 663.96,445.45 663.99,418.02 L 663.99 454.58 L 664.00 543.65 L 661.75 545.70 C660.51,546.82 655.00,550.45 649.50,553.75 C644.00,557.06 631.17,564.84 621.00,571.04 C610.83,577.24 599.12,584.30 595.00,586.72 C590.88,589.15 583.45,593.63 578.50,596.67 C573.55,599.71 568.60,602.60 567.50,603.09 C566.40,603.58 560.55,607.16 554.50,611.04 C549.47,614.26 544.42,617.36 539.12,620.47 C539.24,620.36 539.35,620.24 539.44,620.10 C539.74,619.61 539.28,618.94 538.41,618.60 C535.92,617.65 535.00,617.89 535.00,619.50 C535.00,620.77 537.20,621.34 538.57,620.79 C533.36,623.83 527.90,626.89 521.98,630.08 C519.34,631.50 515.76,633.87 514.02,635.33 C512.25,636.82 509.67,637.98 508.17,637.95 C507.29,637.94 503.96,636.36 499.09,633.71 C499.30,633.81 499.44,633.86 499.50,633.86 C500.05,633.88 499.49,633.19 498.25,632.33 C497.01,631.46 496.00,629.78 496.00,628.58 C496.00,626.70 496.46,626.46 499.31,626.79 C502.33,627.14 502.70,626.88 503.68,623.70 L 504.74 620.23 L 501.39 621.16 C499.11,621.79 497.34,621.72 495.91,620.95 C492.89,619.34 495.02,617.55 499.96,617.55 C503.19,617.55 504.03,617.14 501.41,615.17 C503.92,616.75 506.52,617.95 507.50,617.94 C508.60,617.93 511.84,616.48 514.69,614.71 C515.67,614.11 517.33,613.09 519.41,611.83 C519.09,612.04 518.75,612.28 518.38,612.52 L 518.24 612.62 C514.93,614.86 515.32,615.76 519.69,615.92 C520.90,615.96 522.16,615.54 522.51,614.98 ZM 696.57 744.87 C690.05,747.67 687.13,748.33 680.07,748.61 C667.25,749.12 659.20,746.30 651.86,738.73 C644.95,731.62 642.69,725.99 642.19,714.71 C641.78,705.35 641.90,704.65 644.89,698.57 C648.56,691.12 654.06,685.80 661.88,682.14 C666.89,679.79 668.70,679.50 678.52,679.50 C689.12,679.50 689.80,679.63 696.47,683.00 C706.04,687.83 706.52,688.95 701.24,694.24 C697.59,697.88 696.74,698.31 695.24,697.25 C682.84,688.52 666.40,690.99 659.34,702.65 C657.52,705.66 657.01,707.96 657.01,713.20 C657.00,723.69 660.47,729.91 668.40,733.61 C675.03,736.69 684.06,736.87 688.75,734.01 L 692.00 732.03 L 692.00 714.00 L 705.06 714.00 L 704.78 727.74 L 704.50 741.48 ZM 531.48 566.98 C532.73,568.02 533.00,567.96 533.00,566.62 C533.00,566.17 532.86,565.83 532.56,565.58 C532.84,565.75 533.00,565.95 533.00,566.17 C533.00,566.82 533.74,568.17 534.65,569.17 C536.19,570.87 540.00,571.75 540.00,570.40 C540.00,570.08 539.05,568.48 537.89,566.85 C535.89,564.04 535.87,563.80 537.52,561.98 C540.35,558.85 540.36,554.27 537.53,551.44 C536.35,550.26 535.42,549.63 533.83,549.31 C536.64,549.31 537.02,548.87 537.21,547.52 C537.41,546.13 538.28,545.48 540.00,545.43 C541.38,545.39 543.33,544.99 544.34,544.54 C545.44,544.05 543.39,542.67 540.10,541.17 C543.92,542.70 547.81,544.45 551.18,546.21 C560.57,551.11 562.46,562.54 555.29,571.07 C552.52,574.36 548.97,576.37 536.60,581.65 C530.63,584.20 525.80,585.54 521.78,585.65 C521.92,585.48 522.00,585.27 522.00,585.00 C522.00,584.45 521.21,583.99 520.25,583.97 C517.00,583.91 514.85,581.44 515.57,578.60 C515.93,577.16 516.63,575.73 517.13,575.42 C517.63,575.11 517.77,574.44 517.46,573.93 C516.56,572.49 517.98,572.83 519.60,574.46 C521.68,576.54 524.34,575.28 523.49,572.61 C523.13,571.45 522.82,570.23 522.56,568.96 C522.90,569.61 523.34,569.89 523.86,569.79 C524.76,569.62 525.64,568.47 525.82,567.24 C525.88,566.80 525.97,566.44 526.11,566.15 C526.03,566.42 526.00,566.75 526.00,567.15 C526.00,569.24 526.06,569.25 527.98,567.52 C529.60,566.05 530.24,565.95 531.48,566.98 ZM 618.81 734.77 C619.52,735.50 619.99,734.92 620.88,732.45 C622.24,728.69 621.72,726.79 619.54,727.62 C618.78,727.92 617.67,727.26 617.08,726.15 C616.22,724.54 616.45,723.59 618.30,721.32 C620.99,718.00 622.56,716.26 622.99,714.27 C623.38,712.43 622.81,710.39 621.27,706.71 C624.14,713.10 626.92,719.73 627.68,722.00 C628.51,724.47 629.92,727.62 630.82,729.00 C631.71,730.38 632.49,731.72 632.54,732.00 C632.60,732.28 633.83,735.11 635.29,738.30 C636.26,740.44 637.02,742.08 637.50,743.34 C637.05,742.80 636.36,743.31 634.99,744.78 C633.53,746.35 632.91,747.23 633.21,747.63 C632.65,747.65 632.04,747.67 631.37,747.68 L 624.24 747.87 L 622.66 744.18 C621.79,742.16 620.42,738.84 619.61,736.80 ZM 534.96 559.07 C534.21,560.48 532.86,561.00 529.96,561.00 C526.13,561.00 526.00,560.89 526.00,557.62 C526.00,553.72 527.68,552.87 532.75,554.20 C536.21,555.11 536.61,555.99 534.96,559.07 ZM 463.16 592.00 C463.04,591.92 462.91,591.84 462.78,591.76 L 462.67 591.68 C462.36,591.48 462.03,591.27 461.69,591.05 C461.91,591.18 462.12,591.31 462.33,591.44 C467.35,594.49 470.82,596.67 471.00,596.89 C471.18,597.10 471.88,597.59 472.79,598.14 C472.55,598.05 472.36,598.00 472.25,598.00 C471.65,598.00 471.02,597.61 470.83,597.14 C470.73,596.86 468.01,595.05 463.91,592.47 C463.66,592.32 463.41,592.16 463.16,592.00 ZM 495.11 611.15 C494.22,610.62 493.24,610.04 492.17,609.41 C488.41,607.20 484.12,604.63 481.02,602.76 C485.59,605.40 490.95,608.59 495.11,611.15 ZM 516.17 584.83 C513.78,583.98 511.73,582.47 509.90,580.29 C511.43,582.12 513.88,583.77 516.17,584.83 ZM 526.33 549.00 L 522.23 549.00 L 522.25 548.79 ZM 584.41 737.39 C584.44,737.32 584.47,737.25 584.50,737.18 C585.43,735.21 586.42,733.77 587.22,733.20 C586.40,733.89 585.31,735.50 584.41,737.39 ZM 610.43 681.70 L 609.72 679.92 L 609.76 679.92 L 610.63 682.10 C610.57,681.96 610.50,681.82 610.43,681.70 ZM 611.40 684.01 L 612.28 686.19 C611.95,685.42 611.67,684.76 611.45,684.23 C611.44,684.16 611.42,684.09 611.40,684.01 ZM 579.73 745.74 C580.80,744.57 582.58,741.51 583.80,738.75 C582.60,741.48 580.81,744.56 579.73,745.74 Z" fill="rgb(89,201,100)"/>
<path d="M 624.41 428.94 C628.07,426.26 628.96,423.88 627.23,421.47 C626.58,420.55 624.74,419.08 622.58,417.61 C626.90,420.28 631.00,423.16 631.00,423.84 C630.99,424.35 628.05,426.53 624.41,428.94 ZM 610.00 431.94 L 610.00 430.89 C610.00,435.63 613.31,435.76 620.87,431.23 C616.18,434.19 611.53,436.82 611.03,436.52 C610.47,436.17 610.00,434.11 610.00,431.94 Z" fill="rgb(101,185,146)"/>
<path d="M 526.33 549.00 L 529.58 549.16 C531.41,549.26 532.79,549.31 533.83,549.31 C534.69,549.49 535.36,549.75 535.97,550.14 C535.66,550.05 535.33,550.00 534.98,550.00 C532.58,550.00 532.54,550.37 534.64,553.58 C535.16,554.36 535.49,555.00 535.64,555.59 C535.22,555.01 534.29,554.61 532.75,554.20 C528.88,553.18 526.98,553.44 526.30,555.35 C526.83,550.25 526.73,550.00 524.55,550.00 C522.45,550.00 522.20,550.53 521.82,555.78 C521.77,556.47 521.73,557.22 521.70,558.00 C521.73,557.21 521.76,556.41 521.81,555.60 L 522.23 549.00 ZM 481.00 359.00 L 481.00 353.38 C481.00,356.33 481.28,360.16 481.62,361.88 C482.19,364.69 484.00,366.36 484.00,364.06 C484.00,363.55 485.57,363.38 487.48,363.69 C493.01,364.59 497.54,361.42 498.76,357.45 C497.68,361.02 493.95,364.00 488.95,364.00 C486.78,364.00 486.00,364.47 486.00,365.80 C486.00,367.91 484.16,370.00 482.30,370.00 C481.31,370.00 481.00,367.36 481.00,359.00 ZM 533.00 566.24 C533.39,566.53 533.75,566.87 534.07,567.25 C535.66,569.15 536.11,569.27 536.92,568.03 C537.43,567.25 537.50,566.48 537.14,565.76 C537.35,566.08 537.60,566.44 537.89,566.85 C539.05,568.48 540.00,570.08 540.00,570.40 C540.00,571.75 536.19,570.87 534.65,569.17 C533.78,568.20 533.05,566.91 533.00,566.24 ZM 528.00 551.00 C528.00,551.55 528.42,552.00 528.94,552.00 C529.46,552.00 530.16,551.55 530.50,551.00 C530.84,550.45 530.42,550.00 529.56,550.00 C528.70,550.00 528.00,550.45 528.00,551.00 ZM 526.00 558.26 C526.04,560.89 526.39,561.00 529.88,561.00 L 525.72 561.00 ZM 529.75 565.00 C529.69,565.00 529.63,565.00 529.57,565.00 L 529.50 565.00 C528.86,565.00 528.33,565.02 527.90,565.06 C528.59,564.88 529.39,564.86 530.21,565.01 C530.07,565.01 529.91,565.00 529.75,565.00 ZM 534.27 559.97 C533.51,560.75 532.42,560.98 530.25,561.00 C532.25,560.97 533.47,560.67 534.27,559.97 ZM 536.87 565.35 C536.85,565.32 536.83,565.29 536.80,565.26 C536.45,564.84 536.29,564.44 536.33,563.99 C536.35,564.37 536.52,564.78 536.87,565.35 Z" fill="rgb(200,239,228)"/>
<path d="M 0.00 512.00 L 0.00 0.00 L 512.00 0.00 L 1024.00 0.00 L 1024.00 512.00 L 1024.00 1024.00 L 512.00 1024.00 L 0.00 1024.00 L 0.00 512.00 ZM 423.00 745.74 C426.02,744.39 429.39,742.28 430.49,741.05 L 432.47 738.82 L 428.76 735.42 L 425.06 732.03 L 420.38 734.51 C415.32,737.20 408.43,737.80 404.68,735.88 C401.08,734.02 397.00,729.75 397.00,727.81 C397.00,726.13 398.28,726.00 414.96,726.00 C432.32,726.00 432.97,725.93 434.08,723.85 C436.66,719.03 432.20,705.14 426.46,700.10 C422.05,696.22 416.82,694.57 409.00,694.57 C398.02,694.57 390.92,698.41 385.23,707.42 C382.12,712.35 381.09,722.67 383.01,729.54 C387.51,745.62 406.26,753.21 423.00,745.74 ZM 475.28 746.17 C483.11,742.65 487.03,735.51 485.08,728.32 C483.12,721.08 477.87,717.74 464.87,715.46 C459.96,714.60 455.00,711.44 455.00,709.18 C455.00,706.95 458.88,705.00 463.34,705.00 C466.29,705.00 475.19,706.96 479.08,708.47 C480.25,708.92 480.98,708.10 481.89,705.29 C482.57,703.21 483.37,700.93 483.65,700.23 C484.46,698.28 476.44,695.32 468.50,694.64 C460.67,693.97 452.23,695.69 448.03,698.82 C444.43,701.50 441.56,708.86 442.40,713.31 C443.74,720.49 447.23,722.66 465.14,727.48 C470.86,729.01 472.53,730.74 471.49,734.03 C469.97,738.81 460.07,738.98 450.41,734.41 C447.36,732.97 444.73,731.95 444.56,732.15 C443.49,733.37 441.00,739.16 441.00,740.43 C441.00,742.58 445.10,745.01 452.32,747.15 C459.78,749.36 469.07,748.96 475.28,746.17 ZM 696.57 744.87 L 704.50 741.48 L 704.78 727.74 L 705.06 714.00 L 698.53 714.00 L 692.00 714.00 L 692.00 723.01 L 692.00 732.03 L 688.75 734.01 C684.06,736.87 675.03,736.69 668.40,733.61 C660.47,729.91 657.00,723.69 657.01,713.20 C657.01,707.96 657.52,705.66 659.34,702.65 C666.40,690.99 682.84,688.52 695.24,697.25 C696.74,698.31 697.59,697.88 701.24,694.24 C706.52,688.95 706.04,687.83 696.47,683.00 C689.80,679.63 689.12,679.50 678.52,679.50 C668.70,679.50 666.89,679.79 661.88,682.14 C654.06,685.80 648.56,691.12 644.89,698.57 C641.90,704.65 641.78,705.35 642.19,714.71 C642.69,725.99 644.95,731.62 651.86,738.73 C659.20,746.30 667.25,749.12 680.07,748.61 C687.13,748.33 690.05,747.67 696.57,744.87 ZM 328.42 747.39 C329.71,746.90 330.00,745.04 330.00,737.39 L 330.00 728.00 L 338.25 728.01 L 346.50 728.03 L 352.54 737.76 L 358.57 747.50 L 365.52 747.50 C371.13,747.50 372.53,747.19 372.78,745.88 C372.96,744.99 370.42,740.12 367.15,735.06 L 361.19 725.86 L 365.52 721.54 C371.25,715.80 373.17,711.82 373.71,704.55 C374.10,699.35 373.76,697.72 371.33,693.00 C368.82,688.12 367.73,687.11 361.61,684.00 L 354.71 680.50 L 335.61 680.50 L 316.50 680.50 L 316.24 713.28 L 315.97 746.05 L 318.24 746.96 C320.90,748.03 326.17,748.26 328.42,747.39 ZM 541.45 745.14 C554.77,739.10 562.32,727.87 562.38,714.00 C562.42,702.87 560.04,696.78 552.96,689.92 C544.07,681.33 538.99,680.00 514.94,680.00 L 495.92 680.00 L 496.03 710.25 C496.08,726.89 496.39,742.23 496.71,744.34 L 497.28 748.18 L 516.89 747.78 C534.59,747.43 536.98,747.17 541.45,745.14 ZM 579.72 745.75 C580.86,744.51 582.77,741.18 583.98,738.35 C585.18,735.51 586.91,733.03 587.83,732.85 C588.75,732.66 595.95,732.64 603.82,732.80 L 618.15 733.11 L 619.61 736.80 C620.42,738.84 621.79,742.16 622.66,744.18 L 624.24 747.87 L 631.37 747.68 C639.59,747.47 639.53,747.60 635.29,738.30 C633.83,735.11 632.60,732.28 632.54,732.00 C632.49,731.72 631.71,730.38 630.82,729.00 C629.92,727.62 628.51,724.47 627.68,722.00 C626.85,719.53 623.62,711.88 620.50,705.00 C617.37,698.12 613.68,689.67 612.29,686.21 L 609.76 679.92 L 602.18 680.21 L 594.60 680.50 L 587.45 697.00 C583.51,706.08 577.04,720.70 573.06,729.50 C569.09,738.30 565.60,746.06 565.31,746.75 C564.92,747.67 566.46,748.00 571.22,748.00 C576.61,748.00 577.99,747.64 579.72,745.75 ZM 514.02 635.33 C515.76,633.87 519.34,631.50 521.98,630.08 C534.16,623.51 544.38,617.53 554.50,611.04 C560.55,607.16 566.40,603.58 567.50,603.09 C568.60,602.60 573.55,599.71 578.50,596.67 C583.45,593.63 590.88,589.15 595.00,586.72 C599.12,584.30 610.83,577.24 621.00,571.04 C631.17,564.84 644.00,557.06 649.50,553.75 C655.00,550.45 660.51,546.82 661.75,545.70 L 664.00 543.65 L 663.99 454.58 L 663.99 365.50 L 660.74 363.36 C658.96,362.18 653.22,358.71 648.00,355.66 C642.78,352.60 631.75,346.00 623.50,341.00 C602.82,328.45 526.62,282.97 520.50,279.52 C508.21,272.58 508.20,272.58 505.78,273.85 C504.52,274.51 500.02,277.18 495.76,279.77 C491.50,282.37 482.13,288.10 474.92,292.50 C467.72,296.90 459.95,301.74 457.66,303.25 C455.37,304.76 452.38,306.56 451.00,307.25 C449.62,307.94 429.38,319.92 406.00,333.89 C382.62,347.85 361.14,360.67 358.25,362.37 L 353.00 365.47 L 353.00 455.62 L 353.00 545.77 L 355.71 547.55 C357.21,548.53 372.62,557.85 389.96,568.27 C407.31,578.69 424.20,588.90 427.50,590.97 C430.80,593.03 440.57,598.95 449.22,604.11 C457.86,609.28 474.06,618.99 485.22,625.70 C497.22,632.92 506.59,637.92 508.17,637.95 C509.67,637.98 512.25,636.82 514.02,635.33 ZM 407.75 717.24 C397.40,716.94 397.00,716.85 397.03,714.72 C397.11,709.80 402.56,706.00 409.53,706.00 C413.53,706.00 414.70,706.50 417.67,709.47 C419.97,711.77 421.04,713.69 420.82,715.14 C420.44,717.75 421.20,717.63 407.75,717.24 ZM 330.92 713.37 C330.01,711.04 330.34,693.15 331.30,692.41 C331.41,692.33 336.32,692.48 342.21,692.76 C352.10,693.22 353.17,693.47 355.96,695.97 C358.57,698.30 359.00,699.38 359.00,703.64 C359.00,708.01 358.58,709.02 355.48,712.02 C352.03,715.36 351.76,715.44 342.00,715.83 L 332.04 716.23 L 330.92 713.37 ZM 511.75 735.44 C511.34,735.02 511.00,725.00 511.00,713.18 L 511.00 691.70 L 521.75 692.27 C533.97,692.92 536.36,693.62 541.32,697.98 C548.07,703.90 549.71,715.77 545.05,724.90 C541.14,732.56 535.68,735.19 522.50,735.77 C517.00,736.02 512.16,735.87 511.75,735.44 ZM 592.00 720.98 C592.00,720.38 593.35,716.72 595.00,712.84 C596.65,708.96 598.01,704.83 598.03,703.65 C598.07,700.96 601.78,696.35 602.90,697.59 C604.55,699.43 612.08,718.33 611.78,719.89 C611.53,721.21 609.75,721.55 601.74,721.79 C595.20,721.98 592.00,721.71 592.00,720.98 ZM 500.46 614.56 C495.66,611.32 480.94,602.55 474.50,599.11 C472.85,598.22 471.28,597.23 471.00,596.89 C470.73,596.55 462.85,591.71 453.50,586.12 C444.15,580.53 435.83,575.54 435.00,575.03 C434.17,574.52 419.21,565.46 401.74,554.90 L 369.99 535.71 L 370.24 455.68 L 370.50 375.66 L 380.50 369.69 C386.00,366.40 394.10,361.38 398.50,358.52 C409.90,351.11 414.89,348.00 415.38,348.00 C415.61,348.00 418.66,346.20 422.15,343.99 C425.64,341.79 429.17,339.69 430.00,339.33 C430.83,338.96 433.30,337.45 435.50,335.96 C437.70,334.48 443.10,331.34 447.50,328.99 C455.49,324.72 475.08,312.84 485.82,305.75 C488.94,303.69 493.30,301.15 495.50,300.10 C497.70,299.05 500.98,297.08 502.80,295.71 C506.95,292.57 508.02,292.84 520.00,300.02 C525.22,303.15 538.50,311.02 549.50,317.50 C560.50,323.99 574.90,332.53 581.50,336.49 C588.10,340.44 603.62,349.66 616.00,356.97 C628.38,364.28 640.19,371.33 642.25,372.64 L 646.00 375.03 L 646.00 454.86 C646.00,529.65 645.89,534.78 644.25,536.19 C643.29,537.01 637.55,540.61 631.50,544.17 C625.45,547.74 604.30,560.47 584.50,572.46 C564.70,584.46 542.06,598.14 534.19,602.88 C526.33,607.62 517.55,612.95 514.69,614.71 C511.84,616.48 508.60,617.93 507.50,617.94 C506.40,617.95 503.23,616.43 500.46,614.56 ZM 536.60 581.65 C548.97,576.37 552.52,574.36 555.29,571.07 C562.46,562.54 560.57,551.11 551.18,546.21 C542.06,541.46 529.17,536.75 523.94,536.27 C517.16,535.64 513.46,537.30 508.88,543.00 C506.08,546.49 505.14,547.00 501.58,547.00 C495.86,547.00 490.94,544.22 488.28,539.50 C484.38,532.57 485.70,525.96 492.04,520.62 L 495.15 518.00 L 525.39 518.00 C556.73,518.00 564.54,517.30 571.27,513.86 C580.08,509.37 592.00,498.47 592.00,494.91 C592.00,494.24 593.09,491.39 594.43,488.57 C599.55,477.72 598.45,463.11 591.65,451.88 C586.43,443.25 586.42,443.25 575.29,454.03 C569.90,459.24 565.59,464.17 565.70,465.00 C565.81,465.83 566.20,468.63 566.58,471.23 C567.42,477.09 565.95,480.96 561.34,485.00 L 557.93 488.00 L 527.10 488.00 C493.91,488.00 488.42,488.56 480.08,492.76 C464.03,500.86 455.07,516.94 456.27,535.50 C457.19,549.72 464.00,561.81 475.16,569.02 C482.82,573.98 488.48,575.79 498.95,576.64 C506.70,577.26 507.61,577.57 509.90,580.29 C515.54,586.99 523.20,587.38 536.60,581.65 ZM 410.50 520.75 C410.74,520.06 411.10,518.15 411.30,516.50 L 411.67 513.50 L 425.72 513.22 L 439.78 512.95 L 456.69 495.72 C479.51,472.48 477.97,473.75 481.84,475.09 C486.36,476.67 489.87,475.46 494.30,470.81 L 498.14 466.77 L 515.82 466.88 C526.08,466.94 533.63,467.39 533.81,467.94 C534.78,470.83 538.60,474.09 542.17,475.05 C547.30,476.43 550.81,475.12 555.10,470.24 C557.91,467.04 558.15,466.21 557.84,460.96 L 557.50 455.20 L 570.80 441.60 L 584.10 428.00 L 597.05 428.00 L 610.00 428.00 L 610.00 431.94 C610.00,434.11 610.47,436.17 611.03,436.52 C612.05,437.15 630.99,425.12 631.00,423.84 C631.00,422.51 615.41,412.83 613.00,412.67 C610.80,412.52 610.44,412.97 610.00,416.50 L 609.50 420.50 L 595.41 420.78 L 581.31 421.05 L 566.48 435.96 L 551.64 450.86 L 547.00 450.31 C541.46,449.66 537.19,451.53 534.01,455.98 L 531.86 459.00 L 514.68 458.96 L 497.50 458.92 L 495.50 455.75 C491.16,448.87 481.21,448.37 475.21,454.74 C472.11,458.02 471.86,458.76 472.17,463.65 L 472.50 468.98 L 454.01 487.49 L 435.52 506.00 L 424.46 506.00 C412.21,506.00 411.00,505.49 411.00,500.30 C411.00,497.82 410.56,497.00 409.24,497.00 C407.18,497.00 391.00,507.60 391.00,508.96 C391.00,509.91 407.90,521.95 409.28,521.98 C409.71,521.99 410.26,521.44 410.50,520.75 ZM 451.62 472.75 C456.57,467.66 460.96,462.93 461.38,462.24 C461.84,461.46 460.76,459.37 458.57,456.81 C455.54,453.27 455.00,451.91 455.00,447.77 C455.00,441.71 456.95,437.81 461.34,435.10 C464.58,433.09 466.04,433.00 493.73,433.00 C509.68,433.00 525.15,432.55 528.11,432.00 C542.08,429.41 555.17,419.25 561.27,406.26 C564.04,400.36 564.49,398.23 564.80,389.50 C565.08,381.66 564.74,378.18 563.23,373.40 C559.37,361.18 551.09,352.15 539.00,346.98 C534.86,345.21 531.05,344.52 523.55,344.19 L 513.60 343.75 L 509.48 339.20 C505.62,334.93 504.99,334.63 499.37,334.22 C493.01,333.76 486.92,335.64 473.50,342.20 C466.04,345.85 463.42,348.27 461.00,353.72 C459.13,357.96 459.06,358.00 453.97,358.00 C449.79,358.00 448.00,357.41 444.40,354.82 C441.00,352.38 439.69,351.91 438.79,352.81 C437.89,353.71 438.29,354.69 440.49,356.99 L 443.37 360.00 L 440.49 363.01 C437.86,365.75 437.74,366.17 439.17,367.60 C440.60,369.02 441.06,368.89 444.25,366.08 C447.33,363.38 448.49,363.00 453.70,363.00 C459.57,363.00 459.65,363.04 461.86,366.96 C464.73,372.06 467.52,373.99 478.51,378.43 C497.64,386.15 502.60,386.17 509.80,378.55 C514.03,374.09 514.23,374.00 520.42,374.00 C527.42,374.00 530.83,375.83 533.52,381.04 C537.02,387.80 533.86,397.50 527.03,400.99 C523.33,402.87 521.17,403.00 492.75,403.00 C468.73,403.00 461.20,403.32 456.53,404.53 C438.54,409.22 426.65,423.68 424.46,443.54 C423.57,451.60 426.83,463.87 431.98,471.84 C435.35,477.07 440.19,482.00 441.94,482.00 C442.31,482.00 446.66,477.84 451.62,472.75 ZM 521.81 565.83 C521.59,563.48 521.59,558.95 521.82,555.78 C522.20,550.53 522.45,550.00 524.55,550.00 C526.75,550.00 526.83,550.26 526.29,555.50 L 525.72 561.00 L 529.88 561.00 C533.33,561.00 534.23,560.58 535.16,558.54 C536.06,556.58 535.95,555.58 534.64,553.58 C532.54,550.37 532.58,550.00 534.98,550.00 C539.47,550.00 541.15,557.97 537.50,562.00 C536.19,563.45 536.01,564.30 536.80,565.26 C537.51,566.12 537.55,567.07 536.92,568.03 C536.11,569.27 535.66,569.15 534.07,567.25 C531.45,564.13 526.26,564.13 525.82,567.24 C525.64,568.47 524.76,569.62 523.86,569.79 C522.59,570.03 522.13,569.13 521.81,565.83 ZM 528.00 551.00 C528.00,550.45 528.70,550.00 529.56,550.00 C530.42,550.00 530.84,550.45 530.50,551.00 C530.16,551.55 529.46,552.00 528.94,552.00 C528.42,552.00 528.00,551.55 528.00,551.00 ZM 481.63 466.93 C478.56,464.51 478.22,461.01 480.83,458.65 C484.63,455.22 491.00,457.79 491.00,462.76 C491.00,464.65 486.82,469.00 485.00,469.00 C484.60,469.00 483.08,468.07 481.63,466.93 ZM 541.65 467.17 C539.73,465.04 539.47,459.93 541.20,458.20 C541.86,457.54 543.79,457.00 545.50,457.00 C549.29,457.00 551.00,458.56 551.00,462.03 C551.00,464.86 547.34,469.00 544.84,469.00 C544.00,469.00 542.57,468.18 541.65,467.17 ZM 481.62 361.88 C481.28,360.16 481.00,356.33 481.00,353.38 L 481.00 348.00 L 487.96 348.00 C493.83,348.00 495.24,348.34 496.96,350.19 C502.57,356.20 496.31,365.12 487.48,363.69 C485.57,363.38 484.00,363.55 484.00,364.06 C484.00,366.36 482.19,364.69 481.62,361.88 ZM 492.60 357.49 C494.75,354.21 493.06,352.00 488.38,352.00 C485.22,352.00 485.00,352.21 485.00,355.33 C485.00,357.17 485.30,358.97 485.67,359.33 C487.21,360.88 491.04,359.87 492.60,357.49 Z" fill="rgb(254,254,254)"/>
</g>
</svg>