# Blender 4.3.2
# www.blender.org
mtllib multiple.mtl
o Cylinder
v 0.000000 -6.243382 -3.319665
v 0.000000 3.319665 -6.243382
v 4.330127 -5.512453 -0.928903
v 4.330126 4.050594 -3.852620
v 4.330127 -4.050594 3.852621
v 4.330126 5.512453 0.928904
v -0.000000 -3.319665 6.243382
v -0.000000 6.243382 3.319665
v -4.330126 -4.050594 3.852620
v -4.330127 5.512453 0.928903
v -4.330126 -5.512453 -0.928904
v -4.330127 4.050594 -3.852621
vn 0.5000 -0.2532 -0.8282
vn 1.0000 -0.0000 -0.0000
vn 0.5000 0.2532 0.8282
vn -0.5000 0.2532 0.8282
vn -0.0000 0.9563 -0.2924
vn -1.0000 -0.0000 -0.0000
vn -0.5000 -0.2532 -0.8282
vn -0.0000 -0.9563 0.2924
vt 1.000000 0.500000
vt 1.000000 1.000000
vt 0.833333 1.000000
vt 0.833333 0.500000
vt 0.666667 1.000000
vt 0.666667 0.500000
vt 0.500000 1.000000
vt 0.500000 0.500000
vt 0.333333 1.000000
vt 0.333333 0.500000
vt 0.457846 0.370000
vt 0.250000 0.490000
vt 0.042154 0.370000
vt 0.042154 0.130000
vt 0.250000 0.010000
vt 0.457846 0.130000
vt 0.166667 1.000000
vt 0.166667 0.500000
vt -0.000000 1.000000
vt -0.000000 0.500000
vt 0.750000 0.490000
vt 0.957846 0.370000
vt 0.957846 0.130000
vt 0.750000 0.010000
vt 0.542154 0.130000
vt 0.542154 0.370000
s 1
f 1/1/1 2/2/1 4/3/1 3/4/1
f 3/4/2 4/3/2 6/5/2 5/6/2
f 5/6/3 6/5/3 8/7/3 7/8/3
f 7/8/4 8/7/4 10/9/4 9/10/4
f 4/11/5 2/12/5 12/13/5 10/14/5 8/15/5 6/16/5
f 9/10/6 10/9/6 12/17/6 11/18/6
f 11/18/7 12/17/7 2/19/7 1/20/7
f 1/21/8 3/22/8 5/23/8 7/24/8 9/25/8 11/26/8
o Cylinder.001
v -15.818022 -4.112663 -1.728818
v -11.910711 5.092386 -1.728818
v -11.832119 -5.804578 0.771183
v -7.924808 3.400471 0.771183
v -11.832119 -5.804578 5.771183
v -7.924809 3.400471 5.771183
v -15.818022 -4.112663 8.271182
v -11.910711 5.092386 8.271182
v -19.803925 -2.420748 5.771182
v -15.896614 6.784301 5.771182
v -19.803925 -2.420748 0.771182
v -15.896614 6.784301 0.771182
vn 0.4603 -0.1954 -0.8660
vn 0.9205 -0.3907 -0.0000
vn 0.4603 -0.1954 0.8660
vn -0.4603 0.1954 0.8660
vn 0.3907 0.9205 -0.0000
vn -0.9205 0.3907 -0.0000
vn -0.4603 0.1954 -0.8660
vn -0.3907 -0.9205 -0.0000
vt 1.000000 0.500000
vt 1.000000 1.000000
vt 0.833333 1.000000
vt 0.833333 0.500000
vt 0.666667 1.000000
vt 0.666667 0.500000
vt 0.500000 1.000000
vt 0.500000 0.500000
vt 0.333333 1.000000
vt 0.333333 0.500000
vt 0.457846 0.370000
vt 0.250000 0.490000
vt 0.042154 0.370000
vt 0.042154 0.130000
vt 0.250000 0.010000
vt 0.457846 0.130000
vt 0.166667 1.000000
vt 0.166667 0.500000
vt -0.000000 1.000000
vt -0.000000 0.500000
vt 0.750000 0.490000
vt 0.957846 0.370000
vt 0.957846 0.130000
vt 0.750000 0.010000
vt 0.542154 0.130000
vt 0.542154 0.370000
s 1
f 13/27/9 14/28/9 16/29/9 15/30/9
f 15/30/10 16/29/10 18/31/10 17/32/10
f 17/32/11 18/31/11 20/33/11 19/34/11
f 19/34/12 20/33/12 22/35/12 21/36/12
f 16/37/13 14/38/13 24/39/13 22/40/13 20/41/13 18/42/13
f 21/36/14 22/35/14 24/43/14 23/44/14
f 23/44/15 24/43/15 14/45/15 13/46/15
f 13/47/16 15/48/16 17/49/16 19/50/16 21/51/16 23/52/16
