# Blender 4.3.0
# www.blender.org
o Cylinder
v 0.000000 -2.460275 -24.948397
v 0.000000 2.485105 -24.980652
v 21.672586 -2.519514 -12.512674
v 21.624727 2.476970 -12.485042
v 21.619997 -2.472767 12.482311
v 21.686380 2.531774 12.520638
v 0.000000 -2.503514 25.004564
v 0.000000 2.449475 24.934366
v -21.678343 -2.524630 12.515997
v -21.629869 2.481542 12.488011
v -21.679918 -2.526029 -12.516907
v -21.653326 2.502393 -12.501554
v 10.806758 -2.462882 -18.717854
v 10.855784 2.560934 -18.802771
v 21.584892 -2.434258 0.000000
v 21.660471 2.509835 0.000000
v 10.844001 -2.537367 18.782362
v 10.855572 2.560509 18.802402
v -10.806727 -2.462820 18.717800
v -10.828758 2.506881 18.755959
v -21.672312 -2.521677 0.000000
v -21.661577 2.510942 0.000000
v -10.807166 -2.463697 -18.718561
v -10.839189 2.527741 -18.774025
v 10.847866 0.000000 -18.789055
v 21.568783 0.000000 0.000000
v 10.804750 0.000000 18.714376
v -10.857853 0.000000 18.806353
v 10.825317 2.412216 -6.250000
v -10.825317 2.581705 -6.250000
v 0.000000 2.438991 12.500000
v -21.685633 0.000000 0.000000
v -10.848184 0.000000 -18.789606
v 0.000000 -2.511162 -12.500000
v 10.825317 -2.510773 6.250000
v -10.825317 -2.423978 6.250000
v 16.237976 2.516332 3.125000
v -5.412659 2.489715 -15.625000
v -10.825317 2.565927 12.500000
v -10.825317 -2.521674 -12.500000
v 16.237976 -2.422692 -3.125000
v -5.412659 -2.590751 15.625000
v 5.412659 2.455418 -15.625000
v -16.237976 2.438032 3.125000
v 10.825317 2.430654 12.500000
v 10.825317 -2.485883 -12.500000
v 5.412659 -2.550612 15.625000
v -16.237976 -2.492350 -3.125000
v -16.237976 -2.558564 9.375000
v 16.237976 -2.527088 9.375000
v 0.000000 -2.562542 -18.750000
v 0.000000 2.458824 18.750000
v -16.237976 2.534756 -9.375000
v 16.237976 2.405888 -9.375000
v -5.412659 -2.487244 -3.125000
v 5.412659 -2.462216 -3.125000
v 0.000000 -2.430283 6.250000
v 5.412659 2.551966 3.125000
v 0.000000 2.585786 -6.250000
v -5.412659 2.503450 3.125000
vn 0.4955 -0.0334 -0.8680
vn 1.0000 0.0066 -0.0028
vn 0.4975 0.0309 0.8669
vn -0.4949 -0.0415 0.8680
vn 0.0032 1.0000 0.0013
vn -1.0000 -0.0053 0.0006
vn -0.4991 -0.0333 -0.8659
vn -0.0031 -1.0000 0.0085
vn 0.5060 -0.0062 -0.8625
vn 0.9993 -0.0365 -0.0020
vn 0.4917 -0.0397 0.8698
vn -0.5018 0.0232 0.8647
vn 0.0002 1.0000 -0.0018
vn 0.0055 1.0000 0.0027
vn -0.0078 0.9999 0.0094
vn -1.0000 0.0096 -0.0007
vn -0.4969 0.0071 -0.8678
vn 0.0004 -1.0000 -0.0093
vn -0.0061 -1.0000 0.0068
vn -0.0138 -0.9998 0.0173
vn 0.0072 -1.0000 0.0031
vn 0.0169 -0.9998 -0.0137
vn -0.0002 -0.9999 0.0104
vn 0.0037 -1.0000 -0.0021
vn -0.0018 -1.0000 -0.0021
vn 0.0119 -0.9999 -0.0031
vn 0.0023 -1.0000 -0.0037
vn 0.0092 -0.9999 0.0082
vn -0.0092 -0.9998 -0.0165
vn -0.5017 0.0071 -0.8650
vn -1.0000 0.0096 0.0026
vn 0.0008 0.9998 -0.0206
vn -0.0094 1.0000 -0.0032
vn 0.0044 1.0000 0.0015
vn 0.0035 0.9998 0.0173
vn -0.0076 1.0000 -0.0019
vn -0.0042 1.0000 -0.0031
vn -0.0125 0.9999 0.0118
vn 0.0080 0.9999 0.0119
vn -0.0147 0.9999 -0.0026
vn -0.4953 0.0232 0.8684
vn 0.5012 -0.0397 0.8644
vn 0.9993 -0.0365 -0.0028
vn 0.4946 -0.0062 -0.8691
vn 0.0010 -1.0000 0.0031
vn 0.0023 -1.0000 0.0039
vn -0.0074 -0.9999 -0.0085
vn -0.5021 0.0053 -0.8648
vn -0.9999 0.0097 0.0025
vn 0.0033 0.9999 -0.0130
vn 0.0160 0.9999 -0.0056
vn -0.0060 0.9999 0.0118
vn -0.4936 0.0123 0.8696
vn 0.4970 -0.0132 0.8677
vn 0.9999 0.0095 0.0064
vn 0.4947 -0.0057 -0.8690
vn 0.5032 0.0096 -0.8641
vn 0.9999 -0.0132 -0.0067
vn 0.5010 0.0123 0.8654
vn -0.5043 0.0097 0.8635
vn -1.0000 0.0053 -0.0015
vn -0.4947 -0.0057 -0.8691
vn -0.4950 -0.0333 -0.8682
vn -1.0000 -0.0053 -0.0005
vn -0.5025 -0.0415 0.8636
vn 0.5043 0.0309 0.8630
vn 1.0000 0.0066 0.0070
vn 0.4992 -0.0334 -0.8659
vn 0.0117 0.9999 0.0001
vn -0.0060 0.9999 -0.0102
vn -0.0078 0.9999 -0.0091
vn -0.0045 0.9999 0.0095
vn -0.0045 1.0000 0.0062
vn -0.0004 1.0000 0.0086
vn -0.0093 0.9999 0.0038
vn 0.0033 0.9999 0.0110
vn 0.0008 0.9999 0.0125
vn -0.0006 -0.9998 -0.0175
vn 0.0037 -0.9999 -0.0150
vn 0.0037 -1.0000 0.0072
vn -0.0006 -1.0000 0.0064
vn 0.0023 -1.0000 0.0047
vn -0.0074 -1.0000 -0.0009
vn 0.0004 -1.0000 0.0034
vn 0.0005 -1.0000 0.0034
vn 0.0005 -1.0000 0.0070
vn 0.0037 -1.0000 0.0046
vn 0.0037 -1.0000 -0.0073
vn 0.0160 0.9999 -0.0046
vn 0.0032 0.9999 -0.0121
vn -0.0004 0.9999 -0.0100
vn -0.0039 1.0000 -0.0089
vn 0.0095 0.9999 -0.0043
vn 0.0117 0.9999 0.0094
vn 0.0010 -1.0000 -0.0093
vn 0.0025 -1.0000 -0.0080
vn -0.0255 -0.9997 -0.0031
vn 0.0056 -1.0000 0.0003
vn 0.0230 -0.9997 -0.0031
vn -0.0064 -1.0000 -0.0002
vn -0.0004 -1.0000 0.0048
vn 0.0020 -1.0000 -0.0087
vn 0.0081 -1.0000 0.0035
vn -0.0031 -1.0000 -0.0037
vn -0.0091 -0.9999 0.0082
vn 0.0093 -0.9998 -0.0165
vn -0.0093 0.9997 -0.0206
vn 0.0044 1.0000 -0.0032
vn -0.0094 1.0000 0.0015
vn 0.0121 0.9999 0.0023
vn -0.0062 1.0000 -0.0043
vn -0.0056 1.0000 -0.0007
vn -0.0131 0.9999 0.0108
vn -0.0039 1.0000 -0.0088
vn -0.0028 0.9998 0.0180
vt 0.916667 0.750000
vt 0.833333 0.500000
vt 0.916667 0.500000
vt 0.750000 0.750000
vt 0.666667 0.500000
vt 0.750000 0.500000
vt 0.583333 0.750000
vt 0.500000 0.500000
vt 0.583333 0.500000
vt 0.416667 0.750000
vt 0.333333 0.500000
vt 0.416667 0.500000
vt 0.250000 0.490000
vt 0.198038 0.400000
vt 0.301962 0.400000
vt 0.250000 0.750000
vt 0.166667 0.500000
vt 0.250000 0.500000
vt 0.083333 0.750000
vt -0.000000 0.500000
vt 0.083333 0.500000
vt 0.957846 0.370000
vt 0.905885 0.280000
vt 0.853923 0.370000
vt 0.833333 1.000000
vt 0.916667 1.000000
vt 0.666667 1.000000
vt 0.750000 1.000000
vt 0.500000 1.000000
vt 0.583333 1.000000
vt 0.333333 1.000000
vt 0.416667 1.000000
vt 0.457846 0.250000
vt 0.405885 0.220000
vt 0.457846 0.130000
vt 0.146077 0.430000
vt 0.146077 0.070000
vt 0.146077 0.130000
vt 0.042154 0.130000
vt 0.166667 1.000000
vt 0.250000 1.000000
vt -0.000000 1.000000
vt 0.083333 1.000000
vt 0.646077 0.430000
vt 0.646077 0.370000
vt 0.542154 0.370000
vt 0.957846 0.250000
vt 0.646077 0.070000
vt 0.698038 0.100000
vt 0.750000 0.010000
vt 0.542154 0.250000
vt 0.594115 0.280000
vt 0.646077 0.190000
vt 0.594115 0.160000
vt 0.542154 0.130000
vt 0.853923 0.070000
vt 0.801962 0.100000
vt 0.853923 0.190000
vt 0.905885 0.160000
vt 0.957846 0.130000
vt 0.853923 0.430000
vt 0.750000 0.370000
vt 0.750000 0.430000
vt 0.750000 0.490000
vt 0.353923 0.070000
vt 0.353923 0.130000
vt 0.250000 0.130000
vt 0.250000 0.070000
vt 0.250000 0.010000
vt 0.042154 0.250000
vt 0.094115 0.220000
vt 0.146077 0.310000
vt 0.094115 0.340000
vt 0.042154 0.370000
vt 0.353923 0.430000
vt 0.353923 0.310000
vt 0.405885 0.340000
vt 0.457846 0.370000
vt 1.000000 1.000000
vt 0.698038 0.280000
vt 0.801962 0.280000
vt 0.750000 0.190000
vt 0.301962 0.220000
vt 0.250000 0.310000
vt 0.198038 0.220000
vt 1.000000 0.500000
s 0
f 25/1/1 3/2/1 13/3/1
f 26/4/2 5/5/2 15/6/2
f 27/7/3 7/8/3 17/9/3
f 28/10/4 9/11/4 19/12/4
f 2/13/5 38/14/5 43/15/5
f 32/16/6 11/17/6 21/18/6
f 33/19/7 1/20/7 23/21/7
f 3/22/8 41/23/8 46/24/8
f 4/25/9 25/1/9 14/26/9
f 6/27/10 26/4/10 16/28/10
f 8/29/11 27/7/11 18/30/11
f 10/31/12 28/10/12 20/32/12
f 16/33/13 37/34/13 6/35/13
f 24/36/14 38/14/14 2/13/14
f 20/37/15 39/38/15 10/39/15
f 12/40/16 32/16/16 22/41/16
f 2/42/17 33/19/17 24/43/17
f 23/44/18 40/45/18 11/46/18
f 15/47/19 41/23/19 3/22/19
f 19/48/20 42/49/20 7/50/20
f 21/51/21 48/52/21 36/53/21
f 36/53/22 49/54/22 21/51/22
f 9/55/23 49/54/23 19/48/23
f 17/56/24 47/57/24 35/58/24
f 35/58/25 50/59/25 17/56/25
f 5/60/26 50/59/26 15/47/26
f 13/61/27 46/24/27 34/62/27
f 34/62/28 51/63/28 13/61/28
f 1/64/29 51/63/29 23/44/29
f 12/40/30 24/43/30 33/19/30
f 10/31/31 22/41/31 32/16/31
f 18/65/32 45/66/32 31/67/32
f 31/67/33 52/68/33 18/65/33
f 8/69/34 52/68/34 20/37/34
f 22/70/35 44/71/35 30/72/35
f 30/72/36 53/73/36 22/70/36
f 12/74/37 53/73/37 24/36/37
f 14/75/38 43/15/38 29/76/38
f 29/76/39 54/77/39 14/75/39
f 4/78/40 54/77/40 16/33/40
f 8/29/41 20/32/41 28/10/41
f 6/27/42 18/30/42 27/7/42
f 4/25/43 16/28/43 26/4/43
f 2/79/44 14/26/44 25/1/44
f 34/62/45 55/80/45 40/45/45
f 34/62/46 56/81/46 55/80/46
f 35/58/47 47/57/47 57/82/47
f 33/19/48 11/17/48 12/40/48
f 32/16/49 9/11/49 10/31/49
f 29/76/50 58/83/50 37/34/50
f 29/76/51 59/84/51 58/83/51
f 30/72/52 44/71/52 60/85/52
f 28/10/53 7/8/53 8/29/53
f 27/7/54 5/5/54 6/27/54
f 26/4/55 3/2/55 4/25/55
f 25/1/56 1/86/56 2/79/56
f 4/25/57 3/2/57 25/1/57
f 6/27/58 5/5/58 26/4/58
f 8/29/59 7/8/59 27/7/59
f 10/31/60 9/11/60 28/10/60
f 12/40/61 11/17/61 32/16/61
f 2/42/62 1/20/62 33/19/62
f 33/19/63 23/21/63 11/17/63
f 32/16/64 21/18/64 9/11/64
f 28/10/65 19/12/65 7/8/65
f 27/7/66 17/9/66 5/5/66
f 26/4/67 15/6/67 3/2/67
f 25/1/68 13/3/68 1/86/68
f 60/85/69 39/38/69 31/67/69
f 60/85/70 44/71/70 39/38/70
f 44/71/71 10/39/71 39/38/71
f 58/83/72 60/85/72 31/67/72
f 58/83/73 59/84/73 60/85/73
f 59/84/74 30/72/74 60/85/74
f 37/34/75 45/66/75 6/35/75
f 37/34/76 58/83/76 45/66/76
f 58/83/77 31/67/77 45/66/77
f 57/82/78 42/49/78 36/53/78
f 57/82/79 47/57/79 42/49/79
f 47/57/80 7/50/80 42/49/80
f 55/80/81 57/82/81 36/53/81
f 55/80/82 56/81/82 57/82/82
f 56/81/83 35/58/83 57/82/83
f 40/45/84 48/52/84 11/46/84
f 40/45/85 55/80/85 48/52/85
f 55/80/86 36/53/86 48/52/86
f 46/24/46 56/81/46 34/62/46
f 46/24/87 41/23/87 56/81/87
f 41/23/88 35/58/88 56/81/88
f 43/15/89 59/84/89 29/76/89
f 43/15/90 38/14/90 59/84/90
f 38/14/91 30/72/91 59/84/91
f 16/33/92 29/76/92 37/34/92
f 24/36/93 30/72/93 38/14/93
f 20/37/94 31/67/94 39/38/94
f 23/44/95 34/62/95 40/45/95
f 15/47/96 35/58/96 41/23/96
f 19/48/97 36/53/97 42/49/97
f 21/51/98 11/46/98 48/52/98
f 36/53/99 19/48/99 49/54/99
f 9/55/100 21/51/100 49/54/100
f 17/56/101 7/50/101 47/57/101
f 35/58/102 15/47/102 50/59/102
f 5/60/103 17/56/103 50/59/103
f 13/61/104 3/22/104 46/24/104
f 34/62/105 23/44/105 51/63/105
f 1/64/106 13/61/106 51/63/106
f 18/65/107 6/35/107 45/66/107
f 31/67/108 20/37/108 52/68/108
f 8/69/109 18/65/109 52/68/109
f 22/70/110 10/39/110 44/71/110
f 30/72/111 24/36/111 53/73/111
f 12/74/112 22/70/112 53/73/112
f 14/75/113 2/13/113 43/15/113
f 29/76/114 16/33/114 54/77/114
f 4/78/115 14/75/115 54/77/115
