<?xml version="1.0" encoding="UTF-8" standalone="no"?>
<svg
   class="qcm"
   viewBox="0 0 12 12"
   role="img"
   version="1.1"
   id="svg12"
   sodipodi:docname="qcm-circle.svg"
   inkscape:version="1.1.2 (0a00cf5339, 2022-02-04)"
   xmlns:inkscape="http://www.inkscape.org/namespaces/inkscape"
   xmlns:sodipodi="http://sodipodi.sourceforge.net/DTD/sodipodi-0.dtd"
   xmlns="http://www.w3.org/2000/svg"
   xmlns:svg="http://www.w3.org/2000/svg">
  <path
     style="fill:#ff1313;fill-opacity:1;stroke:none;stroke-width:1px;stroke-linecap:butt;stroke-linejoin:miter;stroke-opacity:1"
     d="M 5.934077,1.9349202 3.2866396,2.4018186 2.7026854,2.7525211 1.8582877,5.698806 2.378725,8.7594401 2.7512316,9.2879802 5.8174399,10.126994 9.0688963,9.4462798 9.3554218,9.1279154 10.11814,6.109693 9.4909425,2.9300793 9.1162646,2.6470163 Z"
     id="path1269"
     sodipodi:nodetypes="ccccccccccccc" />
  <defs
     id="defs16" />
  <sodipodi:namedview
     id="namedview14"
     pagecolor="#505050"
     bordercolor="#eeeeee"
     borderopacity="1"
     inkscape:pageshadow="0"
     inkscape:pageopacity="0"
     inkscape:pagecheckerboard="0"
     showgrid="false"
     inkscape:zoom="72.75"
     inkscape:cx="6"
     inkscape:cy="6"
     inkscape:window-width="2560"
     inkscape:window-height="1324"
     inkscape:window-x="1680"
     inkscape:window-y="27"
     inkscape:window-maximized="1"
     inkscape:current-layer="svg12" />
  <g
     style="fill:#ffffff;stroke:#ffffff;stroke-width:1.25;stroke-linecap:round"
     transform="matrix(0.91309036,0,0,0.91309036,0.52091182,0.52064126)"
     id="g10">
    <rect
       width="8.3299999"
       height="0.58999997"
       x="-5.8600001"
       y="8.0200005"
       transform="rotate(-56.539979)"
       id="rect6" />
    <rect
       width="8.3299999"
       height="0.58999997"
       x="-12.47"
       y="-1.99"
       transform="matrix(-0.55,-0.83,-0.83,0.55,0,0)"
       id="rect8" />
  </g>
  <path
     class="tick"
     style="fill:#ffffff;stroke:#ffffff;stroke-width:0;stroke-linecap:butt;stroke-linejoin:round"
     d="M 6.1605998,8.5598789 C 6.3104601,7.3925459 6.8862393,5.428587 8.8659729,4.1271684 L 8.7476622,3.9773082 C 6.9493383,4.568862 6.2000368,5.5863347 5.4507351,7.1007127 5.1746767,6.6826813 3.7233978,5.9885914 3.2817042,5.9254923 L 3.1318439,6.0753526 c 1.0963465,0.5363422 1.7352247,1.2935312 2.3188912,2.7605848"
     id="path4" />
  <circle
     style="stroke-width:1.1;fill:none;stroke:none;stroke-opacity:1"
     cy="6"
     cx="6"
     r="4.2"
     id="circle2" />
  <rect
     style="fill:none;stroke:#808080;stroke-width:0.97;stroke-linecap:round;stroke-linejoin:round;fill-opacity:1;stroke-opacity:1;stroke-miterlimit:4;stroke-dasharray:none;paint-order:normal"
     id="rect855"
     width="7.4135003"
     height="7.3627024"
     x="2.2929747"
     y="2.3169522" />
</svg>
