<?xml version="1.0" encoding="UTF-8" standalone="no"?>
<!-- Created with Inkscape (http://www.inkscape.org/) -->

<svg
   id="svg901"
   width="40"
   height="40"
   version="1.1"
   viewBox="0 0 10.583333 10.583333"
   sodipodi:docname="edit_downstream.svg"
   inkscape:version="1.2.2 (b0a8486541, 2022-12-01)"
   xmlns:inkscape="http://www.inkscape.org/namespaces/inkscape"
   xmlns:sodipodi="http://sodipodi.sourceforge.net/DTD/sodipodi-0.dtd"
   xmlns="http://www.w3.org/2000/svg"
   xmlns:svg="http://www.w3.org/2000/svg"
   xmlns:rdf="http://www.w3.org/1999/02/22-rdf-syntax-ns#"
   xmlns:cc="http://creativecommons.org/ns#"
   xmlns:dc="http://purl.org/dc/elements/1.1/">
  <defs
     id="defs18" />
  <sodipodi:namedview
     id="namedview16"
     pagecolor="#ffffff"
     bordercolor="#000000"
     borderopacity="0.25"
     inkscape:showpageshadow="2"
     inkscape:pageopacity="0.0"
     inkscape:pagecheckerboard="0"
     inkscape:deskcolor="#d1d1d1"
     showgrid="false"
     inkscape:zoom="12.359638"
     inkscape:cx="24.272557"
     inkscape:cy="30.178879"
     inkscape:window-width="1920"
     inkscape:window-height="1043"
     inkscape:window-x="1920"
     inkscape:window-y="0"
     inkscape:window-maximized="1"
     inkscape:current-layer="layer1" />
  <metadata
     id="metadata898">
    <rdf:RDF>
      <cc:Work
         rdf:about="">
        <dc:format>image/svg+xml</dc:format>
        <dc:type
           rdf:resource="http://purl.org/dc/dcmitype/StillImage" />
      </cc:Work>
    </rdf:RDF>
  </metadata>
  <g
     id="layer1"
     transform="translate(0,-284.3)">
    <g
       id="g2570"
       transform="matrix(1.1424394,0,0,0.95112633,-4.171521,13.623774)"
       fill="#808080">
      <path
         id="rect3173-9-1"
         d="m 5.0391,291.01 c -0.41334,0 -0.75391,0.34252 -0.75391,0.75585 v 2.5957 c 0,0.41334 0.34057,0.75586 0.75391,0.75586 h 4.2773 c 0.41334,0 0.75391,-0.34252 0.75391,-0.75586 v -2.5957 c 0,-0.41333 -0.34057,-0.75585 -0.75391,-0.75585 z m 0,0.5664 h 4.2773 c 0.10957,0 0.18945,0.0799 0.18945,0.18945 v 2.5957 c 0,0.10956 -0.079888,0.18945 -0.18945,0.18945 H 5.0391 c -0.10957,0 -0.1875,-0.0799 -0.1875,-0.18945 v -2.5957 c 0,-0.10956 0.077934,-0.18945 0.1875,-0.18945 z"
         color="#000000"
         style="-inkscape-stroke:none" />
      <path
         id="rect3175-9-7"
         d="m 7.1777,288.04 c -0.64273,0 -1.2162,0.33605 -1.6055,0.83203 -0.38928,0.49597 -0.61328,1.1569 -0.61328,1.8789 a 0.43082,0.43082 0 0 0 0.42969,0.42969 0.43082,0.43082 0 0 0 0.43164,-0.42969 c 0,-0.54048 0.1724,-1.0198 0.42969,-1.3476 0.25729,-0.3278 0.5796,-0.50196 0.92773,-0.50196 0.34813,0 0.67044,0.17415 0.92773,0.50196 0.25729,0.32781 0.42969,0.80717 0.42969,1.3476 a 0.43082,0.43082 0 0 0 0.43164,0.42969 0.43082,0.43082 0 0 0 0.42969,-0.42969 c 0,-0.72196 -0.224,-1.3829 -0.61328,-1.8789 C 8.39386,288.37605 7.8204,288.04 7.17764,288.04 Z"
         color="#000000"
         stroke-linecap="round"
         style="-inkscape-stroke:none" />
    </g>
    <g
       id="path3647">
      <path
         id="path6853"
         d="m 10.578,284.48 -0.03906,9.4932"
         color="#000000"
         stroke-width="0.566"
         style="-inkscape-stroke:none" />
      <g
         id="path241"
         transform="translate(-1.7954862,-1.0933066)">
        <g
           id="g874">
          <g
             id="g881"
             transform="translate(-0.39951108,-0.62417011)">
            <path
               id="path1170"
               d="m 10.48,286.29367 -0.03516,8.1578 0.56641,0.002 0.03516,-8.15781 z"
               color="#000000"
               style="stroke-width:0.929059;-inkscape-stroke:none" />
            <g
               id="g1160">
              <g
                 id="path1162"
                 fill-rule="evenodd">
                <path
                   id="path1166"
                   d="m 10.722,296.08 -1.4055,-2.4531 2.8297,0.0108 z"
                   color="#000000"
                   stroke-width="0.28297pt"
                   style="-inkscape-stroke:none" />
                <path
                   id="path1168"
                   d="m 8.9902,293.44 1.7305,3.0195 0.16406,-0.28125 1.5879,-2.7266 z m 0.65234,0.3789 2.1758,0.008 -1.0957,1.8789 z"
                   color="#000000"
                   style="-inkscape-stroke:none" />
              </g>
            </g>
          </g>
        </g>
      </g>
    </g>
  </g>
</svg>
