<?xml version="1.0" encoding="UTF-8" standalone="no"?>
<!-- Created with Inkscape (http://www.inkscape.org/) -->

<svg
   xmlns:dc="http://purl.org/dc/elements/1.1/"
   xmlns:cc="http://creativecommons.org/ns#"
   xmlns:rdf="http://www.w3.org/1999/02/22-rdf-syntax-ns#"
   xmlns:svg="http://www.w3.org/2000/svg"
   xmlns="http://www.w3.org/2000/svg"
   xmlns:sodipodi="http://sodipodi.sourceforge.net/DTD/sodipodi-0.dtd"
   xmlns:inkscape="http://www.inkscape.org/namespaces/inkscape"
   width="48"
   height="48"
   viewBox="0 0 12.7 12.7"
   version="1.1"
   id="svg1217"
   inkscape:version="0.92.5 (2060ec1f9f, 2020-04-08)"
   sodipodi:docname="stitching_modeRefine.svg"
   inkscape:export-filename="/media/payno/830add5c-f5d7-4db2-875e-03be4f0a67f0/dev/tomography/tomwer/tomwer/resources/gui/icons/stitching_modeRefine.png"
   inkscape:export-xdpi="271.67999"
   inkscape:export-ydpi="271.67999">
  <defs
     id="defs1211" />
  <sodipodi:namedview
     id="base"
     pagecolor="#ffffff"
     bordercolor="#666666"
     borderopacity="1.0"
     inkscape:pageopacity="0.0"
     inkscape:pageshadow="2"
     inkscape:zoom="1.4"
     inkscape:cx="99.110052"
     inkscape:cy="277.63781"
     inkscape:document-units="mm"
     inkscape:current-layer="layer1"
     showgrid="false"
     units="px"
     inkscape:window-width="1848"
     inkscape:window-height="1136"
     inkscape:window-x="72"
     inkscape:window-y="27"
     inkscape:window-maximized="1" />
  <metadata
     id="metadata1214">
    <rdf:RDF>
      <cc:Work
         rdf:about="">
        <dc:format>image/svg+xml</dc:format>
        <dc:type
           rdf:resource="http://purl.org/dc/dcmitype/StillImage" />
        <dc:title></dc:title>
      </cc:Work>
    </rdf:RDF>
  </metadata>
  <g
     inkscape:label="Layer 1"
     inkscape:groupmode="layer"
     id="layer1"
     transform="translate(0,-284.3)">
    <rect
       style="opacity:1;fill:none;fill-opacity:1;fill-rule:evenodd;stroke:#000000;stroke-width:0.30000001;stroke-linecap:butt;stroke-linejoin:round;stroke-miterlimit:4;stroke-dasharray:none;stroke-dashoffset:0;stroke-opacity:1;paint-order:normal"
       id="rect815"
       width="11.325546"
       height="11.091685"
       x="0.72668272"
       y="285.10406" />
    <path
       style="fill:none;stroke:#000000;stroke-width:0.5;stroke-linecap:butt;stroke-linejoin:miter;stroke-miterlimit:4;stroke-dasharray:none;stroke-opacity:1"
       d="M 0.72668263,285.10412 12.052224,296.1958"
       id="path817"
       inkscape:connector-curvature="0"
       sodipodi:nodetypes="cc" />
    <path
       style="fill:#3cb30f;fill-opacity:1;stroke:#000000;stroke-width:0.40000001;stroke-linecap:butt;stroke-linejoin:miter;stroke-miterlimit:4;stroke-dasharray:none;stroke-opacity:1"
       d="M 0.72668263,296.1958 6.3727491,290.70007"
       id="path819"
       inkscape:connector-curvature="0" />
    <path
       style="fill:#3cb30f;fill-opacity:1;stroke:#000000;stroke-width:0.40000001;stroke-linecap:butt;stroke-linejoin:miter;stroke-miterlimit:4;stroke-dasharray:none;stroke-opacity:1"
       d="m 3.4160819,296.1958 4.4099446,-4.29302"
       id="path821"
       inkscape:connector-curvature="0"
       sodipodi:nodetypes="cc" />
    <path
       style="fill:none;stroke:#000000;stroke-width:0.37988845;stroke-linecap:butt;stroke-linejoin:miter;stroke-miterlimit:4;stroke-dasharray:none;stroke-opacity:1"
       d="m 9.0355966,293.08143 -3.1875402,3.10505"
       id="path823"
       inkscape:connector-curvature="0"
       sodipodi:nodetypes="cc" />
    <path
       style="fill:none;stroke:#000000;stroke-width:0.40000001;stroke-linecap:butt;stroke-linejoin:miter;stroke-miterlimit:4;stroke-dasharray:none;stroke-opacity:1"
       d="m 10.342649,294.1599 -1.9878148,2.00452"
       id="path825"
       inkscape:connector-curvature="0"
       sodipodi:nodetypes="cc" />
    <path
       style="fill:#3cb30f;fill-opacity:1;stroke:#000000;stroke-width:0.40000001;stroke-linecap:butt;stroke-linejoin:miter;stroke-miterlimit:4;stroke-dasharray:none;stroke-opacity:1"
       d="M 0.70997833,293.79873 5.236855,289.4723"
       id="path821-3"
       inkscape:connector-curvature="0"
       sodipodi:nodetypes="cc" />
    <path
       style="fill:#3cb30f;fill-opacity:1;stroke:#000000;stroke-width:0.40000001;stroke-linecap:butt;stroke-linejoin:miter;stroke-miterlimit:4;stroke-dasharray:none;stroke-opacity:1"
       d="m 4.1510726,288.1276 -3.44109437,3.14042"
       id="path823-6"
       inkscape:connector-curvature="0"
       sodipodi:nodetypes="cc" />
    <path
       style="fill:#3cb30f;fill-opacity:1;stroke:#000000;stroke-width:0.40000001;stroke-linecap:butt;stroke-linejoin:miter;stroke-miterlimit:4;stroke-dasharray:none;stroke-opacity:1"
       d="m 2.9741542,286.97337 -2.24341827,2.10691"
       id="path825-7"
       inkscape:connector-curvature="0"
       sodipodi:nodetypes="cc" />
    <path
       style="opacity:1;fill:none;fill-opacity:1;fill-rule:evenodd;stroke:#000000;stroke-width:0.071;stroke-linecap:butt;stroke-linejoin:round;stroke-miterlimit:4;stroke-dasharray:none;stroke-dashoffset:0;stroke-opacity:1;paint-order:normal"
       d="m 7.6308305,294.75766 1.2734644,-1.24915 0.4329497,0.41302 c 0.2381217,0.22717 0.4357797,0.43452 0.4392387,0.46079 0.0035,0.0263 -0.3500617,0.40366 -0.7856037,0.83864 l -0.7918934,0.79086 -0.9208094,-0.003 -0.9208107,-0.003 z"
       id="path831"
       inkscape:connector-curvature="0" />
    <path
       style="opacity:0.57999998;fill:#3cb30f;fill-opacity:1;fill-rule:evenodd;stroke:#000000;stroke-width:0.00633928;stroke-linecap:butt;stroke-linejoin:round;stroke-miterlimit:4;stroke-dasharray:none;stroke-dashoffset:0;stroke-opacity:1;paint-order:normal"
       d="m 0.89555643,287.13113 v -1.49326 l 0.77957587,0.76172 c 0.4287667,0.41894 0.7795758,0.76381 0.7795758,0.76637 0,0.007 -1.3639828,1.28732 -1.47056357,1.38076 l -0.088588,0.0777 z"
       id="path833"
       inkscape:connector-curvature="0" />
    <path
       style="opacity:0.57999998;fill:#3cb30f;fill-opacity:1;fill-rule:evenodd;stroke:#000000;stroke-width:0.00633928;stroke-linecap:butt;stroke-linejoin:round;stroke-miterlimit:4;stroke-dasharray:none;stroke-dashoffset:0;stroke-opacity:1;paint-order:normal"
       d="m 0.89555643,290.00614 v -0.78905 l 0.92079347,-0.86577 c 0.5064365,-0.47617 0.9320343,-0.86576 0.9457723,-0.86576 0.02858,0 0.8501377,0.80062 0.8501377,0.82847 0,0.0183 -2.62668847,2.42663 -2.68552027,2.46228 -0.025583,0.0155 -0.031183,-0.12281 -0.0311832,-0.77017 z"
       id="path835"
       inkscape:connector-curvature="0" />
    <path
       style="opacity:0.57999998;fill:#3cb30f;fill-opacity:1;fill-rule:evenodd;stroke:#000000;stroke-width:0.00633928;stroke-linecap:butt;stroke-linejoin:round;stroke-miterlimit:4;stroke-dasharray:none;stroke-dashoffset:0;stroke-opacity:1;paint-order:normal"
       d="m 0.89555643,292.35672 v -0.97059 l 1.51507957,-1.38279 1.5150796,-1.38279 0.08541,0.0687 c 0.04698,0.0378 0.2587947,0.24296 0.4707057,0.4559 l 0.3852937,0.38716 -1.7789738,1.69922 c -0.9784356,0.93457 -1.8720395,1.78844 -1.9857861,1.89748 l -0.20681197,0.19826 z"
       id="path837"
       inkscape:connector-curvature="0" />
    <path
       style="opacity:0.57999998;fill:#3cb30f;fill-opacity:1;fill-rule:evenodd;stroke:#000000;stroke-width:0.00633928;stroke-linecap:butt;stroke-linejoin:round;stroke-miterlimit:4;stroke-dasharray:none;stroke-dashoffset:0;stroke-opacity:1;paint-order:normal"
       d="m 0.89555643,294.82821 v -0.91315 l 2.14179477,-2.0472 2.1417938,-2.04719 0.4404307,0.43997 0.4404317,0.43997 -0.4502047,0.44367 c -0.247612,0.24401 -1.2581274,1.2285 -2.2455898,2.18774 -0.9874623,0.95925 -1.9468722,1.89377 -2.1320215,2.07672 l -0.33663497,0.33262 z"
       id="path839"
       inkscape:connector-curvature="0" />
    <path
       style="opacity:0.57999998;fill:#b3320f;fill-opacity:1;fill-rule:evenodd;stroke:#000000;stroke-width:0.0089651;stroke-linecap:butt;stroke-linejoin:round;stroke-miterlimit:4;stroke-dasharray:none;stroke-dashoffset:0;stroke-opacity:1;paint-order:normal"
       d="m 1.603175,295.64813 c 0.2204036,-0.21892 1.3848152,-1.35444 2.5875793,-2.52338 l 2.1868458,-2.12534 0.5109257,0.51012 0.5109247,0.51013 -0.1754157,0.17088 c -0.09648,0.094 -1.0273654,0.99995 -2.0686378,2.01326 l -1.8932211,1.84238 H 2.2323085 1.2024412 Z"
       id="path857"
       inkscape:connector-curvature="0" />
    <path
       style="opacity:0.57999998;fill:#b3320f;fill-opacity:1;fill-rule:evenodd;stroke:#000000;stroke-width:0.0089651;stroke-linecap:butt;stroke-linejoin:round;stroke-miterlimit:4;stroke-dasharray:none;stroke-dashoffset:0;stroke-opacity:1;paint-order:normal"
       d="m 4.1465026,295.78562 c 0.1494387,-0.1415 1.0038664,-0.97139 1.8987258,-1.84419 0.8948604,-0.8728 1.6401941,-1.59172 1.6562971,-1.5976 0.03486,-0.0127 0.9065094,0.83022 0.8931304,0.86372 -0.0051,0.0127 -0.6587307,0.65662 -1.4525561,1.43088 l -1.4433171,1.40775 -0.9119937,-0.002 -0.9119944,-0.002 z"
       id="path859"
       inkscape:connector-curvature="0" />
    <path
       style="opacity:0.57999998;fill:#b3320f;fill-opacity:1;fill-rule:evenodd;stroke:#000000;stroke-width:0.0089651;stroke-linecap:butt;stroke-linejoin:round;stroke-miterlimit:4;stroke-dasharray:none;stroke-dashoffset:0;stroke-opacity:1;paint-order:normal"
       d="m 7.4281535,295.03432 c 0.5078717,-0.5014 1.0472854,-1.03005 1.1986974,-1.17478 l 0.275294,-0.26315 0.0755,0.0625 c 0.161583,0.13383 0.7269674,0.70046 0.7269674,0.72857 0,0.0163 -0.3410344,0.37368 -0.7578534,0.79408 l -0.7578524,0.76438 H 7.3468298 6.5047531 Z"
       id="path861"
       inkscape:connector-curvature="0" />
    <path
       style="opacity:0.57999998;fill:#b3320f;fill-opacity:1;fill-rule:evenodd;stroke:#000000;stroke-width:0.0089651;stroke-linecap:butt;stroke-linejoin:round;stroke-miterlimit:4;stroke-dasharray:none;stroke-dashoffset:0;stroke-opacity:1;paint-order:normal"
       d="m 9.4489356,295.37647 c 0.3593927,-0.36833 0.6590684,-0.67277 0.6659464,-0.67652 0.0069,-0.004 0.326854,0.29761 0.711058,0.6697 l 0.698553,0.67653 H 10.159994 8.7954949 Z"
       id="path863"
       inkscape:connector-curvature="0"
       inkscape:export-xdpi="271.67999"
       inkscape:export-ydpi="271.67999" />
    <path
       sodipodi:type="star"
       style="opacity:1;fill:#fffd6c;fill-opacity:1;fill-rule:evenodd;stroke:#000000;stroke-width:0.10041185;stroke-linecap:butt;stroke-linejoin:round;stroke-miterlimit:4;stroke-dasharray:none;stroke-dashoffset:0;stroke-opacity:1;paint-order:normal"
       id="path1762"
       sodipodi:sides="5"
       sodipodi:cx="3.4544263"
       sodipodi:cy="288.3696"
       sodipodi:r1="3.1127505"
       sodipodi:r2="1.5563753"
       sodipodi:arg1="1.3544557"
       sodipodi:arg2="1.9827742"
       inkscape:flatsided="false"
       inkscape:rounded="0"
       inkscape:randomized="0"
       d="m 4.1226,291.40979 -1.2913814,-1.61404 -2.06170851,0.14879 1.13598111,-1.72694 -0.7786081,-1.91482 1.9934563,0.54672 1.5805023,-1.33221 0.096043,2.06484 1.7554121,1.09147 -1.9340986,0.72941 z"
       inkscape:transform-center-x="-0.20197647"
       inkscape:transform-center-y="0.095235222"
       transform="matrix(0.97820318,0,0,1.0139138,0.14281921,-3.9726432)" />
    <path
       sodipodi:type="star"
       style="opacity:1;fill:#fffd6c;fill-opacity:1;fill-rule:evenodd;stroke:#000000;stroke-width:0.1;stroke-linecap:butt;stroke-linejoin:round;stroke-miterlimit:4;stroke-dasharray:none;stroke-dashoffset:0;stroke-opacity:1;paint-order:normal"
       id="path1764"
       sodipodi:sides="5"
       sodipodi:cx="8.1738416"
       sodipodi:cy="292.99752"
       sodipodi:r1="2.4947143"
       sodipodi:r2="1.2473572"
       sodipodi:arg1="-0.35563588"
       sodipodi:arg2="0.27268265"
       inkscape:flatsided="false"
       inkscape:rounded="0"
       inkscape:randomized="0"
       d="m 10.51245,292.1289 -1.1373388,1.20456 0.3475123,1.6198 -1.4970607,-0.70945 -1.4331296,0.83105 0.2121041,-1.64302 -1.2332351,-1.10618 1.6281482,-0.306 0.6709484,-1.5147 0.7941469,1.4539 z"
       inkscape:transform-center-x="0.031965656"
       inkscape:transform-center-y="-0.20761821" />
    <path
       sodipodi:type="star"
       style="opacity:1;fill:#fffd6c;fill-opacity:1;fill-rule:evenodd;stroke:#000000;stroke-width:0.16351581;stroke-linecap:butt;stroke-linejoin:round;stroke-miterlimit:4;stroke-dasharray:none;stroke-dashoffset:0;stroke-opacity:1;paint-order:normal"
       id="path1764-2"
       sodipodi:sides="5"
       sodipodi:cx="9.1978884"
       sodipodi:cy="298.48328"
       sodipodi:r1="2.4947143"
       sodipodi:r2="1.2473572"
       sodipodi:arg1="-0.35563588"
       sodipodi:arg2="0.27268265"
       inkscape:flatsided="false"
       inkscape:rounded="0"
       inkscape:randomized="0"
       d="m 11.536497,297.61465 -1.137339,1.20456 0.347512,1.61979 -1.4970603,-0.70944 -1.4331296,0.83105 0.2121041,-1.64302 -1.2332351,-1.10618 1.6281482,-0.306 0.6709484,-1.5147 0.7941469,1.4539 z"
       inkscape:transform-center-x="-0.022437599"
       inkscape:transform-center-y="0.10991453"
       transform="matrix(0.49484075,-0.37572432,0.36401716,0.47942206,-103.54627,148.94147)" />
  </g>
</svg>
