<svg style="background-color: white" xmlns="http://www.w3.org/2000/svg" xmlns:xlink="http://www.w3.org/1999/xlink" contentStyleType="text/css" data-diagram-type="CLASS" height="741px" preserveAspectRatio="none" style="width:1404px;height:741px;background:#FFFFFF;" version="1.1" viewBox="0 0 1404 741" width="1404px" zoomAndPan="magnify"><defs/><g><path d="M683.37,231.19 L708.6376,231.19 A3.75,3.75 0 0 1 711.1376,233.69 L718.1376,253.4869 L722.6376,253.4869 A2.5,2.5 0 0 1 725.1376,255.9869 L725.1376,281.2837 A2.5,2.5 0 0 1 722.6376,283.7837 L683.37,283.7837 A2.5,2.5 0 0 1 680.87,281.2837 L680.87,233.69 A2.5,2.5 0 0 1 683.37,231.19" fill="#F1F1F1" style="stroke:#181818;stroke-width:0.5;"/><line style="stroke:#181818;stroke-width:0.5;" x1="680.87" x2="718.1376" y1="253.4869" y2="253.4869"/><text fill="#000000" font-family="sans-serif" font-size="14" font-weight="bold" lengthAdjust="spacing" textLength="24.2676" x="684.87" y="246.1851">api</text><path d="M191.94,231.19 L290.0582,231.19 A3.75,3.75 0 0 1 292.5582,233.69 L299.5582,253.4869 L304.0582,253.4869 A2.5,2.5 0 0 1 306.5582,255.9869 L306.5582,281.2837 A2.5,2.5 0 0 1 304.0582,283.7837 L191.94,283.7837 A2.5,2.5 0 0 1 189.44,281.2837 L189.44,233.69 A2.5,2.5 0 0 1 191.94,231.19" fill="#F1F1F1" style="stroke:#181818;stroke-width:0.5;"/><line style="stroke:#181818;stroke-width:0.5;" x1="189.44" x2="299.5582" y1="253.4869" y2="253.4869"/><text fill="#000000" font-family="sans-serif" font-size="14" font-weight="bold" lengthAdjust="spacing" textLength="97.1182" x="193.44" y="246.1851">api.api_keys</text><path d="M1091.76,6 L1140.2424,6 A3.75,3.75 0 0 1 1142.7424,8.5 L1149.7424,28.2969 L1154.2424,28.2969 A2.5,2.5 0 0 1 1156.7424,30.7969 L1156.7424,56.0938 A2.5,2.5 0 0 1 1154.2424,58.5938 L1091.76,58.5938 A2.5,2.5 0 0 1 1089.26,56.0938 L1089.26,8.5 A2.5,2.5 0 0 1 1091.76,6" fill="#F1F1F1" style="stroke:#181818;stroke-width:0.5;"/><line style="stroke:#181818;stroke-width:0.5;" x1="1089.26" x2="1149.7424" y1="28.2969" y2="28.2969"/><text fill="#000000" font-family="sans-serif" font-size="14" font-weight="bold" lengthAdjust="spacing" textLength="47.4824" x="1093.26" y="20.9951">api.cli</text><path d="M944.7,6 L1037.3016,6 A3.75,3.75 0 0 1 1039.8016,8.5 L1046.8016,28.2969 L1051.3016,28.2969 A2.5,2.5 0 0 1 1053.8016,30.7969 L1053.8016,56.0938 A2.5,2.5 0 0 1 1051.3016,58.5938 L944.7,58.5938 A2.5,2.5 0 0 1 942.2,56.0938 L942.2,8.5 A2.5,2.5 0 0 1 944.7,6" fill="#F1F1F1" style="stroke:#181818;stroke-width:0.5;"/><line style="stroke:#181818;stroke-width:0.5;" x1="942.2" x2="1046.8016" y1="28.2969" y2="28.2969"/><text fill="#000000" font-family="sans-serif" font-size="14" font-weight="bold" lengthAdjust="spacing" textLength="52.8008" x="946.2" y="20.9951">api.cli.</text><text fill="#000000" font-family="sans-serif" font-size="14" font-weight="bold" lengthAdjust="spacing" text-decoration="underline" textLength="38.8008" x="999.0008" y="20.9951">main</text><path d="M938,231.19 L1044,231.19 A3.75,3.75 0 0 1 1046.5,233.69 L1053.5,253.4869 L1058,253.4869 A2.5,2.5 0 0 1 1060.5,255.9869 L1060.5,281.2837 A2.5,2.5 0 0 1 1058,283.7837 L938,283.7837 A2.5,2.5 0 0 1 935.5,281.2837 L935.5,233.69 A2.5,2.5 0 0 1 938,231.19" fill="#F1F1F1" style="stroke:#181818;stroke-width:0.5;"/><line style="stroke:#181818;stroke-width:0.5;" x1="935.5" x2="1053.5" y1="253.4869" y2="253.4869"/><text fill="#000000" font-family="sans-serif" font-size="14" font-weight="bold" lengthAdjust="spacing" textLength="105" x="939.5" y="246.1851">api.cli.apikey</text><path d="M949.35,118.6 L1032.641,118.6 A3.75,3.75 0 0 1 1035.141,121.1 L1042.141,140.8969 L1046.641,140.8969 A2.5,2.5 0 0 1 1049.141,143.3969 L1049.141,168.6938 A2.5,2.5 0 0 1 1046.641,171.1938 L949.35,171.1938 A2.5,2.5 0 0 1 946.85,168.6938 L946.85,121.1 A2.5,2.5 0 0 1 949.35,118.6" fill="#F1F1F1" style="stroke:#181818;stroke-width:0.5;"/><line style="stroke:#181818;stroke-width:0.5;" x1="946.85" x2="1042.141" y1="140.8969" y2="140.8969"/><text fill="#000000" font-family="sans-serif" font-size="14" font-weight="bold" lengthAdjust="spacing" textLength="82.291" x="950.85" y="133.5951">api.cli.app</text><path d="M949.08,343.78 L1022.9238,343.78 A3.75,3.75 0 0 1 1025.4238,346.28 L1032.4238,366.0769 L1036.9238,366.0769 A2.5,2.5 0 0 1 1039.4238,368.5769 L1039.4238,393.8738 A2.5,2.5 0 0 1 1036.9238,396.3738 L949.08,396.3738 A2.5,2.5 0 0 1 946.58,393.8738 L946.58,346.28 A2.5,2.5 0 0 1 949.08,343.78" fill="#F1F1F1" style="stroke:#181818;stroke-width:0.5;"/><line style="stroke:#181818;stroke-width:0.5;" x1="946.58" x2="1032.4238" y1="366.0769" y2="366.0769"/><text fill="#000000" font-family="sans-serif" font-size="14" font-weight="bold" lengthAdjust="spacing" textLength="72.8438" x="950.58" y="358.7751">api.cli.db</text><path d="M1097.81,231.19 L1180.1987,231.19 A3.75,3.75 0 0 1 1182.6987,233.69 L1189.6987,253.4869 L1194.1987,253.4869 A2.5,2.5 0 0 1 1196.6987,255.9869 L1196.6987,281.2837 A2.5,2.5 0 0 1 1194.1987,283.7837 L1097.81,283.7837 A2.5,2.5 0 0 1 1095.31,281.2837 L1095.31,233.69 A2.5,2.5 0 0 1 1097.81,231.19" fill="#F1F1F1" style="stroke:#181818;stroke-width:0.5;"/><line style="stroke:#181818;stroke-width:0.5;" x1="1095.31" x2="1189.6987" y1="253.4869" y2="253.4869"/><text fill="#000000" font-family="sans-serif" font-size="14" font-weight="bold" lengthAdjust="spacing" textLength="81.3887" x="1099.31" y="246.1851">api.cli.env</text><path d="M1232.62,343.78 L1339.3788,343.78 A3.75,3.75 0 0 1 1341.8788,346.28 L1348.8788,366.0769 L1353.3788,366.0769 A2.5,2.5 0 0 1 1355.8788,368.5769 L1355.8788,393.8738 A2.5,2.5 0 0 1 1353.3788,396.3738 L1232.62,396.3738 A2.5,2.5 0 0 1 1230.12,393.8738 L1230.12,346.28 A2.5,2.5 0 0 1 1232.62,343.78" fill="#F1F1F1" style="stroke:#181818;stroke-width:0.5;"/><line style="stroke:#181818;stroke-width:0.5;" x1="1230.12" x2="1348.8788" y1="366.0769" y2="366.0769"/><text fill="#000000" font-family="sans-serif" font-size="14" font-weight="bold" lengthAdjust="spacing" textLength="105.7588" x="1234.12" y="358.7751">api.cli.output</text><path d="M1233.97,231.19 L1338.0286,231.19 A3.75,3.75 0 0 1 1340.5286,233.69 L1347.5286,253.4869 L1352.0286,253.4869 A2.5,2.5 0 0 1 1354.5286,255.9869 L1354.5286,281.2837 A2.5,2.5 0 0 1 1352.0286,283.7837 L1233.97,283.7837 A2.5,2.5 0 0 1 1231.47,281.2837 L1231.47,233.69 A2.5,2.5 0 0 1 1233.97,231.19" fill="#F1F1F1" style="stroke:#181818;stroke-width:0.5;"/><line style="stroke:#181818;stroke-width:0.5;" x1="1231.47" x2="1347.5286" y1="253.4869" y2="253.4869"/><text fill="#000000" font-family="sans-serif" font-size="14" font-weight="bold" lengthAdjust="spacing" textLength="103.0586" x="1235.47" y="246.1851">api.cli.server</text><path d="M817.59,6 L890.4152,6 A3.75,3.75 0 0 1 892.9152,8.5 L899.9152,28.2969 L904.4152,28.2969 A2.5,2.5 0 0 1 906.9152,30.7969 L906.9152,56.0938 A2.5,2.5 0 0 1 904.4152,58.5938 L817.59,58.5938 A2.5,2.5 0 0 1 815.09,56.0938 L815.09,8.5 A2.5,2.5 0 0 1 817.59,6" fill="#F1F1F1" style="stroke:#181818;stroke-width:0.5;"/><line style="stroke:#181818;stroke-width:0.5;" x1="815.09" x2="899.9152" y1="28.2969" y2="28.2969"/><text fill="#000000" font-family="sans-serif" font-size="14" font-weight="bold" lengthAdjust="spacing" textLength="71.8252" x="819.09" y="20.9951">api.cli.wf</text><path d="M246.31,568.97 L325.6909,568.97 A3.75,3.75 0 0 1 328.1909,571.47 L335.1909,591.2669 L339.6909,591.2669 A2.5,2.5 0 0 1 342.1909,593.7669 L342.1909,619.0637 A2.5,2.5 0 0 1 339.6909,621.5637 L246.31,621.5637 A2.5,2.5 0 0 1 243.81,619.0637 L243.81,571.47 A2.5,2.5 0 0 1 246.31,568.97" fill="#F1F1F1" style="stroke:#181818;stroke-width:0.5;"/><line style="stroke:#181818;stroke-width:0.5;" x1="243.81" x2="335.1909" y1="591.2669" y2="591.2669"/><text fill="#000000" font-family="sans-serif" font-size="14" font-weight="bold" lengthAdjust="spacing" textLength="78.3809" x="247.81" y="583.9651">api.config</text><path d="M394.69,343.78 L445.3189,343.78 A3.75,3.75 0 0 1 447.8189,346.28 L454.8189,366.0769 L459.3189,366.0769 A2.5,2.5 0 0 1 461.8189,368.5769 L461.8189,393.8738 A2.5,2.5 0 0 1 459.3189,396.3738 L394.69,396.3738 A2.5,2.5 0 0 1 392.19,393.8738 L392.19,346.28 A2.5,2.5 0 0 1 394.69,343.78" fill="#F1F1F1" style="stroke:#181818;stroke-width:0.5;"/><line style="stroke:#181818;stroke-width:0.5;" x1="392.19" x2="454.8189" y1="366.0769" y2="366.0769"/><text fill="#000000" font-family="sans-serif" font-size="14" font-weight="bold" lengthAdjust="spacing" textLength="49.6289" x="396.19" y="358.7751">api.db</text><path d="M61.76,456.38 L178.2395,456.38 A3.75,3.75 0 0 1 180.7395,458.88 L187.7395,478.6769 L192.2395,478.6769 A2.5,2.5 0 0 1 194.7395,481.1769 L194.7395,506.4738 A2.5,2.5 0 0 1 192.2395,508.9738 L61.76,508.9738 A2.5,2.5 0 0 1 59.26,506.4738 L59.26,458.88 A2.5,2.5 0 0 1 61.76,456.38" fill="#F1F1F1" style="stroke:#181818;stroke-width:0.5;"/><line style="stroke:#181818;stroke-width:0.5;" x1="59.26" x2="187.7395" y1="478.6769" y2="478.6769"/><text fill="#000000" font-family="sans-serif" font-size="14" font-weight="bold" lengthAdjust="spacing" textLength="115.4795" x="63.26" y="471.3751">api.db.apikeys</text><path d="M303.49,456.38 L416.5037,456.38 A3.75,3.75 0 0 1 419.0037,458.88 L426.0037,478.6769 L430.5037,478.6769 A2.5,2.5 0 0 1 433.0037,481.1769 L433.0037,506.4738 A2.5,2.5 0 0 1 430.5037,508.9738 L303.49,508.9738 A2.5,2.5 0 0 1 300.99,506.4738 L300.99,458.88 A2.5,2.5 0 0 1 303.49,456.38" fill="#F1F1F1" style="stroke:#181818;stroke-width:0.5;"/><line style="stroke:#181818;stroke-width:0.5;" x1="300.99" x2="426.0037" y1="478.6769" y2="478.6769"/><text fill="#000000" font-family="sans-serif" font-size="14" font-weight="bold" lengthAdjust="spacing" textLength="112.0137" x="304.99" y="471.3751">api.db.backup</text><path d="M137.38,681.57 L230.6241,681.57 A3.75,3.75 0 0 1 233.1241,684.07 L240.1241,703.8669 L244.6241,703.8669 A2.5,2.5 0 0 1 247.1241,706.3669 L247.1241,731.6637 A2.5,2.5 0 0 1 244.6241,734.1637 L137.38,734.1637 A2.5,2.5 0 0 1 134.88,731.6637 L134.88,684.07 A2.5,2.5 0 0 1 137.38,681.57" fill="#F1F1F1" style="stroke:#181818;stroke-width:0.5;"/><line style="stroke:#181818;stroke-width:0.5;" x1="134.88" x2="240.1241" y1="703.8669" y2="703.8669"/><text fill="#000000" font-family="sans-serif" font-size="14" font-weight="bold" lengthAdjust="spacing" textLength="92.2441" x="138.88" y="696.5651">api.db.base</text><path d="M541.87,456.38 L632.1337,456.38 A3.75,3.75 0 0 1 634.6337,458.88 L641.6337,478.6769 L646.1337,478.6769 A2.5,2.5 0 0 1 648.6337,481.1769 L648.6337,506.4738 A2.5,2.5 0 0 1 646.1337,508.9738 L541.87,508.9738 A2.5,2.5 0 0 1 539.37,506.4738 L539.37,458.88 A2.5,2.5 0 0 1 541.87,456.38" fill="#F1F1F1" style="stroke:#181818;stroke-width:0.5;"/><line style="stroke:#181818;stroke-width:0.5;" x1="539.37" x2="641.6337" y1="478.6769" y2="478.6769"/><text fill="#000000" font-family="sans-serif" font-size="14" font-weight="bold" lengthAdjust="spacing" textLength="89.2637" x="543.37" y="471.3751">api.db.core</text><path d="M379.96,568.97 L496.0362,568.97 A3.75,3.75 0 0 1 498.5362,571.47 L505.5362,591.2669 L510.0362,591.2669 A2.5,2.5 0 0 1 512.5362,593.7669 L512.5362,619.0637 A2.5,2.5 0 0 1 510.0362,621.5637 L379.96,621.5637 A2.5,2.5 0 0 1 377.46,619.0637 L377.46,571.47 A2.5,2.5 0 0 1 379.96,568.97" fill="#F1F1F1" style="stroke:#181818;stroke-width:0.5;"/><line style="stroke:#181818;stroke-width:0.5;" x1="377.46" x2="505.5362" y1="591.2669" y2="591.2669"/><text fill="#000000" font-family="sans-serif" font-size="14" font-weight="bold" lengthAdjust="spacing" textLength="115.0762" x="381.46" y="583.9651">api.db.schema</text><path d="M270.73,118.6 L385.2681,118.6 A3.75,3.75 0 0 1 387.7681,121.1 L394.7681,140.8969 L399.2681,140.8969 A2.5,2.5 0 0 1 401.7681,143.3969 L401.7681,168.6938 A2.5,2.5 0 0 1 399.2681,171.1938 L270.73,171.1938 A2.5,2.5 0 0 1 268.23,168.6938 L268.23,121.1 A2.5,2.5 0 0 1 270.73,118.6" fill="#F1F1F1" style="stroke:#181818;stroke-width:0.5;"/><line style="stroke:#181818;stroke-width:0.5;" x1="268.23" x2="394.7681" y1="140.8969" y2="140.8969"/><text fill="#000000" font-family="sans-serif" font-size="14" font-weight="bold" lengthAdjust="spacing" textLength="113.5381" x="272.23" y="133.5951">api.db.servers</text><path d="M1194.7,6 L1291.3006,6 A3.75,3.75 0 0 1 1293.8006,8.5 L1300.8006,28.2969 L1305.3006,28.2969 A2.5,2.5 0 0 1 1307.8006,30.7969 L1307.8006,56.0938 A2.5,2.5 0 0 1 1305.3006,58.5938 L1194.7,58.5938 A2.5,2.5 0 0 1 1192.2,56.0938 L1192.2,8.5 A2.5,2.5 0 0 1 1194.7,6" fill="#F1F1F1" style="stroke:#181818;stroke-width:0.5;"/><line style="stroke:#181818;stroke-width:0.5;" x1="1192.2" x2="1300.8006" y1="28.2969" y2="28.2969"/><text fill="#000000" font-family="sans-serif" font-size="14" font-weight="bold" lengthAdjust="spacing" textLength="95.6006" x="1196.2" y="20.9951">api.jwt_utils</text><path d="M657.28,681.57 L744.7204,681.57 A3.75,3.75 0 0 1 747.2204,684.07 L754.2204,703.8669 L758.7204,703.8669 A2.5,2.5 0 0 1 761.2204,706.3669 L761.2204,731.6637 A2.5,2.5 0 0 1 758.7204,734.1637 L657.28,734.1637 A2.5,2.5 0 0 1 654.78,731.6637 L654.78,684.07 A2.5,2.5 0 0 1 657.28,681.57" fill="#F1F1F1" style="stroke:#181818;stroke-width:0.5;"/><line style="stroke:#181818;stroke-width:0.5;" x1="654.78" x2="754.2204" y1="703.8669" y2="703.8669"/><text fill="#000000" font-family="sans-serif" font-size="14" font-weight="bold" lengthAdjust="spacing" textLength="86.4404" x="658.78" y="696.5651">api.models</text><path d="M782.6,343.78 L885.3939,343.78 A3.75,3.75 0 0 1 887.8939,346.28 L894.8939,366.0769 L899.3939,366.0769 A2.5,2.5 0 0 1 901.8939,368.5769 L901.8939,393.8738 A2.5,2.5 0 0 1 899.3939,396.3738 L782.6,396.3738 A2.5,2.5 0 0 1 780.1,393.8738 L780.1,346.28 A2.5,2.5 0 0 1 782.6,343.78" fill="#F1F1F1" style="stroke:#181818;stroke-width:0.5;"/><line style="stroke:#181818;stroke-width:0.5;" x1="780.1" x2="894.8939" y1="366.0769" y2="366.0769"/><text fill="#000000" font-family="sans-serif" font-size="14" font-weight="bold" lengthAdjust="spacing" textLength="101.7939" x="784.1" y="358.7751">api.workflow</text><path d="M923.35,681.57 L1066.6537,681.57 A3.75,3.75 0 0 1 1069.1537,684.07 L1076.1537,703.8669 L1080.6537,703.8669 A2.5,2.5 0 0 1 1083.1537,706.3669 L1083.1537,731.6637 A2.5,2.5 0 0 1 1080.6537,734.1637 L923.35,734.1637 A2.5,2.5 0 0 1 920.85,731.6637 L920.85,684.07 A2.5,2.5 0 0 1 923.35,681.57" fill="#F1F1F1" style="stroke:#181818;stroke-width:0.5;"/><line style="stroke:#181818;stroke-width:0.5;" x1="920.85" x2="1076.1537" y1="703.8669" y2="703.8669"/><text fill="#000000" font-family="sans-serif" font-size="14" font-weight="bold" lengthAdjust="spacing" textLength="142.3037" x="924.85" y="696.5651">api.workflow.crud</text><path d="M856.54,456.38 L1003.4531,456.38 A3.75,3.75 0 0 1 1005.9531,458.88 L1012.9531,478.6769 L1017.4531,478.6769 A2.5,2.5 0 0 1 1019.9531,481.1769 L1019.9531,506.4738 A2.5,2.5 0 0 1 1017.4531,508.9738 L856.54,508.9738 A2.5,2.5 0 0 1 854.04,506.4738 L854.04,458.88 A2.5,2.5 0 0 1 856.54,456.38" fill="#F1F1F1" style="stroke:#181818;stroke-width:0.5;"/><line style="stroke:#181818;stroke-width:0.5;" x1="854.04" x2="1012.9531" y1="478.6769" y2="478.6769"/><text fill="#000000" font-family="sans-serif" font-size="14" font-weight="bold" lengthAdjust="spacing" textLength="145.9131" x="858.04" y="471.3751">api.workflow.main</text><path d="M763.47,568.97 L932.5247,568.97 A3.75,3.75 0 0 1 935.0247,571.47 L942.0247,591.2669 L946.5247,591.2669 A2.5,2.5 0 0 1 949.0247,593.7669 L949.0247,619.0637 A2.5,2.5 0 0 1 946.5247,621.5637 L763.47,621.5637 A2.5,2.5 0 0 1 760.97,619.0637 L760.97,571.47 A2.5,2.5 0 0 1 763.47,568.97" fill="#F1F1F1" style="stroke:#181818;stroke-width:0.5;"/><line style="stroke:#181818;stroke-width:0.5;" x1="760.97" x2="942.0247" y1="591.2669" y2="591.2669"/><text fill="#000000" font-family="sans-serif" font-size="14" font-weight="bold" lengthAdjust="spacing" textLength="168.0547" x="764.97" y="583.9651">api.workflow.n8n_api</text><!--link api to api.db--><g class="link" data-entity-1="api" data-entity-2="api.db" data-source-line="52" data-uid="lnk27" id="link_api_api.db"><path codeLine="52" d="M680.41,267.54 C632.39,286.78 525.4095,329.6482 467.8395,352.7182" fill="none" id="api-to-api.db" style="stroke:#181818;stroke-width:1;"/><polygon fill="#181818" points="462.27,354.95,472.1121,355.3152,466.9112,353.0901,469.1363,347.8893,462.27,354.95" style="stroke:#181818;stroke-width:1;"/></g><!--link api to api.models--><g class="link" data-entity-1="api" data-entity-2="api.models" data-source-line="53" data-uid="lnk28" id="link_api_api.models"><path codeLine="53" d="M703.29,284.21 C704.17,363.29 706.7631,596.3104 707.6431,675.2504" fill="none" id="api-to-api.models" style="stroke:#181818;stroke-width:1;"/><polygon fill="#181818" points="707.71,681.25,711.6094,672.206,707.6543,676.2503,703.6099,672.2951,707.71,681.25" style="stroke:#181818;stroke-width:1;"/></g><!--link api to api.workflow--><g class="link" data-entity-1="api" data-entity-2="api.workflow" data-source-line="54" data-uid="lnk29" id="link_api_api.workflow"><path codeLine="54" d="M725.48,276.5 C748.16,294.68 778.7175,319.1685 804.3175,339.6785" fill="none" id="api-to-api.workflow" style="stroke:#181818;stroke-width:1;"/><polygon fill="#181818" points="809,343.43,804.4772,334.681,805.0979,340.3037,799.4752,340.9244,809,343.43" style="stroke:#181818;stroke-width:1;"/></g><!--link api.api_keys to api.config--><g class="link" data-entity-1="api.api_keys" data-entity-2="api.config" data-source-line="55" data-uid="lnk30" id="link_api.api_keys_api.config"><path codeLine="55" d="M251.46,284.28 C259.85,346.93 280.4535,500.6331 288.7935,562.9031" fill="none" id="api.api_keys-to-api.config" style="stroke:#181818;stroke-width:1;"/><polygon fill="#181818" points="289.59,568.85,292.3599,559.3987,288.9263,563.8943,284.4307,560.4606,289.59,568.85" style="stroke:#181818;stroke-width:1;"/></g><!--link api.api_keys to api.db--><g class="link" data-entity-1="api.api_keys" data-entity-2="api.db" data-source-line="56" data-uid="lnk31" id="link_api.api_keys_api.db"><path codeLine="56" d="M289.52,284.14 C320.5,303.28 357.2764,325.995 386.6364,344.145" fill="none" id="api.api_keys-to-api.db" style="stroke:#181818;stroke-width:1;"/><polygon fill="#181818" points="391.74,347.3,386.188,339.1652,387.487,344.6709,381.9814,345.9699,391.74,347.3" style="stroke:#181818;stroke-width:1;"/></g><!--link api.api_keys to api.db.apikeys--><g class="link" data-entity-1="api.api_keys" data-entity-2="api.db.apikeys" data-source-line="57" data-uid="lnk32" id="link_api.api_keys_api.db.apikeys"><path codeLine="57" d="M234.12,284.09 C210.84,327.03 167.06,407.7855 143.76,450.7555" fill="none" id="api.api_keys-to-api.db.apikeys" style="stroke:#181818;stroke-width:1;"/><polygon fill="#181818" points="140.9,456.03,148.7064,450.025,143.2834,451.6346,141.6737,446.2116,140.9,456.03" style="stroke:#181818;stroke-width:1;"/></g><!--link api.cli to api.cli.app--><g class="link" data-entity-1="api.cli" data-entity-2="api.cli.app" data-source-line="58" data-uid="lnk33" id="link_api.cli_api.cli.app"><path codeLine="58" d="M1094.01,58.95 C1073.81,76.82 1051.4844,96.575 1031.3244,114.405" fill="none" id="api.cli-to-api.cli.app" style="stroke:#181818;stroke-width:1;"/><polygon fill="#181818" points="1026.83,118.38,1036.2216,115.4138,1030.5753,115.0675,1030.9216,109.4213,1026.83,118.38" style="stroke:#181818;stroke-width:1;"/></g><!--link api.cli.__main__ to api.cli.app--><g class="link" data-entity-1="api.cli.__main__" data-entity-2="api.cli.app" data-source-line="59" data-uid="lnk34" id="link_api.cli.__main___api.cli.app"><path codeLine="59" d="M998,58.95 C998,76.82 998,94.55 998,112.38" fill="none" id="api.cli.__main__-to-api.cli.app" style="stroke:#181818;stroke-width:1;"/><polygon fill="#181818" points="998,118.38,1002,109.38,998,113.38,994,109.38,998,118.38" style="stroke:#181818;stroke-width:1;"/></g><!--link api.cli.apikey to api.cli.app--><g class="link" data-entity-1="api.cli.apikey" data-entity-2="api.cli.app" data-source-line="60" data-uid="lnk35" id="link_api.cli.apikey_api.cli.app"><path codeLine="60" d="M1009.58,230.98 C1012.13,213.14 1012.9843,195.3503 1010.4443,177.4803" fill="none" id="api.cli.apikey-to-api.cli.app" style="stroke:#181818;stroke-width:1;"/><polygon fill="#181818" points="1009.6,171.54,1006.9063,181.0133,1010.3036,176.4902,1014.8267,179.8875,1009.6,171.54" style="stroke:#181818;stroke-width:1;"/></g><!--link api.cli.app to api.cli.apikey--><g class="link" data-entity-1="api.cli.app" data-entity-2="api.cli.apikey" data-source-line="65" data-uid="lnk40" id="link_api.cli.app_api.cli.apikey"><path codeLine="65" d="M987.04,171.54 C984.65,189.41 983.8468,207.194 986.2568,225.034" fill="none" id="api.cli.app-to-api.cli.apikey" style="stroke:#181818;stroke-width:1;"/><polygon fill="#181818" points="987.06,230.98,989.8191,221.5255,986.3906,226.025,981.8911,222.5965,987.06,230.98" style="stroke:#181818;stroke-width:1;"/></g><!--link api.cli.apikey to api.cli.db--><g class="link" data-entity-1="api.cli.apikey" data-entity-2="api.cli.db" data-source-line="61" data-uid="lnk36" id="link_api.cli.apikey_api.cli.db"><path codeLine="61" d="M985.88,284.14 C982.68,302.01 981.0707,319.7543 982.6807,337.5943" fill="none" id="api.cli.apikey-to-api.cli.db" style="stroke:#181818;stroke-width:1;"/><polygon fill="#181818" points="983.22,343.57,986.3949,334.2469,982.7706,338.5902,978.4273,334.966,983.22,343.57" style="stroke:#181818;stroke-width:1;"/></g><!--link api.cli.apikey to api.cli.db--><g class="link" data-entity-1="api.cli.apikey" data-entity-2="api.cli.db" data-source-line="62" data-uid="lnk37" id="link_api.cli.apikey_api.cli.db"><path codeLine="62" d="M1008.44,284.14 C1010.17,302.01 1010.1973,319.8331 1006.8473,337.6731" fill="none" id="api.cli.apikey-to-api.cli.db-1" style="stroke:#181818;stroke-width:1;"/><polygon fill="#181818" points="1005.74,343.57,1011.3323,335.4628,1006.6628,338.6559,1003.4697,333.9864,1005.74,343.57" style="stroke:#181818;stroke-width:1;"/></g><!--link api.cli.apikey to api.cli.output--><g class="link" data-entity-1="api.cli.apikey" data-entity-2="api.cli.output" data-source-line="63" data-uid="lnk38" id="link_api.cli.apikey_api.cli.output"><path codeLine="63" d="M1060.92,282.08 C1110.67,300.73 1174.1917,324.544 1224.0517,343.234" fill="none" id="api.cli.apikey-to-api.cli.output" style="stroke:#181818;stroke-width:1;"/><polygon fill="#181818" points="1229.67,345.34,1222.6466,338.4355,1224.9881,343.585,1219.8386,345.9265,1229.67,345.34" style="stroke:#181818;stroke-width:1;"/></g><!--link api.cli.app to api--><g class="link" data-entity-1="api.cli.app" data-entity-2="api" data-source-line="64" data-uid="lnk39" id="link_api.cli.app_api"><path codeLine="64" d="M946.61,165.16 C881.57,189.54 777.988,228.3733 731.108,245.9533" fill="none" id="api.cli.app-to-api" style="stroke:#181818;stroke-width:1;"/><polygon fill="#181818" points="725.49,248.06,735.3215,248.6452,730.1716,246.3044,732.5125,241.1546,725.49,248.06" style="stroke:#181818;stroke-width:1;"/></g><!--link api.cli.app to api.cli.db--><g class="link" data-entity-1="api.cli.app" data-entity-2="api.cli.db" data-source-line="66" data-uid="lnk41" id="link_api.cli.app_api.cli.db"><path codeLine="66" d="M948.91,171.5 C929.63,186.7 910.34,207.59 901,231.19 C892.4,252.93 892.75,261.91 901,283.78 C909.77,307.03 923.4681,324.21 941.8281,339.57" fill="none" id="api.cli.app-to-api.cli.db" style="stroke:#181818;stroke-width:1;"/><polygon fill="#181818" points="946.43,343.42,942.0938,334.5771,942.5951,340.2117,936.9605,340.713,946.43,343.42" style="stroke:#181818;stroke-width:1;"/></g><!--link api.cli.db to api.cli.app--><g class="link" data-entity-1="api.cli.db" data-entity-2="api.cli.app" data-source-line="70" data-uid="lnk45" id="link_api.cli.db_api.cli.app"><path codeLine="70" d="M977.26,343.42 C963.07,328.06 944.77,307.03 936,283.78 C927.75,261.91 927.4,252.93 936,231.19 C945.34,207.59 960.3874,190.9426 975.5874,175.7426" fill="none" id="api.cli.db-to-api.cli.app" style="stroke:#181818;stroke-width:1;"/><polygon fill="#181818" points="979.83,171.5,970.6376,175.0355,976.2945,175.0355,976.2945,180.6924,979.83,171.5" style="stroke:#181818;stroke-width:1;"/></g><!--link api.cli.app to api.cli.env--><g class="link" data-entity-1="api.cli.app" data-entity-2="api.cli.env" data-source-line="67" data-uid="lnk42" id="link_api.cli.app_api.cli.env"><path codeLine="67" d="M1021.37,171.54 C1042.81,189.35 1069.4576,209.5974 1095.6776,227.4174" fill="none" id="api.cli.app-to-api.cli.env" style="stroke:#181818;stroke-width:1;"/><polygon fill="#181818" points="1100.64,230.79,1095.4448,222.4228,1096.5047,227.9795,1090.948,229.0393,1100.64,230.79" style="stroke:#181818;stroke-width:1;"/></g><!--link api.cli.env to api.cli.app--><g class="link" data-entity-1="api.cli.env" data-entity-2="api.cli.app" data-source-line="72" data-uid="lnk47" id="link_api.cli.env_api.cli.app"><path codeLine="72" d="M1123.44,230.98 C1102.12,213.14 1075.3517,192.7689 1048.9017,174.8989" fill="none" id="api.cli.env-to-api.cli.app" style="stroke:#181818;stroke-width:1;"/><polygon fill="#181818" points="1043.93,171.54,1049.1482,179.8929,1048.0731,174.3391,1053.6268,173.264,1043.93,171.54" style="stroke:#181818;stroke-width:1;"/></g><!--link api.cli.app to api.cli.server--><g class="link" data-entity-1="api.cli.app" data-entity-2="api.cli.server" data-source-line="68" data-uid="lnk43" id="link_api.cli.app_api.cli.server"><path codeLine="68" d="M1049.58,169.21 C1100.22,189.33 1171.3984,216.0734 1225.3184,234.9934" fill="none" id="api.cli.app-to-api.cli.server" style="stroke:#181818;stroke-width:1;"/><polygon fill="#181818" points="1230.98,236.98,1223.812,230.2257,1226.262,235.3245,1221.1632,237.7745,1230.98,236.98" style="stroke:#181818;stroke-width:1;"/></g><!--link api.cli.server to api.cli.app--><g class="link" data-entity-1="api.cli.server" data-entity-2="api.cli.app" data-source-line="73" data-uid="lnk48" id="link_api.cli.server_api.cli.app"><path codeLine="73" d="M1235.92,230.73 C1181.78,209.3 1107.3034,181.4427 1055.0634,163.4627" fill="none" id="api.cli.server-to-api.cli.app" style="stroke:#181818;stroke-width:1;"/><polygon fill="#181818" points="1049.39,161.51,1056.5983,168.2212,1054.1178,163.1372,1059.2018,160.6568,1049.39,161.51" style="stroke:#181818;stroke-width:1;"/></g><!--link api.cli.app to api.cli.wf--><g class="link" data-entity-1="api.cli.app" data-entity-2="api.cli.wf" data-source-line="69" data-uid="lnk44" id="link_api.cli.app_api.cli.wf"><path codeLine="69" d="M977.98,118.38 C958.44,100.55 933.9091,80.3398 909.2391,62.4698" fill="none" id="api.cli.app-to-api.cli.wf" style="stroke:#181818;stroke-width:1;"/><polygon fill="#181818" points="904.38,58.95,909.3222,67.4691,908.4293,61.8831,914.0152,60.9902,904.38,58.95" style="stroke:#181818;stroke-width:1;"/></g><!--link api.cli.wf to api.cli.app--><g class="link" data-entity-1="api.cli.wf" data-entity-2="api.cli.app" data-source-line="76" data-uid="lnk51" id="link_api.cli.wf_api.cli.app"><path codeLine="76" d="M881.82,58.95 C901.48,76.75 925.9002,96.8473 950.3502,114.6573" fill="none" id="api.cli.wf-to-api.cli.app" style="stroke:#181818;stroke-width:1;"/><polygon fill="#181818" points="955.2,118.19,950.2805,109.6578,951.1585,115.2461,945.5702,116.1241,955.2,118.19" style="stroke:#181818;stroke-width:1;"/></g><!--link api.cli.db to api.cli.db--><g class="link" data-entity-1="api.cli.db" data-entity-2="api.cli.db" data-source-line="71" data-uid="lnk46" id="link_api.cli.db_api.cli.db"><path codeLine="71" d="M1039.86,349.1 C1058.65,347.91 1074.42,354.91 1074.42,370.08 C1074.42,385.26 1064.638,392.6292 1045.848,391.4392" fill="none" id="api.cli.db-to-api.cli.db" style="stroke:#181818;stroke-width:1;"/><polygon fill="#181818" points="1039.86,391.06,1048.5892,395.6208,1044.85,391.376,1049.0948,387.6368,1039.86,391.06" style="stroke:#181818;stroke-width:1;"/></g><!--link api.cli.server to api.cli.db--><g class="link" data-entity-1="api.cli.server" data-entity-2="api.cli.db" data-source-line="74" data-uid="lnk49" id="link_api.cli.server_api.cli.db"><path codeLine="74" d="M1231.2,281.27 C1174.26,302.26 1096.6395,330.8742 1045.1395,349.8642" fill="none" id="api.cli.server-to-api.cli.db" style="stroke:#181818;stroke-width:1;"/><polygon fill="#181818" points="1039.51,351.94,1049.3381,352.5793,1044.2012,350.2102,1046.5704,345.0733,1039.51,351.94" style="stroke:#181818;stroke-width:1;"/></g><!--link api.cli.server to api.cli.output--><g class="link" data-entity-1="api.cli.server" data-entity-2="api.cli.output" data-source-line="75" data-uid="lnk50" id="link_api.cli.server_api.cli.output"><path codeLine="75" d="M1293,284.14 C1293,302.01 1293,319.73 1293,337.57" fill="none" id="api.cli.server-to-api.cli.output" style="stroke:#181818;stroke-width:1;"/><polygon fill="#181818" points="1293,343.57,1297,334.57,1293,338.57,1289,334.57,1293,343.57" style="stroke:#181818;stroke-width:1;"/></g><!--link api.cli.wf to api.cli.db--><g class="link" data-entity-1="api.cli.wf" data-entity-2="api.cli.db" data-source-line="77" data-uid="lnk52" id="link_api.cli.wf_api.cli.db"><path codeLine="77" d="M860.26,58.78 C859.96,106.02 864.36,209.17 904,283.78 C916.55,307.41 933.3989,324.5219 952.1389,339.7119" fill="none" id="api.cli.wf-to-api.cli.db" style="stroke:#181818;stroke-width:1;"/><polygon fill="#181818" points="956.8,343.49,952.3271,334.7154,952.9158,340.3416,947.2896,340.9302,956.8,343.49" style="stroke:#181818;stroke-width:1;"/></g><!--link api.cli.wf to api.cli.output--><g class="link" data-entity-1="api.cli.wf" data-entity-2="api.cli.output" data-source-line="78" data-uid="lnk53" id="link_api.cli.wf_api.cli.output"><path codeLine="78" d="M907.13,51.58 C913.14,53.95 919.21,56.34 925,58.6 C1123.36,136.09 1251.55,55.57 1372,231.19 C1397.75,268.73 1361.9792,311.1792 1330.0992,339.4492" fill="none" id="api.cli.wf-to-api.cli.output" style="stroke:#181818;stroke-width:1;"/><polygon fill="#181818" points="1325.61,343.43,1334.9977,340.4515,1329.351,340.1126,1329.6899,334.4659,1325.61,343.43" style="stroke:#181818;stroke-width:1;"/></g><!--link api.cli.wf to api.db.servers--><g class="link" data-entity-1="api.cli.wf" data-entity-2="api.db.servers" data-source-line="79" data-uid="lnk54" id="link_api.cli.wf_api.db.servers"><path codeLine="79" d="M814.78,43.02 C721.53,62.63 516.3816,105.7554 407.9516,128.5554" fill="none" id="api.cli.wf-to-api.db.servers" style="stroke:#181818;stroke-width:1;"/><polygon fill="#181818" points="402.08,129.79,411.7105,131.8524,406.973,128.7611,410.0643,124.0236,402.08,129.79" style="stroke:#181818;stroke-width:1;"/></g><!--link api.db to api.db.apikeys--><g class="link" data-entity-1="api.db" data-entity-2="api.db.apikeys" data-source-line="80" data-uid="lnk55" id="link_api.db_api.db.apikeys"><path codeLine="80" d="M391.7,384.09 C343.53,401.85 261.8496,431.9646 200.7096,454.5046" fill="none" id="api.db-to-api.db.apikeys" style="stroke:#181818;stroke-width:1;"/><polygon fill="#181818" points="195.08,456.58,204.908,457.2199,199.7713,454.8505,202.1408,449.7138,195.08,456.58" style="stroke:#181818;stroke-width:1;"/></g><!--link api.db to api.db.backup--><g class="link" data-entity-1="api.db" data-entity-2="api.db.backup" data-source-line="81" data-uid="lnk56" id="link_api.db_api.db.backup"><path codeLine="81" d="M413.08,396.73 C403.39,414.6 393.3827,433.057 383.7027,450.887" fill="none" id="api.db-to-api.db.backup" style="stroke:#181818;stroke-width:1;"/><polygon fill="#181818" points="380.84,456.16,388.6495,450.159,383.2256,451.7658,381.6188,446.342,380.84,456.16" style="stroke:#181818;stroke-width:1;"/></g><!--link api.db to api.db.core--><g class="link" data-entity-1="api.db" data-entity-2="api.db.core" data-source-line="82" data-uid="lnk57" id="link_api.db_api.db.core"><path codeLine="82" d="M462.01,394.27 C489.27,412.32 522.0776,434.047 550.2376,452.697" fill="none" id="api.db-to-api.db.core" style="stroke:#181818;stroke-width:1;"/><polygon fill="#181818" points="555.24,456.01,549.9451,447.7055,551.0713,453.2492,545.5277,454.3754,555.24,456.01" style="stroke:#181818;stroke-width:1;"/></g><!--link api.db to api.db.schema--><g class="link" data-entity-1="api.db" data-entity-2="api.db.schema" data-source-line="83" data-uid="lnk58" id="link_api.db_api.db.schema"><path codeLine="83" d="M436.24,396.82 C441.74,413.55 448.18,435.96 451,456.38 C456.37,495.31 453.1606,534.9984 449.6106,562.7784" fill="none" id="api.db-to-api.db.schema" style="stroke:#181818;stroke-width:1;"/><polygon fill="#181818" points="448.85,568.73,453.9586,560.3096,449.4838,563.7703,446.0231,559.2956,448.85,568.73" style="stroke:#181818;stroke-width:1;"/></g><!--link api.db.apikeys to api.db.base--><g class="link" data-entity-1="api.db.apikeys" data-entity-2="api.db.base" data-source-line="84" data-uid="lnk59" id="link_api.db.apikeys_api.db.base"><path codeLine="84" d="M133.87,509.4 C141.32,537.14 153.69,582.57 165,621.57 C170.82,641.64 175.9662,658.5282 181.1962,675.4282" fill="none" id="api.db.apikeys-to-api.db.base" style="stroke:#181818;stroke-width:1;"/><polygon fill="#181818" points="182.97,681.16,184.1305,671.3798,181.4918,676.3835,176.4881,673.7448,182.97,681.16" style="stroke:#181818;stroke-width:1;"/></g><!--link api.db.backup to api.db.base--><g class="link" data-entity-1="api.db.backup" data-entity-2="api.db.base" data-source-line="85" data-uid="lnk60" id="link_api.db.backup_api.db.base"><path codeLine="85" d="M302.18,509.47 C274.97,523.33 245.25,543 226,568.97 C201.22,602.41 194.3252,645.5851 192.2152,675.2851" fill="none" id="api.db.backup-to-api.db.base" style="stroke:#181818;stroke-width:1;"/><polygon fill="#181818" points="191.79,681.27,196.4177,672.5761,192.1443,676.2826,188.4378,672.0092,191.79,681.27" style="stroke:#181818;stroke-width:1;"/></g><!--link api.db.backup to api.db.schema--><g class="link" data-entity-1="api.db.backup" data-entity-2="api.db.schema" data-source-line="86" data-uid="lnk61" id="link_api.db.backup_api.db.schema"><path codeLine="86" d="M385.09,509.33 C397.69,527.19 410.9723,546.0165 423.5523,563.8565" fill="none" id="api.db.backup-to-api.db.schema" style="stroke:#181818;stroke-width:1;"/><polygon fill="#181818" points="427.01,568.76,425.0924,559.0996,424.1286,564.6738,418.5544,563.7099,427.01,568.76" style="stroke:#181818;stroke-width:1;"/></g><!--link api.db.core to api.config--><g class="link" data-entity-1="api.db.core" data-entity-2="api.config" data-source-line="87" data-uid="lnk62" id="link_api.db.core_api.config"><path codeLine="87" d="M539.09,503.49 C491.63,520.67 421.21,546.26 360,568.97 C354.29,571.09 353.9303,571.2295 347.9903,573.4495" fill="none" id="api.db.core-to-api.config" style="stroke:#181818;stroke-width:1;"/><polygon fill="#181818" points="342.37,575.55,352.2008,576.1461,347.0536,573.7996,349.4001,568.6524,342.37,575.55" style="stroke:#181818;stroke-width:1;"/></g><!--link api.db.core to api.db.base--><g class="link" data-entity-1="api.db.core" data-entity-2="api.db.base" data-source-line="88" data-uid="lnk63" id="link_api.db.core_api.db.base"><path codeLine="88" d="M589.08,509.4 C581.74,540.63 564.87,592.71 530,621.57 C448.42,689.09 326.5357,703.963 253.3857,706.733" fill="none" id="api.db.core-to-api.db.base" style="stroke:#181818;stroke-width:1;"/><polygon fill="#181818" points="247.39,706.96,256.5349,710.6166,252.3864,706.7708,256.2322,702.6223,247.39,706.96" style="stroke:#181818;stroke-width:1;"/></g><!--link api.db.core to api.db.schema--><g class="link" data-entity-1="api.db.core" data-entity-2="api.db.schema" data-source-line="89" data-uid="lnk64" id="link_api.db.core_api.db.schema"><path codeLine="89" d="M559.44,509.33 C535.46,527.13 508.4473,547.1732 484.4473,564.9932" fill="none" id="api.db.core-to-api.db.schema" style="stroke:#181818;stroke-width:1;"/><polygon fill="#181818" points="479.63,568.57,489.2405,566.4163,483.6444,565.5893,484.4714,559.9932,479.63,568.57" style="stroke:#181818;stroke-width:1;"/></g><!--link api.db.core to api.models--><g class="link" data-entity-1="api.db.core" data-entity-2="api.models" data-source-line="90" data-uid="lnk65" id="link_api.db.core_api.models"><path codeLine="90" d="M607.08,509.28 C629.01,552.22 670.2206,632.9068 692.1706,675.8768" fill="none" id="api.db.core-to-api.models" style="stroke:#181818;stroke-width:1;"/><polygon fill="#181818" points="694.9,681.22,694.368,671.3855,692.6255,676.7673,687.2437,675.0248,694.9,681.22" style="stroke:#181818;stroke-width:1;"/></g><!--link api.db.schema to api.db.base--><g class="link" data-entity-1="api.db.schema" data-entity-2="api.db.base" data-source-line="91" data-uid="lnk66" id="link_api.db.schema_api.db.base"><path codeLine="91" d="M385.77,622.06 C343.99,640.25 293.8714,662.0753 252.7714,679.9653" fill="none" id="api.db.schema-to-api.db.base" style="stroke:#181818;stroke-width:1;"/><polygon fill="#181818" points="247.27,682.36,257.1186,682.4356,251.8545,680.3645,253.9257,675.1004,247.27,682.36" style="stroke:#181818;stroke-width:1;"/></g><!--link api.db.servers to api.db.base--><g class="link" data-entity-1="api.db.servers" data-entity-2="api.db.base" data-source-line="92" data-uid="lnk67" id="link_api.db.servers_api.db.base"><path codeLine="92" d="M268.03,159.67 C171.83,183.82 6,243.64 6,369.08 C6,369.08 6,369.08 6,483.68 C6,572.51 88.948,641.6114 143.568,678.0314" fill="none" id="api.db.servers-to-api.db.base" style="stroke:#181818;stroke-width:1;"/><polygon fill="#181818" points="148.56,681.36,143.2911,673.0391,144.4,678.5861,138.8529,679.6951,148.56,681.36" style="stroke:#181818;stroke-width:1;"/></g><!--link api.workflow to api.workflow.crud--><g class="link" data-entity-1="api.workflow" data-entity-2="api.workflow.crud" data-source-line="93" data-uid="lnk68" id="link_api.workflow_api.workflow.crud"><path codeLine="93" d="M902.34,389.61 C953.81,406.55 1021.36,432.52 1037,456.38 C1083.33,527.07 1042.8957,627.7197 1018.6357,675.9597" fill="none" id="api.workflow-to-api.workflow.crud" style="stroke:#181818;stroke-width:1;"/><polygon fill="#181818" points="1015.94,681.32,1023.5571,675.0767,1018.1864,676.8531,1016.41,671.4824,1015.94,681.32" style="stroke:#181818;stroke-width:1;"/></g><!--link api.workflow to api.workflow.main--><g class="link" data-entity-1="api.workflow" data-entity-2="api.workflow.main" data-source-line="94" data-uid="lnk69" id="link_api.workflow_api.workflow.main"><path codeLine="94" d="M863.27,396.73 C878.77,414.6 895.435,433.8006 910.925,451.6306" fill="none" id="api.workflow-to-api.workflow.main" style="stroke:#181818;stroke-width:1;"/><polygon fill="#181818" points="914.86,456.16,911.9771,446.7425,911.5808,452.3855,905.9379,451.9892,914.86,456.16" style="stroke:#181818;stroke-width:1;"/></g><!--link api.workflow to api.workflow.n8n_api--><g class="link" data-entity-1="api.workflow" data-entity-2="api.workflow.n8n_api" data-source-line="95" data-uid="lnk70" id="link_api.workflow_api.workflow.n8n_api"><path codeLine="95" d="M838.22,396.83 C835.69,424.58 832.94,470.03 837,508.97 C839.12,529.29 842.5743,546.0743 846.7243,562.9143" fill="none" id="api.workflow-to-api.workflow.n8n_api" style="stroke:#181818;stroke-width:1;"/><polygon fill="#181818" points="848.16,568.74,849.8903,559.0443,846.9636,563.8852,842.1227,560.9586,848.16,568.74" style="stroke:#181818;stroke-width:1;"/></g><!--link api.workflow.main to api.workflow.crud--><g class="link" data-entity-1="api.workflow.main" data-entity-2="api.workflow.crud" data-source-line="96" data-uid="lnk71" id="link_api.workflow.main_api.workflow.crud"><path codeLine="96" d="M946.66,509.23 C952.86,526.08 960.87,548.69 967,568.97 C978.71,607.75 988.4253,647.5849 994.8753,675.4149" fill="none" id="api.workflow.main-to-api.workflow.crud" style="stroke:#181818;stroke-width:1;"/><polygon fill="#181818" points="996.23,681.26,998.0947,671.5893,995.1011,676.3891,990.3013,673.3955,996.23,681.26" style="stroke:#181818;stroke-width:1;"/></g><!--link api.workflow.main to api.workflow.n8n_api--><g class="link" data-entity-1="api.workflow.main" data-entity-2="api.workflow.n8n_api" data-source-line="97" data-uid="lnk72" id="link_api.workflow.main_api.workflow.n8n_api"><path codeLine="97" d="M917.98,509.33 C904.73,527.19 890.7123,546.0993 877.4923,563.9393" fill="none" id="api.workflow.main-to-api.workflow.n8n_api" style="stroke:#181818;stroke-width:1;"/><polygon fill="#181818" points="873.92,568.76,882.4922,563.9105,876.8969,564.7428,876.0646,559.1475,873.92,568.76" style="stroke:#181818;stroke-width:1;"/></g><!--link api.workflow.n8n_api to api.models--><g class="link" data-entity-1="api.workflow.n8n_api" data-entity-2="api.models" data-source-line="98" data-uid="lnk73" id="link_api.workflow.n8n_api_api.models"><path codeLine="98" d="M820.91,621.92 C797.24,639.72 770.6351,659.7435 746.9551,677.5535" fill="none" id="api.workflow.n8n_api-to-api.models" style="stroke:#181818;stroke-width:1;"/><polygon fill="#181818" points="742.16,681.16,751.757,678.947,746.1559,678.1546,746.9484,672.5535,742.16,681.16" style="stroke:#181818;stroke-width:1;"/></g><!--link api.workflow.n8n_api to api.workflow.crud--><g class="link" data-entity-1="api.workflow.n8n_api" data-entity-2="api.workflow.crud" data-source-line="99" data-uid="lnk74" id="link_api.workflow.n8n_api_api.workflow.crud"><path codeLine="99" d="M889.09,621.92 C912.76,639.72 939.3649,659.7435 963.0449,677.5535" fill="none" id="api.workflow.n8n_api-to-api.workflow.crud" style="stroke:#181818;stroke-width:1;"/><polygon fill="#181818" points="967.84,681.16,963.0516,672.5535,963.8441,678.1546,958.243,678.947,967.84,681.16" style="stroke:#181818;stroke-width:1;"/></g><!--SRC=[dPJ1SeCW54NtV8MJVRBkgZ_H3t1GCRM9u8Z6oNJwxmK1vS5xITD5nd3luI8CNYscGl9Uw87NuaCCVEIJ6Wkff616kl2pA0vyw0u5ruLv5j_i1nWdyoilugu3iGavMb-t7FiV1KvbsVDEbcLCRY8-nJpDWc22aoXyIDW11viAS4s5OqBU06V6EAZcQPWdm3e9nxKORs84k9DmV6a1khG8fcJRdNTi7UPOj6zipqtbZrT7M91Gl3BZUOXffn2m5X3L0WLhDGBGZb5Grv-Yvp7g51nUZnXipKiv_hLCvJnrrvtUb1pkLICYqWrpR57ZfRsgPGE3GAEdUfoRZ5_L1vFi5vLFikg3IV9Dbb4TPCOwrJwFntT_V63eTWsa4C50UGJNtL7SSzcO7cuZ2rMpnRdldMN5GW6-I5wm_LlzotLrmE9cyZQcHIca3TQ3bkafqdDNdhINbaMjI1rEOaMlOYkIckKxxWKx2aRSv4nDBrBHYHN59WuTkRS5y_L9N4hek3f43DjfYEpwYoNL2m9rc1Uwziyk35zR5VaQKok9JRq7eNidHDLCn8OgnkojADDcMPlm2M9hu0dYAuxbVVbyGO938qEL8kT3Cc3bNm00]--></g></svg>
