<?xml version="1.0" encoding="UTF-8" standalone="yes"?>
<svg height="104.479mm" id="svg3" inkscape:version="1.2.2 (b0a8486541, 2022-12-01)" sodipodi:docname="fourcipp.svg" version="1.1" viewBox="0 0 1909 1234" width="161.629mm" xmlns="http://www.w3.org/2000/svg" xmlns:inkscape="http://www.inkscape.org/namespaces/inkscape" xmlns:sodipodi="http://sodipodi.sourceforge.net/DTD/sodipodi-0.dtd" xmlns:svg="http://www.w3.org/2000/svg">
  <defs id="defs7"/>
  <sodipodi:namedview bordercolor="#666666" borderopacity="1.0" id="namedview5" inkscape:current-layer="svg3" inkscape:cx="365.68071" inkscape:cy="211.36279" inkscape:deskcolor="#d1d1d1" inkscape:document-units="mm" inkscape:pagecheckerboard="0" inkscape:pageopacity="0.0" inkscape:showpageshadow="2" inkscape:window-height="1131" inkscape:window-maximized="1" inkscape:window-width="1854" inkscape:window-x="66" inkscape:window-y="32" inkscape:zoom="1.5163502" pagecolor="#ffffff" showgrid="false"/>
  <path d="M 156.00,5.00            C 156.00,5.00 159.00,5.00 159.00,5.00              158.47,19.27 159.18,30.24 166.31,43.09              166.31,43.09 190.00,76.00 190.00,76.00              198.05,72.30 205.07,68.94 214.00,67.87              216.85,67.37 219.13,67.80 221.96,67.87              236.11,68.94 240.03,71.58 252.00,78.43              252.00,78.43 258.01,81.30 258.01,81.30              258.01,81.30 270.00,89.09 270.00,89.09              274.70,92.28 280.69,97.76 286.00,99.98              289.73,101.54 292.63,99.54 296.42,99.23              303.53,98.64 308.93,99.65 314.83,103.96              322.66,109.68 322.25,117.53 324.73,120.61              327.57,124.14 336.76,127.34 341.00,129.32              346.11,131.71 348.22,134.27 354.00,135.00              354.00,135.00 377.43,153.37 377.43,153.37              389.38,164.76 396.77,180.09 402.74,195.28              407.90,208.44 410.80,223.27 414.13,237.00              415.25,241.60 415.86,250.76 418.30,253.71              418.30,253.71 432.72,267.09 432.72,267.09              459.25,294.82 490.86,318.14 525.00,335.74              543.26,345.16 562.70,351.82 582.00,358.69              618.65,371.73 656.32,382.68 694.00,392.37              694.00,392.37 753.00,405.80 753.00,405.80              764.97,408.18 779.93,409.93 791.00,414.45              796.59,416.74 799.43,418.94 804.00,422.75              813.70,430.85 816.57,436.38 815.96,449.00              815.58,456.86 808.95,466.13 805.00,473.00              805.00,473.00 777.28,521.00 777.28,521.00              771.86,530.53 766.08,539.37 754.00,539.96              736.04,540.83 723.58,529.33 708.00,522.30              694.20,516.08 671.15,510.48 656.00,506.88              608.06,495.51 559.58,486.88 513.00,470.31              468.63,454.52 420.87,431.06 381.00,406.05              381.00,406.05 370.00,399.31 370.00,399.31              370.00,399.31 359.00,393.22 359.00,393.22              359.00,393.22 329.17,370.21 329.17,370.21              329.17,370.21 313.00,355.22 313.00,355.22              313.00,355.22 287.99,343.93 287.99,343.93              266.73,333.09 244.27,319.55 226.00,304.25              217.67,297.26 210.46,290.15 206.12,280.09              204.32,275.91 202.70,274.84 203.00,270.00              199.17,266.96 199.74,263.48 198.24,259.28              195.05,250.36 197.06,252.77 195.35,245.00              193.87,238.30 190.68,225.51 192.00,219.00              179.63,218.04 172.97,203.07 176.18,192.00              178.78,183.02 183.36,183.46 181.09,175.00              176.31,157.22 166.42,135.51 167.42,117.00              167.75,110.95 169.63,102.39 172.40,97.00              174.08,93.75 178.85,88.35 177.98,85.01              177.45,82.97 169.52,73.43 167.73,71.00              156.41,55.61 140.66,38.51 120.00,38.00              120.91,32.74 123.16,33.27 128.00,32.35              134.04,31.21 143.28,31.68 149.00,34.00              147.02,23.94 152.33,14.03 156.00,5.00 Z            M 1502.00,714.00            C 1498.00,719.96 1482.98,724.51 1476.00,727.78              1476.00,727.78 1407.00,758.50 1407.00,758.50              1386.51,767.55 1366.57,777.74 1345.00,784.03              1345.00,784.03 1336.00,785.90 1336.00,785.90              1326.88,788.11 1318.48,789.89 1309.00,790.00              1295.67,790.15 1282.22,790.52 1269.00,788.71              1264.32,788.08 1262.23,787.06 1258.00,785.92              1243.25,781.95 1230.41,777.70 1217.00,770.05              1183.34,750.85 1158.92,720.32 1146.21,684.00              1143.23,675.51 1139.02,659.79 1139.00,651.00              1139.00,651.00 1139.00,600.00 1139.00,600.00              1139.00,600.00 1139.00,562.00 1139.00,562.00              1139.02,554.08 1139.39,556.69 1140.78,550.00              1140.78,550.00 1143.49,536.00 1143.49,536.00              1147.80,520.04 1156.90,501.42 1166.51,488.00              1183.27,464.58 1209.19,443.52 1236.00,432.75              1243.50,429.74 1251.18,427.83 1259.00,425.96              1259.00,425.96 1269.00,423.44 1269.00,423.44              1280.52,421.58 1292.37,421.98 1304.00,422.00              1337.77,422.05 1365.04,434.71 1395.00,448.38              1395.00,448.38 1454.00,474.58 1454.00,474.58              1454.00,474.58 1487.00,489.34 1487.00,489.34              1492.21,491.66 1498.62,493.14 1502.00,498.00              1497.76,498.86 1493.35,498.01 1489.00,498.00              1470.92,497.97 1439.68,496.91 1423.00,499.30              1417.32,500.11 1405.36,503.77 1400.17,506.16              1386.91,512.24 1372.57,523.28 1363.92,535.00              1363.92,535.00 1355.73,548.00 1355.73,548.00              1354.76,549.74 1352.79,553.94 1351.32,555.01              1349.58,556.26 1346.09,556.00 1344.00,556.00              1344.00,556.00 1317.00,556.00 1317.00,556.00              1296.89,556.00 1281.98,555.67 1266.59,570.92              1262.94,574.54 1261.09,576.47 1258.46,581.00              1256.59,584.21 1253.50,591.40 1252.68,595.00              1251.89,598.45 1251.64,609.33 1252.04,613.04              1252.55,617.91 1254.84,624.72 1257.18,629.00              1266.43,645.91 1283.85,655.91 1303.00,656.00              1303.00,656.00 1316.00,656.00 1316.00,656.00              1316.00,656.00 1343.00,656.00 1343.00,656.00              1345.31,656.00 1348.63,655.78 1350.62,657.02              1353.30,658.69 1360.56,672.84 1363.82,677.00              1373.72,689.63 1385.81,698.91 1400.17,705.89              1404.85,708.17 1416.80,711.95 1422.00,712.70              1437.07,714.88 1473.95,714.08 1491.00,714.00              1494.84,713.98 1498.20,713.42 1502.00,714.00 Z            M 850.00,449.53            C 868.17,446.56 883.00,455.36 883.00,475.00              883.00,483.27 879.97,491.07 877.88,499.00              877.88,499.00 865.87,544.00 865.87,544.00              862.56,557.18 859.55,572.88 844.00,576.47              829.42,579.84 813.16,571.83 811.18,556.00              809.84,545.18 814.36,533.44 817.12,523.00              817.12,523.00 832.55,466.00 832.55,466.00              835.61,457.53 841.43,452.09 850.00,449.53 Z            M 924.00,454.52            C 942.17,451.63 955.97,460.81 956.00,480.00              956.00,480.00 956.00,558.00 956.00,558.00              955.97,574.67 945.62,584.39 929.00,583.99              918.77,583.74 908.83,577.07 905.80,567.00              904.90,564.02 905.00,561.08 905.00,558.00              905.00,558.00 905.00,480.00 905.00,480.00              905.02,466.80 910.90,458.13 924.00,454.52 Z            M 1006.00,454.52            C 1024.17,451.63 1037.97,460.81 1038.00,480.00              1038.00,480.00 1038.00,558.00 1038.00,558.00              1037.97,574.67 1027.62,584.39 1011.00,583.99              1000.77,583.74 990.83,577.07 987.80,567.00              986.90,564.02 987.00,561.08 987.00,558.00              987.00,558.00 987.00,480.00 987.00,480.00              987.02,466.80 992.90,458.13 1006.00,454.52 Z            M 1088.00,454.52            C 1106.17,451.63 1119.97,460.81 1120.00,480.00              1120.00,480.00 1120.00,558.00 1120.00,558.00              1119.97,574.67 1109.62,584.39 1093.00,583.99              1082.77,583.74 1072.83,577.07 1069.80,567.00              1068.90,564.02 1069.00,561.08 1069.00,558.00              1069.00,558.00 1069.00,480.00 1069.00,480.00              1069.02,466.80 1074.90,458.13 1088.00,454.52 Z            M 1370.00,556.00            C 1371.42,550.62 1375.31,546.16 1378.87,542.00              1387.73,531.67 1395.46,525.76 1408.00,520.44              1426.03,512.78 1441.10,514.00 1460.00,514.00              1460.00,514.00 1527.00,514.00 1527.00,514.00              1527.00,514.00 1811.00,514.00 1811.00,514.00              1818.82,514.02 1816.31,514.37 1823.00,515.78              1852.93,522.12 1875.49,542.11 1883.58,572.00              1887.43,586.21 1886.18,609.69 1886.00,625.00              1885.91,632.38 1884.24,638.09 1881.93,645.00              1874.33,667.82 1857.43,684.84 1835.00,693.40              1830.45,695.14 1826.61,695.37 1822.00,696.24              1815.35,697.49 1818.60,697.98 1810.00,698.00              1810.00,698.00 1491.00,698.00 1491.00,698.00              1491.00,698.00 1456.00,698.00 1456.00,698.00              1456.00,698.00 1436.00,698.00 1436.00,698.00              1427.21,697.99 1431.06,697.52 1424.91,696.25              1409.49,693.06 1401.79,690.76 1389.00,680.38              1382.61,675.20 1372.13,664.06 1370.00,656.00              1385.36,656.00 1411.14,657.92 1424.72,651.40              1460.11,634.39 1464.40,587.65 1432.00,565.22              1413.95,552.73 1390.84,556.00 1370.00,556.00 Z            M 1743.95,571.03            C 1738.29,572.29 1740.39,577.49 1743.10,577.95              1746.02,578.44 1749.55,573.72 1743.95,571.03 Z            M 1507.00,572.00            C 1498.76,571.33 1488.92,568.82 1486.24,580.00              1486.05,581.98 1486.04,583.99 1486.24,586.00              1486.24,586.00 1475.00,586.00 1475.00,586.00              1475.00,586.00 1475.00,591.00 1475.00,591.00              1475.00,591.00 1486.00,591.00 1486.00,591.00              1486.00,591.00 1486.00,628.00 1486.00,628.00              1486.00,628.00 1492.00,628.00 1492.00,628.00              1492.00,628.00 1492.00,591.00 1492.00,591.00              1492.00,591.00 1506.00,591.00 1506.00,591.00              1506.00,591.00 1506.00,586.00 1506.00,586.00              1506.00,586.00 1492.00,586.00 1492.00,586.00              1492.14,575.50 1496.68,574.73 1506.00,577.00              1506.00,577.00 1507.00,572.00 1507.00,572.00 Z            M 1303.00,572.14            C 1303.00,572.14 1336.00,572.14 1336.00,572.14              1336.00,572.14 1394.00,572.14 1394.00,572.14              1403.58,572.01 1413.67,572.52 1422.00,577.61              1441.67,589.61 1443.27,616.95 1426.00,631.79              1418.34,638.37 1408.75,639.98 1399.00,640.00              1399.00,640.00 1304.00,640.00 1304.00,640.00              1295.53,639.90 1286.79,637.75 1280.09,632.32              1265.05,620.14 1263.74,596.95 1276.76,582.80              1285.07,573.77 1292.12,573.97 1303.00,572.14 Z            M 1539.00,585.31            C 1533.82,586.29 1529.94,587.60 1526.65,592.04              1516.87,605.24 1523.60,631.10 1543.00,628.69              1556.30,627.03 1559.13,616.40 1559.00,605.00              1558.85,592.74 1551.67,584.59 1539.00,585.31 Z            M 1657.00,588.00            C 1645.86,582.33 1642.35,586.56 1635.00,595.00              1635.00,595.00 1635.00,586.00 1635.00,586.00              1635.00,586.00 1630.00,586.00 1630.00,586.00              1630.00,586.00 1630.00,628.00 1630.00,628.00              1630.00,628.00 1635.21,628.00 1635.21,628.00              1635.21,628.00 1635.21,602.00 1635.21,602.00              1636.62,597.14 1641.81,590.92 1647.00,590.27              1649.81,589.91 1653.25,591.28 1656.00,592.00              1656.00,592.00 1657.00,588.00 1657.00,588.00 Z            M 1706.00,587.00            C 1697.71,584.80 1690.77,583.73 1683.01,588.48              1672.18,595.11 1670.59,613.91 1679.33,622.79              1684.56,627.93 1704.16,633.68 1706.00,622.79              1700.66,623.43 1694.04,625.15 1689.00,622.79              1678.26,617.43 1675.98,601.19 1685.10,593.39              1688.44,590.54 1691.74,589.92 1696.00,590.04              1701.30,590.20 1704.07,592.48 1706.00,587.00 Z            M 1781.00,622.00            C 1785.03,625.80 1788.99,629.42 1795.00,628.63              1807.70,626.96 1809.12,614.07 1809.00,604.00              1808.86,592.38 1801.74,582.11 1789.00,586.22              1785.41,587.38 1783.87,588.68 1781.00,591.00              1781.00,591.00 1781.00,586.00 1781.00,586.00              1781.00,586.00 1775.00,586.00 1775.00,586.00              1775.00,586.00 1775.00,645.00 1775.00,645.00              1775.00,645.00 1781.00,645.00 1781.00,645.00              1781.00,645.00 1781.00,622.00 1781.00,622.00 Z            M 1831.00,622.00            C 1835.03,625.80 1838.99,629.42 1845.00,628.63              1857.70,626.96 1859.12,614.07 1859.00,604.00              1858.86,592.38 1851.74,582.11 1839.00,586.22              1835.41,587.38 1833.87,588.68 1831.00,591.00              1831.00,591.00 1831.00,586.00 1831.00,586.00              1831.00,586.00 1825.00,586.00 1825.00,586.00              1825.00,586.00 1825.00,645.00 1825.00,645.00              1825.00,645.00 1831.00,645.00 1831.00,645.00              1831.00,645.00 1831.00,622.00 1831.00,622.00 Z            M 1580.21,586.00            C 1580.21,586.00 1575.24,586.00 1575.24,586.00              1575.24,586.00 1575.24,619.00 1575.24,619.00              1576.80,625.39 1581.21,629.50 1588.00,628.63              1592.81,628.02 1597.26,624.86 1601.00,622.00              1601.00,622.00 1601.00,628.00 1601.00,628.00              1601.00,628.00 1607.00,628.00 1607.00,628.00              1607.00,628.00 1607.00,586.00 1607.00,586.00              1607.00,586.00 1601.00,586.00 1601.00,586.00              1601.00,586.00 1601.00,609.00 1601.00,609.00              1600.99,611.56 1601.19,614.65 1599.98,616.96              1597.47,621.73 1589.16,626.20 1584.23,622.40              1581.36,620.20 1580.91,616.33 1580.21,613.00              1580.21,613.00 1580.21,586.00 1580.21,586.00 Z            M 1746.00,586.00            C 1746.00,586.00 1728.00,586.00 1728.00,586.00              1728.00,586.00 1728.00,591.00 1728.00,591.00              1728.00,591.00 1741.00,591.00 1741.00,591.00              1741.00,591.00 1741.00,628.00 1741.00,628.00              1741.00,628.00 1746.00,628.00 1746.00,628.00              1746.00,628.00 1746.00,586.00 1746.00,586.00 Z            M 1536.02,590.74            C 1539.52,589.88 1543.61,589.46 1546.91,591.31              1557.24,597.11 1557.02,625.65 1539.00,623.89              1525.74,622.59 1523.91,597.40 1536.02,590.74 Z            M 1788.00,590.65            C 1801.82,587.80 1805.68,601.01 1803.33,612.00              1802.35,616.58 1800.74,621.40 1795.98,623.26              1790.78,625.30 1784.72,622.91 1782.17,617.98              1781.01,615.74 1781.04,613.45 1781.00,611.00              1780.88,602.18 1778.66,594.62 1788.00,590.65 Z            M 1838.00,590.65            C 1851.82,587.80 1855.68,601.01 1853.33,612.00              1852.35,616.58 1850.74,621.40 1845.98,623.26              1840.78,625.30 1834.72,622.91 1832.17,617.98              1831.01,615.74 1831.04,613.45 1831.00,611.00              1830.88,602.18 1828.66,594.62 1838.00,590.65 Z            M 924.00,632.52            C 942.17,629.63 955.97,638.81 956.00,658.00              956.00,658.00 956.00,736.00 956.00,736.00              955.97,752.67 945.62,762.39 929.00,761.99              918.77,761.74 908.83,755.07 905.80,745.00              904.90,742.02 905.00,739.08 905.00,736.00              905.00,736.00 905.00,658.00 905.00,658.00              905.02,644.80 910.90,636.13 924.00,632.52 Z            M 1006.00,632.52            C 1024.17,629.63 1037.97,638.81 1038.00,658.00              1038.00,658.00 1038.00,736.00 1038.00,736.00              1037.97,752.67 1027.62,762.39 1011.00,761.99              1000.77,761.74 990.83,755.07 987.80,745.00              986.90,742.02 987.00,739.08 987.00,736.00              987.00,736.00 987.00,658.00 987.00,658.00              987.02,644.80 992.90,636.13 1006.00,632.52 Z            M 1088.00,632.52            C 1106.17,629.63 1119.97,638.81 1120.00,658.00              1120.00,658.00 1120.00,736.00 1120.00,736.00              1119.97,752.67 1109.62,762.39 1093.00,761.99              1082.77,761.74 1072.83,755.07 1069.80,745.00              1068.90,742.02 1069.00,739.08 1069.00,736.00              1069.00,736.00 1069.00,658.00 1069.00,658.00              1069.02,644.80 1074.90,636.13 1088.00,632.52 Z            M 830.00,640.53            C 840.69,638.78 849.93,640.31 857.07,649.17              862.09,655.39 864.79,669.03 866.88,677.00              866.88,677.00 877.88,718.00 877.88,718.00              879.33,723.50 882.71,733.85 882.96,739.00              883.61,752.42 878.18,764.22 864.00,767.47              854.11,769.74 843.31,767.03 836.93,758.91              831.37,751.85 829.05,737.90 826.58,729.00              826.58,729.00 821.63,711.00 821.63,711.00              821.63,711.00 816.29,691.00 816.29,691.00              811.81,675.24 804.76,655.12 822.00,643.97              824.65,642.25 827.02,641.41 830.00,640.53 Z            M 41.00,1094.00            C 41.00,1094.00 41.00,973.00 41.00,973.00              41.02,962.04 46.00,959.50 52.27,951.00              52.27,951.00 79.29,915.00 79.29,915.00              79.29,915.00 124.53,855.00 124.53,855.00              124.53,855.00 194.58,762.00 194.58,762.00              194.58,762.00 249.42,689.00 249.42,689.00              252.63,684.85 263.69,668.87 267.09,667.02              269.33,665.80 272.50,666.00 275.00,666.00              275.00,666.00 423.00,666.00 423.00,666.00              423.00,666.00 399.37,700.00 399.37,700.00              399.37,700.00 356.42,759.00 356.42,759.00              356.42,759.00 251.58,904.00 251.58,904.00              251.58,904.00 208.00,964.00 208.00,964.00              208.00,964.00 314.00,964.00 314.00,964.00              314.00,964.00 314.00,885.00 314.00,885.00              314.00,885.00 456.00,885.00 456.00,885.00              456.00,885.00 456.00,964.00 456.00,964.00              456.00,964.00 535.00,964.00 535.00,964.00              535.00,964.00 535.00,1094.00 535.00,1094.00              535.00,1094.00 456.00,1094.00 456.00,1094.00              456.00,1094.00 456.00,1195.00 456.00,1195.00              456.00,1195.00 309.00,1195.00 309.00,1195.00              309.00,1195.00 309.00,1094.00 309.00,1094.00              309.00,1094.00 41.00,1094.00 41.00,1094.00 Z            M 743.00,676.89            C 749.08,676.62 757.67,676.51 763.00,679.53              772.01,684.64 776.38,694.37 781.28,703.00              781.28,703.00 803.85,742.00 803.85,742.00              810.71,754.01 819.83,765.32 814.90,780.00              810.61,792.75 804.01,792.98 794.00,797.99              794.00,797.99 782.00,805.49 782.00,805.49              763.77,818.78 751.25,834.11 740.78,854.00              730.11,874.28 723.04,904.07 723.00,927.00              722.92,976.45 740.22,1024.17 781.00,1054.52              793.35,1063.71 807.40,1069.77 822.00,1074.34              832.84,1077.74 849.71,1080.98 861.00,1081.00              861.00,1081.00 878.00,1081.00 878.00,1081.00              904.37,1080.96 934.63,1069.30 956.00,1054.28              967.04,1046.51 975.55,1038.70 984.91,1029.04              987.29,1026.59 992.37,1019.47 996.01,1020.32              997.98,1020.78 1002.38,1024.71 1004.00,1026.17              1004.00,1026.17 1018.96,1039.91 1018.96,1039.91              1018.96,1039.91 1069.00,1085.04 1069.00,1085.04              1069.00,1085.04 1084.83,1099.54 1084.83,1099.54              1086.56,1101.15 1089.50,1103.41 1089.10,1106.09              1088.64,1109.21 1079.49,1118.57 1076.92,1121.28              1064.87,1134.01 1052.30,1145.36 1038.00,1155.57              1004.72,1179.36 962.40,1195.32 922.00,1201.27              910.49,1202.97 898.65,1204.98 887.00,1205.00              887.00,1205.00 837.00,1205.00 837.00,1205.00              823.06,1204.83 802.82,1201.15 789.00,1198.21              734.16,1186.55 680.46,1158.20 642.09,1117.00              611.62,1084.28 591.60,1046.01 580.27,1003.00              575.96,986.65 572.03,962.83 572.00,946.00              571.96,919.26 571.43,900.81 576.46,874.00              588.50,809.74 623.25,754.16 675.00,714.35              689.17,703.44 704.04,694.60 720.00,686.59              725.87,683.64 736.88,678.30 743.00,676.89 Z" fill="none" id="Selection" stroke="black" stroke-width="1" style="fill:#000000;fill-opacity:1"/>
</svg>
