<?xml version="1.0" encoding="UTF-8" standalone="no"?>
<!-- Uploaded to: SVG Repo, www.svgrepo.com, Generator: SVG Repo Mixer Tools -->

<svg
   width="800px"
   height="800px"
   viewBox="0 0 20 20"
   fill="none"
   version="1.1"
   id="svg1"
   sodipodi:docname="info_red.svg"
   inkscape:version="1.3.2 (091e20e, 2023-11-25)"
   xmlns:inkscape="http://www.inkscape.org/namespaces/inkscape"
   xmlns:sodipodi="http://sodipodi.sourceforge.net/DTD/sodipodi-0.dtd"
   xmlns="http://www.w3.org/2000/svg"
   xmlns:svg="http://www.w3.org/2000/svg">
  <defs
     id="defs1" />
  <sodipodi:namedview
     id="namedview1"
     pagecolor="#ffffff"
     bordercolor="#000000"
     borderopacity="0.25"
     inkscape:showpageshadow="2"
     inkscape:pageopacity="0.0"
     inkscape:pagecheckerboard="0"
     inkscape:deskcolor="#d1d1d1"
     inkscape:zoom="0.9575"
     inkscape:cx="400"
     inkscape:cy="398.95561"
     inkscape:window-width="1920"
     inkscape:window-height="988"
     inkscape:window-x="0"
     inkscape:window-y="33"
     inkscape:window-maximized="1"
     inkscape:current-layer="svg1" />
  <g
     inkscape:groupmode="layer"
     id="layer2"
     inkscape:label="Layer 2"
     style="display:none">
    <rect
       style="fill:#5d8897;fill-opacity:1;fill-rule:evenodd;stroke:#23681e;stroke-width:0.063118"
       id="rect2"
       width="20.508329"
       height="20.3661"
       x="-0.30426505"
       y="-0.19677423" />
  </g>
  <g
     inkscape:groupmode="layer"
     id="layer1"
     inkscape:label="Layer 1"
     style="display:none;fill:#e3e3e3;fill-opacity:1">
    <rect
       style="fill:#e3e3e3;fill-opacity:1;fill-rule:evenodd;stroke:#23681e;stroke-width:0.063118"
       id="rect1"
       width="20.528439"
       height="20.375523"
       x="-0.38468844"
       y="-0.17219882" />
  </g>
  <path
     fill="#000000"
     fill-rule="evenodd"
     d="M10 3a7 7 0 100 14 7 7 0 000-14zm-9 7a9 9 0 1118 0 9 9 0 01-18 0zm10.01 4a1 1 0 01-1 1H10a1 1 0 110-2h.01a1 1 0 011 1zM11 6a1 1 0 10-2 0v5a1 1 0 102 0V6z"
     id="path1"
     style="fill:#cd8788;fill-opacity:1;stroke:#3d201f;stroke-opacity:1;stroke-width:0.025;stroke-dasharray:none" />
</svg>
