<svg width="581" height="157" viewBox="0 0 581 157" fill="none" xmlns="http://www.w3.org/2000/svg">
<g clip-path="url(#clip0_4_1326)">
<path d="M448.66 107.489H502.728C507.67 107.489 511.662 103.478 511.662 98.5585V58.3373C511.662 53.3967 507.649 49.4062 502.728 49.4062H450.603C449.906 49.4062 449.23 49.4907 448.554 49.6174V57.1549C450.075 56.1415 451.934 55.5081 453.518 55.5081H501.757C503.89 55.5081 505.6 57.2182 505.6 59.3507V97.5661C505.6 99.6986 503.89 101.409 501.757 101.409H449.674C447.562 101.409 445.83 99.6775 445.83 97.5661V87.685H439.726V98.5585C439.726 103.499 443.739 107.489 448.66 107.489Z" fill="#13231B"/>
<path d="M431.594 123.281H519.729C528.051 123.281 534.788 116.546 534.788 108.227V48.8137C534.788 40.495 528.051 33.7598 519.729 33.7598H448.554V39.8616H519.053C524.376 39.8616 528.684 44.1687 528.684 49.4893V107.573C528.684 112.893 524.376 117.2 519.053 117.2H432.249C426.926 117.2 422.618 112.893 422.618 107.573V87.6836H416.514V108.248C416.514 116.567 423.251 123.302 431.573 123.302L431.594 123.281Z" fill="#193929"/>
<path d="M485.748 91.6953C487.31 91.6953 488.578 90.4285 488.578 88.8661V67.837C488.578 66.2746 487.31 65.0078 485.748 65.0078H465.747C464.184 65.0078 462.916 66.2746 462.916 67.837V88.8661C462.916 90.4285 464.184 91.6953 465.747 91.6953H485.748ZM468.999 71.1096H482.474V85.5935H468.999V71.1096Z" fill="black"/>
<path d="M553.713 2.51172H448.554V8.61352H553.713C565.413 8.61352 574.896 18.0935 574.896 29.7904V127.588C574.896 139.285 565.413 148.765 553.713 148.765H397.464C385.764 148.765 376.281 139.285 376.281 127.588V87.6625H370.177V127.588C370.177 142.663 382.384 154.867 397.464 154.867H553.713C568.793 154.867 581 142.663 581 127.588V29.7904C581 14.7153 568.793 2.51172 553.713 2.51172Z" fill="#00653C"/>
<path d="M414.529 139.075H536.732C548.432 139.075 557.894 129.595 557.894 117.919V39.2924C557.894 27.5956 548.411 18.1367 536.732 18.1367H448.554V24.2385H536.394C544.905 24.2385 551.811 31.1426 551.811 39.6514V117.602C551.811 126.111 544.905 133.015 536.394 133.015H414.867C406.356 133.015 399.449 126.111 399.449 117.602V87.7057H393.345V117.94C393.345 129.637 402.828 139.096 414.508 139.096L414.529 139.075Z" fill="#174E33"/>
<path d="M29.9909 1.28711C50.0764 1.28711 60.6366 10.7248 60.6366 25.2509C60.6366 39.777 50.0764 49.2148 29.9909 49.2148H20.6346V71.6162H0V1.28711H29.9909ZM29.9909 32.9574C36.2848 32.9574 39.4317 29.8115 39.4317 25.272C39.4317 20.7326 36.2848 17.6923 29.9909 17.6923H20.6346V32.9574H29.9909Z" fill="black"/>
<path d="M109.994 1.28711H130.65V71.6373H109.994V45.2665H88.3248V71.6373H67.6691V1.28711H88.3248V26.56H109.994V1.28711Z" fill="black"/>
<path d="M138.867 36.463C138.867 13.6816 154.137 0 175.912 0C197.687 0 213.042 13.7027 213.042 36.463C213.042 59.2234 197.772 72.926 175.912 72.926C154.052 72.926 138.867 59.2234 138.867 36.463ZM191.837 36.463C191.837 23.3093 185.627 15.814 175.912 15.814C166.197 15.814 160.072 23.3093 160.072 36.463C160.072 49.6167 166.176 57.112 175.912 57.112C185.649 57.112 191.837 49.6167 191.837 36.463Z" fill="black"/>
<path d="M275.071 1.28711V17.9457H254.986V71.6373H234.33V17.9457H214.329V1.28711H275.071Z" fill="black"/>
<path d="M276.36 36.463C276.36 13.6816 291.63 0 313.405 0C335.181 0 350.535 13.7027 350.535 36.463C350.535 59.2234 335.265 72.926 313.405 72.926C291.546 72.926 276.36 59.2234 276.36 36.463ZM329.309 36.463C329.309 23.3093 323.1 15.814 313.384 15.814C303.669 15.814 297.544 23.3093 297.544 36.463C297.544 49.6167 303.648 57.112 313.384 57.112C323.121 57.112 329.309 49.6167 329.309 36.463Z" fill="black"/>
<path d="M411.065 1.28711H429.778V71.6373H394.317L377.568 7.30446V71.6373H358.771V1.28711H394.317L411.086 65.6199V1.28711H411.065Z" fill="black"/>
<path d="M50.182 102.02H20.6557V112.576H49.5484V129.319H20.6557V155.69H0V85.3398H50.182V101.998V102.02Z" fill="#00653C"/>
<path d="M56.0117 120.537C56.0117 97.7558 71.2817 84.0742 93.0568 84.0742C114.832 84.0742 130.186 97.7769 130.186 120.537C130.186 143.298 114.916 157 93.0568 157C71.1973 157 56.0117 143.298 56.0117 120.537ZM108.982 120.537C108.982 107.384 102.772 99.8882 93.0568 99.8882C83.3415 99.8882 77.2166 107.384 77.2166 120.537C77.2166 133.691 83.3203 141.186 93.0568 141.186C102.793 141.186 108.982 133.691 108.982 120.537Z" fill="#00653C"/>
<path d="M180.897 155.712L167.105 131.917H159.058V155.712H138.402V85.3613H168.689C187.402 85.3613 198.87 94.609 198.87 108.776C198.87 117.391 194.709 124.231 186.916 128.116L204.044 155.69H180.897V155.712ZM159.058 101.365V116.081H168.604C174.539 116.081 177.686 113.02 177.686 108.776C177.686 104.532 174.539 101.365 168.604 101.365H159.058Z" fill="#00653C"/>
<path d="M239.145 113.696H278.218V155.712H261.554V139.983C258.787 147.753 253.127 157.021 238.321 157.021C222.587 157.021 205.268 144.902 205.268 120.643C205.268 97.7769 220.369 84.0742 242.313 84.0742C260.181 84.0742 272.494 91.654 277.225 107.764H255.661C253.444 102.865 249.367 99.8882 242.334 99.8882C232.513 99.8882 226.494 107.468 226.494 120.622C226.494 133.775 232.788 141.165 243.242 141.165C252.05 141.165 257.583 136.267 258.048 129.13H239.166V113.675L239.145 113.696Z" fill="#00653C"/>
<path d="M308.674 139.053H340.439V155.712H288.039V85.3613H339.615V102.02H308.695V111.563H338.961V128.222H308.695V139.053H308.674Z" fill="#00653C"/>
</g>
<defs>
<clipPath id="clip0_4_1326">
<rect width="581" height="157" fill="white"/>
</clipPath>
</defs>
</svg>
