<?xml version="1.0" encoding="UTF-8"?>
<!-- Created with Inkscape (http://www.inkscape.org/) -->
<svg id="svg8" width="48" height="48" version="1.1" viewBox="0 0 12.7 12.7" xmlns="http://www.w3.org/2000/svg" xmlns:cc="http://creativecommons.org/ns#" xmlns:dc="http://purl.org/dc/elements/1.1/" xmlns:rdf="http://www.w3.org/1999/02/22-rdf-syntax-ns#">
 <metadata id="metadata5">
  <rdf:RDF>
   <cc:Work rdf:about="">
    <dc:format>image/svg+xml</dc:format>
    <dc:type rdf:resource="http://purl.org/dc/dcmitype/StillImage"/>
    <dc:title/>
   </cc:Work>
  </rdf:RDF>
 </metadata>
 <g id="layer1" transform="translate(0,-284.3)">
  <g id="text2005" transform="matrix(.6315 0 0 1.2405 .62365 47.657)">
   <g id="g838">
    <path id="path1873" d="m17.281 193.74-16.713 0.0176v0.56641l16.713-0.01956z" color="#000000" color-rendering="auto" dominant-baseline="auto" image-rendering="auto" shape-rendering="auto" solid-color="#000000" style="font-feature-settings:normal;font-variant-alternates:normal;font-variant-caps:normal;font-variant-ligatures:normal;font-variant-numeric:normal;font-variant-position:normal;isolation:auto;mix-blend-mode:normal;shape-padding:0;text-decoration-color:#000000;text-decoration-line:none;text-decoration-style:solid;text-indent:0;text-orientation:mixed;text-transform:none;white-space:normal"/>
    <path id="path844" d="m14.324 192.66 3.705 1.3576-3.7019 1.366c0.59073-0.8047 0.58608-1.9048-0.0031-2.7237z" fill-rule="evenodd" stroke="#000" stroke-linejoin="round" stroke-width=".21185"/>
   </g>
   <path id="path1873-7" d="m0.58984 191.08 0.011719 0.56641c2.8711-0.0599 5.2791 0.3954 7.0508 1.0449l0.00586 4e-3h0.00586c1.8578 0.59292 3.7309 1.6053 7.1074 1.6309l0.0039-0.56641c-3.2598-0.0247-5.004-0.98213-6.9277-1.5977-1.8465-0.67692-4.3203-1.1433-7.2578-1.082z" color="#000000" color-rendering="auto" dominant-baseline="auto" image-rendering="auto" shape-rendering="auto" solid-color="#000000" style="font-feature-settings:normal;font-variant-alternates:normal;font-variant-caps:normal;font-variant-ligatures:normal;font-variant-numeric:normal;font-variant-position:normal;isolation:auto;mix-blend-mode:normal;shape-padding:0;text-decoration-color:#000000;text-decoration-line:none;text-decoration-style:solid;text-indent:0;text-orientation:mixed;text-transform:none;white-space:normal"/>
   <path id="path1873-7-5" d="m14.771 193.76c-3.3756 0.0252-5.2471 1.0253-7.1055 1.6113h-0.00586l-0.00586 2e-3c-1.7722 0.64201-4.181 1.0944-7.0527 1.0352l-0.011719 0.5625c2.9315 0.06041 5.3993-0.3978 7.2441-1.0645l0.011719-4e-3c1.9232-0.60807 3.6689-1.5557 6.9297-1.5801z" color="#000000" color-rendering="auto" dominant-baseline="auto" image-rendering="auto" shape-rendering="auto" solid-color="#000000" style="font-feature-settings:normal;font-variant-alternates:normal;font-variant-caps:normal;font-variant-ligatures:normal;font-variant-numeric:normal;font-variant-position:normal;isolation:auto;mix-blend-mode:normal;shape-padding:0;text-decoration-color:#000000;text-decoration-line:none;text-decoration-style:solid;text-indent:0;text-orientation:mixed;text-transform:none;white-space:normal"/>
   <g id="text2005-3" transform="matrix(.95322 0 0 .65788 .26371 68.64)">
    <g id="text427" transform="scale(1.1137 .89789)" stroke-linecap="square" stroke-miterlimit=".5" stroke-width=".35506" aria-label="HDF5">
     <path id="path506" d="m3.3926 220.75h-2.3486v2.0793h-0.58245v-4.5656h0.58245v1.9728h2.3486v-1.9728h0.58245v4.5656h-0.58245z"/>
     <path id="path503" d="m4.9771 222.83v-4.5656h1.7599q0.87054 0 1.3653 0.6075t0.49477 1.6722-0.50103 1.6785q-0.49477 0.6075-1.359 0.6075zm0.58245-0.51356h1.0772q0.67639 0 1.0271-0.45093 0.35072-0.45093 0.35072-1.3152 0-0.87054-0.35072-1.3215-0.35072-0.45092-1.0271-0.45092h-1.0772z"/>
     <path id="path500" d="m9.9311 220.75v2.0793h-0.58245v-4.5656h3.0626v0.51356h-2.4801v1.4592h2.1795v0.51356z"/>
     <path id="path497" d="m15.58 218.39v0.54487h-1.8476l-0.17536 1.24q0.36951-0.2693 0.82044-0.2693 0.63882 0 1.0334 0.41335 0.40082 0.40708 0.40082 1.0647 0 0.70144-0.42588 1.1461t-1.096 0.44466q-0.25678 0-0.47598-0.0564-0.21294-0.0564-0.35698-0.13152-0.13778-0.0814-0.25678-0.20668-0.11273-0.13152-0.17536-0.22546-0.05637-0.10021-0.11273-0.24426-0.0501-0.15031-0.06263-0.20667-0.01253-0.0564-0.03132-0.16284h0.55113q0.19415 0.74529 0.90812 0.74529 0.45093 0 0.70771-0.27557 0.26304-0.27557 0.26304-0.75155 0-0.49477-0.26304-0.7766-0.26304-0.28809-0.70771-0.28809-0.25678 0-0.4384 0.0939-0.18162 0.0877-0.37577 0.31941h-0.50729l0.33193-2.4175z"/>
    </g>
   </g>
  </g>
 </g>
</svg>
