<?xml version="1.0" encoding="UTF-8" standalone="no"?>
<svg
   xmlns:dc="http://purl.org/dc/elements/1.1/"
   xmlns:cc="http://creativecommons.org/ns#"
   xmlns:rdf="http://www.w3.org/1999/02/22-rdf-syntax-ns#"
   xmlns:svg="http://www.w3.org/2000/svg"
   xmlns="http://www.w3.org/2000/svg"
   xmlns:sodipodi="http://sodipodi.sourceforge.net/DTD/sodipodi-0.dtd"
   xmlns:inkscape="http://www.inkscape.org/namespaces/inkscape"
   version="1.1"
   width="210"
   height="100"
   viewBox="0 0 210 100"
   id="svg34"
   sodipodi:docname="gaussian.svg"
   inkscape:version="0.92.5 (2060ec1f9f, 2020-04-08)"
   inkscape:export-filename="/home/julia/Documents/git/darfix/src/orangecontrib/darfix/widgets/icons/gaussian.png"
   inkscape:export-xdpi="104"
   inkscape:export-ydpi="104">
  <metadata
     id="metadata40">
    <rdf:RDF>
      <cc:Work
         rdf:about="">
        <dc:format>image/svg+xml</dc:format>
        <dc:type
           rdf:resource="http://purl.org/dc/dcmitype/StillImage" />
        <dc:title>Gaussian distribution</dc:title>
      </cc:Work>
    </rdf:RDF>
  </metadata>
  <defs
     id="defs38">
    <filter
       inkscape:collect="always"
       style="color-interpolation-filters:sRGB"
       id="filter876">
      <feGaussianBlur
         inkscape:collect="always"
         stdDeviation="0.37912499"
         id="feGaussianBlur878" />
    </filter>
  </defs>
  <sodipodi:namedview
     pagecolor="#ffffff"
     bordercolor="#666666"
     borderopacity="1"
     objecttolerance="10"
     gridtolerance="10"
     guidetolerance="10"
     inkscape:pageopacity="0"
     inkscape:pageshadow="2"
     inkscape:window-width="1920"
     inkscape:window-height="1015"
     id="namedview36"
     showgrid="false"
     showguides="true"
     inkscape:guide-bbox="true"
     inkscape:zoom="5.2952381"
     inkscape:cx="23.087361"
     inkscape:cy="58.33403"
     inkscape:window-x="0"
     inkscape:window-y="0"
     inkscape:window-maximized="1"
     inkscape:current-layer="g4702">
    <sodipodi:guide
       position="47.004796,123.38759"
       orientation="0,1"
       id="guide892"
       inkscape:locked="false" />
  </sodipodi:namedview>
  <title
     id="title2">Gaussian distribution</title>
  <g
     id="g982"
     transform="matrix(0.7521579,0,0,1,1.2392105,0)"
     inkscape:export-xdpi="104"
     inkscape:export-ydpi="104">
    <g
       id="g4702"
       inkscape:export-xdpi="104"
       inkscape:export-ydpi="104"
       transform="translate(0.50215233,4.1546763)">
      <line
         stroke-miterlimit="10"
         x1="5"
         y1="82.482002"
         x2="170.57153"
         y2="82.482002"
         id="line10"
         style="fill:none;stroke:#000000;stroke-width:3.26875901;stroke-linecap:round;stroke-linejoin:round;stroke-miterlimit:9.25;stroke-dasharray:none"
         inkscape:export-xdpi="104"
         inkscape:export-ydpi="104" />
      <line
         x1="80.049004"
         y1="35.036999"
         x2="80.049004"
         y2="85.586998"
         id="line12"
         style="fill:none;stroke:#ed1c24;stroke-width:1.59547937;stroke-linecap:round;stroke-miterlimit:9.25;stroke-dasharray:none;paint-order:normal;filter:url(#filter876)"
         transform="matrix(0.82802322,0,0,1,0.85988388,0)"
         inkscape:export-xdpi="104"
         inkscape:export-ydpi="104" />
      <path
         stroke-miterlimit="10"
         d="m 5.0645858,82.456 c 3.7352128,-0.019 7.4695972,-0.058 11.2031542,-0.175 3.570436,-0.113 7.153293,-0.297 10.700544,-0.836 3.755914,-0.572 7.444757,-1.522 10.980416,-3.25 3.523239,-1.723 6.637434,-4.334 9.514815,-7.389 2.797062,-2.968 5.244699,-6.613 7.39756,-10.324 2.21579,-3.817 4.269287,-7.777 6.175397,-11.854 1.964071,-4.2 3.84534,-8.458 5.710048,-12.729 1.828275,-4.187 3.659035,-8.368 5.560176,-12.502 1.858084,-4.042 3.86604,-8.055 6.216798,-11.674 1.218022,-1.875 2.560248,-3.546 4.062282,-5.054 1.461461,-1.467 3.225979,-2.293 5.07247,-2.468 1.872989,-0.177 3.649927,0.98 5.160241,2.234 1.545092,1.283 2.83184,3.086 4.025021,4.844 2.461713,3.619 4.442342,7.744 6.379092,11.822 1.87713,3.953 3.61184,8.014 5.37304,12.049 1.85477,4.25 3.70872,8.502 5.66451,12.682 1.89617,4.056 3.88343,8.058 6.08928,11.858 2.26133,3.898 4.73961,7.564 7.58387,10.809 2.79706,3.188 5.99074,5.673 9.45354,7.527 3.33196,1.785 6.98851,2.759 10.5722,3.305 3.68387,0.563 7.37934,0.803 11.08723,0.938 3.66483,0.135 7.33297,0.164 10.99946,0.185 0.18796,0 0.37178,0.002 0.55809,0.003"
         id="path18"
         style="fill:none;stroke:#0071bc;stroke-width:3.26875901;stroke-linecap:round;stroke-linejoin:round;stroke-miterlimit:9.25;stroke-dasharray:13.07503563, 6.53751781, 3.26875891, 6.53751781;stroke-dashoffset:0"
         inkscape:connector-curvature="0"
         inkscape:export-xdpi="104"
         inkscape:export-ydpi="104" />
      <path
         d="m 110.64193,86.093072 c 0.3072,0.261 0.48522,0.717 0.48522,1.191 0,1.16 -0.65827,1.67 -1.25197,1.67 -0.70216,0 -1.25362,-0.619 -1.25362,-1.617 0,-1.057 0.55643,-1.676 1.34388,-1.676 0.14573,0 0.42726,0 0.50178,0 h 0.28732 c 0.17803,0 0.49019,0.006 0.58707,-0.007 l -0.0157,0.438 c -0.12338,0 -0.30223,0 -0.6856,-0.021 z m 0.0166,1.194 c 0,-0.529 -0.22605,-1.193 -0.76675,-1.193 -0.5407,0 -0.78248,0.627 -0.78248,1.22 0,0.69 0.32873,1.213 0.78248,1.213 0.42478,-0.002 0.76675,-0.523 0.76675,-1.24 z"
         id="path26"
         inkscape:connector-curvature="0"
         style="fill:#ed1c24;stroke-width:0.90995783;stroke-miterlimit:9.25;stroke-dasharray:none"
         inkscape:export-xdpi="104"
         inkscape:export-ydpi="104" />
      <path
         d="m 69.334685,86.066497 c 0.308025,0.261 0.48605,0.717 0.48605,1.191 0,1.16 -0.659107,1.67 -1.252799,1.67 -0.702164,0 -1.251971,-0.619 -1.251971,-1.617 0,-1.055 0.555603,-1.676 1.343881,-1.676 0.145732,0 0.426432,0 0.500954,0 h 0.286496 c 0.178025,0 0.491018,0.008 0.588725,-0.007 l -0.01656,0.438 c -0.124203,0 -0.302228,0 -0.685603,-0.02 z m 0.01573,1.194 c 0,-0.527 -0.226051,-1.193 -0.76675,-1.193 -0.539043,0 -0.782482,0.627 -0.782482,1.22 0,0.69 0.328725,1.213 0.782482,1.213 0.426432,-0.002 0.76675,-0.524 0.76675,-1.24 z"
         id="path32"
         inkscape:connector-curvature="0"
         style="fill:#ed1c24;fill-opacity:1;stroke-width:0.90995783;stroke-miterlimit:9.25;stroke-dasharray:none"
         inkscape:export-xdpi="104"
         inkscape:export-ydpi="104" />
      <text
         xml:space="preserve"
         style="font-style:normal;font-weight:normal;font-size:5.4450407px;line-height:1.25;font-family:sans-serif;letter-spacing:0px;word-spacing:0px;fill:#ed1c24;fill-opacity:1;stroke:none;stroke-width:0.13612601;stroke-miterlimit:9.25;stroke-dasharray:none"
         x="68.739227"
         y="80.964088"
         id="text44"
         inkscape:transform-center-x="-19.880639"
         inkscape:transform-center-y="5.1633884"
         transform="scale(0.90995783,1.098952)"
         inkscape:export-xdpi="104"
         inkscape:export-ydpi="104"><tspan
           sodipodi:role="line"
           id="tspan42"
           x="68.739227"
           y="80.964088"
           style="fill:#ed1c24;fill-opacity:1;stroke-width:0.13612601;stroke-miterlimit:9.25;stroke-dasharray:none">-n</tspan></text>
      <text
         inkscape:transform-center-y="5.1633827"
         inkscape:transform-center-x="-19.880641"
         id="text48"
         y="80.989243"
         x="116.11115"
         style="font-style:normal;font-weight:normal;font-size:5.4450407px;line-height:1.25;font-family:sans-serif;letter-spacing:0px;word-spacing:0px;fill:#ed1c24;fill-opacity:1;stroke:none;stroke-width:0.13612601;stroke-miterlimit:9.25;stroke-dasharray:none"
         xml:space="preserve"
         transform="scale(0.90995783,1.098952)"
         inkscape:export-xdpi="104"
         inkscape:export-ydpi="104"><tspan
           style="fill:#ed1c24;fill-opacity:1;stroke-width:0.13612601;stroke-miterlimit:9.25;stroke-dasharray:none"
           y="80.989243"
           x="116.11115"
           id="tspan46"
           sodipodi:role="line">n</tspan></text>
      <text
         xml:space="preserve"
         style="font-style:normal;font-weight:normal;font-size:4.748909px;line-height:1.25;font-family:sans-serif;letter-spacing:0px;word-spacing:0px;fill:#39b54a;fill-opacity:1;stroke:none;stroke-width:0.11872273;stroke-miterlimit:9.25;stroke-dasharray:none"
         x="95.08316"
         y="80.8116"
         id="text52"
         transform="scale(0.90995783,1.098952)"
         inkscape:export-xdpi="104"
         inkscape:export-ydpi="104"><tspan
           sodipodi:role="line"
           id="tspan50"
           x="95.08316"
           y="80.8116"
           style="fill:#39b54a;fill-opacity:1;stroke-width:0.11872273;stroke-miterlimit:9.25;stroke-dasharray:none">0</tspan></text>
      <path
         id="path54"
         d="m 5.0645853,82.456002 c 3.7352128,-0.019 7.4695967,-0.058 11.2031547,-0.175 3.570436,-0.113 7.153293,-0.297 10.700544,-0.836 C 30.724198,80.873 34.413041,79.923 37.9487,78.195 c 3.523239,-1.723 6.637434,-4.334 9.514815,-7.389 2.797062,-2.968 5.244699,-6.613 7.39756,-10.324 2.21579,-3.817 4.269287,-7.777 6.175397,-11.854 1.964071,-4.2 4.241138,-9.320001 6.105846,-13.591001 l 0.06428,47.457942 c 0.258823,0.0013 41.297732,0.01018 41.297732,0.01018 L 108.59564,35.15 c 1.85477,4.25 3.70872,8.502 5.66451,12.682 1.89617,4.056 3.88343,8.058 6.08928,11.858 2.26133,3.898 4.73961,7.564 7.58387,10.809 2.79706,3.188 5.99074,5.673 9.45354,7.527 3.33196,1.785 6.98851,2.759 10.5722,3.305002 3.68387,0.563 7.37934,0.803 11.08723,0.938 3.66483,0.135 7.33297,0.164 10.99946,0.185 0.18796,0 0.37178,0.002 0.55809,0.003"
         stroke-miterlimit="10"
         inkscape:connector-curvature="0"
         style="fill:none;fill-opacity:1;stroke:#e1413d;stroke-width:3.26875901;stroke-linecap:round;stroke-linejoin:round;stroke-miterlimit:9.25;stroke-dasharray:none;stroke-opacity:1;paint-order:markers stroke fill"
         sodipodi:nodetypes="ccccccccccccccccccc"
         inkscape:export-xdpi="104"
         inkscape:export-ydpi="104" />
    </g>
  </g>
</svg>
