<?xml version="1.0" encoding="UTF-8"?><svg id="Layer_2" xmlns="http://www.w3.org/2000/svg" viewBox="0 0 396.2 229.81"><defs><style>.cls-1{fill:#000;}.cls-1,.cls-2,.cls-3,.cls-4{stroke-width:0px;}.cls-2{fill:#5f82f2;}.cls-3{fill:#f25e5e;}.cls-4{fill:#5e81f2;}</style></defs><g id="Vector_layer"><path class="cls-1" d="M357.28,62.52c7.3-3.64,15.4-5.23,22.74-8.75,2.19-1.25,5.47-2.75,6-5.43.72-4.94-2.75-8.77-5.79-12.19-7.13-8.38-10.76-19.52-19.38-26.66-6.07-4.91-13.88-4.63-21.21-3.78-6.02.92-11.04,4.84-15.8,8.37-1.51,1.29-2.91,2.62-4.25,4.07-.3.26-.65.76-1.05.76,1-.54,1.52-1.73,2.31-2.55.6-.74,1.22-1.44,1.86-2.14,3.32-3.5,7.02-6.67,10.99-9.41,4.75-3.01,10.51-3.83,15.98-4.66,13.49-1.41,21.86,7.07,29.36,17,2.39,3.2,4.54,6.59,6.99,9.76,2.76,3.34,6.04,6.32,8.04,10.21,1.67,3.1,2.3,6.68,2.09,10.17-.14,9.03-9.18,13.66-16.63,16.34-8.38,2.93-17.24,4.35-25.38,8.01-9.36,4-17.09,10.84-25.42,16.45,8.24-9.81,16.51-20.29,28.54-25.56Z"/><path class="cls-1" d="M338.36,76.92c.82-.89,1.66-1.76,2.51-2.61.6,1.38,1.08,2.73,1.45,4.08-1.27.88-2.53,1.78-3.79,2.68.05-1.38,0-2.76-.17-4.14Z"/><path class="cls-3" d="M63.47,172.27c-1.34-.08-2.67-.2-4-.35-1.88-.22-3.75-.52-5.6-.89-30.29-5.56-32.84-44.05-16.99-65.11,2.27-3.31,5.09-6.27,7.89-9.1-4.05-28.83,38.39-50.03,64.66-41.03,1.7.55,3.4,1.17,5.08,1.84,3.79-6.33,10.42-11.68,15.81-15.87,16.87-13.15,40.25-15.95,60.17-8.66,2.74,1.12,5.21,2.98,7.13,5.2,5.74-6.81,13.61-11.95,22.04-14.78,17.3-8.22,38.14-5.93,54.51,3.45,1.77.99,3.53,2.07,5.2,3.27,8.31-13.96,24.39-23.28,40.86-21.88,1.29.01,2.57.01,3.86,0-1.79.81-3.74,1.48-5.64,2.09-3.1.98-6.24,1.8-9.24,3.07-5.59,2.48-10.7,5.87-15.55,9.56-7.37,5.68-14.11,12.65-17.65,21.4-.93,2.6-2.63,6.87-1.55,9.5.06.02.12.04.16.05.2-.05.38-.17.55-.27-.25.25-.77.57-1,.07-1.28-3.25-.48-7.01.09-10.35.84-4.3,2.39-8.41,4.5-12.19-4.96-1.58-10.14-2.47-15.3-3.2-15.77-2.12-32.15,1.17-46.96,5.82-11.51,2.84-23.21,10.6-27.51,21.95.01.04,0,.24-.05.18,1.28-6.62,4.36-12.6,8.6-17.66-4.39-2.71-9.65-2.89-14.68-2.85-19.19.11-38.43,4.38-54.92,14.46-3.72,2.4-7.89,5.16-11.13,8.55,1.33.56,2.65,1.15,3.94,1.75-1.67-.21-3.33-.41-5-.57-2.05,2.4-3.6,5.11-4.23,8.21-.06-2.96.7-5.77,1.99-8.43-3.02-.27-6.05-.44-9.09-.45-20.75,1.84-54.93,13.13-57.6,35.7.04-.04.08-.07.12-.12-.04.07-.09.14-.12.2-.47,4.07.09,8.5,1.94,13.32-2.01-3.6-3.25-7.14-3.83-10.57-1.12,1.56-2.25,3.14-3.16,4.84-8.7,14.61-7.76,34.27-.41,49.24,6.24,10.62,18.09,15.38,28.57,20.73-.46,0-.93,0-1.4,0-1.67,0-3.35-.05-5.03-.15Z"/><path class="cls-4" d="M243.02,191.96c-7.3-1.39-13.86-5.04-20.39-8.32,0-.01-.02-.03-.03-.04,31.72,12.22,46.56,1.19,69.08-21.57,2.76-2.66,5.56-5.36,8.38-7.96-4.49.76-9.04.52-13.33-1.12-3.59-1.4-6.81-3.77-9.05-6.73,18.2,15.3,43.74-9.54,47.29-28.08.13-.62.25-1.22.38-1.81.08-.41.16-.82.24-1.22.03-.18.07-.36.1-.55.12-.67.25-1.31.36-1.92.03-.19.06-.36.1-.55.07-.45.15-.88.22-1.29,1.05-6.08,1.24-8.15,2.02-3.3.02.08.04.16.05.25.01.08.02.17.04.25.19,1.22.41,2.82.68,4.81.18,1.34.39,2.85.62,4.56.27,8.99-2.2,18.45-8.23,25.31-5.33,5.2-12.68,9.6-20.34,11.18-1.75,2.76-3.55,5.49-5.44,8.16-10.09,15.02-25.26,31.09-44,31.1-2.83,0-5.75-.37-8.73-1.16Z"/><path class="cls-4" d="M151.15,185.54c.04-.31.09-.66.21-.91-.16.54-.12,1.09.13,1.58.67,1.24,1.72,2.12,2.93,2.79-.26.22-.53.43-.79.64-1.29-1.18-2.2-2.54-2.48-4.09Z"/><path class="cls-1" d="M95.81,138.46c-.56-.04-1.11-.08-1.67-.15-2.21-.25-4.36-.75-6.41-1.46-5.98-2.19-11.81-6.21-14.29-12.27-3.54-9.59,5.4-17.97,12.73-22.73-2.2.46-4.46.98-6.62,1.45,1.6-.89,3.22-1.75,4.86-2.57,10.29-5.59,20.75-8.34,29.69,1.28,7.48,7.74,8.86,21.07,1.44,29.31-4.54,4.97-11.21,7.2-17.88,7.2-.62,0-1.23-.02-1.85-.05ZM88.14,101.42c-3.23,2.06-5.96,4.83-8.3,7.85-9.49,12.17,1.04,20.05,13.13,21.8,12.02,1.44,21.74-5.89,18.52-18.61-2.05-7.5-8.42-13.2-16.49-12.06.01.03-.01.04-.01.01h0c-2.32.1-4.59.52-6.85,1.01Z"/><path class="cls-1" d="M122.26,167.57c-.31-.02-.62-.05-.95-.09-1.57-.18-3.12-.58-4.62-1.23-7.98-2.79-9.29-12.79-4.52-19.05,4.75-7.07,13.41-10.4,21.61-11.27,7.55-1.39,17.23,2.77,15.78,11.74-1.07,6.47-6.35,11.17-9.91,16.37.96-2.05,1.99-4.2,3-6.26-4.61,5.45-11.98,9.82-19.29,9.82-.36,0-.73-.02-1.09-.04ZM120.91,148.4c-7.82,5.94-6.69,14.29,3.48,15.88,7.3.23,16.95-2.76,19.91-9.99,1.84-3.78,3.18-9.99-1.68-12.02-.51-.11-1.03-.18-1.55-.24-.34-.04-.69-.07-1.04-.09-.41-.02-.81-.04-1.22-.04-6.36,0-12.83,2.95-17.9,6.5Z"/><path class="cls-1" d="M103.45,222.04s0,0,0,0c.19-.77.44-1.53.63-2.29.11-.42.19-.87.24-1.29-.01-.16.01-.3.04-.45.08-.47.18-.94.28-1.41.26-1.2.52-2.38.79-3.58.52-2.3,1.12-4.59,1.74-6.87,1.36-5,2.88-9.96,4.52-14.87,1.33-3.95,2.79-7.84,4.32-11.64,1.86-4.66,3.81-9.28,5.82-13.88,1.75-4,3.58-7.96,5.29-11.97,0-.01.02,0,.01,0-1.21,4.54-2.32,9.11-3.51,13.65-1.35,5.14-2.78,10.26-4.3,15.34-2.92,9.72-6.54,19.25-10.7,28.5-.7,1.54-1.43,3.06-2.17,4.59-.32.68-.67,1.35-1,2.03-.13.26-.26.55-.45.77,0,.01,0,.02-.02.03-.17.29-.3.57-.46.85-.43.79-.7,1.67-1.06,2.49h0s0,0,0,0Z"/><path class="cls-1" d="M103.45,222.05c.19-.78.44-1.53.64-2.29.11-.43.18-.87.24-1.3,0-.02,0-.04,0-.06.5-.45,1.02-.89,1.55-1.32-.14.27-.27.55-.41.83-.12.26-.25.55-.45.77,0,.01-.01.02-.02.02-.16.29-.3.58-.46.85-.43.79-.7,1.67-1.06,2.49,0,0,0,0,0,0,0,0,0,0,0,0Z"/><path class="cls-1" d="M241.09,170.94c-.43-.03-.87-.07-1.31-.12-1.82-.21-3.71-.63-5.67-1.3-14.42-4.55-13.12-21.15.78-24.98,4.57-.59,10.08-1.86,14.05,1.15.56.45,1.12,1.07,1.54,1.6-1.55-1.4-3.57-2.38-5.7-2.28-3.98.36-8.27,1.12-11.64,3.35-3.9,3.08-6.59,9.72-1.54,13.05,6.16,4.11,16.48,5.63,21.89-.38,5.77-7.19-1.86-14.33-7.14-18.91,21.34,9.22,13.3,28.88-3.88,28.88-.46,0-.92-.01-1.4-.04Z"/><path class="cls-1" d="M102.96,229.81c-.58-.04-1.16-.31-1.65-.93-.98-1.44-.95-3.29-1.33-4.95-.83-4.88-1.79-9.77-3.58-14.4,2.75,3.57,4.55,8.51,6.68,12.69,3.94-4.93,9.19-8.82,14.98-11.28-1.43,2.19-3.12,4.34-4.7,6.46-2.53,3.39-4.96,6.86-7.38,10.33-.59,1.15-1.75,2.07-2.9,2.07-.05,0-.09,0-.13,0Z"/><path class="cls-1" d="M259.62,220.38c-.66-.04-1.29-.35-1.71-1-4.1-5.03-7.05-11.36-12-15.56-.09.01-.18.02-.27.03.62,1.05-.46,0-.15-.24,4.2-.25,9.27,6.33,12.79,8.64,2.34-6.25,7.27-10.81,10.94-16.16-.43,6.21-3.53,11.78-5.42,17.61-.64,1.71-.84,3.54-1.59,5.19-.47.93-1.48,1.49-2.45,1.49-.04,0-.09,0-.13,0Z"/><path class="cls-1" d="M259.23,216.54s-.03,0-.04-.03c-2.29-5.37-4.43-10.79-6.33-16.3-1.31-3.81-2.51-7.66-3.59-11.54-1.1-4-1.99-8.05-2.84-12.11-.84-4-1.61-8-2.36-12.02-.36-1.9-.7-3.81-1.05-5.7-.21-1.15-.45-2.3-.61-3.46,0,0,.01-.02.02,0,2.51,6.72,5.06,13.42,7.39,20.21,1.32,3.84,2.58,7.7,3.66,11.61,1.07,3.9,1.99,7.84,2.82,11.8,1.21,5.79,2.18,11.62,2.97,17.49,0,.03-.02.07-.04.07,0,0,0,0,0,0Z"/><path class="cls-1" d="M4.32,149.27c-5.45-.83-5.26-4.58-2.11-8.17,2.99-4.8,7.01-8.86,9.79-13.69-1.2,5.14-5.07,10.98-6.82,16.5,6.04,1.73,12.03,5.51,14.88,11.24-4.8-3.13-10.22-4.66-15.73-5.88Z"/><path class="cls-1" d="M1.87,144.78s-.04-.06,0-.07c.68-.34,1.41-.61,2.11-.91,1.51-.66,3.01-1.32,4.52-1.98,3.46-1.51,6.92-3.03,10.4-4.51,6.84-2.92,13.71-5.78,20.7-8.32,3.83-1.38,7.68-2.7,11.58-3.87,3.49-1.05,7.01-2.01,10.53-2.92,7.1-1.83,14.27-3.3,21.46-4.71,4.29-.84,8.6-1.6,12.9-2.39,0,0,.01.02,0,.02-11.55,5.21-23.07,10.49-34.99,14.83-3.65,1.32-7.33,2.6-11.03,3.78-3.67,1.17-7.4,2.18-11.13,3.14-7.09,1.82-14.23,3.34-21.41,4.79-3.23.66-6.47,1.3-9.7,1.94-1.37.27-2.75.54-4.13.81-.59.12-1.2.28-1.79.36h0Z"/><path class="cls-1" d="M97.73,196.78c-3.98-1.95-7.62-4.32-11.04-7.13-1.57-1.3-3.06-2.79-4.4-4.32-1.42-1.61-2.79-3.26-3.95-5.06-1.85-2.87-3.42-5.89-4.55-9.12-.63-1.82-1.27-3.75-1.56-5.66,0,0,.02-.02.02,0,.14.45.32.89.49,1.33h0s0,0,0,.01c.48,1.21,1.04,2.38,1.64,3.52.86,1.55,1.82,3,2.85,4.43,1.02,1.29,2.08,2.5,3.2,3.68,1.4,1.34,2.84,2.58,4.37,3.77,1.42,1,2.86,1.92,4.37,2.79,2.48,1.28,4.99,2.35,7.62,3.27,2.71.82,5.44,1.47,8.23,1.97,4.82.68,9.64,1.04,14.51,1.02,5.56-.18,11.04-.75,16.53-1.71,5.27-1.05,10.44-2.38,15.52-4.17.24-.09.49-.18.66-.25,2.31-.88,4.61-1.79,6.85-2.82,1.16-.53,2.34-1.04,3.46-1.64,0,0,.01,0,0,.02-1.69,2.05-3.41,4.03-5.36,5.85-2.85,2.68-6.02,5.07-9.39,7.07-3.78,2.25-7.73,4.05-11.91,5.45-4.16,1.39-8.54,2.15-12.91,2.48-1.24.1-2.49.14-3.74.14-7.41,0-14.9-1.65-21.54-4.91Z"/><path class="cls-2" d="M177.53,193.12c-3.36-.87-6.65-1.98-9.81-3.42-2.86-1.31-5.61-2.89-7.97-4.97,0,0,0-.02,0-.02h0s0,0,0,0c.82.55,1.7,1.02,2.59,1.46h0c1.69.78,3.43,1.39,5.21,1.9h0,.04c2.52.66,5.05,1.07,7.64,1.35,4.73.42,9.45.36,14.18.1,3.75-.28,7.49-.65,11.22-1.15,3.83-.51,7.62-1.24,11.39-2.09.32-.08.65-.16.97-.23,2.96-.77,5.88-1.66,8.51-2.72.32-.14.65-.27.77-.33,1.22-.55,2.39-1.15,3.53-1.83.74-.48,1.45-.98,2.06-1.48.49-.43.96-.88,1.38-1.33.25-.29.5-.58.71-.89.22-.34.41-.69.61-1.03,0-.02.04,0,.03.02h0c-.41,1.72-1.12,3.21-2.12,4.68-1.95,2.87-4.82,5.22-7.77,7.01-6.54,3.96-14,6-21.57,6.75-1.87.19-3.76.27-5.65.27-5.38,0-10.8-.73-15.98-2.06Z"/></g></svg>