<?xml version="1.0" encoding="UTF-8"?>
<svg id="Layer_1" data-name="Layer 1" xmlns="http://www.w3.org/2000/svg" viewBox="0 0 260.51 65.87">
  <path d="M57.86,35.97l.15.12c.3-.46.38-.79.44-1.33.03-.08.06-.17.09-.25.07-.31,0-.52-.09-.82l.12-.15-.03-.26q.05-.09.1-.18c.15-.33.23-.64.22-1q-.16-.3-.33-.5.15-.23.36-.31l.04-.21-.15-.12.12-.15-.15-.12c.01-.06.03-.12.04-.18.18-1.02-.15-2.16-.4-3.15q-.03-.2.06-.42c.07-.31.04-.46-.06-.76-.03-.09-.06-.18-.09-.28-.03-.09-.06-.19-.1-.28-.03-.09-.06-.19-.09-.29q-.23-.7-.49-.9l.12-.15c-.1-.21-.19-.42-.29-.63-.03-.06-.05-.12-.08-.18-.19-.39-.41-.72-.67-1.08-.07-.12-.13-.23-.19-.35-1.04-1.97-2.65-3.76-4.34-5.2-.05-.04-.1-.09-.16-.13-1.3-1.11-2.81-1.93-4.34-2.68-.46-.23-.9-.48-1.33-.75l-.17.22c-.15-.16-.31-.32-.46-.48-.06.03-.13.06-.19.09-.2-.1-.39-.21-.58-.33-.08.05-.16.11-.25.17-.19-.07-.38-.13-.56-.2-.95-.31-1.97-.43-2.96-.59-.08-.01-.16-.02-.24-.04-.44-.07-.89-.13-1.34-.14l-.12.15c-.07-.02-.14-.05-.21-.07-.32-.08-.56-.06-.88-.03-.39.03-.78.06-1.17.08-.59.03-1.18.12-1.75.26l-.12.15-.15-.12c-.6.09-1.27.25-1.65.75-.12-.05-.23-.1-.36-.16l-.17.22.3.23c-.08.05-.16.11-.25.17-.09-.03-.19-.07-.28-.1-.06.07-.11.13-.17.2-.33.32-.73.48-1.15.67-.39.19-.77.4-1.14.62q-.22.13-.45.23c-.05.03-.11.06-.16.09-.01.07-.03.14-.04.21l.15.12q.23-.07.51-.19t.28-.11c.14-.06.29-.12.43-.19-.1.06-.19.11-.29.17-2.73,1.63-4.73,3.76-6.71,6.22l-.24-.31.23-.3-.22-.17q.1-.11.19-.23c.2-.27.3-.45.35-.78-.05-.08-.11-.16-.17-.25-.23.17-.38.33-.53.57-.04.07-.08.13-.12.2-.04.07-.08.14-.13.21q-.06.1-.13.2c-.26.42-.47.85-.66,1.31l.22.17c-.07.19-.13.37-.2.56-.09.01-.17.02-.26.03q-.16.19-.29.37l.3.23c-.04.1-.08.2-.12.31-.31.83-.54,1.63-.67,2.51-.1.64-.27,1.23-.48,1.84-.26.81-.38,1.56-.42,2.41,0,.1-.01.2-.02.3-.03.61,0,1.18.1,1.78.16.05.32.09.49.14l-.12.15.15.12-.12.15s.01.09.02.13c-.09-.03-.19-.07-.28-.1-.03.61-.03,1.2.16,1.79l.15.12-.12.15c.13.14.26.28.39.42.06-.03.13-.06.19-.09.02.13.03.26.05.4l-.21-.04c-.15.24-.16.35-.11.63.03.1.06.2.09.31.02.11.05.21.07.32q.07.26.22.38-.03.09-.05.18c-.04.29.02.42.14.68q.06.12.12.25c.04.08.08.17.12.26.04.09.08.17.12.26.1.21.2.42.3.64-.05-.08-.1-.15-.15-.23q-.18-.26-.48-.49l-.23.3c.03.06.06.13.09.19-.12-.05-.23-.1-.36-.16l-.12.15q.25.56.42.69l-.12.15c-.03-.07-.07-.14-.1-.21-.05-.09-.09-.18-.14-.27-.04-.09-.09-.18-.13-.27-.17-.27-.34-.42-.61-.6-.02.06-.04.11-.07.17q-.08.2-.28.27c-.06.31.09.44.25.7.33.53.63,1.06.93,1.61.05.09.1.18.15.28.04.07.08.14.11.21.16.26.35.48.55.71.24.29.46.6.69.91q.54.73.82,1.05l-.29.37q.32.19.65.39l.12-.15q.05.07.1.13c.15.18.31.33.49.48.07.06.13.11.2.17.07.06.14.12.21.18.07.06.14.12.21.18.17.15.35.3.52.44-.22-.13-.43-.26-.65-.39-.03.09-.07.19-.1.28q2.85,2.28,3.97,2.73l.12-.15c.04.05.08.11.12.16,1.29,1.33,4.34,1.49,6.07,1.61.11,0,.21.02.32.02.59.04,1.15.02,1.74-.07.24-.03.47-.05.71-.05.76-.04,1.5-.2,2.24-.33.2-.04.39-.07.59-.1.06-.01.13-.02.19-.03.34-.06.67-.09,1.02-.09.7-.03,1.36-.3,2.02-.52.25-.09.51-.17.76-.25.17-.06.34-.11.52-.17.08-.03.16-.05.24-.08.87-.29,1.39-.65,1.95-1.36.37-.46.73-.86,1.2-1.23.21-.18.35-.38.49-.61.05-.08.1-.16.15-.24.13-.24.2-.46.27-.72l-.15-.12c.04-.08.08-.17.12-.25q.08-.31-.03-.54-.07-.1-.14-.21-.04-.21-.05-.4c-.03-.06-.06-.13-.09-.19.03-.09.07-.19.1-.28q-.09-.13-.19-.25c-.25-.34-.25-.55-.3-.96-.22-.51-.52-.9-1.02-1.15-.58-.18-1.11-.17-1.71-.09q-.12.02-.24.03c-.78.12-1.48.34-2.2.65-.08.04-.17.07-.26.11-.59.28-1.1.66-1.63,1.04q-.11.08-.22.16c-.07.05-.14.1-.21.15-.06.05-.12.09-.19.14-.18.16-.32.32-.46.52.01.06.02.12.03.19q.04.23-.16.46c-.45.49-.85.92-1.45,1.23-.08.05-.16.1-.24.16q-.21.13-.54.08-.2.16-.36.31l-.15-.12-.12.15-.15-.12-.12.15c-.06-.01-.11-.02-.17-.04-.27-.05-.54-.08-.81-.12-.1-.01-.2-.02-.3-.03-.07,0-.15-.02-.22-.03l-.02-.13c.14-.08.29-.17.44-.26-.4-.15-.74-.14-1.16-.1q-.22.02-.48-.09l.12-.15c.2,0,.4,0,.6.02.98.04,1.52,0,2.28-.65l.12-.15c-.4-.21-.72-.11-1.14-.03-1.03.19-1.86.12-2.86-.21l-.12.15q-.07-.04-.14-.07c-.25-.1-.49-.15-.75-.2-.09-.02-.19-.04-.28-.05q-.11-.02-.21-.04l.12-.15c-.5-.24-.99-.47-1.5-.69.2.04.41.08.62.12l.04-.21c-.32-.19-.63-.36-.97-.51-.45-.22-.86-.5-1.27-.79-.26-.18-.52-.35-.8-.49-.55-.37-1.01-.94-1.27-1.56l.17-.22c-.12-.21-.24-.42-.37-.63-.09-.16-.18-.31-.27-.47-.35-.61-.72-1.2-1.11-1.79q-.23-.32-.25-.69-.1-.21-.24-.44c-.05-.08-.09-.16-.14-.24q-.13-.2-.28-.31.04-.08.08-.15c.09-.24.06-.33-.03-.57-.13-.36-.17-.69-.21-1.07-.02-.14-.03-.27-.05-.41,0-.07-.02-.14-.03-.21l-.12-.97.09.19c.12.1.25.2.37.29.13-.26.18-.47.2-.75,0-.08.01-.15.02-.23,0-.08.01-.16.02-.25.07-.89.16-1.78.28-2.67.01-.11.03-.21.04-.32.18-1.22.63-2.26,1.19-3.35.08-.16.16-.32.24-.48,1.11-2.11,2.93-3.92,4.64-5.55l.15.12c.46-.27.81-.48,1.02-1l.22.17.12-.15-.15-.12c1.23-.78,2.5-1.27,3.89-1.7.23-.09.38-.17.56-.34q-.13-.09-.36-.16c-.25.06-.49.13-.73.21-.07.02-.13.04-.2.07-.16.05-.33.11-.49.17.49-.22.95-.4,1.48-.52l.12-.15.15.12c.18-.04.36-.08.54-.13.38-.1.74-.17,1.13-.18.12,0,.24,0,.37-.01l.12-.15q.08.02.17.04c.41.07.81.06,1.22.07.32.01.59.03.88.18.3.12.6.12.91.13,2.91.23,5.95,1.91,7.99,3.96q.07.07.15.15c2.01,2,3.48,4.26,4.34,6.97q.14.43.3.55l-.12.15q.1.56.29.7l-.12.15.15.12-.12.15q.02.23.07.5.02.13.05.27.04.11.07.22c.09.03.19.07.28.1.03-.09.07-.19.1-.28,0,.25,0,.51,0,.76q0,.11,0,.22,0,.39-.05.77l.15.12c-.02.06-.04.13-.06.19-.1.39-.14.77-.18,1.16-.1.82-.27,1.58-.5,2.37-.02.08-.04.16-.06.25-.15.6-.4,1.15-.68,1.71q-.28.57-.18.91l.54-.54c-.47,1.37-1.31,2.76-2.2,3.91-.09.01-.18.03-.28.04q-.31.1-.51.4c-.04.09-.08.19-.13.28q.3.23.5.27c.22-.18.41-.39.62-.59q.21-.2.47-.27c.32-.14.46-.3.68-.57.07-.09.15-.18.22-.27.08-.09.15-.19.23-.29.15-.19.3-.37.45-.56q.1-.12.2-.25.17-.21.42-.37c.09-.21.15-.43.22-.65q.07-.22.33-.36c-.6,1.29-1.2,2.56-1.99,3.74q-.19.29-.29.57l.15.12c1.79-1.3,2.6-4.04,3.27-6.06ZM35.84,46.32c-.15-.02-.3-.04-.46-.06-.08-.01-.17-.02-.26-.03-.27-.07-.41-.17-.62-.35.54-.03,1.04.05,1.56.14l-.23.3ZM30.54,49.61q-.43-.12-.73-.45c.26.12.52.25.79.37l-.06.07ZM29.69,49.31l-.17-.25.17.25ZM29.05,49.06l-.24-.31.24.31ZM27.9,48.4l-.09-.19.09.19ZM30.44,42.97l-.17-.25.17.25ZM46.6,15.87l-.09-.19.09.19ZM26.01,38.68l-.09-.19.09.19ZM26.04,37.87c-.09-.03-.19-.07-.28-.1l-.12.15c-.19-.22-.25-.35-.35-.63l.15.12c-.03-.42-.14-.73-.34-1.1q.3.07.42.35c.05.1.09.2.14.31.05.1.09.2.14.31q.13.28.23.6ZM23.27,40.98l-.09-.19.09.19ZM23.1,40.73l-.09-.19.09.19ZM23.01,40.54l-.09-.19.09.19ZM22.85,40.29l-.18-.38c.08.1.16.2.24.31l-.06.07ZM25.16,36.24c-.44-.73-.9-1.55-.78-2.43.02-.05.03-.11.05-.17l-.15-.12c.03-.09.07-.19.1-.28.19.34.25.68.33,1.06.12.57.27,1.12.45,1.67.02.07.04.13.06.2l-.06.07ZM22.61,38.91l-.09-.19.09.19ZM22.5,38.59l-.09-.19.09.19ZM22.41,38.4q-.18-.31-.35-.63c.08-.05.16-.11.25-.17l-.12.15c.04.07.09.14.13.21q.15.22.08.44ZM20.75,39.61l-.17-.25.17.25ZM24.38,33.24q-.05-.16-.11-.32c.06-.03.13-.06.19-.09-.03.14-.05.27-.08.41ZM24.9,31.5l-.18-.38c.08-.05.16-.11.25-.17-.02.18-.04.36-.07.55ZM21.65,35.06l-.09-.19.09.19ZM21.51,34.48l-.09-.19.09.19ZM21.48,34.21l-.09-.19.09.19ZM21.36,33.76l-.03-.26.15.12-.12.15ZM24.49,29.26l-.15-.12c.07-.19.13-.37.2-.56.03.18.05.35.07.53l-.12.15ZM32.78,14.45c-.07-.01-.14-.03-.21-.04.13-.06.25-.12.38-.18l-.17.22ZM32.08,14.74c-.07-.01-.14-.03-.21-.04.13-.06.25-.12.38-.18l-.17.22ZM26.86,19.76l-.21-.04q.41-.45.83-.91l.07.06-.69.89ZM26.19,20.31l.16-.36-.16.36ZM23.04,23.6l-.15-.12c.1-.28.2-.56.3-.84.09.03.19.07.28.1-.14.28-.28.57-.43.86Z"/>
  <path d="M57.86,35.97l.15.12c.3-.46.38-.79.44-1.33.03-.08.06-.17.09-.25.07-.31,0-.52-.09-.82l.12-.15-.03-.26c.03-.06.07-.12.1-.18.15-.33.23-.64.22-1q-.16-.3-.33-.5.15-.23.36-.31l.04-.21-.15-.12.12-.15-.15-.12c.01-.06.03-.12.04-.18.18-1.02-.15-2.16-.4-3.15q-.03-.2.06-.42c.07-.31.04-.46-.06-.76-.03-.09-.06-.18-.09-.28-.03-.09-.06-.19-.1-.28-.03-.09-.06-.19-.09-.29q-.23-.7-.49-.9l.12-.15c-.1-.21-.19-.42-.29-.63-.03-.06-.05-.12-.08-.18-.19-.39-.41-.72-.67-1.08-.07-.12-.13-.23-.19-.35-1.04-1.97-2.65-3.76-4.34-5.2-.05-.04-.1-.09-.16-.13-1.3-1.11-2.81-1.93-4.34-2.68-.46-.23-.9-.48-1.33-.75l-.17.22c-.15-.16-.31-.32-.46-.48-.06.03-.13.06-.19.09-.2-.1-.39-.21-.58-.33-.08.05-.16.11-.25.17-.19-.07-.38-.13-.56-.2-.95-.31-1.97-.43-2.96-.59-.08-.01-.16-.02-.24-.04-.44-.07-.89-.13-1.34-.14l-.12.15c-.07-.02-.14-.05-.21-.07-.32-.08-.56-.06-.88-.03-.39.03-.78.06-1.17.08-.59.03-1.18.12-1.75.26l-.12.15-.15-.12c-.6.09-1.27.25-1.65.75-.12-.05-.23-.1-.36-.16l-.17.22.3.23c-.08.05-.16.11-.25.17-.09-.03-.19-.07-.28-.1q-.08.1-.17.2c-.33.32-.73.48-1.15.67-.39.19-.77.4-1.14.62q-.22.13-.45.23c-.05.03-.11.06-.16.09-.01.07-.03.14-.04.21l.15.12q.23-.07.51-.19c.09-.04.18-.07.28-.11.14-.06.29-.12.43-.19-.1.06-.19.11-.29.17-1.79,1.07-3.7,2.41-4.95,4.12.23.18.36.21.64.26,0,.11-.02.22-.02.34.2-.15.33-.27.48-.46l.09.19s.07-.08.11-.13c.16-.19.32-.38.49-.58q.08-.1.17-.2c.05-.06.11-.13.16-.19.05-.06.1-.12.15-.18.17-.16.32-.24.54-.33.2-.17.36-.34.54-.54-.01-.09-.02-.17-.03-.26.12.05.23.1.36.16.04-.06.08-.12.12-.17.17-.2.3-.28.55-.38l-.17.22q-.17.22-.21.43-.23.19-.45.12l-.12.15c-.07-.01-.14-.03-.21-.04l-.17.22.15.12c-.08.05-.16.11-.25.17-.03.09-.07.19-.1.28.12.05.23.1.36.16.07-.14.14-.28.21-.43l.37.29c.08-.05.16-.11.25-.17.07.02.13.03.2.05q.21.03.42-.12c.05-.05.1-.11.16-.16q.21.18.39.42-.03.27-.14.49c.09-.01.17-.02.26-.03-.07.14-.14.28-.21.43l.07.06c.34-.33.67-.66,1.02-1l.15.12c.46-.27.81-.48,1.02-1l.22.17.12-.15-.15-.12c1.23-.78,2.5-1.27,3.89-1.7.23-.09.38-.17.56-.34q-.13-.09-.36-.16c-.25.06-.49.13-.73.21-.07.02-.13.04-.2.07-.16.05-.33.11-.49.17.49-.22.95-.4,1.48-.52l.12-.15.15.12c.18-.04.36-.08.54-.13.38-.1.74-.17,1.13-.18.12,0,.24,0,.37-.01l.12-.15q.08.02.17.04c.41.07.81.06,1.22.07.32.01.59.03.88.18.3.12.6.12.91.13,2.91.23,5.95,1.91,7.99,3.96q.07.07.15.15c2.01,2,3.48,4.26,4.34,6.97q.14.43.3.55l-.12.15q.1.56.29.7l-.12.15.15.12-.12.15q.02.23.07.5t.05.27.07.22c.09.03.19.07.28.1.03-.09.07-.19.1-.28,0,.25,0,.51,0,.76,0,.07,0,.14,0,.22q0,.39-.05.77l.15.12c-.02.06-.04.13-.06.19-.1.39-.14.77-.18,1.16-.1.82-.27,1.58-.5,2.37-.02.08-.04.16-.06.25-.15.6-.4,1.15-.68,1.71q-.28.57-.18.91l.54-.54c-.47,1.37-1.31,2.76-2.2,3.91-.09.01-.18.03-.28.04q-.31.1-.51.4c-.04.09-.08.19-.13.28q.3.23.5.27c.22-.18.41-.39.62-.59q.21-.2.47-.27c.32-.14.46-.3.68-.57.07-.09.15-.18.22-.27.08-.09.15-.19.23-.29.15-.19.3-.37.45-.56q.1-.12.2-.25.17-.21.42-.37c.09-.21.15-.43.22-.65q.07-.22.33-.36c-.6,1.29-1.2,2.56-1.99,3.74q-.19.29-.29.57l.15.12c1.79-1.3,2.6-4.04,3.27-6.06ZM46.6,15.87l-.09-.19.09.19ZM32.78,14.45c-.07-.01-.14-.03-.21-.04.13-.06.25-.12.38-.18l-.17.22ZM32.08,14.74c-.07-.01-.14-.03-.21-.04.13-.06.25-.12.38-.18l-.17.22Z"/>
  <path d="M57.86,35.97l.15.12c.3-.46.38-.79.44-1.33.03-.08.06-.17.09-.25.07-.31,0-.52-.09-.82l.12-.15-.03-.26c.03-.06.07-.12.1-.18.15-.33.23-.64.22-1q-.15-.26-.33-.5t-.07-.53c-.07.05-.14.11-.22.16-.4.24-.69.24-1.15.21-.11.04-.21.07-.32.11q-.12-.15-.24-.31c0,.07-.02.13-.03.2-.13.82-.28,1.63-.45,2.44-.03.16-.06.32-.09.47-.14.73-.45,1.37-.77,2.04-.04.08-.07.15-.11.23-.03.07-.07.14-.1.21-.08.22-.06.37-.02.59l.54-.54c-.47,1.37-1.31,2.76-2.2,3.91-.09.01-.18.03-.28.04q-.31.1-.51.4c-.04.09-.08.19-.13.28q.3.23.5.27c.22-.18.41-.39.62-.59q.21-.2.47-.27c.32-.14.46-.3.68-.57.07-.09.15-.18.22-.27.08-.09.15-.19.23-.29.15-.19.3-.37.45-.56q.1-.12.2-.25.17-.21.42-.37c.09-.21.15-.43.22-.65q.07-.22.33-.36c-.6,1.29-1.2,2.56-1.99,3.74q-.19.29-.29.57l.15.12c1.79-1.3,2.6-4.04,3.27-6.06Z"/>
  <path d="M26.88,38.17c-.08-.48-.35-.81-.62-1.2q-.32-.41-.38-.89-.1-.21-.24-.44c-.05-.08-.09-.16-.14-.24q-.13-.2-.28-.31c.03-.05.06-.1.08-.15.09-.24.06-.33-.03-.57-.13-.36-.17-.69-.21-1.07-.02-.14-.03-.27-.05-.41l-.03-.21-.12-.97c.03.06.06.13.09.19.12.1.25.2.37.29.13-.26.18-.47.2-.76,0-.08.01-.15.02-.23,0-.08.01-.16.02-.25.01-.17.03-.34.04-.51,0-.08.01-.17.02-.26.05-.56.11-1.12.18-1.68q-.37.16-.5.33c-.26.13-.41.04-.68-.05-.06.1-.13.2-.19.31q-.05.09-.11.17t-.11.52l.15.12c-.02.07-.04.13-.07.2-.08.32-.1.62-.11.95,0,.11,0,.23-.01.34,0,.09,0,.18.01.27l.15.12c-.03.09-.07.19-.1.28q.03.22.08.47c.06.28.11.55.15.84.21,1.62.74,3.03,1.5,4.46-.07-.01-.14-.03-.21-.04l-.17.22c.12.05.23.1.36.16-.13.22-.26.43-.39.65l.45.35c.05-.12.1-.23.16-.36q-.07-.06-.13-.12c-.04-.06-.07-.12-.11-.19q.08-.3.2-.56c.09.03.18.06.27.1q.29.1.5.14ZM24.9,31.5l-.18-.38c.08-.05.16-.11.25-.17-.02.18-.04.36-.07.55ZM25.44,38.96l.04-.21-.19.09.15.12Z"/>
  <path d="M25.33,32.18c.13-.26.18-.47.2-.76q0-.12.02-.23c0-.08.01-.16.02-.25.01-.17.03-.34.04-.51,0-.08.01-.17.02-.26.05-.56.11-1.12.18-1.68q-.37.16-.5.33c-.26.13-.41.04-.68-.05-.06.1-.13.2-.19.31-.04.06-.07.11-.11.17q-.09.18-.11.52l.15.12c-.02.07-.05.13-.07.2-.12.51-.07,1.04.02,1.56l.15.12c.24-.15.3-.23.4-.5.02-.08.03-.15.05-.23,0,.06,0,.12,0,.18q0,.65.23.89c.06.03.12.06.18.09Z"/>
  <path d="M20.51,35.61l.27-.5-.15-.12c.01-.08.02-.17.03-.25.03-.3.01-.47-.09-.75l-.15-.12.12-.15-.15-.12.12-.15-.15-.12.12-.15-.15-.12.12-.15-.15-.12c.02-.06.03-.12.05-.17.04-.28-.01-.47-.08-.75-.22-1.13-.11-2.4.15-3.52l-.22-.17c-.43.79-.4,1.75-.47,2.62q-.02.31-.07.54l.15.12q-.05.14-.1.28t.07.53l.15.12-.08.41.15.12-.12.15q.03.21.08.46c.06.29.11.58.15.87.04.36.1.69.2,1.03l.22.17Z"/>
  <path d="M57.8,36.04l-.19.09c-.09-.03-.19-.07-.28-.1-.14.13-.28.26-.42.39q.08.12.17.25c-.08.37-.37.57-.64.82.09.03.19.07.28.1-.6,1.29-1.2,2.56-1.99,3.74q-.19.29-.29.57l.15.12c1.77-1.28,2.59-4,3.22-5.98Z"/>
  <path d="M56.06,38.75c.11-.19.22-.38.33-.58-.08.05-.16.11-.25.17l-.15-.12-.64.82q-.16-.18-.31-.36.03-.33.12-.62c-.3.2-.41.4-.6.7q-.05.08-.1.16c-.11.17-.21.34-.31.51-.1.17-.21.34-.32.51-.1.15-.19.31-.28.46q-.14.23-.26.38c-.09.01-.18.03-.28.04q-.31.1-.51.4c-.04.09-.08.19-.13.28q.3.23.5.27c.22-.18.41-.39.62-.59q.21-.2.47-.27c.33-.14.46-.3.68-.58.07-.09.15-.18.22-.27.08-.09.15-.19.23-.29.15-.19.31-.38.46-.56q.1-.13.2-.25t.29-.2Z"/>
  <path d="M37.59,15.79l.17-.22c-.21-.11-.32-.16-.56-.13q-.11.03-.22.07c-.08.02-.16.05-.24.07-.08.03-.17.05-.25.08q-.12.04-.25.07c-.55.17-1.04.4-1.54.69l-.15-.12q-.63.63-.88.98c-.03-.05-.07-.1-.1-.16q-.07-.07-.14-.15c-.26.03-.42.1-.65.22l.07.06c-.07.14-.14.28-.21.43l-.15-.12q-.36.29-.41.52l-.15-.12q-.04.12-.07.25c-.13.33-.3.56-.53.84-.1-.12-.21-.24-.31-.36-.07.14-.14.28-.21.43.09-.01.17-.02.26-.03-.07.14-.14.28-.21.43l.07.06c.34-.33.67-.66,1.02-1l.15.12c.46-.27.81-.48,1.02-1l.22.17.12-.15-.15-.12c1.22-.77,2.82-1.63,4.28-1.81Z"/>
  <path d="M22.84,24.16l.27-.5-.22-.17c.1-.28.2-.56.3-.84.09.03.19.07.28.1l.35-.45c-.07-.01-.14-.03-.21-.04l-.25.17.07-.16c.08-.19.16-.37.25-.56-.16.15-.32.31-.48.46l-.15-.12q.5-.56,1-1.13l-.22-.17c.06-.08.13-.15.19-.23.2-.27.3-.45.35-.78q-.08-.12-.17-.25c-.23.17-.38.33-.53.57-.04.07-.08.13-.12.2q-.06.1-.13.21c-.04.07-.08.13-.13.2-.26.42-.47.85-.66,1.31l.22.17c-.07.19-.13.37-.2.56l-.26.03q-.16.19-.29.37l.3.23c-.07.19-.13.37-.2.56.09.03.19.07.28.1l.23-.3c-.05-.08-.11-.16-.17-.25l.3.23q.02.25,0,.47Z"/>
  <path d="M29.68,49.78l.12-.15-.15-.12.12-.15c.07.01.14.03.21.04-.27-.34-.47-.5-.88-.64-.53-.19-.97-.47-1.43-.78-.08-.05-.16-.1-.24-.16-.19-.13-.39-.25-.58-.38l-.06.07c-.46-.28-.91-.55-1.38-.83-.03.09-.07.19-.1.28q2.85,2.28,3.97,2.73l.12-.15.3.23ZM29.69,49.31l-.17-.25.17.25ZM29.05,49.06l-.24-.31.24.31ZM27.9,48.4l-.09-.19.09.19Z"/>
  <path d="M22.43,21.93c.69-1.04,1.38-2.08,2.09-3.15-.09-.03-.19-.07-.28-.1l-.12.15c-.09-.03-.19-.07-.28-.1-.25.12-.35.28-.52.51-.06.08-.11.15-.17.23-.04.06-.09.12-.13.18l-.22-.17c-.09.1-.18.21-.26.31-.05.06-.1.12-.15.17q-.11.19-.11.4t.2.3q-.02.09-.05.19c-.02.08-.04.16-.06.25-.02.08-.04.16-.06.25-.03.14-.07.28-.09.42l.22.17Z"/>
  <path d="M47.82,16.46l.12-.15c-.47-.23-.94-.44-1.42-.63-.09-.04-.18-.08-.28-.12-.87-.34-1.75-.56-2.67-.73q-.13-.03-.26-.05c-.08-.01-.16-.03-.25-.04-.07-.01-.15-.03-.22-.04-.25,0-.37.06-.59.18l-.26.03q.1.15.24.31c.26.03.51.05.78.06,1.59.08,3.15.61,4.52,1.43l-.05-.4.36.16Z"/>
  <path d="M28.1,18.17c-.02-.08-.04-.16-.05-.24-.21.07-.43.14-.65.22q.14-.25.27-.5l-.07-.06c-.23.22-.47.44-.7.67-.07.06-.13.13-.2.19-.32.31-.63.61-.89.98.23.18.36.21.64.26,0,.11-.02.22-.02.34.2-.15.33-.27.48-.46.03.06.06.13.09.19.12-.13.24-.26.36-.39.07-.07.13-.14.2-.22q.55-.62.54-.97Z"/>
  <path d="M56.66,33.97c.02-.08.04-.16.07-.25q.21-.79.17-1.13-.22-.2-.45-.35c-.14.38-.24.75-.32,1.15-.2,1-.42,1.9-.86,2.83,1.04-.25,1.14-1.33,1.39-2.25Z"/>
  <path d="M56.54,29.21l.23-.3-.37-.29c.03-.09.07-.19.1-.28.02-.62-.14-1.18-.29-1.78-.02-.09-.04-.18-.06-.27-.02-.08-.04-.16-.06-.25-.02-.07-.03-.14-.05-.22q-.08-.17-.25-.27t-.39-.1q.05-.14.1-.28c-.11,0-.22-.02-.34-.02.09.27.17.53.26.8.02.08.05.15.07.23.02.07.05.14.07.22.02.07.04.13.07.2q.07.16.22.28l-.12.15q.1.56.29.7l-.12.15.15.12-.12.15q.02.23.07.5c.02.09.03.18.05.27.02.07.05.15.07.22.09.03.19.07.28.1.03-.09.07-.19.1-.28l.03.26Z"/>
  <path d="M26.88,38.17c-.07-.4-.26-.68-.49-1.01-.13-.18-.24-.37-.36-.56q-.37-.6-.72-.72-.09.15-.16.36t.16.38c.04.07.07.14.11.21.04.07.08.14.12.22.04.07.08.15.12.22.1.18.19.36.29.54-.07-.01-.14-.03-.21-.04l-.17.22c.12.05.23.1.36.16-.13.22-.26.43-.39.65l.45.35c.05-.12.1-.23.16-.36q-.07-.06-.13-.12c-.04-.06-.07-.12-.11-.19q.08-.3.2-.56c.09.03.18.06.27.1q.29.1.5.14ZM25.44,38.96l.04-.21-.19.09.15.12Z"/>
  <path d="M38.24,44.61c-.4-.21-.73-.11-1.15-.03-.57.11-1.08.15-1.66.11l.12.45-.38.18c.77.16,1.7.22,2.42-.13.25-.18.47-.35.65-.59Z"/>
  <path d="M56.14,38.33l.35-.45c-.1-.22-.21-.42-.35-.63q-.25-.09-.49-.14-.53.48-.64.82l.15.12c-.03.09-.07.17-.11.26q-.09.3.02.62.18.1.36.16.44-.54.56-.88l.15.12Z"/>
  <path d="M22.9,39.61c0-.34-.13-.57-.3-.85-.1-.18-.18-.36-.25-.56q-.13-.32-.28-.44c.04-.06.07-.12.11-.18.18-.44,0-.86-.16-1.29-.14-.2-.27-.32-.46-.48-.15.24-.16.35-.11.63.03.1.06.2.09.31.02.11.05.21.07.32q.07.26.22.38c-.02.06-.03.12-.05.18-.04.27,0,.38.12.63q.05.11.1.22c.04.07.07.15.11.23.03.08.07.15.11.23q.26.56.43.69l.12-.15.15.12Z"/>
  <path d="M29.11,17.33l.21.04-.37-.29c.03-.09.07-.19.1-.28-.05-.08-.11-.16-.17-.25-.6.46-1.12.91-1.55,1.54l.09.19.57-.27c.08.1.16.2.24.31.47-.19.84-.45.88-.98Z"/>
  <path d="M56.34,37.77l.64-.82c-.07-.01-.14-.03-.21-.04q-.14-.22-.26-.44l-.26.03-.03-.26-.34-.02q-.26.23-.48.46l-.15-.12c.03-.09.07-.19.1-.28-.08.11-.15.23-.23.34-.04.06-.08.13-.13.19-.11.23-.1.35-.04.6.18-.18.35-.35.54-.54-.07.14-.14.28-.21.43l.15.12c-.01.07-.03.14-.04.21l.29-.37q.24.04.49.14l.18.38Z"/>
  <path d="M56.74,38.8c.29-.59.53-1.19.74-1.82q.05-.14.1-.27c.08-.22.15-.44.23-.66l-.19.09-.28-.1-.42.39.17.25c-.08.37-.37.57-.64.82l.28.1c-.21.43-.43.85-.64,1.29l.07.06c.12-.1.24-.21.36-.31l.22.17Z"/>
  <path d="M20.69,26.31c.23-.41.34-.84.47-1.29.23-.81.48-1.5.96-2.2q.12-.2.14-.54l-.22-.17c-.36.43-.59.83-.78,1.35-.03.07-.05.14-.08.21-.21.56-.36,1.11-.48,1.7l.15.12-.35.45.15.12-.12.15.15.12Z"/>
  <path d="M32.57,14.4l.04-.21c.1-.28.14-.35.41-.52l-.22-.17c-.06.07-.11.13-.17.2-.33.32-.73.48-1.15.67-.39.19-.77.4-1.14.62q-.22.13-.45.23c-.05.03-.11.06-.16.09l-.04.21.15.12c.88-.24,1.73-.72,2.55-1.13l.19-.09Z"/>
  <path d="M29.68,49.78l.12-.15-.15-.12.12-.15c.07.01.14.03.21.04-.34-.42-.64-.57-1.15-.74-.35-.14-.65-.33-.96-.54q-.07.24-.14.49c.19.15.38.3.57.45.05.04.11.09.16.13.26.21.5.37.81.5l.12-.15.3.23ZM29.69,49.31l-.17-.25.17.25ZM29.05,49.06l-.24-.31.24.31Z"/>
  <path d="M31.64,16.07l.12-.15-.37-.29c-.19.09-.38.18-.57.27,0-.11.02-.22.02-.34.06-.03.13-.06.19-.09,0-.11.02-.22.02-.34-.27.16-.54.32-.8.49q-.11.07-.23.14c-.07.04-.15.09-.22.14-.07.04-.13.08-.2.12q-.16.12-.26.41c.1-.08.2-.16.31-.24.34.11.52.31.74.58q.08-.07.17-.15c.31-.27.64-.43,1.02-.61l.07.06Z"/>
  <path d="M21.28,41.23l.27-.5c-.15-.16-.31-.32-.46-.48.09-.01.17-.02.26-.03l.3.23c.1-.08.2-.16.31-.24-.12-.05-.23-.1-.36-.16l.15.12-.12.15c-.03-.07-.07-.14-.1-.21-.05-.09-.09-.18-.14-.27-.04-.09-.09-.18-.13-.27-.17-.27-.34-.42-.61-.6-.02.06-.04.11-.07.17q-.08.2-.28.27c-.06.32.11.48.27.75.06.1.12.19.18.29.17.26.34.52.51.78ZM20.75,39.61l-.17-.25.17.25Z"/>
  <path d="M34.31,13.25l-.09-.19c.01-.07.03-.14.04-.21l-.15-.12c-.26.11-.37.17-.55.41-.12-.05-.23-.1-.36-.16l-.17.22.3.23q-.23.17-.44.24c-.24.14-.3.29-.4.54.14.07.28.14.43.21.23-.19.41-.37.6-.61.09.03.19.07.28.1.3-.14.38-.38.52-.67Z"/>
  <path d="M30.46,20.05l-.38.18q-.08-.12-.17-.25c.18-.18.35-.35.54-.54l-.15-.12q-.53.51-.58.74l-.15-.12q-.38.41-.77.84c.17.09.33.18.5.27l-1.56,2.01.07.06c.05-.06.09-.11.14-.17.21-.26.43-.51.64-.77.07-.09.15-.17.22-.26.37-.45.75-.88,1.16-1.3.18-.18.33-.38.48-.59Z"/>
  <path d="M20.15,31.62c0-.12,0-.24,0-.37,0-.48.04-.96.07-1.45,0-.07,0-.14.01-.22.03-.42.09-.82.18-1.23l-.22-.17c-.43.79-.4,1.75-.47,2.62q-.02.31-.07.54l.15.12c-.03.09-.07.19-.1.28.07.01.14.03.21.04l.02-.34.22.17Z"/>
  <path d="M22.86,22.14c.23-.31.45-.62.68-.93q.1-.13.19-.27c.06-.09.12-.17.19-.26.06-.08.11-.16.17-.24.15-.24.23-.44.28-.72-.05-.08-.11-.16-.17-.25-.23.17-.38.33-.53.57-.04.07-.08.13-.12.2-.04.07-.08.14-.13.21q-.06.1-.13.2c-.26.42-.47.85-.66,1.31l.22.17Z"/>
  <path d="M23.65,19.89l.87-1.12c-.09-.03-.19-.07-.28-.1l-.12.15c-.09-.03-.19-.07-.28-.1-.25.12-.35.28-.52.51-.06.08-.11.15-.17.23-.04.06-.09.12-.13.18l-.22-.17c-.09.1-.18.21-.26.31q-.07.09-.15.17t-.11.4.28.36c.04-.08.09-.15.13-.23.24-.42.5-.82.76-1.22l.3.23-.08.41Z"/>
  <path d="M32.17,15.57q.04-.25-.12-.5.14-.25.27-.5c-.62.13-1.08.39-1.43.92l-.17.22.03.26q.08-.05.16-.1c.29-.11.47-.08.77-.02l.15.12q.25-.17.34-.4Z"/>
  <path d="M45.08,15.52c-.29-.43-.78-.54-1.27-.64-.2-.04-.4-.07-.61-.1-.07-.01-.13-.02-.2-.03q-.48-.06-.76.12l-.26.03q.1.15.24.31c.27.04.53.06.8.07.6.03,1.17.09,1.75.22q.18.04.31.02Z"/>
  <path d="M19.75,34.9c.02-.53-.05-.86-.31-1.32q-.1-.18-.11-.39t-.25-.36c-.13.38-.12.63-.07,1.02-.03.08-.05.17-.08.25q-.06.23,0,.44c.16.22.3.29.56.39l.26-.03Z"/>
  <path d="M21.51,35.55c.16-.29.16-.45.08-.77-.06-.24-.1-.47-.13-.71-.05-.32-.13-.6-.25-.9l-.28-.1c-.03.61-.03,1.2.16,1.79l.15.12-.12.15c.13.14.26.28.39.42Z"/>
  <path d="M23.16,40.65c0-.11.02-.22.02-.34q-.1-.04-.2-.08c-.27-.16-.35-.29-.5-.57-.17-.32-.25-.44-.55-.67l-.23.3c.03.06.06.13.09.19-.12-.05-.23-.1-.36-.16l-.12.15c.11.16.22.33.33.5q.3-.21.35-.45l.15.12c-.07.14-.14.28-.21.43.13.14.26.28.39.42.08-.05.16-.11.25-.17.19.11.38.22.58.33Z"/>
  <path d="M56.71,33.76c-.29.19-.31.28-.41.6-.03.08-.05.15-.08.23-.02.06-.04.12-.06.18-.06-.13-.12-.25-.18-.38-.03.08-.05.16-.08.24-.12.34-.25.67-.38,1-.05.11-.09.23-.14.34-.03.09-.07.17-.11.26,1.09-.27,1.2-1.5,1.44-2.47Z"/>
  <path d="M31.98,43.45l.04-.21c-.32-.19-.63-.36-.97-.51-.61-.3-1.16-.71-1.72-1.1l-.06.07,1.12.87-.12.15c.25.29.45.5.82.64.16,0,.31.01.47,0,.14.02.28.05.41.08Z"/>
  <path d="M58.01,36.08c.3-.46.38-.79.44-1.33.03-.09.05-.18.08-.27.06-.23.06-.39.01-.62l-.28-.1c-.02.1-.04.19-.05.29-.02.13-.05.26-.07.39-.01.06-.02.13-.04.19-.08.43-.21.81-.38,1.21l.3.23Z"/>
  <path d="M22.9,39.61c0-.34-.13-.57-.3-.85-.1-.18-.18-.36-.25-.56q-.13-.32-.28-.44c.07-.14.14-.28.21-.43l-.21-.04c-.05.12-.1.23-.16.36l-.21-.04q.53,1.72.93,2.03l.12-.15.15.12Z"/>
  <path d="M53.91,40.9l-.09-.19-.12.15c-.06-.02-.11-.03-.17-.05-.32-.04-.53,0-.83.11q-.2.3-.33.58.3.23.5.27.2-.16.42-.38t.61-.49Z"/>
  <path d="M36.77,45.74c-.4-.15-.74-.14-1.16-.1q-.22.02-.48-.09c.01-.07.03-.14.04-.21-.34-.12-.36-.06-.66.08l.37.29-.12.15c.36.12.66.16,1.04.16q.14,0,.28,0c.29-.02.5-.03.69-.27Z"/>
  <path d="M20.69,26.31c.24-.46.37-.93.51-1.42.03-.09.05-.18.08-.27.02-.09.05-.17.07-.26.02-.08.05-.16.07-.24q.04-.19-.05-.38c-.4.44-.52.85-.63,1.42l-.04.21.15.12-.35.45.15.12-.12.15.15.12Z"/>
  <path d="M23.07,20.64c.32-.4.63-.78.85-1.25q-.09.05-.19.09l-.3-.23c-.11.13-.22.26-.32.38-.06.07-.12.14-.18.22q-.13.22-.14.43t.28.36Z"/>
  <path d="M25.33,32.18c.17-.32.2-.63.22-.99q.01-.17.03-.33t.02-.26q-.37.16-.5.33l-.21-.04c0,.16,0,.32,0,.48,0,.09,0,.18,0,.27q.05.25.24.42c.06.04.12.07.18.11Z"/>
  <path d="M26.88,38.17c-.04-.15-.08-.3-.12-.45l-.21-.04-.17.22-.45-.35c.01.09.02.17.03.26-.07-.01-.14-.03-.21-.04l-.17.22c.12.05.23.1.36.16-.13.22-.26.43-.39.65l.45.35c.05-.12.1-.23.16-.36q-.07-.06-.13-.12c-.04-.06-.07-.12-.11-.19q.08-.3.2-.56c.09.03.18.06.27.1q.29.1.5.14ZM25.44,38.96l.04-.21-.19.09.15.12Z"/>
  <path d="M30.86,19.54c.07-.09.13-.17.2-.26.05-.07.1-.13.15-.2-.07-.01-.14-.03-.21-.04l-.12.15-.22-.17-.75.97c.06.13.12.25.18.38.3-.24.53-.51.76-.82Z"/>
  <path d="M23.47,22.74l.35-.45c-.07-.01-.14-.03-.21-.04-.08.05-.16.11-.25.17.02-.05.05-.1.07-.16.08-.19.16-.37.25-.56-.16.15-.32.31-.48.46l-.15-.12q.5-.56,1-1.13l-.22-.17c-.14.17-.28.35-.42.52-.04.05-.08.1-.12.15-.26.32-.41.62-.52,1.01.11-.04.21-.07.32-.11l.15.12-.12.15.36.16Z"/>
  <path d="M49.97,44.89c-.03-.05-.06-.1-.09-.16-.11-.25-.13-.48-.16-.75l-.09-.19.1-.28-.21-.04-.17.22-.13.02c-.07.19-.13.37-.2.56l.3.23c-.01.07-.03.14-.04.21.06-.03.13-.06.19-.09q.26.13.5.27Z"/>
  <path d="M22.41,40.55c-.15-.16-.31-.32-.46-.48.07-.14.14-.28.21-.43l-.15-.12c-.05.12-.1.23-.16.36-.07-.01-.14-.03-.21-.04.06.13.12.25.18.38l-.17.22c-.1-.12-.21-.24-.31-.36-.08.05-.16.11-.25.17q.11.25.33.5c.4.1.72.15.98-.19Z"/>
  <path d="M32.1,18.7q.02-.1.04-.21c.11-.32.28-.54.5-.8l-.15-.12q-.36.29-.41.52l-.15-.12c-.02.08-.05.16-.07.25-.13.33-.3.56-.53.84-.1-.12-.21-.24-.31-.36-.07.14-.14.28-.21.43.09-.01.17-.02.26-.03-.07.14-.14.28-.21.43l.07.06c.34-.33.67-.66,1.02-1l.15.12Z"/>
  <path d="M19.95,30.03c.36-.51.47-1.05.46-1.67l-.22-.17c-.17.31-.25.57-.3.92-.01.08-.02.16-.04.25-.02.19-.04.38-.05.57l.15.12Z"/>
  <path d="M20.22,32.76c.13-.37.17-.64.07-1.02q-.19-.18-.37-.29c-.09.29-.14.53-.17.83l.15.12c-.03.09-.07.19-.1.28l.41.08Z"/>
  <path d="M21.31,32.89q.09-.15.16-.36t-.18-.38c-.07-.38-.06-.7,0-1.08l-.19.09q-.08.25-.14.49c-.09.01-.17.02-.26.03.03.26.07.52.1.79.16.05.32.09.49.14l-.12.15.15.12Z"/>
  <path d="M33.29,17.47c-.09-.03-.19-.07-.28-.1-.39.26-.66.46-.83.91-.01.07-.03.14-.04.21l.15.12c.48-.31.73-.63,1-1.13Z"/>
  <path d="M37.59,15.79l.17-.22c-.25-.16-.36-.16-.66-.09-.11.03-.22.07-.33.11-.11.03-.22.07-.34.1-.08.03-.17.06-.26.08q-.04.21,0,.47.14-.05.28-.09c.12-.04.24-.08.36-.12.06-.02.12-.04.18-.06q.3-.11.6-.17Z"/>
  <path d="M38.24,44.61c-.34-.21-.63-.15-1.02-.07l-.12.15q.05.24.12.45l-.38.18c.4.04.58-.03.89-.27.07-.05.14-.1.21-.16q.17-.14.29-.29Z"/>
  <path d="M22.86,22.14c.36-.45.67-.9.97-1.4-.05-.08-.11-.16-.17-.25-.14.18-.28.36-.42.54q-.06.08-.12.15c-.2.25-.37.48-.48.78l.22.17Z"/>
  <path d="M58.83,31.34c.03-.09.07-.19.1-.28l-.15-.12.12-.15-.15-.12c.01-.06.03-.11.05-.17.04-.27.01-.5-.03-.77l-.19.09-.21-.04.1.79c0,.08-.01.15-.02.23.01.27.06.36.25.54l.13-.02Z"/>
  <path d="M23.65,19.89l.87-1.12c-.09-.03-.19-.07-.28-.1l-.12.15c-.09-.03-.19-.07-.28-.1l-.41.52.3.23-.08.41Z"/>
  <path d="M30.09,17.14l.17-.22c-.29.02-.4.05-.65.22q-.09.19-.16.36c-.12-.05-.23-.1-.36-.16-.11.19-.22.38-.33.58l.19-.09c.09.03.19.07.28.1.01-.07.03-.14.04-.21.09.03.19.07.28.1.29-.19.36-.36.52-.67Z"/>
  <path d="M22.38,42.43c.1-.12.2-.25.29-.37q-.02-.13-.16-.3c-.35-.19-.57-.08-.95.03q.35.54.64.63c.06,0,.12,0,.18,0Z"/>
  <path d="M24.06,21.52c-.14-.07-.28-.14-.43-.21l-.58.74.15.12.41-.52.15.12q-.12.14-.23.28t-.23.31c.01.09.02.17.03.26q.7-.62.74-1.1Z"/>
  <path d="M27.56,48.37l.06-.07c-.22-.17-.44-.35-.66-.52-.06-.05-.12-.1-.19-.15-.06-.05-.12-.09-.18-.14-.06-.04-.11-.09-.17-.13q-.15-.1-.35-.14l-.12.15c.22.18.44.35.65.52.06.05.12.1.19.15.06.05.12.09.18.14q.08.07.17.13t.42.06Z"/>
  <path d="M55.81,26.61c.15-.28.16-.44.11-.75l.04-.21c-.19-.09-.36-.16-.56-.2l.1-.28-.34-.02c.07.21.13.42.2.63.04.12.07.24.11.36q.12.3.34.47Z"/>
  <path d="M45.08,15.52c-.26-.39-.65-.48-1.08-.6-.26-.02-.48,0-.74.03.23.35.54.4.93.49.29.04.59.07.89.09Z"/>
  <path d="M24.38,45.54c-.05-.4-.28-.53-.57-.8.03-.09.07-.19.1-.28l-.67-.52c.04.31.11.39.31.62.05.06.1.12.16.18.04.05.08.09.12.14l-.29.37q.49.31.65.39l.19-.09Z"/>
  <path d="M20.97,31.79c.05-.13.11-.27.16-.41q.04-.11.09-.23c.02-.07.03-.14.05-.21-.05-.08-.11-.16-.17-.25l.04-.21-.15-.12q-.15.09-.31.24t-.05.47c0,.08,0,.17,0,.25q.04.22.33.45Z"/>
  <path d="M22.84,24.16l.27-.5-.22-.17.12-.15-.15-.12.12-.15c-.05-.08-.11-.16-.17-.25-.1.14-.19.28-.28.42q-.08.12-.16.24t-.09.48c.07.01.14.03.21.04l.23-.3c-.05-.08-.11-.16-.17-.25l.3.23q.02.25,0,.47Z"/>
  <path d="M56.63,33.7q.33-.75.26-1.11-.22-.2-.45-.35c-.14.34-.23.59-.15.96l.12-.15.22.17c-.03.14-.05.27-.08.41l.07.06Z"/>
  <path d="M34.29,16.81l-.15-.12-.46.6c-.03-.05-.07-.1-.1-.16-.05-.05-.09-.1-.14-.15-.26.03-.42.1-.65.22l.05.4.25-.17c.07.01.14.03.21.04l-.17.22.22.17.12-.15-.15-.12c.1-.05.19-.1.29-.15.31-.17.49-.36.68-.65Z"/>
  <path d="M25.82,36.15c-.13-.28-.27-.55-.41-.81-.04-.07-.08-.15-.12-.22-.03-.05-.06-.11-.09-.17l-.17.22c-.07-.01-.14-.03-.21-.04.13.29.25.59.38.89l.12-.15c.17.09.33.18.5.27Z"/>
  <path d="M57.26,37.05c.07-.11.15-.23.22-.34q.06-.1.12-.19t.12-.53l-.12.15c-.09-.03-.19-.07-.28-.1-.14.13-.28.26-.42.39q.18.5.35.63Z"/>
  <path d="M31.64,16.07l.12-.15q-.17-.15-.37-.29c-.29.1-.44.18-.67.37-.06.05-.12.09-.18.14-.17.19-.2.32-.23.57.35-.16.64-.36.96-.58q.17-.12.38-.06Z"/>
  <path d="M21.22,37.47l.17-.22q-.05-.23-.14-.49c-.03-.09-.06-.17-.09-.26q-.1-.22-.32-.39c-.11.2-.16.32-.13.55q.03.1.06.2c.02.07.04.13.06.2q.09.18.38.41Z"/>
  <path d="M56.64,39.08q.1-.28.14-.49c-.09-.03-.19-.07-.28-.1-.25.4-.5.81-.72,1.23.46-.07.62-.27.86-.65Z"/>
  <path d="M30.96,14.94l-.13.02c-.01-.09-.02-.17-.03-.26q-.16.1-.32.2c-.2.12-.39.23-.6.33-.05.03-.1.05-.15.08l-.04.21.15.12q.24-.07.52-.17c.09-.03.19-.07.28-.11q.23-.12.33-.4Z"/>
  <path d="M20.49,33.8l-.09-.19.12-.15-.15-.12.12-.15-.15-.12.12-.15-.15-.12.1-.28-.57.27.15.12-.12.15q.09.27.2.51l.17-.22c-.01.07-.03.14-.04.21l.3.23Z"/>
  <path d="M56.88,32.46c.12-.34.15-.45.03-.81-.13-.14-.25-.29-.39-.42-.05.32-.1.63-.15.96.17.09.33.18.5.27Z"/>
  <path d="M19.68,34.37c-.03-.4-.12-.63-.32-.97l-.03-.22-.02-.18-.22-.17q-.19.57-.09.89t.45.35q.14.16.24.31Z"/>
  <path d="M28.9,49.41l.04-.21c-.33-.4-.67-.62-1.12-.87-.03.09-.07.19-.1.28q.78.62,1.17.79Z"/>
  <path d="M58.43,27.09c.11-.37.05-.62-.06-.98-.03-.1-.06-.19-.09-.29-.03-.08-.07-.16-.1-.24l-.28-.1c.05.58.21,1.09.41,1.63l.13-.02Z"/>
  <path d="M58.53,33.26c.23-.39.29-.73.32-1.18q-.11-.2-.24-.31c-.14.48-.23.95-.29,1.45l.21.04Z"/>
  <path d="M22.13,37.22c.02-.47-.04-.77-.28-1.17l-.3-.23c-.16.26-.16.36-.1.67.03.09.05.18.08.27.06-.03.13-.06.19-.09-.03-.06-.06-.13-.09-.19.27.21.27.31.35.63l.15.12Z"/>
  <path d="M25.09,34.03c.13-.38.02-.56-.12-.93-.22.02-.38.04-.59.14.08.3.16.6.25.91q.14-.25.27-.5l.15.12-.12.15.15.12Z"/>
  <path d="M28.1,18.17c-.02-.08-.04-.16-.05-.24q-.19.09-.38.18c.03.06.06.13.09.19-.13.24-.27.47-.41.7q-.06.1-.12.2c-.1.16-.2.32-.3.48l.07.06c.12-.13.24-.26.36-.39.07-.07.13-.14.2-.22q.55-.62.54-.97Z"/>
  <path d="M30.46,20.05l-.38.18c-.05-.08-.11-.16-.17-.25.18-.18.35-.35.54-.54l-.15-.12q-.6.56-.62.95l.15.12c-.15.24-.29.48-.45.73l.07.06c.35-.36.7-.72,1-1.13Z"/>
  <path d="M45.94,15.95l-.24-.31c.11-.04.21-.07.32-.11-.5-.22-1-.36-1.54-.48.18.27.24.29.52.41.03.06.06.13.09.19q.19.08.43.16c.08.03.15.05.23.08.06.02.12.04.18.06Z"/>
  <path d="M40.5,46.01l.12-.15c-.12-.05-.23-.1-.36-.16.1-.08.2-.16.31-.24l-.07-.06c.11-.19.22-.38.33-.58l-.07-.06c-.13.11-.25.22-.38.34q-.11.09-.21.19t-.36.4q.21.18.45.35l.26-.03Z"/>
  <path d="M57.35,37.17c.04-.07.08-.13.12-.2.03-.05.06-.1.09-.15-.1.08-.2.16-.31.24-.06-.13-.12-.25-.18-.38-.02.05-.03.1-.05.15-.15.28-.36.46-.59.67.14.07.28.14.43.21.26-.17.33-.28.49-.54Z"/>
  <path d="M22.43,21.93c.06-.12.12-.24.18-.37.03-.07.07-.14.1-.21.09-.21.14-.4.17-.63-.09.01-.17.02-.26.03q-.38.56-.41.99l.22.17Z"/>
  <path d="M55.87,21.16c-.09-.28-.16-.41-.34-.64-.04-.05-.08-.1-.12-.16q-.12-.14-.35-.31c-.08.05-.16.11-.25.17.21.28.43.57.65.86l.12-.15.3.23Z"/>
  <path d="M24.71,31.59l.04-.21-.22-.17.17-.22-.22-.17c.1-.08.2-.16.31-.24-.05-.08-.11-.16-.17-.25l-.26.03c-.01.21-.02.42-.03.63,0,.12-.01.24-.02.36,0,.1,0,.19,0,.29l.15.12c.08-.05.16-.11.25-.17Z"/>
  <path d="M56.24,34.83q.14-.29.26-.64-.11-.26-.26-.44-.19.09-.29.32t.07.43s.08.09.13.14c-.01.07-.03.14-.04.21l.13-.02Z"/>
  <path d="M20.51,35.61l.27-.5-.15-.12c-.01-.09-.02-.17-.03-.26-.15.04-.3.08-.45.12q.11.57.36.76Z"/>
  <path d="M22.9,39.61c0-.32-.06-.41-.27-.66-.08-.07-.16-.14-.25-.21-.09.01-.17.02-.26.03.06.12.11.25.17.37.03.07.06.14.1.21q.09.18.24.29l.12-.15.15.12Z"/>
  <path d="M21.28,41.23l.27-.5c-.15-.16-.31-.32-.46-.48l-.12.15-.28-.1c.19.31.39.62.59.93Z"/>
  <path d="M30.66,43.14l.23-.3-1.56-1.22-.06.07,1.12.87-.12.15c.13.14.26.28.39.42Z"/>
  <path d="M56.54,29.21l.23-.3-.37-.29c.03-.09.07-.19.1-.28-.15.04-.3.08-.45.12.03.22.05.44.08.66.09.03.19.07.28.1.03-.09.07-.19.1-.28l.03.26Z"/>
  <path d="M20.11,30.75c.03-.16.05-.31.08-.47q.02-.13.04-.26t-.07-.42c-.34.37-.39.63-.4,1.13.06-.03.13-.06.19-.09l.15.12Z"/>
  <path d="M46.56,16.08l.12-.15q-.29-.36-.52-.41l-.12.15c-.16-.05-.32-.09-.49-.14.14.29.39.37.67.52l.12-.15.22.17Z"/>
  <path d="M50.71,15.96l.06-.07-.67-.52q-.17.22-.27.5c.19.11.38.22.58.33l.12-.15c-.12-.05-.23-.1-.36-.16l.17-.22.37.29Z"/>
  <path d="M29.68,49.78l.12-.15-.15-.12.12-.15c.07.01.14.03.21.04q-.22-.24-.46-.48c-.09.01-.17.02-.26.03.08.14.17.29.26.44-.17.02-.35.04-.53.07l.3.23.12-.15.3.23ZM29.69,49.31l-.17-.25.17.25Z"/>
  <path d="M56.2,27.03c-.04-.38-.09-.75-.21-1.12l-.21-.04c.02.07.05.14.07.21q.08.25-.04.53c-.07-.01-.14-.03-.21-.04.04.05.08.09.12.14q.06.08.12.17c-.01.07-.03.14-.04.21.08-.05.16-.11.25-.17l.15.12Z"/>
  <path d="M55.72,36.57l-.09-.19-.23.3-.15-.12c.03-.09.07-.19.1-.28-.08.11-.15.23-.23.34-.04.06-.08.13-.13.19q-.09.2-.04.6l.77-.84Z"/>
  <path d="M52.67,41.73q.03-.09.07-.17t.28-.27c.03-.09.07-.19.1-.28-.14-.03-.27-.05-.41-.08-.11.19-.22.38-.33.58l.3.23Z"/>
  <path d="M32.57,14.4l.04-.21c.1-.28.14-.35.41-.52l-.22-.17c-.07.07-.15.14-.22.22-.18.18-.36.34-.56.49.08.1.16.2.24.31.11-.04.21-.07.32-.11Z"/>
  <path d="M24.96,34.65l.16-.36-.15-.12.12-.15-.15-.12.12-.15-.15-.12q-.28.47-.24.77l.3.23Z"/>
  <path d="M23.16,40.65c0-.11.02-.22.02-.34-.07-.03-.13-.06-.2-.09-.23-.12-.33-.22-.47-.43-.05.12-.1.23-.16.36-.07-.01-.14-.03-.21-.04l.22.17c-.01.07-.03.14-.04.21.08-.05.16-.11.25-.17.19.11.38.22.58.33Z"/>
  <path d="M48.19,16.75c0-.11.02-.22.02-.34-.09-.03-.19-.07-.28-.1l-.12.15-.37-.29c-.08.05-.16.11-.25.17.24.15.48.29.73.45l.12-.15.15.12Z"/>
  <path d="M57.8,34.97l.35-.45-.22-.17-.17.22c-.08-.1-.16-.2-.24-.31-.08.05-.16.11-.25.17.17.23.31.36.54.54Z"/>
  <path d="M20.69,26.31c.21-.38.33-.78.45-1.2q-.32.11-.44.26l.15.12-.35.45.15.12-.12.15.15.12Z"/>
  <path d="M31.47,14.71q.05-.12.1-.25l-.15-.12q-.54.33-.65.69.49,0,.7-.32Z"/>
  <path d="M25.62,36.72c.07-.19.13-.37.2-.56-.17-.09-.33-.18-.5-.27-.05.12-.1.23-.16.36.15.16.31.32.46.48Z"/>
  <path d="M35.63,45.21q-.11-.32-.26-.44c-.08.05-.16.11-.25.17-.18.03-.35.05-.53.07q.08.16.24.31.34-.02.66-.08l.13-.02Z"/>
  <path d="M36.94,16.01l.04-.21c-.24-.14-.33-.16-.61-.1-.07.02-.14.05-.21.07q-.04.21,0,.47c.26-.08.51-.15.78-.23Z"/>
  <path d="M24.9,36.27l.16-.36c-.17-.24-.23-.3-.52-.41q-.1.28.01.52t.35.25Z"/>
  <path d="M26.57,37.81l.04-.21c-.22-.13-.43-.26-.65-.39-.03.09-.07.19-.1.28l.52.41.19-.09Z"/>
  <path d="M23.82,20.74l.41-.52c-.36,0-.49.03-.75.28-.06.09-.13.18-.19.27-.07.09-.13.18-.2.27-.05.07-.1.14-.15.21l.07.06c.22-.23.43-.45.65-.69l.15.12Z"/>
  <path d="M26.51,25.58c.22-.38.44-.76.66-1.16-.11.04-.21.07-.32.11l-.22-.17-.12.15c.05.08.11.16.17.25.07.01.14.03.21.04-.07.06-.14.12-.2.18q-.22.21-.32.49l.15.12Z"/>
  <path d="M33.12,17.7l-.15-.12c-.11.11-.22.21-.33.32-.06.06-.12.12-.18.18q-.15.18-.17.52c.4-.26.63-.47.83-.91Z"/>
  <path d="M41.42,44.21l-.15-.12.29-.37c-.05-.08-.11-.16-.17-.25q-.15.16-.29.37l.05.4q-.13.27-.27.5l.07.06q.42-.36.46-.6Z"/>
  <path d="M22.86,22.14l.52-.67c-.12-.05-.23-.1-.36-.16-.13.22-.26.43-.39.65l.22.17Z"/>
  <path d="M20.68,40.16q.11-.21.21-.43-.14-.18-.31-.36l-.26.03c-.01.07-.03.14-.04.21.13.19.27.37.41.55Z"/>
  <path d="M27.73,48.15l.04-.21c-.08-.1-.16-.21-.24-.31q-.05-.16-.11-.32c-.14.08-.29.17-.44.26l.74.58Z"/>
  <path d="M38.24,44.61c-.26-.16-.36-.16-.67-.1-.09.03-.18.05-.27.08.07.03.14.06.21.09.07.04.14.08.22.12.01.09.02.17.03.26q.35-.3.48-.46Z"/>
  <path d="M37.74,12.21c-.26-.16-.36-.16-.67-.1-.09.03-.18.05-.27.08.05.08.11.16.17.25.07.01.14.03.21.04l.12-.15.15.12q.19-.09.31-.24Z"/>
  <path d="M58.66,30.02c.12-.34.15-.45.03-.81q-.19.09-.38.18.18.5.35.63Z"/>
  <path d="M41.37,14.91l-.24-.31-.12.15c-.24-.05-.46-.1-.69-.18-.05.12-.1.23-.16.36.4,0,.8-.01,1.21-.02Z"/>
  <path d="M22.38,42.43l.16-.36c-.07-.01-.14-.03-.21-.04l-.12.15q-.09-.11-.18-.21c-.07-.07-.14-.14-.21-.21-.09.01-.17.02-.26.03q.35.54.64.63c.06,0,.12,0,.18,0Z"/>
  <path d="M56.39,38.17c-.08.05-.16.11-.25.17l-.15-.12c-.19.29-.37.58-.56.88l.07.06c.43-.28.65-.51.88-.98Z"/>
  <path d="M21.81,22.88l.46-.6-.22-.17-.46.6.22.17Z"/>
  <path d="M27.03,24.31c.03-.09.07-.19.1-.28-.14-.07-.28-.14-.43-.21-.08.05-.16.11-.25.17.09.03.19.07.28.1-.05.12-.1.23-.16.36q.22-.04.45-.12Z"/>
  <path d="M36.02,15.65c-.09-.03-.19-.07-.28-.1l-.12.15c-.06,0-.13,0-.2.01-.07.01-.13.02-.2.04q-.1.18-.16.36.73-.17.95-.46Z"/>
  <path d="M24.85,33.25l.12-.15c-.13-.18-.27-.37-.41-.55q-.09.15-.16.36t.18.38l.26-.03Z"/>
  <path d="M21.14,39.56q-.03-.26-.26-.45c-.07-.05-.15-.1-.22-.16l-.17.22c.13.14.26.28.39.42l.12-.15.15.12Z"/>
  <path d="M46.8,14.23l.23-.3-.45-.35q-.09.05-.19.09c.01.09.02.17.03.26.07.01.14.03.21.04l-.12.15c.09.03.19.07.28.1Z"/>
  <path d="M35.05,45.95q.12-.15.11-.35t-.27-.37c-.13.06-.25.12-.38.18l.37.29-.12.15c.09.03.19.07.28.1Z"/>
  <path d="M56.21,27.64q.01-.57-.17-.85-.12.19-.21.43.11.25.26.44l.13-.02Z"/>
  <path d="M55.28,41.13q.39-.49.5-.8l-.15-.12c-.08.09-.16.18-.24.28-.04.05-.09.1-.13.16-.03.05-.06.11-.09.16.04.11.07.21.11.32Z"/>
  <path d="M26,39.16l.16-.36-.37-.29-.23.3.45.35ZM25.44,38.96q.02-.1.04-.21t-.19.09l.15.12Z"/>
  <path d="M28.41,49.27l.06-.07-.74-.58c.03-.09.07-.19.1-.28-.17.02-.35.04-.53.07l1.12.87Z"/>
  <path d="M55.77,35.89c.11-.19.22-.38.33-.58-.05-.08-.11-.16-.17-.25l-.35.45.15.12-.12.15.15.12Z"/>
  <path d="M49.67,44.05q.05-.28.07-.55c-.07-.01-.14-.03-.21-.04l-.17.22s-.09.01-.13.02c0,.11-.02.22-.02.34l.22.17c.08-.05.16-.11.25-.17Z"/>
  <path d="M54.41,40.1c.18-.31.15-.53.09-.89q-.34.38-.37.71c0,.07.01.14.02.21l.12-.15.15.12Z"/>
  <path d="M21.55,31.04l.12-.15c-.05-.08-.11-.16-.17-.25l.23-.3c-.14-.03-.27-.05-.41-.08q-.06.18-.08.41.15.21.31.36Z"/>
  <path d="M32.43,17.52c-.05-.08-.11-.16-.17-.25l-.58.74.15.12c.28-.13.41-.37.6-.61Z"/>
  <path d="M25.83,28.16l.21-1.03c-.09.01-.17.02-.26.03l.15.12c-.08.05-.16.11-.25.17,0,.11-.02.22-.02.34l.15.12-.12.15.15.12Z"/>
  <path d="M36.28,16.09l-.09-.19q-.34-.02-.54.13t-.16.16q.22.09.49.14.18-.11.31-.24Z"/>
  <path d="M53.1,21.04q.07-.24.14-.49c-.09-.03-.19-.07-.28-.1l-.29.37c.14.07.28.14.43.21Z"/>
  <path d="M58.69,29.21q-.07-.64-.17-.85c-.09.01-.17.02-.26.03.05.08.11.16.17.25l-.12.15c.08.14.17.29.26.44l.13-.02Z"/>
  <path d="M58.35,32.88q.15-.46.05-.68l-.17.22-.21-.04c.02.13.03.26.05.4.09.03.19.07.28.1Z"/>
  <path d="M22.6,19.55l.46-.6-.22-.17c-.13.22-.26.43-.39.65l.15.12Z"/>
  <path d="M33.78,13.31l-.09-.19c.01-.07.03-.14.04-.21l-.17.22c-.12-.05-.23-.1-.36-.16l-.17.22.3.23c.1-.08.2-.16.31-.24l.15.12Z"/>
  <path d="M34.19,13.87l.04-.21c-.08.03-.16.07-.24.1q-.26.12-.48.06-.19.15-.36.31c.03.06.06.13.09.19.16-.07.32-.14.47-.21.09-.04.18-.08.27-.12q.1-.06.21-.12Z"/>
  <path d="M21.28,33.7l-.07-.53c-.09-.03-.19-.07-.28-.1-.02.22-.03.45-.05.68.08-.05.16-.11.25-.17l.15.12Z"/>
  <path d="M24.75,31.38q.19-.67.09-.89l-.12.15c-.07-.01-.14-.03-.21-.04-.01.07-.03.14-.04.21l.22.17-.17.22.22.17Z"/>
  <path d="M41.92,14.98l.08-.41c-.2,0-.4,0-.6,0l-.12.15q.49.27.64.26Z"/>
  <path d="M43.11,14.83c.03-.09.07-.19.1-.28-.07-.01-.14-.03-.21-.04l-.12.15-.15-.12-.12.15c.16.05.32.09.49.14ZM42.57,14.76c-.01-.09-.02-.17-.03-.26-.12.1-.24.21-.36.31q.21.04.4-.05Z"/>
  <path d="M23.9,44.93l-.09-.19c.03-.09.07-.19.1-.28l-.67-.52c.04.33.17.49.36.76l.3.23Z"/>
  <path d="M56.86,38.18c.03-.09.07-.19.1-.28.11-.15.23-.3.35-.45-.34.04-.45.18-.69.42-.01.07-.03.14-.04.21.09.03.19.07.28.1Z"/>
  <path d="M20.27,28.85q.07-.24.14-.49l-.22-.17q-.11.2-.21.43c.03.06.06.13.09.19l.21.04Z"/>
  <path d="M30.03,16.61l.12-.15c-.05-.08-.11-.16-.17-.25-.17.02-.35.04-.53.07-.01.07-.03.14-.04.21q.47.14.62.12Z"/>
  <path d="M21.2,29.81l-.05-.4q-.17-.01-.34-.02c-.02.22-.03.45-.05.68.06-.03.13-.06.19-.09.03-.09.07-.19.1-.28l.15.12Z"/>
  <path d="M19.32,33.61q0-.29,0-.6l-.22-.17q-.07.24-.14.49l.37.29Z"/>
  <path d="M30.69,19.75l.52-.67q-.4.05-.57.24t-.12.18c.05.08.11.16.17.25Z"/>
  <path d="M19.75,34.9l-.07-.53q-.25.17-.35.45c-.09-.03-.19-.07-.28-.1q.4.22.69.18Z"/>
  <path d="M21.16,34.32c.07-.19.13-.37.2-.56l-.22-.17c-.07.14-.14.28-.21.43l.24.31Z"/>
  <path d="M21.37,34.96q.07-.24.14-.49c-.09-.03-.19-.07-.28-.1-.05.12-.1.23-.16.36l.3.23Z"/>
  <path d="M21.85,39.88c.03-.09.07-.19.1-.28-.17-.09-.33-.18-.5-.27l-.12.15c.11.16.22.33.33.5l.19-.09Z"/>
  <path d="M42.54,15.1c.03-.09.07-.19.1-.28-.09-.03-.19-.07-.28-.1l-.12.15c-.09.01-.17.02-.26.03.08.1.16.2.24.31.11-.04.21-.07.32-.11Z"/>
  <path d="M44.18,15.3q-.17-.25-.35-.3c-.19-.02-.38-.04-.57-.06.2.3.31.32.65.39l.26-.03Z"/>
  <path d="M32.64,50.89c-.05-.08-.11-.16-.17-.25.01-.07.03-.14.04-.21-.22.03-.44.05-.66.08l.09.19c.23.07.46.13.69.18Z"/>
  <path d="M55.92,25.86l.04-.21c-.19-.09-.36-.16-.56-.2.03-.09.07-.19.1-.28q-.17-.01-.34-.02.03.22.12.45t.49.14l.15.12Z"/>
  <path d="M57.86,25.82q.09-.16.16-.36c-.05-.08-.11-.16-.17-.25q-.19.09-.38.18c.04.11.07.21.11.32.09.03.19.07.28.1Z"/>
  <path d="M53.91,40.9l-.09-.19-.12.15-.41-.08c.05.08.11.16.17.25l-.41.52.07.06q.06-.06.12-.13t.16-.17c.05-.06.11-.11.16-.17q.14-.15.34-.23Z"/>
  <path d="M27.85,18.02l.04-.21-.22-.17-.35.45c.03.06.06.13.09.19q.22-.12.44-.26Z"/>
  <path d="M30.5,19.84l-.36-.16-.23.3c.06.13.12.25.18.38q.36-.29.41-.52Z"/>
  <path d="M21.13,36.81q-.02-.25-.07-.53l-.22-.17c-.05.12-.1.23-.16.36l.45.35Z"/>
  <path d="M46.93,16.37c-.05-.08-.11-.16-.17-.25l.12-.15c.07.01.14.03.21.04-.14-.07-.28-.14-.43-.21-.03.09-.07.19-.1.28-.09-.03-.19-.07-.28-.1l.65.39Z"/>
  <path d="M30.39,42.57l-.45-.35q-.07.24-.14.49l.22.17q.25-.17.36-.31Z"/>
  <path d="M56.88,32.46l.12-.15c-.16-.2-.32-.4-.48-.61q-.07.24-.14.49c.17.09.33.18.5.27Z"/>
  <path d="M53.53,40.01l.41-.52-.22-.17c-.11.19-.22.38-.33.58l.15.12Z"/>
  <path d="M21.8,26.58c.11-.31.08-.49.03-.81-.18.23-.21.36-.26.64l.22.17Z"/>
  <path d="M30.82,16.51c.03-.09.07-.19.1-.28-.09-.03-.19-.07-.28-.1q-.25.17-.3.38c0,.06-.02.13-.03.2.06-.03.12-.06.18-.09q.18-.1.33-.11Z"/>
  <path d="M21.31,32.89l.16-.36c-.22-.13-.43-.26-.65-.39,0,.11-.02.22-.02.34.16.05.32.09.49.14l-.12.15.15.12Z"/>
  <path d="M20.26,34.1l.23-.3c-.08-.14-.17-.29-.26-.44-.07.14-.14.28-.21.43l.24.31Z"/>
  <path d="M34.54,16.75q.05-.13.11-.26c-.03-.06-.06-.13-.09-.19-.32.23-.42.41-.5.8q.32-.11.48-.35Z"/>
  <path d="M21.6,23.71q.04-.1.08-.21c-.09-.03-.19-.07-.28-.1-.13.22-.26.43-.39.65.31-.05.42-.07.59-.35Z"/>
  <path d="M20.9,25.28l.35-.45c-.03-.06-.06-.13-.09-.19-.14.13-.28.26-.42.39.05.08.11.16.17.25Z"/>
  <path d="M22.14,39.51c.03-.09.07-.19.1-.28l-.3-.23-.23.3c.14.07.28.14.43.21Z"/>
  <path d="M49.72,15.55l.12-.15-.6-.46q.04.22.12.45t.36.16Z"/>
  <path d="M31.98,43.45l.04-.21-.37-.29c-.08.05-.16.11-.25.17.15.12.3.23.45.35l.13-.02Z"/>
  <path d="M52.2,20.34l-.03-.26c.08-.05.16-.11.25-.17-.28-.15-.45-.17-.75-.11l.54.54Z"/>
  <path d="M40.72,45.58l.46-.6-.15-.12c-.26.12-.37.31-.54.54l.22.17Z"/>
  <path d="M58.43,27.09q.05-.19.08-.41c-.05-.08-.11-.16-.17-.25l-.23.3c.06.13.12.25.18.38l.13-.02Z"/>
  <path d="M32.66,13.52c-.09-.03-.19-.07-.28-.1-.12.1-.24.21-.36.31l.15.12q.32-.11.5-.33Z"/>
  <path d="M55.45,35.53l.29-.37c-.05-.08-.11-.16-.17-.25q-.14.25-.27.5l.15.12Z"/>
  <path d="M55.04,36.52l.08-.41q-.09.05-.19.09c-.01.07-.03.14-.04.21l.15.12Z"/>
  <path d="M25.13,46.73l.12-.15-.22-.17-.12.15.22.17Z"/>
  <circle cx="34.65" cy="35.29" r="1.18"/>
  <circle cx="39.8" cy="26.81" r="1.18"/>
  <circle cx="44.95" cy="34.97" r="1.18"/>
  <path d="M72.16,41.32v-19.56h3.4l.4,3c1.24-2.24,3.72-3.56,6.48-3.56,5.16,0,7.52,3.16,7.52,8.16v11.96h-3.76v-11.12c0-3.96-1.84-5.56-4.72-5.56-3.52,0-5.56,2.52-5.56,6.32v10.36h-3.76Z"/>
  <path d="M95.64,35.88c0-3.6,2.68-5.84,7.28-6.2l6.16-.48v-.56c0-3.28-1.96-4.44-4.6-4.44-3.16,0-4.96,1.4-4.96,3.76h-3.28c0-4.08,3.36-6.76,8.4-6.76s8.12,2.56,8.12,7.84v12.28h-3.2l-.4-3.16c-1,2.24-3.68,3.64-6.84,3.64-4.2,0-6.68-2.36-6.68-5.92ZM109.11,32.88v-1.04l-5,.4c-3.32.32-4.68,1.6-4.68,3.52,0,2.08,1.52,3.12,3.96,3.12,3.56,0,5.72-2.32,5.72-6Z"/>
  <path d="M118.44,41.32v-19.56h3.36l.36,2.56c1-1.84,3.08-3.12,5.84-3.12,3.04,0,5.2,1.52,6.2,3.96.92-2.44,3.28-3.96,6.32-3.96,4.48,0,7.2,2.8,7.2,7.32v12.8h-3.68v-11.88c0-3.08-1.72-4.84-4.36-4.84-2.84,0-4.72,2-4.72,5.12v11.6h-3.72v-11.92c0-3.08-1.68-4.76-4.32-4.76-2.84,0-4.72,1.96-4.72,5.08v11.6h-3.76Z"/>
  <path d="M153.39,31.56c0-6.12,3.88-10.36,9.56-10.36s9.2,3.84,9.2,9.64v1.4l-15.12.04c.28,4.12,2.44,6.4,6.16,6.4,2.92,0,4.84-1.2,5.48-3.44h3.52c-.96,4.2-4.24,6.56-9.08,6.56-5.76,0-9.72-4.16-9.72-10.24ZM157.11,29.76h11.28c0-3.24-2.12-5.4-5.44-5.4s-5.36,1.96-5.84,5.4Z"/>
  <path d="M177.87,41.32V11.89h3.76v29.44h-3.76Z"/>
  <path d="M191.63,31.59v-1.82l5.74-5.52h-9.11v-2.44h12.58v2.21l-5.55,5.3c3.45.42,6.05,2.75,6.05,6.39,0,4.09-3.08,6.7-7.2,6.7s-6.84-2.44-6.84-6.64h2.72c0,2.63,1.63,4.18,4.18,4.18s4.34-1.68,4.34-4.29c0-2.44-1.68-4.06-4.9-4.06h-2.02Z"/>
  <path d="M210.64,35.64c0,2,1.52,3.2,4,3.2,2.64,0,4.16-1.08,4.16-2.88,0-1.32-.64-2.12-2.68-2.64l-3.44-.8c-3.48-.84-5.12-2.56-5.12-5.44,0-3.6,3.04-5.88,7.36-5.88s7.08,2.4,7.16,6.12h-3.6c-.08-1.96-1.4-3.2-3.68-3.2s-3.68,1.04-3.68,2.84c0,1.32.96,2.2,2.88,2.68l3.44.84c3.32.8,4.96,2.32,4.96,5.24,0,3.72-3.2,6.08-7.84,6.08s-7.52-2.44-7.52-6.16h3.6Z"/>
  <path d="M231.68,35.64c0,2,1.52,3.2,4,3.2,2.64,0,4.16-1.08,4.16-2.88,0-1.32-.64-2.12-2.68-2.64l-3.44-.8c-3.48-.84-5.12-2.56-5.12-5.44,0-3.6,3.04-5.88,7.36-5.88s7.08,2.4,7.16,6.12h-3.6c-.08-1.96-1.4-3.2-3.68-3.2s-3.68,1.04-3.68,2.84c0,1.32.96,2.2,2.88,2.68l3.44.84c3.32.8,4.96,2.32,4.96,5.24,0,3.72-3.2,6.08-7.84,6.08s-7.52-2.44-7.52-6.16h3.6Z"/>
</svg>