<?xml version="1.0" encoding="UTF-8" standalone="no"?>
<!-- Created with Inkscape (http://www.inkscape.org/) -->

<svg
   width="512mm"
   height="511.99994mm"
   viewBox="0 0 512 511.99992"
   version="1.1"
   id="svg1"
   xml:space="preserve"
   inkscape:version="1.3 (0e150ed6c4, 2023-07-21)"
   sodipodi:docname="chango_icon.svg"
   inkscape:export-filename="chango_icon_1024.png"
   inkscape:export-xdpi="50.800003"
   inkscape:export-ydpi="50.800003"
   xmlns:inkscape="http://www.inkscape.org/namespaces/inkscape"
   xmlns:sodipodi="http://sodipodi.sourceforge.net/DTD/sodipodi-0.dtd"
   xmlns="http://www.w3.org/2000/svg"
   xmlns:svg="http://www.w3.org/2000/svg"><sodipodi:namedview
     id="namedview1"
     pagecolor="#ffffff"
     bordercolor="#000000"
     borderopacity="0.25"
     inkscape:showpageshadow="2"
     inkscape:pageopacity="0.0"
     inkscape:pagecheckerboard="0"
     inkscape:deskcolor="#d1d1d1"
     inkscape:document-units="mm"
     inkscape:zoom="0.4894542"
     inkscape:cx="1650.8184"
     inkscape:cy="372.8643"
     inkscape:window-width="3840"
     inkscape:window-height="2071"
     inkscape:window-x="1911"
     inkscape:window-y="-9"
     inkscape:window-maximized="1"
     inkscape:current-layer="layer1" /><defs
     id="defs1" /><g
     inkscape:label="Ebene 1"
     inkscape:groupmode="layer"
     id="layer1"
     transform="translate(-542.70681,253.36522)"><path
       id="path17"
       style="fill:#000000;stroke-width:2.60497"
       d="m 1054.7068,-195.27394 c 0,-0.15671 -4.0444,1.10454 -8.9869,2.8027 -8.7226,2.99689 -26.5326,8.5279 -45.3628,14.08753 -21.3688,6.30916 -40.585,13.2811 -64.7152,23.47967 l -7.0632,2.98443 -11.6443,23.4339 c -6.4041,12.88863 -12.1323,24.0542 -12.7293,24.81236 -0.9943,1.26265 -1.087,1.27526 -1.1078,0.14135 -0.028,-1.57791 3.7582,-25.98333 5.1369,-33.11277 0.5746,-2.97119 1.0446,-5.54087 1.0446,-5.7104 0,-0.54079 -2.8494,1.15368 -13.4777,8.01233 -11.9812,7.73166 -25.6107,17.71872 -36.5711,26.7966 l -7.6623,6.34578 -5.3631,19.096582 c -2.9497,10.502991 -6.06812,21.575455 -6.93001,24.6064 -0.86185,3.030948 -1.50067,5.577299 -1.42017,5.657896 0.0805,0.0806 1.21837,-0.796806 2.52942,-1.949233 5.47906,-4.816253 27.10686,-22.580688 31.45426,-25.835442 19.1474,-14.335028 47.0465,-32.176973 64.6842,-41.367403 17.9111,-9.33284 37.9312,-17.05399 59.5998,-22.98697 4.3593,-1.19363 9.433,-2.63291 11.2754,-3.19847 1.8424,-0.56556 3.4822,-0.89805 3.6427,-0.73769 0.7845,0.78448 -24.7766,13.95923 -49.0351,25.27409 -32.7873,15.2929 -59.5861,30.745509 -82.3633,47.491067 -16.3165,11.99577 -46.66598,37.336669 -62.71745,52.366847 -9.45571,8.854117 -39.09655,37.825827 -43.00432,42.033747 -1.1788,1.26932 -2.71404,2.61324 -3.41251,2.98712 -1.7599,0.94204 0.0326,-1.5231 9.85656,-13.5477202 13.02882,-15.94731 39.85743,-44.2105928 52.06532,-54.8505058 l 2.75692,-2.402889 -0.23835,-18.772159 -0.23836,-18.773502 -2.0529,1.72712 c -3.66722,3.085767 -13.65966,14.257494 -21.65966,24.216014 -9.28822,11.562116 -23.87718,32.505855 -34.39564,49.377032 -4.16986,6.6882498 -7.83787,12.1745898 -8.15099,12.1921398 -0.31312,0.0176 -3.4147,-2.58579 -6.89231,-5.78443 -22.95372,-21.1123178 -41.47562,-32.3756928 -64.81862,-39.4181658 -5.90555,-1.781676 -19.50843,-4.338827 -23.76371,-4.466548 l -2.51598,-0.07539 3.10156,-0.656925 c 4.42439,-0.936922 24.15174,-0.175731 30.3262,1.16981 12.03526,2.62272 24.07945,7.771193 35.74452,15.27888 6.04596,3.891192 16.51302,11.835009 20.61505,15.646379 l 2.25614,2.09597 3.86349,-3.86347 c 2.16634,-2.16635 3.65662,-4.199069 3.39229,-4.626743 -0.82845,-1.340477 -17.75734,-14.601839 -23.8283,-18.665809 -20.45943,-13.695794 -41.80926,-22.037551 -64.56841,-25.228325 -10.93964,-1.533706 -29.94283,-1.019925 -39.77759,1.07558 -14.95247,3.185942 -32.02856,10.218369 -43.53607,17.928116 -18.8449,12.625585 -32.98312,28.772221 -43.39874,49.5641508 -7.96489,15.8997202 -11.25692,29.3201102 -11.85291,48.3243302 -0.69402,22.12923 2.57775,38.82168 11.14079,56.841479 14.30882,30.11103 37.64776,52.01075 68.27573,64.0636 8.16453,3.21293 18.75775,6.58271 20.69043,6.58271 1.77451,0 1.03209,2.6512 -3.78943,13.5208 -2.28232,5.14516 -4.15021,9.48072 -4.15021,9.63444 0,0.66123 1.00721,-0.005 7.72559,-5.1127 9.86954,-7.50293 12.64178,-9.31438 19.71717,-12.88272 5.73266,-2.89115 6.84907,-3.19451 15.38791,-4.17713 45.53531,-5.24004 75.57765,-23.68575 119.47143,-73.35208 14.62263,-16.545699 30.04959,-34.156169 36.79045,-41.998749 10.81941,-12.58769 28.15521,-29.48579 38.69261,-37.71662 11.8101,-9.22487 22.1006,-14.79744 32.3939,-17.5417702 7.672,-2.04547 20.0651,-2.18998 27.2247,-0.31635 17.0106,4.4516202 31.5734,18.6923602 35.1118,34.3364202 4.3476,19.22165 -0.5199,35.63635 -14.416,48.61377 -5.5772,5.20847 -12.1754,8.88027 -19.662,10.941559 -6.276,1.72792 -20.7807,1.71488 -26.5354,-0.0229 -12.9423,-3.908239 -28.0238,-14.000149 -44.2442,-29.608719 -3.8745,-3.72841 -7.3686,-6.57972 -7.7646,-6.33501 -0.3959,0.24471 -5.2942,5.76322 -10.885,12.26214 -5.5908,6.49893 -12.18084,14.13054 -14.64485,16.96023 -2.464,2.8297 -5.33608,6.155359 -6.38213,7.389059 l -1.90213,2.2427 8.31927,7.6354 c 27.47124,25.21315 50.57104,36.0653 78.88204,37.05969 13.2572,0.46565 22.4237,-0.73819 33.4278,-4.38981 16.7625,-5.56251 28.1627,-12.47749 39.6309,-24.03967 11.9349,-12.03272 19.0231,-23.188189 24.3533,-38.329129 5.3015,-15.05963 6.6854,-33.45202 3.889,-51.6803 -0.8346,-5.44088 1.8332,3.39859 3.4893,11.56079 3.8565,19.00696 1.3743,39.80264 -6.8937,57.74609 -4.6578,10.108399 -16.1153,25.541499 -24.3223,32.761419 -22.3235,19.63837 -48.889,29.1518 -78.3989,28.07679 -16.2195,-0.59085 -27.0673,-3.2444 -41.6985,-10.20117 -13.426,-6.38366 -23.30593,-13.63919 -37.61299,-27.62179 -5.74139,-5.61119 -10.58887,-10.20253 -10.77331,-10.20253 -0.18443,0 -3.04477,2.9827 -6.35519,6.62713 l -6.01869,6.62579 1.94925,2.05692 c 3.09578,3.26699 19.96407,17.12236 26.76159,21.9814 24.59144,17.5785 45.62594,25.5053 73.09904,27.54641 26.7586,1.98802 54.6246,-5.3044 77.3878,-20.25159 26.4647,-17.37766 46.0985,-46.89687 52.6253,-79.121709 1.3757,-6.7916 1.5893,-9.90024 1.5872,-23.01524 0,-13.15894 -0.2183,-16.2563 -1.6356,-23.4339 -2.8414,-14.38839 -8.8616,-29.8331502 -16.1202,-41.3539402 -10.1427,-16.0981618 -29.202,-34.5111738 -43.5832,-42.1064398 l -4.8247,-2.548275 -5.1692,3.905203 c -8.7793,6.632476 -17.8987,10.852247 -53.0709,24.552553 -18.1525,7.070789 -28.7694,11.878719 -40.6647,18.4154288 -18.5634,10.20099 -38.76485,25.3124702 -54.96759,41.1197002 l -4.99829,4.87713 -6.1829,-6.15328 -6.18155,-6.15329 -1.83078,1.68943 c -3.2869,3.03221 -22.38742,27.35649 -41.6447,53.03589 -21.2305,28.310629 -34.40515,44.979479 -36.78372,46.537979 -0.88236,0.57814 -3.66799,1.48221 -6.18965,2.00982 -2.52167,0.5276 -5.58923,1.54633 -6.81693,2.26289 -4.11838,2.40373 -27.42234,30.61477 -29.76488,36.03258 -0.73757,1.70584 -1.40815,3.20398 -1.4902,3.32904 -0.0821,0.12507 -2.52018,0.83528 -5.41827,1.5777 -2.89808,0.74242 -7.00589,2.11773 -9.12694,3.05577 -2.12109,0.93804 -3.93228,1.62355 -4.02502,1.52385 -0.0927,-0.0997 0.18808,-3.16777 0.62327,-6.81828 0.76573,-6.42235 0.88082,-6.72388 3.54847,-9.32348 3.01385,-2.93698 14.64864,-20.67195 22.3516,-34.06989 5.2487,-9.12919 5.58574,-10.53261 4.08558,-17.03157 -0.74872,-3.24362 -0.66314,-3.70314 1.72309,-9.25887 1.381,-3.215309 2.51057,-6.067749 2.51057,-6.339049 0,-0.2713 -1.68805,0.47236 -3.75174,1.65308 -8.8315,5.052869 -19.62104,7.362439 -31.26719,6.693089 -10.51141,-0.60413 -16.41646,-2.727299 -25.37908,-9.122909 -25.37902,-18.11009 -26.12824,-57.20016 -1.47001,-76.73497 13.44319,-10.6500102 31.42876,-13.7143002 48.31088,-8.2317502 9.65223,3.1346202 18.77789,8.5295802 29.40949,17.3883102 6.96614,5.8045 23.43389,21.70868 23.43389,22.63158 0,0.35638 -2.42718,3.8008 -5.39404,7.65425 -9.84838,12.79151 -20.80141,28.72337 -24.23487,35.25047 -5.07026,9.638719 -2.62492,18.966809 6.00923,22.919659 2.90087,1.32807 4.37802,1.61913 6.506,1.27885 4.25413,-0.68026 8.90791,-3.42389 12.00233,-7.07675 5.90141,-6.96638 18.94,-23.682439 33.03603,-42.354129 26.16624,-34.65993 35.14683,-44.07379 57.93185,-60.7224402 C 836.72902,-11.293639 859.1101,-23.64879 889.1443,-36.144749 l 3.6441,-1.515773 -8.4687,-2.254813 c -4.6576,-1.239797 -9.8131,-2.411297 -11.4558,-2.603466 -1.9848,-0.232208 -2.6785,-0.544372 -2.0677,-0.931541 1.3549,-0.858841 18.652,-0.727697 25.4047,0.192507 3.2122,0.437732 6.4613,0.779291 7.2194,0.759233 2.6149,-0.06927 41.0093,-17.026931 41.0093,-18.112541 0,-1.859549 -20.6093,-8.621726 -37.5631,-12.325411 -17.9326,-3.91749 -18.3201,-4.046866 -12.4062,-4.120587 8.146,-0.101542 24.1642,1.216686 33.3295,2.742122 8.3631,1.391917 23.4904,5.329237 26.3456,6.857324 1.115,0.596734 2.1573,0.257762 5.6525,-1.83885 35.916,-21.544024 63.8998,-54.805475 84.9775,-101.002145 3.6144,-7.92179 9.9414,-23.81664 9.9414,-24.97525 z M 640.80127,-54.749971 c 0,0 0.60504,4.413148 2.02193,6.916553 0.0591,0.09513 0.11827,0.201651 0.17766,0.292116 0.18782,0.295759 0.38283,0.574618 0.59771,0.787502 1.98103,1.962797 8.00425,2.70443 8.00425,2.70443 0,0 -6.03335,0.816276 -7.99617,2.797313 -1.96277,1.981043 -2.70579,8.004247 -2.70579,8.004247 0,0 -0.81627,-6.033377 -2.7973,-7.996171 -1.98105,-1.962797 -8.00424,-2.705775 -8.00424,-2.705775 0,0 6.03335,-0.816273 7.99617,-2.797313 1.96274,-1.981045 2.70576,-8.002902 2.70576,-8.002902 z m -1.62347,34.787382 c 0,0 0.0586,0.42745 0.19928,0.56673 0.14067,0.13927 0.5681,0.1925 0.5681,0.1925 0,0 -0.42873,0.0573 -0.5681,0.19789 -0.1391,0.14057 -0.1912,0.56808 -0.1912,0.56808 0,0 -0.0586,-0.42747 -0.19928,-0.56674 -0.14067,-0.13926 -0.56807,-0.1925 -0.56807,-0.1925 0,0 0.4287,-0.0573 0.56807,-0.19788 0.13936,-0.14057 0.1912,-0.56808 0.1912,-0.56808 z m -32.5137,2.5052 c 0,0 0.12738,0.94467 0.43748,1.25193 0.31012,0.30726 1.25328,0.42269 1.25328,0.42269 0,0 -0.94467,0.12874 -1.25193,0.43885 -0.30728,0.3101 -0.42403,1.25192 -0.42403,1.25192 0,0 -0.12739,-0.94467 -0.43751,-1.25192 -0.31012,-0.30726 -1.25328,-0.4227 -1.25328,-0.4227 0,0 0.94467,-0.12873 1.25193,-0.43884 0.3072,-0.31011 0.42406,-1.25193 0.42406,-1.25193 z m 62.67704,1.07019 c 0,0 0.2196,1.62733 0.75386,2.15655 0.53412,0.52922 2.15788,0.72961 2.15788,0.72961 0,0 -1.62597,0.22106 -2.1552,0.7552 -0.52928,0.53413 -0.7296,2.15654 -0.7296,2.15654 0,0 -0.21986,-1.62598 -0.75385,-2.1552 -0.53415,-0.52921 -2.15924,-0.72961 -2.15924,-0.72961 0,0 1.62733,-0.21971 2.15655,-0.75385 0.5292,-0.53414 0.7296,-2.15924 0.7296,-2.15924 z m 68.67554,18.0977398 c 0,0 0.12739,0.94467 0.43751,1.25192 0.31012,0.30726 1.25328,0.42404 1.25328,0.42404 0,0 -0.94467,0.1274 -1.25193,0.4375 -0.30728,0.31011 -0.42271,1.25328 -0.42271,1.25328 0,0 -0.12738,-0.94468 -0.4375,-1.25193 -0.31012,-0.30726 -1.25325,-0.42269 -1.25325,-0.42269 0,0 0.94331,-0.12874 1.25057,-0.43885 0.3072,-0.31011 0.42403,-1.25327 0.42403,-1.25327 z M 569.17902,33.984651 c 0,0 0.21959,1.62732 0.75382,2.15654 0.53413,0.52922 2.15791,0.72962 2.15791,0.72962 0,0 -1.62597,0.2197 -2.1552,0.75385 -0.52928,0.53413 -0.72962,2.15788 -0.72962,2.15788 0,0 -0.2196,-1.62733 -0.75386,-2.15654 -0.53415,-0.52921 -2.15923,-0.72827 -2.15923,-0.72827 0,0 1.62732,-0.22106 2.15655,-0.75519 0.5292,-0.53414 0.72963,-2.15789 0.72963,-2.15789 z m 5.21364,26.85313 c 0,0 0.51732,3.82024 1.77156,5.0629 1.25422,1.24267 5.06826,1.71231 5.06826,1.71231 0,0 -3.82021,0.51733 -5.06289,1.77154 -1.24265,1.25423 -1.71366,5.06694 -1.71366,5.06694 0,0 -0.51596,-3.82024 -1.77018,-5.0629 -1.25424,-1.24267 -5.06829,-1.71231 -5.06829,-1.71231 0,0 3.8202,-0.51732 5.0629,-1.77154 1.24268,-1.25422 1.7123,-5.06694 1.7123,-5.06694 z M 862.7273,102.73018 c 0,0 0.516,3.82023 1.7703,5.0629 1.2542,1.24267 5.0682,1.71231 5.0682,1.71231 0,0 -3.8189,0.51732 -5.0615,1.77154 -1.2427,1.25422 -1.7137,5.06694 -1.7137,5.06694 0,0 -0.516,-3.81889 -1.7702,-5.06155 -1.2542,-1.24268 -5.0683,-1.71366 -5.0683,-1.71366 0,0 3.8202,-0.51597 5.0629,-1.7702 1.2427,-1.25422 1.7123,-5.06828 1.7123,-5.06828 z m -269.49113,10.98464 c 0,0 0.2196,1.62733 0.75385,2.15655 0.53413,0.52921 2.15924,0.72961 2.15924,0.72961 0,0 -1.62733,0.21971 -2.15655,0.75385 -0.52928,0.53414 -0.7296,2.15789 -0.7296,2.15789 0,0 -0.2196,-1.62598 -0.75386,-2.1552 -0.53415,-0.52921 -2.15788,-0.72961 -2.15788,-0.72961 0,0 1.62595,-0.22106 2.15517,-0.7552 0.5292,-0.53413 0.72963,-2.15789 0.72963,-2.15789 z m 312.29363,15.21696 c 0,0 0.1677,1.23901 0.5748,1.64231 0.407,0.40331 1.645,0.55596 1.645,0.55596 0,0 -1.2391,0.16776 -1.6424,0.57481 -0.4033,0.40706 -0.5559,1.64501 -0.5559,1.64501 0,0 -0.1678,-1.24035 -0.5748,-1.64366 -0.4071,-0.40331 -1.645,-0.55596 -1.645,-0.55596 0,0 1.239,-0.16776 1.6423,-0.57481 0.4034,-0.40706 0.556,-1.64366 0.556,-1.64366 z m -240.69963,4.85693 c 0,0 0.0573,0.42879 0.19797,0.56808 0.14067,0.13926 0.56807,0.19115 0.56807,0.19115 0,0 -0.42735,0.0587 -0.56671,0.19923 -0.13911,0.14057 -0.19251,0.56808 -0.19251,0.56808 0,0 -0.0586,-0.42882 -0.19928,-0.56808 -0.14067,-0.13926 -0.56809,-0.19115 -0.56809,-0.19115 0,0 0.42872,-0.0587 0.56809,-0.19923 0.13937,-0.14056 0.19251,-0.56808 0.19251,-0.56808 z m -28.0337,8.09445 c 0,0 0.12738,0.94467 0.4375,1.25192 0.31013,0.30726 1.25326,0.42404 1.25326,0.42404 0,0 -0.94467,0.12738 -1.25193,0.4375 -0.30728,0.31011 -0.42268,1.25327 -0.42268,1.25327 0,0 -0.12738,-0.94467 -0.43751,-1.25192 -0.31012,-0.30726 -1.25327,-0.42404 -1.25327,-0.42404 0,0 0.94466,-0.12738 1.25192,-0.4375 0.3072,-0.31011 0.42271,-1.25327 0.42271,-1.25327 z" /></g></svg>
