<?xml version="1.0" encoding="UTF-8" standalone="no"?>
<!-- Created with Inkscape (http://www.inkscape.org/) -->

<svg
   width="196.54718mm"
   height="151.95695mm"
   viewBox="0 0 196.54718 151.95695"
   version="1.1"
   id="svg1"
   xml:space="preserve"
   inkscape:version="1.3 (0e150ed6c4, 2023-07-21)"
   sodipodi:docname="chango_light_mode.svg"
   inkscape:export-filename="chango_light_mode_1024.png"
   inkscape:export-xdpi="132.33261"
   inkscape:export-ydpi="132.33261"
   xmlns:inkscape="http://www.inkscape.org/namespaces/inkscape"
   xmlns:sodipodi="http://sodipodi.sourceforge.net/DTD/sodipodi-0.dtd"
   xmlns="http://www.w3.org/2000/svg"
   xmlns:svg="http://www.w3.org/2000/svg"><sodipodi:namedview
     id="namedview1"
     pagecolor="#ffffff"
     bordercolor="#000000"
     borderopacity="0.25"
     inkscape:showpageshadow="2"
     inkscape:pageopacity="0.0"
     inkscape:pagecheckerboard="0"
     inkscape:deskcolor="#d1d1d1"
     inkscape:document-units="mm"
     inkscape:zoom="0.4894542"
     inkscape:cx="1054.2355"
     inkscape:cy="-307.48536"
     inkscape:window-width="3840"
     inkscape:window-height="2071"
     inkscape:window-x="1911"
     inkscape:window-y="-9"
     inkscape:window-maximized="1"
     inkscape:current-layer="layer1" /><defs
     id="defs1" /><g
     inkscape:label="Ebene 1"
     inkscape:groupmode="layer"
     id="layer1"
     transform="translate(-700.43321,73.343729)"><path
       id="path17"
       style="fill:#000000"
       d="m 896.98039,-73.338676 c 0,-0.06016 -1.55256,0.424012 -3.44992,1.075903 -3.34844,1.15045 -10.18537,3.273701 -17.41392,5.407939 -8.20306,2.421967 -15.5798,5.098364 -24.84293,9.013403 l -2.71146,1.145667 -4.47001,8.995833 c -2.45843,4.947703 -4.65737,9.233958 -4.88653,9.525 -0.38169,0.484708 -0.41729,0.48955 -0.42529,0.05426 -0.0107,-0.605729 1.44273,-9.974512 1.97197,-12.711368 0.22057,-1.140586 0.40101,-2.127035 0.40101,-2.192115 0,-0.207601 -1.09382,0.442876 -5.17385,3.075782 -4.59935,2.96804 -9.83147,6.801885 -14.03893,10.28671 l -2.94143,2.436027 -2.05878,7.330819 c -1.13235,4.031901 -2.32945,8.282412 -2.66031,9.445935 -0.33085,1.163524 -0.57608,2.14102 -0.54518,2.17196 0.0309,0.03094 0.46771,-0.305879 0.971,-0.748274 2.10332,-1.848869 10.40582,-8.668302 12.07471,-9.917741 7.35032,-5.502948 18.06025,-12.352136 24.83104,-15.880168 6.87572,-3.582705 14.56109,-6.546706 22.87923,-8.824267 1.67348,-0.458213 3.62115,-1.010724 4.32842,-1.227832 0.70728,-0.217107 1.33676,-0.344747 1.39836,-0.283187 0.30115,0.30115 -9.51127,5.358689 -18.82366,9.70225 -12.5864,5.870655 -22.87396,11.802623 -31.61771,18.230928 -6.26361,4.604951 -17.91419,14.332846 -24.07605,20.1026493 -3.62987,3.3989284 -15.00843,14.5206246 -16.50855,16.135966 -0.45252,0.4872679 -1.04187,1.0031737 -1.31,1.1466997 -0.67559,0.361629 0.0125,-0.5846886 3.78375,-5.2007158 5.00152,-6.1218746 15.30052,-16.9716162 19.9869,-21.0560792 l 1.05833,-0.922424 -0.0915,-7.206279 -0.0915,-7.206795 -0.78807,0.663009 c -1.40778,1.184568 -5.24369,5.473184 -8.31474,9.296073 -3.56557,4.438479 -9.166,12.4783871 -13.20384,18.9549155 -1.60073,2.56749484 -3.00881,4.6735944 -3.12901,4.6803344 -0.1202,0.00674 -1.31084,-0.9926365 -2.64583,-2.22053627 -8.8115,-8.10462123 -15.92171,-12.42841963 -24.88265,-15.13189263 -2.26703,-0.683952 -7.48892,-1.665594 -9.12244,-1.714624 l -0.96584,-0.02894 1.19063,-0.252181 c 1.69844,-0.359667 9.2714,-0.06746 11.64166,0.449068 4.62011,1.006813 9.24365,2.983215 13.72165,5.865275 2.32093,1.4937558 6.33904,4.5432356 7.91373,6.0063519 l 0.86609,0.8046021 1.48312,-1.4831137 c 0.83162,-0.8316221 1.40371,-1.6119428 1.30224,-1.7761189 -0.31803,-0.5145847 -6.81671,-5.6053724 -9.14724,-7.1654544 -7.85399,-5.257558 -16.04979,-8.459802 -24.7866,-9.68468 -4.19952,-0.588761 -11.49449,-0.39153 -15.26987,0.412895 -5.73997,1.223023 -12.29516,3.92264 -16.71268,6.882267 -7.2342,4.846725 -12.6616,11.0451137 -16.65996,19.0267456 -3.05757,6.1036059 -4.32132,11.2554424 -4.55011,18.5508054 -0.26642,8.494993 0.98955,14.902914 4.27674,21.820374 5.49289,11.559058 14.45227,19.965952 26.20977,24.592814 3.13421,1.233383 7.20075,2.526978 7.94267,2.526978 0.6812,0 0.3962,1.017748 -1.45469,5.19038 -0.87614,1.975133 -1.59319,3.639473 -1.59319,3.698483 0,0.253832 0.38665,-0.002 2.96571,-1.962671 3.78873,-2.880234 4.85294,-3.575614 7.56905,-4.945435 2.20066,-1.109858 2.62923,-1.22631 5.90713,-1.60352 17.48015,-2.011552 29.01284,-9.092513 45.86284,-28.158487 5.61335,-6.351582 11.53547,-13.111912 14.12316,-16.122531 4.15336,-4.832179 10.80824,-11.319041 14.85336,-14.478702 4.53367,-3.5412545 8.48401,-5.6804599 12.43542,-6.7339563 2.94515,-0.7852169 7.70261,-0.8406929 10.45104,-0.1214396 6.53005,1.7088937 12.12043,7.1756459 13.47876,13.1811079 1.66896,7.378829 -0.19958,13.680123 -5.53403,18.66191 -2.14097,1.999437 -4.6739,3.408971 -7.54786,4.20026 -2.40926,0.663317 -7.97734,0.658311 -10.18645,-0.0088 -4.96832,-1.500302 -10.75779,-5.374397 -16.9845,-11.366231 -1.48737,-1.431269 -2.82869,-2.525833 -2.98069,-2.431893 -0.15199,0.09394 -2.03236,2.212393 -4.17856,4.707206 -2.1462,2.494815 -4.67599,5.424447 -5.62188,6.510714 -0.94588,1.086267 -2.04842,2.362926 -2.44998,2.836519 l -0.73019,0.86093 3.19361,2.931087 c 10.54569,9.678856 19.41329,13.844791 30.28135,14.226522 5.08919,0.178752 8.60803,-0.283379 12.83229,-1.685169 6.43482,-2.135342 10.81113,-4.789873 15.21355,-9.228377 4.58158,-4.619133 7.30263,-8.901511 9.34878,-14.713831 2.03516,-5.781111 2.56639,-12.841602 1.49293,-19.839099 -0.32042,-2.088649 0.70372,1.304655 1.33946,4.437972 1.48043,7.296414 0.52759,15.279486 -2.64636,22.167639 -1.78803,3.880425 -6.18636,9.804903 -9.33689,12.576494 -8.56954,7.538802 -18.76757,11.190828 -30.09584,10.778153 -6.22637,-0.226818 -10.39062,-1.245464 -16.00729,-3.91604 -5.15396,-2.450567 -8.9467,-5.235826 -14.43891,-10.603487 -2.20401,-2.15403 -4.06487,-3.916557 -4.13567,-3.916557 -0.0708,0 -1.16883,1.145 -2.43964,2.544031 l -2.31046,2.543514 0.74828,0.789616 c 1.18841,1.254136 7.66383,6.57295 10.27327,8.438244 9.44019,6.748058 17.51493,9.791007 28.06134,10.574549 10.27215,0.763166 20.96937,-2.036259 29.70775,-7.774203 10.15929,-6.670958 17.69632,-18.002829 20.20186,-30.37334 0.52808,-2.607165 0.61009,-3.800516 0.60927,-8.835119 -8.3e-4,-5.051467 -0.0838,-6.240487 -0.62787,-8.995833 -1.09077,-5.5234324 -3.40179,-11.4523854 -6.18825,-15.8750005 -3.89357,-6.1797822 -11.21007,-13.2481915 -16.73076,-16.1638715 l -1.85209,-0.978235 -1.98437,1.499134 c -3.37021,2.546083 -6.87097,4.165974 -20.37292,9.4252642 -6.96841,2.7143431 -11.04404,4.5600151 -15.61042,7.0693359 -7.12613,3.9159715 -14.8811,9.7169816 -21.10103,15.7850829 l -1.91875,1.872237 -2.3735,-2.362129 -2.37298,-2.36213 -0.7028,0.648539 c -1.26178,1.164007 -8.59411,10.501643 -15.98662,20.359481 -8.14999,10.867919 -13.20749,17.266777 -14.12058,17.865059 -0.33872,0.221937 -1.40807,0.568993 -2.37609,0.771529 -0.96802,0.202537 -2.1456,0.593608 -2.61689,0.868681 -1.58097,0.922747 -10.52692,11.752438 -11.42618,13.832231 -0.28314,0.654843 -0.54056,1.229948 -0.57206,1.277958 -0.0315,0.04801 -0.96745,0.320647 -2.07997,0.605648 -1.11252,0.285002 -2.68943,0.812959 -3.50366,1.173055 -0.81425,0.360095 -1.50953,0.623247 -1.54513,0.584977 -0.0356,-0.03826 0.0722,-1.216047 0.23926,-2.617411 0.29395,-2.465418 0.33813,-2.58117 1.36219,-3.57911 1.15696,-1.127452 5.62334,-7.935573 8.58036,-13.078788 2.01488,-3.504528 2.14426,-4.043273 1.56838,-6.538102 -0.28742,-1.245166 -0.25457,-1.421565 0.66146,-3.554305 0.53014,-1.234299 0.96376,-2.329297 0.96376,-2.433444 0,-0.104147 -0.64801,0.18133 -1.44022,0.634587 -3.39025,1.939704 -7.53215,2.826303 -12.00289,2.569352 -4.03513,-0.231915 -6.30197,-1.046958 -9.74255,-3.502112 -9.74253,-6.952125 -10.03014,-21.95807 -0.56431,-29.4571164 5.16059,-4.0883388 12.06491,-5.2646608 18.54564,-3.1600138 3.70531,1.2033216 7.20848,3.2743457 11.28975,6.6750452 2.67417,2.228238 8.99583,8.333557 8.99583,8.687841 0,0.136806 -0.93175,1.459053 -2.07067,2.938322 -3.78061,4.910421 -7.98527,11.026362 -9.30331,13.531991 -1.94638,3.700124 -1.00766,7.281002 2.30683,8.798429 1.11359,0.509819 1.68064,0.621553 2.49753,0.490926 1.63308,-0.261141 3.41958,-1.314368 4.60747,-2.71663 2.26544,-2.674265 7.27071,-9.091246 12.68191,-16.258956 10.04473,-13.305298 13.49221,-16.9191 22.23895,-23.3102047 8.77621,-6.4126384 17.36789,-11.1555502 28.89746,-15.9525143 l 1.39889,-0.581877 -3.25097,-0.86558 c -1.78798,-0.475935 -3.76707,-0.925652 -4.39766,-0.999422 -0.76195,-0.08914 -1.02822,-0.208974 -0.79375,-0.357601 0.5201,-0.329693 7.16015,-0.279349 9.75237,0.0739 1.2331,0.168037 2.48037,0.299155 2.77141,0.291455 1.0038,-0.02659 15.74271,-6.536319 15.74271,-6.953064 0,-0.713846 -7.91156,-3.309719 -14.41979,-4.731494 -6.88397,-1.503851 -7.03272,-1.553516 -4.7625,-1.581816 3.12711,-0.03898 9.27617,0.467063 12.79456,1.052649 3.21043,0.534331 9.01752,2.045794 10.1136,2.632398 0.42803,0.229075 0.82813,0.09895 2.16989,-0.7059 13.78748,-8.270346 24.52993,-21.038791 32.62127,-38.772827 1.3875,-3.041024 3.8163,-9.142761 3.8163,-9.587529 z m -158.89056,53.944511 c 0,0 0.23226,1.694125 0.77618,2.655135 0.0227,0.03652 0.0454,0.07741 0.0682,0.112138 0.0721,0.113536 0.14696,0.220585 0.22945,0.302307 0.76048,0.753481 3.07268,1.03818 3.07268,1.03818 0,0 -2.31609,0.313353 -3.06958,1.073836 -0.75347,0.760485 -1.0387,3.07268 -1.0387,3.07268 0,0 -0.31335,-2.3161 -1.07383,-3.06958 -0.76049,-0.753481 -3.07268,-1.038696 -3.07268,-1.038696 0,0 2.31609,-0.313352 3.06958,-1.073836 0.75346,-0.760486 1.03869,-3.072164 1.03869,-3.072164 z m -0.62322,13.3542236 c 0,0 0.0225,0.1640878 0.0765,0.2175578 0.054,0.05346 0.21808,0.073897 0.21808,0.073897 0,0 -0.16458,0.022004 -0.21808,0.075964 -0.0534,0.053962 -0.0734,0.2180746 -0.0734,0.2180746 0,0 -0.0225,-0.164098 -0.0765,-0.2175578 -0.054,-0.05346 -0.21807,-0.073897 -0.21807,-0.073897 0,0 0.16457,-0.022004 0.21807,-0.075964 0.0535,-0.053963 0.0734,-0.2180745 0.0734,-0.2180746 z m -12.4814,0.9616984 c 0,0 0.0489,0.362643 0.16794,0.4805908 0.11905,0.1179518 0.48111,0.162264 0.48111,0.162264 0,0 -0.36264,0.04942 -0.48059,0.1684652 -0.11796,0.1190448 -0.16278,0.4805908 -0.16278,0.4805908 0,0 -0.0489,-0.362643 -0.16795,-0.4805908 -0.11905,-0.1179508 -0.48111,-0.162264 -0.48111,-0.162264 0,0 0.36264,-0.04942 0.48059,-0.1684652 0.11793,-0.1190448 0.16279,-0.4805908 0.16279,-0.4805908 z m 24.06054,0.4108276 c 0,0 0.0843,0.6247009 0.28939,0.8278565 0.20504,0.2031566 0.82837,0.2800862 0.82837,0.2800862 0,0 -0.62418,0.08486 -0.82734,0.2899048 -0.20318,0.2050446 -0.28008,0.8278565 -0.28008,0.8278565 0,0 -0.0844,-0.6241851 -0.28939,-0.8273397 -0.20505,-0.2031566 -0.82889,-0.2800863 -0.82889,-0.2800863 0,0 0.6247,-0.084343 0.82786,-0.289388 0.20315,-0.2050446 0.28008,-0.82889 0.28008,-0.82889 z M 775.409,2.2799642 c 0,0 0.0489,0.362643 0.16795,0.4805908 0.11905,0.1179518 0.48111,0.1627808 0.48111,0.1627808 0,0 -0.36264,0.048904 -0.48059,0.1679484 -0.11796,0.1190448 -0.16227,0.4811076 -0.16227,0.4811076 0,0 -0.0489,-0.3626431 -0.16795,-0.4805909 -0.11905,-0.1179506 -0.4811,-0.162264 -0.4811,-0.162264 0,0 0.36212,-0.04942 0.48007,-0.1684651 C 775.36415,2.642027 775.409,2.2799642 775.409,2.2799642 Z M 710.59539,14.669389 c 0,0 0.0843,0.6247 0.28938,0.827856 0.20504,0.203157 0.82838,0.280087 0.82838,0.280087 0,0 -0.62418,0.08434 -0.82734,0.289388 -0.20318,0.205043 -0.28009,0.828373 -0.28009,0.828373 0,0 -0.0843,-0.624702 -0.28939,-0.827857 -0.20505,-0.203155 -0.82889,-0.279569 -0.82889,-0.279569 0,0 0.6247,-0.08486 0.82786,-0.289905 0.20315,-0.205045 0.28009,-0.828373 0.28009,-0.828373 z m 2.00142,10.308415 c 0,0 0.19859,1.466515 0.68007,1.94355 0.48147,0.477039 1.94561,0.657324 1.94561,0.657324 0,0 -1.46651,0.198592 -1.94355,0.680062 -0.47703,0.481473 -0.65784,1.945101 -0.65784,1.945101 0,0 -0.19807,-1.466516 -0.67954,-1.94355 -0.48148,-0.477039 -1.94562,-0.657325 -1.94562,-0.657325 0,0 1.4665,-0.198588 1.94355,-0.680062 0.47704,-0.481471 0.65732,-1.9451 0.65732,-1.9451 z m 110.68627,16.081705 c 0,0 0.19807,1.466514 0.67955,1.943551 0.48147,0.477037 1.94561,0.657324 1.94561,0.657324 0,0 -1.46599,0.19859 -1.94303,0.680062 -0.47703,0.481471 -0.65784,1.945101 -0.65784,1.945101 0,0 -0.19808,-1.465998 -0.67955,-1.943034 -0.48148,-0.477039 -1.94561,-0.657841 -1.94561,-0.657841 0,0 1.4665,-0.198073 1.94355,-0.679545 0.47704,-0.481473 0.65732,-1.945618 0.65732,-1.945618 z m -103.4526,4.216797 c 0,0 0.0843,0.624701 0.28939,0.827857 0.20504,0.203155 0.82889,0.280086 0.82889,0.280086 0,0 -0.6247,0.08434 -0.82786,0.289388 -0.20318,0.205045 -0.28008,0.828373 -0.28008,0.828373 0,0 -0.0843,-0.624185 -0.28939,-0.82734 -0.20505,-0.203155 -0.82837,-0.280086 -0.82837,-0.280086 0,0 0.62417,-0.08486 0.82733,-0.289905 0.20315,-0.205043 0.28009,-0.828373 0.28009,-0.828373 z m 119.88364,5.841504 c 0,0 0.0644,0.475631 0.22066,0.630453 0.15626,0.154822 0.63148,0.213423 0.63148,0.213423 0,0 -0.47563,0.0644 -0.63045,0.220659 -0.15482,0.15626 -0.21342,0.631486 -0.21342,0.631486 0,0 -0.0644,-0.476148 -0.22066,-0.63097 -0.15627,-0.154824 -0.63149,-0.213423 -0.63149,-0.213423 0,0 0.47564,-0.0644 0.63046,-0.220659 0.15485,-0.156262 0.21342,-0.630969 0.21342,-0.630969 z m -92.40005,1.864486 c 0,0 0.022,0.164604 0.076,0.218074 0.054,0.05346 0.21807,0.07338 0.21807,0.07338 0,0 -0.16405,0.02252 -0.21755,0.07648 -0.0534,0.05396 -0.0739,0.218074 -0.0739,0.218074 0,0 -0.0225,-0.164614 -0.0765,-0.218074 -0.054,-0.05346 -0.21808,-0.07338 -0.21808,-0.07338 0,0 0.16458,-0.02252 0.21808,-0.07648 0.0535,-0.05396 0.0739,-0.218074 0.0739,-0.218074 z M 736.55246,56.0896 c 0,0 0.0489,0.362644 0.16795,0.48059 0.11905,0.117952 0.4811,0.162781 0.4811,0.162781 0,0 -0.36264,0.0489 -0.48059,0.167949 -0.11796,0.119043 -0.16226,0.481107 -0.16226,0.481107 0,0 -0.0489,-0.362643 -0.16795,-0.480591 -0.11905,-0.117951 -0.48111,-0.16278 -0.48111,-0.16278 0,0 0.36264,-0.0489 0.48059,-0.167949 0.11793,-0.119045 0.16227,-0.481107 0.16227,-0.481107 z" /></g></svg>
