<svg width="427" height="60" viewBox="0 0 427 60" fill="none" xmlns="http://www.w3.org/2000/svg">
<path d="M42.655 5.35419C40.9585 3.6522 38.9418 2.30284 36.7214 1.38391C34.5009 0.464981 32.1205 -0.00534522 29.7173 4.58254e-05H4.22118C3.10124 0.00125658 2.02759 0.447005 1.23609 1.23936C0.444595 2.03171 -6.54462e-07 3.10585 0 4.2258V17.1178C0 18.2373 0.444715 19.311 1.23634 20.1026C2.02797 20.8942 3.10166 21.339 4.22118 21.339C5.34071 21.339 6.4144 20.8942 7.20603 20.1026C7.99765 19.311 8.44237 18.2373 8.44237 17.1178V8.43786H29.7173C31.0121 8.43443 32.2947 8.68739 33.4913 9.18215C34.6878 9.67691 35.7745 10.4037 36.6887 11.3205C37.1364 11.7773 44.793 7.48763 42.655 5.35419Z" fill="url(#paint0_linear_1733_1356)"/>
<path d="M41.3986 54.6151C40.7921 54.6167 40.1924 54.4874 39.6405 54.2359C39.0885 53.9843 38.5974 53.6166 38.2008 53.1577L27.7894 41.1383C27.061 40.2932 26.6968 39.1941 26.7764 38.0812C26.856 36.9683 27.373 35.9322 28.2143 35.1994C29.0605 34.4727 30.1597 34.11 31.2722 34.1905C32.3847 34.2709 33.4203 34.7879 34.1532 35.6289L44.5645 47.6483C45.2912 48.4945 45.6539 49.5937 45.5735 50.7062C45.4931 51.8187 44.976 52.8543 44.1351 53.5872C43.3753 54.2462 42.4044 54.6109 41.3986 54.6151V54.6151Z" fill="url(#paint1_linear_1733_1356)"/>
<path d="M30.9819 42.5955C29.966 42.5975 28.9838 42.2306 28.218 41.563C27.3746 40.8315 26.856 39.7951 26.7764 38.6815C26.6967 37.5679 27.0624 36.4682 27.7931 35.6241L37.172 24.7742C38.7983 22.8833 39.6514 20.4485 39.5607 17.9561C39.4701 15.4637 38.4425 13.0972 36.6832 11.3294C36.2911 10.9374 35.98 10.472 35.7677 9.95976C35.5555 9.44751 35.4463 8.89847 35.4463 8.34399C35.4463 7.78951 35.5555 7.24046 35.7677 6.72821C35.98 6.21596 36.2911 5.75054 36.6832 5.35854C37.0752 4.96639 37.5407 4.6553 38.0529 4.44306C38.5652 4.23082 39.1142 4.12158 39.6687 4.12158C40.2232 4.12158 40.7722 4.23082 41.2845 4.44306C41.7967 4.6553 42.2621 4.96639 42.6541 5.35854C45.9192 8.63727 47.827 13.0272 47.9964 17.6513C48.1658 22.2754 46.5843 26.7931 43.5678 30.3019L34.1843 41.1382C33.7872 41.5976 33.2953 41.9657 32.7425 42.2172C32.1898 42.4687 31.5892 42.5978 30.9819 42.5955V42.5955Z" fill="url(#paint2_linear_1733_1356)"/>
<path d="M4.22118 21.3389C3.10166 21.3389 2.02797 20.8942 1.23634 20.1026C0.444715 19.311 0 18.2373 0 17.1178V4.22576C-6.54462e-07 3.10581 0.444596 2.03166 1.23609 1.23931C2.02759 0.446959 3.10124 0.00121076 4.22118 0C5.34113 0.00121076 6.41481 0.446959 7.20631 1.23931C7.9978 2.03166 8.44237 3.10581 8.44237 4.22576V17.1178C8.44237 18.2373 7.99765 19.311 7.20603 20.1026C6.4144 20.8942 5.34071 21.3389 4.22118 21.3389Z" fill="url(#paint3_linear_1733_1356)"/>
<path d="M8.44237 39.0686L27.9722 16.5236C28.7051 15.6827 29.7407 15.1657 30.8532 15.0852C31.9657 15.0048 33.0649 15.3675 33.9111 16.0942C34.7514 16.8277 35.2675 17.8636 35.3471 18.9761C35.4267 20.0886 35.0633 21.1875 34.336 22.0331L7.38251 53.1392C6.59674 54.1032 8.44237 39.0686 8.44237 39.0686Z" fill="url(#paint4_linear_1733_1356)"/>
<path d="M4.22118 54.6151C3.10166 54.6151 2.02797 54.1704 1.23634 53.3788C0.444715 52.5871 0 51.5135 0 50.3939V31.0102C0 29.8907 0.444715 28.817 1.23634 28.0254C2.02797 27.2338 3.10166 26.7891 4.22118 26.7891C5.34071 26.7891 6.4144 27.2338 7.20603 28.0254C7.99765 28.817 8.44237 29.8907 8.44237 31.0102V50.4031C8.43995 51.521 7.99416 52.5923 7.20279 53.382C6.41143 54.1716 5.33913 54.6151 4.22118 54.6151Z" fill="url(#paint5_linear_1733_1356)"/>
<path d="M88.8219 30.549C95.2542 27.31 98.7947 23.0523 98.7947 17.7347C98.7947 10.2014 93.7283 6.08984 85.1854 6.08984H64.8516V48.4342H72.1199V12.3348H84.6829C88.2417 12.3348 91.2751 15.0073 91.2751 18.7306C91.2751 23.4132 87.0265 26.5745 80.4434 27.4973C80.2222 27.5289 80.0121 27.6141 79.8314 27.7455C79.6506 27.8768 79.5047 28.0504 79.4064 28.2511C79.3064 28.4524 79.2574 28.6751 79.2638 28.8998C79.2702 29.1245 79.3317 29.3441 79.443 29.5394L90.1284 48.521H99.1647L88.429 30.7591L88.8219 30.549Z" fill="#2C3044"/>
<path d="M117.263 17.5928C107.747 17.5928 102.922 22.6728 102.922 32.6684C102.922 37.9358 104.316 41.9331 107.066 44.5463C109.816 47.1594 114.037 48.4933 119.597 48.4933C122.851 48.5399 126.102 48.2614 129.3 47.6619V45.3C129.302 44.9162 129.221 44.5366 129.064 44.1866C128.906 43.8367 128.675 43.5247 128.387 43.2717C128.096 43.0231 127.756 42.8382 127.389 42.7288C127.023 42.6195 126.637 42.5881 126.258 42.6367C124.249 42.8791 122.228 43.0012 120.205 43.0021C113.466 43.0021 110.049 40.6083 110.049 35.8846V35.478H130.945C131.09 34.3096 131.164 33.1333 131.164 31.9558C131.155 22.417 126.482 17.5928 117.263 17.5928ZM124.243 30.7086H110.008L110.044 30.2518C110.419 25.4687 112.849 23.0474 117.263 23.0474C121.895 23.0474 124.243 25.4001 124.243 30.0416V30.7086Z" fill="#2C3044"/>
<path d="M164.513 46.5015V18.5795C160.267 17.9832 155.987 17.6536 151.699 17.5928C146.395 17.5928 142.379 18.8719 139.753 21.4028C137.126 23.9337 135.801 27.7985 135.801 32.8695C135.801 42.8468 140.369 47.9086 149.397 47.9086C151.95 47.926 154.481 47.4224 156.834 46.4284L157.391 46.1863V46.803C157.391 51.8876 154.381 54.4642 148.437 54.4642C146.166 54.4743 143.898 54.277 141.662 53.8749C141.274 53.8018 140.875 53.8159 140.494 53.9163C140.112 54.0166 139.757 54.2007 139.456 54.4551C139.153 54.7103 138.91 55.0286 138.744 55.3877C138.577 55.7467 138.491 56.1379 138.492 56.5337V58.5986C141.695 59.5738 145.03 60.0453 148.378 59.9965C159.082 59.9965 164.513 55.4556 164.513 46.5015ZM157.167 40.3982C155.046 41.4848 152.698 42.0576 150.315 42.0702C145.344 42.0702 142.823 38.9545 142.823 32.8101C142.823 26.4646 145.724 23.2439 151.448 23.2439C153.878 23.2439 155.788 23.4997 157.122 23.9977L157.382 24.0936V40.284L157.167 40.3982Z" fill="#2C3044"/>
<path d="M199.16 45.6473C202.029 43.5093 203.51 40.2064 203.564 35.8253C203.615 32.102 202.331 28.9727 199.85 26.8347C197.475 24.7698 194.122 23.6368 190.156 23.5957C184.994 23.5272 181.732 22.682 180.179 21.0557C179.785 20.6407 179.482 20.148 179.289 19.6091C179.096 19.0703 179.018 18.4971 179.06 17.9263C179.215 13.1113 182.047 11.4529 189.466 11.4529C192.596 11.4529 194.976 12.1565 197.584 12.9788C197.964 13.0978 198.375 13.07 198.735 12.9008C199.096 12.7316 199.379 12.4334 199.53 12.0651L200.901 8.69364C197.274 6.9058 193.303 5.92692 189.261 5.82469C183.185 5.74246 178.854 6.70182 176.012 8.75303C173.171 10.8042 171.814 13.961 171.759 18.4517C171.704 22.449 173.975 27.3235 180.489 28.991C184.679 30.0646 189.841 30.0371 190.06 30.0326C192.111 30.06 193.674 30.6173 194.697 31.6818C195.72 32.7462 196.127 34.0893 196.104 35.8755C196.072 38.2648 195.245 39.9871 193.569 41.0926C191.892 42.1982 189.494 42.7053 186.113 42.6596C183.047 42.6683 180.009 42.0803 177.168 40.9282C176.532 40.6638 175.82 40.6487 175.173 40.8857C174.526 41.1227 173.993 41.5946 173.678 42.2073L172.015 45.4052C175.816 47.5341 180.782 48.7401 186.035 48.8086C191.842 48.8726 196.255 47.8082 199.16 45.6473Z" fill="#2C3044"/>
<path d="M232.216 18.4244C229.695 17.8729 227.121 17.5972 224.541 17.6021C219.091 17.6021 214.947 18.8493 212.252 21.3116C209.557 23.774 208.2 27.5155 208.2 32.4585C208.2 37.8081 209.57 41.8648 212.266 44.519C214.961 47.1733 219.118 48.521 224.541 48.521C227.122 48.5266 229.695 48.2494 232.216 47.6941V45.4099C232.216 45.0244 232.134 44.6433 231.977 44.2914C231.819 43.9395 231.589 43.6248 231.302 43.3678C231.011 43.1114 230.668 42.9197 230.297 42.8055C229.926 42.6913 229.535 42.6572 229.15 42.7054C227.821 42.8819 226.481 42.9719 225.139 42.9749C218.625 42.9749 215.317 39.4299 215.317 32.4448C215.317 26.2546 218.625 23.1207 225.139 23.1207C226.481 23.1245 227.82 23.213 229.15 23.3857C229.535 23.4372 229.927 23.4051 230.298 23.2916C230.669 23.1781 231.012 22.9858 231.302 22.7278C231.589 22.4709 231.819 22.1561 231.977 21.8043C232.134 21.4524 232.216 21.0713 232.216 20.6858V18.4244Z" fill="#2C3044"/>
<path d="M247.256 48.5119C250.407 48.525 253.483 47.5575 256.059 45.7435L256.681 45.314V46.2277C256.681 46.8335 256.921 47.4145 257.35 47.8429C257.778 48.2713 258.359 48.5119 258.965 48.5119H263.309V27.6435C263.309 20.9737 258.741 17.5931 249.718 17.5931C246.011 17.5589 242.313 17.9591 238.699 18.7854V20.9783C238.698 21.3726 238.783 21.7626 238.948 22.1208C239.113 22.479 239.354 22.7969 239.654 23.0523C239.955 23.3076 240.308 23.4933 240.689 23.5959C241.069 23.6986 241.468 23.7158 241.856 23.6462C244.456 23.2368 247.087 23.0625 249.718 23.1254C254.013 23.1254 256.192 24.6969 256.192 27.7943V30.6724L255.712 30.581C253.628 30.185 251.511 29.9846 249.389 29.9825C240.609 29.9825 236.141 33.0297 236.141 39.0371C236.146 45.4146 239.782 48.5119 247.256 48.5119ZM249.38 34.6103C251.555 34.5992 253.725 34.8042 255.858 35.2225L256.183 35.2864V40.9056L256.014 41.0289C253.837 42.6781 251.183 43.5744 248.453 43.5826C245.059 43.5826 243.268 41.9791 243.268 38.9457C243.268 36.0676 245.324 34.6103 249.38 34.6103V34.6103Z" fill="#2C3044"/>
<path d="M278.086 6.10376H270.969V48.5075H278.086V6.10376Z" fill="#2C3044"/>
<path d="M298.602 17.5928C289.086 17.5928 284.262 22.6728 284.262 32.6684C284.262 37.9404 285.632 41.9331 288.401 44.5463C291.169 47.1594 295.372 48.4933 300.932 48.4933C304.186 48.5399 307.437 48.2614 310.635 47.6619V45.2818C310.637 44.9001 310.556 44.5225 310.398 44.1749C310.24 43.8273 310.01 43.5177 309.722 43.2671C309.435 43.0206 309.1 42.837 308.738 42.7284C308.376 42.6198 307.995 42.5885 307.62 42.6367C305.604 42.8789 303.575 43.0009 301.544 43.0021C294.81 43.0021 291.393 40.6083 291.393 35.8846V35.478H312.284C312.43 34.3096 312.503 33.1333 312.504 31.9558C312.49 22.417 307.817 17.5928 298.602 17.5928ZM305.583 30.7086H291.348L291.38 30.2518C291.759 25.4687 294.184 23.0474 298.602 23.0474C303.234 23.0474 305.583 25.4001 305.583 30.0416V30.7086Z" fill="#2C3044"/>
<path d="M338 28V33H323V28H338Z" fill="#2C3044"/>
<path d="M381.053 49.7773C377.319 51.1901 373.081 51.8965 368.338 51.8965C352.798 51.8965 345.027 44.3786 345.027 29.3428C345.027 15.1143 352.798 8 368.338 8C373.081 8 377.319 8.70638 381.053 10.1191V17.3848C377.319 15.7702 373.283 14.9629 368.943 14.9629C358.549 14.9629 353.353 19.7562 353.353 29.3428C353.353 39.7367 358.549 44.9336 368.943 44.9336C373.283 44.9336 377.319 44.1263 381.053 42.5117V49.7773Z" fill="#2C3044"/>
<path d="M395.094 8.30273V44.6309H412.289V51.5938H387.071V8.30273H395.094Z" fill="#2C3044"/>
<path d="M426.36 8.30273V51.5938H418.338V8.30273H426.36Z" fill="#2C3044"/>
<defs>
<linearGradient id="paint0_linear_1733_1356" x1="0" y1="10.6718" x2="43.8108" y2="10.6718" gradientUnits="userSpaceOnUse">
<stop stop-color="#2AA4CA"/>
<stop offset="1" stop-color="#1AA5B0"/>
</linearGradient>
<linearGradient id="paint1_linear_1733_1356" x1="26.7615" y1="44.3819" x2="45.6198" y2="44.3819" gradientUnits="userSpaceOnUse">
<stop stop-color="#2D318D"/>
<stop offset="1" stop-color="#1A70AD"/>
</linearGradient>
<linearGradient id="paint2_linear_1733_1356" x1="37.3822" y1="42.5955" x2="37.3822" y2="4.12052" gradientUnits="userSpaceOnUse">
<stop stop-color="#1A70AD"/>
<stop offset="0.64" stop-color="#2AA4CA"/>
<stop offset="1" stop-color="#17A7C8"/>
</linearGradient>
<linearGradient id="paint3_linear_1733_1356" x1="4.22118" y1="21.3389" x2="4.22118" y2="0" gradientUnits="userSpaceOnUse">
<stop stop-color="#20A495"/>
<stop offset="1" stop-color="#1AA8C6"/>
</linearGradient>
<linearGradient id="paint4_linear_1733_1356" x1="21.2932" y1="53.2032" x2="21.2932" y2="15.0663" gradientUnits="userSpaceOnUse">
<stop stop-color="#9E0E5D"/>
<stop offset="0.5" stop-color="#EF5A23"/>
<stop offset="1" stop-color="#F3931F"/>
</linearGradient>
<linearGradient id="paint5_linear_1733_1356" x1="4.22118" y1="54.6151" x2="4.22118" y2="26.7891" gradientUnits="userSpaceOnUse">
<stop stop-color="#F3931F"/>
<stop offset="0.5" stop-color="#F8B03B"/>
<stop offset="1" stop-color="#F9CA2D"/>
</linearGradient>
</defs>
</svg>
