<svg width="103" height="20" viewBox="0 0 103 20" fill="none" xmlns="http://www.w3.org/2000/svg">
<path d="M13.9774 2.09804C13.4236 1.54253 12.7652 1.10214 12.0403 0.80225C11.3154 0.502359 10.5384 0.348901 9.75387 0.350724H1.43338C1.06767 0.350897 0.716995 0.49628 0.458459 0.754908C0.199922 1.01354 0.0546875 1.36424 0.0546875 1.72991L0.0546875 5.9373C0.0546875 6.30265 0.199839 6.65303 0.458211 6.91137C0.716583 7.16971 1.06701 7.31485 1.4324 7.31485C1.7978 7.31485 2.14823 7.16971 2.4066 6.91137C2.66497 6.65303 2.81012 6.30265 2.81012 5.9373V3.10452H9.75517C10.1777 3.10343 10.5962 3.18598 10.9867 3.3474C11.3772 3.50883 11.7318 3.74595 12.0301 4.04508C12.1764 4.19455 14.6753 2.79448 13.9774 2.09804Z" fill="url(#paint0_linear_128_1384)"/>
<path d="M13.5674 18.1751C13.3693 18.1758 13.1734 18.1337 12.9931 18.0515C12.8128 17.9694 12.6524 17.8493 12.5229 17.6993L9.12514 13.7765C8.88715 13.5008 8.76809 13.142 8.79403 12.7787C8.81996 12.4153 8.98878 12.0771 9.26354 11.8379C9.53978 11.6007 9.89865 11.4823 10.2619 11.5086C10.6251 11.5349 10.9631 11.7037 11.2023 11.9783L14.6001 15.9011C14.8375 16.1772 14.956 16.5361 14.9298 16.8993C14.9035 17.2625 14.7345 17.6006 14.4598 17.8396C14.2119 18.0548 13.895 18.1738 13.5667 18.1751H13.5674Z" fill="url(#paint1_linear_128_1384)"/>
<path d="M10.1664 14.2527C9.90259 14.253 9.64426 14.1776 9.42221 14.0352C9.20015 13.8928 9.02375 13.6895 8.91406 13.4497C8.80436 13.2098 8.766 12.9434 8.80355 12.6824C8.8411 12.4213 8.95298 12.1765 9.12583 11.9773L12.1874 8.43633C12.7182 7.81928 12.9967 7.02473 12.9671 6.21137C12.9376 5.39801 12.6023 4.62573 12.0281 4.04879C11.8351 3.85625 11.7035 3.61074 11.6501 3.34336C11.5967 3.07598 11.6238 2.79877 11.7281 2.54684C11.8325 2.29492 12.0092 2.07962 12.236 1.92823C12.4628 1.77683 12.7294 1.69615 13.0021 1.69641C13.1831 1.69641 13.3624 1.73209 13.5296 1.80142C13.6969 1.87075 13.8488 1.97236 13.9767 2.10044C15.0423 3.17044 15.665 4.60302 15.7203 6.11201C15.7756 7.62101 15.2595 9.09532 14.2751 10.2404L11.2122 13.7768C11.0825 13.9268 10.922 14.0469 10.7416 14.129C10.5612 14.2111 10.3652 14.2533 10.167 14.2527H10.1664Z" fill="url(#paint2_linear_128_1384)"/>
<path d="M1.43208 7.31516C1.25109 7.31516 1.07187 7.27949 0.904672 7.2102C0.737474 7.1409 0.585574 7.03934 0.457654 6.91132C0.329735 6.78329 0.228304 6.63131 0.159161 6.46407C0.0900172 6.29683 0.0545166 6.1176 0.0546881 5.93663V1.72989C0.0546878 1.36445 0.199743 1.01394 0.457997 0.755353C0.716252 0.496762 1.06659 0.351227 1.43208 0.350708C1.79768 0.351054 2.14819 0.496513 2.40658 0.755123C2.66498 1.01373 2.81012 1.36433 2.81012 1.72989V5.93728C2.81012 6.11814 2.77449 6.29723 2.70527 6.46432C2.63605 6.63141 2.5346 6.78324 2.40669 6.91112C2.27879 7.03901 2.12695 7.14046 1.95984 7.20967C1.79272 7.27888 1.61361 7.3145 1.43273 7.3145L1.43208 7.31516Z" fill="url(#paint3_linear_128_1384)"/>
<path d="M2.81013 13.1013L9.18464 5.7439C9.42383 5.46936 9.7619 5.30052 10.1251 5.27423C10.4883 5.24794 10.8472 5.36633 11.1234 5.60357C11.3977 5.84301 11.5662 6.18118 11.5921 6.54434C11.6181 6.90749 11.4993 7.26616 11.2618 7.54213L2.4635 17.6938C2.20695 18.0084 2.80948 13.1013 2.80948 13.1013H2.81013Z" fill="url(#paint4_linear_128_1384)"/>
<path d="M1.43208 18.1744C1.25114 18.1744 1.07198 18.1388 0.904823 18.0695C0.737667 18.0003 0.585796 17.8988 0.457885 17.7708C0.329974 17.6429 0.22853 17.491 0.159348 17.3238C0.0901659 17.1566 0.0546019 16.9775 0.0546877 16.7965V10.4704C0.0546877 10.1051 0.19984 9.75471 0.458211 9.49637C0.716583 9.23803 1.06701 9.0929 1.4324 9.0929C1.7978 9.0929 2.14822 9.23803 2.4066 9.49637C2.66497 9.75471 2.81012 10.1051 2.81012 10.4704V16.7992C2.8096 17.1641 2.66426 17.5139 2.406 17.7717C2.14775 18.0296 1.7977 18.1744 1.43273 18.1744H1.43208Z" fill="url(#paint5_linear_128_1384)"/>
<path d="M29.0452 10.3209C31.1453 9.2642 32.3007 7.87457 32.3007 6.13901C32.3007 3.68089 30.6472 2.33891 27.8591 2.33891H21.2222V16.1582H23.5944V4.37668H27.6946C28.8566 4.37668 29.8469 5.24936 29.8469 6.46406C29.8469 7.99271 28.4597 9.024 26.3113 9.32555C26.2021 9.34079 26.1023 9.39588 26.0312 9.48022C25.9601 9.56456 25.9227 9.6722 25.9262 9.78245C25.9283 9.85584 25.9485 9.92756 25.9849 9.99132L29.4721 16.1869H32.4215L28.9179 10.3901L29.0459 10.3209H29.0452ZM38.3286 6.09266C35.2226 6.09266 33.6481 7.75055 33.6481 11.0128C33.6481 12.7321 34.1031 14.0368 35.0006 14.8899C35.8982 15.7424 37.2756 16.1777 39.0904 16.1777C40.1526 16.1929 41.2136 16.1019 42.2577 15.9062V15.1354C42.2583 15.0101 42.2319 14.8862 42.1805 14.772C42.129 14.6578 42.0536 14.556 41.9594 14.4735C41.8645 14.3923 41.7537 14.3319 41.6341 14.2962C41.5145 14.2604 41.3887 14.2501 41.2648 14.2659C40.6091 14.3452 39.9493 14.3851 39.2888 14.3854C37.0889 14.3854 35.974 13.6041 35.974 12.0624V11.9299H42.7943C42.842 11.5487 42.8661 11.1649 42.8661 10.7804C42.8629 7.66701 41.3379 6.09266 38.3286 6.09266ZM40.6068 10.3732H35.9609L35.9726 10.2243C36.0947 8.66305 36.8885 7.87326 38.3286 7.87326C39.8404 7.87326 40.6068 8.64085 40.6068 10.1558V10.3732ZM53.7514 15.527V6.4151C52.3652 6.22031 50.9681 6.11262 49.5683 6.09266C47.8371 6.09266 46.5263 6.5104 45.6692 7.33608C44.8121 8.16242 44.3793 9.42346 44.3793 11.0787C44.3793 14.3345 45.8709 15.9871 48.817 15.9871C49.6506 15.9929 50.4767 15.8285 51.2447 15.5041L51.4262 15.4245V15.6255C51.4262 17.2854 50.4437 18.1261 48.5043 18.1261C47.7627 18.1293 47.0225 18.0649 46.2926 17.9335C46.1014 17.8971 45.9034 17.926 45.7306 18.0156C45.5577 18.1052 45.42 18.2504 45.3396 18.4276C45.2854 18.5451 45.258 18.6724 45.258 18.8016V19.4752C46.3031 19.7938 47.3919 19.9478 48.4847 19.9321C51.9784 19.9321 53.7514 18.4498 53.7514 15.5276V15.527ZM51.3531 13.5362C50.6606 13.8906 49.8945 14.0773 49.1166 14.0812C47.4944 14.0812 46.6713 13.0643 46.6713 11.0592C46.6713 8.9881 47.6178 7.93723 49.4867 7.93723C50.2799 7.93723 50.9033 8.02078 51.3387 8.1833L51.4236 8.21463V13.4983L51.3531 13.5356V13.5362ZM65.0597 15.2489C65.9958 14.5505 66.4796 13.4735 66.4972 12.0434C66.5135 10.8281 66.0944 9.80725 65.285 9.1095C64.5094 8.43525 63.4154 8.06516 62.1209 8.05211C60.436 8.02992 59.3713 7.75382 58.8641 7.22316C58.7354 7.08769 58.6365 6.92687 58.5735 6.75098C58.5106 6.57509 58.485 6.38799 58.4985 6.20167C58.5494 4.63059 59.4738 4.08949 61.8957 4.08949C62.9173 4.08949 63.6941 4.31859 64.5453 4.58751C64.6693 4.62631 64.8034 4.6172 64.921 4.56197C65.0386 4.50674 65.1312 4.40941 65.1805 4.28922L65.6277 3.18874C64.444 2.60537 63.1477 2.28601 61.8284 2.25275C59.8452 2.22534 58.4319 2.53864 57.5043 3.20832C56.5774 3.87735 56.1335 4.90799 56.1158 6.37398C56.0982 7.6781 56.8391 9.26877 58.9653 9.81313C60.3329 10.1636 62.0177 10.1545 62.0895 10.1525C62.7586 10.1617 63.2691 10.3438 63.6027 10.691C63.9369 11.0383 64.0695 11.4769 64.0623 12.0598C64.0518 12.8398 63.7816 13.4017 63.2345 13.7627C62.6875 14.123 61.9048 14.2888 60.8009 14.2738C59.8004 14.2766 58.8088 14.0846 57.8816 13.7085C57.674 13.6222 57.4415 13.6173 57.2304 13.6947C57.0193 13.7721 56.8451 13.9262 56.7425 14.1263L56.1994 15.1699C57.4397 15.8644 59.0612 16.258 60.7755 16.2802C62.6712 16.3011 64.1112 15.9539 65.0597 15.2489ZM75.8491 6.36419C75.0261 6.18427 74.1861 6.09432 73.3437 6.09593C71.5648 6.09593 70.2122 6.50257 69.3329 7.30671C68.4529 8.10955 68.0104 9.33077 68.0104 10.9443C68.0104 12.6903 68.4575 14.014 69.3375 14.8801C70.2168 15.7463 71.5739 16.1862 73.3437 16.1862C74.1861 16.1882 75.0263 16.0978 75.8491 15.9166V15.1713C75.8488 14.9813 75.7878 14.7965 75.6751 14.6436C75.5624 14.4907 75.4038 14.3779 75.2224 14.3214C75.1014 14.2842 74.9739 14.273 74.8483 14.2888C74.4142 14.3462 73.9769 14.3756 73.5388 14.3762C71.4127 14.3762 70.333 13.2196 70.333 10.9397C70.333 8.91956 71.4127 7.89676 73.5388 7.89676C73.9767 7.89809 74.4141 7.92708 74.8483 7.98357C75.0373 8.00882 75.2293 7.97215 75.3956 7.87906C75.5619 7.78597 75.6935 7.64149 75.7707 7.46728C75.8223 7.3524 75.8491 7.22773 75.8491 7.10176V6.36419ZM80.7581 16.1836C81.7863 16.1879 82.7903 15.8722 83.631 15.2803L83.834 15.1399V15.4382C83.8339 15.5361 83.853 15.6332 83.8904 15.7237C83.9278 15.8142 83.9827 15.8964 84.052 15.9657C84.1212 16.0349 84.2035 16.0898 84.294 16.1272C84.3845 16.1646 84.4816 16.1838 84.5795 16.1836H85.9974V9.3732C85.9974 7.1964 84.5064 6.09266 81.5617 6.09266C80.3516 6.08166 79.1444 6.21244 77.9648 6.48233V7.19771C77.9647 7.39154 78.0282 7.58005 78.1455 7.73437C78.2628 7.88868 78.4275 8.0003 78.6143 8.05211C78.7383 8.0854 78.8689 8.09127 78.9955 8.06843C79.8442 7.93462 80.7026 7.87783 81.5617 7.89872C82.9632 7.89872 83.6747 8.4111 83.6747 9.42215V10.3621L83.5181 10.3314C82.8376 10.2022 82.1466 10.1369 81.4539 10.1362C78.5882 10.1362 77.1299 11.131 77.1299 13.0911C77.1318 15.1732 78.3186 16.1836 80.7581 16.1836ZM81.4513 11.6466C82.161 11.643 82.8693 11.7099 83.5657 11.8463L83.6715 11.8672V13.7013L83.6166 13.7412C82.9061 14.2793 82.0398 14.5718 81.1484 14.5747C80.0407 14.5747 79.4564 14.0512 79.4564 13.0617C79.4564 12.1218 80.1275 11.6466 81.4513 11.6466ZM90.8209 2.34348H88.4976V16.1823H90.8209V2.34348ZM97.5172 6.09266C94.4112 6.09266 92.8367 7.75055 92.8367 11.0128C92.8367 12.7334 93.2838 14.0368 94.1873 14.8899C95.0914 15.7424 96.4629 16.1777 98.2777 16.1777C99.3397 16.1929 100.4 16.1019 101.444 15.9062V15.1295C101.446 14.9422 101.386 14.7595 101.275 14.6091C101.163 14.4587 101.005 14.3487 100.826 14.296C100.707 14.2605 100.583 14.2503 100.461 14.2659C99.8025 14.345 99.1403 14.3849 98.4774 14.3854C96.2795 14.3854 95.1639 13.6041 95.1639 12.0624V11.9299H101.983C102.03 11.5486 102.054 11.1647 102.055 10.7804C102.05 7.66701 100.525 6.09266 97.5172 6.09266ZM99.7954 10.3732H95.1495L95.16 10.2243C95.2833 8.66305 96.0752 7.87326 97.5172 7.87326C99.0291 7.87326 99.7954 8.64085 99.7954 10.1558V10.3732Z" fill="#393D55"/>
<defs>
<linearGradient id="paint0_linear_128_1384" x1="0.0546875" y1="3.8336" x2="14.3541" y2="3.8336" gradientUnits="userSpaceOnUse">
<stop stop-color="#2AA4CA"/>
<stop offset="1" stop-color="#1AA5B0"/>
</linearGradient>
<linearGradient id="paint1_linear_128_1384" x1="8.78961" y1="14.8352" x2="14.9448" y2="14.8352" gradientUnits="userSpaceOnUse">
<stop stop-color="#2D318D"/>
<stop offset="1" stop-color="#1A70AD"/>
</linearGradient>
<linearGradient id="paint2_linear_128_1384" x1="12.256" y1="14.2527" x2="12.256" y2="1.69641" gradientUnits="userSpaceOnUse">
<stop stop-color="#1A70AD"/>
<stop offset="0.64" stop-color="#2AA4CA"/>
<stop offset="1" stop-color="#17A7C8"/>
</linearGradient>
<linearGradient id="paint3_linear_128_1384" x1="1.43273" y1="7.31451" x2="1.43273" y2="0.350708" gradientUnits="userSpaceOnUse">
<stop stop-color="#20A495"/>
<stop offset="1" stop-color="#1AA8C6"/>
</linearGradient>
<linearGradient id="paint4_linear_128_1384" x1="7.00431" y1="17.7147" x2="7.00431" y2="5.26808" gradientUnits="userSpaceOnUse">
<stop stop-color="#9E0E5D"/>
<stop offset="0.5" stop-color="#EF5A23"/>
<stop offset="1" stop-color="#F3931F"/>
</linearGradient>
<linearGradient id="paint5_linear_128_1384" x1="1.43273" y1="18.1744" x2="1.43273" y2="9.09322" gradientUnits="userSpaceOnUse">
<stop stop-color="#F3931F"/>
<stop offset="0.5" stop-color="#F8B03B"/>
<stop offset="1" stop-color="#F9CA2D"/>
</linearGradient>
</defs>
</svg>
