<svg class="main-svg" xmlns="http://www.w3.org/2000/svg" xmlns:xlink="http://www.w3.org/1999/xlink" width="700" height="400" style="" viewBox="0 0 700 400"><rect x="0" y="0" width="700" height="400" style="fill: rgb(0, 0, 0); fill-opacity: 0;"/><defs id="defs-97a264"><g class="clips"><clipPath id="clip97a264xyplot" class="plotclip"><rect width="575" height="230"/></clipPath><clipPath class="axesclip" id="clip97a264x"><rect x="65" y="0" width="575" height="400"/></clipPath><clipPath class="axesclip" id="clip97a264y"><rect x="0" y="60" width="700" height="230"/></clipPath><clipPath class="axesclip" id="clip97a264xy"><rect x="65" y="60" width="575" height="230"/></clipPath></g><g class="gradients"/><g class="patterns"/></defs><g class="bglayer"><rect class="bg" x="65" y="60" width="575" height="230" style="fill: rgb(0, 0, 0); fill-opacity: 0; stroke-width: 0;"/></g><g class="layer-below"><g class="imagelayer"/><g class="shapelayer"/></g><g class="cartesianlayer"><g class="subplot xy"><g class="layer-subplot"><g class="shapelayer"/><g class="imagelayer"/></g><g class="minor-gridlayer"><g class="x"/><g class="y"/></g><g class="gridlayer"><g class="x"/><g class="y"/></g><g class="zerolinelayer"/><g class="layer-between"><g class="shapelayer"/><g class="imagelayer"/></g><path class="xlines-below"/><path class="ylines-below"/><g class="overlines-below"/><g class="xaxislayer-below"/><g class="yaxislayer-below"/><g class="overaxes-below"/><g class="overplot"><g class="xy" transform="translate(65,60)" clip-path="url(#clip97a264xyplot)"><g class="scatterlayer mlayer"><g class="trace scatter tracecf3f0a" style="stroke-miterlimit: 2; opacity: 1;"><g class="fills"/><g class="errorbars"/><g class="lines"><path class="js-line" d="M0,218.5L575,218.5" style="vector-effect: none; fill: none; stroke: rgb(0, 0, 0); stroke-opacity: 1; stroke-width: 2px; opacity: 1;"/></g><g class="points"/><g class="text"/></g><g class="trace scatter tracee11a5b" style="stroke-miterlimit: 2; opacity: 1;"><g class="fills"/><g class="errorbars"/><g class="lines"><path class="js-line" d="M0,13.67L143.75,40.8L244.23,111.6L287.5,145L387.98,191.16L431.25,198.76L575,206.57" style="vector-effect: none; fill: none; stroke: rgb(0, 0, 0); stroke-opacity: 1; stroke-dasharray: 9px, 9px; stroke-width: 2px; opacity: 1;"/></g><g class="points"/><g class="text"/></g><g class="trace scatter trace7597ea" style="stroke-miterlimit: 2; opacity: 1;"><g class="fills"><g><path class="js-fill" d="M0,13.67L143.75,40.8L244.23,111.6L287.5,145L387.98,191.16L431.25,198.76L575,206.57L575,218.5L431.25,218.5L0,218.5Z" style="fill: rgb(139, 196, 59); fill-opacity: 0.25; stroke-width: 0;"/></g></g><g class="errorbars"/><g class="lines"><path class="js-line" d="M0,13.67L143.75,40.8L244.23,111.6L287.5,145L387.98,191.16L431.25,198.76L575,206.57L575,218.5L431.25,218.5L0,218.5" style="vector-effect: none; fill: none; stroke: rgb(0, 204, 150); stroke-opacity: 1; stroke-width: 0px; opacity: 1;"/></g><g class="points"/><g class="text"/></g><g class="trace scatter trace10a3a9" style="stroke-miterlimit: 2; opacity: 1;"><g class="fills"/><g class="errorbars"/><g class="lines"><path class="js-line" d="M0,49.04L143.75,84.62L244.23,152.24L287.5,176.57L387.98,205.26L431.25,209.4L575,213.7" style="vector-effect: none; fill: none; stroke: rgb(0, 0, 0); stroke-opacity: 1; stroke-dasharray: 3px, 3px; stroke-width: 2px; opacity: 1;"/></g><g class="points"/><g class="text"/></g><g class="trace scatter trace38a19e" style="stroke-miterlimit: 2; opacity: 1;"><g class="fills"><g><path class="js-fill" d="M0,49.04L143.75,84.62L244.23,152.24L287.5,176.57L387.98,205.26L431.25,209.4L575,213.7L575,218.5L431.25,218.5L0,218.5Z" style="fill: rgb(139, 196, 59); fill-opacity: 0.25; stroke-width: 0;"/></g></g><g class="errorbars"/><g class="lines"><path class="js-line" d="M0,49.04L143.75,84.62L244.23,152.24L287.5,176.57L387.98,205.26L431.25,209.4L575,213.7L575,218.5L431.25,218.5L0,218.5" style="vector-effect: none; fill: none; stroke: rgb(255, 161, 90); stroke-opacity: 1; stroke-width: 0px; opacity: 1;"/></g><g class="points"/><g class="text"/></g><g class="trace scatter traceb1a1ba" style="stroke-miterlimit: 2; opacity: 1;"><g class="fills"/><g class="errorbars"/><g class="lines"><path class="js-line" d="M0,11.5L143.75,21.29L244.23,68.71L287.5,102.18L387.98,164.42L431.25,176.76L575,192.59" style="vector-effect: none; fill: none; stroke: rgb(0, 0, 0); stroke-opacity: 1; stroke-dasharray: 9px, 3px, 3px, 3px; stroke-width: 2px; opacity: 1;"/></g><g class="points"/><g class="text"/></g><g class="trace scatter trace8bfd87" style="stroke-miterlimit: 2; opacity: 1;"><g class="fills"><g><path class="js-fill" d="M0,11.5L143.75,21.29L244.23,68.71L287.5,102.18L387.98,164.42L431.25,176.76L575,192.59L575,218.5L431.25,218.5L0,218.5Z" style="fill: rgb(139, 196, 59); fill-opacity: 0.25; stroke-width: 0;"/></g></g><g class="errorbars"/><g class="lines"><path class="js-line" d="M0,11.5L143.75,21.29L244.23,68.71L287.5,102.18L387.98,164.42L431.25,176.76L575,192.59L575,218.5L431.25,218.5L0,218.5" style="vector-effect: none; fill: none; stroke: rgb(255, 102, 146); stroke-opacity: 1; stroke-width: 0px; opacity: 1;"/></g><g class="points"/><g class="text"/></g><g class="trace scatter tracebc4233" style="stroke-miterlimit: 2; opacity: 1;"><g class="fills"/><g class="errorbars"/><g class="lines"><path class="js-line" d="M0,48.02L143.75,72.56L244.23,135.54L287.5,163.41L387.98,199.58L431.25,205.02L575,211.33" style="vector-effect: none; fill: none; stroke: rgb(0, 0, 0); stroke-opacity: 1; stroke-dasharray: 15px, 15px; stroke-width: 2px; opacity: 1;"/></g><g class="points"/><g class="text"/></g><g class="trace scatter tracef66960" style="stroke-miterlimit: 2; opacity: 1;"><g class="fills"><g><path class="js-fill" d="M0,48.02L143.75,72.56L244.23,135.54L287.5,163.41L387.98,199.58L431.25,205.02L575,211.33L575,218.5L431.25,218.5L0,218.5Z" style="fill: rgb(139, 196, 59); fill-opacity: 0.25; stroke-width: 0;"/></g></g><g class="errorbars"/><g class="lines"><path class="js-line" d="M0,48.02L143.75,72.56L244.23,135.54L287.5,163.41L387.98,199.58L431.25,205.02L575,211.33L575,218.5L431.25,218.5L0,218.5" style="vector-effect: none; fill: none; stroke: rgb(255, 151, 255); stroke-opacity: 1; stroke-width: 0px; opacity: 1;"/></g><g class="points"/><g class="text"/></g></g></g></g><path class="xlines-above crisp" d="M64,290.5H641M64,59.5H641" style="fill: none; stroke-width: 1px; stroke: rgb(0, 0, 0); stroke-opacity: 1;"/><path class="ylines-above crisp" d="M64.5,60V290M640.5,60V290" style="fill: none; stroke-width: 1px; stroke: rgb(0, 0, 0); stroke-opacity: 1;"/><g class="overlines-above"/><g class="xaxislayer-above"><path class="xtick ticks crisp" d="M0,291v5" transform="translate(65,0)" style="stroke: rgb(0, 0, 0); stroke-opacity: 1; stroke-width: 1px;"/><path class="xtick ticks crisp" d="M0,291v5" transform="translate(108.27000000000001,0)" style="stroke: rgb(0, 0, 0); stroke-opacity: 1; stroke-width: 1px;"/><path class="xtick ticks crisp" d="M0,291v5" transform="translate(165.48000000000002,0)" style="stroke: rgb(0, 0, 0); stroke-opacity: 1; stroke-width: 1px;"/><path class="xtick ticks crisp" d="M0,291v5" transform="translate(208.75,0)" style="stroke: rgb(0, 0, 0); stroke-opacity: 1; stroke-width: 1px;"/><path class="xtick ticks crisp" d="M0,291v5" transform="translate(252.02,0)" style="stroke: rgb(0, 0, 0); stroke-opacity: 1; stroke-width: 1px;"/><path class="xtick ticks crisp" d="M0,291v5" transform="translate(309.23,0)" style="stroke: rgb(0, 0, 0); stroke-opacity: 1; stroke-width: 1px;"/><path class="xtick ticks crisp" d="M0,291v5" transform="translate(352.5,0)" style="stroke: rgb(0, 0, 0); stroke-opacity: 1; stroke-width: 1px;"/><path class="xtick ticks crisp" d="M0,291v5" transform="translate(395.77,0)" style="stroke: rgb(0, 0, 0); stroke-opacity: 1; stroke-width: 1px;"/><path class="xtick ticks crisp" d="M0,291v5" transform="translate(452.98,0)" style="stroke: rgb(0, 0, 0); stroke-opacity: 1; stroke-width: 1px;"/><path class="xtick ticks crisp" d="M0,291v5" transform="translate(496.25,0)" style="stroke: rgb(0, 0, 0); stroke-opacity: 1; stroke-width: 1px;"/><path class="xtick ticks crisp" d="M0,291v5" transform="translate(539.52,0)" style="stroke: rgb(0, 0, 0); stroke-opacity: 1; stroke-width: 1px;"/><path class="xtick ticks crisp" d="M0,291v5" transform="translate(596.73,0)" style="stroke: rgb(0, 0, 0); stroke-opacity: 1; stroke-width: 1px;"/><path class="xtick ticks crisp" d="M0,291v5" transform="translate(640,0)" style="stroke: rgb(0, 0, 0); stroke-opacity: 1; stroke-width: 1px;"/><g class="xtick"><text text-anchor="middle" x="0" y="310.4" transform="translate(65,0)" style="font-family: 'Open Sans', verdana, arial, sans-serif; font-size: 12px; fill: rgb(0, 0, 0); fill-opacity: 1; white-space: pre; opacity: 1;">1</text></g><g class="xtick"><text text-anchor="middle" x="0" y="307.4" style="font-family: 'Open Sans', verdana, arial, sans-serif; font-size: 9px; fill: rgb(0, 0, 0); fill-opacity: 1; white-space: pre; opacity: 1;" transform="translate(108.27000000000001,0)">2</text></g><g class="xtick"><text text-anchor="middle" x="0" y="307.4" style="font-family: 'Open Sans', verdana, arial, sans-serif; font-size: 9px; fill: rgb(0, 0, 0); fill-opacity: 1; white-space: pre; opacity: 1;" transform="translate(165.48000000000002,0)">5</text></g><g class="xtick"><text text-anchor="middle" x="0" y="310.4" style="font-family: 'Open Sans', verdana, arial, sans-serif; font-size: 12px; fill: rgb(0, 0, 0); fill-opacity: 1; white-space: pre; opacity: 1;" transform="translate(208.75,0)">10</text></g><g class="xtick"><text text-anchor="middle" x="0" y="307.4" style="font-family: 'Open Sans', verdana, arial, sans-serif; font-size: 9px; fill: rgb(0, 0, 0); fill-opacity: 1; white-space: pre; opacity: 1;" transform="translate(252.02,0)">2</text></g><g class="xtick"><text text-anchor="middle" x="0" y="307.4" style="font-family: 'Open Sans', verdana, arial, sans-serif; font-size: 9px; fill: rgb(0, 0, 0); fill-opacity: 1; white-space: pre; opacity: 1;" transform="translate(309.23,0)">5</text></g><g class="xtick"><text text-anchor="middle" x="0" y="310.4" style="font-family: 'Open Sans', verdana, arial, sans-serif; font-size: 12px; fill: rgb(0, 0, 0); fill-opacity: 1; white-space: pre; opacity: 1;" transform="translate(352.5,0)">100</text></g><g class="xtick"><text text-anchor="middle" x="0" y="307.4" style="font-family: 'Open Sans', verdana, arial, sans-serif; font-size: 9px; fill: rgb(0, 0, 0); fill-opacity: 1; white-space: pre; opacity: 1;" transform="translate(395.77,0)">2</text></g><g class="xtick"><text text-anchor="middle" x="0" y="307.4" style="font-family: 'Open Sans', verdana, arial, sans-serif; font-size: 9px; fill: rgb(0, 0, 0); fill-opacity: 1; white-space: pre; opacity: 1;" transform="translate(452.98,0)">5</text></g><g class="xtick"><text text-anchor="middle" x="0" y="310.4" style="font-family: 'Open Sans', verdana, arial, sans-serif; font-size: 12px; fill: rgb(0, 0, 0); fill-opacity: 1; white-space: pre; opacity: 1;" transform="translate(496.25,0)">1000</text></g><g class="xtick"><text text-anchor="middle" x="0" y="307.4" style="font-family: 'Open Sans', verdana, arial, sans-serif; font-size: 9px; fill: rgb(0, 0, 0); fill-opacity: 1; white-space: pre; opacity: 1;" transform="translate(539.52,0)">2</text></g><g class="xtick"><text text-anchor="middle" x="0" y="307.4" style="font-family: 'Open Sans', verdana, arial, sans-serif; font-size: 9px; fill: rgb(0, 0, 0); fill-opacity: 1; white-space: pre; opacity: 1;" transform="translate(596.73,0)">5</text></g><g class="xtick"><text text-anchor="middle" x="0" y="310.4" style="font-family: 'Open Sans', verdana, arial, sans-serif; font-size: 12px; fill: rgb(0, 0, 0); fill-opacity: 1; white-space: pre; opacity: 1;" transform="translate(640,0)">10k</text></g></g><g class="yaxislayer-above"><path class="ytick ticks crisp" d="M64,0h-5" transform="translate(0,280.26)" style="stroke: rgb(0, 0, 0); stroke-opacity: 1; stroke-width: 1px;"/><path class="ytick ticks crisp" d="M64,0h-5" transform="translate(0,245.14)" style="stroke: rgb(0, 0, 0); stroke-opacity: 1; stroke-width: 1px;"/><path class="ytick ticks crisp" d="M64,0h-5" transform="translate(0,210.03)" style="stroke: rgb(0, 0, 0); stroke-opacity: 1; stroke-width: 1px;"/><path class="ytick ticks crisp" d="M64,0h-5" transform="translate(0,174.92000000000002)" style="stroke: rgb(0, 0, 0); stroke-opacity: 1; stroke-width: 1px;"/><path class="ytick ticks crisp" d="M64,0h-5" transform="translate(0,139.81)" style="stroke: rgb(0, 0, 0); stroke-opacity: 1; stroke-width: 1px;"/><path class="ytick ticks crisp" d="M64,0h-5" transform="translate(0,104.7)" style="stroke: rgb(0, 0, 0); stroke-opacity: 1; stroke-width: 1px;"/><path class="ytick ticks crisp" d="M64,0h-5" transform="translate(0,69.59)" style="stroke: rgb(0, 0, 0); stroke-opacity: 1; stroke-width: 1px;"/><g class="ytick"><text text-anchor="end" x="56.6" y="4.199999999999999" transform="translate(0,280.26)" style="font-family: 'Open Sans', verdana, arial, sans-serif; font-size: 12px; fill: rgb(0, 0, 0); fill-opacity: 1; white-space: pre; opacity: 1;">0</text></g><g class="ytick"><text text-anchor="end" x="56.6" y="4.199999999999999" style="font-family: 'Open Sans', verdana, arial, sans-serif; font-size: 12px; fill: rgb(0, 0, 0); fill-opacity: 1; white-space: pre; opacity: 1;" transform="translate(0,245.14)">20</text></g><g class="ytick"><text text-anchor="end" x="56.6" y="4.199999999999999" style="font-family: 'Open Sans', verdana, arial, sans-serif; font-size: 12px; fill: rgb(0, 0, 0); fill-opacity: 1; white-space: pre; opacity: 1;" transform="translate(0,210.03)">40</text></g><g class="ytick"><text text-anchor="end" x="56.6" y="4.199999999999999" style="font-family: 'Open Sans', verdana, arial, sans-serif; font-size: 12px; fill: rgb(0, 0, 0); fill-opacity: 1; white-space: pre; opacity: 1;" transform="translate(0,174.92000000000002)">60</text></g><g class="ytick"><text text-anchor="end" x="56.6" y="4.199999999999999" style="font-family: 'Open Sans', verdana, arial, sans-serif; font-size: 12px; fill: rgb(0, 0, 0); fill-opacity: 1; white-space: pre; opacity: 1;" transform="translate(0,139.81)">80</text></g><g class="ytick"><text text-anchor="end" x="56.6" y="4.199999999999999" style="font-family: 'Open Sans', verdana, arial, sans-serif; font-size: 12px; fill: rgb(0, 0, 0); fill-opacity: 1; white-space: pre; opacity: 1;" transform="translate(0,104.7)">100</text></g><g class="ytick"><text text-anchor="end" x="56.6" y="4.199999999999999" style="font-family: 'Open Sans', verdana, arial, sans-serif; font-size: 12px; fill: rgb(0, 0, 0); fill-opacity: 1; white-space: pre; opacity: 1;" transform="translate(0,69.59)">120</text></g></g><g class="overaxes-above"/></g></g><g class="polarlayer"/><g class="smithlayer"/><g class="ternarylayer"/><g class="geolayer"/><g class="funnelarealayer"/><g class="pielayer"/><g class="iciclelayer"/><g class="treemaplayer"/><g class="sunburstlayer"/><g class="glimages"/><defs id="topdefs-97a264"><g class="clips"/><clipPath id="legend97a264"><rect width="159" height="29" x="0" y="0"/></clipPath></defs><g class="layer-above"><g class="imagelayer"/><g class="shapelayer"/></g><g class="infolayer"><g class="legend" pointer-events="all" transform="translate(481,60)"><rect class="bg" shape-rendering="crispEdges" style="stroke: rgb(68, 68, 68); stroke-opacity: 1; fill: rgb(0, 0, 0); fill-opacity: 0; stroke-width: 0px;" width="159" height="29" x="0" y="0"/><g class="scrollbox" transform="" clip-path="url(#legend97a264)"><g class="groups"><g class="traces" transform="translate(0,14.5)" style="opacity: 1;"><text class="legendtext" text-anchor="start" x="40" y="4.680000000000001" style="font-family: 'Open Sans', verdana, arial, sans-serif; font-size: 12px; fill: rgb(0, 0, 0); fill-opacity: 1; white-space: pre;">Scipy</text><g class="layers" style="opacity: 1;"><g class="legendfill"/><g class="legendlines"><path class="js-line" d="M5,0h30" style="fill: none; stroke: rgb(0, 0, 0); stroke-opacity: 1; stroke-width: 2px;"/></g><g class="legendsymbols"><g class="legendpoints"/></g></g><rect class="legendtoggle" x="0" y="-9.5" width="71.84375" height="19" style="fill: rgb(0, 0, 0); fill-opacity: 0;"/></g><g class="traces" transform="translate(74.34375,14.5)" style="opacity: 1;"><text class="legendtext" text-anchor="start" x="40" y="4.680000000000001" style="font-family: 'Open Sans', verdana, arial, sans-serif; font-size: 12px; fill: rgb(0, 0, 0); fill-opacity: 1; white-space: pre;">InterpN</text><g class="layers" style="opacity: 1;"><g class="legendfill"/><g class="legendlines"><path class="js-line" d="M5,0h30" style="fill: none; stroke: rgb(0, 0, 0); stroke-opacity: 1; stroke-dasharray: 9px, 9px; stroke-width: 2px;"/></g><g class="legendsymbols"><g class="legendpoints"/></g></g><rect class="legendtoggle" x="0" y="-9.5" width="81.859375" height="19" style="fill: rgb(0, 0, 0); fill-opacity: 0;"/></g></g></g><rect class="scrollbar" rx="20" ry="3" width="0" height="0" style="fill: rgb(128, 139, 164); fill-opacity: 1;" x="0" y="0"/></g><g class="g-gtitle"><text class="gtitle" x="35" y="12" text-anchor="start" dy="0.7em" style="opacity: 1; font-family: 'Open Sans', verdana, arial, sans-serif; font-size: 17px; fill: rgb(0, 0, 0); fill-opacity: 1; white-space: pre;"><tspan class="line" dy="0em" x="35" y="12">Interpolation on 20x...x20 4D Grid</tspan><tspan class="line" dy="1.3em" x="35" y="12">With Preallocated Output, Linear</tspan></text></g><g class="g-xtitle"><text class="xtitle" x="352.5" y="337.70625" text-anchor="middle" style="opacity: 1; font-family: 'Open Sans', verdana, arial, sans-serif; font-size: 14px; fill: rgb(0, 0, 0); fill-opacity: 1; white-space: pre;">Number of Observation Points</text></g><g class="g-ytitle"><text class="ytitle" transform="rotate(-90,17.178125,175)" x="17.178125" y="175" text-anchor="middle" style="opacity: 1; font-family: 'Open Sans', verdana, arial, sans-serif; font-size: 14px; fill: rgb(0, 0, 0); fill-opacity: 1; white-space: pre;">Normalized Throughput</text></g></g></svg>