<?xml version="1.0" encoding="UTF-8" standalone="no"?>
<!-- Created with Inkscape (http://www.inkscape.org/) -->

<svg
   version="1.1"
   id="svg1"
   width="199.80489"
   height="199.80489"
   viewBox="0 0 199.80489 199.80489"
   sodipodi:docname="favicon.svg"
   inkscape:version="1.3.2 (091e20e, 2023-11-25, custom)"
   xmlns:inkscape="http://www.inkscape.org/namespaces/inkscape"
   xmlns:sodipodi="http://sodipodi.sourceforge.net/DTD/sodipodi-0.dtd"
   xmlns="http://www.w3.org/2000/svg"
   xmlns:svg="http://www.w3.org/2000/svg">
  <defs
     id="defs1" />
  <sodipodi:namedview
     id="namedview1"
     pagecolor="#ffffff"
     bordercolor="#000000"
     borderopacity="0.25"
     inkscape:showpageshadow="2"
     inkscape:pageopacity="0.0"
     inkscape:pagecheckerboard="0"
     inkscape:deskcolor="#d1d1d1"
     inkscape:zoom="3.1815488"
     inkscape:cx="24.98783"
     inkscape:cy="61.762373"
     inkscape:window-width="1920"
     inkscape:window-height="1137"
     inkscape:window-x="-8"
     inkscape:window-y="-8"
     inkscape:window-maximized="1"
     inkscape:current-layer="g1" />
  <g
     inkscape:groupmode="layer"
     inkscape:label="Image"
     id="g1">
    <path
       style="display:inline;fill:#ffffff;fill-opacity:1;stroke-width:2.54769;stroke:#000000;stroke-opacity:1"
       d="m 94.434539,50.422117 c -5.001437,-2.261335 -7.948352,-6.860546 -7.937984,-12.388704 0.01461,-7.735288 5.688914,-13.412256 13.406195,-13.412256 7.71728,0 13.39168,5.676968 13.40618,13.412256 0.0151,7.713363 -5.67486,13.400132 -13.40618,13.400132 -2.185154,0 -3.955412,-0.327436 -5.468211,-1.011428 z"
       id="path20" />
    <path
       style="display:inline;fill:#ffffff;fill-opacity:1;stroke-width:2.548;stroke:#000000;stroke-opacity:1;stroke-dasharray:none"
       d="m 134.75472,58.825032 c -8.56921,-4.241608 -10.24594,-15.977834 -3.19131,-22.336963 5.54976,-5.002585 14.57155,-4.459551 19.31758,1.16275 4.7534,5.631038 4.23059,14.012778 -1.17818,18.888627 -2.84362,2.563468 -5.04447,3.366861 -9.22205,3.366399 -2.63604,-2.89e-4 -4.10223,-0.277038 -5.72604,-1.080813 z"
       id="path19" />
    <path
       style="display:inline;fill:#ffffff;fill-opacity:1;stroke-width:2.54769;stroke:#000000;stroke-opacity:1"
       d="M 53.434704,58.88065 C 45.337871,54.841956 43.141181,44.501963 48.924513,37.650825 c 3.413202,-4.043395 10.042975,-5.738612 15.015755,-3.839488 5.306912,2.026726 8.608096,6.931675 8.61658,12.802634 0.008,5.51078 -2.685716,9.87051 -7.554905,12.227646 -2.970811,1.438146 -8.723354,1.457556 -11.567239,0.03903 z"
       id="path18" />
    <path
       style="display:inline;fill:#ffffff;fill-opacity:1;stroke-width:2.35076;stroke:#000000;stroke-opacity:1"
       d="M 93.480823,122.42837 V 64.175087 h 6.421619 6.421628 v 58.253283 58.25327 h -6.421628 -6.421619 z"
       id="path15" />
    <path
       id="path14"
       style="display:inline;fill:#ffffff;fill-opacity:1;stroke:#000000;stroke-width:2.548;stroke-dasharray:none;stroke-opacity:1;paint-order:markers stroke fill"
       d="M 99.902344 2.2109375 C 95.508775 2.2109375 91.113926 2.3729538 88.552734 2.6972656 C 66.653294 5.4702967 46.217879 15.414731 30.798828 30.802734 C 15.471316 46.099389 5.4726732 66.648008 2.6992188 88.550781 C 2.4219064 90.74081 2.1953125 95.848838 2.1953125 99.900391 C 2.1953125 111.27948 3.5762413 119.85247 7.1660156 130.75977 C 16.65258 159.5842 40.218575 183.15014 69.042969 192.63672 C 77.524813 195.42824 82.746326 196.46412 94.128906 197.61719 C 97.011 197.90913 108.38253 197.45661 112.64453 196.88086 C 133.81244 194.02161 153.92334 184.07079 168.99805 168.99609 C 184.36101 153.63311 194.33038 133.14809 197.10352 111.24805 C 197.75211 106.12567 197.75211 93.673166 197.10352 88.550781 C 194.33038 66.650707 184.36101 46.165703 168.99805 30.802734 C 153.63507 15.439765 133.15006 5.4703782 111.25 2.6972656 C 108.68881 2.3729538 104.29591 2.2109375 99.902344 2.2109375 z M 99.900391 10.974609 C 103.90007 10.974609 107.90084 11.120779 110.23242 11.416016 C 130.16909 13.940513 148.81709 23.01826 162.80273 37.003906 C 176.78838 50.989551 185.86415 69.637533 188.38867 89.574219 C 188.97913 94.237371 188.97913 105.57318 188.38867 110.23633 C 185.86415 130.17299 176.78838 148.82098 162.80273 162.80664 C 149.07951 176.52986 130.77016 185.59046 111.5 188.19336 C 107.62009 188.7175 97.26824 189.12709 94.644531 188.86133 C 84.282425 187.81163 79.530023 186.86742 71.808594 184.32617 C 45.568369 175.69008 24.114589 154.23831 15.478516 127.99805 C 12.210572 118.06862 10.955078 110.26322 10.955078 99.904297 C 10.955078 96.215975 11.161612 91.567907 11.414062 89.574219 C 13.938871 69.635076 23.040774 50.929182 36.994141 37.003906 C 51.03084 22.99547 69.634204 13.940438 89.570312 11.416016 C 91.901888 11.120779 95.900714 10.974609 99.900391 10.974609 z " />
    <path
       style="display:inline;fill:#ffffff;fill-opacity:1;stroke-width:2.22096;stroke:#000000;stroke-opacity:1"
       d="m 135.29145,110.86458 -20.95684,-42.280558 6.57059,-2.677186 6.57058,-2.677186 20.95683,42.28056 20.95684,42.28054 -6.57058,2.67718 -6.57059,2.67719 z"
       id="path22" />
    <path
       style="display:inline;fill:#ffffff;fill-opacity:1;stroke-width:2.22096;stroke:#000000;stroke-opacity:1"
       d="m 64.487899,110.86458 20.95684,-42.280558 -6.57059,-2.677186 -6.57058,-2.677186 -20.95683,42.28056 -20.95684,42.28054 6.57058,2.67718 6.57059,2.67719 z"
       id="path23" />
  </g>
</svg>
