<?xml version="1.0" encoding="UTF-8"?>
<svg id="Layer_1" data-name="Layer 1" xmlns="http://www.w3.org/2000/svg" viewBox="0 0 406.78 122.33">
  <defs>
    <style>
      .cls-1 {
        fill: #fff;
      }
    </style>
  </defs>
  <path class="cls-1" d="M60.92,27.29c-18.64,0-33.79,15.16-33.79,33.79s15.16,33.79,33.79,33.79,33.79-15.16,33.79-33.79-15.16-33.79-33.79-33.79ZM90.23,53.34l-16.21-9.36-17.86,10.32.02-10.91,17.26-9.91c8.2,3.73,14.46,11.01,16.8,19.86ZM60.95,55.56l4.8,2.74v5.63s-4.87,2.87-4.87,2.87l-4.75-2.78v-5.69s4.81-2.77,4.81-2.77ZM43.27,36.46c4.98-3.58,11.08-5.69,17.66-5.69,2.86,0,5.62.4,8.24,1.14l-16.47,9.45-.03,15.95v4.66s-9.53-5.58-9.53-5.58l.13-19.93ZM30.61,61.09c0-8.49,3.51-16.17,9.15-21.68l-.13,18.98,17.81,10.44-9.51,5.59-17.11-9.69c-.14-1.19-.22-2.4-.22-3.63ZM31.73,69.23l16.24,9.2,13.8-8.11,4-2.36.02,11.1-16.94,9.82c-8.29-3.61-14.66-10.83-17.12-19.66ZM60.92,91.4c-2.67,0-5.26-.35-7.73-1l16.09-9.32-.04-20.79,9.66,5.5.1,19.62c-5.05,3.76-11.31,5.99-18.08,5.99ZM82.47,82.39l-.1-18.63-17.93-10.23,9.58-5.53,17.04,9.84c.11,1.07.17,2.15.17,3.25,0,8.3-3.35,15.82-8.77,21.3Z"/>
  <g>
    <path class="cls-1" d="M128.67,75.06c-2.95,2.67-5.85,3.86-9.66,3.86-7.5,0-12.84-5.68-12.84-13.64s5.4-13.81,13.07-13.81c3.75,0,6.82,1.25,9.55,3.92l-2.78,2.78c-1.99-1.82-4.2-2.73-6.65-2.73-5.17,0-8.75,3.98-8.75,9.66s3.58,9.83,8.69,9.83c2.56,0,4.6-.85,6.71-2.84l2.67,2.96h-.01Z"/>
    <path class="cls-1" d="M132.48,78.3v-37.9h4.32v37.9h-4.32Z"/>
    <path class="cls-1" d="M163.96,52.11v16.76c0,3.58-.68,5.57-2.61,7.33-1.93,1.76-4.6,2.73-7.56,2.73s-5.68-1.02-7.56-2.78c-1.76-1.71-2.61-4.09-2.61-7.27v-16.77h4.32v16.65c0,3.69,2.39,6.31,5.85,6.31,1.82,0,3.58-.74,4.66-1.99.85-1.02,1.14-2.1,1.14-4.21v-16.76h4.38,0Z"/>
    <path class="cls-1" d="M182.88,59.27v-.28c0-2.44-1.99-3.98-5-3.98s-4.72,1.48-4.72,3.75,1.14,3.13,5.85,4.43c3.35.91,5.11,1.76,6.36,3.01,1.31,1.31,2.1,3.18,2.1,5.11,0,4.55-3.75,7.61-9.32,7.61-5.97,0-9.32-2.78-9.77-8.07h4.26c.28,2.95,2.22,4.55,5.51,4.55,2.96,0,4.89-1.53,4.89-3.86s-1.48-3.41-5.97-4.55c-5.68-1.53-8.24-3.92-8.24-7.9,0-4.55,3.69-7.61,9.21-7.61s8.92,2.84,9.15,7.78h-4.32.01Z"/>
    <path class="cls-1" d="M197.6,72.96c.06,1.31.4,1.59,1.99,1.59h1.99v3.75h-4.03c-3.07-.06-4.26-1.19-4.26-4.09v-18.3h-3.64v-3.81h3.64v-8.23h4.32v8.24h3.98v3.81h-3.98v17.05h-.01Z"/>
    <path class="cls-1" d="M208.57,66.6c.23,2.22.62,3.35,1.7,4.77,1.71,2.33,4.21,3.58,7.05,3.58,3.24,0,6.31-1.76,7.84-4.49l3.81,1.42c-2.16,4.38-6.65,7.05-11.65,7.05-7.79,0-13.35-5.68-13.35-13.64s5.51-13.81,13.18-13.81,13.3,5.74,13.3,13.41c0,.34,0,1.08-.06,1.7h-21.82ZM225.84,63.41c-.17-2.05-.57-3.18-1.48-4.49-1.65-2.22-4.32-3.58-7.22-3.58s-5.51,1.36-7.05,3.64c-.8,1.25-1.14,2.33-1.48,4.43h17.23Z"/>
    <path class="cls-1" d="M238.74,52.11v4.43c.8-1.88,1.36-2.67,2.39-3.47,1.31-1.02,3.12-1.59,5-1.59h1.02v4.38c-.46-.06-.91-.06-1.19-.06-2.33,0-4.38,1.08-5.68,3.01-1.14,1.65-1.53,3.18-1.53,6.19v13.3h-4.32v-26.19h4.32,0Z"/>
    <path class="cls-1" d="M263.57,59.27v-.28c0-2.44-1.99-3.98-5-3.98s-4.72,1.48-4.72,3.75,1.14,3.13,5.85,4.43c3.35.91,5.11,1.76,6.36,3.01s2.1,3.18,2.1,5.11c0,4.55-3.75,7.61-9.32,7.61-5.97,0-9.32-2.78-9.77-8.07h4.26c.28,2.95,2.22,4.55,5.51,4.55,2.96,0,4.89-1.53,4.89-3.86s-1.48-3.41-5.97-4.55c-5.68-1.53-8.24-3.92-8.24-7.9,0-4.55,3.69-7.61,9.21-7.61s8.92,2.84,9.15,7.78h-4.32,0Z"/>
    <path class="cls-1" d="M294.09,75.06c-2.95,2.67-5.85,3.86-9.66,3.86-7.5,0-12.84-5.68-12.84-13.64s5.4-13.81,13.07-13.81c3.75,0,6.82,1.25,9.55,3.92l-2.78,2.78c-1.99-1.82-4.2-2.73-6.65-2.73-5.17,0-8.75,3.98-8.75,9.66s3.58,9.83,8.69,9.83c2.56,0,4.6-.85,6.71-2.84l2.67,2.96h0Z"/>
    <path class="cls-1" d="M322.1,65.29c0,7.67-5.91,13.64-13.41,13.64s-13.24-5.68-13.24-13.75,5.46-13.69,13.41-13.69,13.24,5.74,13.24,13.81h0ZM299.88,65.23c0,5.8,3.58,9.72,8.92,9.72s8.86-4.03,8.86-9.72-3.52-9.77-8.81-9.77-8.98,3.92-8.98,9.77h.01Z"/>
    <path class="cls-1" d="M329.6,52.11v4.77c2.5-3.86,5.17-5.4,9.55-5.4,7.27,0,12.33,5.57,12.33,13.52s-5.06,13.92-12.33,13.92c-2.05,0-3.92-.45-5.74-1.36-1.59-.8-2.39-1.48-3.81-3.35v16.37h-4.32v-38.47h4.32ZM329.6,65.63c0,5.74,3.47,9.55,8.64,9.55s8.64-4.03,8.64-10c0-3.07-.74-5.4-2.27-7.1-1.53-1.7-3.86-2.73-6.19-2.73-5.23,0-8.81,4.15-8.81,10.29h-.01Z"/>
    <path class="cls-1" d="M358.24,66.6c.23,2.22.62,3.35,1.7,4.77,1.71,2.33,4.21,3.58,7.05,3.58,3.24,0,6.31-1.76,7.84-4.49l3.81,1.42c-2.16,4.38-6.65,7.05-11.65,7.05-7.79,0-13.35-5.68-13.35-13.64s5.51-13.81,13.18-13.81,13.3,5.74,13.3,13.41c0,.34,0,1.08-.06,1.7h-21.82ZM375.52,63.41c-.17-2.05-.57-3.18-1.48-4.49-1.65-2.22-4.32-3.58-7.22-3.58s-5.51,1.36-7.05,3.64c-.8,1.25-1.14,2.33-1.48,4.43h17.23Z"/>
  </g>
</svg>