<?xml version="1.0" encoding="UTF-8"?>
<svg id="Layer_1" data-name="Layer 1" xmlns="http://www.w3.org/2000/svg" viewBox="0 0 194 194">
  <defs>
    <style>
      .cls-1 {
        fill: #062853;
      }
    </style>
  </defs>
  <path class="cls-1" d="M97,9.7C48.86,9.7,9.7,48.86,9.7,97s39.16,87.3,87.3,87.3,87.3-39.16,87.3-87.3S145.14,9.7,97,9.7ZM172.71,76.98l-41.89-24.17-46.14,26.65.06-28.19,44.58-25.59c21.18,9.64,37.34,28.43,43.39,51.3ZM97.05,82.72l12.41,7.07.03,14.54-12.6,7.42-12.27-7.19.04-14.7,12.39-7.15ZM51.39,33.4c12.85-9.25,28.61-14.7,45.61-14.7,7.38,0,14.52,1.03,21.29,2.94l-42.53,24.42-.09,41.19-.03,12.03-24.59-14.41.34-51.48ZM18.7,97c0-21.92,9.06-41.78,23.63-56.01l-.32,49.02,46,26.96-24.56,14.44-44.19-25.04c-.37-3.08-.56-6.2-.56-9.38ZM21.57,118.03l41.96,23.78,35.65-20.96,10.33-6.08.05,28.68-43.76,25.36c-21.42-9.33-37.87-27.97-44.24-50.78ZM97,175.3c-6.9,0-13.6-.9-19.98-2.58l41.55-24.08-.1-53.7,24.95,14.22.27,50.67c-13.05,9.72-29.21,15.48-46.69,15.48ZM152.65,152.04l-.25-48.12-46.31-26.41,24.74-14.29,44.03,25.41c.3,2.76.45,5.55.45,8.39,0,21.43-8.66,40.88-22.65,55.04Z"/>
</svg>