<?xml version="1.0" encoding="UTF-8" standalone="no"?>
<!-- Created with Inkscape (http://www.inkscape.org/) -->

<svg
   xmlns:dc="http://purl.org/dc/elements/1.1/"
   xmlns:cc="http://creativecommons.org/ns#"
   xmlns:rdf="http://www.w3.org/1999/02/22-rdf-syntax-ns#"
   xmlns:svg="http://www.w3.org/2000/svg"
   xmlns="http://www.w3.org/2000/svg"
   xmlns:sodipodi="http://sodipodi.sourceforge.net/DTD/sodipodi-0.dtd"
   xmlns:inkscape="http://www.inkscape.org/namespaces/inkscape"
   width="48"
   height="48"
   viewBox="0 0 12.7 12.7"
   version="1.1"
   id="svg8"
   inkscape:version="0.92.5 (2060ec1f9f, 2020-04-08)"
   sodipodi:docname="nabu_prepare_weights_double.svg">
  <defs
     id="defs2" />
  <sodipodi:namedview
     id="base"
     pagecolor="#ffffff"
     bordercolor="#666666"
     borderopacity="1.0"
     inkscape:pageopacity="0.0"
     inkscape:pageshadow="2"
     inkscape:zoom="5.6"
     inkscape:cx="41.132491"
     inkscape:cy="25.54345"
     inkscape:document-units="mm"
     inkscape:current-layer="layer1"
     showgrid="false"
     units="px"
     inkscape:window-width="1848"
     inkscape:window-height="1136"
     inkscape:window-x="72"
     inkscape:window-y="27"
     inkscape:window-maximized="1" />
  <metadata
     id="metadata5">
    <rdf:RDF>
      <cc:Work
         rdf:about="">
        <dc:format>image/svg+xml</dc:format>
        <dc:type
           rdf:resource="http://purl.org/dc/dcmitype/StillImage" />
        <dc:title></dc:title>
      </cc:Work>
    </rdf:RDF>
  </metadata>
  <g
     inkscape:label="Layer 1"
     inkscape:groupmode="layer"
     id="layer1"
     transform="translate(0,-284.3)">
    <rect
       style="opacity:1;fill:#ffffff;fill-opacity:1;fill-rule:evenodd;stroke:#000000;stroke-width:0.32017678;stroke-linecap:round;stroke-linejoin:round;stroke-miterlimit:4;stroke-dasharray:none;stroke-dashoffset:0;stroke-opacity:1;paint-order:stroke markers fill"
       id="rect815"
       width="10.951561"
       height="2.7875743"
       x="0.86019582"
       y="289.58221" />
    <rect
       style="opacity:1;fill:#949494;fill-opacity:1;fill-rule:evenodd;stroke:#000000;stroke-width:0.5;stroke-linecap:round;stroke-linejoin:round;stroke-miterlimit:4;stroke-dasharray:none;stroke-dashoffset:0;stroke-opacity:1;paint-order:stroke markers fill"
       id="rect817"
       width="1.6063988"
       height="6.3074775"
       x="3.1986237"
       y="287.88132" />
    <g
       transform="matrix(0.00788463,0,0,0.00739488,0.77385056,283.73387)"
       id="id9">
      <path
         style="fill:none;stroke:#000000;stroke-width:40;stroke-linejoin:round"
         inkscape:connector-curvature="0"
         d="m 1001.3586,1089.2304 c 51,3 92,8 138,15 106,17 183,41 245,78 63,36 93,74 95,120 3,45 -22,86 -80,129 -58,44 -132,76 -235,105 -103,29 -204.99998,46 -324.99998,53 -121,7 -224,2 -330,-15 -78,-13 -137,-29 -193,-52"
         id="path105" />
      <g
         transform="matrix(1.2682905,0,0,1.3522871,-266.83951,-443.90403)"
         class="com.sun.star.drawing.EllipseShape"
         id="g115">
        <g
           id="id10">
          <rect
             style="fill:none;stroke:none"
             class="BoundingBox"
             x="180"
             y="531"
             width="1229"
             height="290"
             id="rect110" />
          <path
             style="fill:none;stroke:#000000;stroke-width:40;stroke-linejoin:round"
             inkscape:connector-curvature="0"
             d="M 433.97152,785.52867 C 340.97152,773.52867 350,774 294,755 c -65,-22 -94,-43 -94,-68 0,-25 29,-46 94,-68 64,-22 144,-37 256,-50 112,-12 221,-18 350,-18 129,0 238,6 350,18 53,6 94,12 137,20"
             id="path112"
             sodipodi:nodetypes="ccsccscc" />
        </g>
      </g>
      <rect
         style="fill:none;stroke:none"
         class="BoundingBox"
         x="414"
         y="884"
         width="1206"
         height="544"
         id="rect103" />
    </g>
    <rect
       style="opacity:1;fill:#cfcfcf;fill-opacity:1;fill-rule:evenodd;stroke:#000000;stroke-width:0.38202855;stroke-linecap:round;stroke-linejoin:round;stroke-miterlimit:4;stroke-dasharray:none;stroke-dashoffset:0;stroke-opacity:1;paint-order:stroke markers fill"
       id="rect817-3-6"
       width="1.3574991"
       height="4.3573365"
       x="9.8455238"
       y="288.85657" />
    <rect
       style="opacity:1;fill:#cfcfcf;fill-opacity:1;fill-rule:evenodd;stroke:#000000;stroke-width:0.38202855;stroke-linecap:round;stroke-linejoin:round;stroke-miterlimit:4;stroke-dasharray:none;stroke-dashoffset:0;stroke-opacity:1;paint-order:stroke markers fill"
       id="rect817-3-6-7"
       width="1.3574991"
       height="4.3573365"
       x="1.5891073"
       y="288.96268" />
    <rect
       style="opacity:1;fill:#949494;fill-opacity:1;fill-rule:evenodd;stroke:#000000;stroke-width:0.5;stroke-linecap:round;stroke-linejoin:round;stroke-miterlimit:4;stroke-dasharray:none;stroke-dashoffset:0;stroke-opacity:1;paint-order:stroke markers fill"
       id="rect817-3"
       width="1.6063988"
       height="6.3074775"
       x="8.0319939"
       y="287.97815" />
  </g>
</svg>
