<?xml version="1.0" encoding="UTF-8" standalone="no"?>
<!-- Created with Inkscape (http://www.inkscape.org/) -->

<svg
   xmlns:dc="http://purl.org/dc/elements/1.1/"
   xmlns:cc="http://creativecommons.org/ns#"
   xmlns:rdf="http://www.w3.org/1999/02/22-rdf-syntax-ns#"
   xmlns:svg="http://www.w3.org/2000/svg"
   xmlns="http://www.w3.org/2000/svg"
   xmlns:sodipodi="http://sodipodi.sourceforge.net/DTD/sodipodi-0.dtd"
   xmlns:inkscape="http://www.inkscape.org/namespaces/inkscape"
   width="48px"
   height="48px"
   id="svg2993"
   version="1.1"
   inkscape:version="0.92.4 (5da689c313, 2019-01-14)"
   sodipodi:docname="sadeltabeta.svg"
   inkscape:export-filename="/home/payno/dev/tomo/tomwer/orangecontrib/tomwer/widgets/reconstruction/icons/sadeltabeta.png"
   inkscape:export-xdpi="200"
   inkscape:export-ydpi="200">
  <defs
     id="defs2995">
    <marker
       inkscape:stockid="Arrow1Mend"
       orient="auto"
       refY="0.0"
       refX="0.0"
       id="Arrow1Mend"
       style="overflow:visible;">
      <path
         id="path3784"
         d="M 0.0,0.0 L 5.0,-5.0 L -12.5,0.0 L 5.0,5.0 L 0.0,0.0 z "
         style="fill-rule:evenodd;stroke:#000000;stroke-width:1.0pt;"
         transform="scale(0.4) rotate(180) translate(10,0)" />
    </marker>
    <marker
       inkscape:stockid="Arrow1Lend"
       orient="auto"
       refY="0.0"
       refX="0.0"
       id="Arrow1Lend"
       style="overflow:visible;">
      <path
         id="path3778"
         d="M 0.0,0.0 L 5.0,-5.0 L -12.5,0.0 L 5.0,5.0 L 0.0,0.0 z "
         style="fill-rule:evenodd;stroke:#000000;stroke-width:1.0pt;"
         transform="scale(0.8) rotate(180) translate(12.5,0)" />
    </marker>
  </defs>
  <sodipodi:namedview
     id="base"
     pagecolor="#ffffff"
     bordercolor="#666666"
     borderopacity="1.0"
     inkscape:pageopacity="0.0"
     inkscape:pageshadow="2"
     inkscape:zoom="9.8994949"
     inkscape:cx="6.8586606"
     inkscape:cy="15.128639"
     inkscape:current-layer="layer1"
     showgrid="true"
     inkscape:grid-bbox="true"
     inkscape:document-units="px"
     inkscape:window-width="1920"
     inkscape:window-height="1043"
     inkscape:window-x="1920"
     inkscape:window-y="0"
     inkscape:window-maximized="1" />
  <metadata
     id="metadata2998">
    <rdf:RDF>
      <cc:Work
         rdf:about="">
        <dc:format>image/svg+xml</dc:format>
        <dc:type
           rdf:resource="http://purl.org/dc/dcmitype/StillImage" />
        <dc:title></dc:title>
      </cc:Work>
    </rdf:RDF>
  </metadata>
  <g
     id="layer1"
     inkscape:label="Layer 1"
     inkscape:groupmode="layer">
    <g
       id="g982"
       transform="matrix(1.1531862,0,0,1.2329702,-16.494362,-73.589568)">
      <g
         transform="matrix(1.4832615,0,0,1.5944325,99.184078,73.197499)"
         id="layer1-3"
         inkscape:label="Layer 1">
        <g
           id="surface1"
           transform="matrix(0.91430392,0,0,0.88285849,-30.94814,-17.975602)"
           inkscape:export-filename="/nobackup/linazimov/payno/dev/esrf/ID06/id06workflow/resources/gui/icons/parameters.png"
           inkscape:export-xdpi="200"
           inkscape:export-ydpi="200">
          <path
             style="color:#000000;font-style:normal;font-variant:normal;font-weight:normal;font-stretch:normal;font-size:medium;line-height:normal;font-family:sans-serif;font-variant-ligatures:normal;font-variant-position:normal;font-variant-caps:normal;font-variant-numeric:normal;font-variant-alternates:normal;font-feature-settings:normal;text-indent:0;text-align:start;text-decoration:none;text-decoration-line:none;text-decoration-style:solid;text-decoration-color:#000000;letter-spacing:normal;word-spacing:normal;text-transform:none;writing-mode:lr-tb;direction:ltr;text-orientation:mixed;dominant-baseline:auto;baseline-shift:baseline;text-anchor:start;white-space:normal;shape-padding:0;clip-rule:nonzero;display:inline;overflow:visible;visibility:visible;opacity:1;isolation:auto;mix-blend-mode:normal;color-interpolation:sRGB;color-interpolation-filters:linearRGB;solid-color:#000000;solid-opacity:1;vector-effect:none;fill-opacity:1;fill-rule:nonzero;stroke:none;stroke-width:0.58455199;stroke-linecap:butt;stroke-linejoin:miter;stroke-miterlimit:4;stroke-dasharray:none;stroke-dashoffset:0;stroke-opacity:1;color-rendering:auto;image-rendering:auto;shape-rendering:auto;text-rendering:auto;enable-background:accumulate"
             d="m -13.826172,17.111328 c -2.08e-4,2.54e-4 -0.05743,0.11389 -0.06055,0.128906 -0.0031,0.01502 -0.0051,0.02078 -0.0059,0.02734 -0.0031,0.02624 -0.0029,0.03998 -0.0039,0.0625 -0.0021,0.04457 -0.0038,0.190692 -0.0059,0.283203 h -2.203125 c -0.432424,0 -0.845864,0.255319 -0.929687,0.685547 l -0.371094,1.927734 c -0.37379,0.101549 -0.740767,0.223394 -1.09375,0.369141 l -1.974609,-1.162109 c -0.363787,-0.215533 -0.828642,-0.195538 -1.158203,0.07422 v 0.002 l -1.767579,1.46289 c -0.330601,0.273684 -0.365502,0.775206 -0.09766,1.09375 l 1.341797,1.597656 c -0.161979,0.269863 -0.305354,0.547985 -0.423828,0.835938 l -2.359375,0.314453 h -0.002 c -0.430484,0.06036 -0.792969,0.387381 -0.792969,0.820313 v 2.060546 c 0,0.420862 0.344437,0.758516 0.771484,0.822266 l 2.382813,0.34375 c 0.118385,0.287984 0.261921,0.566038 0.423828,0.835938 l -1.359375,1.580078 c -0.274794,0.317855 -0.234515,0.824287 0.0957,1.097656 l 1.767578,1.462891 c 0.3306,0.273684 0.792304,0.286724 1.154297,0.07813 l 1.996094,-1.148438 c 0.349582,0.146047 0.707575,0.265697 1.078125,0.367188 l 0.388672,1.929687 c 0.08425,0.428874 0.495972,0.685547 0.929687,0.685547 h 2.220703 c 0.02989,0.04937 0.13079,0.19918 0.13086,0.199219 8e-5,4.4e-5 0.430269,-0.212547 0.43164,-0.22461 0.0014,-0.01206 -2.34e-4,-0.01535 0,-0.01953 3.28e-4,-0.0058 -2.66e-4,-0.025 0,-0.03125 -4.1e-5,-8.33e-4 8.07e-4,-0.0015 0,-0.0098 -1.2e-4,-0.0046 1.8e-4,-0.0061 0,-0.01758 0.0021,-0.06416 0.0046,-0.130237 0.0059,-0.298828 0.003,-0.403274 0.0064,-1.132102 0.0098,-2.074218 0.0038,-1.07829 0.0066,-2.71034 0.0098,-4.175782 -0.02871,-1.018386 -0.122721,-1.384717 -0.0049,-2.355482 -0.02236,-2.706661 0.04873,-4.665258 0.01072,-7.710928 -0.0024,-0.824706 -0.0059,-1.40204 -0.01172,-1.636719 -0.0014,-0.05867 0.0055,-0.05713 -0.0078,-0.140625 -0.0017,-0.01044 -0.01737,-0.0659 -0.01758,-0.06641 -2.05e-4,-5.07e-4 -0.497838,-0.07643 -0.498047,-0.07617 z m -2.279297,1.087891 h 2.22461 c 0.002,0.27947 0.0046,0.41124 0.0059,0.833984 0.0033,1.14587 0.0012,3.050044 0,4.828125 -0.304821,-0.07988 -0.57861,-0.186102 -0.945312,-0.21289 l -0.0098,-0.002 h -0.01172 c -1.964513,0 -3.605469,1.3268 -3.605469,3.035157 0,1.708677 1.643289,3.035156 3.605469,3.035156 h 0.0039 0.0039 c 0.384621,-0.0096 0.619768,-0.26941 0.951172,-0.384766 -0.0031,1.370233 -0.0042,2.922538 -0.0078,3.939453 -0.003,0.86102 -0.007,1.47711 -0.0098,1.894532 h -2.205078 c -0.193694,0 -0.339319,-0.130681 -0.355469,-0.212891 l -0.002,-0.002 -0.457031,-2.275391 -0.179687,-0.04492 c -0.462627,-0.116909 -0.894814,-0.262885 -1.31836,-0.449218 l -0.134765,-0.05859 -2.236328,1.287109 c -0.149971,0.08642 -0.381092,0.07049 -0.492188,-0.02148 l -1.765625,-1.462891 c -0.116494,-0.09644 -0.117003,-0.159656 -0.02539,-0.265625 l 1.628907,-1.894531 -0.119141,-0.183594 c -0.225766,-0.349936 -0.414884,-0.715174 -0.554688,-1.089843 l -0.06055,-0.164063 -2.699219,-0.388672 h -0.002 c -0.183793,-0.02829 -0.271485,-0.150141 -0.271485,-0.244141 v -2.060546 c 0,-0.08612 0.09866,-0.214585 0.289063,-0.242188 l 2.683594,-0.355469 0.06055,-0.164062 c 0.139804,-0.37467 0.328922,-0.739909 0.554688,-1.089844 l 0.117188,-0.181641 -1.605469,-1.910156 c -0.08852,-0.10528 -0.08766,-0.177563 0.02344,-0.269531 l 1.765625,-1.460937 c 0.117153,-0.09589 0.340104,-0.113182 0.488281,-0.02539 h 0.002 l 2.216796,1.306641 0.136719,-0.06055 c 0.418572,-0.183212 0.875865,-0.331968 1.339844,-0.449219 l 0.179687,-0.04492 0.4375,-2.277344 c 0.01656,-0.08501 0.160484,-0.210937 0.355469,-0.210937 z m 1.257813,6.035156 c 0.389319,0.02964 0.676435,0.125423 0.972656,0.214844 -4.99e-4,0.572845 8.04e-4,0.937198 0,1.52539 -0.0014,1.014478 -0.0038,1.783805 -0.0059,2.765625 -0.322241,0.138188 -0.570927,0.380137 -0.964844,0.390625 -1.699528,-0.0021 -3.015625,-1.121753 -3.015625,-2.449218 0,-1.327246 1.31248,-2.444219 3.013672,-2.447266 z m 1.550781,4.216835 c 0.0018,-0.902838 0.0046,-1.548152 0.0059,-2.474648 -0.569792,-2.612551 -0.09357,5.518747 -0.0059,2.474648 z"
             id="path3157"
             inkscape:connector-curvature="0"
             sodipodi:nodetypes="cccccsccccccccccccssccccccccccscccccccccccccccccccccccssscccccsccccccccccccccccssccccccccccccccccccccccsccccc" />
        </g>
      </g>
      <path
         style="opacity:1;fill:#5f5656;fill-opacity:1;stroke:#000000;stroke-width:0.09892857;stroke-linecap:square;stroke-linejoin:round;stroke-miterlimit:4;stroke-dasharray:none;stroke-dashoffset:0;stroke-opacity:1;paint-order:markers stroke fill"
         d="m 14.513577,34.403276 c -0.133339,-0.107972 -0.200929,-0.339824 -0.400839,-1.375 -0.132252,-0.684821 -0.27457,-1.412545 -0.316265,-1.617164 l -0.07581,-0.372034 -0.620552,-0.188134 C 12.758808,30.74747 12.250663,30.568074 11.9709,30.452284 l -0.508659,-0.210525 -1.5493912,0.931408 c -1.144546,0.688037 -1.6103686,0.931408 -1.7827553,0.931408 -0.1979793,0 -0.4301538,-0.168658 -1.5312346,-1.112329 -0.7138293,-0.611781 -1.2978715,-1.140448 -1.2978715,-1.174815 0,-0.04821 1.6128117,-2.050962 2.1936581,-2.724035 0.090232,-0.104558 0.067376,-0.179329 -0.1965166,-0.642857 C 7.1338891,26.162045 6.9088579,25.701747 6.7980636,25.427656 6.6872693,25.153564 6.5702817,24.92083 6.5380911,24.910469 6.5059005,24.900106 5.6524678,24.767176 4.6415739,24.615067 3.6306801,24.462958 2.7547872,24.298007 2.6951454,24.248509 2.6042314,24.173056 2.5867056,23.906221 2.5867056,22.597476 c 0,-1.541228 0.00204,-1.562321 0.1607143,-1.662303 0.091528,-0.05767 0.8986996,-0.198527 1.875,-0.327193 0.9428572,-0.124259 1.7785715,-0.252401 1.8571429,-0.284759 0.08531,-0.03513 0.2071774,-0.227697 0.3025285,-0.478025 0.087819,-0.230556 0.3047836,-0.673786 0.4821428,-0.984956 0.1773594,-0.31117 0.3224715,-0.573202 0.3224715,-0.582294 0,-0.0091 -0.5128679,-0.651851 -1.1397064,-1.428352 -0.689667,-0.85433 -1.1197966,-1.445771 -1.0892857,-1.497799 0.027731,-0.04729 0.6180045,-0.572258 1.3117181,-1.166599 1.0494018,-0.899079 1.2992127,-1.080621 1.4869867,-1.080621 0.1637539,0 0.6243033,0.244912 1.6782173,0.892446 0.7988904,0.490845 1.5022804,0.911537 1.5630884,0.934872 0.06081,0.02333 0.329099,-0.04638 0.5962,-0.154917 0.267102,-0.108538 0.773387,-0.283897 1.125079,-0.389687 l 0.639441,-0.192346 0.297576,-1.61581 c 0.163667,-0.888696 0.33789,-1.664386 0.387163,-1.723756 0.07515,-0.09055 0.352895,-0.107945 1.723697,-0.107945 h 1.634111 v 3.933385 3.933385 l -0.160714,-0.05136 c -0.846792,-0.270618 -1.312004,-0.301784 -2.136574,-0.143134 -1.951256,0.375429 -3.414736,1.668386 -3.816186,3.371531 -0.222061,0.94209 -0.013,2.091224 0.536131,2.946978 0.792748,1.23539 2.529788,2.152073 4.078005,2.152073 0.491219,0 0.59942,-0.02663 1.024288,-0.252097 l 0.47505,-0.252097 -2.85e-4,3.055669 c -1.43e-4,1.680617 -0.02122,3.513704 -0.04683,4.073525 l -0.04656,1.017857 h -1.516691 c -1.359708,0 -1.53329,-0.01344 -1.677073,-0.12987 z"
         id="path995"
         inkscape:connector-curvature="0"
         transform="translate(16.637186,59.476017)" />
    </g>
    <g
       aria-label="δ
 β"
       transform="scale(0.99849737,1.0015049)"
       style="font-style:normal;font-variant:normal;font-weight:normal;font-stretch:normal;font-size:19.87892914px;line-height:1.25;font-family:sans-serif;-inkscape-font-specification:sans-serif;letter-spacing:0px;word-spacing:0px;fill:#000000;fill-opacity:1;stroke:none;stroke-width:0.49697322"
       id="text817">
      <path
         d="m 34.138708,4.2836235 q -0.990064,-0.6794556 -3.309919,-0.6794556 -2.455747,0 -2.455747,1.1356615 0,0.8929988 2.562518,1.3589112 2.018954,0.3591408 3.154615,1.4462697 1.378325,1.3103786 1.378325,3.9990817 0,2.572224 -1.329792,4.08644 -1.329792,1.523922 -3.659354,1.523922 -2.319855,0 -3.659353,-1.523922 -1.329792,-1.514216 -1.329792,-4.183505 0,-1.980128 1.329792,-3.5817019 0.514445,-0.6212165 1.242433,-0.9706508 -1.514216,-0.7668142 -1.514216,-2.1354319 0,-2.6401703 4.280571,-2.6401703 2.145138,0 3.309919,0.6794556 z m -4.736776,3.0963762 q -0.660043,0.2814887 -1.193901,0.9900638 -0.834759,1.0968355 -0.834759,3.0769635 0,1.970421 0.825053,3.076963 0.834759,1.116248 2.281029,1.116248 1.426857,0 2.261617,-1.125955 0.834759,-1.125955 0.834759,-2.970191 0,-1.9315954 -0.883292,-2.8634202 Q 31.750907,7.6809014 30.527887,7.5741298 29.90667,7.5158908 29.401932,7.3799997 Z"
         style="stroke-width:0.49697322"
         id="path1677" />
      <path
         d="m 34.38137,41.051877 v 4.804722 H 32.585666 V 30.918282 q 0,-4.426167 4.134973,-4.426167 4.212625,0 4.212625,3.737005 0,2.659584 -1.66952,3.630235 2.717823,0.873585 2.717823,3.465223 0,4.600885 -4.678538,4.600885 -2.057779,0 -2.921659,-0.873586 z m 0,-2.329562 q 1.077423,1.679226 2.989605,1.679226 2.795474,0 2.795474,-3.047843 0,-2.737236 -4.503819,-2.523693 v -1.650106 q 3.523462,0 3.523462,-3.106083 0,-2.125725 -2.271323,-2.125725 -2.533399,0 -2.533399,3.028431 z"
         style="stroke-width:0.49697322"
         id="path1679" />
    </g>
    <path
       style="color:#000000;font-style:normal;font-variant:normal;font-weight:normal;font-stretch:normal;font-size:medium;line-height:normal;font-family:sans-serif;font-variant-ligatures:normal;font-variant-position:normal;font-variant-caps:normal;font-variant-numeric:normal;font-variant-alternates:normal;font-feature-settings:normal;text-indent:0;text-align:start;text-decoration:none;text-decoration-line:none;text-decoration-style:solid;text-decoration-color:#000000;letter-spacing:normal;word-spacing:normal;text-transform:none;writing-mode:lr-tb;direction:ltr;text-orientation:mixed;dominant-baseline:auto;baseline-shift:baseline;text-anchor:start;white-space:normal;shape-padding:0;clip-rule:nonzero;display:inline;overflow:visible;visibility:visible;opacity:1;isolation:auto;mix-blend-mode:normal;color-interpolation:sRGB;color-interpolation-filters:linearRGB;solid-color:#000000;solid-opacity:1;vector-effect:none;fill:#000000;fill-opacity:1;fill-rule:nonzero;stroke:none;stroke-width:0.95013142px;stroke-linecap:butt;stroke-linejoin:miter;stroke-miterlimit:4;stroke-dasharray:none;stroke-dashoffset:0;stroke-opacity:1;color-rendering:auto;image-rendering:auto;shape-rendering:auto;text-rendering:auto;enable-background:accumulate"
       d="M 42.753906,14.890625 23.882812,27.339844 24.40625,28.132812 43.277344,15.683594 Z"
       id="path1656"
       inkscape:connector-curvature="0" />
  </g>
</svg>
