<svg xmlns="http://www.w3.org/2000/svg" xml:space="preserve" viewBox="0 0 100 100">
<g class="meter">
<path class="" d="M27.668 72.331c-2.52-2.52-9.213-9.974-9.256-22.337.001-8.43 3.288-16.358 9.256-22.325L14.651 14.65C5.203 24.098 0 36.652 0 50c0 13.348 5.203 25.902 14.651 35.349a2.92 2.92 0 0 0 2.072.858c.75 0 1.5-.286 2.072-.858l8.873-8.875a2.93 2.93 0 0 0 0-4.143z"/>
<path class="" d="M18.412 49.994c.001-8.43 3.288-16.358 9.256-22.325L14.651 14.65C5.203 24.098 0 36.652 0 50Z"/>
<path class="" d="M85.349 14.651C75.9 5.203 63.346 0 50 0 36.654 0 24.1 5.203 14.651 14.651a2.93 2.93 0 0 0 0 4.143l8.874 8.875a2.93 2.93 0 0 0 4.144 0C33.637 21.699 41.568 18.41 50 18.41s16.363 3.288 22.331 9.257a2.93 2.93 0 0 0 2.072.859c1.266 0 2.01-.797 2.072-.858l8.874-8.875a2.93 2.93 0 0 0 0-4.143z"/>
<path class="" d="M85.349 14.651C75.9 5.203 63.346 0 50 0v18.412c8.432 0 16.363 3.287 22.331 9.257a2.93 2.93 0 0 0 2.072.858c1.266 0 2.01-.797 2.072-.858l8.874-8.875a2.93 2.93 0 0 0 0-4.143z"/>
<path class="" d="M72.332 72.331c2.52-2.52 9.213-9.974 9.256-22.337-.001-8.43-3.288-16.358-9.256-22.325L85.349 14.65C94.797 24.098 100 36.652 100 50c0 13.348-5.203 25.902-14.651 35.349a2.92 2.92 0 0 1-2.072.858c-.75 0-1.5-.286-2.072-.858l-8.873-8.875a2.93 2.93 0 0 1 0-4.143z"/>
<path class="" d="M72.332 72.331c2.52-2.52 9.213-9.974 9.256-22.337L100 50c0 13.348-5.203 25.902-14.651 35.349a2.92 2.92 0 0 1-2.072.858c-.75 0-1.5-.286-2.072-.858l-8.873-8.875a2.93 2.93 0 0 1 0-4.143z"/>
</g>
<g class="needle">
<path fill="#003c50" d="M59.207 50c-.001-5.075-4.13-9.204-9.206-9.205-6.413 0-32.232 5.697-35.154 6.347a2.93 2.93 0 0 0 0 5.719c2.922.65 28.741 6.346 35.154 6.346 5.076 0 9.206-4.13 9.206-9.206z" data-original="#003c50"/>
<path fill="var(--md-typeset-color)" d="M59.207 50H12.552a2.93 2.93 0 0 0 2.295 2.861c2.923.65 28.741 6.346 35.154 6.346 5.076 0 9.206-4.13 9.206-9.206Z" data-original="#001428"/>
</g>
</svg>
