<svg width="51" height="51" viewBox="0 0 51 51" fill="none" xmlns="http://www.w3.org/2000/svg">
<rect x="0.856628" y="0.529785" width="49" height="49" fill="white" stroke="black"/>
<path d="M6.97508 25.057L0.773723 25.0764" stroke="black"/>
<path d="M49.8557 20.853H44.9724" stroke="black"/>
<path d="M49.8557 29.752H44.9724" stroke="black"/>
<mask id="path-5-inside-1_142_112" fill="white">
<path d="M39.1976 17.6748L45.6322 18.8291V23.084L39.1976 23.9688V26.4863L45.6322 27.6406V31.8965L39.1976 32.7812V35.1729H12.5756V28.3945L6.05799 27.2256V22.9707L12.5756 22.0732V14.8857H39.1976V17.6748Z"/>
</mask>
<path d="M39.1976 17.6748L45.6322 18.8291V23.084L39.1976 23.9688V26.4863L45.6322 27.6406V31.8965L39.1976 32.7812V35.1729H12.5756V28.3945L6.05799 27.2256V22.9707L12.5756 22.0732V14.8857H39.1976V17.6748Z" fill="#2FAA96"/>
<path d="M39.1976 17.6748H38.1976V18.5114L39.0211 18.6591L39.1976 17.6748ZM45.6322 18.8291H46.6322V17.9925L45.8088 17.8448L45.6322 18.8291ZM45.6322 23.084L45.7684 24.0747L46.6322 23.9559V23.084H45.6322ZM39.1976 23.9688L39.0614 22.9781L38.1976 23.0968V23.9688H39.1976ZM39.1976 26.4863H38.1976V27.3229L39.0211 27.4706L39.1976 26.4863ZM45.6322 27.6406H46.6322V26.8041L45.8088 26.6563L45.6322 27.6406ZM45.6322 31.8965L45.7684 32.8872L46.6322 32.7684V31.8965H45.6322ZM39.1976 32.7812L39.0614 31.7906L38.1976 31.9093V32.7812H39.1976ZM39.1976 35.1729V36.1729H40.1976V35.1729H39.1976ZM12.5756 35.1729H11.5756V36.1729H12.5756V35.1729ZM12.5756 28.3945H13.5756V27.5579L12.7521 27.4102L12.5756 28.3945ZM6.05799 27.2256H5.05799V28.0622L5.88146 28.2099L6.05799 27.2256ZM6.05799 22.9707L5.92158 21.9801L5.05799 22.099V22.9707H6.05799ZM12.5756 22.0732L12.712 23.0639L13.5756 22.945V22.0732H12.5756ZM12.5756 14.8857V13.8857H11.5756V14.8857H12.5756ZM39.1976 14.8857H40.1976V13.8857H39.1976V14.8857ZM39.1976 17.6748L39.0211 18.6591L45.4556 19.8134L45.6322 18.8291L45.8088 17.8448L39.3742 16.6905L39.1976 17.6748ZM45.6322 18.8291H44.6322V23.084H45.6322H46.6322V18.8291H45.6322ZM45.6322 23.084L45.496 22.0933L39.0614 22.9781L39.1976 23.9688L39.3339 24.9594L45.7684 24.0747L45.6322 23.084ZM39.1976 23.9688H38.1976V26.4863H39.1976H40.1976V23.9688H39.1976ZM39.1976 26.4863L39.0211 27.4706L45.4556 28.6249L45.6322 27.6406L45.8088 26.6563L39.3742 25.502L39.1976 26.4863ZM45.6322 27.6406H44.6322V31.8965H45.6322H46.6322V27.6406H45.6322ZM45.6322 31.8965L45.496 30.9058L39.0614 31.7906L39.1976 32.7812L39.3339 33.7719L45.7684 32.8872L45.6322 31.8965ZM39.1976 32.7812H38.1976V35.1729H39.1976H40.1976V32.7812H39.1976ZM39.1976 35.1729V34.1729H12.5756V35.1729V36.1729H39.1976V35.1729ZM12.5756 35.1729H13.5756V28.3945H12.5756H11.5756V35.1729H12.5756ZM12.5756 28.3945L12.7521 27.4102L6.23453 26.2413L6.05799 27.2256L5.88146 28.2099L12.399 29.3788L12.5756 28.3945ZM6.05799 27.2256H7.05799V22.9707H6.05799H5.05799V27.2256H6.05799ZM6.05799 22.9707L6.1944 23.9614L12.712 23.0639L12.5756 22.0732L12.4392 21.0826L5.92158 21.9801L6.05799 22.9707ZM12.5756 22.0732H13.5756V14.8857H12.5756H11.5756V22.0732H12.5756ZM12.5756 14.8857V15.8857H39.1976V14.8857V13.8857H12.5756V14.8857ZM39.1976 14.8857H38.1976V17.6748H39.1976H40.1976V14.8857H39.1976Z" fill="black" mask="url(#path-5-inside-1_142_112)"/>
</svg>
