# Blender 4.3.2
# www.blender.org
o Cube
v 5.566846 6.000000 -6.403923
v 6.403924 6.000000 5.566846
v 5.566845 -6.000000 -6.403923
v 6.403923 -6.000000 5.566846
v -6.403923 6.000000 -5.566846
v -5.566845 6.000000 6.403923
v -6.403924 -6.000000 -5.566846
v -5.566846 -6.000000 6.403923
v -4.342516 3.933559 -5.710993
v 3.505438 -3.933559 -6.259776
v -4.342516 -3.933559 -5.710993
v 3.505439 3.933559 -6.259776
v 4.342516 3.933559 5.710993
v -3.505439 -3.933559 6.259776
v 4.342516 -3.933559 5.710993
v -3.505438 3.933559 6.259776
vn 0.9976 -0.0000 -0.0698
vn -0.0000 -1.0000 -0.0000
vn -0.9976 -0.0000 0.0698
vn -0.0000 1.0000 -0.0000
vn 0.0698 -0.0000 0.9976
vn -0.0698 -0.0000 -0.9976
vt 0.375000 0.000000
vt 0.625000 0.000000
vt 0.625000 0.250000
vt 0.375000 0.250000
vt 0.625000 0.500000
vt 0.375000 0.500000
vt 0.625000 0.750000
vt 0.375000 0.750000
vt 0.625000 1.000000
vt 0.375000 1.000000
vt 0.831949 0.543051
vt 0.668051 0.543051
vt 0.875000 0.500000
vt 0.125000 0.750000
vt 0.168051 0.706949
vt 0.331949 0.706949
vt 0.611665 0.000000
vt 0.388335 0.000000
vt 0.388335 0.250000
vt 0.611665 0.250000
vt 0.388335 0.500000
vt 0.611665 0.500000
vt 0.388335 0.750000
vt 0.611665 0.750000
vt 0.388335 1.000000
vt 0.611665 1.000000
vt 0.331949 0.543051
vt 0.125000 0.500000
vt 0.168051 0.543051
vt 0.831949 0.706949
vt 0.875000 0.750000
vt 0.668051 0.706949
s 1
f 1/1/1 2/2/1 4/3/1 3/4/1
f 3/4/2 4/3/2 8/5/2 7/6/2
f 7/6/3 8/5/3 6/7/3 5/8/3
f 5/8/4 6/7/4 2/9/4 1/10/4
f 15/11/5 14/12/5 8/5/5 4/13/5
f 5/8/6 1/14/6 12/15/6 9/16/6
f 13/17/3 12/18/3 10/19/3 15/20/3
f 15/20/4 10/19/4 11/21/4 14/22/4
f 11/21/1 9/23/1 16/24/1 14/22/1
f 9/23/2 12/25/2 13/26/2 16/24/2
f 9/16/6 11/27/6 7/6/6 5/8/6
f 3/28/6 7/6/6 11/27/6 10/29/6
f 13/30/5 15/11/5 4/13/5 2/31/5
f 16/32/5 13/30/5 2/31/5 6/7/5
f 1/14/6 3/28/6 10/29/6 12/15/6
f 14/12/5 16/32/5 6/7/5 8/5/5
