# Blender 4.3.2
# www.blender.org
o Cylinder
v 13.088530 -2.543515 -4.713910
v 2.502435 -8.100466 11.319024
v 6.290688 -6.808366 -10.680514
v -4.295407 -12.365320 5.352418
v -1.504794 -1.486376 -13.983072
v -12.090889 -7.043329 2.049860
v -2.502435 8.100466 -11.319024
v -13.088530 2.543515 4.713910
v 4.295407 12.365320 -5.352418
v -6.290688 6.808366 10.680514
v 12.090889 7.043329 -2.049860
v 1.504794 1.486376 13.983072
vn 0.5077 -0.8608 0.0369
vn -0.3349 -0.7997 -0.4983
vn -0.8425 0.0610 -0.5352
vn -0.5077 0.8608 -0.0369
vn -0.5293 -0.2778 0.8016
vn 0.3349 0.7997 0.4983
vn 0.8425 -0.0610 0.5352
vn 0.5293 0.2778 -0.8016
vt 1.000000 0.500000
vt 1.000000 1.000000
vt 0.833333 1.000000
vt 0.833333 0.500000
vt 0.666667 1.000000
vt 0.666667 0.500000
vt 0.500000 1.000000
vt 0.500000 0.500000
vt 0.333333 1.000000
vt 0.333333 0.500000
vt 0.457846 0.370000
vt 0.250000 0.490000
vt 0.042154 0.370000
vt 0.042154 0.130000
vt 0.250000 0.010000
vt 0.457846 0.130000
vt 0.166667 1.000000
vt 0.166667 0.500000
vt -0.000000 1.000000
vt -0.000000 0.500000
vt 0.750000 0.490000
vt 0.957846 0.370000
vt 0.957846 0.130000
vt 0.750000 0.010000
vt 0.542154 0.130000
vt 0.542154 0.370000
s 1
f 1/1/1 2/2/1 4/3/1 3/4/1
f 3/4/2 4/3/2 6/5/2 5/6/2
f 5/6/3 6/5/3 8/7/3 7/8/3
f 7/8/4 8/7/4 10/9/4 9/10/4
f 4/11/5 2/12/5 12/13/5 10/14/5 8/15/5 6/16/5
f 9/10/6 10/9/6 12/17/6 11/18/6
f 11/18/7 12/17/7 2/19/7 1/20/7
f 1/21/8 3/22/8 5/23/8 7/24/8 9/25/8 11/26/8
