# Blender 4.3.2
# www.blender.org
o Cylinder
v -0.000000 -4.284349 -4.449087
v -0.000000 -4.265115 4.434280
v -3.773450 -2.178602 -4.505172
v -3.552411 -2.050985 4.308692
v -4.100083 2.367184 -4.795515
v -3.711751 2.142981 4.450328
v 0.000000 4.763458 -4.817908
v 0.000000 4.129547 4.329919
v 3.725864 2.151128 -4.462873
v 3.516892 2.030478 4.277119
v 3.923108 -2.265008 -4.638203
v 3.679320 -2.124257 4.421500
vn -0.4874 -0.8728 0.0249
vn -0.9968 -0.0691 0.0402
vn -0.5034 0.8620 0.0597
vn 0.5695 0.8200 0.0568
vn 0.0097 -0.0090 0.9999
vn 0.9987 0.0436 0.0262
vn 0.4585 -0.8883 0.0261
vn 0.0402 -0.0781 -0.9961
vn -0.5290 -0.8486 0.0018
vn -0.9989 -0.0388 0.0256
vn -0.4704 0.8815 0.0411
vn 0.5126 0.8583 0.0241
vn 0.0494 -0.0318 0.9983
vn -0.0147 0.0331 0.9993
vn -0.0164 0.0341 0.9993
vn 0.9989 0.0399 0.0244
vn 0.5029 -0.8643 0.0019
vn -0.0669 0.0366 -0.9971
vn 0.0103 -0.0081 -0.9999
vn 0.0407 -0.0608 -0.9973
vt 1.000000 0.500000
vt 0.833333 1.000000
vt 0.833333 0.500000
vt 0.666667 1.000000
vt 0.666667 0.500000
vt 0.500000 1.000000
vt 0.500000 0.500000
vt 0.333333 0.500000
vt 0.042154 0.130000
vt 0.250000 0.010000
vt 0.457846 0.370000
vt 0.166667 1.000000
vt 0.166667 0.500000
vt -0.000000 0.500000
vt 0.957846 0.130000
vt 0.750000 0.010000
vt 0.542154 0.130000
vt 1.000000 1.000000
vt 0.333333 1.000000
vt 0.457846 0.130000
vt 0.250000 0.490000
vt 0.042154 0.370000
vt -0.000000 1.000000
vt 0.542154 0.370000
vt 0.750000 0.490000
vt 0.957846 0.370000
s 0
f 1/1/1 4/2/1 3/3/1
f 3/3/2 6/4/2 5/5/2
f 5/5/3 8/6/3 7/7/3
f 8/6/4 9/8/4 7/7/4
f 10/9/5 8/10/5 4/11/5
f 9/8/6 12/12/6 11/13/6
f 12/12/7 1/14/7 11/13/7
f 5/15/8 7/16/8 9/17/8
f 1/1/9 2/18/9 4/2/9
f 3/3/10 4/2/10 6/4/10
f 5/5/11 6/4/11 8/6/11
f 8/6/12 10/19/12 9/8/12
f 6/20/13 4/11/13 8/10/13
f 4/11/14 2/21/14 10/9/14
f 2/21/15 12/22/15 10/9/15
f 9/8/16 10/19/16 12/12/16
f 12/12/17 2/23/17 1/14/17
f 11/24/18 1/25/18 9/17/18
f 1/25/19 3/26/19 9/17/19
f 3/26/20 5/15/20 9/17/20
