# Blender 4.3.2
# www.blender.org
o Cube
v 6.537364 -0.673220 -3.888703
v 1.272206 -4.564835 -3.802267
v 0.693377 7.270228 -2.230556
v -4.571781 3.378613 -2.144120
v 3.687724 -4.595413 4.857492
v -1.577434 -8.487028 4.943930
v -2.156263 3.348035 6.515639
v -7.421421 -0.543580 6.602077
vn -0.1090 0.1256 -0.9861
vn -0.5844 0.7943 0.1658
vn 0.1090 -0.1256 0.9861
vn 0.5844 -0.7943 -0.1658
vn 0.7598 0.4639 0.4556
vn -0.7598 -0.4639 -0.4556
vt 0.375000 0.000000
vt 0.625000 0.000000
vt 0.625000 0.250000
vt 0.375000 0.250000
vt 0.625000 0.500000
vt 0.375000 0.500000
vt 0.625000 0.750000
vt 0.375000 0.750000
vt 0.625000 1.000000
vt 0.375000 1.000000
vt 0.125000 0.500000
vt 0.125000 0.750000
vt 0.875000 0.500000
vt 0.875000 0.750000
s 1
f 1/1/1 2/2/1 4/3/1 3/4/1
f 3/4/2 4/3/2 8/5/2 7/6/2
f 7/6/3 8/5/3 6/7/3 5/8/3
f 5/8/4 6/7/4 2/9/4 1/10/4
f 3/11/5 7/6/5 5/8/5 1/12/5
f 8/5/6 4/13/6 2/14/6 6/7/6
