<?xml version="1.0" encoding="UTF-8" standalone="no"?>
<!-- Created with Inkscape (http://www.inkscape.org/) -->

<svg
   version="1.1"
   id="svg2"
   width="1571"
   height="1571"
   viewBox="0 0 1571.0002 1571"
   sodipodi:docname="L._Cassius_Longinus,_denarius,_63_BC,_RRC_413-1_reverse_clean_fore_ico.svg"
   inkscape:version="1.2.2 (b0a8486541, 2022-12-01)"
   xmlns:inkscape="http://www.inkscape.org/namespaces/inkscape"
   xmlns:sodipodi="http://sodipodi.sourceforge.net/DTD/sodipodi-0.dtd"
   xmlns="http://www.w3.org/2000/svg"
   xmlns:svg="http://www.w3.org/2000/svg">
  <defs
     id="defs6" />
  <sodipodi:namedview
     id="namedview4"
     pagecolor="#ffffff"
     bordercolor="#666666"
     borderopacity="1.0"
     inkscape:showpageshadow="2"
     inkscape:pageopacity="0.0"
     inkscape:pagecheckerboard="0"
     inkscape:deskcolor="#d1d1d1"
     showgrid="false"
     inkscape:zoom="0.28241015"
     inkscape:cx="-138.09702"
     inkscape:cy="1003.8591"
     inkscape:window-width="1920"
     inkscape:window-height="1008"
     inkscape:window-x="0"
     inkscape:window-y="0"
     inkscape:window-maximized="1"
     inkscape:current-layer="layer2" />
  <g
     inkscape:groupmode="layer"
     id="layer2"
     inkscape:label="Cuerpo"
     style="display:inline"
     transform="translate(-473.81202,-223.21297)">
    <g
       id="g1366"
       transform="matrix(0.95,0,0,0.95,391.36823,104.19964)">
      <path
         id="path1069"
         style="fill:#000000;fill-opacity:1;fill-rule:evenodd;stroke:none;stroke-width:1px;stroke-linecap:butt;stroke-linejoin:miter;stroke-opacity:1"
         d="m 944.16211,167.19531 c -13.58946,-0.87837 -25.17213,5.49362 -37.41992,9.46485 -18.67798,7.24435 -16.61631,22.46969 -24.24805,33.96484 -11.70215,10.9243 -23.69549,20.38868 -34.18164,37.41992 l -2.66992,55.62305 c -8.04122,23.13974 -3.336,45.74763 7.51758,68.09765 l 30.04492,32.18555 c 7.44152,11.27418 20.379,14.44805 32.78125,26.78711 23.68825,1.1166 37.56546,2.23099 47.01172,1.99219 2.35759,18.28041 11.08456,38.79586 -5.52735,60.37891 -64.79582,33.4788 -123.4482,73.94353 -170.05273,122.29492 -11.42961,3.04994 -20.99848,10.91951 -30.62891,18.63086 -23.95088,50.67438 -40.74246,111.63049 -56.04297,174.72851 -9.76081,9.66382 -23.80346,17.20545 -41.05664,23.1543 -38.66003,8.00809 -77.19906,16.49253 -113.54297,33.64062 l -76.80664,9.85547 c -37.7547,9.61689 -81.3865,9.52949 -110.64843,28.97461 -13.42865,13.84612 -21.72277,30.69744 -31.30274,46.79688 l -19.49609,45.66015 c -3.29128,16.0393 0.7295,22.9351 5.63476,28.7246 -0.0583,58.2745 7.82226,107.208 14.29297,157.8008 59.46841,9.6471 118.93589,9.6267 178.4043,9.2187 6.09148,-2.7919 13.02699,-3.1717 15.21875,-17.1074 l 6.16406,-225.0781 c 28.60977,-4.97914 54.48069,-4.58167 79.79102,-14.56836 21.61836,-8.52995 47.8147,-15.9522 73.14062,-16.93555 27.97839,4.95496 41.13593,-2.27939 58.67383,-5.91211 10.62872,-3.617 24.35158,-5.00373 26.89063,-14.45508 11.49036,-29.54866 22.92885,-59.13526 29.98437,-91.98242 2.58027,-10.62747 7.22834,-14.45896 11.97461,-17.9707 8.91647,-21.75439 11.48173,-44.72511 13.45703,-67.8086 14.83172,-9.87992 22.3291,19.6693 31.60352,39.66407 12.39246,9.83942 10.74325,22.46949 12.03515,34.51562 -1.97565,25.36962 3.64775,43.52699 9.3418,61.61524 l -4.89844,21.30664 c -13.2199,0.86038 -21.29133,8.50562 -29.30859,16.2207 -6.60003,12.92392 -1.29567,19.69814 -1.07617,29.09961 4.87391,12.24138 13.48058,22.26194 24.93945,30.58398 -14.33872,10.42855 -12.23983,28.47298 -18.02344,42.86524 5.78254,42.18272 15.67928,65.80742 24.9375,92.30662 0.76471,12.5073 0.35763,26.6124 -1.43945,42.6211 -0.69311,31.162 3.24839,53.9016 7.44922,76.166 l -6.66016,37.3125 c -6.86102,4.4997 -11.32102,13.3341 -14.39453,24.67 6.1635,28.582 7.91175,38.1323 11.86719,57.1992 l 10.43554,22.0625 c 0.49103,32.0278 11.74827,59.9659 22.77149,87.9922 19.00648,8.9349 34.34496,15.9228 47.29492,16.7461 -4.62453,7.3052 -5.23835,17.249 -6.09375,27.0332 l 22.73242,79.33 c 9.60984,16.5901 15.08937,32.8972 15.65039,48.8653 -21.05355,12.0809 -51.17483,21.5051 -80.07421,31.2871 -8.85677,12.1003 -12.49498,19.2613 -8.69727,25.8847 2.35598,9.2412 12.95111,17.3451 31.88672,24.2989 11.93291,-0.201 23.16907,-2.2414 31.93555,-10.8028 13.17828,-6.1169 25.50531,-13.9528 42.94726,-11.459 8.85866,12.2599 22.11026,19.7728 37.86136,24.586 9.9155,-5.161 19.7355,-10.5056 26.3242,-22.1231 2.0113,-7.3391 4.3409,-13.4216 4.7851,-26.9785 l -16.3671,-34.1152 c -4.1932,-14.7323 -2.1612,-39.6232 1.9707,-67.9434 -1.2987,-12.634 -3.0726,-25.2011 -7.9864,-37.3242 -1.4158,-10.493 3.1882,-19.2225 9.5489,-27.4375 l 49.6953,2.8125 c 13.4398,-2.4175 21.9708,-7.4602 28.4394,-13.6055 16.0715,0.8978 31.9347,1.9633 40.2891,9.0821 20.1343,12.0125 31.8302,28.8097 39.4316,47.9297 l 51.6504,75.4062 5.4063,42.0957 c 2.1673,21.2942 12.1611,28.8838 22.4785,35.9063 26.7407,11.8815 37.297,6.5279 47.1445,0.4199 6.9014,-6.2753 14.1328,-9.4296 19.9824,-25.6426 -0.4461,-12.1439 0.8347,-20.2896 -5.8144,-46.7851 -10.8698,-10.7402 -22.7662,-21.5839 -41.1817,-33.0821 -5.8472,-32.3627 -18.8595,-67.8305 -33.4824,-103.9961 2.6433,-8.3679 9.5284,-15.1628 20.5645,-20.416 15.1984,-5.3118 33.5567,-8.1428 36.2265,-23.2891 -18.2637,-51.4325 -12.0524,-29.091 -54.791,-154.2968 3.921,-20.4327 12.9368,-33.934 6.9297,-67.877 l -6.9219,-42.6621 c 4.6274,-17.6397 13.7468,-31.6999 11.6504,-54.6973 -12.6343,-45.6611 -30.8878,-87.3681 -47.6836,-130.10152 0.18,-9.13349 -0.5147,-17.87495 9.6328,-31.4707 8.6296,-19.30666 23.2358,-21.59884 31.3633,-33.29687 10.1618,-20.11922 13.3408,-8.92302 33.168,-72.38868 l 3.2129,-30.68945 c -10.2046,-43.18906 -15.8155,-85.26857 -38.9824,-131.5918 -10.3399,-23.17007 -21.0669,-49.50227 -32.4121,-80.88086 2.9251,-12.00645 6.4077,-21.50568 4.9882,-37.1289 -9.7684,-9.47572 -27.6048,-21.73992 -43.2793,-33.25781 -5.4787,-2.22824 -6.789,-13.51153 -7.5781,-25.92969 -36.9469,-17.18705 -66.8075,-22.1476 -113.2402,-55.70117 -11.5705,-10.24178 -31.9349,-18.25093 -29.7676,-31.98047 -11.906,-14.22452 -16.2222,-31.38827 -14.5859,-59.23047 7.741,-21.35771 18.8067,-37.85028 20.3164,-62.36914 3.3703,-13.64502 9.6878,-23.95139 4.7793,-46.97461 -2.8827,-8.83933 -12.5894,-18.61997 -20.8965,-28.20703 L 1016.0645,190 958.51953,170.84766 c -5.07446,-2.26144 -9.8276,-3.35956 -14.35742,-3.65235 z m 262.85549,561.01172 c 8.9964,1.29378 21.7738,40.34831 32.4902,58.81836 -5.3402,62.61388 -21.858,89.11722 -36.6191,121.29492 -8.5883,19.87843 -13.4514,21.84021 -25.9219,28.51758 -29.4811,-35.10905 -35.1572,-81.11718 -22.6719,-133.3418 8.8005,-30.3998 16.8344,-61.30284 50.9746,-75.02734 0.5644,-0.26668 1.1483,-0.34797 1.7481,-0.26172 z M 433.35938,952.91992 c 6.17713,1.01362 6.41774,4.68711 7.94726,7.7832 l 3.64844,46.79298 c 3.0978,13.2796 1.46096,22.7698 -1.23828,31.4082 -3.90668,7.9268 -14.95052,18.0673 -33.21094,30.4453 -15.34218,-6.4264 -29.87432,-23.8575 -45.30664,-49.0234 l 6.43555,-28.62503 -2.75586,-16.73242 c 0.29082,-5.84996 1.86309,-9.10794 9.42773,-9.52344 5.58741,0.27759 6.24579,3.6042 19.80469,11.25391 10.582,-4.92331 22.81415,-6.95346 35.24805,-23.7793 z m 43.45507,120.23628 4.75782,5.0372 c -1.53336,27.2816 -1.12301,53.8338 0.52148,79.9218 -43.93098,-0.9472 -89.59934,0.046 -121.63867,-14.1718 l -1.7793,-66.5215 c 6.8345,-6.6414 29.2017,24.0996 47.26758,45.1719 0.5986,1.7306 23.05256,3.5536 26.54883,0.7187 4.22255,-3.4238 49.08595,-51.3277 44.32226,-50.1563 z m 228.90039,195.379 c -14.40386,-0.9007 -46.45997,11.1658 -76.73437,19.2988 l -103.1875,-1.957 c -49.7443,-2.5801 -108.62444,-12.6611 -144.91016,1.0195 -12.65664,31.155 -31.29853,64.4652 -31.55078,91.1523 l -0.83008,66.3946 9.08399,27.7578 c -11.82246,28.0832 -8.78028,59.6013 -8.18555,90.5547 5.6777,29.263 22.63386,44.7896 39.25586,60.6699 6.15212,3.793 22.5775,10.2207 33.92383,12.7539 l 42.62695,-9.8945 c 20.06749,7.4442 44.78798,3.3731 64.85547,4.7929 13.51952,-2.8998 28.33483,-4.3713 48.45508,0.01 27.20264,-2.8901 68.61531,3.5134 104.70312,6.4336 5.05963,0.6116 31.82542,7.9996 55.41602,14.3965 15.163,-0.6863 23.73043,-7.5062 34.06836,-12.6797 6.10405,-10.641 13.52717,-21.1233 12.83398,-32.5801 l -4.64648,-83.6562 c 0.28425,-54.9312 9.99881,-117.4346 -0.74414,-163.5118 l 3.49218,-36.5293 c -6.68848,-8.4825 -14.8557,-17.7873 -26.08789,-28.7968 -15.60072,-2.4824 -31.20005,-13.6044 -46.80078,-24.4004 -1.28046,-0.7073 -2.97941,-1.0999 -5.03711,-1.2285 z m -62.25,69.0976 19.98047,4.0508 -8.80859,6.1152 -44.55664,3.8809 -6.19531,-11.0195 z m -151.16601,0.7383 33.24414,0.045 3.375,4.3262 -9.31055,11.6055 -14.44336,-3.2305 -35.78711,6.4863 -11.92578,-5.6738 z m 54.30469,0.9863 43.27734,0.7422 -10.49024,15.3242 -30.125,-0.625 z m 178.2539,8.8516 -44.0293,40.9394 -14.9414,-38.6914 z m -327.79883,0.5078 13.7168,1.1894 15.90625,29.6583 20.89648,12.1445 -13.39062,21.3164 -27.02344,8.625 z m 338.00391,21.6836 4.30859,49.7851 -41.19336,1.1407 -0.85351,-20.3594 z m -157.36523,1.5293 62.02734,0.9824 -0.35352,16.1309 -22.03125,9.7754 -27.05078,0.8183 z m -17.40039,3.7656 25.21484,39.0762 -5.35156,4.2637 -41.58594,-21.5098 z m 87.6875,26.9199 3.00781,3.1289 -8.09571,16.4864 -21.47656,-15.1055 z m -115.51172,8.4883 23.27734,24.0235 -17.49609,40.7148 -18.94727,6.791 -8.87695,-18.3672 c 0,0 22.04297,-50.5497 22.04297,-53.1621 z m 139.96875,20.0137 51.37304,39.1914 11.50782,-24.3887 3.43554,41.4922 -10.68554,8.8633 -65.61524,-60.4258 z m -75.37696,0.7266 25.03907,20.0253 -19.02149,35.8985 -20.82617,3.7676 -18.19922,-23.1641 z m -161.46875,25.8007 55.54883,59.4336 -12.18359,16.5098 -60.49024,-55.3008 z m 208.57032,5.3965 39.64453,41.6406 -53.51758,-6.1425 z m -105.45118,30.9942 26.97461,14.3261 49.46485,49.8828 -8.67774,8.5918 -71.83008,-68.7246 z m -26.39648,37.4902 44.82617,28.3398 -13.89258,20.4551 -49.24804,-26.9004 z m 353.01172,138.8164 -129.2207,6.2324 -238.44336,-5.9258 c -18.64445,0.6648 -37.7148,0.853 -44.85157,14.3418 l -1.23633,9.7989 c 11.73339,12.0907 34.32883,20.7415 73.91211,24.0117 l 244.42969,0.6504 140.92383,12.8711 c 36.30608,-2.766 49.03083,-9.0752 64.10352,-15.0313 l 28.49223,15.9981 c 63.9663,5.9372 121.6348,3.9788 179.6074,2.4023 59.4892,-7.0247 119.1842,-5.7728 178.832,-6.4375 30.0178,-8.6605 58.7151,-17.3745 56.1738,-27.3848 0.5466,-5.8314 1.1504,-11.6576 -7.1777,-18.4961 -25.467,7.7156 -61.5464,8.7718 -102.3184,6.8809 -31.1179,-16.4045 -66.4286,-18.2054 -102.4746,-17.4492 -60.3314,-0.367 -107.0462,7.8531 -141.6152,23.7344 -13.0067,3.2848 -26.6896,4.0947 -41.6758,0.1211 -9.2448,-12.8889 -20.0834,-16.9654 -31.03123,-20.4375 -10.89149,-1.9085 -47.24895,13.2514 -75.3086,22.8496 -15.50554,-15.8526 -33.04629,-23.3861 -51.12109,-28.7305 z" />
      <path
         id="path1174"
         style="display:inline;fill:#737373;fill-opacity:1;fill-rule:evenodd;stroke:none;stroke-width:1px;stroke-linecap:butt;stroke-linejoin:miter;stroke-opacity:1"
         d="m 1008.6548,283.47472 c -8.3013,1.05552 -13.91655,3.95559 -14.88605,10.0458 4.10017,2.75301 4.93054,7.75548 14.41375,6.8052 7.9057,-1.49764 9.0181,-3.91949 11.5125,-6.15332 0.6123,-4.62964 -1.6007,-8.55911 -11.0402,-10.69768 z m -0.4575,-55.92577 c -10.16258,11.59125 -8.1937,11.12635 -11.91404,16.31534 -0.38363,3.01853 0.64921,5.76831 2.80278,8.30545 3.11446,1.1145 5.12586,-0.60288 7.52386,-1.32786 5.3199,4.54029 10.1477,6.86653 17.9953,9.79132 5.6833,1.08718 10.4979,-1.05318 14.1039,-5.7685 0.2455,-2.88166 0.456,-5.82476 -2.653,-14.60403 -2.1108,-1.43312 -3.7702,-3.01407 -8.7165,-3.51872 -3.9272,-0.0843 -7.8544,-0.15477 -11.7816,1.99619 -1.4346,0.6328 -2.56,0.79509 -2.24,-1.24171 3.1391,-3.6643 7.5116,-7.42955 12.2335,-11.22339 l 4.4525,-6.92419 c -7.7951,2.16764 -15.8096,4.09953 -21.8067,8.2001 z m -58.68502,-45.26236 c -8.52385,0.76922 -15.01745,3.10474 -15.57963,10.01619 4.16097,5.7472 9.58753,9.02122 15.3183,11.70075 4.31331,-2.61869 8.70842,-5.7311 13.35176,-10.34163 -2.63036,-4.92899 -3.46901,-11.03364 -13.09043,-11.37531 z m 31.78861,15.56769 c -10.75193,-0.99332 -17.68371,5.12414 -20.00282,19.82757 2.76814,10.47853 11.53584,12.89188 22.22954,12.71613 7.95262,-1.06987 15.58136,-2.73697 16.42046,-16.924 -3.64247,-8.23039 -8.37845,-15.17581 -18.64718,-15.6197 z m -82.02547,58.20732 c -3.15187,7.83905 -6.81491,15.57125 -3.3118,24.80146 l 4.28245,32.73903 -22.52935,-7.91135 10.06602,-53.68613 c -1.59344,-7.54546 -3.56117,-15.73193 -5.56741,-23.98432 l 12.60064,5.74892 -0.7669,-15.95815 c 14.2035,-1.9571 26.96566,-2.32813 27.8232,10.40083 l -5.69425,11.48131 c 3.33787,-3.13337 10.83902,-3.30516 21.18032,-1.45658 l 6.99582,13.82123 5.93537,-13.62185 8.11307,3.41718 -4.87753,20.1639 c -2.80904,17.44553 5.22181,24.04754 10.53166,33.37146 -25.32016,-14.21116 -43.22258,-26.22832 -64.78131,-39.32694 z m 42.3343,100.36462 c -10.48586,10.28914 -15.26752,17.78819 -17.69396,24.13523 -2.61549,8.76312 -5.9431,18.0984 -2.0386,21.62295 11.7562,3.81553 23.47025,3.93277 35.01445,-10.85407 10.73624,-10.23811 20.90374,-20.64769 14.15461,-36.15733 -4.33238,-4.43734 -23.65632,-3.90998 -29.4365,1.25322 z m -43.66664,705.77218 c -2.71549,2.7202 39.67312,148.5758 43.14334,150.088 18.65975,44.8136 38.71476,85.3598 48.70134,119.6397 l 56.00914,66.2588 c 5.7823,1.4385 10.8346,6.1904 17.9101,1.7586 1.3505,-6.4449 1.8289,-13.2692 -4.187,-22.9192 -19.0075,-18.9132 -37.6638,-33.8914 -57.9618,-67.2621 -5.024,-27.9948 -18.38489,-62.1764 -32.78257,-97.1273 l -15.27314,-67.2717 c -1.38591,-17.218 -14.21166,-28.4059 -23.75146,-41.3258 -6.57329,-1.5265 -4.78241,-22.8725 -2.10229,-46.3256 -5.01486,-3.2305 -9.5163,-6.4392 -19.73122,-9.8903 -14.13324,-1.1815 -7.91329,8.8862 -9.97444,14.3769 z m 31.00591,331.1743 c -9.07845,14.3414 -10.71991,18.9789 -4.92442,24.0759 39.67862,13.3763 91.53713,21.8296 146.81163,28.9022 1.0121,0.2759 30.6872,-11.1918 32.4814,-18.7106 2.7439,-11.4989 102.3496,1.4253 103.7031,2.4916 5.3182,-5.6757 11.4875,-9.9825 9.7562,-26.9966 -3.5316,-12.6896 -18.93,-19.8104 -37.5582,-25.4156 -21.4135,11.3866 -38.4226,32.8637 -65.3389,31.6432 -30.1461,6.6378 -59.3918,9.2048 -86.4573,1.9142 -33.99546,-7.2806 -71.99357,-19.0479 -98.47351,-17.9043 z m 158.57921,-114.9355 c -0.456,2.2799 49.7113,75.6528 57.7526,76.3813 17.8233,9.9594 38.4453,15.9744 58.2156,16.2856 -18.2747,-23.3442 -34.7846,-46.9983 -47.0102,-71.4045 -20.9263,3.066 -47.1621,-10.8349 -68.958,-21.2624 z m 19.0921,-76.09 c -25.7346,8.3853 -20.6692,49.3482 -18.7532,49.5828 13.9358,20.6789 30.3409,26.0751 47.5964,26.2088 16.2371,-3.5543 16.0849,-20.8374 14.3863,-44.9937 -10.781,-25.9476 -20.7688,-34.6061 -43.2295,-30.7979 z m -53.3444,-246.619 c 8.792,47.3939 1.5282,89.7074 0.5186,133.9999 3.7878,43.5376 10.5204,82.0213 22.0601,119.7601 4.4054,-11.9873 11.9113,-11.4526 19.2573,-15.9975 l 27.1261,-2.8192 c -12.6523,-35.6024 -26.7481,-62.0935 -37.1174,-112.1058 -1.487,-41.4409 1.3127,-86.76796 -6.7346,-122.26157 -1.7439,-20.40829 -8.9188,-35.16251 -17.6351,-48.31184 -5.8235,15.63286 -13.0989,31.14409 -7.475,47.73591 z M 815.13639,623.06542 c -5.86944,-6.7328 -16.49382,-1.64251 -27.34869,4.02085 -6.88677,12.2791 -2.54181,21.50309 3.03152,30.39295 10.69522,0.0687 20.56527,-1.03776 26.00585,-8.45205 2.35612,-6.46741 5.29901,-12.4953 -1.68868,-25.96175 z m 28.0127,-27.69804 c -8.75801,8.27204 -8.26467,16.01124 -4.90029,25.30325 l 29.74251,60.61018 c 4.36883,18.52877 8.86395,37.0595 4.83252,55.4584 11.90197,2.93712 21.20528,10.38465 38.19983,-0.0782 -4.50331,-24.15016 -7.01122,-43.11045 -16.07263,-79.11587 l -27.06247,-53.37365 c -9.71503,-8.05208 -18.4585,-12.71857 -24.73947,-8.80407 z m 75.64132,282.22341 -2.7285,35.44847 c 44.90927,-3.40388 71.03126,-16.23449 92.61799,-28.67763 29.504,-18.52648 25.7716,-43.4293 33.6982,-66.09536 29.9857,-6.28294 53.8274,-27.34855 74.6902,-64.6599 0.4697,-10.23756 -0.4131,-23.4899 3.1757,-26.7744 10.2529,-5.43965 20.6824,-10.744 27.1726,-19.0661 3.2695,-10.97218 2.8547,-24.41052 12.1289,-31.36346 l 31.1693,-24.11984 c 3.4243,-19.09164 9.6563,-34.35995 20.3798,-43.5122 -9.2627,-1.45017 -27.35,-3.10828 -31.6223,3.21883 -16.1018,16.56854 -29.4937,32.87359 -41.8701,49.07989 1.407,-31.52439 2.6972,-60.53763 7.1801,-90.39036 0.414,-17.27846 -3.9154,-25.28668 -7.979,-33.81437 -6.1596,-1.2764 -12.2372,-1.92008 -17.7596,1.72431 -9.2277,44.89302 -20.7686,91.09169 -30.3985,131.41221 -20.2865,50.80177 -28.5529,76.2521 -44.0769,113.98865 l -24.3101,18.50986 c -29.50363,-11.93829 -33.09669,-20.35021 -86.66251,-34.15483 -18.66453,1.02507 -18.00368,13.31826 -22.14609,23.21012 -1.02569,10.12621 -1.32246,19.36592 3.57477,22.28875 16.675,-4.35188 29.78764,-16.67179 51.32583,-10.14597 14.5706,2.04156 61.3093,3.54151 46.0339,4.6902 1.4729,12.06927 -2.2342,18.44795 -5.7417,25.04592 -24.36477,23.39731 -24.4825,18.52973 -34.40735,25.09435 -18.7159,3.80947 -36.92517,9.04986 -53.44464,19.06286 z" />
    </g>
  </g>
</svg>
