<?xml version="1.0" encoding="UTF-8"?>
<svg version="1.1" xmlns="http://www.w3.org/2000/svg" width="48" height="48">
<path d="M0 0 C5.81992553 3.51698725 10.55445463 8.99050694 12.5625 15.5 C13.39932443 24.59639023 12.5983736 31.59691245 8.4375 39.6875 C7.36412319 41.91092338 7.01379336 44.08122593 6.5625 46.5 C2.56275019 46.61710979 -1.43655281 46.68755489 -5.4375 46.75 C-6.56285156 46.78351562 -7.68820313 46.81703125 -8.84765625 46.8515625 C-17.00082516 46.9469212 -22.48750316 45.96140838 -28.6796875 40.53515625 C-29.21851563 39.88417969 -29.75734375 39.23320313 -30.3125 38.5625 C-30.86679687 37.91410156 -31.42109375 37.26570313 -31.9921875 36.59765625 C-36.47162097 30.09642443 -36.11213728 23.12859083 -35.4375 15.5 C-33.75664417 8.84040667 -28.97371678 4.31452553 -23.4375 0.5 C-16.65568202 -2.91366677 -6.96443471 -3.08620048 0 0 Z " fill="#CFC9C6" transform="translate(35.4375,1.5)"/>
<path d="M0 0 C2.67578125 1.40625 2.67578125 1.40625 5 3 C6.546875 3.9590625 6.546875 3.9590625 8.125 4.9375 C12.55932203 8.11864407 12.55932203 8.11864407 14 11 C14.24380925 13.71982768 14.13277273 16.25603034 14 19 C14 19.66 14 20.32 14 21 C13.71465132 24.6144166 13.28440177 25.73747529 10.5625 28.25 C8 30 8 30 6 31 C7.65 31.33 9.3 31.66 11 32 C10.67 32.99 10.34 33.98 10 35 C6.37 35 2.74 35 -1 35 C-0.67 33.68 -0.34 32.36 0 31 C-0.68964844 31.0928125 -1.37929688 31.185625 -2.08984375 31.28125 C-6.61481071 31.62884691 -9.7788368 31.77405135 -13.69921875 29.2890625 C-20.83672461 22.92162571 -20.83672461 22.92162571 -21.203125 18.609375 C-21.36718332 8.60181721 -21.36718332 8.60181721 -18 4 C-12.90418484 -0.96515323 -6.75002388 -1.00841541 0 0 Z " fill="#FA760B" transform="translate(30,11)"/>
<path d="M0 0 C0.35049845 9.24277399 0.12530009 15.9230276 -4.125 24.1875 C-5.19837681 26.41092338 -5.54870664 28.58122593 -6 31 C-9.99974981 31.11710979 -13.99905281 31.18755489 -18 31.25 C-19.12535156 31.28351562 -20.25070313 31.31703125 -21.41015625 31.3515625 C-29.61970506 31.44758061 -35.13028485 30.46444093 -41.3125 24.9296875 C-41.869375 24.25164063 -42.42625 23.57359375 -43 22.875 C-43.5775 22.19179688 -44.155 21.50859375 -44.75 20.8046875 C-46 19 -46 19 -46 17 C-44.35 16.34 -42.7 15.68 -41 15 C-40.67 11.7 -40.34 8.4 -40 5 C-39.67 5 -39.34 5 -39 5 C-38.99742188 5.64066406 -38.99484375 6.28132813 -38.9921875 6.94140625 C-38.72446557 12.92945335 -37.73375759 16.2732584 -33.5703125 20.625 C-29.83727302 23.89373109 -27.65974444 24.22924182 -22.8125 24.125 C-21.72582031 24.10695313 -20.63914062 24.08890625 -19.51953125 24.0703125 C-18.68808594 24.04710938 -17.85664063 24.02390625 -17 24 C-17.99 26.475 -17.99 26.475 -19 29 C-17.18674449 28.88648483 -15.37436643 28.75887039 -13.5625 28.625 C-12.55316406 28.55539063 -11.54382812 28.48578125 -10.50390625 28.4140625 C-9.67761719 28.27742188 -8.85132813 28.14078125 -8 28 C-7.67 27.34 -7.34 26.68 -7 26 C-8.98 26 -10.96 26 -13 26 C-10.53058944 23.40062046 -7.81939117 21.20979308 -5 19 C-5.495 16.03 -5.495 16.03 -6 13 C-5.34 13 -4.68 13 -4 13 C-4.30893932 11.3743193 -4.6222695 9.74947252 -4.9375 8.125 C-5.11152344 7.22007813 -5.28554688 6.31515625 -5.46484375 5.3828125 C-5.89963701 3.00043683 -5.89963701 3.00043683 -7 1 C-4.50935112 0.31292445 -2.62113708 0 0 0 Z " fill="#D7A984" transform="translate(48,17)"/>
<path d="M0 0 C5.21428571 2.60714286 5.21428571 2.60714286 7 6 C7.25366933 8.72019875 7.13283914 11.25465785 7 14 C7 14.66 7 15.32 7 16 C6.71465132 19.6144166 6.28440177 20.73747529 3.5625 23.25 C1 25 1 25 -1 26 C0.65 26.33 2.3 26.66 4 27 C3.67 27.99 3.34 28.98 3 30 C-0.63 30 -4.26 30 -8 30 C-7.67 28.68 -7.34 27.36 -7 26 C-7.74765625 26.04640625 -8.4953125 26.0928125 -9.265625 26.140625 C-17.40994854 26.43910806 -17.40994854 26.43910806 -20.6875 24 C-21.120625 23.34 -21.55375 22.68 -22 22 C-21.35933594 22.03480469 -20.71867187 22.06960937 -20.05859375 22.10546875 C-14.19707058 22.28891433 -10.09196869 22.01361412 -5 19 C-3.19203897 16.43389334 -3.19203897 16.43389334 -2 14 C-1.34 14 -0.68 14 0 14 C0 9.38 0 4.76 0 0 Z " fill="#6D1C61" transform="translate(37,16)"/>
<path d="M0 0 C0.56880688 14.99964805 0.56880688 14.99964805 -3 22 C-3.66 22.33 -4.32 22.66 -5 23 C-6.11002992 19.66991025 -5.68516272 18.34016824 -5 15 C-5.33 14.34 -5.66 13.68 -6 13 C-5.34 13 -4.68 13 -4 13 C-4.30893932 11.3743193 -4.6222695 9.74947252 -4.9375 8.125 C-5.11152344 7.22007813 -5.28554688 6.31515625 -5.46484375 5.3828125 C-5.89963701 3.00043683 -5.89963701 3.00043683 -7 1 C-4.50935112 0.31292445 -2.62113708 0 0 0 Z " fill="#DBA181" transform="translate(48,17)"/>
<path d="M0 0 C2.4375 0.4375 2.4375 0.4375 5.4375 2.4375 C5.4375 3.4275 5.4375 4.4175 5.4375 5.4375 C4.65375 5.64375 3.87 5.85 3.0625 6.0625 C0.12833714 7.24426612 0.12833714 7.24426612 -0.875 10.5625 C-1.101875 11.51125 -1.32875 12.46 -1.5625 13.4375 C-2.8825 13.1075 -4.2025 12.7775 -5.5625 12.4375 C-7.01646825 6.25813492 -7.01646825 6.25813492 -4.9375 2.5 C-2.5625 0.4375 -2.5625 0.4375 0 0 Z " fill="#5A5047" transform="translate(23.5625,17.5625)"/>
<path d="M0 0 C5.21428571 2.60714286 5.21428571 2.60714286 7 6 C7.24493747 8.72036936 7.13708782 11.25824366 7 14 C3.7 14.66 0.4 15.32 -3 16 C-2.67 15.34 -2.34 14.68 -2 14 C-1.34 14 -0.68 14 0 14 C0 9.38 0 4.76 0 0 Z " fill="#99756B" transform="translate(37,16)"/>
<path d="M0 0 C-5.53124195 4.48479077 -8.48782595 6.43995875 -15.61328125 6.3359375 C-18 6 -18 6 -20.625 4 C-21.07875 3.34 -21.5325 2.68 -22 2 C-21.35933594 2.03480469 -20.71867187 2.06960937 -20.05859375 2.10546875 C-13.93372998 2.30196794 -13.93372998 2.30196794 -8.1875 0.4375 C-4.77285046 -1.10243999 -3.48230251 -1.1607675 0 0 Z " fill="#614C3A" transform="translate(37,36)"/>
<path d="M0 0 C0.9075 0.825 1.815 1.65 2.75 2.5 C7.73310905 6.14743033 13.0892078 5.43675804 19 5 C18.67 5.66 18.34 6.32 18 7 C17.34 7 16.68 7 16 7 C16 7.99 16 8.98 16 10 C7.16299559 10.44933921 7.16299559 10.44933921 3 7 C0 2.75862069 0 2.75862069 0 0 Z " fill="#AB866A" transform="translate(12,36)"/>
<path d="M0 0 C0.02689216 1.47906892 0.04634621 2.95827483 0.0625 4.4375 C0.07410156 5.26121094 0.08570313 6.08492187 0.09765625 6.93359375 C0 9 0 9 -1 10 C-3.01964199 10.07244053 -5.04167124 10.08377188 -7.0625 10.0625 C-8.16722656 10.05347656 -9.27195313 10.04445313 -10.41015625 10.03515625 C-11.69212891 10.01775391 -11.69212891 10.01775391 -13 10 C-13 9.34 -13 8.68 -13 8 C-12.28972656 7.95101562 -11.57945313 7.90203125 -10.84765625 7.8515625 C-9.92855469 7.77679688 -9.00945313 7.70203125 -8.0625 7.625 C-7.14597656 7.55539063 -6.22945312 7.48578125 -5.28515625 7.4140625 C-4.15400391 7.20910156 -4.15400391 7.20910156 -3 7 C-2.67 6.34 -2.34 5.68 -2 5 C-3.98 5 -5.96 5 -8 5 C-3.22727273 0 -3.22727273 0 0 0 Z " fill="#DC7352" transform="translate(43,38)"/>
<path d="M0 0 C0.6875 2.3125 0.6875 2.3125 1 5 C-0.4375 6.8125 -0.4375 6.8125 -2 8 C-2.99 7.67 -3.98 7.34 -5 7 C-4.67 5.68 -4.34 4.36 -4 3 C-5.65 3 -7.3 3 -9 3 C-9 2.34 -9 1.68 -9 1 C-6.04335481 -0.4783226 -3.25770263 -0.06032783 0 0 Z " fill="#68145D" transform="translate(43,31)"/>
<path d="M0 0 C-0.3125 2.875 -0.3125 2.875 -1 6 C-4 8 -4 8 -7 8 C-7.36275695 3.52599758 -7.36275695 3.52599758 -5.75 1.1875 C-4 0 -4 0 0 0 Z " fill="#B49881" transform="translate(29,23)"/>
<path d="M0 0 C1.32 0.33 2.64 0.66 4 1 C4 3.64 4 6.28 4 9 C2.68 9 1.36 9 0 9 C0 6.03 0 3.06 0 0 Z " fill="#644B36" transform="translate(38,20)"/>
<path d="M0 0 C0.99 0 1.98 0 3 0 C3 4.62 3 9.24 3 14 C2.34 14 1.68 14 1 14 C0.67 9.38 0.34 4.76 0 0 Z " fill="#D5AE8B" transform="translate(45,17)"/>
<path d="M0 0 C0.33 0.66 0.66 1.32 1 2 C2.65 2 4.3 2 6 2 C6.33 3.98 6.66 5.96 7 8 C5.35 8.66 3.7 9.32 2 10 C1.4465236 7.92446352 1 6.15634036 1 4 C0.68521554 2.66216607 0.35412344 1.32796291 0 0 Z " fill="#9F5267" transform="translate(33,32)"/>
<path d="M0 0 C-3.0684847 2.97550031 -4.46236331 3.96474513 -8.8125 4.25 C-9.864375 4.1675 -10.91625 4.085 -12 4 C-12 3.34 -12 2.68 -12 2 C-4.71428571 -1.57142857 -4.71428571 -1.57142857 0 0 Z " fill="#543D28" transform="translate(37,36)"/>
<path d="M0 0 C7.50769231 0.61538462 7.50769231 0.61538462 10 2.5625 C10.33 3.036875 10.66 3.51125 11 4 C10.67 4.99 10.34 5.98 10 7 C6.59260295 4.75421558 3.23521742 2.48862878 0 0 Z " fill="#BDADA1" transform="translate(30,11)"/>
<path d="M0 0 C-0.99 0.66 -1.98 1.32 -3 2 C-4.19232613 4.05003955 -4.19232613 4.05003955 -5 6 C-5.66 6 -6.32 6 -7 6 C-7.66 7.32 -8.32 8.64 -9 10 C-8.39779006 3.61657459 -8.39779006 3.61657459 -6.75 1.0625 C-4.41628148 -0.35440053 -2.67863922 -0.21718696 0 0 Z " fill="#674427" transform="translate(26,18)"/>
<path d="M0 0 C1.32 0 2.64 0 4 0 C4 4.29 4 8.58 4 13 C3.01 13 2.02 13 1 13 C1.66 12.67 2.32 12.34 3 12 C2.69106068 10.3743193 2.3777305 8.74947252 2.0625 7.125 C1.88847656 6.22007813 1.71445312 5.31515625 1.53515625 4.3828125 C1.10036299 2.00043683 1.10036299 2.00043683 0 0 Z " fill="#C39F84" transform="translate(41,18)"/>
<path d="M0 0 C0.66 0 1.32 0 2 0 C2.33 1.98 2.66 3.96 3 6 C1.68 6 0.36 6 -1 6 C-0.67 4.02 -0.34 2.04 0 0 Z " fill="#DCA089" transform="translate(40,41)"/>
</svg>
