<svg width="51" height="51" viewBox="0 0 51 51" fill="none" xmlns="http://www.w3.org/2000/svg">
<rect x="1.20999" y="1.39258" width="49" height="49" fill="white" stroke="black"/>
<path d="M7.26996 20.4242L1.25481 20.4444" stroke="black"/>
<path d="M50.2091 20.4692H45.3257" stroke="black"/>
<path d="M6.97408 34.271L1.26049 34.271" stroke="black"/>
<path d="M50.2091 34.3696H45.3257" stroke="black"/>
<mask id="path-6-outside-1_108_532" maskUnits="userSpaceOnUse" x="6.27049" y="18.3867" width="40" height="8" fill="black">
<rect fill="white" x="6.27049" y="18.3867" width="40" height="8"/>
<path d="M22.7969 22.6914H29.4756L32.7793 19.3867H45.0019V21.6104H33.7002L30.4228 24.8877H21.8496L18.5723 21.6104H7.27049V19.3867H19.4931L22.7969 22.6914Z"/>
</mask>
<path d="M22.7969 22.6914H29.4756L32.7793 19.3867H45.0019V21.6104H33.7002L30.4228 24.8877H21.8496L18.5723 21.6104H7.27049V19.3867H19.4931L22.7969 22.6914Z" fill="#2FAA96"/>
<path d="M22.7969 22.6914L22.0896 23.3984L22.3826 23.6914H22.7969V22.6914ZM29.4756 22.6914V23.6914H29.8899L30.1828 23.3984L29.4756 22.6914ZM32.7793 19.3867V18.3867H32.365L32.0721 18.6797L32.7793 19.3867ZM45.0019 19.3867H46.0019V18.3867H45.0019V19.3867ZM45.0019 21.6104V22.6104H46.0019V21.6104H45.0019ZM33.7002 21.6104V20.6104H33.286L32.9931 20.9032L33.7002 21.6104ZM30.4228 24.8877V25.8877H30.837L31.1299 25.5948L30.4228 24.8877ZM21.8496 24.8877L21.1425 25.5948L21.4354 25.8877H21.8496V24.8877ZM18.5723 21.6104L19.2794 20.9032L18.9865 20.6104H18.5723V21.6104ZM7.27049 21.6104H6.27049V22.6104H7.27049V21.6104ZM7.27049 19.3867V18.3867H6.27049V19.3867H7.27049ZM19.4931 19.3867L20.2004 18.6797L19.9074 18.3867H19.4931V19.3867ZM22.7969 22.6914V23.6914H29.4756V22.6914V21.6914H22.7969V22.6914ZM29.4756 22.6914L30.1828 23.3984L33.4865 20.0937L32.7793 19.3867L32.0721 18.6797L28.7684 21.9844L29.4756 22.6914ZM32.7793 19.3867V20.3867H45.0019V19.3867V18.3867H32.7793V19.3867ZM45.0019 19.3867H44.0019V21.6104H45.0019H46.0019V19.3867H45.0019ZM45.0019 21.6104V20.6104H33.7002V21.6104V22.6104H45.0019V21.6104ZM33.7002 21.6104L32.9931 20.9032L29.7157 24.1806L30.4228 24.8877L31.1299 25.5948L34.4073 22.3175L33.7002 21.6104ZM30.4228 24.8877V23.8877H21.8496V24.8877V25.8877H30.4228V24.8877ZM21.8496 24.8877L22.5567 24.1806L19.2794 20.9032L18.5723 21.6104L17.8651 22.3175L21.1425 25.5948L21.8496 24.8877ZM18.5723 21.6104V20.6104H7.27049V21.6104V22.6104H18.5723V21.6104ZM7.27049 21.6104H8.27049V19.3867H7.27049H6.27049V21.6104H7.27049ZM7.27049 19.3867V20.3867H19.4931V19.3867V18.3867H7.27049V19.3867ZM19.4931 19.3867L18.7859 20.0937L22.0896 23.3984L22.7969 22.6914L23.5041 21.9844L20.2004 18.6797L19.4931 19.3867Z" fill="black" mask="url(#path-6-outside-1_108_532)"/>
<mask id="path-8-outside-2_108_532" maskUnits="userSpaceOnUse" x="6.00218" y="28.4819" width="40" height="8" fill="black">
<rect fill="white" x="6.00218" y="28.4819" width="40" height="8"/>
<path d="M7.27074 35.4819L7.27074 33.2593L18.5725 33.2593L21.8498 29.9819L26.136 29.9819L26.136 29.981L30.4231 29.981L33.7004 33.2583L45.0022 33.2583L45.0022 35.481L32.7795 35.481L29.4768 32.1772L26.1369 32.1772L26.1369 32.1782L22.7961 32.1782L19.4934 35.4819L7.27074 35.4819Z"/>
</mask>
<path d="M7.27074 35.4819L7.27074 33.2593L18.5725 33.2593L21.8498 29.9819L26.136 29.9819L26.136 29.981L30.4231 29.981L33.7004 33.2583L45.0022 33.2583L45.0022 35.481L32.7795 35.481L29.4768 32.1772L26.1369 32.1772L26.1369 32.1782L22.7961 32.1782L19.4934 35.4819L7.27074 35.4819Z" fill="#2FAA96"/>
<path d="M7.27074 35.4819L6.27074 35.4819L6.27074 36.4819L7.27074 36.4819L7.27074 35.4819ZM7.27074 33.2593L7.27074 32.2593L6.27074 32.2593L6.27074 33.2593L7.27074 33.2593ZM18.5725 33.2593L18.5725 34.2593L18.9867 34.2593L19.2796 33.9664L18.5725 33.2593ZM21.8498 29.9819L21.8498 28.9819L21.4356 28.9819L21.1427 29.2748L21.8498 29.9819ZM26.136 29.9819L26.136 30.9819L27.136 30.9819L27.136 29.9819L26.136 29.9819ZM26.136 29.981L26.136 28.981L25.136 28.981L25.136 29.981L26.136 29.981ZM30.4231 29.981L31.1302 29.2738L30.8373 28.981L30.4231 28.981L30.4231 29.981ZM33.7004 33.2583L32.9933 33.9654L33.2862 34.2583L33.7004 34.2583L33.7004 33.2583ZM45.0022 33.2583L46.0022 33.2583L46.0022 32.2583L45.0022 32.2583L45.0022 33.2583ZM45.0022 35.481L45.0022 36.481L46.0022 36.481L46.0022 35.481L45.0022 35.481ZM32.7795 35.481L32.0723 36.188L32.3652 36.481L32.7795 36.481L32.7795 35.481ZM29.4768 32.1772L30.184 31.4702L29.8911 31.1772L29.4768 31.1772L29.4768 32.1772ZM26.1369 32.1772L26.1369 31.1772L25.1369 31.1772L25.1369 32.1772L26.1369 32.1772ZM26.1369 32.1782L26.1369 33.1782L27.1369 33.1782L27.1369 32.1782L26.1369 32.1782ZM22.7961 32.1782L22.7961 31.1782L22.3818 31.1782L22.0889 31.4712L22.7961 32.1782ZM19.4934 35.4819L19.4934 36.4819L19.9077 36.4819L20.2006 36.1889L19.4934 35.4819ZM7.27074 35.4819L8.27074 35.4819L8.27074 33.2593L7.27074 33.2593L6.27074 33.2593L6.27074 35.4819L7.27074 35.4819ZM7.27074 33.2593L7.27074 34.2593L18.5725 34.2593L18.5725 33.2593L18.5725 32.2593L7.27074 32.2593L7.27074 33.2593ZM18.5725 33.2593L19.2796 33.9664L22.5569 30.689L21.8498 29.9819L21.1427 29.2748L17.8654 32.5522L18.5725 33.2593ZM21.8498 29.9819L21.8498 30.9819L26.136 30.9819L26.136 29.9819L26.136 28.9819L21.8498 28.9819L21.8498 29.9819ZM26.136 29.9819L27.136 29.9819L27.136 29.981L26.136 29.981L25.136 29.981L25.136 29.9819L26.136 29.9819ZM26.136 29.981L26.136 30.981L30.4231 30.981L30.4231 29.981L30.4231 28.981L26.136 28.981L26.136 29.981ZM30.4231 29.981L29.716 30.6881L32.9933 33.9654L33.7004 33.2583L34.4075 32.5512L31.1302 29.2738L30.4231 29.981ZM33.7004 33.2583L33.7004 34.2583L45.0022 34.2583L45.0022 33.2583L45.0022 32.2583L33.7004 32.2583L33.7004 33.2583ZM45.0022 33.2583L44.0022 33.2583L44.0022 35.481L45.0022 35.481L46.0022 35.481L46.0022 33.2583L45.0022 33.2583ZM45.0022 35.481L45.0022 34.481L32.7795 34.481L32.7795 35.481L32.7795 36.481L45.0022 36.481L45.0022 35.481ZM32.7795 35.481L33.4867 34.774L30.184 31.4702L29.4768 32.1772L28.7696 32.8842L32.0723 36.188L32.7795 35.481ZM29.4768 32.1772L29.4768 31.1772L26.1369 31.1772L26.1369 32.1772L26.1369 33.1772L29.4768 33.1772L29.4768 32.1772ZM26.1369 32.1772L25.1369 32.1772L25.1369 32.1782L26.1369 32.1782L27.1369 32.1782L27.1369 32.1772L26.1369 32.1772ZM26.1369 32.1782L26.1369 31.1782L22.7961 31.1782L22.7961 32.1782L22.7961 33.1782L26.1369 33.1782L26.1369 32.1782ZM22.7961 32.1782L22.0889 31.4712L18.7862 34.7749L19.4934 35.4819L20.2006 36.1889L23.5033 32.8852L22.7961 32.1782ZM19.4934 35.4819L19.4934 34.4819L7.27074 34.4819L7.27074 35.4819L7.27074 36.4819L19.4934 36.4819L19.4934 35.4819Z" fill="black" mask="url(#path-8-outside-2_108_532)"/>
</svg>
