<svg xmlns="http://www.w3.org/2000/svg" viewBox="0 0 90 90">
  <style>
    /* Light mode - dark cards */
    .cards {
      fill: #27272a;
    }

    /* Dark mode - light cards */
    @media (prefers-color-scheme: dark) {
      .cards {
        fill: #fafafa;
      }
    }
  </style>

  <g class="cards" transform="translate(0, 90) scale(0.1, -0.1)">
    <!-- Front card with spade symbol -->
    <path d="M110 790 c-19 -19 -20 -33 -20 -340 0 -307 1 -321 20 -340 19 -19 33
-20 250 -20 217 0 231 1 250 20 19 19 20 33 20 340 0 307 -1 321 -20 340 -19 19 -33 20 -250 20 -217 0 -231 -1 -250 -20z
      M 180 360 L 180 540 A 40 40 0 0 0 220 580 L 500 580 A 40 40 0 0 0 540 540 L 540 360 A 40 40 0 0 0 500 320 L 220 320 A 40 40 0 0 0 180 360 z
      M 350 580 L 350 631.7 A 30 30 0 1 0 370 631.7 L 370 580 z
      M 310 480 A 30 30 0 1 0 250 480 A 30 30 0 1 0 310 480 z
      M 470 480 A 30 30 0 1 0 410 480 A 30 30 0 1 0 470 480 z
      M 260 390 L 260 370 A 10 10 0 0 1 270 360 L 450 360 A 10 10 0 0 1 460 370 L 460 390 A 10 10 0 0 1 450 400 L 270 400 A 10 10 0 0 1 260 390 z"/>

    <!-- Back card (offset) -->
    <path d="M688 459 c2 -281 0 -336 -13 -361 -19 -39 -19 -38 9 -38 50 0 59 28
110 359 47 300 48 312 31 331 -10 11 -34 22 -54 25 -20 4 -47 8 -61 11 l-25 5
3 -332z"/>
  </g>
</svg>
