<?xml version="1.0" encoding="UTF-8" standalone="no"?>
<!DOCTYPE svg PUBLIC "-//W3C//DTD SVG 1.1//EN" "http://www.w3.org/Graphics/SVG/1.1/DTD/svg11.dtd">
<svg xmlns="http://www.w3.org/2000/svg" xmlns:xlink="http://www.w3.org/1999/xlink" xmlns:serif="http://www.serif.com/" width="100%" height="100%" viewBox="0 0 2334 459" version="1.1" xml:space="preserve" fill="currentColor" style="fill-rule:evenodd;clip-rule:evenodd;stroke-linejoin:round;stroke-miterlimit:2;">
  <rect id="Artboard1" x="0" y="0" width="2333.333" height="458.333" style="fill:none;"/>
  <g id="Artboard11" serif:id="Artboard1">
    <path d="M372.792,8.569l0,47.611c0,2.821 -2.29,5.111 -5.111,5.111l-280.611,0c-2.821,0 -5.111,-2.29 -5.111,-5.111l0,-47.611c0,-2.821 2.29,-5.111 5.111,-5.111l280.611,0c2.821,0 5.111,2.29 5.111,5.111Z"/>
    <path d="M1222.833,37.556l0,292.306c0,0.284 -0.23,0.514 -0.514,0.514l-55.472,0c-0.284,0 -0.514,-0.23 -0.514,-0.514l0,-292.306c0,-0.284 0.23,-0.514 0.514,-0.514l55.472,0c0.284,0 0.514,0.23 0.514,0.514Z"/>
    <path d="M1326.458,319.833l-4.375,20c-0.001,0.005 -0.002,0.011 -0.003,0.016c-0.237,1.095 -1.314,1.805 -2.386,1.573c-0.009,-0.002 -0.018,-0.004 -0.027,-0.006l-49.375,-10.75c-0.005,-0.001 -0.009,-0.002 -0.014,-0.003c-0.959,-0.214 -1.576,-1.162 -1.367,-2.099c0.002,-0.008 0.004,-0.016 0.005,-0.023l61.417,-282.333c0.246,-1.172 1.289,-2.019 2.487,-2.019c0.186,0 0.372,0.021 0.554,0.061l50.708,11.042c0.944,0.196 1.627,1.035 1.627,1.999c0,0.14 -0.014,0.28 -0.043,0.418l-22.125,101.708c-0.007,0.037 -0.011,0.075 -0.011,0.112c0,0.32 0.263,0.583 0.583,0.583c0.124,0 0.244,-0.039 0.344,-0.112c14.778,-11.972 28.653,-18.097 41.625,-18.375c139.75,-2.833 105.625,241.542 -20.292,220.208c-20.75,-3.528 -36.931,-12.833 -48.542,-27.917c-3.917,-5.083 -5.458,-10.458 -8.375,-14.583c-0.097,-0.127 -0.216,-0.237 -0.351,-0.325c-0.632,-0.412 -1.481,-0.247 -1.88,0.366c-0.091,0.139 -0.154,0.295 -0.186,0.459Zm18.583,-80.458c-5.833,29.75 -2.042,65.417 33.958,72.5c35.958,7.042 52.958,-24.583 58.833,-54.292c5.833,-29.75 2,-65.458 -33.958,-72.5c-36,-7.083 -53,24.542 -58.833,54.292Z" style="fill-rule:nonzero;"/>
    <path d="M2275.708,327.083c-3.708,3.417 -6.375,8.333 -11.292,12.458c-14.556,12.278 -32.347,17.931 -53.375,16.958c-127.583,-6 -108.875,-252.042 27.083,-219.5c12.639,3.028 24.903,11.958 36.792,26.792c0.11,0.112 0.26,0.176 0.418,0.176c0.308,0 0.565,-0.244 0.582,-0.551l0.042,-104.083c0.022,-1.104 0.937,-2 2.041,-2c0.014,0 0.028,0 0.042,0l51.875,0c0.014,-0 0.028,-0 0.042,-0c1.394,0 2.542,1.147 2.542,2.542c0,0 -0,0 -0,0l-0.125,289c0,0.957 -0.803,1.745 -1.783,1.75c-0.017,0 -0.034,-0 -0.051,-0l-50.542,0c-0.001,0 -0.003,-0 -0.004,-0c-1.097,-0.002 -1.998,-0.925 -1.996,-2.045c0,-0.013 0,-0.025 0,-0.038l-0,-20.458c0.008,-0.177 -0.021,-0.353 -0.083,-0.518c-0.26,-0.684 -1.054,-1.026 -1.759,-0.758c-0.166,0.063 -0.319,0.157 -0.45,0.276Zm1.542,-81.417c0.625,-30.375 -9.333,-64.958 -46.083,-65.667c-36.708,-0.75 -48.042,33.375 -48.625,63.75c-0.625,30.375 9.333,64.958 46.042,65.667c36.75,0.75 48.083,-33.417 48.667,-63.75Z" style="fill-rule:nonzero;"/>
    <path d="M59.083,89.181l0,279.889c0,2.767 -2.247,5.014 -5.014,5.014l-48.222,0c-2.767,0 -5.014,-2.247 -5.014,-5.014l0,-279.889c0,-2.767 2.247,-5.014 5.014,-5.014l48.222,0c2.767,0 5.014,2.247 5.014,5.014Z"/>
    <path d="M453.208,88.986l0,280.194c0,2.66 -2.16,4.819 -4.819,4.819l-48.111,0c-2.66,0 -4.819,-2.16 -4.819,-4.819l0,-280.194c0,-2.66 2.16,-4.819 4.819,-4.819l48.111,0c2.66,0 4.819,2.16 4.819,4.819Z"/>
    <circle cx="228.208" cy="229.083" r="121.625"/>
    <path d="M538.333,264.667c-0.008,-0.056 -0.015,-0.113 -0.019,-0.169c-0.088,-1.231 0.871,-2.318 2.125,-2.408c0.048,-0.003 0.096,-0.005 0.144,-0.006l47.375,0c1.385,-0.004 2.623,0.912 3.042,2.25c4,13.083 8.833,21.111 14.5,24.083c21.278,11.111 40.958,11.542 59.042,1.292c9.75,-5.528 12.181,-14.222 7.292,-26.083c-1.861,-4.556 -7.653,-8.125 -17.375,-10.708c-41.167,-10.958 -111.958,-10.333 -109.792,-73.708c2.25,-65.208 82.583,-75.25 129,-58.083c26.889,9.917 42.681,29.986 47.375,60.208c0.009,0.058 0.015,0.117 0.02,0.176c0.111,1.413 -0.941,2.665 -2.331,2.775c-0.063,0.005 -0.126,0.008 -0.189,0.008l-46.292,0c-1.375,-0.008 -2.542,-1.031 -2.708,-2.375c-1.889,-16 -11.528,-25.167 -28.917,-27.5c-15.25,-2.042 -39.458,-0.625 -45.5,15.208c-6.333,16.667 11.292,23.583 25.458,26.333c23.833,4.625 50.375,8.333 74.542,19.583c35.167,16.292 39.417,63.833 18.042,91.458c-25.375,32.667 -82.417,34.583 -119.583,23.208c-31.944,-9.778 -50.361,-31.625 -55.25,-65.542Z" style="fill-rule:nonzero;"/>
    <path d="M1068.25,309.708c-0.015,-0.721 -0.612,-1.306 -1.333,-1.306c-0.429,0 -0.833,0.207 -1.084,0.556c-9.625,13.417 -22.417,21.583 -39.292,24.417c-51.833,8.708 -103.75,-13.458 -94.042,-75.667c5.75,-36.958 45.042,-49.458 76.292,-53.75c23.417,-3.25 38.389,-6.069 44.917,-8.458c14.792,-5.542 16.75,-20.458 6.542,-31.375c-9.208,-9.833 -25.792,-10 -38.792,-8.75c-17.694,1.722 -27.694,10.556 -30,26.5c-0.206,1.427 -1.455,2.497 -2.917,2.5l-45.083,-0.042c-0.042,0 -0.083,-0.001 -0.125,-0.003c-1.324,-0.062 -2.362,-1.222 -2.298,-2.569c0.001,-0.032 0.004,-0.063 0.006,-0.095c3.375,-37.167 30.417,-60 66.292,-65.208c31.125,-4.5 70.833,-2.667 92.583,18.417c13.361,12.889 20.111,28.681 20.25,47.375c0.583,70 0.722,109.806 0.417,119.417c-0.306,9.889 2.167,18.764 7.417,26.625c0.158,0.234 0.242,0.51 0.242,0.792c0,0.774 -0.634,1.412 -1.409,1.417l-51,0c-1.424,0 -2.724,-0.812 -3.333,-2.083c-2.556,-5 -3.972,-11.236 -4.25,-18.708Zm-3.083,-82.75c-23.972,7.194 -41.833,12.125 -53.583,14.792c-11.5,2.583 -24.458,11.167 -25.542,24.333c-1.375,16.917 6.875,26.542 23.292,29.083c23.292,3.625 52.625,-6.917 57.375,-32.792c0.833,-4.556 1.042,-15.833 0.625,-33.833c-0.004,-0.912 -0.755,-1.66 -1.667,-1.66c-0.17,0 -0.338,0.026 -0.5,0.077Z" style="fill-rule:nonzero;"/>
    <path d="M829.083,259.917c0.889,0 2.292,-4.125 4.208,-12.375c1.472,-6.167 2.569,-10.417 3.292,-12.75c7.167,-23.083 18.958,-60.639 35.375,-112.667c0.475,-1.554 1.917,-2.623 3.542,-2.625l52.167,0c0.002,-0 0.003,-0 0.005,-0c0.8,0 1.458,0.658 1.458,1.458c0,0.171 -0.03,0.34 -0.088,0.5l-72.208,206.333c-0.536,1.498 -1.951,2.514 -3.542,2.542c-2.528,0.083 -10.625,0.111 -24.292,0.083c-13.694,-0.028 -21.806,-0.069 -24.333,-0.125c-1.601,-0.034 -3.02,-1.069 -3.542,-2.583l-71.625,-206.542c-0.058,-0.16 -0.088,-0.329 -0.088,-0.5c0,-0.8 0.658,-1.458 1.458,-1.458c0.002,0 0.003,0 0.005,0l52.167,0.167c1.624,0.002 3.067,1.071 3.542,2.625c16.278,52.083 27.958,89.681 35.042,112.792c0.722,2.333 1.806,6.583 3.25,12.75c1.917,8.222 3.319,12.347 4.208,12.375Z" style="fill-rule:nonzero;"/>
    <path d="M1753.75,245.458c-0.042,148.208 -220.208,147.958 -220.208,-0.042c0.042,-148 220.25,-148.167 220.208,0.042Zm-162.833,-0.125c0,32.917 13.625,68.333 52.792,68.333c39.208,-0.042 52.75,-35.5 52.75,-68.417c-0.042,-32.917 -13.667,-68.333 -52.833,-68.333c-39.167,0.042 -52.75,35.5 -52.708,68.417Z" style="fill-rule:nonzero;"/>
    <path d="M1905.875,329.833c-0.035,-0.705 -0.625,-1.267 -1.332,-1.267c-0.43,0 -0.835,0.208 -1.085,0.558c-9.583,13.417 -22.375,21.583 -39.25,24.417c-51.833,8.708 -103.708,-13.417 -94.042,-75.625c5.708,-36.958 45,-49.458 76.25,-53.75c23.389,-3.25 38.347,-6.083 44.875,-8.5c14.792,-5.542 16.75,-20.458 6.542,-31.333c-9.208,-9.833 -25.792,-10 -38.792,-8.75c-17.694,1.722 -27.681,10.556 -29.958,26.5c-0.206,1.426 -1.455,2.497 -2.917,2.5l-45.083,0c-0.042,0 -0.083,-0.001 -0.125,-0.003c-1.324,-0.062 -2.362,-1.222 -2.298,-2.569c0.001,-0.032 0.004,-0.063 0.006,-0.095c3.375,-37.167 30.375,-60 66.25,-65.208c31.125,-4.542 70.792,-2.708 92.542,18.333c13.361,12.889 20.125,28.681 20.292,47.375c0.611,69.972 0.764,109.764 0.458,119.375c-0.306,9.889 2.167,18.764 7.417,26.625c0.158,0.234 0.242,0.51 0.242,0.792c0,0.774 -0.634,1.412 -1.409,1.417l-50.958,0c-1.424,0 -2.724,-0.812 -3.333,-2.083c-2.556,-5 -3.986,-11.236 -4.292,-18.708Zm-2.708,-82.792c-24.056,7.194 -41.972,12.125 -53.75,14.792c-11.542,2.583 -24.542,11.208 -25.625,24.417c-1.375,16.958 6.917,26.625 23.375,29.167c23.333,3.625 52.75,-6.917 57.542,-32.875c0.833,-4.556 1.042,-15.861 0.625,-33.917c-0.004,-0.912 -0.755,-1.66 -1.667,-1.66c-0.17,0 -0.338,0.026 -0.5,0.077Z" style="fill-rule:nonzero;"/>
    <path d="M2049.875,169.75c0.25,-0.306 2.222,-3.236 5.917,-8.792c13.111,-19.583 31.917,-26.819 56.417,-21.708c0.823,0.176 1.416,0.909 1.417,1.75c0,0 0,45.125 0,45.125c0,1.12 -0.922,2.042 -2.042,2.042c-0.014,0 -0.028,-0 -0.042,-0c-51.75,-0.917 -63.042,26.958 -62.417,75.083c0.25,18.389 0.333,46.986 0.25,85.792c-0.022,0.898 -0.768,1.625 -1.667,1.625l-52.292,0c-1.303,0 -2.375,-1.072 -2.375,-2.375l0,-206.917c0,-0.869 0.715,-1.583 1.583,-1.583l50.792,0c1.166,0 2.125,0.94 2.125,2.083l0,27.083c-0,0.009 -0,0.019 -0,0.028c0,0.709 0.583,1.292 1.292,1.292c0.411,0 0.799,-0.196 1.042,-0.528Z" style="fill-rule:nonzero;"/>
    <path d="M372.75,401.931l0,47.806c0,2.836 -2.303,5.139 -5.139,5.139l-280.556,0c-2.836,0 -5.139,-2.303 -5.139,-5.139l0,-47.806c0,-2.836 2.303,-5.139 5.139,-5.139l280.556,0c2.836,0 5.139,2.303 5.139,5.139Z"/>
  </g>
</svg>
