<?xml version="1.0" encoding="UTF-8"?>
<svg width="512" height="512" viewBox="0 0 512 512" xmlns="http://www.w3.org/2000/svg">
      <defs>
        <linearGradient id="cardGrad" x1="0%" y1="0%" x2="100%" y2="100%">
          <stop offset="0%" stop-color="#ffffff" stop-opacity="1" />
          <stop offset="100%" stop-color="#f8fafc" stop-opacity="1" />
        </linearGradient>

        <filter id="mainShadow" x="-20%" y="-20%" width="140%" height="160%">
          <feGaussianBlur in="SourceAlpha" stdDeviation="15" />
          <feOffset dx="0" dy="20" result="offsetblur" />
          <feFlood flood-color="#6366f1" flood-opacity="0.15" result="colorblur" /> 
          <feComposite in="colorblur" in2="offsetblur" operator="in" result="shadow" />
          <feMerge>
            <feMergeNode in="shadow" />
            <feMergeNode in="SourceGraphic" />
          </feMerge>
        </filter>

        <pattern id="gridPattern" width="24" height="24" patternUnits="userSpaceOnUse">
          <circle cx="2" cy="2" r="0.5" fill="#cbd5e1" opacity="0.3" />
        </pattern>
      </defs>

      <!-- Main Card -->
      <rect 
        x="46" y="116" 
        width="420" height="280" 
        rx="24" 
        fill="url(#cardGrad)" 
        filter="url(#mainShadow)"
        stroke="#f1f5f9"
        stroke-width="1"
      />

      <!-- Subtle Dot Pattern -->
      <rect 
        x="46" y="116" 
        width="420" height="280" 
        rx="24" 
        fill="url(#gridPattern)" 
      />

      <!-- Graph Visual Element - Centered -->
      <g transform="translate(206, 166)">
        <!-- Connection Lines -->
        <line x1="12" y1="12" x2="50" y2="40" stroke="#6366f1" stroke-width="5" stroke-linecap="round" />
        <line x1="50" y1="40" x2="22" y2="72" stroke="#6366f1" stroke-width="5" stroke-linecap="round" opacity="0.4" />
        
        <!-- Nodes -->
        <circle cx="12" cy="12" r="7" fill="#6366f1" />
        <circle cx="50" cy="40" r="10" fill="#10b981" />
        <circle cx="22" cy="72" r="7" fill="#6366f1" />

        <!-- The "Lens" Overlay -->
        <!-- Using style attribute for maximum compatibility -->
        <circle cx="50" cy="40" r="26" style="fill:none; stroke:#10b981; stroke-width:6;" />
        <path d="M70,60 L86,76" style="fill:none; stroke:#10b981; stroke-width:8; stroke-linecap:round;" />
      </g>

      <!-- Typography Section - Centered below graph -->
      <g transform="translate(256, 286)">
        <!-- LangLens Title -->
        <!-- Manual offset for Title parts -->
        <g transform="translate(-148.76799999999997, 0)">
           <path d="M34.30 0L4.22 0L4.22-47.68L14.14-47.68L14.14-8.64L34.30-8.64L34.30 0ZM49.34 0.77L49.34 0.77Q45.57 0.77 42.82-0.45Q40.06-1.66 38.59-3.94Q37.12-6.21 37.12-9.34L37.12-9.34Q37.12-12.29 38.46-14.56Q39.81-16.83 42.59-18.37Q45.38-19.90 49.54-20.54L49.54-20.54L60.22-22.27L60.22-15.23L51.26-13.63Q49.22-13.25 48.13-12.32Q47.04-11.39 47.04-9.66L47.04-9.66Q47.04-8.06 48.26-7.17Q49.47-6.27 51.26-6.27L51.26-6.27Q53.63-6.27 55.42-7.30Q57.22-8.32 58.21-10.08Q59.20-11.84 59.20-13.95L59.20-13.95L59.20-23.04Q59.20-25.02 57.63-26.37Q56.06-27.71 53.38-27.71L53.38-27.71Q50.82-27.71 48.86-26.30Q46.91-24.90 46.02-22.59L46.02-22.59L38.34-26.24Q39.36-29.18 41.60-31.30Q43.84-33.41 46.98-34.56Q50.11-35.71 53.82-35.71L53.82-35.71Q58.24-35.71 61.63-34.11Q65.02-32.51 66.91-29.66Q68.80-26.82 68.80-23.04L68.80-23.04L68.80 0L59.84 0L59.84-5.63L62.02-6.02Q60.48-3.71 58.62-2.21Q56.77-0.70 54.46 0.03Q52.16 0.77 49.34 0.77ZM85.44 0L75.84 0L75.84-34.94L84.80-34.94L84.80-28.03L84.29-29.57Q85.50-32.70 88.22-34.21Q90.94-35.71 94.59-35.71L94.59-35.71Q98.56-35.71 101.54-34.05Q104.51-32.38 106.18-29.41Q107.84-26.43 107.84-22.46L107.84-22.46L107.84 0L98.24 0L98.24-20.42Q98.24-22.46 97.44-23.94Q96.64-25.41 95.20-26.24Q93.76-27.07 91.84-27.07L91.84-27.07Q89.98-27.07 88.51-26.24Q87.04-25.41 86.24-23.94Q85.44-22.46 85.44-20.42L85.44-20.42L85.44 0ZM131.33 14.08L131.33 14.08Q127.30 14.08 123.84 12.74Q120.38 11.39 117.92 8.99Q115.46 6.59 114.37 3.33L114.37 3.33L123.26 0.19Q123.97 2.62 126.14 4.03Q128.32 5.44 131.33 5.44L131.33 5.44Q133.70 5.44 135.42 4.58Q137.15 3.71 138.08 2.05Q139.01 0.38 139.01-1.86L139.01-1.86L139.01-9.86L140.86-7.55Q139.07-4.61 136.26-3.17Q133.44-1.73 129.66-1.73L129.66-1.73Q124.80-1.73 120.96-3.94Q117.12-6.14 114.94-10.02Q112.77-13.89 112.77-18.82L112.77-18.82Q112.77-23.74 114.94-27.55Q117.12-31.36 120.90-33.54Q124.67-35.71 129.47-35.71L129.47-35.71Q133.25-35.71 136.06-34.21Q138.88-32.70 140.86-29.63L140.86-29.63L139.65-27.33L139.65-34.94L148.61-34.94L148.61-1.86Q148.61 2.75 146.37 6.37Q144.13 9.98 140.26 12.03Q136.38 14.08 131.33 14.08ZM131.01-10.43L131.01-10.43Q133.44-10.43 135.23-11.46Q137.02-12.48 138.02-14.34Q139.01-16.19 139.01-18.69L139.01-18.69Q139.01-21.18 137.98-23.07Q136.96-24.96 135.17-26.02Q133.38-27.07 131.01-27.07L131.01-27.07Q128.58-27.07 126.69-26.02Q124.80-24.96 123.74-23.07Q122.69-21.18 122.69-18.69L122.69-18.69Q122.69-16.26 123.74-14.40Q124.80-12.54 126.69-11.49Q128.58-10.43 131.01-10.43Z" fill="#0f172a" />
           <path d="M186.43 0L156.35 0L156.35-47.68L166.27-47.68L166.27-8.64L186.43-8.64L186.43 0ZM207.49 0.77L207.49 0.77Q201.92 0.77 197.82-1.70Q193.73-4.16 191.49-8.32Q189.25-12.48 189.25-17.54L189.25-17.54Q189.25-22.78 191.58-26.88Q193.92-30.98 197.89-33.34Q201.86-35.71 206.85-35.71L206.85-35.71Q211.01-35.71 214.21-34.40Q217.41-33.09 219.62-30.72Q221.82-28.35 222.98-25.25Q224.13-22.14 224.13-18.50L224.13-18.50Q224.13-17.47 224.03-16.48Q223.94-15.49 223.68-14.78L223.68-14.78L197.50-14.78L197.50-21.82L218.24-21.82L213.70-18.50Q214.34-21.25 213.63-23.39Q212.93-25.54 211.17-26.78Q209.41-28.03 206.85-28.03L206.85-28.03Q204.35-28.03 202.56-26.82Q200.77-25.60 199.87-23.23Q198.98-20.86 199.17-17.47L199.17-17.47Q198.91-14.53 199.87-12.29Q200.83-10.05 202.82-8.80Q204.80-7.55 207.62-7.55L207.62-7.55Q210.18-7.55 212-8.58Q213.82-9.60 214.85-11.39L214.85-11.39L222.53-7.74Q221.50-5.18 219.30-3.26Q217.09-1.34 214.08-0.29Q211.07 0.77 207.49 0.77ZM239.36 0L229.76 0L229.76-34.94L238.72-34.94L238.72-28.03L238.21-29.57Q239.42-32.70 242.14-34.21Q244.86-35.71 248.51-35.71L248.51-35.71Q252.48-35.71 255.46-34.05Q258.43-32.38 260.10-29.41Q261.76-26.43 261.76-22.46L261.76-22.46L261.76 0L252.16 0L252.16-20.42Q252.16-22.46 251.36-23.94Q250.56-25.41 249.12-26.24Q247.68-27.07 245.76-27.07L245.76-27.07Q243.90-27.07 242.43-26.24Q240.96-25.41 240.16-23.94Q239.36-22.46 239.36-20.42L239.36-20.42L239.36 0ZM281.79 0.77L281.79 0.77Q276.03 0.77 271.78-1.95Q267.52-4.67 265.98-9.28L265.98-9.28L273.02-12.61Q274.37-9.79 276.67-8.19Q278.98-6.59 281.79-6.59L281.79-6.59Q283.84-6.59 284.93-7.42Q286.02-8.26 286.02-9.73L286.02-9.73Q286.02-10.50 285.63-11.04Q285.25-11.58 284.48-12.03Q283.71-12.48 282.56-12.80L282.56-12.80L276.61-14.46Q272.32-15.68 270.02-18.40Q267.71-21.12 267.71-24.83L267.71-24.83Q267.71-28.10 269.38-30.53Q271.04-32.96 274.05-34.34Q277.06-35.71 280.96-35.71L280.96-35.71Q286.08-35.71 289.95-33.31Q293.82-30.91 295.42-26.56L295.42-26.56L288.32-23.23Q287.55-25.41 285.54-26.72Q283.52-28.03 280.96-28.03L280.96-28.03Q279.10-28.03 278.05-27.26Q276.99-26.50 276.99-25.15L276.99-25.15Q276.99-24.45 277.38-23.87Q277.76-23.30 278.62-22.85Q279.49-22.40 280.77-22.02L280.77-22.02L286.34-20.35Q290.69-19.07 292.99-16.48Q295.30-13.89 295.30-10.11L295.30-10.11Q295.30-6.85 293.60-4.42Q291.90-1.98 288.90-0.61Q285.89 0.77 281.79 0.77Z" fill="#10b981" />
        </g>
        
        <!-- Subtitle -->
        <path d="M-77.15 40L-78.41 40L-78.41 31.97L-76.72 31.97L-74.49 38.46Q-74.52 38.11-74.56 37.63Q-74.60 37.15-74.62 36.65Q-74.65 36.15-74.65 35.78L-74.65 35.78L-74.65 31.97L-73.39 31.97L-73.39 40L-75.07 40L-77.29 33.51Q-77.26 33.83-77.23 34.28Q-77.20 34.73-77.18 35.20Q-77.15 35.68-77.15 36.07L-77.15 36.07L-77.15 40ZM-69.30 40.11L-69.30 40.11Q-70.07 40.11-70.64 39.82Q-71.20 39.53-71.51 38.99Q-71.81 38.46-71.81 37.73L-71.81 37.73L-71.81 34.24Q-71.81 33.51-71.51 32.98Q-71.20 32.44-70.64 32.15Q-70.07 31.86-69.30 31.86L-69.30 31.86Q-68.52 31.86-67.96 32.15Q-67.40 32.44-67.09 32.98Q-66.79 33.51-66.79 34.23L-66.79 34.23L-66.79 37.73Q-66.79 38.46-67.09 38.99Q-67.40 39.53-67.96 39.82Q-68.52 40.11-69.30 40.11ZM-69.30 38.90L-69.30 38.90Q-68.74 38.90-68.45 38.60Q-68.17 38.30-68.17 37.73L-68.17 37.73L-68.17 34.24Q-68.17 33.66-68.45 33.37Q-68.74 33.07-69.30 33.07L-69.30 33.07Q-69.86 33.07-70.15 33.37Q-70.43 33.66-70.43 34.24L-70.43 34.24L-70.43 37.73Q-70.43 38.30-70.14 38.60Q-69.85 38.90-69.30 38.90ZM-62.79 40L-65.17 40L-65.17 31.97L-62.79 31.97Q-61.97 31.97-61.37 32.28Q-60.77 32.59-60.44 33.15Q-60.11 33.71-60.11 34.48L-60.11 34.48L-60.11 37.48Q-60.11 38.24-60.44 38.81Q-60.77 39.37-61.37 39.69Q-61.97 40-62.79 40L-62.79 40ZM-63.80 33.23L-63.80 38.73L-62.79 38.73Q-62.19 38.73-61.84 38.40Q-61.49 38.06-61.49 37.48L-61.49 37.48L-61.49 34.48Q-61.49 33.91-61.84 33.57Q-62.19 33.23-62.79 33.23L-62.79 33.23L-63.80 33.23ZM-53.61 40L-58.43 40L-58.43 31.97L-53.61 31.97L-53.61 33.17L-57.08 33.17L-57.08 35.26L-54.00 35.26L-54.00 36.45L-57.08 36.45L-57.08 38.80L-53.61 38.80L-53.61 40ZM-47.74 37.01L-51.26 37.01L-51.26 35.73L-47.74 35.73L-47.74 37.01ZM-40.28 40L-45.07 40L-45.07 31.97L-43.69 31.97L-43.69 38.72L-40.28 38.72L-40.28 40ZM-33.81 40L-38.63 40L-38.63 31.97L-33.81 31.97L-33.81 33.17L-37.28 33.17L-37.28 35.26L-34.20 35.26L-34.20 36.45L-37.28 36.45L-37.28 38.80L-33.81 38.80L-33.81 40ZM-28.81 40L-30.59 40L-32.61 31.97L-31.18 31.97L-29.97 37.21Q-29.88 37.59-29.79 38.03Q-29.70 38.47-29.66 38.75L-29.66 38.75Q-29.61 38.47-29.53 38.03Q-29.46 37.59-29.37 37.20L-29.37 37.20L-28.17 31.97L-26.78 31.97L-28.81 40ZM-20.61 40L-25.43 40L-25.43 31.97L-20.61 31.97L-20.61 33.17L-24.08 33.17L-24.08 35.26L-21.00 35.26L-21.00 36.45L-24.08 36.45L-24.08 38.80L-20.61 38.80L-20.61 40ZM-13.88 40L-18.67 40L-18.67 31.97L-17.29 31.97L-17.29 38.72L-13.88 38.72L-13.88 40ZM-3.30 40.11L-3.30 40.11Q-4.07 40.11-4.64 39.82Q-5.20 39.53-5.51 38.99Q-5.81 38.46-5.81 37.73L-5.81 37.73L-5.81 34.24Q-5.81 33.51-5.51 32.98Q-5.20 32.44-4.64 32.15Q-4.07 31.86-3.30 31.86L-3.30 31.86Q-2.52 31.86-1.96 32.15Q-1.40 32.44-1.09 32.98Q-0.79 33.51-0.79 34.23L-0.79 34.23L-0.79 37.73Q-0.79 38.46-1.09 38.99Q-1.40 39.53-1.96 39.82Q-2.52 40.11-3.30 40.11ZM-3.30 38.90L-3.30 38.90Q-2.74 38.90-2.45 38.60Q-2.17 38.30-2.17 37.73L-2.17 37.73L-2.17 34.24Q-2.17 33.66-2.45 33.37Q-2.74 33.07-3.30 33.07L-3.30 33.07Q-3.86 33.07-4.15 33.37Q-4.43 33.66-4.43 34.24L-4.43 34.24L-4.43 37.73Q-4.43 38.30-4.14 38.60Q-3.85 38.90-3.30 38.90ZM3.43 40L0.85 40L0.85 31.97L3.31 31.97Q4.48 31.97 5.16 32.53Q5.84 33.08 5.84 34.04L5.84 34.04Q5.84 34.58 5.60 34.97Q5.36 35.37 4.94 35.59Q4.53 35.81 3.99 35.81L3.99 35.81L3.99 35.77Q4.58 35.75 5.03 35.98Q5.49 36.20 5.76 36.65Q6.03 37.09 6.03 37.71L6.03 37.71Q6.03 38.41 5.71 38.92Q5.39 39.44 4.81 39.72Q4.24 40 3.43 40L3.43 40ZM2.19 36.39L2.19 38.86L3.34 38.86Q3.95 38.86 4.30 38.53Q4.64 38.21 4.64 37.65L4.64 37.65Q4.64 37.09 4.30 36.74Q3.95 36.39 3.34 36.39L3.34 36.39L2.19 36.39ZM2.19 33.11L2.19 35.28L3.29 35.28Q3.84 35.28 4.15 34.99Q4.47 34.70 4.47 34.19L4.47 34.19Q4.47 33.69 4.15 33.40Q3.84 33.11 3.29 33.11L3.29 33.11L2.19 33.11ZM9.92 40.11L9.92 40.11Q9.10 40.11 8.49 39.84Q7.89 39.56 7.56 39.05Q7.24 38.54 7.23 37.84L7.23 37.84L8.60 37.84Q8.60 38.34 8.96 38.62Q9.32 38.90 9.93 38.90L9.93 38.90Q10.53 38.90 10.86 38.63Q11.20 38.35 11.20 37.87L11.20 37.87Q11.20 37.46 10.96 37.16Q10.73 36.85 10.29 36.74L10.29 36.74L9.36 36.49Q8.42 36.25 7.90 35.62Q7.39 34.99 7.39 34.10L7.39 34.10Q7.39 33.42 7.70 32.92Q8.01 32.41 8.57 32.13Q9.14 31.86 9.91 31.86L9.91 31.86Q11.08 31.86 11.76 32.46Q12.44 33.06 12.45 34.07L12.45 34.07L11.08 34.07Q11.08 33.60 10.77 33.33Q10.46 33.06 9.90 33.06L9.90 33.06Q9.36 33.06 9.06 33.31Q8.77 33.56 8.77 34.03L8.77 34.03Q8.77 34.45 8.99 34.74Q9.22 35.03 9.65 35.15L9.65 35.15L10.60 35.41Q11.56 35.66 12.07 36.28Q12.57 36.90 12.57 37.81L12.57 37.81Q12.57 38.49 12.24 39.02Q11.91 39.54 11.32 39.82Q10.73 40.11 9.92 40.11ZM18.99 40L14.17 40L14.17 31.97L18.99 31.97L18.99 33.17L15.52 33.17L15.52 35.26L18.60 35.26L18.60 36.45L15.52 36.45L15.52 38.80L18.99 38.80L18.99 40ZM22.01 40L20.64 40L20.64 31.97L23.18 31.97Q23.98 31.97 24.57 32.27Q25.16 32.56 25.49 33.10Q25.82 33.63 25.82 34.36L25.82 34.36Q25.82 35.15 25.42 35.75Q25.01 36.36 24.33 36.61L24.33 36.61L25.93 40L24.39 40L22.99 36.81L22.01 36.81L22.01 40ZM22.01 33.18L22.01 35.60L23.18 35.60Q23.76 35.60 24.09 35.28Q24.42 34.96 24.42 34.40L24.42 34.40Q24.42 33.83 24.09 33.50Q23.76 33.18 23.18 33.18L23.18 33.18L22.01 33.18ZM30.59 40L28.81 40L26.79 31.97L28.22 31.97L29.43 37.21Q29.52 37.59 29.61 38.03Q29.70 38.47 29.74 38.75L29.74 38.75Q29.79 38.47 29.87 38.03Q29.94 37.59 30.03 37.20L30.03 37.20L31.23 31.97L32.62 31.97L30.59 40ZM34.79 40L33.39 40L35.41 31.97L37.18 31.97L39.22 40L37.81 40L37.37 38.05L35.23 38.05L34.79 40ZM35.97 34.76L35.49 36.93L37.11 36.93L36.63 34.77Q36.51 34.24 36.42 33.80Q36.33 33.37 36.30 33.17L36.30 33.17Q36.27 33.37 36.18 33.80Q36.10 34.24 35.97 34.76L35.97 34.76ZM43.03 40L40.45 40L40.45 31.97L42.91 31.97Q44.08 31.97 44.76 32.53Q45.44 33.08 45.44 34.04L45.44 34.04Q45.44 34.58 45.20 34.97Q44.96 35.37 44.54 35.59Q44.13 35.81 43.59 35.81L43.59 35.81L43.59 35.77Q44.18 35.75 44.63 35.98Q45.09 36.20 45.36 36.65Q45.63 37.09 45.63 37.71L45.63 37.71Q45.63 38.41 45.31 38.92Q44.99 39.44 44.41 39.72Q43.84 40 43.03 40L43.03 40ZM41.79 36.39L41.79 38.86L42.94 38.86Q43.55 38.86 43.90 38.53Q44.24 38.21 44.24 37.65L44.24 37.65Q44.24 37.09 43.90 36.74Q43.55 36.39 42.94 36.39L42.94 36.39L41.79 36.39ZM41.79 33.11L41.79 35.28L42.89 35.28Q43.44 35.28 43.75 34.99Q44.07 34.70 44.07 34.19L44.07 34.19Q44.07 33.69 43.75 33.40Q43.44 33.11 42.89 33.11L42.89 33.11L41.79 33.11ZM51.81 40L47.19 40L47.19 38.79L48.81 38.79L48.81 33.18L47.19 33.18L47.19 31.97L51.81 31.97L51.81 33.18L50.19 33.18L50.19 38.79L51.81 38.79L51.81 40ZM58.72 40L53.93 40L53.93 31.97L55.31 31.97L55.31 38.72L58.72 38.72L58.72 40ZM65.01 40L60.39 40L60.39 38.79L62.01 38.79L62.01 33.18L60.39 33.18L60.39 31.97L65.01 31.97L65.01 33.18L63.39 33.18L63.39 38.79L65.01 38.79L65.01 40ZM69.99 40L68.61 40L68.61 33.25L66.51 33.25L66.51 31.97L72.09 31.97L72.09 33.25L69.99 33.25L69.99 40ZM76.59 40L75.21 40L75.21 37.09L72.85 31.97L74.29 31.97L75.55 34.75Q75.69 35.08 75.79 35.40Q75.89 35.72 75.92 35.90L75.92 35.90Q75.97 35.72 76.06 35.40Q76.15 35.08 76.30 34.75L76.30 34.75L77.52 31.97L78.95 31.97L76.59 37.09L76.59 40Z" fill="#6366f1" opacity="0.8" />
      </g>
    </svg>