<svg id="Layer_1" data-name="Layer 1" xmlns="http://www.w3.org/2000/svg" xmlns:xlink="http://www.w3.org/1999/xlink" viewBox="0 0 755.59 241.47"><defs><style>.cls-1{fill:url(#linear-gradient);}.cls-2{fill:url(#linear-gradient-2);}.cls-3{fill:url(#linear-gradient-3);}.cls-4{fill:url(#linear-gradient-4);}.cls-5{fill:url(#linear-gradient-5);}.cls-6{fill:url(#linear-gradient-6);}.cls-7{fill:url(#linear-gradient-7);}.cls-8{fill:url(#linear-gradient-8);}.cls-9{fill:url(#linear-gradient-9);}.cls-10{fill:url(#linear-gradient-10);}.cls-11{fill:#fff;}.cls-12{fill:url(#linear-gradient-14);}.cls-13{fill:url(#linear-gradient-18);}</style><linearGradient id="linear-gradient" x1="122.85" y1="8551.41" x2="-24.25" y2="8318.31" gradientTransform="matrix(1, 0, 0, -1, 0, 8482)" gradientUnits="userSpaceOnUse"><stop offset="0" stop-color="#29abe2"/><stop offset="1" stop-color="#1d30b8"/></linearGradient><linearGradient id="linear-gradient-2" x1="211.81" y1="8495.27" x2="64.71" y2="8262.17" xlink:href="#linear-gradient"/><linearGradient id="linear-gradient-3" x1="309.31" y1="8433.74" x2="162.2" y2="8200.64" xlink:href="#linear-gradient"/><linearGradient id="linear-gradient-4" x1="220.34" y1="8489.88" x2="73.24" y2="8256.78" xlink:href="#linear-gradient"/><linearGradient id="linear-gradient-5" x1="170.52" y1="8521.33" x2="23.41" y2="8288.23" gradientTransform="matrix(0.87, 0.5, 0.5, -0.87, -4147.11, 7353.25)" xlink:href="#linear-gradient"/><linearGradient id="linear-gradient-6" x1="118.28" y1="8554.29" x2="-28.82" y2="8321.19" gradientTransform="matrix(0.5, 0.87, 0.87, -0.5, -7274.47, 4244.3)" xlink:href="#linear-gradient"/><linearGradient id="linear-gradient-7" x1="163.85" y1="8525.54" x2="16.75" y2="8292.44" xlink:href="#linear-gradient"/><linearGradient id="linear-gradient-8" x1="216.08" y1="8492.57" x2="68.98" y2="8259.47" xlink:href="#linear-gradient"/><linearGradient id="linear-gradient-9" x1="244.28" y1="8457" x2="158.69" y2="8321.38" xlink:href="#linear-gradient"/><linearGradient id="linear-gradient-10" x1="270.76" y1="8361.38" x2="191.07" y2="8235.1" xlink:href="#linear-gradient"/><linearGradient id="linear-gradient-14" x1="82.18" y1="8478.23" x2="-5.58" y2="8339.17" xlink:href="#linear-gradient"/><linearGradient id="linear-gradient-18" x1="301.32" y1="-55.54" x2="127.1" y2="246.2" gradientTransform="matrix(1, 0, 0, 1, 0, 0)" xlink:href="#linear-gradient"/></defs><path class="cls-1" d="M85.76,11.63V.82A38.68,38.68,0,0,0,52.35,20.11l9.37,5.41A27.82,27.82,0,0,1,85.76,11.63Z"/><path class="cls-2" d="M180.15.82V11.63a27.85,27.85,0,0,1,24,13.89l9.37-5.41A38.71,38.71,0,0,0,180.15.82Z"/><path class="cls-3" d="M180.15,230.65v10.82a38.7,38.7,0,0,0,33.42-19.29l-9.37-5.41A27.83,27.83,0,0,1,180.15,230.65Z"/><path class="cls-4" d="M85.76,241.47V230.65a27.8,27.8,0,0,1-24-13.88l-9.37,5.41A38.69,38.69,0,0,0,85.76,241.47Z"/><rect class="cls-5" x="27.32" y="151.97" width="10.82" height="54.08" transform="translate(-85.12 40.35) rotate(-30)"/><rect class="cls-6" x="5.68" y="57.87" width="54.08" height="10.82" transform="translate(-38.44 59.98) rotate(-60)"/><rect class="cls-7" x="105.92" width="54.08" height="10.82"/><path class="cls-8" d="M200.94,179.93h0l-10.78,18.66a21.72,21.72,0,0,1-18.73,10.82H94.49a21.68,21.68,0,0,1-18.74-10.82L37.28,132a21.7,21.7,0,0,1,0-21.63L75.75,43.7A21.68,21.68,0,0,1,94.49,32.88h76.94A21.66,21.66,0,0,1,190.16,43.7l10.78,18.66h12.49l-13.9-24.07a32.53,32.53,0,0,0-28.1-16.23H94.49A32.55,32.55,0,0,0,66.38,38.29L27.91,104.92a32.58,32.58,0,0,0,0,32.45L66.38,204a32.55,32.55,0,0,0,28.11,16.23h76.94A32.53,32.53,0,0,0,199.53,204l13.9-24.07Z"/><polygon class="cls-9" points="238.91 62.36 224.35 37.15 214.98 42.56 226.41 62.36 238.91 62.36"/><polygon class="cls-10" points="226.41 179.93 214.98 199.72 224.35 205.13 238.9 179.93 226.41 179.93"/><path class="cls-11" d="M124.75,141.9a9.91,9.91,0,0,0-3.86-8.38q-3.84-2.93-13.86-6.16A99.26,99.26,0,0,1,91.17,121q-15.93-8.61-15.93-23.18A22.53,22.53,0,0,1,79.51,84.3,27.94,27.94,0,0,1,91.78,75a46.32,46.32,0,0,1,17.94-3.34,42,42,0,0,1,17.85,3.63,28.46,28.46,0,0,1,12.17,10.24,26.78,26.78,0,0,1,4.33,15H124.81q0-6.42-4-10T109.4,87q-7.07,0-11,3a9.42,9.42,0,0,0-3.92,7.86q0,4.56,4.59,7.64t13.52,5.78q16.44,5,24,12.27a24.4,24.4,0,0,1,7.51,18.23q0,12.14-9.18,19t-24.72,6.9a47.77,47.77,0,0,1-19.65-4A31.11,31.11,0,0,1,77,152.94,27.63,27.63,0,0,1,72.35,137H91.68q0,15.48,18.49,15.47,6.87,0,10.72-2.79A9.08,9.08,0,0,0,124.75,141.9Z"/><path class="cls-11" d="M155.76,79a9.18,9.18,0,0,1,2.79-6.88,12.06,12.06,0,0,1,15.19,0,9.83,9.83,0,0,1,0,13.81,11.89,11.89,0,0,1-15.09,0A9.08,9.08,0,0,1,155.76,79Zm19.71,87.45H156.85V97h18.62Z"/><path class="cls-11" d="M208.15,97l.58,7.77q7.38-9,20-9,13.43,0,18.43,10.59Q254.45,95.67,268,95.67q11.29,0,16.82,6.58t5.52,19.81v44.37H271.72V122.12q0-5.9-2.31-8.63t-8.16-2.73q-8.34,0-11.55,8l.06,47.71H231.2V122.19q0-6-2.37-8.74c-1.59-1.79-4.28-2.69-8.09-2.69q-7.91,0-11.43,6.55v49.12H190.75V97Z"/><path class="cls-11" d="M367.13,132.33q0,16-7.28,25.72t-19.68,9.66q-10.53,0-17-7.32v32.75H304.59V97H321.8l.64,6.81A21.84,21.84,0,0,1,340,95.67q12.84,0,20,9.5t7.12,26.2ZM348.58,131q0-9.69-3.44-15a11.2,11.2,0,0,0-10-5.26q-8.73,0-12,6.68v28.44q3.41,6.87,12.14,6.87Q348.59,152.75,348.58,131Z"/><path class="cls-11" d="M398.21,166.43H379.59V67.8h18.62Z"/><path class="cls-11" d="M439.43,140.17,452.27,97h19.91l-27.93,80.26-1.54,3.66q-6.24,13.62-20.55,13.62a29,29,0,0,1-8.22-1.22V179.2l2.83.07q5.26,0,7.86-1.61a10.49,10.49,0,0,0,4.08-5.33l2.18-5.71L406.56,97h20Z"/><path class="cls-11" d="M500,133.49v32.94H480.72V72.94h36.47a42.08,42.08,0,0,1,18.52,3.85A28.45,28.45,0,0,1,548,87.74a30.48,30.48,0,0,1,4.3,16.15q0,13.74-9.41,21.67t-26,7.93Zm0-15.6h17.21q7.63,0,11.65-3.6t4-10.27q0-6.87-4.05-11.11t-11.17-4.37H500Z"/><path class="cls-11" d="M603.36,114.35a49.69,49.69,0,0,0-6.68-.51q-10.53,0-13.81,7.13v45.46H564.32V97h17.53l.51,8.29q5.6-9.57,15.48-9.57a19.79,19.79,0,0,1,5.77.83Z"/><path class="cls-11" d="M612.15,79A9.12,9.12,0,0,1,615,72.1a12,12,0,0,1,15.18,0,9.81,9.81,0,0,1,0,13.81,11.89,11.89,0,0,1-15.09,0A9.11,9.11,0,0,1,612.15,79Zm19.72,87.45H613.25V97h18.62Z"/><path class="cls-11" d="M664.23,97l.57,8q7.46-9.31,20-9.31,11,0,16.44,6.48t5.52,19.4v44.88H688.18V122c0-3.93-.86-6.78-2.57-8.57s-4.56-2.67-8.54-2.66a12.76,12.76,0,0,0-11.75,6.68v49H646.76V97Z"/><path class="cls-11" d="M743,79.87V97h11.88v13.61H743v34.68q0,3.86,1.48,5.52t5.65,1.67a29.38,29.38,0,0,0,5.46-.45v14a38.54,38.54,0,0,1-11.24,1.67q-19.51,0-19.91-19.71v-37.4H714.31V97h10.14V79.87Z"/><path class="cls-2" d="M180.15.82V11.63a27.85,27.85,0,0,1,24,13.89l9.37-5.41A38.71,38.71,0,0,0,180.15.82Z"/><path class="cls-3" d="M180.15,230.65v10.82a38.7,38.7,0,0,0,33.42-19.29l-9.37-5.41A27.83,27.83,0,0,1,180.15,230.65Z"/><path class="cls-4" d="M85.76,241.47V230.65a27.8,27.8,0,0,1-24-13.88l-9.37,5.41A38.69,38.69,0,0,0,85.76,241.47Z"/><path class="cls-12" d="M5.15,140.44,14.52,135a27.87,27.87,0,0,1,0-27.77l-9.37-5.41A37.66,37.66,0,0,0,0,121.14,39,39,0,0,0,5.15,140.44Z"/><path class="cls-1" d="M85.76,11.63V.82A38.68,38.68,0,0,0,52.35,20.11l9.37,5.41A27.82,27.82,0,0,1,85.76,11.63Z"/><rect class="cls-5" x="27.32" y="151.97" width="10.82" height="54.08" transform="translate(-85.12 40.35) rotate(-30)"/><rect class="cls-6" x="5.68" y="57.87" width="54.08" height="10.82" transform="translate(-38.44 59.98) rotate(-60)"/><rect class="cls-13" x="105.92" y="230.65" width="54.08" height="10.82"/><script xmlns=""/></svg>