<svg width="51" height="51" viewBox="0 0 51 51" fill="none" xmlns="http://www.w3.org/2000/svg">
<rect x="0.614319" y="1.29932" width="49" height="49" fill="white" stroke="black"/>
<mask id="path-2-inside-1_108_538" fill="white">
<path d="M26.5861 15.7529L40.6105 24.0039L40.6105 26.3984L26.5861 36.249L26.5861 15.7529Z"/>
</mask>
<path d="M26.5861 15.7529L40.6105 24.0039L40.6105 26.3984L26.5861 36.249L26.5861 15.7529Z" fill="#2FAA96"/>
<path d="M26.5861 15.7529L27.0931 14.891L25.5861 14.0044L25.5861 15.7529L26.5861 15.7529ZM40.6105 24.0039L41.6105 24.0039L41.6105 23.432L41.1176 23.142L40.6105 24.0039ZM40.6105 26.3984L41.1852 27.2168L41.6105 26.9181L41.6105 26.3984L40.6105 26.3984ZM26.5861 36.249L25.5861 36.249L25.5861 38.1734L27.1608 37.0673L26.5861 36.249ZM26.5861 15.7529L26.079 16.6148L40.1034 24.8658L40.6105 24.0039L41.1176 23.142L27.0931 14.891L26.5861 15.7529ZM40.6105 24.0039L39.6105 24.0039L39.6105 26.3984L40.6105 26.3984L41.6105 26.3984L41.6105 24.0039L40.6105 24.0039ZM40.6105 26.3984L40.0357 25.5801L26.0113 35.4307L26.5861 36.249L27.1608 37.0673L41.1852 27.2168L40.6105 26.3984ZM26.5861 36.249L27.5861 36.249L27.5861 15.7529L26.5861 15.7529L25.5861 15.7529L25.5861 36.249L26.5861 36.249Z" fill="black" mask="url(#path-2-inside-1_108_538)"/>
<path d="M8.53575 25.8035L0.755843 25.7653" stroke="black"/>
<path d="M49.8093 25.2438L40.5974 25.2254" stroke="black"/>
<rect x="23.4445" y="16.2534" width="1.20235" height="19.4956" fill="#2FAA96" stroke="black"/>
<rect x="20.2877" y="16.2534" width="1.20235" height="19.4956" fill="#2FAA96" stroke="black"/>
<rect x="17.1309" y="16.2534" width="1.20235" height="19.4956" fill="#2FAA96" stroke="black"/>
<rect x="13.6937" y="16.2534" width="1.20235" height="19.4956" fill="#2FAA96" stroke="black"/>
<rect x="10.2568" y="16.252" width="1.20235" height="19.4956" fill="#2FAA96" stroke="black"/>
</svg>
