<svg width="51" height="51" viewBox="0 0 51 51" fill="none" xmlns="http://www.w3.org/2000/svg">
<rect x="1.14056" y="0.529785" width="49" height="49" fill="white" stroke="black"/>
<path d="M11.2317 35.4844H1.30374" stroke="black"/>
<path d="M49.9726 13.9639L41.8202 13.9639" stroke="black"/>
<path d="M41.8203 16.3819C36.4275 16.3819 33.9452 17.6004 32.5275 19.017C31.3676 20.176 30.6963 21.6315 29.9051 23.6384L29.0507 25.8386C28.2702 27.8362 27.3659 31.2507 24.8135 33.7558C22.1516 36.3684 18.0361 37.8324 11.2835 37.8324V32.7142C17.5468 32.7142 20.3309 31.3368 21.7805 29.9142C23.3393 28.3842 23.7579 26.5696 24.8422 23.7943L25.2403 22.7567C26.1859 20.2682 27.2922 17.3747 29.4631 15.2053C32.0729 12.5973 35.8772 11.2637 41.8203 11.2637V16.3819Z" fill="#2FAA96" stroke="black"/>
</svg>
