<svg width="51" height="51" viewBox="0 0 51 51" fill="none" xmlns="http://www.w3.org/2000/svg">
<rect x="1.47675" y="1.39258" width="49" height="49" fill="white" stroke="black"/>
<path d="M7.53673 25.9027L1.36898 25.9223" stroke="black"/>
<path d="M50.6924 25.9478H45.5924" stroke="black"/>
<mask id="path-4-inside-1_108_534" fill="white">
<path d="M46.2522 30.2227H30.924V30.1768L15.9953 27.8711V23.2607L30.924 20.5996V20.5479H46.2522V30.2227Z"/>
</mask>
<path d="M46.2522 30.2227H30.924V30.1768L15.9953 27.8711V23.2607L30.924 20.5996V20.5479H46.2522V30.2227Z" fill="#2FAA96"/>
<path d="M46.2522 30.2227V31.2227H47.2522V30.2227H46.2522ZM30.924 30.2227H29.924V31.2227H30.924V30.2227ZM30.924 30.1768H31.924V29.3193L31.0767 29.1885L30.924 30.1768ZM15.9953 27.8711H14.9953V28.7285L15.8427 28.8594L15.9953 27.8711ZM15.9953 23.2607L15.8198 22.2763L14.9953 22.4232V23.2607H15.9953ZM30.924 20.5996L31.0995 21.5841L31.924 21.4371V20.5996H30.924ZM30.924 20.5479V19.5479H29.924V20.5479H30.924ZM46.2522 20.5479H47.2522V19.5479H46.2522V20.5479ZM46.2522 30.2227V29.2227H30.924V30.2227V31.2227H46.2522V30.2227ZM30.924 30.2227H31.924V30.1768H30.924H29.924V30.2227H30.924ZM30.924 30.1768L31.0767 29.1885L16.148 26.8828L15.9953 27.8711L15.8427 28.8594L30.7714 31.165L30.924 30.1768ZM15.9953 27.8711H16.9953V23.2607H15.9953H14.9953V27.8711H15.9953ZM15.9953 23.2607L16.1708 24.2452L31.0995 21.5841L30.924 20.5996L30.7486 19.6151L15.8198 22.2763L15.9953 23.2607ZM30.924 20.5996H31.924V20.5479H30.924H29.924V20.5996H30.924ZM30.924 20.5479V21.5479H46.2522V20.5479V19.5479H30.924V20.5479ZM46.2522 20.5479H45.2522V30.2227H46.2522H47.2522V20.5479H46.2522Z" fill="black" mask="url(#path-4-inside-1_108_534)"/>
<mask id="path-6-inside-2_108_534" fill="white">
<path d="M6.67816 21.7729L18.9477 21.7729L18.9477 21.813L30.8969 23.8267L30.8969 27.853L18.9477 30.1772L18.9477 30.2231L6.67816 30.2231L6.67816 21.7729Z"/>
</mask>
<path d="M6.67816 21.7729L18.9477 21.7729L18.9477 21.813L30.8969 23.8267L30.8969 27.853L18.9477 30.1772L18.9477 30.2231L6.67816 30.2231L6.67816 21.7729Z" fill="#2FAA96" fill-opacity="0.82"/>
<path d="M6.67816 21.7729L6.67816 20.7729L5.67816 20.7729L5.67816 21.7729L6.67816 21.7729ZM18.9477 21.7729L19.9477 21.7729L19.9477 20.7729L18.9477 20.7729L18.9477 21.7729ZM18.9477 21.813L17.9477 21.813L17.9477 22.6586L18.7815 22.7991L18.9477 21.813ZM30.8969 23.8267L31.8969 23.8267L31.8969 22.9811L31.0631 22.8406L30.8969 23.8267ZM30.8969 27.853L31.0878 28.8346L31.8969 28.6773L31.8969 27.853L30.8969 27.853ZM18.9477 30.1772L18.7568 29.1956L17.9477 29.353L17.9477 30.1772L18.9477 30.1772ZM18.9477 30.2231L18.9477 31.2231L19.9477 31.2231L19.9477 30.2231L18.9477 30.2231ZM6.67816 30.2231L5.67816 30.2231L5.67816 31.2231L6.67816 31.2231L6.67816 30.2231ZM6.67816 21.7729L6.67816 22.7729L18.9477 22.7729L18.9477 21.7729L18.9477 20.7729L6.67816 20.7729L6.67816 21.7729ZM18.9477 21.7729L17.9477 21.7729L17.9477 21.813L18.9477 21.813L19.9477 21.813L19.9477 21.7729L18.9477 21.7729ZM18.9477 21.813L18.7815 22.7991L30.7307 24.8128L30.8969 23.8267L31.0631 22.8406L19.1139 20.8269L18.9477 21.813ZM30.8969 23.8267L29.8969 23.8267L29.8969 27.853L30.8969 27.853L31.8969 27.853L31.8969 23.8267L30.8969 23.8267ZM30.8969 27.853L30.706 26.8714L18.7568 29.1956L18.9477 30.1772L19.1386 31.1588L31.0878 28.8346L30.8969 27.853ZM18.9477 30.1772L17.9477 30.1772L17.9477 30.2231L18.9477 30.2231L19.9477 30.2231L19.9477 30.1772L18.9477 30.1772ZM18.9477 30.2231L18.9477 29.2231L6.67816 29.2231L6.67816 30.2231L6.67816 31.2231L18.9477 31.2231L18.9477 30.2231ZM6.67816 30.2231L7.67816 30.2231L7.67816 21.7729L6.67816 21.7729L5.67816 21.7729L5.67816 30.2231L6.67816 30.2231Z" fill="black" mask="url(#path-6-inside-2_108_534)"/>
<mask id="path-8-inside-3_108_534" fill="white">
<path d="M6.67816 21.7729L18.9477 21.7729L18.9477 21.813L30.8969 23.8267L30.8969 27.853L18.9477 30.1772L18.9477 30.2231L6.67816 30.2231L6.67816 21.7729Z"/>
</mask>
<path d="M6.67816 21.7729L18.9477 21.7729L18.9477 21.813L30.8969 23.8267L30.8969 27.853L18.9477 30.1772L18.9477 30.2231L6.67816 30.2231L6.67816 21.7729Z" fill="#2FAA96" fill-opacity="0.82"/>
<path d="M6.67816 21.7729L6.67816 20.7729L5.67816 20.7729L5.67816 21.7729L6.67816 21.7729ZM18.9477 21.7729L19.9477 21.7729L19.9477 20.7729L18.9477 20.7729L18.9477 21.7729ZM18.9477 21.813L17.9477 21.813L17.9477 22.6586L18.7815 22.7991L18.9477 21.813ZM30.8969 23.8267L31.8969 23.8267L31.8969 22.9811L31.0631 22.8406L30.8969 23.8267ZM30.8969 27.853L31.0878 28.8346L31.8969 28.6773L31.8969 27.853L30.8969 27.853ZM18.9477 30.1772L18.7568 29.1956L17.9477 29.353L17.9477 30.1772L18.9477 30.1772ZM18.9477 30.2231L18.9477 31.2231L19.9477 31.2231L19.9477 30.2231L18.9477 30.2231ZM6.67816 30.2231L5.67816 30.2231L5.67816 31.2231L6.67816 31.2231L6.67816 30.2231ZM6.67816 21.7729L6.67816 22.7729L18.9477 22.7729L18.9477 21.7729L18.9477 20.7729L6.67816 20.7729L6.67816 21.7729ZM18.9477 21.7729L17.9477 21.7729L17.9477 21.813L18.9477 21.813L19.9477 21.813L19.9477 21.7729L18.9477 21.7729ZM18.9477 21.813L18.7815 22.7991L30.7307 24.8128L30.8969 23.8267L31.0631 22.8406L19.1139 20.8269L18.9477 21.813ZM30.8969 23.8267L29.8969 23.8267L29.8969 27.853L30.8969 27.853L31.8969 27.853L31.8969 23.8267L30.8969 23.8267ZM30.8969 27.853L30.706 26.8714L18.7568 29.1956L18.9477 30.1772L19.1386 31.1588L31.0878 28.8346L30.8969 27.853ZM18.9477 30.1772L17.9477 30.1772L17.9477 30.2231L18.9477 30.2231L19.9477 30.2231L19.9477 30.1772L18.9477 30.1772ZM18.9477 30.2231L18.9477 29.2231L6.67816 29.2231L6.67816 30.2231L6.67816 31.2231L18.9477 31.2231L18.9477 30.2231ZM6.67816 30.2231L7.67816 30.2231L7.67816 21.7729L6.67816 21.7729L5.67816 21.7729L5.67816 30.2231L6.67816 30.2231Z" fill="black" mask="url(#path-8-inside-3_108_534)"/>
</svg>
