<?xml version="1.0" encoding="UTF-8"?>
<svg id="Colo" xmlns="http://www.w3.org/2000/svg" viewBox="0 0 128 128">
  <rect id="Color_Background" width="128" height="128" rx="16" ry="16" fill="#1ca0c9"/>
  <g id="RGBWheel">
    <g id="Wheel">
      <path d="m63.89,23.16c-11.38,0-21.68,4.61-29.13,12.07l29.13,29.13V23.16Z" fill="#fec902"/>
      <path d="m93.03,35.22c-7.46-7.45-17.75-12.07-29.13-12.07v41.19l29.13-29.13Z" fill="#8cbe23"/>
      <path d="m34.76,93.48c7.46,7.45,17.75,12.07,29.13,12.07v-41.19l-29.13,29.13Z" fill="#c6077e"/>
      <path d="m63.89,105.54c11.38,0,21.68-4.61,29.13-12.07l-29.13-29.13v41.19Z" fill="#562f88"/>
      <path d="m34.76,35.22c-7.46,7.45-12.07,17.75-12.07,29.13h41.2l-29.13-29.13Z" fill="#ec641b"/>
      <path d="m22.7,64.35c0,11.38,4.61,21.67,12.07,29.13l29.13-29.13H22.7Z" fill="#e52320"/>
      <path d="m105.09,64.35c0-11.38-4.61-21.67-12.07-29.13l-29.13,29.13h41.2Z" fill="#049cb5"/>
      <path d="m63.89,64.35l29.13,29.13c7.46-7.45,12.07-17.75,12.07-29.13h-41.2Z" fill="#195da9"/>
    </g>
    <circle id="Color_Inside" cx="63.78" cy="64.35" r="20.62" fill="#19a8e0"/>
    <g id="CircleStroke">
      <ellipse cx="63.78" cy="64.35" rx="41.2" ry="41.19" fill="none" stroke="#e0e0e0" stroke-dasharray="0 0 9.24 9.24" stroke-linecap="round" stroke-linejoin="round" stroke-width="2.84"/>
    </g>
  </g>
</svg>