<?xml version="1.0" encoding="UTF-8"?>
<svg id="Compositing" xmlns="http://www.w3.org/2000/svg" viewBox="0 0 128 128">
  <rect id="Color_Background" width="128" height="128" rx="16" ry="16" fill="#7d6ce0"/>
  <g id="Spheres">
    <g id="Lighting">
      <circle id="Color_SphereLight" cx="46.78" cy="83.82" r="28.68" fill="#d2553d" stroke="#d4d5d6" stroke-linecap="round" stroke-linejoin="round" stroke-width=".88"/>
      <path id="Color_ShadowLight" d="m26.5,63.54c-4.94,6.6-8.76,10.74-8.37,21.32.58,15.82,13.87,28.18,29.69,27.6,9.16-.33,11.17-1.73,19.23-8.37,0,0-18.01,5.45-32.91-7.31-12.96-11.1-7.64-33.24-7.64-33.24" fill="#8e2f23"/>
      <circle id="StrokeLight" cx="46.78" cy="83.82" r="28.68" fill="none" stroke="#d4d5d6" stroke-linecap="round" stroke-linejoin="round" stroke-width="2.5"/>
    </g>
    <g id="Shading">
      <circle id="Color_BaseShading" cx="66.08" cy="64.87" r="28.91" fill="#0a597c"/>
      <g id="Color_ShapesShading" fill="#2287c4">
        <path d="m36.97,63.82c-.01.35-.02.7-.02,1.05,0,15.97,12.94,28.91,28.91,28.91,0,0-8.58-3.92-10.7-20.72h0c-17.88-1.75-18.21-9.24-18.21-9.24"/>
        <path d="m94.77,65.19s-2.57,7.84-30,8.22c-3.67.05-6.85-.08-9.62-.35h0c-.3-2.37-.47-4.99-.47-7.9,0-21.56,11.17-29.2,11.17-29.2,15.97,0,28.91,12.94,28.91,28.91,0,.1,0,.2,0,.3"/>
      </g>
      <circle id="StrokeShading" cx="66.08" cy="64.87" r="28.91" fill="none" stroke="#d4d5d6" stroke-linecap="round" stroke-linejoin="round" stroke-width="2.5"/>
    </g>
    <g id="Comp">
      <circle id="Color_SphereComp" cx="85.16" cy="45.44" r="28.68" fill="#7d6ce0" stroke="#d4d5d6" stroke-linecap="round" stroke-linejoin="round" stroke-width="2.5"/>
      <circle id="ShinyComp" cx="94.77" cy="31.25" r="3.94" fill="#fff"/>
    </g>
  </g>
</svg>