<?xml version="1.0" encoding="UTF-8"?>
<svg id="Design" xmlns="http://www.w3.org/2000/svg" viewBox="0 0 128 128">
  <rect id="Color" width="128" height="128" rx="16" ry="16" fill="#595c7d"/>
  <g id="Circle">
    <g id="Color-2" stroke="#9193c8">
      <path d="m95.09,98.88c2.5-2.44,4.79-5.61,6.02-7.65,4.11-6.8,6.53-14.1,6.79-22.13.26-8-1.14-15.59-5.06-22.57-6.32-11.27-15.6-18.82-28.42-21.49-14.9-3.1-27.92.94-38.8,11.33-6.66,6.37-10.71,14.37-11.99,23.61-1.96,14.15,1.46,26.7,11.76,36.87,7.17,7.08,16.07,10.95,26.02,12.14,4.4.53,8.86.6,13.25-.55" fill="none" stroke-linecap="round" stroke-linejoin="round" stroke-width="2.59"/>
      <path d="m19,90.75c6.68,11.01,16.34,17.61,28.97,20.31,8.93,1.91,17.77,1.68,26.19-1.24,8.25-2.86,16.35-6.47,22.83-12.79,1.23-1.2,3.07-2.81,4.23-4.09,2.39-2.61,6.41-7.51,8.07-10.21" fill="none" stroke-linecap="round" stroke-linejoin="round" stroke-width="2.59"/>
      <path d="m63.76,15.4c-8.03,2.27-15.03,6.49-21.23,11.92-3.46,3.02-6.35,6.69-9.44,10.13-.39.43-5.39,7.51-5.57,8.13" fill="none" stroke-linecap="round" stroke-linejoin="round" stroke-width="2.59"/>
      <path d="m105.78,61.05c-5.37-12.48-14.6-20.91-27.41-25.14-7.02-2.32-14.34-2.51-21.59-.56" fill="none" stroke-linecap="round" stroke-linejoin="round" stroke-width="2.59"/>
    </g>
    <circle id="CircleMain" cx="65.52" cy="66.69" r="40.68" fill="none" stroke="#d4d5d6" stroke-linecap="round" stroke-linejoin="round" stroke-width="2.59"/>
  </g>
</svg>