<?xml version="1.0" encoding="UTF-8"?>
<svg id="Lighting" xmlns="http://www.w3.org/2000/svg" viewBox="0 0 128 128">
  <rect id="Color_Background" width="128" height="128" rx="16" ry="16" fill="#d2553d"/>
  <g id="Sphere">
    <circle id="Shiny" cx="88.18" cy="45.76" r="3.94" fill="#fff"/>
    <path id="Color_ShadowInt" d="m54.69,32.41c-9.89,6.24-16.28,17.42-15.82,29.95.68,18.73,16.42,33.35,35.14,32.67,10.84-.4,20.3-5.83,26.22-13.97,0,0-18.4,2.72-36.03-12.39-15.33-13.14-9.51-36.26-9.51-36.26" fill="#8e2f23"/>
    <path id="Color_ShadowExt" d="m40.82,72.56c4.85,13.55,18.04,23.02,33.19,22.46,7.03-.26,13.48-2.63,18.77-6.5,0,0,2.27,5.68-8.43,11.18-10.7,5.49-67.09,8.23-70.63-11.77-2.53-14.29,27.11-15.38,27.11-15.38" fill="#8e2f23"/>
    <circle id="Stroke" cx="72.77" cy="61.12" r="33.93" fill="none" stroke="#d4d5d6" stroke-linecap="round" stroke-linejoin="round" stroke-width="2.5"/>
  </g>
</svg>