<?xml version="1.0" encoding="UTF-8"?>
<svg id="Modeling" xmlns="http://www.w3.org/2000/svg" viewBox="0 0 128 128">
  <rect id="Color_Background" width="128" height="128" rx="16" ry="16" fill="#497488"/>
  <g id="Circle">
    <g id="Color_Mesh" stroke="#6ea6ba">
      <polygon points="25.46 50.07 63.79 22.77 80.75 36.42 102.29 49.73 92.11 70.68 62.77 91.29 34.45 70.68 25.46 50.07" fill="none" stroke-linecap="round" stroke-linejoin="round" stroke-width="2.62"/>
      <polyline points="63.79 106.04 62.77 91.29 62.77 59.4 80.75 36.42 92.11 70.68" fill="none" stroke-linecap="round" stroke-linejoin="round" stroke-width="2.62"/>
      <polyline points="24.27 76.53 34.45 70.68 44.62 36.42 62.77 59.4 92.11 70.68 87.87 96.37 62.77 91.29 39.2 95.86 34.45 70.68 62.77 59.4" fill="none" stroke-linecap="round" stroke-linejoin="round" stroke-width="2.62"/>
      <line x1="104.32" y1="76.87" x2="92.11" y2="70.68" fill="none" stroke-linecap="round" stroke-linejoin="round" stroke-width="2.62"/>
      <line x1="80.75" y1="36.42" x2="44.62" y2="36.42" fill="none" stroke-linecap="round" stroke-linejoin="round" stroke-width="2.62"/>
    </g>
    <polygon id="CircleMain" points="63.79 22.77 40.38 30.57 25.46 50.07 24.27 76.53 39.2 95.86 63.79 106.04 87.87 96.37 104.32 76.87 102.29 49.73 88.38 30.23 63.79 22.77" fill="none" stroke="#d4d5d6" stroke-linecap="round" stroke-linejoin="round" stroke-width="2.62"/>
  </g>
</svg>