<?xml version="1.0" encoding="UTF-8"?>
<svg id="Shading" xmlns="http://www.w3.org/2000/svg" viewBox="0 0 128 128">
  <rect id="Color_Background" width="128" height="128" rx="16" ry="16" fill="#0d5b5b"/>
  <g id="Sphere">
    <g id="Color_Shapes" fill="#389391">
      <path d="m23.09,62.19c-.02.5-.03.99-.03,1.49,0,22.74,18.43,41.17,41.17,41.17,0,0-12.22-5.58-15.24-29.51h0c-25.46-2.5-25.93-13.16-25.93-13.16"/>
      <path d="m105.41,64.14s-3.65,11.17-42.72,11.71c-5.22.07-9.76-.12-13.7-.5h0c-.43-3.37-.67-7.11-.67-11.25,0-30.7,15.91-41.59,15.91-41.59,22.74,0,41.17,18.43,41.17,41.17,0,.14,0,.29,0,.43"/>
    </g>
    <circle id="CircleMain" cx="64.55" cy="63.68" r="41.17" fill="none" stroke="#d4d5d6" stroke-linecap="round" stroke-linejoin="round" stroke-width="2.62"/>
  </g>
</svg>