<svg id="Capa_1" data-name="Capa 1" xmlns="http://www.w3.org/2000/svg" xmlns:xlink="http://www.w3.org/1999/xlink" viewBox="0 0 400 400"><defs><style>.cls-1{fill:url(#Degradado_sin_nombre_14);}</style><linearGradient id="Degradado_sin_nombre_14" x1="54.37" y1="200" x2="345.63" y2="200" gradientUnits="userSpaceOnUse"><stop offset="0" stop-color="#a92f7a"/><stop offset="1" stop-color="#f1a509"/></linearGradient></defs><title>Nuevo_logo_cert</title><path class="cls-1" d="M204.71,334.47q-48.17-.86-82.35-17.8T70.64,269.08q-17.53-30.66-16.18-71.86t21.57-71Q96.24,96.46,132,80.57t83.44-15q44,.8,76.1,17.7c21.41,11.27,43,100.59,54.11,119.2l-58.12-1c-6.45-10.75-28.13-73.16-39.71-77.91A100,100,0,0,0,211.44,116a78.74,78.74,0,0,0-39.23,9.22,72.26,72.26,0,0,0-28.73,28.27q-10.81,18.66-11.68,45.1-1.34,40.8,20.41,62.78T206.84,284a115.92,115.92,0,0,0,36.56-5.57c12.64-3.92,36.64-66,44.11-77l25.73.46,32.39.58c-12.95,18.17-39.31,107-62.35,117.31S234,335,204.71,334.47Z"/></svg>