<?xml version="1.0" encoding="UTF-8" standalone="no"?>
<!-- Created with Inkscape (http://www.inkscape.org/) -->

<svg
   xmlns:dc="http://purl.org/dc/elements/1.1/"
   xmlns:cc="http://creativecommons.org/ns#"
   xmlns:rdf="http://www.w3.org/1999/02/22-rdf-syntax-ns#"
   xmlns:svg="http://www.w3.org/2000/svg"
   xmlns="http://www.w3.org/2000/svg"
   xmlns:sodipodi="http://sodipodi.sourceforge.net/DTD/sodipodi-0.dtd"
   xmlns:inkscape="http://www.inkscape.org/namespaces/inkscape"
   width="48"
   height="48"
   viewBox="0 0 12.7 12.7"
   version="1.1"
   id="svg8"
   inkscape:version="0.92.4 (5da689c313, 2019-01-14)"
   sodipodi:docname="image_key_upgrader.svg"
   inkscape:export-filename="/home/payno/dev/tomo/tomwer/orangecontrib/tomwer/widgets/control/icons/image_key_upgrader.png"
   inkscape:export-xdpi="59.900002"
   inkscape:export-ydpi="59.900002">
  <defs
     id="defs2" />
  <sodipodi:namedview
     id="base"
     pagecolor="#ffffff"
     bordercolor="#666666"
     borderopacity="1.0"
     inkscape:pageopacity="0.0"
     inkscape:pageshadow="2"
     inkscape:zoom="5.6"
     inkscape:cx="-8.8590768"
     inkscape:cy="47.083664"
     inkscape:document-units="mm"
     inkscape:current-layer="layer1"
     showgrid="false"
     units="px"
     inkscape:window-width="1920"
     inkscape:window-height="1016"
     inkscape:window-x="0"
     inkscape:window-y="27"
     inkscape:window-maximized="1" />
  <metadata
     id="metadata5">
    <rdf:RDF>
      <cc:Work
         rdf:about="">
        <dc:format>image/svg+xml</dc:format>
        <dc:type
           rdf:resource="http://purl.org/dc/dcmitype/StillImage" />
        <dc:title></dc:title>
      </cc:Work>
    </rdf:RDF>
  </metadata>
  <g
     inkscape:label="Layer 1"
     inkscape:groupmode="layer"
     id="layer1"
     transform="translate(0,-284.3)">
    <g
       aria-label="IMG Key"
       transform="scale(1.0436306,0.95819348)"
       style="font-style:normal;font-variant:normal;font-weight:normal;font-stretch:normal;font-size:7.9011445px;line-height:1.25;font-family:sans-serif;-inkscape-font-specification:sans-serif;letter-spacing:0px;word-spacing:0px;opacity:0.48900003;fill:#000000;fill-opacity:1;stroke:none;stroke-width:0.19752862"
       id="text817">
      <path
         d="m 0.47111606,306.35495 h 0.223959 v 1.61329 h -0.223959 z"
         style="font-style:normal;font-variant:normal;font-weight:normal;font-stretch:normal;font-size:3.95057225px;line-height:1;font-family:'DejaVu Sans';-inkscape-font-specification:'DejaVu Sans';stroke-width:0.11208189"
         id="path1493"
         inkscape:connector-curvature="0" />
      <path
         d="m 1.1407761,306.35495 h 0.333722 l 0.422418,1.09786 0.424635,-1.09786 h 0.333722 v 1.61329 h -0.218416 v -1.41663 l -0.426853,1.10651 h -0.225068 l -0.426853,-1.10651 v 1.41663 h -0.217307 z"
         style="font-style:normal;font-variant:normal;font-weight:normal;font-stretch:normal;font-size:3.95057225px;line-height:1;font-family:'DejaVu Sans';-inkscape-font-specification:'DejaVu Sans';stroke-width:0.11208189"
         id="path1495"
         inkscape:connector-curvature="0" />
      <path
         d="m 4.2296391,307.73808 v -0.43331 h -0.365874 v -0.17938 h 0.587616 v 0.69265 q -0.129719,0.0897 -0.286047,0.13616 -0.156328,0.0454 -0.333721,0.0454 -0.388048,0 -0.607573,-0.22044 -0.218415,-0.22151 -0.218415,-0.61592 0,-0.39549 0.218415,-0.61594 0.219525,-0.22151 0.607573,-0.22151 0.161871,0 0.307112,0.0389 0.14635,0.0388 0.269416,0.11454 v 0.23233 q -0.124175,-0.10267 -0.263872,-0.15453 -0.139698,-0.0518 -0.293808,-0.0518 -0.303786,0 -0.456788,0.16533 -0.151893,0.16532 -0.151893,0.49274 0,0.32633 0.151893,0.49166 0.153002,0.16533 0.456788,0.16533 0.118632,0 0.211763,-0.0195 0.09313,-0.0206 0.167415,-0.0627 z"
         style="font-style:normal;font-variant:normal;font-weight:normal;font-stretch:normal;font-size:3.95057225px;line-height:1;font-family:'DejaVu Sans';-inkscape-font-specification:'DejaVu Sans';stroke-width:0.11208189"
         id="path1497"
         inkscape:connector-curvature="0" />
      <path
         d="m 5.0246981,306.38736 h 0.223959 v 0.68184 l 0.742835,-0.68184 h 0.288264 l -0.821553,0.75207 0.880315,0.86122 h -0.294917 l -0.794944,-0.77693 v 0.77693 h -0.223959 z"
         style="font-style:normal;font-variant:normal;font-weight:normal;font-stretch:normal;font-size:3.95057225px;line-height:1;font-family:'DejaVu Sans';-inkscape-font-specification:'DejaVu Sans';stroke-width:0.11208189"
         id="path1499"
         inkscape:connector-curvature="0" />
      <path
         d="m 7.4572051,307.34583 v 0.0972 h -0.937968 q 0.01331,0.20531 0.126393,0.31337 0.114197,0.10697 0.317091,0.10697 0.117523,0 0.227285,-0.0281 0.1108709,-0.0281 0.2195243,-0.0843 v 0.18801 q -0.1097622,0.0454 -0.2250679,0.0691 -0.1153054,0.0238 -0.2339374,0.0238 -0.297134,0 -0.471201,-0.16857 -0.172959,-0.16857 -0.172959,-0.45599 0,-0.29716 0.164089,-0.47114 0.165198,-0.17505 0.444592,-0.17505 0.2505683,0 0.3958093,0.15777 0.1463497,0.15668 0.1463497,0.42682 z m -0.2040028,-0.0584 q -0.00225,-0.16316 -0.09424,-0.26041 -0.090914,-0.0972 -0.2416982,-0.0972 -0.170741,0 -0.273851,0.094 -0.102001,0.094 -0.117523,0.26474 z"
         style="font-style:normal;font-variant:normal;font-weight:normal;font-stretch:normal;font-size:3.95057225px;line-height:1;font-family:'DejaVu Sans';-inkscape-font-specification:'DejaVu Sans';stroke-width:0.11208189"
         id="path1501"
         inkscape:connector-curvature="0" />
      <path
         d="m 8.3086931,308.11302 q -0.08648,0.21613 -0.1685234,0.28204 -0.082044,0.0659 -0.2195249,0.0659 H 7.757665 v -0.16637 h 0.1197406 q 0.084262,0 0.1308276,-0.0388 0.046567,-0.0389 0.1031099,-0.1837 l 0.036589,-0.0908 -0.5022453,-1.19078 H 7.861885 l 0.3880482,0.94657 0.3880478,-0.94657 h 0.216198 z"
         style="font-style:normal;font-variant:normal;font-weight:normal;font-stretch:normal;font-size:3.95057225px;line-height:1;font-family:'DejaVu Sans';-inkscape-font-specification:'DejaVu Sans';stroke-width:0.11208189"
         id="path1503"
         inkscape:connector-curvature="0" />
      <text
         xml:space="preserve"
         style="font-style:normal;font-variant:normal;font-weight:normal;font-stretch:normal;font-size:4.76680994px;line-height:1.25;font-family:sans-serif;-inkscape-font-specification:sans-serif;letter-spacing:0px;word-spacing:0px;fill:#000000;fill-opacity:1;stroke:none;stroke-width:0.02353954"
         x="9.3678608"
         y="296.65118"
         id="text841"
         transform="scale(0.9615037,1.0400376)"><tspan
           sodipodi:role="line"
           id="tspan839"
           x="9.3678608"
           y="296.65118"
           style="stroke-width:0.02353954">B</tspan></text>
      <path
         d="m 0.34024892,301.8505 h 0.2239592 v 1.61329 h -0.2239592 z"
         style="font-style:normal;font-variant:normal;font-weight:normal;font-stretch:normal;font-size:3.95057225px;line-height:1;font-family:'DejaVu Sans';-inkscape-font-specification:'DejaVu Sans';letter-spacing:0px;word-spacing:0px;opacity:0.48900003;fill:#000000;fill-opacity:1;stroke:none;stroke-width:0.11208189"
         id="path1493-6"
         inkscape:connector-curvature="0" />
      <path
         d="m 1.009909,301.8505 h 0.3337208 l 0.422418,1.09786 0.424636,-1.09786 h 0.333721 v 1.61329 h -0.218415 v -1.41663 l -0.426853,1.10651 h -0.225068 l -0.4268529,-1.10651 v 1.41663 H 1.009909 Z"
         style="font-style:normal;font-variant:normal;font-weight:normal;font-stretch:normal;font-size:3.95057225px;line-height:1;font-family:'DejaVu Sans';-inkscape-font-specification:'DejaVu Sans';letter-spacing:0px;word-spacing:0px;opacity:0.48900003;fill:#000000;fill-opacity:1;stroke:none;stroke-width:0.11208189"
         id="path1495-7"
         inkscape:connector-curvature="0" />
      <path
         d="m 4.0987718,303.23363 v -0.43331 h -0.365874 v -0.17938 h 0.587616 v 0.69265 q -0.129719,0.0897 -0.286047,0.13616 -0.156328,0.0454 -0.333722,0.0454 -0.388048,0 -0.607572,-0.22044 -0.218416,-0.22151 -0.218416,-0.61592 0,-0.39549 0.218416,-0.61594 0.219524,-0.22151 0.607572,-0.22151 0.161872,0 0.307113,0.0389 0.146349,0.0388 0.269416,0.11454 v 0.23233 q -0.124176,-0.10267 -0.263873,-0.15453 -0.139697,-0.0518 -0.293808,-0.0518 -0.303786,0 -0.456788,0.16533 -0.151893,0.16532 -0.151893,0.49274 0,0.32633 0.151893,0.49166 0.153002,0.16533 0.456788,0.16533 0.118632,0 0.211764,-0.0195 0.09313,-0.0206 0.167415,-0.0627 z"
         style="font-style:normal;font-variant:normal;font-weight:normal;font-stretch:normal;font-size:3.95057225px;line-height:1;font-family:'DejaVu Sans';-inkscape-font-specification:'DejaVu Sans';letter-spacing:0px;word-spacing:0px;opacity:0.48900003;fill:#000000;fill-opacity:1;stroke:none;stroke-width:0.11208189"
         id="path1497-5"
         inkscape:connector-curvature="0" />
      <path
         d="m 4.8938298,301.88291 h 0.22396 v 0.68184 l 0.742834,-0.68184 h 0.288265 l -0.821553,0.75207 0.880314,0.86122 h -0.294916 l -0.794944,-0.77693 v 0.77693 h -0.22396 z"
         style="font-style:normal;font-variant:normal;font-weight:normal;font-stretch:normal;font-size:3.95057225px;line-height:1;font-family:'DejaVu Sans';-inkscape-font-specification:'DejaVu Sans';letter-spacing:0px;word-spacing:0px;opacity:0.48900003;fill:#000000;fill-opacity:1;stroke:none;stroke-width:0.11208189"
         id="path1499-3"
         inkscape:connector-curvature="0" />
      <path
         d="m 7.3263378,302.84138 v 0.0972 h -0.937968 q 0.0133,0.20531 0.126393,0.31336 0.114197,0.10698 0.31709,0.10698 0.117524,0 0.227286,-0.0281 0.110871,-0.0281 0.219524,-0.0843 v 0.18801 q -0.109762,0.0454 -0.225068,0.0691 -0.115306,0.0238 -0.233937,0.0238 -0.297134,0 -0.471202,-0.16857 -0.172958,-0.16857 -0.172958,-0.45599 0,-0.29716 0.164089,-0.47114 0.165197,-0.17505 0.444592,-0.17505 0.250568,0 0.395809,0.15777 0.14635,0.15668 0.14635,0.42682 z m -0.204003,-0.0584 q -0.0023,-0.16316 -0.09424,-0.26041 -0.09091,-0.0972 -0.241699,-0.0972 -0.170741,0 -0.27385,0.094 -0.102002,0.094 -0.117524,0.26474 z"
         style="font-style:normal;font-variant:normal;font-weight:normal;font-stretch:normal;font-size:3.95057225px;line-height:1;font-family:'DejaVu Sans';-inkscape-font-specification:'DejaVu Sans';letter-spacing:0px;word-spacing:0px;opacity:0.48900003;fill:#000000;fill-opacity:1;stroke:none;stroke-width:0.11208189"
         id="path1501-5"
         inkscape:connector-curvature="0" />
      <path
         d="m 8.1778258,303.60856 q -0.08648,0.21614 -0.168524,0.28205 -0.08204,0.0659 -0.219525,0.0659 h -0.162979 v -0.16637 h 0.11974 q 0.08426,0 0.130828,-0.0388 0.04657,-0.0389 0.10311,-0.1837 l 0.03659,-0.0908 -0.502246,-1.19078 h 0.216199 l 0.388048,0.94657 0.388048,-0.94657 h 0.216198 z"
         style="font-style:normal;font-variant:normal;font-weight:normal;font-stretch:normal;font-size:3.95057225px;line-height:1;font-family:'DejaVu Sans';-inkscape-font-specification:'DejaVu Sans';letter-spacing:0px;word-spacing:0px;opacity:0.48900003;fill:#000000;fill-opacity:1;stroke:none;stroke-width:0.11208189"
         id="path1503-6"
         inkscape:connector-curvature="0" />
      <text
         xml:space="preserve"
         style="font-style:normal;font-variant:normal;font-weight:normal;font-stretch:normal;font-size:4.76681042px;line-height:1.25;font-family:sans-serif;-inkscape-font-specification:sans-serif;letter-spacing:0px;word-spacing:0px;opacity:0.48900003;fill:#000000;fill-opacity:1;stroke:none;stroke-width:0.02353954"
         x="9.2317553"
         y="292.32013"
         id="text841-2"
         transform="scale(0.9615037,1.0400376)"><tspan
           sodipodi:role="line"
           id="tspan839-9"
           x="9.2317553"
           y="292.32013"
           style="stroke-width:0.02353954">A</tspan></text>
      <path
         style="fill:none;stroke:#000000;stroke-width:0.26458332px;stroke-linecap:butt;stroke-linejoin:miter;stroke-opacity:1"
         d="m 11.951752,302.31547 -11.88384432,0.2712"
         id="path879"
         inkscape:connector-curvature="0" />
    </g>
    <g
       id="g872"
       transform="matrix(-2.048951,0,0,1.3956141,9.7349127,-101.08923)">
      <g
         id="g877"
         transform="matrix(0.69394884,-0.91617956,0.56586616,0.69394884,-154.75708,81.317197)"
         inkscape:transform-center-x="6.3041843"
         inkscape:transform-center-y="-5.6562159">
        <rect
           style="fill:#d1b2b2;fill-opacity:1;stroke:#000000;stroke-width:0.23376343;stroke-linecap:round;stroke-linejoin:round;stroke-miterlimit:4;stroke-dasharray:none;stroke-opacity:1;paint-order:stroke fill markers"
           id="rect825"
           width="3.7308216"
           height="0.62381279"
           x="-4.3877668"
           y="281.05283" />
        <path
           style="fill:none;stroke:#000000;stroke-width:0.16898561;stroke-linecap:butt;stroke-linejoin:round;stroke-miterlimit:4;stroke-dasharray:none;stroke-opacity:1"
           d="m -4.3877668,281.67664 c -0.2793163,0.009 -0.5577288,-0.0435 -0.8324456,-0.35142 0.2750181,-0.18258 0.5523208,-0.28005 0.8324456,-0.27239"
           id="path827"
           inkscape:connector-curvature="0"
           sodipodi:nodetypes="ccc" />
        <path
           style="fill:none;stroke:#000000;stroke-width:0.2;stroke-linecap:butt;stroke-linejoin:miter;stroke-miterlimit:4;stroke-dasharray:none;stroke-opacity:1"
           d="m -1.110839,281.0557 0.00835,0.60971"
           id="path848"
           inkscape:connector-curvature="0" />
      </g>
    </g>
  </g>
</svg>
