<?xml version="1.0" encoding="UTF-8" standalone="no"?>
<!-- Created with Inkscape (http://www.inkscape.org/) -->

<svg
   xmlns:dc="http://purl.org/dc/elements/1.1/"
   xmlns:cc="http://creativecommons.org/ns#"
   xmlns:rdf="http://www.w3.org/1999/02/22-rdf-syntax-ns#"
   xmlns:svg="http://www.w3.org/2000/svg"
   xmlns="http://www.w3.org/2000/svg"
   xmlns:sodipodi="http://sodipodi.sourceforge.net/DTD/sodipodi-0.dtd"
   xmlns:inkscape="http://www.inkscape.org/namespaces/inkscape"
   width="48"
   height="48"
   viewBox="0 0 12.7 12.7"
   version="1.1"
   id="svg901"
   inkscape:version="0.92.5 (2060ec1f9f, 2020-04-08)"
   sodipodi:docname="nx_editor_editor.svg">
  <defs
     id="defs895" />
  <sodipodi:namedview
     id="base"
     pagecolor="#ffffff"
     bordercolor="#666666"
     borderopacity="1.0"
     inkscape:pageopacity="0.0"
     inkscape:pageshadow="2"
     inkscape:zoom="3.959798"
     inkscape:cx="-6.0869344"
     inkscape:cy="34.284658"
     inkscape:document-units="mm"
     inkscape:current-layer="layer1"
     showgrid="false"
     units="px"
     inkscape:window-width="1848"
     inkscape:window-height="1136"
     inkscape:window-x="72"
     inkscape:window-y="27"
     inkscape:window-maximized="1" />
  <metadata
     id="metadata898">
    <rdf:RDF>
      <cc:Work
         rdf:about="">
        <dc:format>image/svg+xml</dc:format>
        <dc:type
           rdf:resource="http://purl.org/dc/dcmitype/StillImage" />
        <dc:title></dc:title>
      </cc:Work>
    </rdf:RDF>
  </metadata>
  <g
     inkscape:label="Layer 1"
     inkscape:groupmode="layer"
     id="layer1"
     transform="translate(0,-284.3)">
    <g
       style="font-style:normal;font-variant:normal;font-weight:normal;font-stretch:normal;font-size:7.9011445px;line-height:1.25;font-family:sans-serif;-inkscape-font-specification:sans-serif;letter-spacing:0px;word-spacing:0px;opacity:1;fill:#000000;fill-opacity:1;stroke:none;stroke-width:0.19752862"
       id="g872"
       transform="matrix(1.7008748,0,0,1.3956141,5.3524284,-101.16555)">
      <g
         id="g877"
         transform="matrix(0.69394884,-0.91617956,0.56586616,0.69394884,-154.75708,81.317197)"
         inkscape:transform-center-x="6.3041843"
         inkscape:transform-center-y="-5.6562159"
         style="">
        <rect
           style="fill:#d1b2b2;fill-opacity:1;stroke:#000000;stroke-width:0.23376343;stroke-linecap:round;stroke-linejoin:round;stroke-miterlimit:4;stroke-dasharray:none;stroke-opacity:1;paint-order:stroke fill markers"
           id="rect825"
           width="3.7308216"
           height="0.62381279"
           x="-4.3877668"
           y="281.05283" />
        <path
           style="fill:none;stroke:#000000;stroke-width:0.16898561;stroke-linecap:butt;stroke-linejoin:round;stroke-miterlimit:4;stroke-dasharray:none;stroke-opacity:1"
           d="m -4.3877668,281.67664 c -0.2793163,0.009 -0.5577288,-0.0435 -0.8324456,-0.35142 0.2750181,-0.18258 0.5523208,-0.28005 0.8324456,-0.27239"
           id="path827"
           inkscape:connector-curvature="0"
           sodipodi:nodetypes="ccc" />
        <path
           style="fill:none;stroke:#000000;stroke-width:0.2;stroke-linecap:butt;stroke-linejoin:miter;stroke-miterlimit:4;stroke-dasharray:none;stroke-opacity:1"
           d="m -1.110839,281.0557 0.00835,0.60971"
           id="path848"
           inkscape:connector-curvature="0" />
      </g>
    </g>
    <g
       transform="matrix(0.67999756,0,0,1.4705936,-0.07800087,-0.17577001)"
       style="font-style:normal;font-variant:normal;font-weight:normal;font-stretch:normal;font-size:15.24015903px;line-height:1.25;font-family:sans-serif;-inkscape-font-specification:sans-serif;letter-spacing:0px;word-spacing:0px;opacity:1;fill:#000000;fill-opacity:1;stroke:none;stroke-width:0.07525919"
       id="text2005">
      <path
         inkscape:connector-curvature="0"
         d="M 0.19471413,195.6209 H 1.1392864 l 2.2989224,4.3374 v -4.3374 h 0.6806477 v 5.18473 H 3.1742841 l -2.29892227,-4.33739 v 4.33739 h -0.6806477 z"
         style="font-style:normal;font-variant:normal;font-weight:normal;font-stretch:normal;font-size:7.1120739px;font-family:'Noto Serif Gurmukhi';-inkscape-font-specification:'Noto Serif Gurmukhi';stroke-width:0.07525919"
         id="path869" />
      <path
         inkscape:connector-curvature="0"
         d="m 5.264845,195.6209 h 0.7535742 l 1.2883689,1.92735 1.2953142,-1.92735 h 0.7535742 l -1.6668923,2.48992 1.7780185,2.69481 H 8.7132284 l -1.4585307,-2.20516 -1.4689489,2.20516 H 5.0287019 l 1.850945,-2.76773 z"
         style="font-style:normal;font-variant:normal;font-weight:normal;font-stretch:normal;font-size:7.1120739px;font-family:'Noto Serif Gurmukhi';-inkscape-font-specification:'Noto Serif Gurmukhi';stroke-width:0.07525919"
         id="path871" />
      <path
         inkscape:connector-curvature="0"
         d="m 10.340185,198.30877 v 0.55216 h 0.658075 v 0.24829 h -0.658075 v 1.0557 q 0,0.23788 0.06424,0.3056 0.06598,0.0677 0.265661,0.0677 h 0.328169 v 0.26739 h -0.328169 q -0.369842,0 -0.510486,-0.13717 -0.140644,-0.13891 -0.140644,-0.50354 v -1.0557 H 9.7845543 v -0.24829 h 0.2344067 v -0.55216 z"
         style="font-style:normal;font-variant:normal;font-weight:normal;font-stretch:normal;font-size:3.55603695px;font-family:'Noto Serif Gurmukhi';-inkscape-font-specification:'Noto Serif Gurmukhi';stroke-width:0.07525919"
         id="path873" />
      <path
         inkscape:connector-curvature="0"
         d="m 12.17203,199.08491 q -0.25698,0 -0.406305,0.20142 -0.149326,0.19968 -0.149326,0.54869 0,0.349 0.147589,0.55042 0.149326,0.19968 0.408042,0.19968 0.255242,0 0.404568,-0.20142 0.149326,-0.20141 0.149326,-0.54868 0,-0.34554 -0.149326,-0.54695 -0.149326,-0.20316 -0.404568,-0.20316 z m 0,-0.27087 q 0.416723,0 0.654602,0.27087 0.237879,0.27087 0.237879,0.75011 0,0.47749 -0.237879,0.7501 -0.237879,0.27087 -0.654602,0.27087 -0.41846,0 -0.656339,-0.27087 -0.236143,-0.27261 -0.236143,-0.7501 0,-0.47924 0.236143,-0.75011 0.237879,-0.27087 0.656339,-0.27087 z"
         style="font-style:normal;font-variant:normal;font-weight:normal;font-stretch:normal;font-size:3.55603695px;font-family:'Noto Serif Gurmukhi';-inkscape-font-specification:'Noto Serif Gurmukhi';stroke-width:0.07525919"
         id="path875" />
      <path
         inkscape:connector-curvature="0"
         d="m 15.108191,199.23424 q 0.119808,-0.21531 0.286497,-0.31775 0.166689,-0.10245 0.392414,-0.10245 0.303861,0 0.468814,0.21358 0.164953,0.21183 0.164953,0.60424 v 1.17377 h -0.321224 v -1.16335 q 0,-0.27955 -0.09897,-0.41499 -0.09897,-0.13543 -0.302124,-0.13543 -0.248298,0 -0.392414,0.16495 -0.144117,0.16496 -0.144117,0.44972 v 1.0991 h -0.321224 v -1.16335 q 0,-0.28129 -0.09897,-0.41499 -0.09897,-0.13543 -0.305597,-0.13543 -0.244825,0 -0.388941,0.16669 -0.144117,0.16495 -0.144117,0.44798 v 1.0991 h -0.321224 v -1.9447 h 0.321224 v 0.30212 q 0.10939,-0.17884 0.262188,-0.26392 0.152799,-0.0851 0.362897,-0.0851 0.211834,0 0.359423,0.10766 0.149326,0.10765 0.220516,0.31254 z"
         style="font-style:normal;font-variant:normal;font-weight:normal;font-stretch:normal;font-size:3.55603695px;font-family:'Noto Serif Gurmukhi';-inkscape-font-specification:'Noto Serif Gurmukhi';stroke-width:0.07525919"
         id="path877" />
      <path
         inkscape:connector-curvature="0"
         d="m 17.811682,199.08491 q -0.256979,0 -0.406305,0.20142 -0.149326,0.19968 -0.149326,0.54869 0,0.349 0.147589,0.55042 0.149326,0.19968 0.408042,0.19968 0.255243,0 0.404568,-0.20142 0.149326,-0.20141 0.149326,-0.54868 0,-0.34554 -0.149326,-0.54695 -0.149325,-0.20316 -0.404568,-0.20316 z m 0,-0.27087 q 0.416723,0 0.654602,0.27087 0.23788,0.27087 0.23788,0.75011 0,0.47749 -0.23788,0.7501 -0.237879,0.27087 -0.654602,0.27087 -0.41846,0 -0.656339,-0.27087 -0.236143,-0.27261 -0.236143,-0.7501 0,-0.47924 0.236143,-0.75011 0.237879,-0.27087 0.656339,-0.27087 z"
         style="font-style:normal;font-variant:normal;font-weight:normal;font-stretch:normal;font-size:3.55603695px;font-family:'Noto Serif Gurmukhi';-inkscape-font-specification:'Noto Serif Gurmukhi';stroke-width:0.07525919"
         id="path879" />
    </g>
  </g>
</svg>
