<?xml version="1.0" encoding="UTF-8"?>
<svg width="32px" height="32px" viewBox="0 0 32 32" version="1.1" xmlns="http://www.w3.org/2000/svg" xmlns:xlink="http://www.w3.org/1999/xlink">
    <title>Icon/AI 小鲸</title>
    <defs>
        <linearGradient x1="50%" y1="5.74847225%" x2="50%" y2="100%" id="linearGradient-1">
            <stop stop-color="#3530C5" offset="0%"></stop>
            <stop stop-color="#1460FC" offset="50.7985255%"></stop>
            <stop stop-color="#33DFFF" offset="100%"></stop>
        </linearGradient>
        <linearGradient x1="50%" y1="0%" x2="50%" y2="100%" id="linearGradient-2">
            <stop stop-color="#E8F1FF" offset="0%"></stop>
            <stop stop-color="#CDDFFE" offset="100%"></stop>
        </linearGradient>
    </defs>
    <g id="页面-1" stroke="none" stroke-width="1" fill="none" fill-rule="evenodd">
        <g id="分享的页面" transform="translate(-534, -124)">
            <g id="Icon/AI-小鲸" transform="translate(534, 124)">
                <g id="Icon/小鲸-W" transform="translate(16.0564, 15.4792) scale(-1, 1) translate(-16.0564, -15.4792)translate(1.125, 1.5)">
                    <path d="M11.289959,27.9583333 C7.43615242,27.9583333 4.21880238,25.2333388 3.45961893,21.6050598 L0,21.6041667 L0.0049394703,21.4079759 C0.098014735,19.5638844 1.49577129,18.065497 3.28964429,17.8253023 L3.28995902,13.0833333 C3.28995902,8.66505533 6.87168102,5.08333333 11.289959,5.08333333 L13.8453197,5.08333333 C13.2818419,3.9537037 12.2087839,3.48283457 10.6261459,3.67072595 C7.62596103,4.026909 7.59316555,0 10.6261459,0 C12.6481328,0 14.0029296,1.69444444 14.6905365,5.08333333 C15.3781433,1.69444444 16.7329402,0 18.7549271,0 C21.7879074,0 21.7551119,4.026909 18.7549271,3.67072595 C17.1722891,3.48283457 16.0992311,3.9537037 15.5357533,5.08333333 L18.0665984,5.08333333 C22.4848764,5.08333333 26.0665984,8.66505533 26.0665984,13.0833333 L26.0665984,17.7916667 C28.1631301,17.7916667 29.8627049,19.4985811 29.8627049,21.6041667 L26.066,21.604 L26.066,24.145 L29.8627049,24.1458333 C29.8627049,26.1592553 28.3389055,27.8081427 26.0668875,27.9486322 L26.0665984,27.9583333 L11.289959,27.9583333 Z" id="形状结合" fill="url(#linearGradient-1)"></path>
                    <path d="M11.4456967,8.81111111 L16.6454918,8.81111111 C19.7520935,8.81111111 22.2704918,11.3295094 22.2704918,14.4361111 L22.2704918,23.4569444 C22.2704918,24.4924784 21.4310257,25.3319444 20.3954918,25.3319444 L11.4456967,25.3319444 C8.339095,25.3319444 5.82069672,22.8135462 5.82069672,19.7069444 L5.82069672,14.4361111 C5.82069672,11.3295094 8.339095,8.81111111 11.4456967,8.81111111 Z" id="矩形" fill="url(#linearGradient-2)"></path>
                    <rect id="矩形" fill="#3332C8" x="8.35143443" y="13.9791667" width="2.5307377" height="6.35416667" rx="0.9375"></rect>
                    <rect id="矩形" fill="#3332C8" x="15.9436475" y="13.9791667" width="2.5307377" height="6.35416667" rx="0.9375"></rect>
                </g>
                <rect id="codesign_placeholder_name" x="0" y="0" width="32" height="32"></rect>
            </g>
        </g>
    </g>
</svg>