<svg style="background-color: white" xmlns="http://www.w3.org/2000/svg" xmlns:xlink="http://www.w3.org/1999/xlink" contentStyleType="text/css" data-diagram-type="DESCRIPTION" height="1952px" preserveAspectRatio="none" style="width:638px;height:1952px;background:#FFFFFF;" version="1.1" viewBox="0 0 638 1952" width="638px" zoomAndPan="magnify"><title>n8n-deploy Use Case Diagram</title><defs/><g><text fill="#000000" font-family="sans-serif" font-size="14" font-weight="bold" lengthAdjust="spacing" textLength="236.7627" x="194.0603" y="22.9951">n8n-deploy Use Case Diagram</text><!--cluster n8n-deploy--><g class="cluster" data-entity="n8n-deploy" data-source-line="11" data-uid="ent0005" id="cluster_n8n-deploy"><rect fill="none" height="1902" rx="2.5" ry="2.5" style="stroke:#181818;stroke-width:1;" width="265.29" x="111.06" y="44.2969"/><text fill="#000000" font-family="sans-serif" font-size="14" font-weight="bold" lengthAdjust="spacing" textLength="88.5664" x="199.4218" y="59.292">n8n-deploy</text></g><!--cluster Workflow Management--><g class="cluster" data-entity="Workflow Management" data-source-line="12" data-uid="ent0006" id="cluster_Workflow Management"><rect fill="none" height="585" rx="2.5" ry="2.5" style="stroke:#181818;stroke-width:1;" width="217.29" x="135.06" y="87.2969"/><text fill="#000000" font-family="sans-serif" font-size="14" font-weight="bold" lengthAdjust="spacing" textLength="182.6426" x="152.3837" y="102.292">Workflow Management</text></g><!--cluster Database Management--><g class="cluster" data-entity="Database Management" data-source-line="23" data-uid="ent0015" id="cluster_Database Management"><rect fill="none" height="285" rx="2.5" ry="2.5" style="stroke:#181818;stroke-width:1;" width="197.19" x="145.11" y="696.2969"/><text fill="#000000" font-family="sans-serif" font-size="14" font-weight="bold" lengthAdjust="spacing" textLength="182.4307" x="152.4897" y="711.292">Database Management</text></g><!--cluster API Key Management--><g class="cluster" data-entity="API Key Management" data-source-line="30" data-uid="ent0020" id="cluster_API Key Management"><rect fill="none" height="422" rx="2.5" ry="2.5" style="stroke:#181818;stroke-width:1;" width="183.58" x="151.92" y="1005.2969"/><text fill="#000000" font-family="sans-serif" font-size="14" font-weight="bold" lengthAdjust="spacing" textLength="168.5742" x="159.4229" y="1020.292">API Key Management</text></g><!--cluster Server Management--><g class="cluster" data-entity="Server Management" data-source-line="39" data-uid="ent0027" id="cluster_Server Management"><rect fill="none" height="364" rx="2.5" ry="2.5" style="stroke:#181818;stroke-width:1;" width="195.98" x="145.72" y="1451.2969"/><text fill="#000000" font-family="sans-serif" font-size="14" font-weight="bold" lengthAdjust="spacing" textLength="159.9336" x="163.7432" y="1466.292">Server Management</text></g><!--cluster Environment--><g class="cluster" data-entity="Environment" data-source-line="47" data-uid="ent0033" id="cluster_Environment"><rect fill="none" height="83" rx="2.5" ry="2.5" style="stroke:#181818;stroke-width:1;" width="166.38" x="160.52" y="1839.2969"/><text fill="#000000" font-family="sans-serif" font-size="14" font-weight="bold" lengthAdjust="spacing" textLength="100.6865" x="193.3667" y="1854.292">Environment</text></g><g class="entity" data-entity="WF_ADD" data-source-line="13" data-uid="ent0007" id="entity_WF_ADD"><ellipse cx="243.714" cy="139.3017" fill="#F1F1F1" rx="70.624" ry="16.5248" style="stroke:#181818;stroke-width:0.5;"/><text fill="#000000" font-family="sans-serif" font-size="14" lengthAdjust="spacing" textLength="94.5137" x="193.4571" y="143.0492">Add workflow</text></g><g class="entity" data-entity="WF_LIST" data-source-line="14" data-uid="ent0008" id="entity_WF_LIST"><ellipse cx="243.7107" cy="207.293" fill="#F1F1F1" rx="72.2807" ry="16.8561" style="stroke:#181818;stroke-width:0.5;"/><text fill="#000000" font-family="sans-serif" font-size="14" lengthAdjust="spacing" textLength="98.9297" x="191.2458" y="211.0406">List workflows</text></g><g class="entity" data-entity="WF_REMOVE" data-source-line="15" data-uid="ent0009" id="entity_WF_REMOVE"><ellipse cx="243.7145" cy="278.2958" fill="#F1F1F1" rx="82.5445" ry="18.9089" style="stroke:#181818;stroke-width:0.5;"/><text fill="#000000" font-family="sans-serif" font-size="14" lengthAdjust="spacing" textLength="124.6055" x="180.663" y="281.3935">Remove workflow</text></g><g class="entity" data-entity="WF_SEARCH" data-source-line="16" data-uid="ent0010" id="entity_WF_SEARCH"><ellipse cx="243.7078" cy="351.2984" fill="#F1F1F1" rx="81.8078" ry="18.7616" style="stroke:#181818;stroke-width:0.5;"/><text fill="#000000" font-family="sans-serif" font-size="14" lengthAdjust="spacing" textLength="122.8623" x="181.2709" y="354.478">Search workflows</text></g><g class="entity" data-entity="WF_STATS" data-source-line="17" data-uid="ent0011" id="entity_WF_STATS"><ellipse cx="243.7136" cy="422.2996" fill="#F1F1F1" rx="74.4636" ry="17.2927" style="stroke:#181818;stroke-width:0.5;"/><text fill="#000000" font-family="sans-serif" font-size="14" lengthAdjust="spacing" textLength="104.6309" x="188.3982" y="426.0472">Show statistics</text></g><g class="entity" data-entity="WF_PUSH" data-source-line="18" data-uid="ent0012" id="entity_WF_PUSH"><ellipse cx="243.7143" cy="491.3017" fill="#F1F1F1" rx="72.9743" ry="16.9949" style="stroke:#181818;stroke-width:0.5;"/><text fill="#000000" font-family="sans-serif" font-size="14" lengthAdjust="spacing" textLength="100.7549" x="190.3369" y="495.0493">Push to server</text></g><g class="entity" data-entity="WF_PULL" data-source-line="19" data-uid="ent0013" id="entity_WF_PULL"><ellipse cx="243.7057" cy="561.294" fill="#F1F1F1" rx="77.0357" ry="17.8071" style="stroke:#181818;stroke-width:0.5;"/><text fill="#000000" font-family="sans-serif" font-size="14" lengthAdjust="spacing" textLength="111.2002" x="185.2506" y="565.004">Pull from server</text></g><g class="entity" data-entity="WF_SERVER" data-source-line="20" data-uid="ent0014" id="entity_WF_SERVER"><ellipse cx="243.7122" cy="635.2953" fill="#F1F1F1" rx="92.6422" ry="20.9284" style="stroke:#181818;stroke-width:0.5;"/><text fill="#000000" font-family="sans-serif" font-size="14" lengthAdjust="spacing" textLength="147.6973" x="169.8636" y="638.142">List server workflows</text></g><g class="entity" data-entity="DB_INIT" data-source-line="24" data-uid="ent0016" id="entity_DB_INIT"><ellipse cx="243.7121" cy="747.2993" fill="#F1F1F1" rx="66.6121" ry="15.7224" style="stroke:#181818;stroke-width:0.5;"/><text fill="#000000" font-family="sans-serif" font-size="14" lengthAdjust="spacing" textLength="83.4258" x="198.9992" y="751.0468">Initialize DB</text></g><g class="entity" data-entity="DB_STATUS" data-source-line="25" data-uid="ent0017" id="entity_DB_STATUS"><ellipse cx="243.7124" cy="815.2954" fill="#F1F1F1" rx="76.5924" ry="17.7185" style="stroke:#181818;stroke-width:0.5;"/><text fill="#000000" font-family="sans-serif" font-size="14" lengthAdjust="spacing" textLength="110.0791" x="185.6729" y="819.0429">Show DB status</text></g><g class="entity" data-entity="DB_BACKUP" data-source-line="26" data-uid="ent0018" id="entity_DB_BACKUP"><ellipse cx="243.7055" cy="883.298" fill="#F1F1F1" rx="64.2555" ry="15.2511" style="stroke:#181818;stroke-width:0.5;"/><text fill="#000000" font-family="sans-serif" font-size="14" lengthAdjust="spacing" textLength="76.583" x="202.414" y="887.0455">Backup DB</text></g><g class="entity" data-entity="DB_COMPACT" data-source-line="27" data-uid="ent0019" id="entity_DB_COMPACT"><ellipse cx="243.7078" cy="949.2964" fill="#F1F1F1" rx="68.0478" ry="16.0096" style="stroke:#181818;stroke-width:0.5;"/><text fill="#000000" font-family="sans-serif" font-size="14" lengthAdjust="spacing" textLength="87.4658" x="196.9749" y="953.044">Compact DB</text></g><g class="entity" data-entity="KEY_ADD" data-source-line="31" data-uid="ent0021" id="entity_KEY_ADD"><ellipse cx="243.7149" cy="1056.2978" fill="#F1F1F1" rx="66.6049" ry="15.721" style="stroke:#181818;stroke-width:0.5;"/><text fill="#000000" font-family="sans-serif" font-size="14" lengthAdjust="spacing" textLength="83.4053" x="199.0122" y="1060.0454">Add API key</text></g><g class="entity" data-entity="KEY_LIST" data-source-line="32" data-uid="ent0022" id="entity_KEY_LIST"><ellipse cx="243.7056" cy="1123.292" fill="#F1F1F1" rx="68.1756" ry="16.0351" style="stroke:#181818;stroke-width:0.5;"/><text fill="#000000" font-family="sans-serif" font-size="14" lengthAdjust="spacing" textLength="87.8213" x="196.795" y="1127.0396">List API keys</text></g><g class="entity" data-entity="KEY_DELETE" data-source-line="33" data-uid="ent0023" id="entity_KEY_DELETE"><ellipse cx="243.7109" cy="1191.3011" fill="#F1F1F1" rx="73.4709" ry="17.0942" style="stroke:#181818;stroke-width:0.5;"/><text fill="#000000" font-family="sans-serif" font-size="14" lengthAdjust="spacing" textLength="102.0537" x="189.6841" y="1195.0486">Delete API key</text></g><g class="entity" data-entity="KEY_ACTIVATE" data-source-line="34" data-uid="ent0024" id="entity_KEY_ACTIVATE"><ellipse cx="243.708" cy="1259.2985" fill="#F1F1F1" rx="67.908" ry="15.9816" style="stroke:#181818;stroke-width:0.5;"/><text fill="#000000" font-family="sans-serif" font-size="14" lengthAdjust="spacing" textLength="87.0762" x="197.1699" y="1263.046">Activate key</text></g><g class="entity" data-entity="KEY_DEACTIVATE" data-source-line="35" data-uid="ent0025" id="entity_KEY_DEACTIVATE"><ellipse cx="243.7095" cy="1327.2948" fill="#F1F1F1" rx="74.7895" ry="17.3579" style="stroke:#181818;stroke-width:0.5;"/><text fill="#000000" font-family="sans-serif" font-size="14" lengthAdjust="spacing" textLength="105.4717" x="187.9737" y="1331.0423">Deactivate key</text></g><g class="entity" data-entity="KEY_TEST" data-source-line="36" data-uid="ent0026" id="entity_KEY_TEST"><ellipse cx="243.7143" cy="1395.3017" fill="#F1F1F1" rx="67.5243" ry="15.9049" style="stroke:#181818;stroke-width:0.5;"/><text fill="#000000" font-family="sans-serif" font-size="14" lengthAdjust="spacing" textLength="86.0029" x="197.7129" y="1399.0493">Test API key</text></g><g class="entity" data-entity="SRV_CREATE" data-source-line="40" data-uid="ent0028" id="entity_SRV_CREATE"><ellipse cx="243.7063" cy="1503.2921" fill="#F1F1F1" rx="71.0263" ry="16.6053" style="stroke:#181818;stroke-width:0.5;"/><text fill="#000000" font-family="sans-serif" font-size="14" lengthAdjust="spacing" textLength="95.5938" x="192.9094" y="1507.0397">Create server</text></g><g class="entity" data-entity="SRV_LIST" data-source-line="41" data-uid="ent0029" id="entity_SRV_LIST"><ellipse cx="243.7143" cy="1570.2977" fill="#F1F1F1" rx="65.6043" ry="15.5209" style="stroke:#181818;stroke-width:0.5;"/><text fill="#000000" font-family="sans-serif" font-size="14" lengthAdjust="spacing" textLength="80.5342" x="200.4472" y="1574.0453">List servers</text></g><g class="entity" data-entity="SRV_REMOVE" data-source-line="42" data-uid="ent0030" id="entity_SRV_REMOVE"><ellipse cx="243.7065" cy="1638.2922" fill="#F1F1F1" rx="75.0765" ry="17.4153" style="stroke:#181818;stroke-width:0.5;"/><text fill="#000000" font-family="sans-serif" font-size="14" lengthAdjust="spacing" textLength="106.21" x="187.6015" y="1642.0397">Remove server</text></g><g class="entity" data-entity="SRV_KEYS" data-source-line="43" data-uid="ent0031" id="entity_SRV_KEYS"><ellipse cx="243.7093" cy="1709.2947" fill="#F1F1F1" rx="81.9893" ry="18.7979" style="stroke:#181818;stroke-width:0.5;"/><text fill="#000000" font-family="sans-serif" font-size="14" lengthAdjust="spacing" textLength="123.293" x="181.121" y="1712.4542">Show server keys</text></g><g class="entity" data-entity="SRV_PRIMARY" data-source-line="44" data-uid="ent0032" id="entity_SRV_PRIMARY"><ellipse cx="243.7085" cy="1781.2926" fill="#F1F1F1" rx="77.2285" ry="17.8457" style="stroke:#181818;stroke-width:0.5;"/><text fill="#000000" font-family="sans-serif" font-size="14" lengthAdjust="spacing" textLength="111.6855" x="185.0925" y="1784.9811">Set primary key</text></g><g class="entity" data-entity="ENV_SHOW" data-source-line="48" data-uid="ent0034" id="entity_ENV_SHOW"><ellipse cx="243.7113" cy="1890.2951" fill="#F1F1F1" rx="67.1913" ry="15.8383" style="stroke:#181818;stroke-width:0.5;"/><text fill="#000000" font-family="sans-serif" font-size="14" lengthAdjust="spacing" textLength="85.0664" x="198.1781" y="1894.0427">Show config</text></g><!--entity user--><g class="entity" data-entity="user" data-source-line="7" data-uid="ent0002" id="entity_user"><ellipse cx="35.0322" cy="1000.1469" fill="#F1F1F1" rx="16" ry="16" style="stroke:#181818;stroke-width:0.5;"/><path d="M35.0322,1020.1469 C39.0322,1020.1469 42.0322,1020.1469 46.0322,1016.1469 C54.0322,1016.1469 62.0322,1024.1469 62.0322,1032.1469 L62.0322,1036.1469 C62.0322,1040.1469 58.0322,1044.1469 54.0322,1044.1469 L16.0322,1044.1469 C12.0322,1044.1469 8.0322,1040.1469 8.0322,1036.1469 L8.0322,1032.1469 C8.0322,1024.1469 16.0322,1016.1469 24.0322,1016.1469 C28.0322,1020.1469 31.0322,1020.1469 35.0322,1020.1469" fill="#F1F1F1" style="stroke:#181818;stroke-width:0.5;"/><text fill="#000000" font-family="sans-serif" font-size="14" lengthAdjust="spacing" textLength="58.0645" x="6" y="1057.642">CLI User</text></g><!--entity n8n--><g class="entity" data-entity="n8n" data-source-line="8" data-uid="ent0003" id="entity_n8n"><ellipse cx="576.6147" cy="634.2938" fill="#F1F1F1" rx="16" ry="16" style="stroke:#181818;stroke-width:0.5;"/><path d="M576.6147,654.2938 C580.6147,654.2938 583.6147,654.2938 587.6147,650.2938 C595.6147,650.2938 603.6147,658.2938 603.6147,666.2938 L603.6147,670.2938 C603.6147,674.2938 599.6147,678.2938 595.6147,678.2938 L557.6147,678.2938 C553.6147,678.2938 549.6147,674.2938 549.6147,670.2938 L549.6147,666.2938 C549.6147,658.2938 557.6147,650.2938 565.6147,650.2938 C569.6147,654.2938 572.6147,654.2938 576.6147,654.2938" fill="#F1F1F1" style="stroke:#181818;stroke-width:0.5;"/><text fill="#000000" font-family="sans-serif" font-size="14" lengthAdjust="spacing" textLength="77.0137" x="538.1079" y="691.7889">n8n Server</text><text fill="#000000" font-family="sans-serif" font-size="14" font-style="italic" lengthAdjust="spacing" textLength="75.2295" x="539" y="614.492">&#171;external&#187;</text></g><!--entity db--><g class="entity" data-entity="db" data-source-line="9" data-uid="ent0004" id="entity_db"><path d="M531.35,314.4969 C531.35,304.4969 576.6166,304.4969 576.6166,304.4969 C576.6166,304.4969 621.8832,304.4969 621.8832,314.4969 L621.8832,356.0906 C621.8832,366.0906 576.6166,366.0906 576.6166,366.0906 C576.6166,366.0906 531.35,366.0906 531.35,356.0906 L531.35,314.4969" fill="#F1F1F1" style="stroke:#181818;stroke-width:0.5;"/><path d="M531.35,314.4969 C531.35,324.4969 576.6166,324.4969 576.6166,324.4969 C576.6166,324.4969 621.8832,324.4969 621.8832,314.4969" fill="none" style="stroke:#181818;stroke-width:0.5;"/><text fill="#000000" font-family="sans-serif" font-size="14" font-style="italic" lengthAdjust="spacing" textLength="67.7441" x="542.7445" y="341.492">&#171;system&#187;</text><text fill="#000000" font-family="sans-serif" font-size="14" lengthAdjust="spacing" textLength="70.5332" x="541.35" y="357.7889">SQLite DB</text></g><!--link user to WF_ADD--><g class="link" data-entity-1="user" data-entity-2="WF_ADD" data-source-line="53" data-uid="lnk35" id="link_user_WF_ADD"><path d="M36.34,983.2069 C37.97,824.4669 47.71,233.5569 103.06,173.2969 C120.87,153.9069 141.7966,145.6826 167.2066,141.5826" fill="none" id="user-to-WF_ADD" style="stroke:#181818;stroke-width:1;"/><polygon fill="#181818" points="173.13,140.6269,163.6077,138.1116,168.1938,141.4233,164.8821,146.0094,173.13,140.6269" style="stroke:#181818;stroke-width:1;"/></g><!--link user to WF_LIST--><g class="link" data-entity-1="user" data-entity-2="WF_LIST" data-source-line="54" data-uid="lnk36" id="link_user_WF_LIST"><path d="M36.67,983.3969 C39.48,833.3369 52.98,297.7369 103.06,242.2969 C120.41,223.0969 140.6401,214.7427 165.6301,210.3627" fill="none" id="user-to-WF_LIST" style="stroke:#181818;stroke-width:1;"/><polygon fill="#181818" points="171.54,209.3269,161.9846,206.9407,166.6151,210.1901,163.3657,214.8206,171.54,209.3269" style="stroke:#181818;stroke-width:1;"/></g><!--link user to WF_REMOVE--><g class="link" data-entity-1="user" data-entity-2="WF_REMOVE" data-source-line="55" data-uid="lnk37" id="link_user_WF_REMOVE"><path d="M37.07,983.4969 C41.17,842.8569 58.3,365.4069 103.06,315.2969 C118.52,297.9969 135.1969,289.7301 157.6569,284.4901" fill="none" id="user-to-WF_REMOVE" style="stroke:#181818;stroke-width:1;"/><polygon fill="#181818" points="163.5,283.1269,153.8266,281.2763,158.6308,284.2629,155.6442,289.0671,163.5,283.1269" style="stroke:#181818;stroke-width:1;"/></g><!--link user to WF_SEARCH--><g class="link" data-entity-1="user" data-entity-2="WF_SEARCH" data-source-line="56" data-uid="lnk38" id="link_user_WF_SEARCH"><path d="M37.52,983.4369 C42.88,852.2969 63.08,431.7569 103.06,387.2969 C118.55,370.0769 135.228,361.9311 157.678,356.8511" fill="none" id="user-to-WF_SEARCH" style="stroke:#181818;stroke-width:1;"/><polygon fill="#181818" points="163.53,355.5269,153.8691,353.6118,158.6533,356.6304,155.6347,361.4145,163.53,355.5269" style="stroke:#181818;stroke-width:1;"/></g><!--link user to WF_STATS--><g class="link" data-entity-1="user" data-entity-2="WF_STATS" data-source-line="57" data-uid="lnk39" id="link_user_WF_STATS"><path d="M38.03,983.5369 C44.64,862.2969 67.41,496.0569 103.06,457.2969 C120.07,438.8069 139.3428,430.553 163.6528,425.993" fill="none" id="user-to-WF_STATS" style="stroke:#181818;stroke-width:1;"/><polygon fill="#181818" points="169.55,424.8869,159.9668,422.6147,164.6357,425.8087,161.4417,430.4776,169.55,424.8869" style="stroke:#181818;stroke-width:1;"/></g><!--link user to WF_PUSH--><g class="link" data-entity-1="user" data-entity-2="WF_PUSH" data-source-line="58" data-uid="lnk40" id="link_user_WF_PUSH"><path d="M35.79,983.1769 C35.95,878.0569 42.14,592.8969 103.06,526.2969 C120.36,507.3969 140.2846,499.0782 165.0446,494.6282" fill="none" id="user-to-WF_PUSH" style="stroke:#181818;stroke-width:1;"/><polygon fill="#181818" points="170.95,493.5669,161.3844,491.222,166.0288,494.4513,162.7995,499.0958,170.95,493.5669" style="stroke:#181818;stroke-width:1;"/></g><!--link user to WF_PULL--><g class="link" data-entity-1="user" data-entity-2="WF_PULL" data-source-line="59" data-uid="lnk41" id="link_user_WF_PULL"><path d="M36.87,983.4469 C39.72,889.5069 51.9,653.6269 103.06,597.2969 C119.56,579.1369 138.0113,570.8074 161.7613,565.9574" fill="none" id="user-to-WF_PULL" style="stroke:#181818;stroke-width:1;"/><polygon fill="#181818" points="167.64,564.7569,158.0217,562.6385,162.7411,565.7573,159.6223,570.4767,167.64,564.7569" style="stroke:#181818;stroke-width:1;"/></g><!--link user to WF_SERVER--><g class="link" data-entity-1="user" data-entity-2="WF_SERVER" data-source-line="60" data-uid="lnk42" id="link_user_WF_SERVER"><path d="M40.56,983.3869 C49.64,910.6869 71.93,757.7469 103.06,715.2969 C124.71,685.7769 155.2466,667.8704 185.2966,655.1204" fill="none" id="user-to-WF_SERVER" style="stroke:#181818;stroke-width:1;"/><polygon fill="#181818" points="190.82,652.7769,180.9726,652.6099,186.2172,654.7298,184.0973,659.9744,190.82,652.7769" style="stroke:#181818;stroke-width:1;"/></g><!--link user to DB_INIT--><g class="link" data-entity-1="user" data-entity-2="DB_INIT" data-source-line="62" data-uid="lnk43" id="link_user_DB_INIT"><path d="M35.34,983.5769 C36.59,930.0869 47.16,834.1169 103.06,780.2969 C122.72,761.3769 145.1741,753.4819 171.2241,749.6419" fill="none" id="user-to-DB_INIT" style="stroke:#181818;stroke-width:1;"/><polygon fill="#181818" points="177.16,748.7669,167.6729,746.1221,172.2135,749.496,168.8395,754.0366,177.16,748.7669" style="stroke:#181818;stroke-width:1;"/></g><!--link user to DB_STATUS--><g class="link" data-entity-1="user" data-entity-2="DB_STATUS" data-source-line="63" data-uid="lnk44" id="link_user_DB_STATUS"><path d="M40.82,983.2769 C47.72,944.0169 64.23,884.5169 103.06,850.2969 C121.44,834.1069 140.333,826.3857 163.913,821.5357" fill="none" id="user-to-DB_STATUS" style="stroke:#181818;stroke-width:1;"/><polygon fill="#181818" points="169.79,820.3269,160.1687,818.2221,164.8925,821.3342,161.7804,826.058,169.79,820.3269" style="stroke:#181818;stroke-width:1;"/></g><!--link user to DB_BACKUP--><g class="link" data-entity-1="user" data-entity-2="DB_BACKUP" data-source-line="64" data-uid="lnk45" id="link_user_DB_BACKUP"><path d="M51.26,983.3669 C62.27,960.2069 79.4,932.1269 103.06,915.2969 C125.66,899.2269 149.1422,892.0052 175.1322,887.9352" fill="none" id="user-to-DB_BACKUP" style="stroke:#181818;stroke-width:1;"/><polygon fill="#181818" points="181.06,887.0069,171.5495,884.4475,176.1202,887.7804,172.7872,892.3511,181.06,887.0069" style="stroke:#181818;stroke-width:1;"/></g><!--link user to DB_COMPACT--><g class="link" data-entity-1="user" data-entity-2="DB_COMPACT" data-source-line="65" data-uid="lnk46" id="link_user_DB_COMPACT"><path d="M64.34,1012.2969 C100.71,999.4569 158.3324,979.0947 198.9124,964.7647" fill="none" id="user-to-DB_COMPACT" style="stroke:#181818;stroke-width:1;"/><polygon fill="#181818" points="204.57,962.7669,194.7517,961.9919,199.8553,964.4318,197.4155,969.5354,204.57,962.7669" style="stroke:#181818;stroke-width:1;"/></g><!--link user to KEY_ADD--><g class="link" data-entity-1="user" data-entity-2="KEY_ADD" data-source-line="67" data-uid="lnk47" id="link_user_KEY_ADD"><path d="M64.34,1026.9569 C96.06,1032.1769 142.3496,1039.7828 182.0996,1046.3228" fill="none" id="user-to-KEY_ADD" style="stroke:#181818;stroke-width:1;"/><polygon fill="#181818" points="188.02,1047.2969,179.7888,1041.8888,183.0863,1046.4851,178.49,1049.7827,188.02,1047.2969" style="stroke:#181818;stroke-width:1;"/></g><!--link user to KEY_LIST--><g class="link" data-entity-1="user" data-entity-2="KEY_LIST" data-source-line="68" data-uid="lnk48" id="link_user_KEY_LIST"><path d="M64.39,1057.6369 C75.35,1069.2469 88.72,1081.2369 103.06,1089.2969 C127.21,1102.8669 150.778,1109.9235 176.408,1114.8535" fill="none" id="user-to-KEY_LIST" style="stroke:#181818;stroke-width:1;"/><polygon fill="#181818" points="182.3,1115.9869,174.2176,1110.3589,177.39,1115.0424,172.7065,1118.2149,182.3,1115.9869" style="stroke:#181818;stroke-width:1;"/></g><!--link user to KEY_DELETE--><g class="link" data-entity-1="user" data-entity-2="KEY_DELETE" data-source-line="69" data-uid="lnk49" id="link_user_KEY_DELETE"><path d="M45.61,1061.1969 C55.14,1091.7769 72.81,1133.1169 103.06,1157.2969 C122.85,1173.1069 142.9974,1180.5965 167.2374,1185.2465" fill="none" id="user-to-KEY_DELETE" style="stroke:#181818;stroke-width:1;"/><polygon fill="#181818" points="173.13,1186.3769,165.0447,1180.7529,168.2195,1185.4349,163.5376,1188.6097,173.13,1186.3769" style="stroke:#181818;stroke-width:1;"/></g><!--link user to KEY_ACTIVATE--><g class="link" data-entity-1="user" data-entity-2="KEY_ACTIVATE" data-source-line="70" data-uid="lnk50" id="link_user_KEY_ACTIVATE"><path d="M37.84,1061.3869 C42.14,1107.5369 56.38,1183.4369 103.06,1226.2969 C122.79,1244.4069 144.6426,1252.1961 170.2426,1256.2161" fill="none" id="user-to-KEY_ACTIVATE" style="stroke:#181818;stroke-width:1;"/><polygon fill="#181818" points="176.17,1257.1469,167.8995,1251.7991,171.2305,1256.3712,166.6584,1259.7023,176.17,1257.1469" style="stroke:#181818;stroke-width:1;"/></g><!--link user to KEY_DEACTIVATE--><g class="link" data-entity-1="user" data-entity-2="KEY_DEACTIVATE" data-source-line="71" data-uid="lnk51" id="link_user_KEY_DEACTIVATE"><path d="M40.74,1061.1969 C49.6,1127.8669 70.78,1259.9469 103.06,1292.2969 C120.72,1309.9869 139.9989,1318.0587 164.1189,1322.7187" fill="none" id="user-to-KEY_DEACTIVATE" style="stroke:#181818;stroke-width:1;"/><polygon fill="#181818" points="170.01,1323.8569,161.9322,1318.2223,165.1008,1322.9084,160.4146,1326.077,170.01,1323.8569" style="stroke:#181818;stroke-width:1;"/></g><!--link user to KEY_TEST--><g class="link" data-entity-1="user" data-entity-2="KEY_TEST" data-source-line="72" data-uid="lnk52" id="link_user_KEY_TEST"><path d="M38.52,1061.3469 C44.42,1141.2869 61.95,1319.6169 103.06,1362.2969 C121.9,1381.8569 144.0714,1389.8807 170.1514,1393.6407" fill="none" id="user-to-KEY_TEST" style="stroke:#181818;stroke-width:1;"/><polygon fill="#181818" points="176.09,1394.4969,167.7529,1389.2535,171.1412,1393.7834,166.6113,1397.1717,176.09,1394.4969" style="stroke:#181818;stroke-width:1;"/></g><!--link user to SRV_CREATE--><g class="link" data-entity-1="user" data-entity-2="SRV_CREATE" data-source-line="74" data-uid="lnk53" id="link_user_SRV_CREATE"><path d="M38.17,1061.2569 C43.77,1150.9269 61.4,1368.7069 103.06,1427.2969 C125.7,1459.1269 160.3381,1476.945 191.8381,1488.345" fill="none" id="user-to-SRV_CREATE" style="stroke:#181818;stroke-width:1;"/><polygon fill="#181818" points="197.48,1490.3869,190.3784,1483.5629,192.7784,1488.6854,187.6559,1491.0854,197.48,1490.3869" style="stroke:#181818;stroke-width:1;"/></g><!--link user to SRV_LIST--><g class="link" data-entity-1="user" data-entity-2="SRV_LIST" data-source-line="75" data-uid="lnk54" id="link_user_SRV_LIST"><path d="M35.6,1061.3169 C35.22,1169.0669 40.02,1467.4269 103.06,1537.2969 C121.76,1558.0069 144.8697,1566.1459 171.6497,1569.6159" fill="none" id="user-to-SRV_LIST" style="stroke:#181818;stroke-width:1;"/><polygon fill="#181818" points="177.6,1570.3869,169.1886,1565.2635,172.6415,1569.7444,168.1606,1573.1972,177.6,1570.3869" style="stroke:#181818;stroke-width:1;"/></g><!--link user to SRV_REMOVE--><g class="link" data-entity-1="user" data-entity-2="SRV_REMOVE" data-source-line="76" data-uid="lnk55" id="link_user_SRV_REMOVE"><path d="M37.96,1061.2369 C44.42,1184.8669 66.98,1562.7769 103.06,1603.2969 C119.68,1621.9669 138.7331,1630.2795 162.9631,1634.8295" fill="none" id="user-to-SRV_REMOVE" style="stroke:#181818;stroke-width:1;"/><polygon fill="#181818" points="168.86,1635.9369,160.7528,1630.3446,163.9459,1635.0141,159.2764,1638.2071,168.86,1635.9369" style="stroke:#181818;stroke-width:1;"/></g><!--link user to SRV_KEYS--><g class="link" data-entity-1="user" data-entity-2="SRV_KEYS" data-source-line="77" data-uid="lnk56" id="link_user_SRV_KEYS"><path d="M37.46,1061.1569 C42.7,1194.3869 62.72,1626.9869 103.06,1673.2969 C118.28,1690.7569 134.8771,1698.9763 157.3471,1704.0463" fill="none" id="user-to-SRV_KEYS" style="stroke:#181818;stroke-width:1;"/><polygon fill="#181818" points="163.2,1705.3669,155.3011,1699.4841,158.3226,1704.2664,153.5403,1707.2879,163.2,1705.3669" style="stroke:#181818;stroke-width:1;"/></g><!--link user to SRV_PRIMARY--><g class="link" data-entity-1="user" data-entity-2="SRV_PRIMARY" data-source-line="78" data-uid="lnk57" id="link_user_SRV_PRIMARY"><path d="M37.03,1061.4369 C41.03,1204.4969 57.92,1693.4069 103.06,1745.2969 C119.17,1763.8069 137.5291,1772.2373 161.3091,1777.0473" fill="none" id="user-to-SRV_PRIMARY" style="stroke:#181818;stroke-width:1;"/><polygon fill="#181818" points="167.19,1778.2369,159.1617,1772.532,162.2892,1777.2456,157.5756,1780.3732,167.19,1778.2369" style="stroke:#181818;stroke-width:1;"/></g><!--link user to ENV_SHOW--><g class="link" data-entity-1="user" data-entity-2="ENV_SHOW" data-source-line="80" data-uid="lnk58" id="link_user_ENV_SHOW"><path d="M37.1,1061.2069 C41.54,1211.9769 60.34,1752.4569 103.06,1815.2969 C125.19,1847.8369 160.4956,1865.4772 192.3656,1876.4272" fill="none" id="user-to-ENV_SHOW" style="stroke:#181818;stroke-width:1;"/><polygon fill="#181818" points="198.04,1878.3769,190.8281,1871.6695,193.3113,1876.7522,188.2286,1879.2354,198.04,1878.3769" style="stroke:#181818;stroke-width:1;"/></g><!--link WF_PUSH to n8n--><g class="link" data-entity-1="WF_PUSH" data-entity-2="n8n" data-source-line="83" data-uid="lnk59" id="link_WF_PUSH_n8n"><path d="M316.05,493.9569 C340.77,498.4469 366.68,507.7469 384.35,526.2969 C396.86,539.4169 380.33,552.7169 392.35,566.2969 C426.17,604.4969 455.12,580.7169 501.35,602.2969 C513.58,608.0069 521.1887,612.1321 532.5587,619.2221" fill="none" id="WF_PUSH-to-n8n" style="stroke:#181818;stroke-width:1;"/><polygon fill="#181818" points="537.65,622.3969,532.1296,614.2406,533.4073,619.7512,527.8966,621.0289,537.65,622.3969" style="stroke:#181818;stroke-width:1;"/><text fill="#000000" font-family="sans-serif" font-size="13" lengthAdjust="spacing" textLength="58.1382" x="417.85" y="562.3638">REST API</text></g><!--link WF_PULL to n8n--><g class="link" data-entity-1="WF_PULL" data-entity-2="n8n" data-source-line="84" data-uid="lnk60" id="link_WF_PULL_n8n"><path d="M318.35,566.1469 C341.98,571.1069 366.6,580.3569 384.35,597.2969 C393.09,605.6469 383.13,615.4669 392.35,623.2969 C432.62,657.4869 490.8381,658.6373 531.5781,654.6773" fill="none" id="WF_PULL-to-n8n" style="stroke:#181818;stroke-width:1;"/><polygon fill="#181818" points="537.55,654.0969,528.2052,650.9864,532.5735,654.5806,528.9792,658.9488,537.55,654.0969" style="stroke:#181818;stroke-width:1;"/><text fill="#000000" font-family="sans-serif" font-size="13" lengthAdjust="spacing" textLength="58.1382" x="417.85" y="619.3638">REST API</text></g><!--link WF_SERVER to n8n--><g class="link" data-entity-1="WF_SERVER" data-entity-2="n8n" data-source-line="85" data-uid="lnk61" id="link_WF_SERVER_n8n"><path d="M290.29,653.6969 C341.73,672.0469 427.81,695.4669 501.35,680.2969 C513.59,677.7769 520.7941,675.5441 532.1641,670.5641" fill="none" id="WF_SERVER-to-n8n" style="stroke:#181818;stroke-width:1;"/><polygon fill="#181818" points="537.66,668.1569,527.8113,668.1037,533.08,670.1629,531.0209,675.4316,537.66,668.1569" style="stroke:#181818;stroke-width:1;"/><text fill="#000000" font-family="sans-serif" font-size="13" lengthAdjust="spacing" textLength="58.1382" x="417.85" y="676.3638">REST API</text></g><!--link KEY_TEST to n8n--><g class="link" data-entity-1="KEY_TEST" data-entity-2="n8n" data-source-line="86" data-uid="lnk62" id="link_KEY_TEST_n8n"><path d="M311.4,1393.7469 C337.18,1389.8369 365.04,1381.0369 384.35,1362.2969 C482.07,1267.4369 548.3986,845.009 568.4986,701.359" fill="none" id="KEY_TEST-to-n8n" style="stroke:#181818;stroke-width:1;"/><polygon fill="#181818" points="569.33,695.4169,564.1214,703.7758,568.6371,700.3686,572.0442,704.8843,569.33,695.4169" style="stroke:#181818;stroke-width:1;"/><text fill="#000000" font-family="sans-serif" font-size="13" lengthAdjust="spacing" textLength="58.1382" x="417.85" y="1077.3638">REST API</text></g><!--link WF_ADD to db--><g class="link" data-entity-1="WF_ADD" data-entity-2="db" data-source-line="89" data-uid="lnk63" id="link_WF_ADD_db"><path d="M312.59,143.3169 C368.47,149.7669 447.07,166.4369 501.35,209.2969 C532.54,233.9269 551.1196,269.9568 562.5796,298.5768" fill="none" id="WF_ADD-to-db" style="stroke:#181818;stroke-width:1;stroke-dasharray:7.0,7.0;"/><polygon fill="#181818" points="564.81,304.1469,565.1778,294.3049,562.9514,299.5052,557.7511,297.2787,564.81,304.1469" style="stroke:#181818;stroke-width:1;"/><text fill="#000000" font-family="sans-serif" font-size="13" lengthAdjust="spacing" textLength="107.0786" x="393.35" y="156.3638">stores metadata</text></g><!--link WF_LIST to db--><g class="link" data-entity-1="WF_LIST" data-entity-2="db" data-source-line="90" data-uid="lnk64" id="link_WF_LIST_db"><path d="M307.38,215.6969 C361.14,224.7269 439.48,242.2969 501.35,274.2969 C516.47,282.1169 526.7913,289.4626 539.2013,300.1926" fill="none" id="WF_LIST-to-db" style="stroke:#181818;stroke-width:1;stroke-dasharray:7.0,7.0;"/><polygon fill="#181818" points="543.74,304.1169,539.5481,295.2046,539.9577,300.8466,534.3157,301.2563,543.74,304.1169" style="stroke:#181818;stroke-width:1;"/><text fill="#000000" font-family="sans-serif" font-size="13" lengthAdjust="spacing" textLength="36.334" x="428.85" y="230.3638">reads</text></g><!--link WF_REMOVE to db--><g class="link" data-entity-1="WF_REMOVE" data-entity-2="db" data-source-line="91" data-uid="lnk65" id="link_WF_REMOVE_db"><path d="M316.63,287.5169 C368.24,294.5569 439.33,305.0969 501.35,317.2969 C510.98,319.1969 515.4136,320.1053 525.1436,322.4253" fill="none" id="WF_REMOVE-to-db" style="stroke:#181818;stroke-width:1;stroke-dasharray:7.0,7.0;"/><polygon fill="#181818" points="530.98,323.8169,523.1532,317.8385,526.1163,322.6572,521.2977,325.6204,530.98,323.8169" style="stroke:#181818;stroke-width:1;"/><text fill="#000000" font-family="sans-serif" font-size="13" lengthAdjust="spacing" textLength="47.728" x="423.35" y="295.3638">deletes</text></g><!--link DB_INIT to db--><g class="link" data-entity-1="DB_INIT" data-entity-2="db" data-source-line="92" data-uid="lnk66" id="link_DB_INIT_db"><path d="M290.58,735.8269 C322.84,725.1369 363.77,705.6769 384.35,672.2969 C401.73,644.0969 371.16,399.7569 392.35,374.2969 C401.22,363.6369 473.6415,350.8007 524.9815,342.8007" fill="none" id="DB_INIT-to-db" style="stroke:#181818;stroke-width:1;stroke-dasharray:7.0,7.0;"/><polygon fill="#181818" points="530.91,341.8769,521.4015,339.3103,525.9696,342.6467,522.6332,347.2149,530.91,341.8769" style="stroke:#181818;stroke-width:1;"/><text fill="#000000" font-family="sans-serif" font-size="13" lengthAdjust="spacing" textLength="103.2446" x="395.35" y="343.3638">creates schema</text></g><!--link DB_BACKUP to db--><g class="link" data-entity-1="DB_BACKUP" data-entity-2="db" data-source-line="93" data-uid="lnk67" id="link_DB_BACKUP_db"><path d="M308.04,884.6569 C335.83,881.6669 366.2,872.7869 384.35,850.2969 C398.97,832.1769 378.22,449.7969 392.35,431.2969 C422.99,391.1669 457,423.4369 501.35,399.2969 C517.2,390.6769 528.2298,382.2742 540.8998,370.6442" fill="none" id="DB_BACKUP-to-db" style="stroke:#181818;stroke-width:1;stroke-dasharray:7.0,7.0;"/><polygon fill="#181818" points="545.32,366.5869,535.9848,369.7261,541.6365,369.968,541.3946,375.6197,545.32,366.5869" style="stroke:#181818;stroke-width:1;"/><text fill="#000000" font-family="sans-serif" font-size="13" lengthAdjust="spacing" textLength="49.1118" x="422.35" y="395.3638">exports</text></g><!--link KEY_ADD to db--><g class="link" data-entity-1="KEY_ADD" data-entity-2="db" data-source-line="94" data-uid="lnk68" id="link_KEY_ADD_db"><path d="M290.69,1044.8869 C322.99,1034.2369 363.95,1014.7869 384.35,981.2969 C398.6,957.9069 375.76,510.0869 392.35,488.2969 C422.93,448.1269 461.25,486.9669 501.35,456.2969 C531.6,433.1569 550.0384,399.3968 561.7584,371.8868" fill="none" id="KEY_ADD-to-db" style="stroke:#181818;stroke-width:1;stroke-dasharray:7.0,7.0;"/><polygon fill="#181818" points="564.11,366.3669,556.9026,373.079,562.1503,370.9668,564.2625,376.2146,564.11,366.3669" style="stroke:#181818;stroke-width:1;"/><text fill="#000000" font-family="sans-serif" font-size="13" lengthAdjust="spacing" textLength="39.9395" x="427.35" y="452.3638">stores</text></g><!--link SRV_CREATE to db--><g class="link" data-entity-1="SRV_CREATE" data-entity-2="db" data-source-line="95" data-uid="lnk69" id="link_SRV_CREATE_db"><path d="M292.83,1490.9169 C324.84,1479.9069 364.53,1460.3069 384.35,1427.2969 C396.96,1406.2869 377.58,564.8469 392.35,545.2969 C422.79,505.0169 463.74,546.9869 501.35,513.2969 C544.74,474.4169 562.343,412.052 569.873,372.312" fill="none" id="SRV_CREATE-to-db" style="stroke:#181818;stroke-width:1;stroke-dasharray:7.0,7.0;"/><polygon fill="#181818" points="570.99,366.4169,565.3844,374.5149,570.0592,371.3295,573.2445,376.0042,570.99,366.4169" style="stroke:#181818;stroke-width:1;"/><text fill="#000000" font-family="sans-serif" font-size="13" lengthAdjust="spacing" textLength="39.9395" x="427.35" y="509.3638">stores</text></g><!--SRC=[XLLDRwCm4BtxLrYvxAazhweg4W6gef8s2oHLJv4BJc85S6GxQREh_Uzh6mCsqEub2c-UvyFpPbpYdO22GaRs1m4Bmd0k2Aq1FvBwX1Ygu0dbHxJ7gRYM62epglSbjWWe5vGrPlI1EQqm0888-Ld_h6yAV2hf5QuvXZwIFm51UtaA07qCplmuKaOsWuZ3i_pJ6kHXc69sCIRrUN-FFmLcDIhdSr0WWTwLnrdwAoP2UbveOl4kUVpA1Qua2tGPQuycdHdy0s1R6PozKdRSbVG3Bb4jWGhNec50bL6kWtX50JyCJyTvVTXwGU2IOi95n-8jBOxIpEKbkA8NFFANXCkNJUXIKunOVXWxJKClyHy7t8EiWGiaP1eaxwcPbwKkStNc1zLstb-m9AxMwUEGLvPmnsWrOiRnHEaDQIhPP1Ccyi1VODzxqBRmctkFQY88Aidlhi71OXizHzb4wS52Lt_cBKzLlXwKlf3HpoVBsSBpdzOhb-JJIcOfB9R_ibnvVZQgmLj5y0bV_oSTHJlYg_Rs5Bvz8Ht3uXrjB9q0brYAVUWl2ECm6qZ7awDyGPBi1FQpQECDgG56K-GWdAPdk4-s8sTXEhwUPeA_knsVOHNMqbUQRBP-4ewYMXBZ7V7BuHeud9mjFIzDXjsrAx8i9nsEeO0dHYh4hbtHYhbAegMNl8tg3kiBORIUh5Y7pMcz8tlj9tpURDF7brVjHBhveHSY9BNSTKYlOmxKPeGtD_DsxTZV-WfimDHgGsPTE91U2pQYvzy5v9YxRlGWzrWxZ3PWfiw6p8pPK3jGFTZEXGEunLbITu-rCXqmft6jr1wozEPWRcXBH0wcjU8WhIPwjEkmx6redZ3Ol55kcqqJz27rujt1HEQgHWsOTdnXQXepPMmBdhB9TBeTFCn3TWBUtixLUtedrofbcCCA2wJUNM1KrnFa41VwM7D5lQ7G-ue38vJUaEkvvv3d1rmXq8caP-3F4sM20wEBOJQWxzl8z0y0]--></g></svg>
