<?xml version="1.0" encoding="UTF-8"?>
<!DOCTYPE svg  PUBLIC '-//W3C//DTD SVG 1.1//EN'  'http://www.w3.org/Graphics/SVG/1.1/DTD/svg11.dtd'>
<!-- Uploaded to: SVG Repo, www.svgrepo.com, Generator: SVG Repo Mixer Tools -->
<svg id="Layer_1" width="800px" height="800px" enable-background="new 0 0 72 72" fill="#000000" version="1.1" viewBox="0 0 72 72" xml:space="preserve" xmlns="http://www.w3.org/2000/svg">

	<path d="m67.318 27.11-21.243-21.244c-0.543-0.55-1.984-2.011-3.888-2.011-1.301 0-3.082 0.65-4.194 3.831-1.642 5.453-4.306 14.191-4.968 16.082l-28.16 26.181c-1.224 1.224-1.87 3.007-1.771 4.895 0.093 1.778 0.833 3.485 2.031 4.684l6.74 6.74c1.21 1.211 2.836 1.877 4.578 1.877 1.75 0 3.457-0.705 4.632-1.879l28.235-26.252c1.422-0.609 8.998-3.142 15.713-5.318 0.11-0.035 0.218-0.081 0.32-0.136 1.678-0.889 3.268-1.958 3.535-3.744 0.281-1.865-1.105-3.251-1.56-3.706zm-49.019 36.274c-0.482 0.483-1.159 0.761-1.856 0.761-0.674 0-1.295-0.252-1.75-0.707l-6.74-6.74c-0.5-0.5-0.823-1.27-0.865-2.063-0.039-0.755 0.182-1.432 0.553-1.805l28.13-26.154 10.604 10.604-28.076 26.104zm45.32-32.438c-9.872 3.199-13.829 4.579-15.499 5.25l-11.278-11.279c0.62-1.72 1.881-5.779 4.954-15.993 0.205-0.586 0.39-0.882 0.497-1.019 0.162 0.081 0.452 0.282 0.936 0.77 2e-3 4e-3 0.068 0.071 0.072 0.074l21.188 21.189c0.119 0.117 0.207 0.216 0.271 0.296-0.194 0.152-0.537 0.385-1.141 0.712z"/>
	<path d="m46.137 14.412c-0.76-0.759-1.468-0.792-1.928-0.688-0.764 0.175-1.35 0.827-1.738 1.936-0.014 0.039-0.025 0.079-0.033 0.12-0.535 2.476-1.154 5.232-1.299 5.703-0.168 0.367-0.102 0.815 0.2 1.119 0.195 0.197 0.452 0.296 0.71 0.296 0.254 0 0.51-0.096 0.704-0.29 0.263-0.26 0.325-0.322 1.624-6.342 0.098-0.263 0.191-0.428 0.257-0.521 0.026 0.02 0.056 0.047 0.089 0.081l1.668 1.668c0.392 0.391 1.023 0.391 1.414 0s0.391-1.023 0-1.414l-1.668-1.668z"/>
	<path d="m49.926 18.202c-0.391-0.391-1.023-0.391-1.414 0s-0.391 1.023 0 1.414l0.707 0.707c0.195 0.195 0.451 0.293 0.707 0.293s0.512-0.097 0.707-0.293c0.391-0.391 0.391-1.023 0-1.414l-0.707-0.707z"/>
	<path d="m59.118 15.253c0.512 0 1.024-0.195 1.414-0.586l1.413-1.414c0.781-0.781 0.781-2.047 0-2.828-0.779-0.781-2.047-0.781-2.827 0l-1.414 1.414c-0.781 0.781-0.781 2.047 0 2.828 0.39 0.391 0.901 0.586 1.414 0.586z"/>
	<path d="m53.461 9.597c0.512 0 1.023-0.196 1.414-0.586l1.414-1.415c0.781-0.781 0.779-2.048-1e-3 -2.829-0.78-0.78-2.047-0.779-2.828 1e-3l-1.414 1.415c-0.78 0.781-0.78 2.048 1e-3 2.829 0.391 0.39 0.902 0.585 1.414 0.585z"/>
	<path d="m64.775 20.909c0.512 0 1.023-0.195 1.414-0.586l1.414-1.414c0.78-0.781 0.78-2.047 0-2.828s-2.049-0.781-2.828 0l-1.414 1.414c-0.781 0.781-0.781 2.047 0 2.828 0.39 0.391 0.903 0.586 1.414 0.586z"/>
	<path d="m36.867 35.981c-0.75-0.75-2.08-0.74-2.83 0-0.369 0.37-0.579 0.889-0.579 1.41 0 0.529 0.21 1.051 0.579 1.42 0.381 0.371 0.891 0.58 1.421 0.58 0.52 0 1.039-0.209 1.409-0.58 0.369-0.379 0.591-0.891 0.591-1.42 0-0.52-0.222-1.04-0.591-1.41z"/>

</svg>
