####
#
# OBJ File Generated by Meshlab
#
####
# Object pincette_right_collider.obj
#
# Vertices: 87
# Faces: 170
#
####
vn 1.6649284442543835 -1.4578850144803879 5.2690259527874765
v 0.0025943759828806 -0.0404232665896416 0.0750586986541748
vn 3.7728679732587587 -3.2500318496525242 3.5026236365713559
v 0.0039182566106319 -0.0438102371990681 0.0720316767692566
vn 0.6746337258303912 1.0344343143114691 5.9509086918126384
v 0.0033143945038319 0.0397132635116577 0.0753259062767029
vn 1.8417116716699573 -5.4371228485413292 0.4635663862330141
v 0.0014956872910261 -0.0571961849927902 0.0497524179518223
vn 3.8062471362304793 -4.3978613152133015 1.2746443025212415
v 0.0044615566730499 -0.0545337647199631 0.0537948682904243
vn 3.7662778539902724 -4.4586857380476737 -0.8722448648003929
v 0.0049712359905243 -0.0546240173280239 0.0375089645385742
vn 5.6564129044049229 -0.4286390865478505 -2.5042015663151096
v 0.0308584179729223 -0.0015567474765703 0.0159208141267300
vn 0.7038349580032799 6.0649715709817169 -0.6211194136169287
v 0.0084362681955099 0.0562368631362915 0.0399401783943176
vn 2.2587768260078969 5.6591515351553099 -0.0878577522870288
v 0.0253695305436850 0.0526590980589390 0.0371590256690979
vn 1.1593446855520035 3.9410693954034435 -4.4044131963500561
v 0.0222373101860285 0.0462722145020962 0.0220572352409363
vn 1.6507917798003549 5.2929278777556350 -2.0249460857223585
v 0.0245292279869318 0.0521735548973083 0.0310429334640503
vn 2.9626764035764319 3.9962617760874402 -3.3798342687571674
v 0.0288001392036676 0.0473432578146458 0.0265334844589233
vn 2.9535609111901069 2.8822090321065441 -4.3885332287390053
v 0.0284517500549555 0.0424417257308960 0.0219374336302280
vn 5.0470927598852846 -1.7225366307517156 -2.9080421449666032
v 0.0276993643492460 -0.0079442793503404 0.0116778649389744
vn 4.4912862111705030 -3.1358212430976717 -2.7509682813715979
v 0.0230887066572905 -0.0153325144201517 0.0101073943078518
vn 1.8068110344039550 -4.0175059249986242 -3.8604035059919122
v 0.0029092039912939 -0.0486735664308071 0.0240195505321026
vn 1.3986535482153575 -2.0939011719241356 -4.9213348926859499
v 0.0100519880652428 -0.0231252871453762 0.0055896118283272
vn 2.4483400430031925 -4.3614504461347643 -2.4572074304270206
v 0.0036479458212852 -0.0526665970683098 0.0294804573059082
vn 6.1532408840382464 -0.5391941306219432 -0.0026207837997754
v 0.0391910895705223 -0.0037439982406795 0.0485649146139622
vn 5.5149545786864467 2.1899567622161991 0.1528664883859261
v 0.0374106913805008 0.0422481857240200 0.0561120547354221
vn 5.5890916768711101 -1.0463226911417172 1.8578410253865791
v 0.0375239998102188 -0.0065387403592467 0.0619559250771999
vn 5.7270900823115207 -1.1369772181971736 -1.5407839926155504
v 0.0376445800065994 -0.0064315716736019 0.0356209240853786
vn 5.7797669847005535 1.1100780629094873 -1.0505044007157469
v 0.0377599149942398 0.0396139062941074 0.0374382734298706
vn 5.8317778012671520 0.4991919304409999 1.4824284200211293
v 0.0378807932138443 0.0356968082487583 0.0615797601640224
vn 5.3796371627363504 -2.4817197764842489 -0.7906529699208179
v 0.0373353585600853 -0.0111451027914882 0.0406910777091980
vn 5.4064246108200704 -2.4626540907057746 0.7167627773720507
v 0.0373995527625084 -0.0110096829012036 0.0563084445893764
vn 3.3910373820314388 -0.7163007048789547 4.2270193356490493
v 0.0341029390692711 -0.0051032230257988 0.0687384307384491
vn 3.0462117553733865 1.2806792610502946 3.9017002414267576
v 0.0341119319200516 0.0406695082783699 0.0686224699020386
vn 2.9005719150838023 3.3012856256264289 1.7337011952427881
v 0.0341238528490067 0.0478956662118435 0.0634350180625916
vn 4.0519529138663817 3.3433080145781453 -1.2885525955627239
v 0.0340362861752510 0.0474570989608765 0.0330205559730530
vn 4.5745192094666756 1.5040123339208447 -3.4434478769310743
v 0.0315726473927498 0.0387658476829529 0.0226516760885715
vn 4.5642262762316204 -2.8731235755909013 2.6957797674418478
v 0.0341022163629532 -0.0123591339215636 0.0640069246292114
vn -1.3954668788927989 3.2253701521301612 3.3084153186085663
v -0.0200376939028502 0.0521536991000175 0.0719339251518250
vn -2.1476105361898927 -4.7726425325395923 1.8069711872676648
v -0.0206528566777706 -0.0536156818270683 0.0683206841349602
vn -1.5645244933460805 -3.1346129271042500 3.6355025703590123
v -0.0203331969678402 -0.0516821108758450 0.0721191763877869
vn -2.3215164946589919 4.7938933632680119 1.5968521114736904
v -0.0210760086774826 0.0535551905632019 0.0674925446510315
vn -5.2607060475563285 -2.9228913005131885 -0.7203150350526710
v -0.0264691933989525 -0.0501229129731655 0.0379974320530891
vn -3.6522932787925582 2.7357916197223875 -3.9819949850713874
v -0.0249611493200064 0.0409299060702324 0.0222834981977940
vn -0.9122700005957206 5.5596371306461432 -2.0420603467805267
v -0.0170720089226961 0.0553562007844448 0.0330050587654114
vn -1.3516984193788859 3.5627169606125162 -4.7775311176669835
v -0.0163761228322983 0.0459567904472351 0.0211386084556580
vn -5.9107300071896347 -1.1702297017926016 -0.6559846689764175
v -0.0282806456089020 -0.0435104928910732 0.0330801084637642
vn -5.5888609365658173 -1.2852497503624913 -1.9470813893614336
v -0.0274522565305233 -0.0390073023736477 0.0249650478363037
vn -5.1773936533612819 -2.7952024189226865 0.6893834236357964
v -0.0264581628143787 -0.0510886348783970 0.0581519678235054
vn -4.5437917070642788 -2.8257936356097018 -2.6093785541099281
v -0.0258675459772348 -0.0458035431802273 0.0273526385426521
vn -5.0690703664295480 -1.8969879857487066 1.6766519573766114
v -0.0276679024100304 -0.0431555546820164 0.0711416006088257
vn 1.2543911924809732 -5.7146239919622772 -1.3126367073533878
v 0.0013061463832855 -0.0562534853816032 0.0372205972671509
vn -0.9378753900616190 -4.6477956379777545 -3.6724665936716159
v -0.0163460671901703 -0.0518172904849052 0.0265221074223518
vn -1.1863429882050998 -5.3498016192476960 -2.3556202210073960
v -0.0172338783740997 -0.0550531111657619 0.0322142876684666
vn -5.0525887746899638 2.6482939609563467 -1.8563308468055035
v -0.0264909714460373 0.0467428453266621 0.0302198007702827
vn -3.3430064859752950 3.4988037439288773 -3.6285677555900437
v -0.0233157705515623 0.0469106994569302 0.0255457200109959
vn -1.1369940187257102 5.8646170956838590 -0.5784161864714923
v -0.0186737030744553 0.0570927783846855 0.0420921482145786
vn -3.1325257237180217 4.4313375907125909 -2.6161333899859147
v -0.0218784660100937 0.0520231686532497 0.0304460600018501
vn -2.7997972036591738 5.2122172158101048 -1.5101898598838033
v -0.0207714904099703 0.0552794896066189 0.0368846096098423
vn -3.8861731186155479 -2.0785840105554780 -3.8705854561793824
v -0.0254719592630863 -0.0364993251860142 0.0199641585350037
vn -1.2193850830934883 -5.7853798217842449 -0.9361938946269200
v -0.0180407445877790 -0.0571712814271450 0.0401574969291687
vn -3.0903054314965734 -3.9188413151995265 -3.3678043648518363
v -0.0225084647536278 -0.0491970106959343 0.0270635001361370
vn -1.2582463055976711 -3.5994682968677969 -4.6922445893317200
v -0.0164216477423906 -0.0463221594691277 0.0214033797383308
vn -3.5814655565050240 -4.8449030350391773 -0.5549100024116096
v -0.0225375536829233 -0.0554446503520012 0.0426486805081367
vn -5.1478114313401724 1.3443654941020546 -2.3709913036046637
v -0.0269961804151535 0.0380683466792107 0.0229590572416782
vn -6.0200513691965138 1.0770675472657694 -0.4308430627253967
v -0.0280622597783804 0.0448769852519035 0.0360466279089451
vn -1.0978864808174300 4.6170565639452281 -3.7461597170589771
v -0.0158820617944002 0.0516729317605495 0.0262266471982002
vn 0.0752434765626250 3.9210261153912702 -4.8053485738567758
v -0.0009412700310349 0.0464597307145596 0.0205264687538147
vn -5.4536619729681712 -0.4303543340987520 -2.0665054907935390
v -0.0272465143352747 -0.0008743863436393 0.0090149678289890
vn -2.0708821259204369 -0.9430989165540995 5.0569210532594351
v -0.0261283144354820 -0.0395974554121494 0.0751079320907593
vn -4.6749780849768605 -1.0216842029532913 2.4705646718713021
v -0.0277083739638329 -0.0401429533958435 0.0735782384872437
vn -1.3806553719406118 -5.7808232018008239 0.4554573029805132
v -0.0191152356564999 -0.0572955608367920 0.0503731966018677
vn -3.9943583826454172 -4.4352079407672269 0.4058135992624384
v -0.0245299525558949 -0.0540403723716736 0.0544096902012825
vn -2.6069769082344787 0.8011380352824038 4.2944922179661962
v -0.0266335960477591 0.0397430546581745 0.0749066472053528
vn -4.9161309065602419 1.5194540092075806 1.9358287265118064
v -0.0278911348432302 0.0416468270123005 0.0723409056663513
vn 0.6517313721192592 6.0907231843846494 0.7942254953820312
v 0.0031826002523303 0.0564975738525391 0.0521825551986694
vn -2.0426635710459795 5.3378357020197624 0.4547989211793828
v -0.0210251063108444 0.0566888414323330 0.0510539487004280
vn -4.9351771619424314 2.9689039374673647 0.5778761485129421
v -0.0266153588891029 0.0511796958744526 0.0576300099492073
vn 0.2001178118044002 5.3055592638075151 -2.9302739237377327
v -0.0002013910561800 0.0532991811633110 0.0279045775532722
vn -3.6196098737310787 -4.5182614957743201 -1.7310326099910864
v -0.0230143349617720 -0.0533164702355862 0.0350892581045628
vn -3.8059199661269627 4.7235153774836425 -0.6057038646681847
v -0.0230768099427223 0.0548568889498711 0.0417478680610657
vn -4.9396792990019183 3.3141926908810797 -0.8950642866103173
v -0.0259433798491955 0.0511222966015339 0.0380620434880257
vn 0.3708420590073503 3.8628818525051760 3.5742075486330025
v -0.0042071179486811 0.0524865910410881 0.0715858936309814
vn 1.1650857110273090 -3.5440138135471724 3.2307992535444066
v -0.0042205126956105 -0.0525217615067959 0.0716513395309448
vn 0.0216612842214069 2.6360989190653799 -5.5753946596880963
v 0.0001939013600349 0.0253736320883036 0.0069997981190681
vn 3.1151289093747923 -1.9839709732103805 -4.4242355796067923
v 0.0219434071332216 -0.0138579541817307 0.0073422864079475
vn -0.6335223768169044 -1.9581863611720167 -5.3615735950311203
v -0.0072887311689556 -0.0252388101071119 0.0055317282676697
vn -2.9948260392584380 -1.3871857946451953 -4.9004021782614107
v -0.0220650136470795 -0.0133821917697787 0.0071798600256443
vn -1.6995091598748220 1.5300815597055335 -5.1200810712192633
v -0.0176989864557981 0.0195392891764641 0.0055826976895332
vn 0.8660905505325447 1.6704329481623121 -5.6068857377158512
v 0.0145360920578241 0.0205497145652771 0.0055990889668465
vn 2.0124002201754845 0.9635440285181440 -5.3253423202274153
v 0.0221047531813383 0.0128261456266046 0.0055996775627136
vn 2.8217529902718108 -0.0063932767499860 -4.4239259688250314
v 0.0254480373114347 0.0029652765952051 0.0056000426411629
vn -2.9089755351122384 0.2132510716934169 -4.1233337884229284
v -0.0254547968506813 0.0028796768747270 0.0055821016430855
# 87 vertices, 0 vertices normals

f 11//11 12//12 10//10
f 73//73 11//11 10//10
f 6//6 46//46 18//18
f 31//31 13//13 12//12
f 56//56 47//47 48//48
f 47//47 18//18 48//48
f 57//57 47//47 56//56
f 32//32 21//21 27//27
f 56//56 54//54 57//57
f 52//52 39//39 61//61
f 41//41 44//44 37//37
f 44//44 42//42 54//54
f 44//44 54//54 56//56
f 56//56 48//48 74//74
f 61//61 40//40 50//50
f 65//65 41//41 45//45
f 14//14 80//80 86//86
f 80//80 17//17 86//86
f 63//63 42//42 41//41
f 50//50 38//38 49//49
f 17//17 80//80 16//16
f 82//82 87//87 81//81
f 29//29 24//24 20//20
f 54//54 81//81 57//57
f 68//68 33//33 69//69
f 37//37 74//74 58//58
f 79//79 84//84 83//83
f 62//62 84//84 79//79
f 68//68 65//65 64//64
f 15//15 16//16 80//80
f 43//43 37//37 67//67
f 78//78 64//64 35//35
f 74//74 48//48 55//55
f 15//15 18//18 16//16
f 72//72 69//69 36//36
f 4//4 6//6 5//5
f 11//11 8//8 9//9
f 31//31 30//30 23//23
f 36//36 69//69 33//33
f 31//31 86//86 85//85
f 71//71 72//72 36//36
f 69//69 72//72 60//60
f 8//8 11//11 73//73
f 5//5 26//26 32//32
f 6//6 15//15 25//25
f 54//54 82//82 81//81
f 13//13 10//10 12//12
f 37//37 44//44 74//74
f 36//36 33//33 77//77
f 18//18 47//47 16//16
f 50//50 49//49 52//52
f 63//63 87//87 82//82
f 19//19 26//26 25//25
f 76//76 53//53 52//52
f 45//45 34//34 35//35
f 38//38 40//40 83//83
f 52//52 49//49 76//76
f 1//1 78//78 2//2
f 30//30 20//20 23//23
f 28//28 77//77 3//3
f 38//38 59//59 49//49
f 66//66 78//78 34//34
f 44//44 41//41 42//42
f 60//60 59//59 63//63
f 55//55 48//48 46//46
f 49//49 59//59 60//60
f 78//78 5//5 2//2
f 14//14 7//7 22//22
f 46//46 6//6 4//4
f 54//54 42//42 63//63
f 29//29 28//28 24//24
f 31//31 85//85 13//13
f 60//60 76//76 49//49
f 7//7 14//14 86//86
f 41//41 43//43 45//45
f 20//20 9//9 29//29
f 37//37 43//43 41//41
f 52//52 53//53 39//39
f 48//48 18//18 46//46
f 75//75 51//51 53//53
f 66//66 67//67 58//58
f 72//72 76//76 60//60
f 17//17 87//87 84//84
f 64//64 65//65 35//35
f 24//24 23//23 20//20
f 40//40 38//38 50//50
f 19//19 21//21 26//26
f 73//73 61//61 39//39
f 30//30 31//31 12//12
f 73//73 62//62 61//61
f 81//81 17//17 16//16
f 83//83 87//87 59//59
f 70//70 51//51 71//71
f 43//43 34//34 45//45
f 35//35 65//65 45//45
f 4//4 55//55 46//46
f 13//13 85//85 84//84
f 27//27 24//24 28//28
f 32//32 26//26 21//21
f 31//31 7//7 86//86
f 72//72 75//75 76//76
f 27//27 3//3 1//1
f 19//19 22//22 23//23
f 39//39 53//53 51//51
f 19//19 24//24 21//21
f 55//55 58//58 74//74
f 29//29 70//70 77//77
f 76//76 75//75 53//53
f 74//74 44//44 56//56
f 61//61 50//50 52//52
f 68//68 69//69 65//65
f 55//55 66//66 58//58
f 9//9 70//70 29//29
f 71//71 51//51 75//75
f 1//1 32//32 27//27
f 77//77 68//68 3//3
f 79//79 40//40 62//62
f 5//5 32//32 2//2
f 7//7 23//23 22//22
f 12//12 11//11 30//30
f 64//64 3//3 68//68
f 62//62 40//40 61//61
f 54//54 63//63 82//82
f 63//63 59//59 87//87
f 37//37 58//58 67//67
f 25//25 5//5 6//6
f 78//78 4//4 5//5
f 34//34 67//67 66//66
f 13//13 84//84 10//10
f 22//22 15//15 14//14
f 38//38 83//83 59//59
f 14//14 15//15 80//80
f 35//35 34//34 78//78
f 77//77 28//28 29//29
f 9//9 30//30 11//11
f 67//67 34//34 43//43
f 19//19 25//25 22//22
f 71//71 75//75 72//72
f 62//62 10//10 84//84
f 78//78 1//1 64//64
f 73//73 39//39 51//51
f 51//51 8//8 73//73
f 6//6 18//18 15//15
f 70//70 71//71 77//77
f 71//71 36//36 77//77
f 66//66 4//4 78//78
f 41//41 65//65 63//63
f 65//65 69//69 63//63
f 69//69 60//60 63//63
f 20//20 30//30 9//9
f 85//85 86//86 84//84
f 86//86 17//17 84//84
f 17//17 81//81 87//87
f 87//87 83//83 84//84
f 24//24 19//19 23//23
f 73//73 10//10 62//62
f 47//47 57//57 16//16
f 57//57 81//81 16//16
f 70//70 8//8 51//51
f 4//4 66//66 55//55
f 27//27 21//21 24//24
f 31//31 23//23 7//7
f 27//27 28//28 3//3
f 9//9 8//8 70//70
f 1//1 2//2 32//32
f 77//77 33//33 68//68
f 79//79 83//83 40//40
f 64//64 1//1 3//3
f 25//25 26//26 5//5
f 22//22 25//25 15//15
# 170 faces, 0 coords texture

# End of File
