<svg width="704" height="151" viewBox="0 0 704 151" fill="none" xmlns="http://www.w3.org/2000/svg">
<path d="M380.358 73V22.0909H396.043C399.258 22.0909 402.026 22.7206 404.346 23.9801C406.666 25.2396 408.447 26.9879 409.69 29.2251C410.933 31.4458 411.555 34.031 411.555 36.9808C411.555 39.8975 410.933 42.4661 409.69 44.6868C408.447 46.8909 406.666 48.6143 404.346 49.8572C402.042 51.1001 399.283 51.7216 396.068 51.7216H382.023V48.8132H395.994C398.612 48.8132 400.849 48.3243 402.705 47.3466C404.561 46.3688 405.987 45.0017 406.981 43.245C407.975 41.4718 408.472 39.3838 408.472 36.9808C408.472 34.5613 407.975 32.4567 406.981 30.6669C405.987 28.8606 404.553 27.4602 402.68 26.4659C400.824 25.4716 398.587 24.9744 395.969 24.9744H383.465V73H380.358ZM401.263 49.9318L413.792 73H410.212L397.759 49.9318H401.263ZM422.571 73V22.0909H425.678V70.1165H450.536V73H422.571Z" fill="black"/>
<rect x="272" width="92" height="92" rx="11" fill="black"/>
<path d="M319.932 23.4545H328.364V53.8636C328.364 57.197 327.576 60.1288 326 62.6591C324.439 65.1894 322.242 67.1667 319.409 68.5909C316.576 70 313.265 70.7045 309.477 70.7045C305.674 70.7045 302.356 70 299.523 68.5909C296.689 67.1667 294.492 65.1894 292.932 62.6591C291.371 60.1288 290.591 57.197 290.591 53.8636V23.4545H299.023V53.1591C299.023 55.0985 299.447 56.8258 300.295 58.3409C301.159 59.8561 302.371 61.0455 303.932 61.9091C305.492 62.7576 307.341 63.1818 309.477 63.1818C311.614 63.1818 313.462 62.7576 315.023 61.9091C316.598 61.0455 317.811 59.8561 318.659 58.3409C319.508 56.8258 319.932 55.0985 319.932 53.1591V23.4545ZM345.96 23.4545V70H337.528V23.4545H345.96Z" fill="white"/>
<path d="M3.15341 144V122.182H9.87571C11.2536 122.182 12.4396 122.452 13.4339 122.991C14.4283 123.531 15.1918 124.281 15.7244 125.239C16.2571 126.191 16.5234 127.299 16.5234 128.563C16.5234 129.813 16.2571 130.914 15.7244 131.866C15.1918 132.81 14.4283 133.549 13.4339 134.082C12.4467 134.614 11.2642 134.881 9.88636 134.881H3.86719V133.634H9.8544C10.9766 133.634 11.9354 133.425 12.7308 133.006C13.5263 132.587 14.1371 132.001 14.5632 131.248C14.9893 130.488 15.2024 129.593 15.2024 128.563C15.2024 127.526 14.9893 126.624 14.5632 125.857C14.1371 125.083 13.5227 124.483 12.7202 124.057C11.9247 123.631 10.9659 123.418 9.84375 123.418H4.48509V144H3.15341ZM12.1129 134.114L17.4822 144H15.9482L10.6108 134.114H12.1129ZM26.9923 144.341C25.5151 144.341 24.2295 143.975 23.1358 143.244C22.042 142.512 21.1969 141.511 20.6003 140.239C20.0037 138.968 19.7054 137.519 19.7054 135.893C19.7054 134.259 20.0037 132.803 20.6003 131.525C21.204 130.246 22.0314 129.238 23.0825 128.499C24.1337 127.761 25.3339 127.391 26.6834 127.391C27.5996 127.391 28.4661 127.576 29.2828 127.945C30.1067 128.308 30.8311 128.833 31.4561 129.522C32.0882 130.211 32.5818 131.042 32.9369 132.015C33.2991 132.988 33.4803 134.082 33.4803 135.296V136.106H20.5257V134.923H32.1805C32.1805 133.737 31.9391 132.668 31.4561 131.717C30.9732 130.765 30.3162 130.009 29.4852 129.447C28.6543 128.886 27.7203 128.606 26.6834 128.606C25.5967 128.606 24.6273 128.911 23.775 129.522C22.9298 130.126 22.2587 130.942 21.7615 131.972C21.2714 133.002 21.0158 134.153 20.9945 135.424V135.957C20.9945 137.32 21.2324 138.545 21.7082 139.632C22.1912 140.712 22.8801 141.567 23.775 142.2C24.6699 142.825 25.7423 143.137 26.9923 143.137C27.8872 143.137 28.6507 142.988 29.2828 142.69C29.922 142.384 30.444 142.015 30.8489 141.582C31.2537 141.148 31.5591 140.729 31.7651 140.325L32.9476 140.804C32.699 141.351 32.3119 141.898 31.7864 142.445C31.2679 142.984 30.6074 143.435 29.8048 143.798C29.0094 144.16 28.0719 144.341 26.9923 144.341ZM37.4186 144V127.636H38.7077V144H37.4186ZM38.0685 124.739C37.7844 124.739 37.5358 124.639 37.3227 124.44C37.1168 124.241 37.0138 124 37.0138 123.716C37.0138 123.432 37.1168 123.19 37.3227 122.991C37.5287 122.793 37.7773 122.693 38.0685 122.693C38.3526 122.693 38.5976 122.793 38.8036 122.991C39.0166 123.19 39.1232 123.432 39.1232 123.716C39.1232 124 39.0202 124.241 38.8142 124.44C38.6082 124.639 38.3597 124.739 38.0685 124.739ZM44.8513 133.389V144H43.5516V127.636H44.8193V130.225H44.9472C45.3307 129.38 45.945 128.702 46.7902 128.19C47.6354 127.679 48.6403 127.423 49.8051 127.423C50.906 127.423 51.8719 127.658 52.7028 128.126C53.5409 128.595 54.1943 129.263 54.6631 130.129C55.1389 130.989 55.3768 132.015 55.3768 133.208V144H54.0771V133.261C54.0771 131.869 53.6616 130.751 52.8307 129.906C52.0068 129.053 50.9166 128.627 49.5601 128.627C48.651 128.627 47.8413 128.826 47.1311 129.224C46.4209 129.621 45.8634 130.179 45.4585 130.896C45.0537 131.607 44.8513 132.438 44.8513 133.389ZM66.3571 127.636V128.798H59.1021V127.636H66.3571ZM61.4885 144V125.09C61.4885 124.266 61.6767 123.563 62.0531 122.981C62.4295 122.398 62.9232 121.955 63.5339 121.649C64.1518 121.344 64.8159 121.191 65.5261 121.191C65.9026 121.191 66.2222 121.223 66.4849 121.287C66.7548 121.344 66.9892 121.411 67.1881 121.489L66.8045 122.64C66.6412 122.583 66.4636 122.533 66.2719 122.491C66.0872 122.448 65.867 122.427 65.6114 122.427C64.7875 122.427 64.1092 122.679 63.5766 123.183C63.0439 123.687 62.7776 124.391 62.7776 125.293L62.7669 144H61.4885ZM75.212 144.341C73.8626 144.341 72.6623 143.979 71.6112 143.254C70.56 142.523 69.7326 141.518 69.1289 140.239C68.5252 138.961 68.2234 137.505 68.2234 135.871C68.2234 134.231 68.5252 132.775 69.1289 131.504C69.7326 130.225 70.56 129.22 71.6112 128.489C72.6623 127.757 73.8626 127.391 75.212 127.391C76.5614 127.391 77.7617 127.757 78.8129 128.489C79.864 129.22 80.6914 130.225 81.2951 131.504C81.8988 132.782 82.2006 134.238 82.2006 135.871C82.2006 137.505 81.8988 138.961 81.2951 140.239C80.6914 141.518 79.864 142.523 78.8129 143.254C77.7617 143.979 76.5614 144.341 75.212 144.341ZM75.212 143.137C76.3555 143.137 77.3533 142.814 78.2056 142.168C79.065 141.521 79.729 140.648 80.1978 139.547C80.6737 138.446 80.9116 137.221 80.9116 135.871C80.9116 134.522 80.6737 133.3 80.1978 132.207C79.7219 131.106 79.0579 130.232 78.2056 129.586C77.3533 128.933 76.3555 128.606 75.212 128.606C74.0685 128.606 73.0707 128.933 72.2184 129.586C71.3661 130.232 70.7021 131.106 70.2262 132.207C69.7504 133.3 69.5124 134.522 69.5124 135.871C69.5124 137.221 69.7468 138.446 70.2156 139.547C70.6914 140.648 71.3555 141.521 72.2077 142.168C73.0671 142.814 74.0685 143.137 75.212 143.137ZM86.0777 144V127.636H87.3455V130.193H87.4627C87.8178 129.355 88.4179 128.684 89.2631 128.18C90.1083 127.668 91.0706 127.413 92.1502 127.413C92.2638 127.413 92.3775 127.413 92.4911 127.413C92.6047 127.413 92.7113 127.416 92.8107 127.423V128.734C92.7255 128.727 92.6225 128.716 92.5017 128.702C92.3881 128.68 92.2461 128.67 92.0756 128.67C91.1665 128.67 90.3569 128.865 89.6466 129.256C88.9435 129.646 88.3895 130.186 87.9847 130.875C87.5799 131.557 87.3775 132.338 87.3775 133.219V144H86.0777ZM101.341 144.341C99.9486 144.341 98.7235 143.975 97.6652 143.244C96.607 142.505 95.7796 141.496 95.183 140.218C94.5935 138.94 94.2988 137.491 94.2988 135.871C94.2988 134.252 94.5971 132.803 95.1936 131.525C95.7902 130.246 96.6177 129.238 97.6759 128.499C98.7341 127.761 99.9522 127.391 101.33 127.391C102.367 127.391 103.312 127.604 104.164 128.031C105.023 128.457 105.733 129.05 106.294 129.81C106.863 130.57 107.225 131.45 107.381 132.452H106.06C105.847 131.344 105.314 130.428 104.462 129.703C103.617 128.972 102.576 128.606 101.341 128.606C100.233 128.606 99.2455 128.918 98.379 129.543C97.5125 130.161 96.8307 131.017 96.3336 132.111C95.8364 133.197 95.5878 134.444 95.5878 135.85C95.5878 137.235 95.8293 138.478 96.3123 139.579C96.7952 140.673 97.4699 141.539 98.3364 142.178C99.2029 142.817 100.204 143.137 101.341 143.137C102.143 143.137 102.875 142.977 103.535 142.658C104.203 142.338 104.76 141.884 105.208 141.294C105.655 140.705 105.95 140.016 106.092 139.227H107.413C107.257 140.236 106.902 141.124 106.348 141.891C105.794 142.658 105.087 143.258 104.228 143.691C103.368 144.124 102.406 144.341 101.341 144.341ZM117.626 144.341C116.149 144.341 114.864 143.975 113.77 143.244C112.676 142.512 111.831 141.511 111.234 140.239C110.638 138.968 110.339 137.519 110.339 135.893C110.339 134.259 110.638 132.803 111.234 131.525C111.838 130.246 112.665 129.238 113.717 128.499C114.768 127.761 115.968 127.391 117.317 127.391C118.234 127.391 119.1 127.576 119.917 127.945C120.741 128.308 121.465 128.833 122.09 129.522C122.722 130.211 123.216 131.042 123.571 132.015C123.933 132.988 124.114 134.082 124.114 135.296V136.106H111.16V134.923H122.815C122.815 133.737 122.573 132.668 122.09 131.717C121.607 130.765 120.95 130.009 120.119 129.447C119.288 128.886 118.354 128.606 117.317 128.606C116.231 128.606 115.261 128.911 114.409 129.522C113.564 130.126 112.893 130.942 112.395 131.972C111.905 133.002 111.65 134.153 111.628 135.424V135.957C111.628 137.32 111.866 138.545 112.342 139.632C112.825 140.712 113.514 141.567 114.409 142.2C115.304 142.825 116.376 143.137 117.626 143.137C118.521 143.137 119.285 142.988 119.917 142.69C120.556 142.384 121.078 142.015 121.483 141.582C121.888 141.148 122.193 140.729 122.399 140.325L123.582 140.804C123.333 141.351 122.946 141.898 122.42 142.445C121.902 142.984 121.241 143.435 120.439 143.798C119.643 144.16 118.706 144.341 117.626 144.341ZM127.989 144V127.636H129.256V130.108H129.384C129.697 129.284 130.237 128.631 131.004 128.148C131.771 127.665 132.694 127.423 133.773 127.423C134.96 127.423 135.915 127.707 136.639 128.276C137.371 128.844 137.896 129.614 138.216 130.587H138.333C138.653 129.629 139.224 128.862 140.048 128.286C140.879 127.711 141.902 127.423 143.117 127.423C144.7 127.423 145.908 127.924 146.739 128.925C147.577 129.92 147.996 131.283 147.996 133.016V144H146.696V133.016C146.696 131.653 146.369 130.58 145.716 129.799C145.063 129.018 144.104 128.627 142.84 128.627C141.49 128.627 140.453 129.05 139.729 129.895C139.004 130.74 138.642 131.816 138.642 133.123V144H137.342V132.931C137.342 131.66 137.023 130.626 136.384 129.831C135.744 129.028 134.786 128.627 133.507 128.627C132.641 128.627 131.891 128.826 131.259 129.224C130.634 129.621 130.148 130.168 129.8 130.864C129.459 131.56 129.288 132.359 129.288 133.261V144H127.989ZM159.17 144.341C157.693 144.341 156.408 143.975 155.314 143.244C154.22 142.512 153.375 141.511 152.778 140.239C152.182 138.968 151.884 137.519 151.884 135.893C151.884 134.259 152.182 132.803 152.778 131.525C153.382 130.246 154.21 129.238 155.261 128.499C156.312 127.761 157.512 127.391 158.862 127.391C159.778 127.391 160.644 127.576 161.461 127.945C162.285 128.308 163.009 128.833 163.634 129.522C164.266 130.211 164.76 131.042 165.115 132.015C165.477 132.988 165.658 134.082 165.658 135.296V136.106H152.704V134.923H164.359C164.359 133.737 164.117 132.668 163.634 131.717C163.151 130.765 162.494 130.009 161.663 129.447C160.832 128.886 159.898 128.606 158.862 128.606C157.775 128.606 156.805 128.911 155.953 129.522C155.108 130.126 154.437 130.942 153.94 131.972C153.45 133.002 153.194 134.153 153.173 135.424V135.957C153.173 137.32 153.411 138.545 153.886 139.632C154.369 140.712 155.058 141.567 155.953 142.2C156.848 142.825 157.92 143.137 159.17 143.137C160.065 143.137 160.829 142.988 161.461 142.69C162.1 142.384 162.622 142.015 163.027 141.582C163.432 141.148 163.737 140.729 163.943 140.325L165.126 140.804C164.877 141.351 164.49 141.898 163.964 142.445C163.446 142.984 162.786 143.435 161.983 143.798C161.188 144.16 160.25 144.341 159.17 144.341ZM170.833 133.389V144H169.533V127.636H170.801V130.225H170.928C171.312 129.38 171.926 128.702 172.771 128.19C173.617 127.679 174.622 127.423 175.786 127.423C176.887 127.423 177.853 127.658 178.684 128.126C179.522 128.595 180.176 129.263 180.644 130.129C181.12 130.989 181.358 132.015 181.358 133.208V144H180.058V133.261C180.058 131.869 179.643 130.751 178.812 129.906C177.988 129.053 176.898 128.627 175.541 128.627C174.632 128.627 173.823 128.826 173.112 129.224C172.402 129.621 171.845 130.179 171.44 130.896C171.035 131.607 170.833 132.438 170.833 133.389ZM191.944 127.636V128.798H184.796V127.636H191.944ZM187.214 123.716H188.503V140.133C188.503 140.8 188.631 141.347 188.887 141.773C189.149 142.192 189.49 142.505 189.909 142.711C190.336 142.91 190.79 143.009 191.273 143.009C191.507 143.009 191.71 142.991 191.88 142.956C192.058 142.92 192.225 142.874 192.381 142.817L192.701 144C192.502 144.071 192.282 144.131 192.04 144.181C191.799 144.238 191.514 144.266 191.188 144.266C190.506 144.266 189.86 144.114 189.249 143.808C188.645 143.503 188.155 143.059 187.779 142.477C187.402 141.894 187.214 141.191 187.214 140.367V123.716ZM204.46 144V122.182H216.637V123.418H205.792V132.462H215.625V133.698H205.792V144H204.46ZM221.044 144V127.636H222.333V144H221.044ZM221.694 124.739C221.41 124.739 221.162 124.639 220.949 124.44C220.743 124.241 220.64 124 220.64 123.716C220.64 123.432 220.743 123.19 220.949 122.991C221.154 122.793 221.403 122.693 221.694 122.693C221.978 122.693 222.223 122.793 222.429 122.991C222.642 123.19 222.749 123.432 222.749 123.716C222.749 124 222.646 124.241 222.44 124.44C222.234 124.639 221.985 124.739 221.694 124.739ZM228.477 133.389V144H227.177V127.636H228.445V130.225H228.573C228.956 129.38 229.571 128.702 230.416 128.19C231.261 127.679 232.266 127.423 233.431 127.423C234.532 127.423 235.498 127.658 236.329 128.126C237.167 128.595 237.82 129.263 238.289 130.129C238.765 130.989 239.003 132.015 239.003 133.208V144H237.703V133.261C237.703 131.869 237.287 130.751 236.456 129.906C235.633 129.053 234.542 128.627 233.186 128.627C232.277 128.627 231.467 128.826 230.757 129.224C230.047 129.621 229.489 130.179 229.084 130.896C228.679 131.607 228.477 132.438 228.477 133.389ZM250.185 144.341C248.708 144.341 247.423 143.975 246.329 143.244C245.235 142.512 244.39 141.511 243.793 140.239C243.197 138.968 242.898 137.519 242.898 135.893C242.898 134.259 243.197 132.803 243.793 131.525C244.397 130.246 245.224 129.238 246.276 128.499C247.327 127.761 248.527 127.391 249.876 127.391C250.793 127.391 251.659 127.576 252.476 127.945C253.3 128.308 254.024 128.833 254.649 129.522C255.281 130.211 255.775 131.042 256.13 132.015C256.492 132.988 256.673 134.082 256.673 135.296V136.106H243.719V134.923H255.374C255.374 133.737 255.132 132.668 254.649 131.717C254.166 130.765 253.509 130.009 252.678 129.447C251.847 128.886 250.913 128.606 249.876 128.606C248.79 128.606 247.82 128.911 246.968 129.522C246.123 130.126 245.452 130.942 244.954 131.972C244.464 133.002 244.209 134.153 244.187 135.424V135.957C244.187 137.32 244.425 138.545 244.901 139.632C245.384 140.712 246.073 141.567 246.968 142.2C247.863 142.825 248.935 143.137 250.185 143.137C251.08 143.137 251.844 142.988 252.476 142.69C253.115 142.384 253.637 142.015 254.042 141.582C254.447 141.148 254.752 140.729 254.958 140.325L256.141 140.804C255.892 141.351 255.505 141.898 254.979 142.445C254.461 142.984 253.8 143.435 252.998 143.798C252.202 144.16 251.265 144.341 250.185 144.341ZM268.847 134.028V135.264H260.239V134.028H268.847ZM279.121 127.636V128.798H271.973V127.636H279.121ZM274.391 123.716H275.68V140.133C275.68 140.8 275.808 141.347 276.064 141.773C276.326 142.192 276.667 142.505 277.086 142.711C277.512 142.91 277.967 143.009 278.45 143.009C278.684 143.009 278.887 142.991 279.057 142.956C279.235 142.92 279.402 142.874 279.558 142.817L279.878 144C279.679 144.071 279.458 144.131 279.217 144.181C278.976 144.238 278.691 144.266 278.365 144.266C277.683 144.266 277.037 144.114 276.426 143.808C275.822 143.503 275.332 143.059 274.956 142.477C274.579 141.894 274.391 141.191 274.391 140.367V123.716ZM293.825 138.194V127.636H295.124V144H293.825V141.347H293.718C293.335 142.192 292.713 142.881 291.854 143.414C291.002 143.947 289.993 144.213 288.828 144.213C287.756 144.213 286.808 143.979 285.984 143.51C285.16 143.041 284.514 142.377 284.045 141.518C283.576 140.651 283.342 139.621 283.342 138.428V127.636H284.642V138.375C284.642 139.739 285.053 140.843 285.877 141.688C286.708 142.526 287.781 142.945 289.095 142.945C289.947 142.945 290.732 142.754 291.449 142.37C292.166 141.987 292.742 141.44 293.175 140.729C293.608 140.012 293.825 139.167 293.825 138.194ZM301.209 133.389V144H299.91V127.636H301.178V130.225H301.305C301.689 129.38 302.303 128.702 303.148 128.19C303.994 127.679 304.999 127.423 306.163 127.423C307.264 127.423 308.23 127.658 309.061 128.126C309.899 128.595 310.553 129.263 311.021 130.129C311.497 130.989 311.735 132.015 311.735 133.208V144H310.435V133.261C310.435 131.869 310.02 130.751 309.189 129.906C308.365 129.053 307.275 128.627 305.918 128.627C305.009 128.627 304.2 128.826 303.489 129.224C302.779 129.621 302.222 130.179 301.817 130.896C301.412 131.607 301.209 132.438 301.209 133.389ZM316.6 144V127.636H317.889V144H316.6ZM317.25 124.739C316.966 124.739 316.717 124.639 316.504 124.44C316.298 124.241 316.195 124 316.195 123.716C316.195 123.432 316.298 123.19 316.504 122.991C316.71 122.793 316.959 122.693 317.25 122.693C317.534 122.693 317.779 122.793 317.985 122.991C318.198 123.19 318.305 123.432 318.305 123.716C318.305 124 318.202 124.241 317.996 124.44C317.79 124.639 317.541 124.739 317.25 124.739ZM324.033 133.389V144H322.733V127.636H324.001V130.225H324.129C324.512 129.38 325.127 128.702 325.972 128.19C326.817 127.679 327.822 127.423 328.987 127.423C330.088 127.423 331.054 127.658 331.884 128.126C332.723 128.595 333.376 129.263 333.845 130.129C334.321 130.989 334.558 132.015 334.558 133.208V144H333.259V133.261C333.259 131.869 332.843 130.751 332.012 129.906C331.188 129.053 330.098 128.627 328.742 128.627C327.833 128.627 327.023 128.826 326.313 129.224C325.603 129.621 325.045 130.179 324.64 130.896C324.235 131.607 324.033 132.438 324.033 133.389ZM345.262 150.477C344.246 150.477 343.333 150.342 342.524 150.072C341.714 149.81 341.025 149.433 340.457 148.943C339.896 148.453 339.466 147.871 339.168 147.196L340.255 146.557C340.496 147.082 340.841 147.551 341.288 147.963C341.735 148.375 342.289 148.698 342.95 148.933C343.618 149.167 344.388 149.284 345.262 149.284C346.838 149.284 348.085 148.876 349.001 148.059C349.924 147.249 350.386 146.006 350.386 144.33V140.261H350.258C350.01 140.971 349.64 141.603 349.15 142.157C348.667 142.704 348.074 143.134 347.371 143.446C346.668 143.759 345.869 143.915 344.974 143.915C343.682 143.915 342.545 143.581 341.565 142.913C340.585 142.246 339.821 141.308 339.275 140.101C338.728 138.886 338.454 137.459 338.454 135.818C338.454 134.178 338.721 132.725 339.253 131.461C339.793 130.19 340.553 129.195 341.533 128.478C342.513 127.754 343.664 127.391 344.985 127.391C345.929 127.391 346.746 127.572 347.435 127.935C348.131 128.29 348.713 128.762 349.182 129.352C349.651 129.941 350.013 130.587 350.269 131.29H350.418V127.636H351.675V144.384C351.675 145.747 351.405 146.88 350.865 147.782C350.333 148.684 349.583 149.359 348.618 149.806C347.659 150.254 346.54 150.477 345.262 150.477ZM345.091 142.711C346.185 142.711 347.126 142.434 347.914 141.88C348.71 141.319 349.321 140.523 349.747 139.494C350.18 138.457 350.397 137.228 350.397 135.808C350.397 134.43 350.187 133.197 349.768 132.111C349.349 131.024 348.742 130.168 347.946 129.543C347.151 128.918 346.199 128.606 345.091 128.606C343.962 128.606 343 128.925 342.204 129.565C341.409 130.197 340.798 131.056 340.372 132.143C339.953 133.229 339.743 134.451 339.743 135.808C339.743 137.171 339.956 138.371 340.382 139.408C340.809 140.438 341.419 141.248 342.215 141.837C343.01 142.42 343.969 142.711 345.091 142.711ZM370.559 127.636V128.798H363.304V127.636H370.559ZM365.691 144V125.09C365.691 124.266 365.879 123.563 366.255 122.981C366.632 122.398 367.125 121.955 367.736 121.649C368.354 121.344 369.018 121.191 369.728 121.191C370.105 121.191 370.424 121.223 370.687 121.287C370.957 121.344 371.192 121.411 371.39 121.489L371.007 122.64C370.844 122.583 370.666 122.533 370.474 122.491C370.29 122.448 370.069 122.427 369.814 122.427C368.99 122.427 368.312 122.679 367.779 123.183C367.246 123.687 366.98 124.391 366.98 125.293L366.969 144H365.691ZM379.414 144.341C378.065 144.341 376.865 143.979 375.813 143.254C374.762 142.523 373.935 141.518 373.331 140.239C372.728 138.961 372.426 137.505 372.426 135.871C372.426 134.231 372.728 132.775 373.331 131.504C373.935 130.225 374.762 129.22 375.813 128.489C376.865 127.757 378.065 127.391 379.414 127.391C380.764 127.391 381.964 127.757 383.015 128.489C384.066 129.22 384.894 130.225 385.497 131.504C386.101 132.782 386.403 134.238 386.403 135.871C386.403 137.505 386.101 138.961 385.497 140.239C384.894 141.518 384.066 142.523 383.015 143.254C381.964 143.979 380.764 144.341 379.414 144.341ZM379.414 143.137C380.558 143.137 381.556 142.814 382.408 142.168C383.267 141.521 383.931 140.648 384.4 139.547C384.876 138.446 385.114 137.221 385.114 135.871C385.114 134.522 384.876 133.3 384.4 132.207C383.924 131.106 383.26 130.232 382.408 129.586C381.556 128.933 380.558 128.606 379.414 128.606C378.271 128.606 377.273 128.933 376.421 129.586C375.568 130.232 374.904 131.106 374.429 132.207C373.953 133.3 373.715 134.522 373.715 135.871C373.715 137.221 373.949 138.446 374.418 139.547C374.894 140.648 375.558 141.521 376.41 142.168C377.269 142.814 378.271 143.137 379.414 143.137ZM390.28 144V127.636H391.548V130.193H391.665C392.02 129.355 392.62 128.684 393.465 128.18C394.311 127.668 395.273 127.413 396.353 127.413C396.466 127.413 396.58 127.413 396.693 127.413C396.807 127.413 396.914 127.416 397.013 127.423V128.734C396.928 128.727 396.825 128.716 396.704 128.702C396.59 128.68 396.448 128.67 396.278 128.67C395.369 128.67 394.559 128.865 393.849 129.256C393.146 129.646 392.592 130.186 392.187 130.875C391.782 131.557 391.58 132.338 391.58 133.219V144H390.28ZM424.82 129H423.456C423.314 128.261 423.048 127.548 422.657 126.859C422.266 126.163 421.762 125.538 421.144 124.984C420.533 124.423 419.823 123.979 419.013 123.652C418.204 123.325 417.309 123.162 416.329 123.162C414.894 123.162 413.573 123.545 412.366 124.312C411.165 125.072 410.203 126.191 409.479 127.668C408.761 129.146 408.403 130.953 408.403 133.091C408.403 135.243 408.761 137.058 409.479 138.535C410.203 140.012 411.165 141.131 412.366 141.891C413.573 142.643 414.894 143.02 416.329 143.02C417.309 143.02 418.204 142.86 419.013 142.54C419.823 142.214 420.533 141.773 421.144 141.219C421.762 140.658 422.266 140.03 422.657 139.334C423.048 138.638 423.314 137.92 423.456 137.182H424.82C424.663 138.062 424.362 138.925 423.914 139.771C423.474 140.616 422.891 141.383 422.167 142.072C421.45 142.754 420.601 143.297 419.621 143.702C418.648 144.099 417.55 144.298 416.329 144.298C414.511 144.298 412.909 143.837 411.524 142.913C410.139 141.983 409.053 140.676 408.264 138.993C407.483 137.31 407.092 135.342 407.092 133.091C407.092 130.839 407.483 128.872 408.264 127.189C409.053 125.506 410.139 124.202 411.524 123.279C412.909 122.349 414.511 121.884 416.329 121.884C417.55 121.884 418.648 122.086 419.621 122.491C420.601 122.888 421.45 123.428 422.167 124.11C422.891 124.785 423.474 125.545 423.914 126.39C424.362 127.235 424.663 128.105 424.82 129ZM434.964 144.341C433.614 144.341 432.414 143.979 431.363 143.254C430.312 142.523 429.484 141.518 428.88 140.239C428.277 138.961 427.975 137.505 427.975 135.871C427.975 134.231 428.277 132.775 428.88 131.504C429.484 130.225 430.312 129.22 431.363 128.489C432.414 127.757 433.614 127.391 434.964 127.391C436.313 127.391 437.513 127.757 438.564 128.489C439.616 129.22 440.443 130.225 441.047 131.504C441.65 132.782 441.952 134.238 441.952 135.871C441.952 137.505 441.65 138.961 441.047 140.239C440.443 141.518 439.616 142.523 438.564 143.254C437.513 143.979 436.313 144.341 434.964 144.341ZM434.964 143.137C436.107 143.137 437.105 142.814 437.957 142.168C438.817 141.521 439.481 140.648 439.949 139.547C440.425 138.446 440.663 137.221 440.663 135.871C440.663 134.522 440.425 133.3 439.949 132.207C439.474 131.106 438.809 130.232 437.957 129.586C437.105 128.933 436.107 128.606 434.964 128.606C433.82 128.606 432.822 128.933 431.97 129.586C431.118 130.232 430.454 131.106 429.978 132.207C429.502 133.3 429.264 134.522 429.264 135.871C429.264 137.221 429.498 138.446 429.967 139.547C430.443 140.648 431.107 141.521 431.959 142.168C432.819 142.814 433.82 143.137 434.964 143.137ZM445.829 144V127.636H447.097V130.108H447.225C447.537 129.284 448.077 128.631 448.844 128.148C449.611 127.665 450.535 127.423 451.614 127.423C452.8 127.423 453.755 127.707 454.48 128.276C455.211 128.844 455.737 129.614 456.057 130.587H456.174C456.493 129.629 457.065 128.862 457.889 128.286C458.72 127.711 459.743 127.423 460.957 127.423C462.541 127.423 463.748 127.924 464.579 128.925C465.417 129.92 465.836 131.283 465.836 133.016V144H464.537V133.016C464.537 131.653 464.21 130.58 463.557 129.799C462.903 129.018 461.944 128.627 460.68 128.627C459.331 128.627 458.294 129.05 457.569 129.895C456.845 130.74 456.483 131.816 456.483 133.123V144H455.183V132.931C455.183 131.66 454.863 130.626 454.224 129.831C453.585 129.028 452.626 128.627 451.348 128.627C450.481 128.627 449.732 128.826 449.1 129.224C448.475 129.621 447.988 130.168 447.64 130.864C447.299 131.56 447.129 132.359 447.129 133.261V144H445.829ZM470.63 150.136V127.636H471.897V131.29H472.057C472.313 130.587 472.672 129.941 473.133 129.352C473.602 128.762 474.181 128.29 474.87 127.935C475.566 127.572 476.383 127.391 477.32 127.391C478.641 127.391 479.792 127.754 480.772 128.478C481.752 129.202 482.512 130.204 483.052 131.482C483.591 132.754 483.861 134.213 483.861 135.861C483.861 137.509 483.588 138.972 483.041 140.25C482.501 141.521 481.741 142.523 480.761 143.254C479.788 143.979 478.648 144.341 477.341 144.341C476.411 144.341 475.594 144.163 474.891 143.808C474.195 143.453 473.609 142.981 473.133 142.391C472.665 141.795 472.306 141.141 472.057 140.431H471.929V150.136H470.63ZM471.908 135.85C471.908 137.242 472.121 138.489 472.547 139.589C472.973 140.683 473.584 141.55 474.38 142.189C475.175 142.821 476.123 143.137 477.224 143.137C478.339 143.137 479.294 142.817 480.09 142.178C480.892 141.532 481.503 140.658 481.922 139.558C482.348 138.457 482.562 137.221 482.562 135.85C482.562 134.479 482.352 133.247 481.933 132.153C481.514 131.06 480.907 130.197 480.111 129.565C479.316 128.925 478.353 128.606 477.224 128.606C476.109 128.606 475.154 128.922 474.358 129.554C473.57 130.179 472.963 131.038 472.537 132.132C472.118 133.219 471.908 134.458 471.908 135.85ZM498.237 138.194V127.636H499.537V144H498.237V141.347H498.131C497.747 142.192 497.126 142.881 496.266 143.414C495.414 143.947 494.406 144.213 493.241 144.213C492.168 144.213 491.22 143.979 490.396 143.51C489.572 143.041 488.926 142.377 488.457 141.518C487.989 140.651 487.754 139.621 487.754 138.428V127.636H489.054V138.375C489.054 139.739 489.466 140.843 490.29 141.688C491.121 142.526 492.193 142.945 493.507 142.945C494.359 142.945 495.144 142.754 495.862 142.37C496.579 141.987 497.154 141.44 497.587 140.729C498.021 140.012 498.237 139.167 498.237 138.194ZM510.107 127.636V128.798H502.959V127.636H510.107ZM505.377 123.716H506.666V140.133C506.666 140.8 506.794 141.347 507.05 141.773C507.312 142.192 507.653 142.505 508.072 142.711C508.498 142.91 508.953 143.009 509.436 143.009C509.67 143.009 509.873 142.991 510.043 142.956C510.221 142.92 510.388 142.874 510.544 142.817L510.863 144C510.665 144.071 510.444 144.131 510.203 144.181C509.961 144.238 509.677 144.266 509.351 144.266C508.669 144.266 508.023 144.114 507.412 143.808C506.808 143.503 506.318 143.059 505.942 142.477C505.565 141.894 505.377 141.191 505.377 140.367V123.716ZM520.533 144.341C519.056 144.341 517.771 143.975 516.677 143.244C515.583 142.512 514.738 141.511 514.141 140.239C513.545 138.968 513.246 137.519 513.246 135.893C513.246 134.259 513.545 132.803 514.141 131.525C514.745 130.246 515.572 129.238 516.624 128.499C517.675 127.761 518.875 127.391 520.224 127.391C521.141 127.391 522.007 127.576 522.824 127.945C523.648 128.308 524.372 128.833 524.997 129.522C525.629 130.211 526.123 131.042 526.478 132.015C526.84 132.988 527.021 134.082 527.021 135.296V136.106H514.067V134.923H525.722C525.722 133.737 525.48 132.668 524.997 131.717C524.514 130.765 523.857 130.009 523.026 129.447C522.195 128.886 521.261 128.606 520.224 128.606C519.138 128.606 518.168 128.911 517.316 129.522C516.471 130.126 515.8 130.942 515.303 131.972C514.812 133.002 514.557 134.153 514.535 135.424V135.957C514.535 137.32 514.773 138.545 515.249 139.632C515.732 140.712 516.421 141.567 517.316 142.2C518.211 142.825 519.283 143.137 520.533 143.137C521.428 143.137 522.192 142.988 522.824 142.69C523.463 142.384 523.985 142.015 524.39 141.582C524.795 141.148 525.1 140.729 525.306 140.325L526.489 140.804C526.24 141.351 525.853 141.898 525.327 142.445C524.809 142.984 524.148 143.435 523.346 143.798C522.55 144.16 521.613 144.341 520.533 144.341ZM530.896 144V127.636H532.163V130.193H532.281C532.636 129.355 533.236 128.684 534.081 128.18C534.926 127.668 535.889 127.413 536.968 127.413C537.082 127.413 537.195 127.413 537.309 127.413C537.423 127.413 537.529 127.416 537.629 127.423V128.734C537.543 128.727 537.44 128.716 537.32 128.702C537.206 128.68 537.064 128.67 536.894 128.67C535.984 128.67 535.175 128.865 534.465 129.256C533.761 129.646 533.207 130.186 532.803 130.875C532.398 131.557 532.195 132.338 532.195 133.219V144H530.896ZM563.592 122.182H564.924V136.628C564.924 138.112 564.579 139.437 563.89 140.602C563.202 141.759 562.25 142.675 561.035 143.35C559.828 144.018 558.439 144.352 556.87 144.352C555.307 144.352 553.919 144.018 552.704 143.35C551.49 142.675 550.535 141.756 549.839 140.591C549.15 139.426 548.809 138.105 548.816 136.628V122.182H550.148V136.553C550.148 137.81 550.432 138.929 551 139.909C551.575 140.889 552.367 141.663 553.376 142.232C554.384 142.793 555.549 143.073 556.87 143.073C558.191 143.073 559.356 142.793 560.364 142.232C561.373 141.663 562.161 140.889 562.729 139.909C563.305 138.929 563.592 137.81 563.592 136.553V122.182ZM580.568 131.163L579.364 131.482C579.172 130.886 578.899 130.371 578.544 129.938C578.188 129.504 577.741 129.17 577.201 128.936C576.669 128.695 576.029 128.574 575.284 128.574C574.083 128.574 573.1 128.872 572.333 129.469C571.573 130.065 571.193 130.843 571.193 131.802C571.193 132.583 571.452 133.229 571.97 133.741C572.489 134.245 573.281 134.629 574.346 134.891L576.86 135.52C578.153 135.839 579.126 136.358 579.779 137.075C580.433 137.786 580.759 138.67 580.759 139.728C580.759 140.63 580.514 141.429 580.024 142.125C579.534 142.821 578.856 143.364 577.99 143.755C577.13 144.146 576.129 144.341 574.985 144.341C573.458 144.341 572.205 143.986 571.225 143.276C570.244 142.558 569.616 141.532 569.339 140.197L570.585 139.877C570.82 140.942 571.306 141.756 572.045 142.317C572.791 142.871 573.767 143.148 574.975 143.148C576.31 143.148 577.386 142.832 578.203 142.2C579.026 141.567 579.438 140.758 579.438 139.771C579.438 139.018 579.197 138.382 578.714 137.864C578.231 137.345 577.499 136.965 576.519 136.724L573.909 136.085C572.574 135.758 571.573 135.236 570.905 134.518C570.237 133.794 569.904 132.903 569.904 131.844C569.904 130.964 570.134 130.19 570.596 129.522C571.058 128.854 571.693 128.332 572.503 127.956C573.313 127.58 574.24 127.391 575.284 127.391C576.669 127.391 577.798 127.718 578.671 128.371C579.545 129.025 580.177 129.955 580.568 131.163ZM591.039 144.341C589.562 144.341 588.276 143.975 587.183 143.244C586.089 142.512 585.244 141.511 584.647 140.239C584.051 138.968 583.752 137.519 583.752 135.893C583.752 134.259 584.051 132.803 584.647 131.525C585.251 130.246 586.078 129.238 587.129 128.499C588.181 127.761 589.381 127.391 590.73 127.391C591.646 127.391 592.513 127.576 593.33 127.945C594.154 128.308 594.878 128.833 595.503 129.522C596.135 130.211 596.629 131.042 596.984 132.015C597.346 132.988 597.527 134.082 597.527 135.296V136.106H584.573V134.923H596.227C596.227 133.737 595.986 132.668 595.503 131.717C595.02 130.765 594.363 130.009 593.532 129.447C592.701 128.886 591.767 128.606 590.73 128.606C589.644 128.606 588.674 128.911 587.822 129.522C586.977 130.126 586.306 130.942 585.808 131.972C585.318 133.002 585.063 134.153 585.041 135.424V135.957C585.041 137.32 585.279 138.545 585.755 139.632C586.238 140.712 586.927 141.567 587.822 142.2C588.717 142.825 589.789 143.137 591.039 143.137C591.934 143.137 592.698 142.988 593.33 142.69C593.969 142.384 594.491 142.015 594.896 141.582C595.301 141.148 595.606 140.729 595.812 140.325L596.994 140.804C596.746 141.351 596.359 141.898 595.833 142.445C595.315 142.984 594.654 143.435 593.852 143.798C593.056 144.16 592.119 144.341 591.039 144.341ZM609.239 144V127.636H610.507V130.108H610.635C610.947 129.284 611.487 128.631 612.254 128.148C613.021 127.665 613.944 127.423 615.024 127.423C616.21 127.423 617.165 127.707 617.89 128.276C618.621 128.844 619.147 129.614 619.466 130.587H619.584C619.903 129.629 620.475 128.862 621.299 128.286C622.13 127.711 623.152 127.423 624.367 127.423C625.951 127.423 627.158 127.924 627.989 128.925C628.827 129.92 629.246 131.283 629.246 133.016V144H627.946V133.016C627.946 131.653 627.62 130.58 626.966 129.799C626.313 129.018 625.354 128.627 624.09 128.627C622.74 128.627 621.704 129.05 620.979 129.895C620.255 130.74 619.892 131.816 619.892 133.123V144H618.593V132.931C618.593 131.66 618.273 130.626 617.634 129.831C616.995 129.028 616.036 128.627 614.758 128.627C613.891 128.627 613.142 128.826 612.51 129.224C611.885 129.621 611.398 130.168 611.05 130.864C610.709 131.56 610.539 132.359 610.539 133.261V144H609.239ZM640.123 144.341C638.773 144.341 637.573 143.979 636.522 143.254C635.471 142.523 634.643 141.518 634.039 140.239C633.436 138.961 633.134 137.505 633.134 135.871C633.134 134.231 633.436 132.775 634.039 131.504C634.643 130.225 635.471 129.22 636.522 128.489C637.573 127.757 638.773 127.391 640.123 127.391C641.472 127.391 642.672 127.757 643.723 128.489C644.775 129.22 645.602 130.225 646.206 131.504C646.809 132.782 647.111 134.238 647.111 135.871C647.111 137.505 646.809 138.961 646.206 140.239C645.602 141.518 644.775 142.523 643.723 143.254C642.672 143.979 641.472 144.341 640.123 144.341ZM640.123 143.137C641.266 143.137 642.264 142.814 643.116 142.168C643.976 141.521 644.64 140.648 645.108 139.547C645.584 138.446 645.822 137.221 645.822 135.871C645.822 134.522 645.584 133.3 645.108 132.207C644.632 131.106 643.968 130.232 643.116 129.586C642.264 128.933 641.266 128.606 640.123 128.606C638.979 128.606 637.981 128.933 637.129 129.586C636.277 130.232 635.613 131.106 635.137 132.207C634.661 133.3 634.423 134.522 634.423 135.871C634.423 137.221 634.657 138.446 635.126 139.547C635.602 140.648 636.266 141.521 637.118 142.168C637.978 142.814 638.979 143.137 640.123 143.137ZM656.603 144.341C655.289 144.341 654.142 143.979 653.162 143.254C652.181 142.53 651.422 141.532 650.882 140.261C650.349 138.982 650.083 137.516 650.083 135.861C650.083 134.22 650.353 132.764 650.892 131.493C651.439 130.214 652.203 129.213 653.183 128.489C654.163 127.757 655.306 127.391 656.613 127.391C657.551 127.391 658.364 127.572 659.053 127.935C659.749 128.29 660.331 128.762 660.8 129.352C661.276 129.941 661.638 130.587 661.887 131.29H662.015V122.182H663.304V144H662.047V140.431H661.887C661.624 141.134 661.258 141.784 660.789 142.381C660.321 142.97 659.738 143.446 659.042 143.808C658.346 144.163 657.533 144.341 656.603 144.341ZM656.72 143.137C657.828 143.137 658.776 142.821 659.564 142.189C660.36 141.55 660.967 140.683 661.386 139.589C661.812 138.489 662.025 137.242 662.025 135.85C662.025 134.458 661.812 133.219 661.386 132.132C660.967 131.038 660.36 130.179 659.564 129.554C658.776 128.922 657.828 128.606 656.72 128.606C655.598 128.606 654.635 128.925 653.833 129.565C653.037 130.197 652.426 131.06 652 132.153C651.581 133.247 651.372 134.479 651.372 135.85C651.372 137.221 651.581 138.457 652 139.558C652.426 140.658 653.037 141.532 653.833 142.178C654.635 142.817 655.598 143.137 656.72 143.137ZM674.934 144.341C673.456 144.341 672.171 143.975 671.077 143.244C669.983 142.512 669.138 141.511 668.542 140.239C667.945 138.968 667.647 137.519 667.647 135.893C667.647 134.259 667.945 132.803 668.542 131.525C669.145 130.246 669.973 129.238 671.024 128.499C672.075 127.761 673.275 127.391 674.625 127.391C675.541 127.391 676.407 127.576 677.224 127.945C678.048 128.308 678.773 128.833 679.398 129.522C680.03 130.211 680.523 131.042 680.878 132.015C681.241 132.988 681.422 134.082 681.422 135.296V136.106H668.467V134.923H680.122C680.122 133.737 679.88 132.668 679.398 131.717C678.915 130.765 678.258 130.009 677.427 129.447C676.596 128.886 675.662 128.606 674.625 128.606C673.538 128.606 672.569 128.911 671.716 129.522C670.871 130.126 670.2 130.942 669.703 131.972C669.213 133.002 668.957 134.153 668.936 135.424V135.957C668.936 137.32 669.174 138.545 669.65 139.632C670.133 140.712 670.822 141.567 671.716 142.2C672.611 142.825 673.684 143.137 674.934 143.137C675.829 143.137 676.592 142.988 677.224 142.69C677.863 142.384 678.385 142.015 678.79 141.582C679.195 141.148 679.501 140.729 679.706 140.325L680.889 140.804C680.64 141.351 680.253 141.898 679.728 142.445C679.209 142.984 678.549 143.435 677.746 143.798C676.951 144.16 676.013 144.341 674.934 144.341ZM686.596 122.182V144H685.296V122.182H686.596ZM701.774 131.163L700.57 131.482C700.378 130.886 700.104 130.371 699.749 129.938C699.394 129.504 698.947 129.17 698.407 128.936C697.874 128.695 697.235 128.574 696.489 128.574C695.289 128.574 694.305 128.872 693.538 129.469C692.778 130.065 692.399 130.843 692.399 131.802C692.399 132.583 692.658 133.229 693.176 133.741C693.695 134.245 694.487 134.629 695.552 134.891L698.066 135.52C699.359 135.839 700.332 136.358 700.985 137.075C701.639 137.786 701.965 138.67 701.965 139.728C701.965 140.63 701.72 141.429 701.23 142.125C700.74 142.821 700.062 143.364 699.195 143.755C698.336 144.146 697.335 144.341 696.191 144.341C694.664 144.341 693.411 143.986 692.43 143.276C691.45 142.558 690.822 141.532 690.545 140.197L691.791 139.877C692.026 140.942 692.512 141.756 693.251 142.317C693.997 142.871 694.973 143.148 696.18 143.148C697.516 143.148 698.592 142.832 699.408 142.2C700.232 141.567 700.644 140.758 700.644 139.771C700.644 139.018 700.403 138.382 699.92 137.864C699.437 137.345 698.705 136.965 697.725 136.724L695.115 136.085C693.78 135.758 692.778 135.236 692.111 134.518C691.443 133.794 691.109 132.903 691.109 131.844C691.109 130.964 691.34 130.19 691.802 129.522C692.264 128.854 692.899 128.332 693.709 127.956C694.519 127.58 695.445 127.391 696.489 127.391C697.874 127.391 699.004 127.718 699.877 128.371C700.751 129.025 701.383 129.955 701.774 131.163Z" fill="black"/>
</svg>
