<svg xmlns="http://www.w3.org/2000/svg" viewBox="0 20.25 256.25 37.5" data-asc="1.03" width="256.25" height="37.5"><defs/><g fill="#ed6aff"><g transform="translate(0, 0)"><path d="M0 51.50L0 26.50L6.25 26.50L6.25 20.25L18.75 20.25L18.75 26.50L25 26.50L25 51.50L18.75 51.50L18.75 39L6.25 39L6.25 51.50L0 51.50M6.25 32.75L18.75 32.75L18.75 26.75L6.25 26.75L6.25 32.75ZM37.50 51.50L37.50 20.25L43.75 20.25L43.75 51.50L37.50 51.50ZM100 57.75L100 51.50L87.50 51.50L87.50 45.25L81.25 45.25L81.25 26.50L87.50 26.50L87.50 20.25L100 20.25L100 26.50L106.25 26.50L106.25 45.25L100 45.25L100 51.50L106.25 51.50L106.25 57.75L100 57.75M87.50 45L100 45L100 26.75L87.50 26.75L87.50 45ZM125 51.50L125 45.25L118.75 45.25L118.75 20.25L125 20.25L125 45.25L137.50 45.25L137.50 51.50L125 51.50M137.50 45.25L137.50 20.25L143.75 20.25L143.75 45.25L137.50 45.25ZM156.25 51.50L156.25 20.25L175 20.25L175 26.50L162.50 26.50L162.50 32.75L175 32.75L175 39L162.50 39L162.50 45.25L175 45.25L175 51.50L156.25 51.50ZM187.50 51.50L187.50 20.25L206.25 20.25L206.25 26.50L212.50 26.50L212.50 32.75L206.25 32.75L206.25 45.25L212.50 45.25L212.50 51.50L206.25 51.50L206.25 45.25L200 45.25L200 39L193.75 39L193.75 51.50L187.50 51.50M193.75 32.75L206 32.75L206 26.50L193.75 26.50L193.75 32.75ZM237.50 51.50L237.50 32.75L231.25 32.75L231.25 26.50L225 26.50L225 20.25L231.25 20.25L231.25 26.50L237.50 26.50L237.50 32.75L243.75 32.75L243.75 51.50L237.50 51.50M250 26.50L250 20.25L256.25 20.25L256.25 26.50L250 26.50M243.75 32.75L243.75 26.50L250 26.50L250 32.75L243.75 32.75Z"/></g></g></svg>