<svg width="51" height="51" viewBox="0 0 51 51" fill="none" xmlns="http://www.w3.org/2000/svg">
<rect x="1.42618" y="0.557129" width="49" height="49" fill="white" stroke="black"/>
<path d="M7.23066 25.4676L1.53955 25.4786" stroke="black"/>
<path d="M50.5107 17.7754H45.2095" stroke="black"/>
<path d="M50.5107 33.3667H45.6273" stroke="black"/>
<mask id="path-5-outside-1_108_252" maskUnits="userSpaceOnUse" x="6.23071" y="15.5151" width="40" height="21" fill="black">
<rect fill="white" x="6.23071" y="15.5151" width="40" height="21"/>
<path d="M44.5872 19.0298H31.219L22.5422 25.522L31.219 32.0151H44.5872V34.5298H29.8274L19.3909 26.7183H7.23071V24.2036H19.5549L29.8274 16.5151H44.5872V19.0298Z"/>
</mask>
<path d="M44.5872 19.0298H31.219L22.5422 25.522L31.219 32.0151H44.5872V34.5298H29.8274L19.3909 26.7183H7.23071V24.2036H19.5549L29.8274 16.5151H44.5872V19.0298Z" fill="#2FAA96"/>
<path d="M44.5872 19.0298V20.0298H45.5872V19.0298H44.5872ZM31.219 19.0298V18.0298H30.8863L30.6199 18.2291L31.219 19.0298ZM22.5422 25.522L21.9431 24.7213L20.8731 25.5219L21.9431 26.3226L22.5422 25.522ZM31.219 32.0151L30.6198 32.8158L30.8862 33.0151H31.219V32.0151ZM44.5872 32.0151H45.5872V31.0151H44.5872V32.0151ZM44.5872 34.5298V35.5298H45.5872V34.5298H44.5872ZM29.8274 34.5298L29.2282 35.3304L29.4946 35.5298H29.8274V34.5298ZM19.3909 26.7183L19.9901 25.9177L19.7237 25.7183H19.3909V26.7183ZM7.23071 26.7183H6.23071V27.7183H7.23071V26.7183ZM7.23071 24.2036V23.2036H6.23071V24.2036H7.23071ZM19.5549 24.2036V25.2036H19.8877L20.1541 25.0042L19.5549 24.2036ZM29.8274 16.5151V15.5151H29.4946L29.2282 15.7145L29.8274 16.5151ZM44.5872 16.5151H45.5872V15.5151H44.5872V16.5151ZM44.5872 19.0298V18.0298H31.219V19.0298V20.0298H44.5872V19.0298ZM31.219 19.0298L30.6199 18.2291L21.9431 24.7213L22.5422 25.522L23.1413 26.3227L31.8181 19.8305L31.219 19.0298ZM22.5422 25.522L21.9431 26.3226L30.6198 32.8158L31.219 32.0151L31.8181 31.2145L23.1414 24.7213L22.5422 25.522ZM31.219 32.0151V33.0151H44.5872V32.0151V31.0151H31.219V32.0151ZM44.5872 32.0151H43.5872V34.5298H44.5872H45.5872V32.0151H44.5872ZM44.5872 34.5298V33.5298H29.8274V34.5298V35.5298H44.5872V34.5298ZM29.8274 34.5298L30.4266 33.7292L19.9901 25.9177L19.3909 26.7183L18.7916 27.5188L29.2282 35.3304L29.8274 34.5298ZM19.3909 26.7183V25.7183H7.23071V26.7183V27.7183H19.3909V26.7183ZM7.23071 26.7183H8.23071V24.2036H7.23071H6.23071V26.7183H7.23071ZM7.23071 24.2036V25.2036H19.5549V24.2036V23.2036H7.23071V24.2036ZM19.5549 24.2036L20.1541 25.0042L30.4266 17.3157L29.8274 16.5151L29.2282 15.7145L18.9557 23.403L19.5549 24.2036ZM29.8274 16.5151V17.5151H44.5872V16.5151V15.5151H29.8274V16.5151ZM44.5872 16.5151H43.5872V19.0298H44.5872H45.5872V16.5151H44.5872Z" fill="black" mask="url(#path-5-outside-1_108_252)"/>
</svg>
