<?xml version="1.0" encoding="UTF-8" standalone="no"?>
<!-- Created with Inkscape (http://www.inkscape.org/) -->

<svg
   xmlns:osb="http://www.openswatchbook.org/uri/2009/osb"
   xmlns:dc="http://purl.org/dc/elements/1.1/"
   xmlns:cc="http://creativecommons.org/ns#"
   xmlns:rdf="http://www.w3.org/1999/02/22-rdf-syntax-ns#"
   xmlns:svg="http://www.w3.org/2000/svg"
   xmlns="http://www.w3.org/2000/svg"
   xmlns:xlink="http://www.w3.org/1999/xlink"
   xmlns:sodipodi="http://sodipodi.sourceforge.net/DTD/sodipodi-0.dtd"
   xmlns:inkscape="http://www.inkscape.org/namespaces/inkscape"
   width="128px"
   height="128px"
   viewBox="0 0 128 128"
   version="1.1"
   id="SVGRoot"
   inkscape:version="0.92.1 r15371"
   sodipodi:docname="darfix_icon.svg"
   inkscape:export-filename="/users/garrigaf/Pictures/darfix_icon.svg.png"
   inkscape:export-xdpi="771"
   inkscape:export-ydpi="771">
  <sodipodi:namedview
     id="base"
     pagecolor="#ffffff"
     bordercolor="#666666"
     borderopacity="1.0"
     inkscape:pageopacity="0.0"
     inkscape:pageshadow="2"
     inkscape:zoom="5.6568542"
     inkscape:cx="50.788636"
     inkscape:cy="48.666579"
     inkscape:document-units="px"
     inkscape:current-layer="layer2"
     showgrid="false"
     inkscape:window-width="1920"
     inkscape:window-height="1171"
     inkscape:window-x="1920"
     inkscape:window-y="0"
     inkscape:window-maximized="1"
     inkscape:grid-bbox="true"
     inkscape:snap-bbox="true"
     inkscape:snap-object-midpoints="false"
     inkscape:snap-midpoints="true"
     inkscape:snap-intersection-paths="true"
     inkscape:snap-bbox-midpoints="true"
     inkscape:snap-bbox-edge-midpoints="true"
     inkscape:bbox-paths="false"
     inkscape:snap-global="true"
     inkscape:snap-text-baseline="true" />
  <defs
     id="defs8723">
    <linearGradient
       id="linearGradient6396"
       inkscape:collect="always">
      <stop
         id="stop6400"
         offset="0"
         style="stop-color:#a2a2a2;stop-opacity:1;" />
      <stop
         id="stop6402"
         offset="1"
         style="stop-color:#ffffff;stop-opacity:1" />
    </linearGradient>
    <linearGradient
       inkscape:collect="always"
       id="linearGradient4618">
      <stop
         style="stop-color:#f2e20a;stop-opacity:1;"
         offset="0"
         id="stop4614" />
      <stop
         style="stop-color:#f2e20a;stop-opacity:0;"
         offset="1"
         id="stop4616" />
    </linearGradient>
    <linearGradient
       id="linearGradient6031"
       osb:paint="solid">
      <stop
         style="stop-color:#83797d;stop-opacity:1;"
         offset="0"
         id="stop6029" />
    </linearGradient>
    <filter
       inkscape:collect="always"
       style="color-interpolation-filters:sRGB"
       id="filter5738">
      <feBlend
         inkscape:collect="always"
         mode="exclusion"
         in2="BackgroundImage"
         id="feBlend5740" />
    </filter>
    <inkscape:perspective
       sodipodi:type="inkscape:persp3d"
       inkscape:vp_x="-277.36306 : 136.70289 : 1"
       inkscape:vp_y="271.52764 : 597.3176 : 0"
       inkscape:vp_z="-100.85937 : -90.56679 : 1"
       inkscape:persp3d-origin="-212.28156 : -27.903064 : 1"
       id="perspective4674" />
    <inkscape:perspective
       sodipodi:type="inkscape:persp3d"
       inkscape:vp_x="-3.3187025 : 38.12037 : 1"
       inkscape:vp_y="46.76726 : 82.170001 : 0"
       inkscape:vp_z="27.081841 : 6.8560248 : 1"
       inkscape:persp3d-origin="7.8907761 : 15.476362 : 1"
       id="perspective5788" />
    <meshgradient
       inkscape:collect="always"
       id="meshgradient7696"
       gradientUnits="userSpaceOnUse"
       x="101.56046"
       y="24.780127"
       gradientTransform="matrix(0.9192849,0,0,0.91923264,-148.59806,-42.071009)">
      <meshrow
         id="meshrow7698">
        <meshpatch
           id="meshpatch7700">
          <stop
             path="c 0.175099,-0.175099  0.458991,-0.175099  0.63409,0"
             style="stop-color:#ffffff;stop-opacity:1"
             id="stop7702" />
          <stop
             path="c 0.175099,0.175099  0.175099,0.458991  0,0.63409"
             style="stop-color:#8c8c8c;stop-opacity:1"
             id="stop7704" />
          <stop
             path="c -0.175099,0.175099  -0.458991,0.175099  -0.63409,0"
             style="stop-color:#ffffff;stop-opacity:1"
             id="stop7706" />
          <stop
             path="c -0.175099,-0.175099  -0.175099,-0.458991  0,-0.63409"
             style="stop-color:#8c8c8c;stop-opacity:1"
             id="stop7708" />
        </meshpatch>
      </meshrow>
    </meshgradient>
    <meshgradient
       inkscape:collect="always"
       id="meshgradient9103"
       gradientUnits="userSpaceOnUse"
       x="102.38856"
       y="26.837656">
      <meshrow
         id="meshrow9105">
        <meshpatch
           id="meshpatch9107">
          <stop
             path="c 0.280957,0  0.561913,0  0.84287,0"
             style="stop-color:#ffffff;stop-opacity:1"
             id="stop9109" />
          <stop
             path="c 0,3.38909  0,6.77819  0,10.1673"
             style="stop-color:#7c7b76;stop-opacity:1"
             id="stop9111" />
          <stop
             path="c -0.280957,0  -0.561913,0  -0.84287,0"
             style="stop-color:#ffffff;stop-opacity:1"
             id="stop9113" />
          <stop
             path="c 0,-3.38909  0,-6.77819  0,-10.1673"
             style="stop-color:#7c7b76;stop-opacity:1"
             id="stop9115" />
        </meshpatch>
      </meshrow>
    </meshgradient>
    <meshgradient
       inkscape:collect="always"
       id="meshgradient9117"
       gradientUnits="userSpaceOnUse"
       x="95.202509"
       y="30.089463">
      <meshrow
         id="meshrow9119">
        <meshpatch
           id="meshpatch9121">
          <stop
             path="c 0.204249,-0.195928  0.535402,-0.195928  0.739651,0"
             style="stop-color:#ffffff;stop-opacity:1"
             id="stop9123" />
          <stop
             path="c 0.204249,0.195928  0.204249,0.51359  0,0.709518"
             style="stop-color:#7c7b76;stop-opacity:1"
             id="stop9125" />
          <stop
             path="c -0.204249,0.195928  -0.535402,0.195928  -0.739651,0"
             style="stop-color:#ffffff;stop-opacity:1"
             id="stop9127" />
          <stop
             path="c -0.204249,-0.195928  -0.204249,-0.51359  0,-0.709518"
             style="stop-color:#7c7b76;stop-opacity:1"
             id="stop9129" />
        </meshpatch>
      </meshrow>
    </meshgradient>
    <meshgradient
       inkscape:collect="always"
       id="meshgradient9131"
       gradientUnits="userSpaceOnUse"
       x="96.105867"
       y="27.945815">
      <meshrow
         id="meshrow9133">
        <meshpatch
           id="meshpatch9135">
          <stop
             path="c 0.204249,-0.195928  0.535402,-0.195928  0.739651,0"
             style="stop-color:#ffffff;stop-opacity:1"
             id="stop9137" />
          <stop
             path="c 0.204249,0.195928  0.204249,0.51359  0,0.709518"
             style="stop-color:#7c7b76;stop-opacity:1"
             id="stop9139" />
          <stop
             path="c -0.204249,0.195928  -0.535402,0.195928  -0.739651,0"
             style="stop-color:#ffffff;stop-opacity:1"
             id="stop9141" />
          <stop
             path="c -0.204249,-0.195928  -0.204249,-0.51359  0,-0.709518"
             style="stop-color:#7c7b76;stop-opacity:1"
             id="stop9143" />
        </meshpatch>
      </meshrow>
    </meshgradient>
    <meshgradient
       inkscape:collect="always"
       id="meshgradient9159"
       gradientUnits="userSpaceOnUse"
       x="40.972687"
       y="102.08169"
       gradientTransform="matrix(1.0277455,0,0,1.0277373,-5.2430254,4.6671831)">
      <meshrow
         id="meshrow9161">
        <meshpatch
           id="meshpatch9163">
          <stop
             path="c 1.20251,0  2.40502,0  3.60753,0"
             style="stop-color:#ffffff;stop-opacity:1"
             id="stop9165" />
          <stop
             path="c 0,2.77295  0,5.5459  0,8.31886"
             style="stop-color:#7c7b76;stop-opacity:1"
             id="stop9167" />
          <stop
             path="c -1.20251,0  -2.40502,0  -3.60753,0"
             style="stop-color:#ffffff;stop-opacity:1"
             id="stop9169" />
          <stop
             path="c 0,-2.77295  0,-5.5459  0,-8.31886"
             style="stop-color:#7c7b76;stop-opacity:1"
             id="stop9171" />
        </meshpatch>
      </meshrow>
    </meshgradient>
    <radialGradient
       inkscape:collect="always"
       xlink:href="#linearGradient4618"
       id="radialGradient4620"
       cx="65.68609"
       cy="74.726053"
       fx="65.68609"
       fy="74.726053"
       r="57.806503"
       gradientTransform="matrix(1,0,0,0.84825856,0,11.339039)"
       gradientUnits="userSpaceOnUse" />
    <radialGradient
       inkscape:collect="always"
       xlink:href="#linearGradient4618"
       id="radialGradient4636"
       gradientUnits="userSpaceOnUse"
       gradientTransform="matrix(0.97300356,0,0,0.82536516,0.88102241,10.136953)"
       cx="65.68609"
       cy="74.726053"
       fx="65.68609"
       fy="74.726053"
       r="57.806503" />
    <radialGradient
       inkscape:collect="always"
       xlink:href="#linearGradient4618"
       id="radialGradient4638"
       gradientUnits="userSpaceOnUse"
       gradientTransform="matrix(0.97300356,0,0,0.82536516,0.88102241,10.136953)"
       cx="65.68609"
       cy="74.726053"
       fx="65.68609"
       fy="74.726053"
       r="57.806503" />
    <radialGradient
       inkscape:collect="always"
       xlink:href="#linearGradient4618"
       id="radialGradient4640"
       gradientUnits="userSpaceOnUse"
       gradientTransform="matrix(0.97300356,0,0,0.82536516,0.88102241,10.136953)"
       cx="65.68609"
       cy="74.726053"
       fx="65.68609"
       fy="74.726053"
       r="57.806503" />
    <radialGradient
       inkscape:collect="always"
       xlink:href="#linearGradient4618"
       id="radialGradient4642"
       gradientUnits="userSpaceOnUse"
       gradientTransform="matrix(0.97300356,0,0,0.82536516,0.88102241,10.136953)"
       cx="65.68609"
       cy="74.726053"
       fx="65.68609"
       fy="74.726053"
       r="57.806503" />
    <radialGradient
       inkscape:collect="always"
       xlink:href="#linearGradient4618"
       id="radialGradient4644"
       gradientUnits="userSpaceOnUse"
       gradientTransform="matrix(0.97300356,0,0,0.82536516,0.88102241,10.136953)"
       cx="65.68609"
       cy="74.726053"
       fx="65.68609"
       fy="74.726053"
       r="57.806503" />
    <radialGradient
       inkscape:collect="always"
       xlink:href="#linearGradient4618"
       id="radialGradient4646"
       gradientUnits="userSpaceOnUse"
       gradientTransform="matrix(0.97300356,0,0,0.82536516,0.88102241,10.136953)"
       cx="65.68609"
       cy="74.726053"
       fx="65.68609"
       fy="74.726053"
       r="57.806503" />
    <radialGradient
       inkscape:collect="always"
       xlink:href="#linearGradient6396"
       id="radialGradient6405"
       cx="41.542522"
       cy="54.284119"
       fx="41.542522"
       fy="54.284119"
       r="37.562241"
       gradientTransform="matrix(-3.6788835,3.2030914,-2.9257063,-4.378486,353.19202,158.90189)"
       gradientUnits="userSpaceOnUse" />
  </defs>
  <metadata
     id="metadata8726">
    <rdf:RDF>
      <cc:Work
         rdf:about="">
        <dc:format>image/svg+xml</dc:format>
        <dc:type
           rdf:resource="http://purl.org/dc/dcmitype/StillImage" />
        <dc:title />
      </cc:Work>
    </rdf:RDF>
  </metadata>
  <g
     inkscape:groupmode="layer"
     id="layer7"
     inkscape:label="0">
    <g
       id="g4841"
       transform="matrix(1.0878021,0,0,1.0878638,161.64528,45.767532)"
       style="stroke-width:0.91925877">
      <path
         style="fill:#797a7a;fill-opacity:0.64705882;stroke:#f2e20a;stroke-width:0.92070639;stroke-linecap:round;stroke-linejoin:round;stroke-miterlimit:4;stroke-dasharray:none;stroke-dashoffset:0;stroke-opacity:1;paint-order:stroke markers fill"
         d="m -46.113747,20.813185 a 43.25,43.25 0 0 1 -43.25,43.25 43.25,43.25 0 0 1 -43.250003,-43.25 43.25,43.25 0 0 1 43.250003,-43.25 43.25,43.25 0 0 1 43.25,43.25 z"
         id="circle4680" />
      <path
         style="opacity:1;fill:url(#meshgradient7696);fill-opacity:1;stroke:#000000;stroke-width:0.09192588;stroke-linecap:round;stroke-linejoin:round;stroke-miterlimit:4;stroke-dasharray:none;stroke-dashoffset:0;stroke-opacity:0.9697657;paint-order:markers fill stroke"
         d="m -31.140526,66.816475 a 0.44836956,0.44836956 0 0 1 -0.44837,0.448369 0.44836956,0.44836956 0 0 1 -0.448369,-0.448369 0.44836956,0.44836956 0 0 1 0.448369,-0.44837 0.44836956,0.44836956 0 0 1 0.44837,0.44837 z"
         id="circle9717" />
      <path
         style="fill:#132577;fill-opacity:1;stroke:#f2e20a;stroke-width:0.92070639;stroke-linecap:round;stroke-linejoin:round;stroke-miterlimit:4;stroke-dasharray:none;stroke-dashoffset:0;stroke-opacity:1;paint-order:stroke markers fill"
         d="m -128.3986,34.793587 a 2.1892581,2.1892755 0 0 1 -2.18926,2.189275 2.1892581,2.1892755 0 0 1 -2.18926,-2.189275 2.1892581,2.1892755 0 0 1 2.18926,-2.189276 2.1892581,2.1892755 0 0 1 2.18926,2.189276 z"
         id="ellipse4718" />
      <path
         style="fill:#132577;fill-opacity:1;stroke:#f2e20a;stroke-width:0.92070639;stroke-linecap:round;stroke-linejoin:round;stroke-miterlimit:4;stroke-dasharray:none;stroke-dashoffset:0;stroke-opacity:1;paint-order:stroke markers fill"
         d="m -127.33977,6.6039495 a 3.2838869,3.2839131 0 0 1 -3.28389,3.2839132 3.2838869,3.2839131 0 0 1 -3.28388,-3.2839132 3.2838869,3.2839131 0 0 1 3.28388,-3.2839131 3.2838869,3.2839131 0 0 1 3.28389,3.2839131 z"
         id="ellipse4720" />
      <path
         style="fill:#132577;fill-opacity:1;stroke:#f2e20a;stroke-width:0.92070639;stroke-linecap:round;stroke-linejoin:round;stroke-miterlimit:4;stroke-dasharray:none;stroke-dashoffset:0;stroke-opacity:1;paint-order:stroke markers fill"
         d="m -121.89913,-5.817708 a 2.1892581,2.1892755 0 0 1 -2.18926,2.1892755 2.1892581,2.1892755 0 0 1 -2.18925,-2.1892755 2.1892581,2.1892755 0 0 1 2.18925,-2.1892755 2.1892581,2.1892755 0 0 1 2.18926,2.1892755 z"
         id="ellipse4724" />
      <path
         style="fill:#132577;fill-opacity:1;stroke:#f2e20a;stroke-width:0.92070639;stroke-linecap:round;stroke-linejoin:round;stroke-miterlimit:4;stroke-dasharray:none;stroke-dashoffset:0;stroke-opacity:1;paint-order:stroke markers fill"
         d="m -109.29538,-16.380255 a 3.2838869,3.2839131 0 0 1 -3.28389,3.283913 3.2838869,3.2839131 0 0 1 -3.28389,-3.283913 3.2838869,3.2839131 0 0 1 3.28389,-3.283913 3.2838869,3.2839131 0 0 1 3.28389,3.283913 z"
         id="ellipse4726" />
      <path
         style="fill:#132577;fill-opacity:1;stroke:#f2e20a;stroke-width:0.92070639;stroke-linecap:round;stroke-linejoin:round;stroke-miterlimit:4;stroke-dasharray:none;stroke-dashoffset:0;stroke-opacity:1;paint-order:stroke markers fill"
         d="m -131.65503,22.773489 a 1.4595053,1.4595169 0 0 1 -1.4595,1.459517 1.4595053,1.4595169 0 0 1 -1.45951,-1.459517 1.4595053,1.4595169 0 0 1 1.45951,-1.459517 1.4595053,1.4595169 0 0 1 1.4595,1.459517 z"
         id="ellipse4728" />
      <path
         style="fill:#132577;fill-opacity:1;stroke:#f2e20a;stroke-width:0.92070639;stroke-linecap:round;stroke-linejoin:round;stroke-miterlimit:4;stroke-dasharray:none;stroke-dashoffset:0;stroke-opacity:1;paint-order:stroke markers fill"
         d="m -99.889752,-20.841633 a 2.1892581,2.1892755 0 0 1 -2.189258,2.189276 2.1892581,2.1892755 0 0 1 -2.18926,-2.189276 2.1892581,2.1892755 0 0 1 2.18926,-2.189275 2.1892581,2.1892755 0 0 1 2.189258,2.189275 z"
         id="ellipse4730" />
      <path
         style="fill:#132577;fill-opacity:1;stroke:#f2e20a;stroke-width:0.92070639;stroke-linecap:round;stroke-linejoin:round;stroke-miterlimit:4;stroke-dasharray:none;stroke-dashoffset:0;stroke-opacity:1;paint-order:stroke markers fill"
         d="m -82.295184,-22.937603 a 3.2838869,3.2839131 0 0 1 -3.283887,3.283913 3.2838869,3.2839131 0 0 1 -3.283887,-3.283913 3.2838869,3.2839131 0 0 1 3.283887,-3.283913 3.2838869,3.2839131 0 0 1 3.283887,3.283913 z"
         id="ellipse4732" />
      <path
         style="fill:#132577;fill-opacity:1;stroke:#f2e20a;stroke-width:0.92070639;stroke-linecap:round;stroke-linejoin:round;stroke-miterlimit:4;stroke-dasharray:none;stroke-dashoffset:0;stroke-opacity:1;paint-order:stroke markers fill"
         d="m -73.698469,-20.454367 a 1.4595053,1.4595169 0 0 1 -1.459505,1.459517 1.4595053,1.4595169 0 0 1 -1.459506,-1.459517 1.4595053,1.4595169 0 0 1 1.459506,-1.459517 1.4595053,1.4595169 0 0 1 1.459505,1.459517 z"
         id="ellipse4734" />
      <path
         style="fill:#132577;fill-opacity:1;stroke:#f2e20a;stroke-width:0.92070639;stroke-linecap:round;stroke-linejoin:round;stroke-miterlimit:4;stroke-dasharray:none;stroke-dashoffset:0;stroke-opacity:1;paint-order:stroke markers fill"
         d="m -104.61275,60.691277 a 2.1892581,2.1892755 0 0 1 -2.18926,2.189275 2.1892581,2.1892755 0 0 1 -2.18926,-2.189275 2.1892581,2.1892755 0 0 1 2.18926,-2.189276 2.1892581,2.1892755 0 0 1 2.18926,2.189276 z"
         id="ellipse4736" />
      <path
         style="fill:#132577;fill-opacity:1;stroke:#f2e20a;stroke-width:0.92070639;stroke-linecap:round;stroke-linejoin:round;stroke-miterlimit:4;stroke-dasharray:none;stroke-dashoffset:0;stroke-opacity:1;paint-order:stroke markers fill"
         d="m -43.396445,29.581404 a 3.2838869,3.2839131 0 0 1 -3.283887,3.283913 3.2838869,3.2839131 0 0 1 -3.283887,-3.283913 3.2838869,3.2839131 0 0 1 3.283887,-3.283913 3.2838869,3.2839131 0 0 1 3.283887,3.283913 z"
         id="ellipse4738" />
      <path
         style="fill:#132577;fill-opacity:1;stroke:#f2e20a;stroke-width:0.92070639;stroke-linecap:round;stroke-linejoin:round;stroke-miterlimit:4;stroke-dasharray:none;stroke-dashoffset:0;stroke-opacity:1;paint-order:stroke markers fill"
         d="m -43.767441,18.013746 a 2.1892581,2.1892755 0 0 1 -2.189258,2.189276 2.1892581,2.1892755 0 0 1 -2.189258,-2.189276 2.1892581,2.1892755 0 0 1 2.189258,-2.189275 2.1892581,2.1892755 0 0 1 2.189258,2.189275 z"
         id="ellipse4740" />
      <path
         style="fill:#132577;fill-opacity:1;stroke:#f2e20a;stroke-width:0.92070639;stroke-linecap:round;stroke-linejoin:round;stroke-miterlimit:4;stroke-dasharray:none;stroke-dashoffset:0;stroke-opacity:1;paint-order:stroke markers fill"
         d="m -48.60827,40.179207 a 1.4595053,1.4595169 0 0 1 -1.459506,1.459517 1.4595053,1.4595169 0 0 1 -1.459505,-1.459517 1.4595053,1.4595169 0 0 1 1.459505,-1.459517 1.4595053,1.4595169 0 0 1 1.459506,1.459517 z"
         id="ellipse4742" />
      <path
         style="fill:#132577;fill-opacity:1;stroke:#f2e20a;stroke-width:0.92070639;stroke-linecap:round;stroke-linejoin:round;stroke-miterlimit:4;stroke-dasharray:none;stroke-dashoffset:0;stroke-opacity:1;paint-order:stroke markers fill"
         d="m -65.975926,58.601608 a 2.1892581,2.1892755 0 0 1 -2.189258,2.189276 2.1892581,2.1892755 0 0 1 -2.189258,-2.189276 2.1892581,2.1892755 0 0 1 2.189258,-2.189275 2.1892581,2.1892755 0 0 1 2.189258,2.189275 z"
         id="ellipse4744" />
      <path
         style="fill:#132577;fill-opacity:1;stroke:#f2e20a;stroke-width:0.92070639;stroke-linecap:round;stroke-linejoin:round;stroke-miterlimit:4;stroke-dasharray:none;stroke-dashoffset:0;stroke-opacity:1;paint-order:stroke markers fill"
         d="m -90.085505,64.05574 a 3.2838869,3.2839131 0 0 1 -3.283887,3.283913 3.2838869,3.2839131 0 0 1 -3.283887,-3.283913 3.2838869,3.2839131 0 0 1 3.283887,-3.283913 3.2838869,3.2839131 0 0 1 3.283887,3.283913 z"
         id="ellipse4746" />
      <path
         style="fill:#132577;fill-opacity:1;stroke:#f2e20a;stroke-width:0.92070639;stroke-linecap:round;stroke-linejoin:round;stroke-miterlimit:4;stroke-dasharray:none;stroke-dashoffset:0;stroke-opacity:1;paint-order:stroke markers fill"
         d="m -54.275863,50.3452 a 3.2838869,3.2839131 0 0 1 -3.283887,3.283913 3.2838869,3.2839131 0 0 1 -3.283887,-3.283913 3.2838869,3.2839131 0 0 1 3.283887,-3.283914 3.2838869,3.2839131 0 0 1 3.283887,3.283914 z"
         id="ellipse4748" />
      <path
         style="fill:#132577;fill-opacity:1;stroke:#f2e20a;stroke-width:0.92070639;stroke-linecap:round;stroke-linejoin:round;stroke-miterlimit:4;stroke-dasharray:none;stroke-dashoffset:0;stroke-opacity:1;paint-order:stroke markers fill"
         d="m -78.564321,63.058556 a 1.4595053,1.4595169 0 0 1 -1.459506,1.459516 1.4595053,1.4595169 0 0 1 -1.459505,-1.459516 1.4595053,1.4595169 0 0 1 1.459505,-1.459517 1.4595053,1.4595169 0 0 1 1.459506,1.459517 z"
         id="ellipse4750" />
    </g>
  </g>
  <g
     id="layer1"
     inkscape:groupmode="layer"
     inkscape:label="cub0">
    <path
       inkscape:connector-curvature="0"
       id="path6336"
       style="opacity:0.969;fill:#000000;fill-opacity:1;fill-rule:evenodd;stroke:none;stroke-width:0.53124201;stroke-linecap:round;stroke-linejoin:round;stroke-miterlimit:4;stroke-dasharray:none;stroke-dashoffset:0;stroke-opacity:1;paint-order:markers fill stroke"
       d="M 83.543306,2.5066696 119.10782,10.918355 110.58702,57.820778 86.438735,42.766431 Z"
       inkscape:export-xdpi="96"
       inkscape:export-ydpi="96" />
    <path
       inkscape:connector-curvature="0"
       id="path5750"
       d="m 20.112388,105.82125 c 9.212774,2.54554 9.212774,2.54554 9.212774,2.54554"
       style="fill:#2f4d4b;fill-opacity:0.2513089;stroke:#000000;stroke-width:0.19999999;stroke-linecap:butt;stroke-linejoin:miter;stroke-miterlimit:4;stroke-dasharray:none;stroke-opacity:1"
       inkscape:export-xdpi="96"
       inkscape:export-ydpi="96" />
  </g>
  <g
     inkscape:groupmode="layer"
     id="layer2"
     inkscape:label="menhir">
    <path
       style="opacity:1;fill:url(#radialGradient6405);fill-opacity:1;fill-rule:nonzero;stroke:none;stroke-width:1.01651204;stroke-linecap:butt;stroke-linejoin:miter;stroke-miterlimit:4;stroke-dasharray:none;stroke-opacity:0.9697657;filter:url(#filter5738)"
       d="m 10.240656,133.32245 59.61546,-0.0852 2.98827,-69.722033 -6.14462,-43.591522 c -0.0954,-0.30373 -0.64511,-0.35868 -0.88935,-0.19114 l -11.29517,7.75779 2.6574,-6.41682 -2.70264,-3.84677 c -1.10007,-1.56577 10.76146,-1.96013 9.93773,-4.06157 l -6.77732,-17.2896359 -7.67442,1.996686 4.38136,-9.4917091 -14.05185,-13.134742 -15.6689,19.9865691 -14.34036,46.3551019 3.96097,53.588422 z"
       id="path4628"
       inkscape:connector-curvature="0"
       sodipodi:nodetypes="ccccsccsscccccccc"
       transform="matrix(0.2354356,0,0,0.20625233,88.263774,16.62557)"
       inkscape:export-xdpi="96"
       inkscape:export-ydpi="96" />
    <path
       style="opacity:1;fill:url(#meshgradient9131);fill-opacity:1;stroke:#000000;stroke-width:0.09999999;stroke-linecap:round;stroke-linejoin:round;stroke-miterlimit:4;stroke-dasharray:none;stroke-dashoffset:0;stroke-opacity:0.9697657;paint-order:markers fill stroke"
       d="m 95.261105,26.640717 a 0.5088926,0.4881644 0 0 1 -0.508892,0.488164 0.5088926,0.4881644 0 0 1 -0.508893,-0.488164 0.5088926,0.4881644 0 0 1 0.508893,-0.488165 0.5088926,0.4881644 0 0 1 0.508892,0.488165 z"
       id="path9711" />
    <path
       style="opacity:1;fill:url(#meshgradient9117);fill-opacity:1;stroke:#000000;stroke-width:0.09999999;stroke-linecap:round;stroke-linejoin:round;stroke-miterlimit:4;stroke-dasharray:none;stroke-dashoffset:0;stroke-opacity:0.9697657;paint-order:markers fill stroke"
       d="m 94.382138,28.726511 a 0.5088926,0.4881644 0 0 1 -0.508893,0.488164 0.5088926,0.4881644 0 0 1 -0.508892,-0.488164 0.5088926,0.4881644 0 0 1 0.508892,-0.488164 0.5088926,0.4881644 0 0 1 0.508893,0.488164 z"
       id="circle9713" />
    <path
       sodipodi:nodetypes="ccc"
       inkscape:connector-curvature="0"
       id="path9721"
       d="m 100.50546,25.217282 0.82011,5.231616 -0.24603,4.661267"
       style="opacity:1;fill:url(#meshgradient9103);fill-opacity:1;stroke:#000000;stroke-width:0.30000001;stroke-linecap:butt;stroke-linejoin:miter;stroke-miterlimit:4;stroke-dasharray:none;stroke-opacity:0.9697657"
       inkscape:export-xdpi="96"
       inkscape:export-ydpi="96" />
    <g
       id="g9744"
       transform="matrix(1.3121846,0,0,1.2587367,-32.474773,-30.088597)"
       style="opacity:1;fill:url(#meshgradient9159);fill-opacity:1;fill-rule:nonzero;stroke-width:0.77809942"
       inkscape:export-xdpi="96"
       inkscape:export-ydpi="96">
      <path
         style="fill:#7c7b76;fill-opacity:1;fill-rule:nonzero;stroke:#000000;stroke-width:3.16504979;stroke-linecap:butt;stroke-linejoin:miter;stroke-miterlimit:4;stroke-dasharray:none;stroke-opacity:0.95767194;filter:url(#filter5738)"
         d="m 10.240656,133.32245 59.61546,-0.0852 2.98827,-69.722033 -6.14462,-43.591522 c -0.0954,-0.30373 -0.64511,-0.35868 -0.88935,-0.19114 l -11.29517,7.75779 2.6574,-6.41682 -2.70264,-3.84677 c -1.10007,-1.56577 10.76146,-1.96013 9.93773,-4.06157 l -6.77732,-17.2896359 -7.67442,1.996686 4.38136,-9.4917091 -14.05185,-13.134742 -15.6689,19.9865691 -14.34036,46.3551019 3.96097,53.588422 z"
         id="path9723"
         inkscape:connector-curvature="0"
         sodipodi:nodetypes="ccccsccsscccccccc"
         transform="matrix(0.05762477,0,0,0.05262546,40.382573,103.38439)" />
      <path
         style="opacity:0.73000004;fill:#7c7b76;fill-opacity:1;fill-rule:nonzero;stroke:#000000;stroke-width:0.07780993;stroke-linecap:round;stroke-linejoin:round;stroke-miterlimit:4;stroke-dasharray:none;stroke-dashoffset:0;stroke-opacity:0.95767194;paint-order:markers fill stroke"
         d="m 42.301038,105.99326 a 0.14400186,0.14400186 0 0 1 -0.144002,0.14401 0.14400186,0.14400186 0 0 1 -0.144002,-0.14401 0.14400186,0.14400186 0 0 1 0.144002,-0.144 0.14400186,0.14400186 0 0 1 0.144002,0.144 z"
         id="circle9725" />
      <path
         style="opacity:0.73000004;fill:#7c7b76;fill-opacity:1;fill-rule:nonzero;stroke:#000000;stroke-width:0.07780993;stroke-linecap:round;stroke-linejoin:round;stroke-miterlimit:4;stroke-dasharray:none;stroke-dashoffset:0;stroke-opacity:0.95767194;paint-order:markers fill stroke"
         d="m 42.052312,106.60853 a 0.14400186,0.14400186 0 0 1 -0.144002,0.144 0.14400186,0.14400186 0 0 1 -0.144002,-0.144 0.14400186,0.14400186 0 0 1 0.144002,-0.144 0.14400186,0.14400186 0 0 1 0.144002,0.144 z"
         id="circle9727" />
      <path
         style="fill:#7c7b76;fill-opacity:1;fill-rule:nonzero;stroke:#000000;stroke-width:0.2334298;stroke-linecap:butt;stroke-linejoin:miter;stroke-miterlimit:4;stroke-dasharray:none;stroke-opacity:1"
         d="m 43.378822,105.57658 0.20073,1.33485 -0.06022,1.18932"
         id="path9729"
         inkscape:connector-curvature="0"
         sodipodi:nodetypes="ccc" />
      <path
         style="opacity:0.73000004;fill:#7c7b76;fill-opacity:1;fill-rule:nonzero;stroke:#000000;stroke-width:0.07780993;stroke-linecap:round;stroke-linejoin:round;stroke-miterlimit:4;stroke-dasharray:none;stroke-dashoffset:0;stroke-opacity:0.95767194;paint-order:markers fill stroke"
         d="m 42.301038,105.99326 a 0.14400186,0.14400186 0 0 1 -0.144002,0.14401 0.14400186,0.14400186 0 0 1 -0.144002,-0.14401 0.14400186,0.14400186 0 0 1 0.144002,-0.144 0.14400186,0.14400186 0 0 1 0.144002,0.144 z"
         id="circle9731" />
      <path
         style="opacity:0.73000004;fill:#7c7b76;fill-opacity:1;fill-rule:nonzero;stroke:#000000;stroke-width:0.07780993;stroke-linecap:round;stroke-linejoin:round;stroke-miterlimit:4;stroke-dasharray:none;stroke-dashoffset:0;stroke-opacity:0.95767194;paint-order:markers fill stroke"
         d="m 42.052312,106.60853 a 0.14400186,0.14400186 0 0 1 -0.144002,0.144 0.14400186,0.14400186 0 0 1 -0.144002,-0.144 0.14400186,0.14400186 0 0 1 0.144002,-0.144 0.14400186,0.14400186 0 0 1 0.144002,0.144 z"
         id="circle9733" />
      <path
         sodipodi:nodetypes="ccc"
         inkscape:connector-curvature="0"
         id="path9735"
         d="m 43.378822,105.57658 0.20073,1.33485 -0.06022,1.18932"
         style="fill:#7c7b76;fill-opacity:1;fill-rule:nonzero;stroke:#000000;stroke-width:0.2334298;stroke-linecap:butt;stroke-linejoin:miter;stroke-miterlimit:4;stroke-dasharray:none;stroke-opacity:1" />
    </g>
  </g>
  <g
     inkscape:groupmode="layer"
     id="layer3"
     inkscape:label="cub1">
    <path
       inkscape:connector-curvature="0"
       id="path6071"
       style="fill:#2f4d4b;fill-opacity:0.2513089;fill-rule:nonzero;stroke:#000000;stroke-width:0.19999999;stroke-linecap:round;stroke-linejoin:round;stroke-miterlimit:4;stroke-dasharray:none;stroke-dashoffset:0;stroke-opacity:0;paint-order:markers fill stroke"
       d="m 20.016574,105.79477 9.308588,2.57202 -2.85021,4.80383 -8.764226,-3.4895 z"
       inkscape:export-xdpi="96"
       inkscape:export-ydpi="96" />
    <path
       inkscape:connector-curvature="0"
       id="path6069"
       style="fill:#2f4d4b;fill-opacity:0.2513089;fill-rule:nonzero;stroke:#000000;stroke-width:0.19999999;stroke-linecap:round;stroke-linejoin:round;stroke-miterlimit:4;stroke-dasharray:none;stroke-dashoffset:0;stroke-opacity:1;paint-order:markers fill stroke"
       d="m 19.84142,94.986927 -3.181541,5.362273 1.050847,9.33192 2.305848,-3.88635 z"
       inkscape:export-xdpi="96"
       inkscape:export-ydpi="96" />
    <path
       inkscape:connector-curvature="0"
       id="path6073"
       style="opacity:0;fill:#2f4d4b;fill-opacity:0.2513089;fill-rule:nonzero;stroke:#000000;stroke-width:0.19999999;stroke-linecap:round;stroke-linejoin:round;stroke-miterlimit:4;stroke-dasharray:none;stroke-dashoffset:0;stroke-opacity:1;paint-order:markers fill stroke"
       d="m 19.84142,94.986927 14.045968,0.03104 -4.562226,13.348793 -9.308588,-2.57202 z"
       inkscape:export-xdpi="96"
       inkscape:export-ydpi="96" />
    <path
       inkscape:connector-curvature="0"
       id="path6075"
       style="opacity:1;fill:#2f4d4b;fill-opacity:0.2513089;fill-rule:nonzero;stroke:#000000;stroke-width:0.19999999;stroke-linecap:round;stroke-linejoin:round;stroke-miterlimit:4;stroke-dasharray:none;stroke-dashoffset:0;stroke-opacity:1;paint-order:markers fill stroke"
       d="m 16.659879,100.3492 12.907563,1.94976 -3.09249,10.87166 -8.764226,-3.4895 z"
       inkscape:export-xdpi="96"
       inkscape:export-ydpi="96" />
    <path
       inkscape:connector-curvature="0"
       id="path6077"
       style="fill:#2f4d4b;fill-opacity:0.2513089;fill-rule:nonzero;stroke:#000000;stroke-width:0.19999999;stroke-linecap:round;stroke-linejoin:round;stroke-miterlimit:4;stroke-dasharray:none;stroke-dashoffset:0;stroke-opacity:1;paint-order:markers fill stroke"
       d="m 33.887388,95.017995 -4.319946,7.280965 -3.09249,10.87166 2.85021,-4.80383 z"
       inkscape:export-xdpi="96"
       inkscape:export-ydpi="96" />
    <path
       inkscape:connector-curvature="0"
       id="path6079"
       style="fill:#2f4d4b;fill-opacity:0.2513089;fill-rule:nonzero;stroke:#000000;stroke-width:0.19999999;stroke-linecap:round;stroke-linejoin:round;stroke-miterlimit:4;stroke-dasharray:none;stroke-dashoffset:0;stroke-opacity:1;paint-order:markers fill stroke"
       d="m 19.84142,94.986927 14.045968,0.03104 -4.319946,7.280963 -12.907563,-1.94976 z"
       inkscape:export-xdpi="96"
       inkscape:export-ydpi="96" />
  </g>
  <g
     inkscape:groupmode="layer"
     id="layer4"
     inkscape:label="light">
    <g
       id="g4660"
       style="fill:url(#radialGradient4620);fill-opacity:1;stroke:none;stroke-width:0.1;stroke-linecap:round;stroke-linejoin:round;stroke-miterlimit:4;stroke-dasharray:none;stroke-dashoffset:0;stroke-opacity:0.51999996;paint-order:stroke markers fill">
      <path
         d="M 91.846692,24.101758 83.643322,42.147867 8.547898,113.95307 13.412371,103.25201 Z"
         style="fill:url(#radialGradient4636);fill-opacity:1;fill-rule:evenodd;stroke:none;stroke-width:0.07708889;stroke-linejoin:round;stroke-opacity:0.51999996"
         id="path6421" />
      <path
         d="m 13.412371,103.25201 13.208438,5.08553 -5.085441,11.18717 -12.98747,-5.57164 z"
         style="fill:url(#radialGradient4638);fill-opacity:1;fill-rule:evenodd;stroke:none;stroke-width:0.07708889;stroke-linejoin:round;stroke-opacity:0.51999996"
         id="path6423" />
      <path
         d="m 121.03977,26.695591 -8.852,19.472999 -90.652402,73.35612 5.085441,-11.18717 z"
         style="fill:url(#radialGradient4640);fill-opacity:1;fill-rule:evenodd;stroke:none;stroke-width:0.07708889;stroke-linejoin:round;stroke-opacity:0.51999996"
         id="path6425" />
      <path
         d="M 91.846692,24.101758 121.03977,26.695591 26.620809,108.33754 13.412371,103.25201 Z"
         style="fill:url(#radialGradient4642);fill-opacity:1;fill-rule:evenodd;stroke:none;stroke-width:0.07708889;stroke-linejoin:round;stroke-opacity:0.51999996"
         id="path6427" />
      <path
         d="M 83.643322,42.147867 112.18777,46.16859 21.535368,119.52471 8.547898,113.95307 Z"
         style="fill:url(#radialGradient4644);fill-opacity:1;fill-rule:evenodd;stroke:none;stroke-width:0.07708889;stroke-linejoin:round;stroke-opacity:0.51999996"
         id="path6429" />
      <path
         d="m 91.846692,24.101758 29.193078,2.593833 -8.852,19.472999 -28.544448,-4.020723 z"
         style="fill:url(#radialGradient4646);fill-opacity:1;fill-rule:evenodd;stroke:none;stroke-width:0.07708889;stroke-linejoin:round;stroke-opacity:0.51999996"
         id="path6431" />
    </g>
  </g>
  <g
     inkscape:groupmode="layer"
     id="layer5"
     inkscape:label="objective" />
  <g
     inkscape:groupmode="layer"
     id="layer6"
     inkscape:label="letters">
    <g
       aria-label="x"
       transform="scale(1.02101,0.97942231)"
       style="font-style:normal;font-weight:normal;font-size:76.71774292px;line-height:1.25;font-family:sans-serif;letter-spacing:0px;word-spacing:0px;fill:#132577;fill-opacity:1;stroke:#ffffff;stroke-width:0.546;stroke-miterlimit:4;stroke-dasharray:none;stroke-opacity:1"
       id="text4620">
      <path
         d="m 89.782437,37.983148 -15.171234,20.41561 15.95789,21.539406 H 82.440309 L 70.228403,63.455836 58.016496,79.938164 H 49.887712 L 66.18274,57.9867 51.273726,37.983148 H 59.40251 L 70.528081,52.929622 81.653653,37.983148 Z"
         style="fill:#132577;fill-opacity:1;stroke:#ffffff;stroke-width:0.546;stroke-miterlimit:4;stroke-dasharray:none;stroke-opacity:1"
         id="path6418" />
    </g>
    <g
       aria-label="D"
       transform="matrix(1.4816082,0,0,1.4212593,748.50957,-192.66982)"
       style="font-style:normal;font-weight:normal;font-size:40px;line-height:1.25;font-family:sans-serif;letter-spacing:0px;word-spacing:0px;fill:#132577;fill-opacity:1;stroke:#ffffff;stroke-width:0.37626109;stroke-miterlimit:4;stroke-dasharray:none;stroke-opacity:1"
       id="flowRoot4610">
      <path
         d="m -477.00977,180.86328 v 22.67578 h 4.76563 q 6.03516,0 8.82812,-2.73437 2.8125,-2.73438 2.8125,-8.63282 0,-5.85937 -2.8125,-8.57421 -2.79296,-2.73438 -8.82812,-2.73438 z m -3.94531,-3.24219 h 8.10547 q 8.47656,0 12.44141,3.53516 3.96484,3.51562 3.96484,11.01562 0,7.53907 -3.98437,11.07422 -3.98438,3.53516 -12.42188,3.53516 h -8.10547 z"
         style="fill:#132577;fill-opacity:1;stroke:#ffffff;stroke-width:0.37626109;stroke-miterlimit:4;stroke-dasharray:none;stroke-opacity:1"
         id="path6415" />
    </g>
  </g>
</svg>
