<?xml version="1.0" encoding="UTF-8"?>
<!-- Created with Inkscape (http://www.inkscape.org/) -->
<svg id="SVGRoot" width="60px" height="60px" version="1.1" viewBox="0 0 60 60" xmlns="http://www.w3.org/2000/svg" xmlns:cc="http://creativecommons.org/ns#" xmlns:dc="http://purl.org/dc/elements/1.1/" xmlns:rdf="http://www.w3.org/1999/02/22-rdf-syntax-ns#">
 <metadata id="metadata2000">
  <rdf:RDF>
   <cc:Work rdf:about="">
    <dc:format>image/svg+xml</dc:format>
    <dc:type rdf:resource="http://purl.org/dc/dcmitype/StillImage"/>
    <dc:title/>
   </cc:Work>
  </rdf:RDF>
 </metadata>
 <g id="layer1">
  <g id="surface1" transform="matrix(.9143 0 0 .88286 -.1927 -.011444)">
   <path id="path3157" d="m40.25 0c-0.34766-0.011719-0.68359 0.15625-0.875 0.46875l-1.5938 2.5938c-0.53906-0.042969-1.0586-0.046875-1.5938 0l-1.625-2.5625c-0.26172-0.41406-0.80078-0.5625-1.25-0.375l-2.8125 1.1875c-0.44531 0.1875-0.70312 0.68359-0.59375 1.1562l0.6875 2.9688c-0.41406 0.35547-0.80469 0.73828-1.1562 1.1562l-2.9688-0.6875c-0.48438-0.10938-0.94141 0.17188-1.125 0.625l-1.1562 2.8438c-0.18359 0.44922-0.03516 0.96094 0.375 1.2188l2.5625 1.5938c-0.04297 0.54297-0.01953 1.1133 0.03125 1.6562l-2.5625 1.5938c-0.41406 0.26172-0.56641 0.80078-0.375 1.25l1.1875 2.8125c0.1875 0.44531 0.65234 0.70703 1.125 0.59375l2.9688-0.65625c0.35156 0.41016 0.73828 0.77734 1.1562 1.125l-0.65625 2.9688c-0.10547 0.47656 0.14062 0.97266 0.59375 1.1562l2.8438 1.1562c0.12109 0.05078 0.25 0.0625 0.375 0.0625 0.33594 0 0.65625-0.17188 0.84375-0.46875l1.6562-2.5938c0.54297 0.03906 1.0898 0.01953 1.625-0.03125l1.6562 2.5938c0.26562 0.40625 0.77344 0.5625 1.2188 0.375l2.8438-1.1875c0.45312-0.19141 0.67578-0.67969 0.5625-1.1562l-0.71875-2.9688c0.40234-0.34766 0.78125-0.74609 1.125-1.1562l3 0.65625c0.48438 0.10547 0.97266-0.14453 1.1562-0.59375l1.1562-2.8438c0.18359-0.45703 0.01172-0.99609-0.40625-1.25l-2.625-1.5938c0.03906-0.53125 0.04687-1.0625 0-1.5938l2.5625-1.6875c0.40625-0.26172 0.59375-0.77344 0.40625-1.2188l-1.2188-2.8125c-0.1875-0.44922-0.67188-0.70703-1.1562-0.59375l-2.9688 0.71875c-0.35156-0.41016-0.71094-0.77734-1.125-1.125l0.625-3c0.10156-0.47656-0.14453-0.97266-0.59375-1.1562l-2.8438-1.1562c-0.11328-0.046875-0.22656-0.058594-0.34375-0.0625zm-3.25 8.875c0.53125-0.00781 1.0703 0.070313 1.5938 0.28125 2.0938 0.85156 3.1016 3.25 2.25 5.3438-0.85156 2.0938-3.25 3.1016-5.3438 2.25-2.0938-0.85156-3.1016-3.25-2.25-5.3438 0.64062-1.5703 2.1562-2.5078 3.75-2.5312zm-22.469 8.125c-0.48828 0-0.92188 0.35938-1 0.84375l-0.625 3.9375c-0.74219 0.22656-1.4766 0.51562-2.1562 0.875l-3.25-2.3125c-0.39844-0.28516-0.93359-0.25-1.2812 0.09375l-2.75 2.75c-0.34375 0.34375-0.37109 0.88281-0.09375 1.2812l2.2812 3.2812c-0.36719 0.6875-0.67578 1.4102-0.90625 2.1562l-3.9062 0.625c-0.48438 0.082031-0.84375 0.51172-0.84375 1v3.875c0 0.48438 0.33594 0.91406 0.8125 1l3.9375 0.6875c0.23047 0.74609 0.53906 1.4688 0.90625 2.1562l-2.3125 3.25c-0.28516 0.39844-0.25391 0.93359 0.09375 1.2812l2.75 2.75c0.34375 0.34375 0.88281 0.37109 1.2812 0.09375l3.2812-2.2812c0.68359 0.36328 1.3828 0.64844 2.125 0.875l0.65625 3.9375c0.07813 0.48047 0.51172 0.84375 1 0.84375h3.875c0.48438 0 0.91406-0.33594 1-0.8125l0.6875-4c0.74219-0.23047 1.4453-0.51172 2.125-0.875l3.3125 2.3125c0.39844 0.27734 0.9375 0.25 1.2812-0.09375l2.75-2.75c0.34766-0.34766 0.37891-0.91406 0.09375-1.3125l-2.3438-3.25c0.35938-0.67969 0.64844-1.3945 0.875-2.125l4-0.6875c0.48047-0.08594 0.8125-0.51562 0.8125-1v-3.875c0-0.48828-0.35938-0.89062-0.84375-0.96875l-3.9688-0.65625c-0.22656-0.73047-0.51562-1.4453-0.875-2.125l2.3125-3.3125c0.27734-0.39844 0.25-0.9375-0.09375-1.2812l-2.75-2.75c-0.34766-0.34766-0.88281-0.37891-1.2812-0.09375l-3.2812 2.3438c-0.68359-0.36328-1.3867-0.64844-2.125-0.875l-0.6875-3.9688c-0.082031-0.48047-0.51562-0.84375-1-0.84375zm1.9688 11.344c2.8555 0 5.1562 2.3008 5.1562 5.1562s-2.3047 5.1562-5.1562 5.1562c-2.8516 0-5.1562-2.3008-5.1562-5.1562s2.3008-5.1562 5.1562-5.1562z"/>
  </g>
  <g id="g1404" transform="matrix(.76366 0 0 .7018 20.355 20.075)" fill="#535353">
   <path id="path2553" d="m20.677 17.464a9.375 8.9062 0 0 1 10.206-7.9321 9.375 8.9062 0 0 1 8.4592 9.61 9.375 8.9062 0 0 1-10.024 8.1394 9.375 8.9062 0 0 1-8.6753-9.4345" style="paint-order:markers stroke fill"/>
   <path id="path2555" d="m4.8768 59.171 2.9346-16.628 0.52243-2.4158 1.084-1.4857 1.3298-1.1764 1.852-0.81997 7.1876-3.9319 0.89779-0.52062 1.3305-0.21428 0.67309 0.8446 0.47274 2.577 3.7468 25.212z"/>
   <path id="path2555-7" d="m54.615 59.431-2.8275-16.644-0.50337-2.4181-1.0444-1.4871-1.2813-1.1775-1.7844-0.82076-6.9253-3.9357-0.86504-0.52113-1.2819-0.21449-0.64853 0.84542-0.45549 2.5795-3.61 25.236z"/>
   <path id="path2578" d="m29.831 33.045h0.9115l1.2015 26.423h-3.6046z"/>
  </g>
 </g>
</svg>
