<?xml version="1.0" encoding="UTF-8"?>
<!DOCTYPE svg  PUBLIC '-//W3C//DTD SVG 1.1//EN'  'http://www.w3.org/Graphics/SVG/1.1/DTD/svg11.dtd'>
<svg width="110.88pt" height="110.88pt" version="1.1" viewBox="0 0 110.88 110.88" xmlns="http://www.w3.org/2000/svg">
 <metadata>
  <rdf:RDF xmlns:cc="http://creativecommons.org/ns#" xmlns:dc="http://purl.org/dc/elements/1.1/" xmlns:rdf="http://www.w3.org/1999/02/22-rdf-syntax-ns#">
   <cc:Work>
    <dc:type rdf:resource="http://purl.org/dc/dcmitype/StillImage"/>
    <dc:date>2025-10-31T14:37:47.329011</dc:date>
    <dc:format>image/svg+xml</dc:format>
    <dc:creator>
     <cc:Agent>
      <dc:title>Matplotlib v3.10.7, https://matplotlib.org/</dc:title>
     </cc:Agent>
    </dc:creator>
   </cc:Work>
  </rdf:RDF>
 </metadata>
 <defs>
  <style type="text/css">*{stroke-linejoin: round; stroke-linecap: butt}</style>
 </defs>
 <g id="figure_1">
  <g id="patch_1">
   <path d="m0 110.88h110.88v-110.88h-110.88z" fill="#fff"/>
  </g>
  <g id="axes_1">
   <g id="QuadContourSet_1" fill="none" stroke-width="5">
    <path d="m80.792 90.839 0.55719 0.032251 0.55719 0.013802 0.55719-0.006039 0.55719-0.027541 0.3289-0.029717 0.22828-0.021136 0.55719-0.076483 0.55719-0.10536 0.55719-0.13771 0.55719-0.17415 0.11387-0.042348 0.44332-0.17482 0.55719-0.26644 0.20754-0.11592 0.34964-0.21136 0.48731-0.34582 0.069877-0.054536 0.55719-0.49711 0.005537-0.005537 0.49711-0.55719 0.054536-0.069877 0.34582-0.48731 0.21136-0.34964 0.11592-0.20754 0.26644-0.55719 0.17482-0.44332 0.042348-0.11387 0.17415-0.55719 0.13771-0.55719 0.10536-0.55719 0.076483-0.55719 0.021136-0.22828 0.029717-0.3289 0.027541-0.55719 0.006039-0.55719-0.013802-0.55719-0.032251-0.55719-0.017244-0.19148-0.031615-0.3657-0.064292-0.55719-0.079228-0.55719-0.093513-0.55719-0.10731-0.55719-0.12076-0.55719-0.06047-0.25044-0.071259-0.30674-0.14218-0.55719-0.15436-0.55719-0.16663-0.55718-0.02275-0.070775-0.15071-0.48641-0.1843-0.55719-0.19626-0.55719-0.025919-0.069502-0.17558-0.48768-0.21218-0.55719-0.16942-0.42143-0.052756-0.13576-0.22717-0.55719-0.23938-0.55719-0.037879-0.084486-0.20519-0.4727-0.25386-0.55719-0.098137-0.20659-0.16146-0.3506-0.26807-0.55719-0.12766-0.2548-0.14705-0.30238-0.28223-0.55719-0.1279-0.24302-0.1607-0.31417-0.29657-0.55719-0.099919-0.18138-0.20148-0.37581-0.31127-0.55719-0.044437-0.0773-0.26881-0.47989-0.28837-0.49346-0.036323-0.063726-0.32614-0.55719-0.19473-0.32041-0.14053-0.23677-0.34196-0.55719-0.074696-0.11847-0.27048-0.43871-0.2867-0.44787-0.068494-0.10932-0.35819-0.55719-0.1305-0.19704-0.23377-0.36015-0.32341-0.48122-0.050088-0.075971-0.37566-0.55718-0.13144-0.18949-0.25054-0.3677-0.30665-0.43586-0.083919-0.12132-0.39477-0.55719-0.078494-0.10833-0.32018-0.44886-0.23701-0.32265-0.16976-0.23453-0.38742-0.52028-0.027103-0.036902-0.41618-0.55719-0.1139-0.14886-0.30854-0.40832-0.24864-0.3207-0.18124-0.23649-0.37594-0.47853-0.061138-0.078652-0.44125-0.55719-0.054799-0.068026-0.39039-0.48916-0.1668-0.20443-0.28543-0.35276-0.27176-0.32882-0.18733-0.22836-0.36985-0.44184-0.095935-0.11535-0.46125-0.54403-0.011091-0.013153-0.47525-0.55719-0.070844-0.081698-0.41058-0.47549-0.14661-0.16698-0.34148-0.39021-0.21571-0.24264-0.27897-0.31454-0.27822-0.3091-0.22298-0.24808-0.3342-0.36672-0.17349-0.19046-0.38369-0.41584-0.13048-0.14135-0.4267-0.45676-0.093951-0.10042-0.46324-0.48976-0.063924-0.067424-0.49326-0.51509-0.040444-0.042093-0.51674-0.53298-0.023574-0.024211-0.53361-0.54361-0.013399-0.013579-0.54379-0.54716-0.010025-0.010025-0.54716-0.54379-0.013579-0.013399-0.54361-0.53361-0.024211-0.023574-0.53298-0.51674-0.042093-0.040444-0.51509-0.49326-0.067424-0.063924-0.48976-0.46324-0.10042-0.093951-0.45676-0.4267-0.14135-0.13048-0.41584-0.38369-0.19046-0.17349-0.36672-0.3342-0.24808-0.22298-0.3091-0.27822-0.31454-0.27897-0.24264-0.21571-0.39021-0.34148-0.16698-0.14661-0.47549-0.41058-0.081698-0.070844-0.55719-0.47525-0.013153-0.011091-0.54403-0.46125-0.11535-0.095935-0.44184-0.36985-0.22836-0.18733-0.32882-0.27176-0.35276-0.28543-0.20443-0.1668-0.48916-0.39039-0.068026-0.054799-0.55719-0.44125-0.078652-0.061138-0.47853-0.37594-0.23649-0.18124-0.3207-0.24864-0.40832-0.30854-0.14886-0.1139-0.55719-0.41618-0.036902-0.027103-0.52028-0.38742-0.23453-0.16976-0.32265-0.23701-0.44886-0.32018-0.10833-0.078494-0.55719-0.39477-0.12132-0.083919-0.43586-0.30665-0.3677-0.25054-0.18949-0.13144-0.55718-0.37566-0.075971-0.050088-0.48122-0.32341-0.36015-0.23377-0.19704-0.1305-0.55719-0.35819-0.10932-0.068494-0.44787-0.2867-0.43871-0.27048-0.11847-0.074696-0.55719-0.34196-0.23677-0.14053-0.32041-0.19473-0.55719-0.32614-0.063726-0.036323-0.49346-0.28837-0.47989-0.26881-0.0773-0.044437-0.55719-0.31127-0.37581-0.20148-0.18138-0.099919-0.55719-0.29657-0.31417-0.1607-0.24302-0.1279-0.55719-0.28223-0.30238-0.14705-0.2548-0.12766-0.55719-0.26807-0.3506-0.16146-0.20659-0.098137-0.55719-0.25386-0.4727-0.20519-0.084486-0.037879-0.55719-0.23938-0.55719-0.22717-0.13576-0.052756-0.42143-0.16942-0.55719-0.21218-0.48768-0.17558-0.069502-0.025919-0.55719-0.19626-0.55719-0.1843-0.48641-0.15071-0.070775-0.02275-0.55718-0.16663-0.55719-0.15436-0.55719-0.14218-0.30674-0.071259-0.25044-0.06047-0.55719-0.12076-0.55719-0.10731-0.55719-0.093513-0.55719-0.079228-0.55719-0.064292-0.3657-0.031615-0.19148-0.017244-0.55719-0.032251-0.55719-0.013802-0.55719 0.006039-0.55719 0.027541-0.3289 0.029717-0.22828 0.021136-0.55719 0.076483-0.55719 0.10536-0.55719 0.13771-0.55719 0.17415-0.11387 0.042348-0.44332 0.17482-0.55719 0.26644-0.20754 0.11592-0.34964 0.21136-0.48731 0.34582-0.069877 0.054536-0.55719 0.49711-0.005537 0.005537-0.49711 0.55719-0.054536 0.069877-0.34582 0.48731-0.21136 0.34964-0.11592 0.20754-0.26644 0.55719-0.17482 0.44332-0.042348 0.11387-0.17415 0.55719-0.13771 0.55719-0.10536 0.55719-0.076483 0.55719-0.021136 0.22828-0.029717 0.3289-0.027541 0.55719-0.006039 0.55719 0.013802 0.55719 0.032251 0.55719 0.017244 0.19148 0.031615 0.3657 0.064292 0.55719 0.079228 0.55719 0.093513 0.55719 0.10731 0.55719 0.12076 0.55719 0.06047 0.25044 0.071259 0.30674 0.14218 0.55719 0.15436 0.55719 0.16663 0.55718 0.02275 0.070775 0.15071 0.48641 0.1843 0.55719 0.19626 0.55719 0.025919 0.069502 0.17558 0.48768 0.21218 0.55719 0.16942 0.42143 0.052756 0.13576 0.22717 0.55719 0.23938 0.55719 0.037879 0.084486 0.20519 0.4727 0.25386 0.55719 0.098137 0.20659 0.16146 0.3506 0.26807 0.55719 0.12766 0.2548 0.14705 0.30238 0.28223 0.55719 0.1279 0.24302 0.1607 0.31417 0.29657 0.55719 0.099919 0.18138 0.20148 0.37581 0.31127 0.55719 0.044437 0.0773 0.26881 0.47989 0.28837 0.49346 0.036323 0.063726 0.32614 0.55719 0.19473 0.32041 0.14053 0.23677 0.34196 0.55719 0.074696 0.11847 0.27048 0.43871 0.2867 0.44787 0.068494 0.10932 0.35819 0.55719 0.1305 0.19704 0.23377 0.36015 0.32341 0.48122 0.050088 0.075971 0.37566 0.55718 0.13144 0.18949 0.25054 0.3677 0.30665 0.43586 0.083919 0.12132 0.39477 0.55719 0.078494 0.10833 0.32018 0.44886 0.23701 0.32265 0.16976 0.23453 0.38742 0.52028 0.027103 0.036902 0.41618 0.55719 0.1139 0.14886 0.30854 0.40832 0.24864 0.3207 0.18124 0.23649 0.37594 0.47853 0.061138 0.078652 0.44125 0.55719 0.054799 0.068026 0.39039 0.48916 0.1668 0.20443 0.28543 0.35276 0.27176 0.32882 0.18733 0.22836 0.36985 0.44184 0.095935 0.11535 0.46125 0.54403 0.011091 0.013153 0.47525 0.55719 0.070844 0.081698 0.41058 0.47549 0.14661 0.16698 0.34148 0.39021 0.21571 0.24264 0.27897 0.31454 0.27822 0.3091 0.22298 0.24808 0.3342 0.36672 0.17349 0.19046 0.38369 0.41584 0.13048 0.14135 0.4267 0.45676 0.093951 0.10042 0.46324 0.48976 0.063924 0.067424 0.49326 0.51509 0.040444 0.042093 0.51674 0.53298 0.023574 0.024211 0.53361 0.54361 0.013399 0.013579 0.54379 0.54716 0.010025 0.010025 0.54716 0.54379 0.013579 0.013399 0.54361 0.53361 0.024211 0.023574 0.53298 0.51674 0.042093 0.040444 0.51509 0.49326 0.067424 0.063924 0.48976 0.46324 0.10042 0.093951 0.45676 0.4267 0.14135 0.13048 0.41584 0.38369 0.19046 0.17349 0.36672 0.3342 0.24808 0.22298 0.3091 0.27822 0.31454 0.27897 0.24264 0.21571 0.39021 0.34148 0.16698 0.14661 0.47549 0.41058 0.081698 0.070844 0.55719 0.47525 0.013153 0.011091 0.54403 0.46125 0.11535 0.095935 0.44184 0.36985 0.22836 0.18733 0.32882 0.27176 0.35276 0.28543 0.20443 0.1668 0.48916 0.39039 0.068026 0.054799 0.55719 0.44125 0.078652 0.061138 0.47853 0.37594 0.23649 0.18124 0.3207 0.24864 0.40832 0.30854 0.14886 0.1139 0.55719 0.41618 0.036902 0.027103 0.52028 0.38742 0.23453 0.16976 0.32265 0.23701 0.44886 0.32018 0.10833 0.078494 0.55719 0.39477 0.12132 0.083919 0.43586 0.30665 0.3677 0.25054 0.18949 0.13144 0.55718 0.37566 0.075971 0.050088 0.48122 0.32341 0.36015 0.23377 0.19704 0.1305 0.55719 0.35819 0.10932 0.068494 0.44787 0.2867 0.43871 0.27048 0.11847 0.074696 0.55719 0.34196 0.23677 0.14053 0.32041 0.19473 0.55719 0.32614 0.063726 0.036323 0.49346 0.28837 0.47989 0.26881 0.0773 0.044437 0.55719 0.31127 0.37581 0.20148 0.18138 0.099919 0.55719 0.29657 0.31417 0.1607 0.24302 0.1279 0.55719 0.28223 0.30238 0.14705 0.2548 0.12766 0.55719 0.26807 0.3506 0.16146 0.20659 0.098137 0.55719 0.25386 0.4727 0.20519 0.084486 0.037879 0.55719 0.23938 0.55719 0.22717 0.13576 0.052756 0.42143 0.16942 0.55719 0.21218 0.48768 0.17558 0.069502 0.025919 0.55719 0.19626 0.55719 0.1843 0.48641 0.15071 0.070775 0.02275 0.55718 0.16663 0.55719 0.15436 0.55719 0.14218 0.30674 0.071259 0.25044 0.06047 0.55719 0.12076 0.55719 0.10731 0.55719 0.093513 0.55719 0.079228 0.55719 0.064292 0.3657 0.031615 0.19148 0.017244z" clip-path="url(#pc2019ddd1d)" stroke="#1996f3"/>
    <path d="m72.991 81.951 0.55719 0.088138 0.55719 0.068729 0.55719 0.047763 0.55719 0.024878 0.55718-3.58e-4 0.55719-0.028451 0.55719-0.060007 0.55719-0.095763 0.37112-0.089489 0.18607-0.048422 0.55719-0.18968 0.55719-0.24787 0.13173-0.071215 0.42546-0.25722 0.405-0.29997 0.15219-0.12907 0.42811-0.42811 0.12907-0.15219 0.29997-0.405 0.25722-0.42546 0.071215-0.13173 0.24787-0.55719 0.18968-0.55719 0.048422-0.18607 0.089489-0.37112 0.095763-0.55719 0.060007-0.55719 0.028451-0.55719 3.58e-4 -0.55718-0.024878-0.55719-0.047763-0.55719-0.068729-0.55719-0.088138-0.55719-0.04456-0.23069-0.061489-0.3265-0.12252-0.55719-0.13823-0.55719-0.15334-0.55719-0.081614-0.26881-0.08549-0.28838-0.17991-0.55719-0.19326-0.55719-0.098529-0.26461-0.10652-0.29258-0.2162-0.55719-0.22882-0.55719-0.005646-0.012979-0.2318-0.54421-0.24949-0.55719-0.075895-0.16132-0.18258-0.39587-0.26907-0.55719-0.10553-0.2091-0.17244-0.34809-0.28791-0.55719-0.096838-0.18008-0.19928-0.3771-0.30635-0.55719-0.051555-0.090503-0.26158-0.46668-0.29561-0.50765-0.028407-0.049532-0.32987-0.55719-0.19891-0.32439-0.14076-0.23279-0.34804-0.55719-0.068389-0.10636-0.28621-0.45083-0.27098-0.41315-0.093365-0.14404-0.37142-0.55719-0.092405-0.13495-0.28609-0.42223-0.2711-0.3885-0.11659-0.16869-0.39543-0.55719-0.045162-0.062232-0.35622-0.49495-0.20097-0.27196-0.20923-0.28523-0.34795-0.46243-0.070843-0.094753-0.42564-0.55719-0.060702-0.077883-0.37165-0.4793-0.18554-0.23395-0.25527-0.32323-0.30191-0.37416-0.14721-0.18302-0.40998-0.49938-0.047355-0.05781-0.46432-0.55719-0.045507-0.05373-0.42598-0.50346-0.13121-0.15236-0.34863-0.40483-0.20856-0.23817-0.27962-0.31902-0.27757-0.31175-0.21895-0.24544-0.33824-0.37363-0.16665-0.18356-0.39053-0.42429-0.1228-0.1329-0.43439-0.46417-0.087473-0.093016-0.46971-0.49366-0.060799-0.063526-0.49639-0.51312-0.042925-0.04407-0.51426-0.52285-0.034032-0.034332-0.52315-0.52315-0.034332-0.034032-0.52285-0.51426-0.04407-0.042925-0.51312-0.49639-0.063526-0.060799-0.49366-0.46971-0.093016-0.087473-0.46417-0.43439-0.1329-0.1228-0.42429-0.39053-0.18356-0.16665-0.37363-0.33824-0.24544-0.21895-0.31175-0.27757-0.31902-0.27962-0.23817-0.20856-0.40483-0.34863-0.15236-0.13121-0.50346-0.42598-0.05373-0.045507-0.55719-0.46432-0.05781-0.047355-0.49938-0.40998-0.18302-0.14721-0.37416-0.30191-0.32323-0.25527-0.23395-0.18554-0.4793-0.37165-0.077883-0.060702-0.55719-0.42564-0.094753-0.070843-0.46243-0.34795-0.28523-0.20923-0.27196-0.20097-0.49495-0.35622-0.062232-0.045162-0.55719-0.39543-0.16869-0.11659-0.3885-0.2711-0.42223-0.28609-0.13495-0.092405-0.55719-0.37142-0.14404-0.093365-0.41315-0.27098-0.45083-0.28621-0.10636-0.068389-0.55719-0.34804-0.23279-0.14076-0.32439-0.19891-0.55719-0.32987-0.049532-0.028407-0.50765-0.29561-0.46668-0.26158-0.090503-0.051555-0.55719-0.30635-0.3771-0.19928-0.18008-0.096838-0.55719-0.28791-0.34809-0.17244-0.2091-0.10553-0.55719-0.26907-0.39587-0.18258-0.16132-0.075895-0.55719-0.24949-0.54421-0.2318-0.012979-0.005646-0.55719-0.22882-0.55719-0.2162-0.29258-0.10652-0.26461-0.098529-0.55719-0.19326-0.55719-0.17991-0.28838-0.08549-0.26881-0.081614-0.55719-0.15334-0.55719-0.13823-0.55719-0.12252-0.3265-0.061489-0.23069-0.04456-0.55719-0.088138-0.55719-0.068729-0.55719-0.047763-0.55719-0.024878-0.55718 3.58e-4 -0.55719 0.028451-0.55719 0.060007-0.55719 0.095763-0.37112 0.089489-0.18607 0.048422-0.55719 0.18968-0.55719 0.24787-0.13173 0.071215-0.42546 0.25722-0.405 0.29997-0.15219 0.12907-0.42811 0.42811-0.12907 0.15219-0.29997 0.405-0.25722 0.42546-0.071215 0.13173-0.24787 0.55719-0.18968 0.55719-0.048422 0.18607-0.089489 0.37112-0.095763 0.55719-0.060007 0.55719-0.028451 0.55719-3.58e-4 0.55718 0.024878 0.55719 0.047763 0.55719 0.068729 0.55719 0.088138 0.55719 0.04456 0.23069 0.061489 0.3265 0.12252 0.55719 0.13823 0.55719 0.15334 0.55719 0.081614 0.26881 0.08549 0.28838 0.17991 0.55719 0.19326 0.55719 0.098529 0.26461 0.10652 0.29258 0.2162 0.55719 0.22882 0.55719 0.005646 0.012979 0.2318 0.54421 0.24949 0.55719 0.075895 0.16132 0.18258 0.39587 0.26907 0.55719 0.10553 0.2091 0.17244 0.34809 0.28791 0.55719 0.096838 0.18008 0.19928 0.3771 0.30635 0.55719 0.051555 0.090503 0.26158 0.46668 0.29561 0.50765 0.028407 0.049532 0.32987 0.55719 0.19891 0.32439 0.14076 0.23279 0.34804 0.55719 0.068389 0.10636 0.28621 0.45083 0.27098 0.41315 0.093365 0.14404 0.37142 0.55719 0.092405 0.13495 0.28609 0.42223 0.2711 0.3885 0.11659 0.16869 0.39543 0.55719 0.045162 0.062232 0.35622 0.49495 0.20097 0.27196 0.20923 0.28523 0.34795 0.46243 0.070843 0.094753 0.42564 0.55719 0.060702 0.077883 0.37165 0.4793 0.18554 0.23395 0.25527 0.32323 0.30191 0.37416 0.14721 0.18302 0.40998 0.49938 0.047355 0.05781 0.46432 0.55719 0.045507 0.05373 0.42598 0.50346 0.13121 0.15236 0.34863 0.40483 0.20856 0.23817 0.27962 0.31902 0.27757 0.31175 0.21895 0.24544 0.33824 0.37363 0.16665 0.18356 0.39053 0.42429 0.1228 0.1329 0.43439 0.46417 0.087473 0.093016 0.46971 0.49366 0.060799 0.063526 0.49639 0.51312 0.042925 0.04407 0.51426 0.52285 0.034032 0.034332 0.52315 0.52315 0.034332 0.034032 0.52285 0.51426 0.04407 0.042925 0.51312 0.49639 0.063526 0.060799 0.49366 0.46971 0.093016 0.087473 0.46417 0.43439 0.1329 0.1228 0.42429 0.39053 0.18356 0.16665 0.37363 0.33824 0.24544 0.21895 0.31175 0.27757 0.31902 0.27962 0.23817 0.20856 0.40483 0.34863 0.15236 0.13121 0.50346 0.42598 0.05373 0.045507 0.55719 0.46432 0.05781 0.047355 0.49938 0.40998 0.18302 0.14721 0.37416 0.30191 0.32323 0.25527 0.23395 0.18554 0.4793 0.37165 0.077883 0.060702 0.55719 0.42564 0.094753 0.070843 0.46243 0.34795 0.28523 0.20923 0.27196 0.20097 0.49495 0.35622 0.062232 0.045162 0.55719 0.39543 0.16869 0.11659 0.3885 0.2711 0.42223 0.28609 0.13495 0.092405 0.55719 0.37142 0.14404 0.093365 0.41315 0.27098 0.45083 0.28621 0.10636 0.068389 0.55719 0.34804 0.23279 0.14076 0.32439 0.19891 0.55719 0.32987 0.049532 0.028407 0.50765 0.29561 0.46668 0.26158 0.090503 0.051555 0.55719 0.30635 0.3771 0.19928 0.18008 0.096838 0.55719 0.28791 0.34809 0.17244 0.2091 0.10553 0.55719 0.26907 0.39587 0.18258 0.16132 0.075895 0.55719 0.24949 0.54421 0.2318 0.012979 0.005646 0.55719 0.22882 0.55719 0.2162 0.29258 0.10652 0.26461 0.098529 0.55719 0.19326 0.55719 0.17991 0.28838 0.08549 0.26881 0.081614 0.55719 0.15334 0.55719 0.13823 0.55719 0.12252 0.3265 0.061489 0.23069 0.04456z" clip-path="url(#pc2019ddd1d)" stroke="#4df3ce"/>
    <path d="m68.534 75.232 0.55719 0.084574 0.55719 0.05834 0.55719 0.028826 0.55719-0.004808 0.55719-0.043617 0.55719-0.088939 0.19002-0.046664 0.36716-0.10139 0.55719-0.22056 0.43479-0.23524 0.1224-0.07764 0.55719-0.45432 0.025223-0.025223 0.45432-0.55719 0.07764-0.1224 0.23524-0.43479 0.22056-0.55719 0.10139-0.36716 0.046664-0.19002 0.088939-0.55719 0.043617-0.55719 0.004808-0.55719-0.028826-0.55719-0.05834-0.55719-0.084574-0.55719-0.012288-0.06146-0.097843-0.49573-0.13161-0.55719-0.15102-0.55718-0.16909-0.55719-0.007622-0.022315-0.18052-0.53487-0.20362-0.55719-0.17304-0.43949-0.04584-0.1177-0.23432-0.55719-0.24755-0.55719-0.029483-0.062209-0.23231-0.49498-0.2741-0.55719-0.050776-0.097844-0.23632-0.45934-0.29877-0.55719-0.022094-0.039317-0.28883-0.51787-0.26836-0.46361-0.053816-0.093578-0.33345-0.55719-0.16992-0.27406-0.17459-0.28312-0.35523-0.55719-0.027365-0.041504-0.33857-0.51568-0.21861-0.32307-0.15792-0.23412-0.38691-0.55719-0.012357-0.017297-0.38487-0.53989-0.17232-0.2354-0.23531-0.32179-0.32188-0.42912-0.096057-0.12807-0.42815-0.55719-0.032976-0.041948-0.40548-0.51524-0.15171-0.18858-0.29717-0.36861-0.26002-0.31584-0.19932-0.24135-0.35787-0.42481-0.11198-0.13238-0.4452-0.51649-0.035265-0.040699-0.49127-0.55718-0.030653-0.034204-0.47167-0.52298-0.085517-0.09335-0.42805-0.46384-0.12914-0.13791-0.39591-0.41928-0.16127-0.16849-0.37555-0.38869-0.18164-0.18566-0.3673-0.37153-0.18989-0.18989-0.37153-0.3673-0.18566-0.18164-0.38869-0.37555-0.16849-0.16127-0.41928-0.39591-0.13791-0.12914-0.46384-0.42805-0.09335-0.085517-0.52298-0.47167-0.034204-0.030653-0.55718-0.49127-0.040699-0.035265-0.51649-0.4452-0.13238-0.11198-0.42481-0.35787-0.24135-0.19932-0.31584-0.26002-0.36861-0.29717-0.18858-0.15171-0.51524-0.40548-0.041948-0.032976-0.55719-0.42815-0.12807-0.096057-0.42912-0.32188-0.32179-0.23531-0.2354-0.17232-0.53989-0.38487-0.017297-0.012357-0.55719-0.38691-0.23412-0.15792-0.32307-0.21861-0.51568-0.33857-0.041504-0.027365-0.55719-0.35523-0.28312-0.17459-0.27406-0.16992-0.55719-0.33345-0.093578-0.053816-0.46361-0.26836-0.51787-0.28883-0.039317-0.022094-0.55719-0.29877-0.45934-0.23632-0.097844-0.050776-0.55719-0.2741-0.49498-0.23231-0.062209-0.029483-0.55719-0.24755-0.55719-0.23432-0.1177-0.04584-0.43949-0.17304-0.55719-0.20362-0.53487-0.18052-0.022315-0.007622-0.55719-0.16909-0.55718-0.15102-0.55719-0.13161-0.49573-0.097843-0.06146-0.012288-0.55719-0.084574-0.55719-0.05834-0.55719-0.028826-0.55719 0.004808-0.55719 0.043617-0.55719 0.088939-0.19002 0.046664-0.36716 0.10139-0.55719 0.22056-0.43479 0.23524-0.1224 0.07764-0.55719 0.45432-0.025223 0.025223-0.45432 0.55719-0.07764 0.1224-0.23524 0.43479-0.22056 0.55719-0.10139 0.36716-0.046664 0.19002-0.088939 0.55719-0.043617 0.55719-0.004808 0.55719 0.028826 0.55719 0.05834 0.55719 0.084574 0.55719 0.012288 0.06146 0.097843 0.49573 0.13161 0.55719 0.15102 0.55718 0.16909 0.55719 0.007622 0.022315 0.18052 0.53487 0.20362 0.55719 0.17304 0.43949 0.04584 0.1177 0.23432 0.55719 0.24755 0.55719 0.029483 0.062209 0.23231 0.49498 0.2741 0.55719 0.050776 0.097844 0.23632 0.45934 0.29877 0.55719 0.022094 0.039317 0.28883 0.51787 0.26836 0.46361 0.053816 0.093578 0.33345 0.55719 0.16992 0.27406 0.17459 0.28312 0.35523 0.55719 0.027365 0.041504 0.33857 0.51568 0.21861 0.32307 0.15792 0.23412 0.38691 0.55719 0.012357 0.017297 0.38487 0.53989 0.17232 0.2354 0.23531 0.32179 0.32188 0.42912 0.096057 0.12807 0.42815 0.55719 0.032976 0.041948 0.40548 0.51524 0.15171 0.18858 0.29717 0.36861 0.26002 0.31584 0.19932 0.24135 0.35787 0.42481 0.11198 0.13238 0.4452 0.51649 0.035265 0.040699 0.49127 0.55718 0.030653 0.034204 0.47167 0.52298 0.085517 0.09335 0.42805 0.46384 0.12914 0.13791 0.39591 0.41928 0.16127 0.16849 0.37555 0.38869 0.18164 0.18566 0.3673 0.37153 0.18989 0.18989 0.37153 0.3673 0.18566 0.18164 0.38869 0.37555 0.16849 0.16127 0.41928 0.39591 0.13791 0.12914 0.46384 0.42805 0.09335 0.085517 0.52298 0.47167 0.034204 0.030653 0.55718 0.49127 0.040699 0.035265 0.51649 0.4452 0.13238 0.11198 0.42481 0.35787 0.24135 0.19932 0.31584 0.26002 0.36861 0.29717 0.18858 0.15171 0.51524 0.40548 0.041948 0.032976 0.55719 0.42815 0.12807 0.096057 0.42912 0.32188 0.32179 0.23531 0.2354 0.17232 0.53989 0.38487 0.017297 0.012357 0.55719 0.38691 0.23412 0.15792 0.32307 0.21861 0.51568 0.33857 0.041504 0.027365 0.55719 0.35523 0.28312 0.17459 0.27406 0.16992 0.55719 0.33345 0.093578 0.053816 0.46361 0.26836 0.51787 0.28883 0.039317 0.022094 0.55719 0.29877 0.45934 0.23632 0.097844 0.050776 0.55719 0.2741 0.49498 0.23231 0.062209 0.029483 0.55719 0.24755 0.55719 0.23432 0.1177 0.04584 0.43949 0.17304 0.55719 0.20362 0.53487 0.18052 0.022315 0.007622 0.55719 0.16909 0.55718 0.15102 0.55719 0.13161 0.49573 0.097843 0.06146 0.012288z" clip-path="url(#pc2019ddd1d)" stroke="#b2f396"/>
    <path d="m64.634 68.597 0.55719 0.03652 0.55719-0.013489 0.55719-0.075501 0.039857-0.010162 0.51733-0.16037 0.55718-0.29137 0.14123-0.10545 0.41595-0.41595 0.10545-0.14123 0.29137-0.55718 0.16037-0.51733 0.010162-0.039857 0.075501-0.55719 0.013489-0.55719-0.03652-0.55719-0.062632-0.44401-0.016024-0.11317-0.11866-0.55719-0.14847-0.55719-0.17408-0.55719-0.099957-0.27716-0.10128-0.28003-0.2256-0.55719-0.23031-0.52728-0.013107-0.029903-0.26908-0.55719-0.275-0.54176-0.007862-0.015421-0.30635-0.55718-0.24297-0.42358-0.077026-0.1336-0.3389-0.55719-0.14126-0.22236-0.21398-0.33483-0.34321-0.5187-0.025649-0.03849-0.38805-0.55719-0.14349-0.19944-0.25943-0.35775-0.29775-0.39876-0.11938-0.15843-0.43186-0.55719-0.005944-0.007423-0.44465-0.54976-0.11254-0.13578-0.35318-0.42141-0.20401-0.23784-0.2773-0.31934-0.27989-0.31534-0.21756-0.24185-0.33962-0.3698-0.17463-0.18739-0.38256-0.4026-0.14924-0.15459-0.40795-0.41495-0.14224-0.14224-0.41495-0.40795-0.15459-0.14924-0.4026-0.38256-0.18739-0.17463-0.3698-0.33962-0.24185-0.21756-0.31534-0.27989-0.31934-0.2773-0.23784-0.20401-0.42141-0.35318-0.13578-0.11254-0.54976-0.44465-0.007423-0.005944-0.55719-0.43186-0.15843-0.11938-0.39876-0.29775-0.35775-0.25943-0.19944-0.14349-0.55719-0.38805-0.03849-0.025649-0.5187-0.34321-0.33483-0.21398-0.22236-0.14126-0.55719-0.3389-0.1336-0.077026-0.42358-0.24297-0.55718-0.30635-0.015421-0.007862-0.54176-0.275-0.55719-0.26908-0.029903-0.013107-0.52728-0.23031-0.55719-0.2256-0.28003-0.10128-0.27716-0.099957-0.55719-0.17408-0.55719-0.14847-0.55719-0.11866-0.11317-0.016024-0.44401-0.062632-0.55719-0.03652-0.55719 0.013489-0.55719 0.075501-0.039857 0.010162-0.51733 0.16037-0.55718 0.29137-0.14123 0.10545-0.41595 0.41595-0.10545 0.14123-0.29137 0.55718-0.16037 0.51733-0.010162 0.039857-0.075501 0.55719-0.013489 0.55719 0.03652 0.55719 0.062632 0.44401 0.016024 0.11317 0.11866 0.55719 0.14847 0.55719 0.17408 0.55719 0.099957 0.27716 0.10128 0.28003 0.2256 0.55719 0.23031 0.52728 0.013107 0.029903 0.26908 0.55719 0.275 0.54176 0.007862 0.015421 0.30635 0.55718 0.24297 0.42358 0.077026 0.1336 0.3389 0.55719 0.14126 0.22236 0.21398 0.33483 0.34321 0.5187 0.025649 0.03849 0.38805 0.55719 0.14349 0.19944 0.25943 0.35775 0.29775 0.39876 0.11938 0.15843 0.43186 0.55719 0.005944 0.007423 0.44465 0.54976 0.11254 0.13578 0.35318 0.42141 0.20401 0.23784 0.2773 0.31934 0.27989 0.31534 0.21756 0.24185 0.33962 0.3698 0.17463 0.18739 0.38256 0.4026 0.14924 0.15459 0.40795 0.41495 0.14224 0.14224 0.41495 0.40795 0.15459 0.14924 0.4026 0.38256 0.18739 0.17463 0.3698 0.33962 0.24185 0.21756 0.31534 0.27989 0.31934 0.2773 0.23784 0.20401 0.42141 0.35318 0.13578 0.11254 0.54976 0.44465 0.007423 0.005944 0.55719 0.43186 0.15843 0.11938 0.39876 0.29775 0.35775 0.25943 0.19944 0.14349 0.55719 0.38805 0.03849 0.025649 0.5187 0.34321 0.33483 0.21398 0.22236 0.14126 0.55719 0.3389 0.1336 0.077026 0.42358 0.24297 0.55718 0.30635 0.015421 0.007862 0.54176 0.275 0.55719 0.26908 0.029903 0.013107 0.52728 0.23031 0.55719 0.2256 0.28003 0.10128 0.27716 0.099957 0.55719 0.17408 0.55719 0.14847 0.55719 0.11866 0.11317 0.016024 0.44401 0.062632z" clip-path="url(#pc2019ddd1d)" stroke="#ff964f"/>
   </g>
  </g>
 </g>
 <defs>
  <clipPath id="pc2019ddd1d">
   <rect width="110.88" height="110.88"/>
  </clipPath>
 </defs>
</svg>
