<?xml version="1.0" encoding="UTF-8" standalone="no"?>
<!-- Created with Inkscape (http://www.inkscape.org/) -->

<svg
   xmlns:dc="http://purl.org/dc/elements/1.1/"
   xmlns:cc="http://creativecommons.org/ns#"
   xmlns:rdf="http://www.w3.org/1999/02/22-rdf-syntax-ns#"
   xmlns:svg="http://www.w3.org/2000/svg"
   xmlns="http://www.w3.org/2000/svg"
   xmlns:sodipodi="http://sodipodi.sourceforge.net/DTD/sodipodi-0.dtd"
   xmlns:inkscape="http://www.inkscape.org/namespaces/inkscape"
   width="210mm"
   height="297mm"
   viewBox="0 0 210 297"
   version="1.1"
   id="svg8"
   inkscape:version="0.92.1 r15371"
   sodipodi:docname="resize.svg"
   inkscape:export-filename="/users/garrigaf/Documents/git/darfix/orangecontrib/darfix/widgets/icons/resize.png"
   inkscape:export-xdpi="20.956167"
   inkscape:export-ydpi="20.956167">
  <defs
     id="defs2" />
  <sodipodi:namedview
     id="base"
     pagecolor="#ffffff"
     bordercolor="#666666"
     borderopacity="1.0"
     inkscape:pageopacity="0.0"
     inkscape:pageshadow="2"
     inkscape:zoom="0.7"
     inkscape:cx="119.10359"
     inkscape:cy="549.82847"
     inkscape:document-units="mm"
     inkscape:current-layer="layer1"
     showgrid="false"
     showguides="true"
     inkscape:guide-bbox="true"
     inkscape:window-width="1920"
     inkscape:window-height="1171"
     inkscape:window-x="1920"
     inkscape:window-y="0"
     inkscape:window-maximized="1">
    <sodipodi:guide
       position="106.106,109.58051"
       orientation="0,1"
       id="guide5076"
       inkscape:locked="false" />
    <sodipodi:guide
       position="45.435819,161.96534"
       orientation="1,0"
       id="guide5078"
       inkscape:locked="false" />
    <sodipodi:guide
       position="66.282841,216.75559"
       orientation="0,1"
       id="guide5080"
       inkscape:locked="false" />
    <sodipodi:guide
       position="168.64707,293.99648"
       orientation="1,0"
       id="guide5082"
       inkscape:locked="false" />
    <sodipodi:guide
       position="156.88721,262.99322"
       orientation="1,0"
       id="guide5084"
       inkscape:locked="false" />
    <sodipodi:guide
       position="33.40869,216.7556"
       orientation="1,0"
       id="guide5086"
       inkscape:locked="false" />
  </sodipodi:namedview>
  <metadata
     id="metadata5">
    <rdf:RDF>
      <cc:Work
         rdf:about="">
        <dc:format>image/svg+xml</dc:format>
        <dc:type
           rdf:resource="http://purl.org/dc/dcmitype/StillImage" />
        <dc:title />
      </cc:Work>
    </rdf:RDF>
  </metadata>
  <g
     inkscape:label="Layer 1"
     inkscape:groupmode="layer"
     id="layer1">
    <rect
       style="opacity:0.969;fill:none;fill-opacity:1;stroke:#000000;stroke-width:10.00000028;stroke-linecap:round;stroke-linejoin:round;stroke-miterlimit:8;stroke-dasharray:none;stroke-dashoffset:0;stroke-opacity:1;paint-order:stroke markers fill"
       id="rect4485"
       width="145.14285"
       height="145.14285"
       x="28.726192"
       y="64.166664"
       inkscape:export-xdpi="5.2390418"
       inkscape:export-ydpi="5.2390418"
       inkscape:export-filename="/users/garrigaf/Documents/git/darfix/orangecontrib/darfix/widgets/icons/resize.png" />
    <g
       transform="matrix(0.98585636,0.96743274,-0.96743274,0.98585636,60.499714,64.893641)"
       id="g6"
       style="stroke-width:0.19155417"
       inkscape:export-xdpi="5.2390418"
       inkscape:export-ydpi="5.2390418"
       inkscape:export-filename="/users/garrigaf/Documents/git/darfix/orangecontrib/darfix/widgets/icons/resize.png">
      <g
         id="c100_arrow"
         style="stroke-width:0.19155417">
        <path
           inkscape:connector-curvature="0"
           d="m 0,15.571 c 0.001,1.702 1.383,3.081 3.085,3.083 l 17.528,-0.002 -4.738,4.739 c -1.283,1.284 -1.349,3.301 -0.145,4.507 1.205,1.201 3.222,1.138 4.507,-0.146 l 9.896,-9.898 c 1.287,-1.283 1.352,-3.301 0.146,-4.506 -0.033,-0.029 -0.068,-0.051 -0.1,-0.08 -0.041,-0.043 -0.07,-0.094 -0.113,-0.139 L 20.302,3.367 C 19.034,2.101 17.032,2.051 15.828,3.256 14.623,4.461 14.675,6.464 15.939,7.732 l 4.755,4.754 H 3.085 C 1.381,12.485 0,13.865 0,15.571 Z"
           id="path2"
           style="stroke-width:0.19155417" />
      </g>
      <g
         id="Capa_1_46_"
         style="stroke-width:0.19155417" />
    </g>
    <g
       style="stroke-width:0.19155417"
       id="g5058"
       transform="matrix(-0.96208908,0.99107188,-0.99107188,-0.96208908,172.31919,95.2251)"
       inkscape:export-xdpi="5.2390418"
       inkscape:export-ydpi="5.2390418"
       inkscape:export-filename="/users/garrigaf/Documents/git/darfix/orangecontrib/darfix/widgets/icons/resize.png">
      <g
         style="stroke-width:0.19155417"
         id="g5054">
        <path
           style="stroke-width:0.19155417"
           id="path5052"
           d="m 0,15.571 c 0.001,1.702 1.383,3.081 3.085,3.083 l 17.528,-0.002 -4.738,4.739 c -1.283,1.284 -1.349,3.301 -0.145,4.507 1.205,1.201 3.222,1.138 4.507,-0.146 l 9.896,-9.898 c 1.287,-1.283 1.352,-3.301 0.146,-4.506 -0.033,-0.029 -0.068,-0.051 -0.1,-0.08 -0.041,-0.043 -0.07,-0.094 -0.113,-0.139 L 20.302,3.367 C 19.034,2.101 17.032,2.051 15.828,3.256 14.623,4.461 14.675,6.464 15.939,7.732 l 4.755,4.754 H 3.085 C 1.381,12.485 0,13.865 0,15.571 Z"
           inkscape:connector-curvature="0" />
      </g>
      <g
         style="stroke-width:0.19155417"
         id="g5056" />
    </g>
    <g
       transform="matrix(-0.99107188,-0.96208908,0.96208908,-0.99107188,141.90652,202.85147)"
       id="g5066"
       style="stroke-width:0.19155417"
       inkscape:export-xdpi="5.2390418"
       inkscape:export-ydpi="5.2390418"
       inkscape:export-filename="/users/garrigaf/Documents/git/darfix/orangecontrib/darfix/widgets/icons/resize.png">
      <g
         id="g5062"
         style="stroke-width:0.19155417">
        <path
           inkscape:connector-curvature="0"
           d="m 0,15.571 c 0.001,1.702 1.383,3.081 3.085,3.083 l 17.528,-0.002 -4.738,4.739 c -1.283,1.284 -1.349,3.301 -0.145,4.507 1.205,1.201 3.222,1.138 4.507,-0.146 l 9.896,-9.898 c 1.287,-1.283 1.352,-3.301 0.146,-4.506 -0.033,-0.029 -0.068,-0.051 -0.1,-0.08 -0.041,-0.043 -0.07,-0.094 -0.113,-0.139 L 20.302,3.367 C 19.034,2.101 17.032,2.051 15.828,3.256 14.623,4.461 14.675,6.464 15.939,7.732 l 4.755,4.754 H 3.085 C 1.381,12.485 0,13.865 0,15.571 Z"
           id="path5060"
           style="stroke-width:0.19155417" />
      </g>
      <g
         id="g5064"
         style="stroke-width:0.19155417" />
    </g>
    <g
       style="stroke-width:0.19155417"
       id="g5074"
       transform="matrix(0.96208908,-0.99107188,0.99107188,0.96208908,30.003839,172.4388)"
       inkscape:export-xdpi="5.2390418"
       inkscape:export-ydpi="5.2390418"
       inkscape:export-filename="/users/garrigaf/Documents/git/darfix/orangecontrib/darfix/widgets/icons/resize.png">
      <g
         style="stroke-width:0.19155417"
         id="g5070">
        <path
           style="stroke-width:0.19155417"
           id="path5068"
           d="m 0,15.571 c 0.001,1.702 1.383,3.081 3.085,3.083 l 17.528,-0.002 -4.738,4.739 c -1.283,1.284 -1.349,3.301 -0.145,4.507 1.205,1.201 3.222,1.138 4.507,-0.146 l 9.896,-9.898 c 1.287,-1.283 1.352,-3.301 0.146,-4.506 -0.033,-0.029 -0.068,-0.051 -0.1,-0.08 -0.041,-0.043 -0.07,-0.094 -0.113,-0.139 L 20.302,3.367 C 19.034,2.101 17.032,2.051 15.828,3.256 14.623,4.461 14.675,6.464 15.939,7.732 l 4.755,4.754 H 3.085 C 1.381,12.485 0,13.865 0,15.571 Z"
           inkscape:connector-curvature="0" />
      </g>
      <g
         style="stroke-width:0.19155417"
         id="g5072" />
    </g>
    <rect
       style="opacity:0.969;fill:none;fill-opacity:1;stroke:#f2e20a;stroke-width:0.26499999;stroke-linecap:round;stroke-linejoin:round;stroke-miterlimit:4;stroke-dasharray:none;stroke-dashoffset:0;stroke-opacity:1;paint-order:stroke markers fill"
       id="rect6276"
       width="229.01906"
       height="228.29762"
       x="-9.0369301"
       y="21.077377"
       inkscape:export-filename="/users/garrigaf/Documents/git/darfix/orangecontrib/darfix/widgets/icons/resize.png"
       inkscape:export-xdpi="5.2390418"
       inkscape:export-ydpi="5.2390418" />
  </g>
</svg>
