# https://github.com/mikedh/trimesh
mtllib material.mtl
usemtl material_0
v -0.06985461 -0.01841178 -0.16323519
v -0.06985461 -0.01841178 -0.16323519
v -0.06982524 -0.01825024 -0.16322784
v -0.06982524 -0.01825024 -0.16323519
v -0.06982524 -0.01825024 -0.16323519
v -0.06983993 -0.01827961 -0.16323519
vn -0.13000177 0.00070001 0.99151351
vn -0.19199895 0.00099999 0.98139462
vn -0.13010008 0.00070000 0.99150062
vn -0.13000177 0.00070001 0.99151351
vn -0.19199895 0.00099999 0.98139462
vn -0.19199895 0.00099999 0.98139462
vt 0.50000000 0.71884500
vt 0.50000000 0.71884500
vt 0.50000000 0.71796800
vt 0.49999800 0.71798900
vt 0.49999800 0.71798900
vt 0.49998200 0.71814100
f 1/1/1 3/3/3 4/4/4
f 2/2/2 5/5/5 6/6/6