# Blender 4.3.2
# www.blender.org
o Cube.001
v -1.366469 0.852441 -0.637265
v -1.340690 -0.165640 1.084027
v 0.396366 1.676872 -0.176046
v 0.422146 0.658792 1.545246
v -0.422146 -0.658792 -1.545246
v -0.396366 -1.676872 0.176046
v 1.340690 0.165640 -1.084027
v 1.366469 -0.852441 0.637265
vn -0.4722 0.7556 0.4540
vn 0.8814 0.4122 0.2306
vn 0.4722 -0.7556 -0.4540
vn -0.8814 -0.4122 -0.2306
vn -0.0129 0.5090 -0.8606
vn 0.0129 -0.5090 0.8606
vt 0.375000 0.000000
vt 0.625000 0.000000
vt 0.625000 0.250000
vt 0.375000 0.250000
vt 0.625000 0.500000
vt 0.375000 0.500000
vt 0.625000 0.750000
vt 0.375000 0.750000
vt 0.625000 1.000000
vt 0.375000 1.000000
vt 0.125000 0.500000
vt 0.125000 0.750000
vt 0.875000 0.500000
vt 0.875000 0.750000
s 1
f 1/1/1 2/2/1 4/3/1 3/4/1
f 3/4/2 4/3/2 8/5/2 7/6/2
f 7/6/3 8/5/3 6/7/3 5/8/3
f 5/8/4 6/7/4 2/9/4 1/10/4
f 3/11/5 7/6/5 5/8/5 1/12/5
f 8/5/6 4/13/6 2/14/6 6/7/6
o Icosphere
v 0.000000 3.372071 -3.372071
v -2.507069 -0.931990 -3.948071
v -4.056557 2.440031 -0.576051
v 0.000000 4.524106 1.508024
v 4.056557 2.440031 -0.576051
v 2.507069 -0.931990 -3.948071
v -4.056557 -2.440031 0.576051
v -2.507069 0.931990 3.948071
v 2.507069 0.931990 3.948071
v 4.056557 -2.440031 0.576051
v -0.000000 -4.524106 -1.508024
v -0.000000 -3.372071 3.372071
vn -0.5774 0.4293 -0.6946
vn -0.0000 0.1326 -0.9912
vn -0.3568 0.9092 -0.2146
vn 0.3568 0.9092 -0.2146
vn 0.5774 0.4293 -0.6946
vn -0.0000 -0.5619 -0.8272
vn -0.9342 -0.0820 -0.3473
vn -0.5774 0.6945 0.4293
vn 0.5774 0.6945 0.4293
vn 0.9342 -0.0820 -0.3473
vn -0.5774 -0.6945 -0.4293
vn -0.9342 0.0820 0.3473
vn -0.0000 0.5619 0.8272
vn 0.9342 0.0820 0.3473
vn 0.5774 -0.6945 -0.4293
vn -0.3568 -0.9092 0.2146
vn -0.5774 -0.4293 0.6946
vn -0.0000 -0.1326 0.9912
vn 0.5774 -0.4293 0.6946
vn 0.3568 -0.9092 0.2146
vt 0.181819 0.000000
vt 0.272728 0.157461
vt 0.090910 0.157461
vt 0.363637 0.000000
vt 0.454546 0.157461
vt 0.909091 0.000000
vt 1.000000 0.157461
vt 0.818182 0.157461
vt 0.727273 0.000000
vt 0.636364 0.157461
vt 0.545455 0.000000
vt 0.363637 0.314921
vt 0.181819 0.314921
vt 0.909091 0.314921
vt 0.727273 0.314921
vt 0.545455 0.314921
vt 0.000000 0.314921
vt 0.272728 0.472382
vt 0.090910 0.472382
vt 0.818182 0.472382
vt 0.636364 0.472382
vt 0.454546 0.472382
s 1
f 9/15/7 10/16/7 11/17/7
f 10/16/8 9/18/8 14/19/8
f 9/20/9 11/21/9 12/22/9
f 9/23/10 12/22/10 13/24/10
f 9/25/11 13/24/11 14/19/11
f 10/16/12 14/19/12 19/26/12
f 11/17/13 10/16/13 15/27/13
f 12/22/14 11/21/14 16/28/14
f 13/24/15 12/22/15 17/29/15
f 14/19/16 13/24/16 18/30/16
f 10/16/17 19/26/17 15/27/17
f 11/17/18 15/27/18 16/31/18
f 12/22/19 16/28/19 17/29/19
f 13/24/20 17/29/20 18/30/20
f 14/19/21 18/30/21 19/26/21
f 15/27/22 19/26/22 20/32/22
f 16/31/23 15/27/23 20/33/23
f 17/29/24 16/28/24 20/34/24
f 18/30/25 17/29/25 20/35/25
f 19/26/26 18/30/26 20/36/26
