# Blender 4.3.2
# www.blender.org
o Cylinder
v 6.344314 -1.218141 -2.308634
v 1.204352 -3.956257 5.540182
v 3.122638 -3.370844 -5.300708
v -2.118653 -6.071957 2.643098
v -0.727751 -0.723947 -6.881685
v -6.000333 -3.495095 1.024081
v -1.227324 4.002321 -5.598674
v -6.518475 1.264842 2.350723
v 2.118236 6.070370 -2.642623
v -3.071585 3.295882 5.211782
v 5.883788 3.426451 -1.021886
v 0.725256 0.721998 6.870558
v 4.690631 -2.251305 -3.734901
v 3.750920 -2.560759 1.589078
v -0.444597 -4.924593 4.026573
v 0.490185 -4.710439 -1.308964
v 1.164010 -1.986549 -5.948850
v -3.953104 -4.673264 1.800206
v -3.343280 -2.097518 -2.934466
v -0.970223 1.619353 -6.190734
v -6.099959 -1.094151 1.653082
v -3.857472 2.633503 -1.634219
v 0.448217 5.115073 -4.166849
v -4.822998 2.325713 3.832524
v -0.483512 4.646320 1.291147
v 0.980232 -1.630182 6.233451
v -1.195941 2.072256 6.162336
v 4.093389 4.848190 -1.849452
v 3.291414 2.064979 2.888943
v 6.256940 1.118961 -1.683577
v 2.082350 -3.530648 0.151209
v -1.369689 -3.271010 -2.038086
v -3.501914 0.253678 -2.224292
v -2.192369 3.717187 -0.159198
v -2.565742 -1.346833 3.885886
v 1.450042 3.462904 2.157651
v 3.592538 -0.260243 2.281853
v 2.600273 1.364960 -3.938185
vn 0.4982 -0.8656 0.0494
vn 0.4948 -0.8689 0.0120
vn 0.5555 -0.8290 0.0641
vn 0.5333 -0.8431 0.0688
vn -0.3820 -0.7757 -0.5023
vn -0.3782 -0.7579 -0.5315
vn -0.2770 -0.8325 -0.4799
vn -0.3057 -0.8180 -0.4872
vn -0.8426 0.0702 -0.5339
vn -0.8423 0.1030 -0.5290
vn -0.8327 0.0128 -0.5535
vn -0.8484 0.0396 -0.5279
vn -0.5236 0.8506 -0.0483
vn -0.5139 0.8564 -0.0490
vn -0.4741 0.8805 -0.0055
vn -0.4859 0.8739 -0.0153
vn -0.5347 -0.2076 0.8192
vn -0.5510 -0.2867 0.7837
vn -0.4975 -0.2766 0.8222
vn -0.5399 -0.1908 0.8198
vn -0.4982 -0.3260 0.8034
vn -0.4628 -0.2426 0.8526
vn 0.3043 0.8134 0.4957
vn 0.2925 0.8281 0.4783
vn 0.3781 0.7682 0.5166
vn 0.3750 0.7714 0.5141
vn 0.8336 -0.0235 0.5519
vn 0.8448 -0.0301 0.5343
vn 0.8518 -0.0964 0.5149
vn 0.8445 -0.1087 0.5244
vn 0.5462 0.2354 -0.8039
vn 0.5146 0.3647 -0.7760
vn 0.5705 0.2860 -0.7699
vn 0.5227 0.2583 -0.8124
vn 0.5227 0.3363 -0.7834
vn 0.5902 0.3093 -0.7456
vn 0.4872 -0.8730 0.0235
vn 0.4977 -0.8672 0.0126
vn 0.5307 -0.8455 0.0590
vn 0.5403 -0.8370 0.0871
vn -0.3901 -0.7642 -0.5137
vn -0.3622 -0.7813 -0.5083
vn -0.2861 -0.8218 -0.4928
vn -0.2886 -0.8384 -0.4623
vn -0.8538 0.0969 -0.5116
vn -0.8426 0.1035 -0.5286
vn -0.8339 0.0152 -0.5517
vn -0.8351 0.0116 -0.5500
vn -0.5155 0.8556 -0.0466
vn -0.5081 0.8606 -0.0348
vn -0.4771 0.8788 -0.0123
vn -0.4786 0.8781 0.0013
vn -0.5284 -0.2818 0.8009
vn -0.5441 -0.2917 0.7867
vn -0.5427 -0.3039 0.7830
vn -0.5286 -0.3134 0.7889
vn -0.5235 -0.3102 0.7935
vn -0.5267 -0.2830 0.8016
vn 0.2921 0.8279 0.4789
vn 0.2946 0.8255 0.4813
vn 0.3665 0.7842 0.5007
vn 0.3774 0.7679 0.5175
vn 0.8384 -0.0335 0.5441
vn 0.8415 -0.0544 0.5375
vn 0.8438 -0.0770 0.5311
vn 0.8417 -0.1017 0.5302
vn 0.5199 0.2547 -0.8154
vn 0.5274 0.2594 -0.8091
vn 0.5285 0.2586 -0.8086
vn 0.5289 0.2542 -0.8097
vn 0.5319 0.2560 -0.8072
vn 0.5189 0.2649 -0.8127
vt 1.000000 0.500000
vt 0.916666 0.750000
vt 0.916667 0.500000
vt 1.000000 1.000000
vt 1.000000 0.750000
vt 0.916667 1.000000
vt 0.833333 0.750000
vt 0.833333 0.500000
vt 0.750000 0.750000
vt 0.750000 0.500000
vt 0.750000 1.000000
vt 0.666667 1.000000
vt 0.666667 0.750000
vt 0.666667 0.500000
vt 0.583334 0.500000
vt 0.583334 0.750000
vt 0.583334 1.000000
vt 0.500000 0.750000
vt 0.500000 0.500000
vt 0.416667 0.750000
vt 0.416667 0.500000
vt 0.500000 1.000000
vt 0.416667 1.000000
vt 0.333333 0.750000
vt 0.333333 0.500000
vt 0.353923 0.430000
vt 0.457846 0.250000
vt 0.457846 0.370000
vt 0.146077 0.430000
vt 0.250000 0.490000
vt 0.042154 0.250000
vt 0.042154 0.370000
vt 0.146077 0.070000
vt 0.042154 0.130000
vt 0.353923 0.070000
vt 0.250000 0.010000
vt 0.457846 0.130000
vt 0.250000 0.500000
vt 0.333333 1.000000
vt 0.250000 0.750000
vt 0.250000 1.000000
vt 0.166667 0.750000
vt 0.166667 0.500000
vt 0.083334 0.750000
vt 0.083334 0.500000
vt 0.166667 1.000000
vt 0.000000 1.000000
vt 0.000000 0.750000
vt 0.000000 0.500000
vt 0.853923 0.430000
vt 0.646077 0.430000
vt 0.750000 0.490000
vt 0.957846 0.250000
vt 0.957846 0.370000
vt 0.853923 0.070000
vt 0.957846 0.130000
vt 0.646077 0.070000
vt 0.750000 0.010000
vt 0.542154 0.250000
vt 0.542154 0.130000
vt 0.542154 0.370000
vt 0.833333 1.000000
vt 0.250000 0.250000
vt 0.083334 1.000000
vt 0.750000 0.250000
s 0
f 1/1/1 31/2/1 13/3/1
f 2/4/2 31/2/2 14/5/2
f 15/6/3 16/7/3 31/2/3
f 13/3/4 16/7/4 3/8/4
f 3/8/5 32/9/5 17/10/5
f 16/7/6 18/11/6 32/9/6
f 32/9/7 6/12/7 19/13/7
f 17/10/8 19/13/8 5/14/8
f 19/13/9 20/15/9 5/14/9
f 6/12/10 33/16/10 19/13/10
f 21/17/11 22/18/11 33/16/11
f 33/16/12 7/19/12 20/15/12
f 7/19/13 34/20/13 23/21/13
f 8/22/14 34/20/14 22/18/14
f 24/23/15 25/24/15 34/20/15
f 34/20/16 9/25/16 23/21/16
f 15/26/17 18/27/17 4/28/17
f 26/29/18 15/26/18 2/30/18
f 27/31/19 26/29/19 12/32/19
f 24/33/20 27/31/20 10/34/20
f 21/35/21 24/33/21 8/36/21
f 18/27/22 21/35/22 6/37/22
f 25/24/23 28/38/23 9/25/23
f 10/39/24 36/40/24 25/24/24
f 27/41/25 29/42/25 36/40/25
f 36/40/26 11/43/26 28/38/26
f 11/43/27 37/44/27 30/45/27
f 12/46/28 37/44/28 29/42/28
f 37/44/29 2/47/29 14/48/29
f 30/45/30 14/48/30 1/49/30
f 13/50/31 30/51/31 1/52/31
f 17/53/32 13/50/32 3/54/32
f 20/55/33 17/53/33 5/56/33
f 23/57/34 20/55/34 7/58/34
f 28/59/35 23/57/35 9/60/35
f 30/51/36 28/59/36 11/61/36
f 1/1/37 14/5/37 31/2/37
f 2/4/38 15/6/38 31/2/38
f 15/6/39 4/62/39 16/7/39
f 13/3/40 31/2/40 16/7/40
f 3/8/41 16/7/41 32/9/41
f 16/7/42 4/62/42 18/11/42
f 32/9/43 18/11/43 6/12/43
f 17/10/44 32/9/44 19/13/44
f 19/13/45 33/16/45 20/15/45
f 6/12/46 21/17/46 33/16/46
f 21/17/47 8/22/47 22/18/47
f 33/16/48 22/18/48 7/19/48
f 7/19/49 22/18/49 34/20/49
f 8/22/50 24/23/50 34/20/50
f 24/23/51 10/39/51 25/24/51
f 34/20/52 25/24/52 9/25/52
f 15/26/53 35/63/53 18/27/53
f 26/29/54 35/63/54 15/26/54
f 27/31/55 35/63/55 26/29/55
f 24/33/56 35/63/56 27/31/56
f 21/35/57 35/63/57 24/33/57
f 18/27/58 35/63/58 21/35/58
f 25/24/59 36/40/59 28/38/59
f 10/39/60 27/41/60 36/40/60
f 27/41/61 12/46/61 29/42/61
f 36/40/62 29/42/62 11/43/62
f 11/43/63 29/42/63 37/44/63
f 12/46/64 26/64/64 37/44/64
f 37/44/65 26/64/65 2/47/65
f 30/45/66 37/44/66 14/48/66
f 13/50/67 38/65/67 30/51/67
f 17/53/68 38/65/68 13/50/68
f 20/55/69 38/65/69 17/53/69
f 23/57/70 38/65/70 20/55/70
f 28/59/71 38/65/71 23/57/71
f 30/51/72 38/65/72 28/59/72
