<svg id="Accordion_Chevron" xmlns="http://www.w3.org/2000/svg" width="24" height="24" viewBox="0 0 24 24">
  <g id="Group_13001" data-name="Group 13001" transform="translate(3747 -22) rotate(90)">
    <rect id="Rectangle_1434" data-name="Rectangle 1434" width="24" height="24" transform="translate(22 3723)" fill="none"/>
    <g id="solid_chevron-right" data-name="solid chevron-right" transform="translate(38.28 3741.644) rotate(180)">
      <path id="solid_chevron-right-2" data-name="solid chevron-right" d="M35.555,45.009l-6.072,6.072a.75.75,0,0,1-1.06,0l-.708-.708a.75.75,0,0,1,0-1.059l4.812-4.835-4.812-4.835a.75.75,0,0,1,0-1.059l.708-.708a.75.75,0,0,1,1.06,0l6.072,6.072A.75.75,0,0,1,35.555,45.009Z" transform="translate(-27.494 -37.657)" fill="#fff"/>
    </g>
  </g>
</svg>
