<svg xmlns="http://www.w3.org/2000/svg" xmlns:xlink="http://www.w3.org/1999/xlink" width="136.021" height="58" viewBox="0 0 136.021 58"><defs><clipPath id="a"><rect width="136.021" height="58" fill="none"/></clipPath></defs><g clip-path="url(#a)"><path d="M45.412,0H3.432A3.431,3.431,0,0,0,0,3.432V33.579a24.421,24.421,0,1,0,48.842,0V3.432A3.427,3.427,0,0,0,45.412,0M17.942,29.045A11.066,11.066,0,1,1,29.006,17.979,11.064,11.064,0,0,1,17.942,29.045" fill="#fff"/><path d="M57.877,17.585h2.8V5.748h3.462V3.273H54.366V5.748h3.511Z" fill="#fff"/><path d="M97.278,17.634a7.052,7.052,0,0,0,6.9-7.18,6.9,6.9,0,1,0-13.8,0,7.052,7.052,0,0,0,6.9,7.18m0-11.574a4.264,4.264,0,0,1,4.111,4.394,4.12,4.12,0,1,1-8.222,0A4.264,4.264,0,0,1,97.278,6.06" fill="#fff"/><path d="M73.4,9a3.494,3.494,0,0,0-1.364-1.364,4.018,4.018,0,0,0-1.994-.487,3.658,3.658,0,0,0-1.906.481,2.557,2.557,0,0,0-.653.581V3.274h-2.6V17.579h2.6v-5.9A2.672,2.672,0,0,1,67.73,10.5a1.763,1.763,0,0,1,.672-.7,2.087,2.087,0,0,1,1.981,0,1.77,1.77,0,0,1,.663.7,2.251,2.251,0,0,1,.243,1.082v6h2.6v-6.57A4.1,4.1,0,0,0,73.407,9Z" fill="#fff"/><path d="M84.636,12.672a3.7,3.7,0,0,0,.039-.568,5.408,5.408,0,0,0-.335-1.91,4.869,4.869,0,0,0-.971-1.576,4.5,4.5,0,0,0-1.542-1.083,5.261,5.261,0,0,0-2.1-.394,4.9,4.9,0,0,0-2.562.692,5.008,5.008,0,0,0-1.809,1.874,5.485,5.485,0,0,0-.663,2.7,5.488,5.488,0,0,0,.65,2.68,4.941,4.941,0,0,0,1.828,1.92,5.219,5.219,0,0,0,2.738.707A5.6,5.6,0,0,0,81.82,17.4a4.748,4.748,0,0,0,1.5-.876,3.522,3.522,0,0,0,.942-1.3l.038-.095L82.187,14.1l-.052.091a2.415,2.415,0,0,1-.864.889,2.544,2.544,0,0,1-1.338.332,2.648,2.648,0,0,1-1.393-.367A2.3,2.3,0,0,1,77.634,14a2.808,2.808,0,0,1-.221-.787H84.5A1.542,1.542,0,0,0,84.636,12.672ZM78.459,9.69a2.321,2.321,0,0,1,1.273-.357,2.272,2.272,0,0,1,1.28.365,2.045,2.045,0,0,1,.763.987,2.187,2.187,0,0,1,.12.489H77.478a3,3,0,0,1,.14-.441,2.213,2.213,0,0,1,.844-1.045Z" fill="#fff"/><path d="M126.012,12.672a3.7,3.7,0,0,0,.039-.568,5.408,5.408,0,0,0-.335-1.91,4.869,4.869,0,0,0-.971-1.576A4.5,4.5,0,0,0,123.2,7.535a5.261,5.261,0,0,0-2.1-.394,4.893,4.893,0,0,0-2.562.692,5.008,5.008,0,0,0-1.809,1.874,5.474,5.474,0,0,0-.663,2.7,5.488,5.488,0,0,0,.65,2.68,4.941,4.941,0,0,0,1.828,1.92,5.219,5.219,0,0,0,2.738.707A5.6,5.6,0,0,0,123.2,17.4a4.748,4.748,0,0,0,1.5-.876,3.508,3.508,0,0,0,.941-1.3l.039-.095L123.563,14.1l-.052.091a2.415,2.415,0,0,1-.864.889,2.544,2.544,0,0,1-1.338.332,2.645,2.645,0,0,1-1.393-.367A2.3,2.3,0,0,1,119.01,14a2.808,2.808,0,0,1-.221-.787h7.086A1.542,1.542,0,0,0,126.012,12.672ZM119.835,9.69a2.321,2.321,0,0,1,1.273-.357,2.272,2.272,0,0,1,1.28.365,2.045,2.045,0,0,1,.763.987,2.187,2.187,0,0,1,.12.489h-4.417a3,3,0,0,1,.14-.441,2.212,2.212,0,0,1,.844-1.045Z" fill="#fff"/><path d="M129.182,8.015a1,1,0,0,0-1.05-.727h-1.516V17.576h2.6v-6a2.239,2.239,0,0,1,.244-1.081,1.757,1.757,0,0,1,.672-.7,2.087,2.087,0,0,1,1.981,0,1.754,1.754,0,0,1,.662.7,2.239,2.239,0,0,1,.244,1.081v6h2.605V11.009A4.1,4.1,0,0,0,135.141,9a3.5,3.5,0,0,0-1.365-1.364,4.014,4.014,0,0,0-1.993-.487,3.676,3.676,0,0,0-1.907.48,2.9,2.9,0,0,0-.653.533s-.019-.085-.039-.146Z" fill="#fff"/><path d="M110.5,7.147a4.324,4.324,0,0,0-2.977,1.017s-.019-.085-.04-.146a1,1,0,0,0-1.048-.728h-1.517V22h2.605V16.718l.006.006a3.659,3.659,0,0,0,.841.549,4.663,4.663,0,0,0,2.024.438,4.991,4.991,0,0,0,2.624-.7,5.062,5.062,0,0,0,1.824-1.906,5.444,5.444,0,0,0,.669-2.676,5.332,5.332,0,0,0-.679-2.676A4.961,4.961,0,0,0,110.5,7.147Zm2.018,6.781a2.535,2.535,0,0,1-.953,1.013,2.665,2.665,0,0,1-1.4.367,2.493,2.493,0,0,1-1.353-.367,2.558,2.558,0,0,1-.945-1.013,3.161,3.161,0,0,1-.345-1.5,3.094,3.094,0,0,1,.345-1.487,2.527,2.527,0,0,1,2.3-1.39,2.676,2.676,0,0,1,1.4.376,2.642,2.642,0,0,1,.956,1.017,3.123,3.123,0,0,1,.343,1.487,3.148,3.148,0,0,1-.343,1.5Z" fill="#fff"/><rect width="2.695" height="10.291" transform="translate(78.011 24.463)" fill="#fff"/><path d="M79.359,20.423a1.634,1.634,0,1,0,1.633,1.633,1.634,1.634,0,0,0-1.633-1.633" fill="#fff"/><rect width="2.695" height="10.291" transform="translate(116.948 24.463)" fill="#fff"/><path d="M118.3,20.423a1.634,1.634,0,1,0,1.633,1.633,1.634,1.634,0,0,0-1.633-1.633" fill="#fff"/><path d="M111.1,26.821a1.315,1.315,0,0,1,.835-.234,2.211,2.211,0,0,1,1.24.367,2.035,2.035,0,0,1,.783.984l.065.172,2.107-.99-.055-.146a3.845,3.845,0,0,0-1.581-1.959,5.033,5.033,0,0,0-4.495-.3,3.224,3.224,0,0,0-1.348,1.114,2.915,2.915,0,0,0-.487,1.672,2.746,2.746,0,0,0,.682,1.858,4.012,4.012,0,0,0,1.965,1.152l1.6.449a3.137,3.137,0,0,1,.539.214,1.084,1.084,0,0,1,.361.279.576.576,0,0,1,.116.374.735.735,0,0,1-.311.623,1.5,1.5,0,0,1-.926.253,2.438,2.438,0,0,1-1.409-.438,2.926,2.926,0,0,1-1-1.231l-.072-.156-2.055.984.048.14a4,4,0,0,0,1.663,2.117,5.137,5.137,0,0,0,2.822.776,4.871,4.871,0,0,0,2.017-.392,3.307,3.307,0,0,0,1.367-1.111,2.851,2.851,0,0,0,.5-1.656,2.708,2.708,0,0,0-.7-1.881,4.227,4.227,0,0,0-1.942-1.13l-1.566-.467a4.8,4.8,0,0,1-.581-.224.9.9,0,0,1-.344-.273.61.61,0,0,1-.111-.37.675.675,0,0,1,.28-.572Z" fill="#fff"/><path d="M64.54,28.932a3.176,3.176,0,1,1-6.352,0V20.424H55.4v8.508a5.969,5.969,0,1,0,11.938,0V20.424H64.54Z" fill="#fff"/><path d="M100.708,29.847a3.693,3.693,0,0,0,.039-.568,5.412,5.412,0,0,0-.335-1.91,4.875,4.875,0,0,0-.971-1.575A4.515,4.515,0,0,0,97.9,24.71a5.261,5.261,0,0,0-2.1-.393,4.9,4.9,0,0,0-2.562.691,5.008,5.008,0,0,0-1.809,1.874,5.85,5.85,0,0,0-.013,5.385,4.931,4.931,0,0,0,1.828,1.919,5.21,5.21,0,0,0,2.738.708,5.6,5.6,0,0,0,1.906-.315,4.75,4.75,0,0,0,1.5-.877,3.508,3.508,0,0,0,.941-1.3l.039-.094L98.259,31.27l-.052.091a2.415,2.415,0,0,1-.864.889A2.544,2.544,0,0,1,96,32.582a2.648,2.648,0,0,1-1.393-.367,2.3,2.3,0,0,1-.906-1.036,2.811,2.811,0,0,1-.221-.786h7.086A1.544,1.544,0,0,0,100.708,29.847Zm-6.177-2.981a2.321,2.321,0,0,1,1.273-.357,2.279,2.279,0,0,1,1.28.363,2.056,2.056,0,0,1,.763.988,2.2,2.2,0,0,1,.12.49H93.55a3.007,3.007,0,0,1,.14-.442,2.223,2.223,0,0,1,.844-1.045Z" fill="#fff"/><path d="M125.444,32.5a2.2,2.2,0,0,1-.948-.179,1.094,1.094,0,0,1-.52-.5,1.808,1.808,0,0,1-.169-.825V26.587h1.63V24.466h-1.63V22h-2.53v2.464h-.815v2.121h.812v4.547a3.7,3.7,0,0,0,.822,2.776,3.77,3.77,0,0,0,2.776.987,5.654,5.654,0,0,0,.637-.039c.231-.026.432-.052.61-.078l.091-.013V32.433l-.467.052c-.117.012-.218.019-.3.019Z" fill="#fff"/><path d="M91.455,24.463H88.519l-1.964,6.073a2.287,2.287,0,0,0-.1.448l-.042.338-.043-.338a2.36,2.36,0,0,0-.1-.448L84.3,24.463H81.368l3.868,10.291h2.348l3.868-10.291Z" fill="#fff"/><path d="M133.085,24.463,131,30.536a2.36,2.36,0,0,0-.1.448l-.043.338-.042-.338a2.36,2.36,0,0,0-.1-.448l-1.845-6.073h-2.656l2.666,9.512c.139.5.3.7.636.779l-1.679,4.42h2.783l5.4-14.711Z" fill="#fff"/><path d="M70.727,25.194a1,1,0,0,0-1.049-.727H68.161V34.755h2.6v-6a2.239,2.239,0,0,1,.244-1.081,1.757,1.757,0,0,1,.672-.7,2.087,2.087,0,0,1,1.981,0,1.754,1.754,0,0,1,.662.7,2.239,2.239,0,0,1,.244,1.081v6h2.6V28.188a4.091,4.091,0,0,0-.487-2.013,3.487,3.487,0,0,0-1.364-1.364,4.018,4.018,0,0,0-1.994-.487,3.673,3.673,0,0,0-1.906.48,2.9,2.9,0,0,0-.653.533s-.019-.085-.039-.146Z" fill="#fff"/><path d="M104.186,25.34s-.019-.084-.039-.146a1,1,0,0,0-1.049-.728h-1.516V34.754h2.6V29.11a2.5,2.5,0,0,1,.708-1.753,2.281,2.281,0,0,1,1.63-.624,3.453,3.453,0,0,1,1,.12V24.44a1.858,1.858,0,0,0-.714-.12,3.936,3.936,0,0,0-1.416.208,3.467,3.467,0,0,0-1.208.809Z" fill="#fff"/><path d="M94.209,47.381a1.26,1.26,0,0,0-1.237,1.364,1.3,1.3,0,0,0,1.237,1.4,1.281,1.281,0,0,0,1.237-1.387,1.265,1.265,0,0,0-1.237-1.38" fill="#fff"/><path d="M82.869,47.381a1.26,1.26,0,0,0-1.237,1.364,1.3,1.3,0,0,0,1.237,1.4,1.281,1.281,0,0,0,1.237-1.387,1.267,1.267,0,0,0-1.237-1.38" fill="#fff"/><path d="M71.441,47.381a1.213,1.213,0,0,0-1.205,1.38c0,.845.465,1.387,1.182,1.387a1.266,1.266,0,0,0,1.254-1.387,1.238,1.238,0,0,0-1.228-1.38Z" fill="#fff"/><path d="M99.493,48.478a6.647,6.647,0,0,0,6.885-6.884H55.438V55.363h50.943A6.648,6.648,0,0,0,99.5,48.478ZM60.816,51.1c-1.205,0-2.046-.688-2.046-1.672v-.091h1.143l.006.081a.8.8,0,0,0,.9.737c.558,0,.9-.276.9-.721,0-.529-.542-.672-1.169-.841-.785-.208-1.763-.471-1.763-1.663,0-1.01.779-1.662,1.991-1.662a1.766,1.766,0,0,1,1.974,1.585l.01.1H61.579l-.007-.081a.772.772,0,0,0-.841-.65c-.539,0-.834.254-.834.682,0,.481.526.627,1.133.793.8.22,1.789.493,1.789,1.695a1.8,1.8,0,0,1-2,1.711Zm7.248-1.5a2.067,2.067,0,0,1-2.1,1.519,2.354,2.354,0,0,1,0-4.7,1.989,1.989,0,0,1,2.1,1.52l.029.114H66.934l-.023-.059a.935.935,0,0,0-.958-.633c-.7,0-1.127.526-1.127,1.4s.419,1.412,1.127,1.412a.92.92,0,0,0,.958-.633l.023-.058h1.159l-.032.113Zm3.355,1.519a2.218,2.218,0,0,1-2.283-2.354,2.324,2.324,0,1,1,4.647,0,2.283,2.283,0,0,1-2.364,2.354m5.7-3.711H76.053v2.335c0,.25.062.37.419.37h.646v.935h-.8a1.179,1.179,0,0,1-1.355-1.305V47.4h-.516v-.919h.516V45.4h1.1v1.088h1.065Zm2.218,3.64H78.248v-6.06h1.088Zm5.865,0H84.107v-.5a2.044,2.044,0,0,1-1.442.571,2.213,2.213,0,0,1-2.14-2.37,2.175,2.175,0,0,1,2.156-2.332,1.975,1.975,0,0,1,1.426.559v-.487H85.2Zm5.514,0H89.637V48.508c0-.715-.367-1.127-1.007-1.127s-1.013.409-1.013,1.127v2.536H86.529V46.485h1.088v.367a1.822,1.822,0,0,1,1.215-.439,1.8,1.8,0,0,1,1.887,1.958v2.673Zm5.823,0H95.444v-.5a1.977,1.977,0,0,1-1.426.571,2.219,2.219,0,0,1-2.156-2.37,2.155,2.155,0,0,1,3.582-1.786V44.981h1.094v6.063Z" fill="#fff"/></g></svg>