<svg xmlns="http://www.w3.org/2000/svg" xmlns:xlink="http://www.w3.org/1999/xlink" width="136.5" height="58" viewBox="0 0 136.5 58"><defs><clipPath id="a"><rect width="136.015" height="57.998" transform="translate(0 -0.001)" fill="none"/></clipPath><clipPath id="c"><rect width="136.5" height="58"/></clipPath></defs><g id="b" clip-path="url(#c)"><rect width="136.5" height="58" fill="#fff"/><g transform="translate(0 0.001)"><g clip-path="url(#a)"><path d="M45.411,0H3.433A3.431,3.431,0,0,0,0,3.432V33.577a24.42,24.42,0,1,0,48.84,0V3.432A3.426,3.426,0,0,0,45.411,0M17.942,29.044A11.066,11.066,0,1,1,29.006,17.977,11.065,11.065,0,0,1,17.942,29.044" fill="#272857"/><path d="M57.874,17.584h2.8V5.747h3.462V3.273H54.364V5.747h3.51Z" fill="#272857"/><path d="M97.274,17.633a7.051,7.051,0,0,0,6.9-7.18,6.9,6.9,0,1,0-13.794,0,7.051,7.051,0,0,0,6.9,7.18m0-11.574a4.264,4.264,0,0,1,4.111,4.394,4.12,4.12,0,1,1-8.222,0,4.264,4.264,0,0,1,4.111-4.394" fill="#272857"/><path d="M73.4,9a3.494,3.494,0,0,0-1.364-1.364,4.018,4.018,0,0,0-1.994-.487,3.663,3.663,0,0,0-1.906.481,2.557,2.557,0,0,0-.653.581V3.273h-2.6v14.3h2.605v-5.9a2.673,2.673,0,0,1,.243-1.182,1.763,1.763,0,0,1,.672-.7,2.087,2.087,0,0,1,1.981,0,1.756,1.756,0,0,1,.663.7,2.247,2.247,0,0,1,.243,1.081v6h2.6v-6.57A4.1,4.1,0,0,0,73.4,9Z" fill="#272857"/><path d="M84.632,12.671a3.57,3.57,0,0,0,.039-.568,5.412,5.412,0,0,0-.334-1.91,4.875,4.875,0,0,0-.971-1.575,4.537,4.537,0,0,0-1.543-1.084,5.253,5.253,0,0,0-2.094-.393,4.893,4.893,0,0,0-2.562.692,5,5,0,0,0-1.809,1.873,5.485,5.485,0,0,0-.662,2.7,5.486,5.486,0,0,0,.649,2.679,4.927,4.927,0,0,0,1.828,1.92,5.219,5.219,0,0,0,2.738.707,5.6,5.6,0,0,0,1.906-.315,4.759,4.759,0,0,0,1.5-.876,3.508,3.508,0,0,0,.941-1.3l.039-.094-2.117-1.04-.052.091a2.41,2.41,0,0,1-.864.89,2.543,2.543,0,0,1-1.338.331,2.636,2.636,0,0,1-1.393-.367A2.3,2.3,0,0,1,77.631,14a2.8,2.8,0,0,1-.221-.785H84.5A1.536,1.536,0,0,0,84.632,12.671ZM78.456,9.69a2.321,2.321,0,0,1,1.273-.357,2.273,2.273,0,0,1,1.279.363,2.052,2.052,0,0,1,.764.988,2.2,2.2,0,0,1,.12.49H77.475a3.008,3.008,0,0,1,.14-.442,2.223,2.223,0,0,1,.844-1.045Z" fill="#272857"/><path d="M126.006,12.671a3.569,3.569,0,0,0,.039-.568,5.412,5.412,0,0,0-.334-1.91,4.875,4.875,0,0,0-.971-1.575A4.537,4.537,0,0,0,123.2,7.534a5.253,5.253,0,0,0-2.094-.393,4.893,4.893,0,0,0-2.562.692,5,5,0,0,0-1.809,1.873,5.485,5.485,0,0,0-.662,2.7,5.486,5.486,0,0,0,.649,2.679,4.927,4.927,0,0,0,1.828,1.92,5.219,5.219,0,0,0,2.738.707,5.6,5.6,0,0,0,1.906-.315,4.759,4.759,0,0,0,1.5-.876,3.508,3.508,0,0,0,.941-1.3l.039-.094-2.117-1.04-.052.091a2.41,2.41,0,0,1-.864.89,2.546,2.546,0,0,1-1.338.331,2.636,2.636,0,0,1-1.393-.367A2.291,2.291,0,0,1,119,14a2.8,2.8,0,0,1-.221-.785h7.086A1.536,1.536,0,0,0,126.006,12.671ZM119.83,9.69a2.321,2.321,0,0,1,1.273-.357,2.273,2.273,0,0,1,1.279.363,2.052,2.052,0,0,1,.764.988,2.2,2.2,0,0,1,.12.49h-4.417a3.008,3.008,0,0,1,.14-.442,2.223,2.223,0,0,1,.844-1.045Z" fill="#272857"/><path d="M129.176,8.014a1,1,0,0,0-1.049-.727h-1.516V17.574h2.6v-6a2.236,2.236,0,0,1,.244-1.081,1.75,1.75,0,0,1,.672-.7,2.087,2.087,0,0,1,1.981,0,1.754,1.754,0,0,1,.662.7,2.247,2.247,0,0,1,.244,1.081v6h2.6V11.008a4.1,4.1,0,0,0-.487-2.013,3.487,3.487,0,0,0-1.364-1.364,4.018,4.018,0,0,0-1.994-.487,3.668,3.668,0,0,0-1.906.48,2.9,2.9,0,0,0-.653.533s-.019-.085-.039-.146Z" fill="#272857"/><path d="M110.494,7.148a4.323,4.323,0,0,0-2.977,1.016s-.02-.084-.039-.146a1,1,0,0,0-1.049-.728h-1.517V22h2.6V16.717l.006.007a3.638,3.638,0,0,0,.841.549,4.664,4.664,0,0,0,2.023.438,4.988,4.988,0,0,0,2.624-.7,5.072,5.072,0,0,0,1.825-1.906,5.444,5.444,0,0,0,.669-2.676,5.342,5.342,0,0,0-.679-2.676A4.963,4.963,0,0,0,110.494,7.148Zm2.017,6.78a2.531,2.531,0,0,1-.951,1.013,2.676,2.676,0,0,1-1.4.367,2.5,2.5,0,0,1-1.354-.367,2.572,2.572,0,0,1-.945-1.013,3.172,3.172,0,0,1-.344-1.5,3.1,3.1,0,0,1,.344-1.487,2.528,2.528,0,0,1,2.3-1.39,2.676,2.676,0,0,1,1.4.377,2.641,2.641,0,0,1,.954,1.016,3.112,3.112,0,0,1,.344,1.487,3.137,3.137,0,0,1-.344,1.5Z" fill="#272857"/><rect width="2.695" height="10.291" transform="translate(78.008 24.462)" fill="#272857"/><path d="M79.355,20.422a1.633,1.633,0,1,0,1.633,1.634,1.634,1.634,0,0,0-1.633-1.634" fill="#272857"/><rect width="2.695" height="10.291" transform="translate(116.943 24.462)" fill="#272857"/><path d="M118.291,20.422a1.633,1.633,0,1,0,1.633,1.634,1.634,1.634,0,0,0-1.633-1.634" fill="#272857"/><path d="M111.092,26.82a1.315,1.315,0,0,1,.835-.234,2.211,2.211,0,0,1,1.24.367,2.035,2.035,0,0,1,.783.984l.065.172,2.107-.99-.055-.146a3.842,3.842,0,0,0-1.582-1.959,5.031,5.031,0,0,0-4.494-.3,3.215,3.215,0,0,0-1.347,1.114,2.908,2.908,0,0,0-.488,1.672,2.742,2.742,0,0,0,.682,1.857,4.006,4.006,0,0,0,1.965,1.153l1.6.448a3.222,3.222,0,0,1,.539.215,1.069,1.069,0,0,1,.36.279.57.57,0,0,1,.117.373.737.737,0,0,1-.311.624,1.5,1.5,0,0,1-.926.253,2.438,2.438,0,0,1-1.409-.438,2.926,2.926,0,0,1-1-1.231l-.072-.156-2.055.984.049.14a4,4,0,0,0,1.662,2.117,5.137,5.137,0,0,0,2.822.776A4.858,4.858,0,0,0,114.2,34.5a3.3,3.3,0,0,0,1.367-1.11,2.854,2.854,0,0,0,.5-1.657,2.7,2.7,0,0,0-.7-1.88,4.218,4.218,0,0,0-1.941-1.13l-1.566-.467a4.629,4.629,0,0,1-.581-.225.892.892,0,0,1-.344-.272.61.61,0,0,1-.111-.37.675.675,0,0,1,.28-.572Z" fill="#272857"/><path d="M64.538,28.93a3.176,3.176,0,0,1-6.352,0V20.423H55.393V28.93a5.969,5.969,0,0,0,11.938,0V20.423H64.538Z" fill="#272857"/><path d="M100.7,29.846a3.57,3.57,0,0,0,.039-.568,5.412,5.412,0,0,0-.334-1.91,4.875,4.875,0,0,0-.971-1.575,4.537,4.537,0,0,0-1.543-1.084,5.253,5.253,0,0,0-2.094-.393,4.893,4.893,0,0,0-2.562.692,5,5,0,0,0-1.809,1.873,5.856,5.856,0,0,0-.013,5.384,4.927,4.927,0,0,0,1.828,1.92,5.219,5.219,0,0,0,2.738.707,5.6,5.6,0,0,0,1.906-.315,4.759,4.759,0,0,0,1.5-.876,3.508,3.508,0,0,0,.941-1.3l.039-.094-2.117-1.04-.052.091a2.41,2.41,0,0,1-.864.89A2.546,2.546,0,0,1,96,32.58a2.636,2.636,0,0,1-1.393-.367,2.291,2.291,0,0,1-.906-1.036,2.794,2.794,0,0,1-.221-.785h7.086A1.536,1.536,0,0,0,100.7,29.846Zm-6.176-2.981a2.321,2.321,0,0,1,1.273-.357,2.266,2.266,0,0,1,1.279.364,2.045,2.045,0,0,1,.764.987,2.2,2.2,0,0,1,.12.49H93.546a3.008,3.008,0,0,1,.14-.442,2.223,2.223,0,0,1,.844-1.045Z" fill="#272857"/><path d="M125.438,32.5a2.2,2.2,0,0,1-.948-.179,1.094,1.094,0,0,1-.52-.5A1.821,1.821,0,0,1,123.8,31V26.586h1.63v-2.12H123.8V22h-2.529v2.465h-.815v2.12h.811v4.547a3.7,3.7,0,0,0,.822,2.776,3.77,3.77,0,0,0,2.776.987,5.653,5.653,0,0,0,.637-.039c.23-.026.432-.052.61-.078l.091-.013V32.432l-.467.052c-.117.012-.218.019-.3.019Z" fill="#272857"/><path d="M91.452,24.462H88.516l-1.964,6.073a2.362,2.362,0,0,0-.1.448l-.042.337-.042-.337a2.362,2.362,0,0,0-.1-.448L84.3,24.462H81.366l3.867,10.291h2.348l3.868-10.291Z" fill="#272857"/><path d="M133.079,24.462,131,30.535a2.361,2.361,0,0,0-.1.448l-.042.337-.043-.337a2.361,2.361,0,0,0-.1-.448l-1.845-6.073h-2.656l2.666,9.511c.14.5.3.7.636.78l-1.678,4.419h2.783l5.4-14.71Z" fill="#272857"/><path d="M70.724,25.193a1,1,0,0,0-1.049-.727H68.159V34.753h2.6v-6a2.236,2.236,0,0,1,.244-1.081,1.75,1.75,0,0,1,.672-.7,2.087,2.087,0,0,1,1.981,0,1.754,1.754,0,0,1,.662.7,2.247,2.247,0,0,1,.244,1.081v6h2.6V28.187a4.1,4.1,0,0,0-.487-2.013,3.487,3.487,0,0,0-1.364-1.364,4.018,4.018,0,0,0-1.994-.487,3.668,3.668,0,0,0-1.906.48,2.9,2.9,0,0,0-.653.533s-.019-.085-.039-.146Z" fill="#272857"/><path d="M104.181,25.339s-.019-.084-.039-.146a1,1,0,0,0-1.049-.728h-1.516V34.753h2.6V29.109a2.5,2.5,0,0,1,.708-1.753,2.281,2.281,0,0,1,1.63-.624,3.453,3.453,0,0,1,1,.12V24.439a1.858,1.858,0,0,0-.714-.12,3.936,3.936,0,0,0-1.416.208,3.467,3.467,0,0,0-1.208.809Z" fill="#272857"/><path d="M94.205,47.379a1.26,1.26,0,0,0-1.237,1.364,1.3,1.3,0,0,0,1.237,1.4,1.281,1.281,0,0,0,1.237-1.387,1.265,1.265,0,0,0-1.237-1.38" fill="#272857"/><path d="M82.866,47.379a1.26,1.26,0,0,0-1.237,1.364,1.3,1.3,0,0,0,1.237,1.4A1.281,1.281,0,0,0,84.1,48.759a1.267,1.267,0,0,0-1.237-1.38" fill="#272857"/><path d="M71.438,47.379a1.213,1.213,0,0,0-1.205,1.38c0,.844.465,1.387,1.182,1.387a1.266,1.266,0,0,0,1.254-1.387,1.238,1.238,0,0,0-1.228-1.38Z" fill="#272857"/><path d="M99.489,48.477a6.647,6.647,0,0,0,6.884-6.885H55.436V55.361h50.941a6.647,6.647,0,0,0-6.885-6.884ZM60.813,51.1c-1.2,0-2.046-.688-2.046-1.672v-.091H59.91l.007.081a.8.8,0,0,0,.9.737c.559,0,.9-.276.9-.721,0-.529-.542-.672-1.169-.841-.786-.208-1.763-.471-1.763-1.662,0-1.01.779-1.663,1.99-1.663a1.767,1.767,0,0,1,1.975,1.585l.009.1H61.576l-.006-.081a.774.774,0,0,0-.841-.65c-.539,0-.835.254-.835.682,0,.481.526.627,1.134.793.8.221,1.789.493,1.789,1.695a1.8,1.8,0,0,1-2,1.711Zm7.248-1.5a2.066,2.066,0,0,1-2.1,1.519,2.354,2.354,0,0,1,0-4.7,1.988,1.988,0,0,1,2.1,1.52l.03.114h-1.16l-.023-.059a.934.934,0,0,0-.957-.633c-.7,0-1.127.526-1.127,1.4s.419,1.412,1.127,1.412a.918.918,0,0,0,.957-.633l.023-.058h1.16l-.033.113Zm3.355,1.519a2.218,2.218,0,0,1-2.283-2.354,2.324,2.324,0,1,1,4.647,0,2.283,2.283,0,0,1-2.364,2.354m5.7-3.711H76.05v2.335c0,.25.061.37.419.37h.646v.935H76.31a1.179,1.179,0,0,1-1.355-1.305V47.4h-.516v-.919h.516V45.4h1.1v1.088h1.065Zm2.218,3.64H78.245v-6.06h1.088Zm5.865,0H84.1v-.5a2.041,2.041,0,0,1-1.442.571,2.213,2.213,0,0,1-2.14-2.37,2.175,2.175,0,0,1,2.157-2.332,1.973,1.973,0,0,1,1.425.559v-.487h1.1Zm5.514,0H89.633V48.506c0-.715-.367-1.127-1.006-1.127s-1.013.409-1.013,1.127v2.536H86.526V46.483h1.088v.367a1.891,1.891,0,0,1,3.1,1.519v2.673Zm5.822,0H95.44v-.5a1.977,1.977,0,0,1-1.426.571,2.219,2.219,0,0,1-2.156-2.37,2.155,2.155,0,0,1,3.582-1.786V44.979h1.094v6.063Z" fill="#272857"/></g></g></g></svg>