<svg width="51" height="51" viewBox="0 0 51 51" fill="none" xmlns="http://www.w3.org/2000/svg">
<rect x="0.682312" y="1.29932" width="49" height="49" fill="white" stroke="black"/>
<path d="M14.9496 20.3276L33.9047 20.3276L33.9047 20.4321L49.181 24.7856L49.181 26.0786L33.9047 31.2778L33.9047 31.4009L14.9496 31.4009L14.9496 20.3276Z" fill="#2FAA96" fill-opacity="0.5"/>
<path d="M6.74233 25.8095L0.645842 25.8293" stroke="black"/>
<path d="M46.697 25.4356L49.8806 25.4148" stroke="black"/>
<mask id="path-5-inside-1_108_537" fill="white">
<path d="M6.74188 21.6309L15.9997 21.6309L15.9997 21.6982L41.8757 25.7783L15.9997 30.0117L15.9997 30.0811L6.74188 30.0811L6.74188 21.6309Z"/>
</mask>
<path d="M6.74188 21.6309L15.9997 21.6309L15.9997 21.6982L41.8757 25.7783L15.9997 30.0117L15.9997 30.0811L6.74188 30.0811L6.74188 21.6309Z" fill="#2FAA96"/>
<path d="M6.74188 21.6309L6.74188 20.6309L5.74188 20.6309L5.74188 21.6309L6.74188 21.6309ZM15.9997 21.6309L16.9997 21.6309L16.9997 20.6309L15.9997 20.6309L15.9997 21.6309ZM15.9997 21.6982L14.9997 21.6982L14.9997 22.5529L15.8439 22.686L15.9997 21.6982ZM41.8757 25.7783L42.0371 26.7652L42.0314 24.7905L41.8757 25.7783ZM15.9997 30.0117L15.8382 29.0248L14.9997 29.162L14.9997 30.0117L15.9997 30.0117ZM15.9997 30.0811L15.9997 31.0811L16.9997 31.0811L16.9997 30.0811L15.9997 30.0811ZM6.74188 30.0811L5.74188 30.0811L5.74188 31.0811L6.74188 31.0811L6.74188 30.0811ZM6.74188 21.6309L6.74188 22.6309L15.9997 22.6309L15.9997 21.6309L15.9997 20.6309L6.74188 20.6309L6.74188 21.6309ZM15.9997 21.6309L14.9997 21.6309L14.9997 21.6982L15.9997 21.6982L16.9997 21.6982L16.9997 21.6309L15.9997 21.6309ZM15.9997 21.6982L15.8439 22.686L41.7199 26.7661L41.8757 25.7783L42.0314 24.7905L16.1554 20.7104L15.9997 21.6982ZM41.8757 25.7783L41.7142 24.7914L15.8382 29.0248L15.9997 30.0117L16.1612 30.9986L42.0371 26.7652L41.8757 25.7783ZM15.9997 30.0117L14.9997 30.0117L14.9997 30.0811L15.9997 30.0811L16.9997 30.0811L16.9997 30.0117L15.9997 30.0117ZM15.9997 30.0811L15.9997 29.0811L6.74188 29.0811L6.74188 30.0811L6.74188 31.0811L15.9997 31.0811L15.9997 30.0811ZM6.74188 30.0811L7.74188 30.0811L7.74188 21.6309L6.74188 21.6309L5.74188 21.6309L5.74188 30.0811L6.74188 30.0811Z" fill="black" mask="url(#path-5-inside-1_108_537)"/>
</svg>
