<svg width="51" height="51" viewBox="0 0 51 51" fill="none" xmlns="http://www.w3.org/2000/svg">
<rect x="1.25598" y="0.549316" width="49" height="49" fill="white" stroke="black"/>
<rect x="3.92117" y="40.6909" width="43.2006" height="4.10798" fill="#2FAA96" stroke="black"/>
<path d="M4.05176 42.7451H1.28853" stroke="black"/>
<path d="M50.3165 42.7451H47.6218" stroke="black"/>
<rect x="3.92117" y="6.77148" width="43.0622" height="4.10798" fill="#2FAA96" stroke="black"/>
<path d="M3.66907 8.82568L1.002 8.82568" stroke="black"/>
<path d="M50.0247 8.82568H47.4834" stroke="black"/>
<mask id="path-8-outside-1_108_543" maskUnits="userSpaceOnUse" x="13.6319" y="12.8481" width="26" height="26" fill="black">
<rect fill="white" x="13.6319" y="12.8481" width="26" height="26"/>
<path d="M26.3985 13.8481C32.8974 13.8481 38.1661 19.1168 38.1661 25.6157C38.1659 32.1145 32.8973 37.3823 26.3985 37.3823C19.8999 37.3821 14.6321 32.1143 14.6319 25.6157C14.6319 19.117 19.8998 13.8484 26.3985 13.8481ZM26.3985 16.438C21.3301 16.4382 17.2218 20.5473 17.2218 25.6157C17.2218 30.6841 21.3302 34.7933 26.3985 34.7935C31.4671 34.7935 35.5762 30.6842 35.5763 25.6157C35.5763 20.5472 31.4671 16.438 26.3985 16.438Z"/>
</mask>
<path d="M26.3985 13.8481C32.8974 13.8481 38.1661 19.1168 38.1661 25.6157C38.1659 32.1145 32.8973 37.3823 26.3985 37.3823C19.8999 37.3821 14.6321 32.1143 14.6319 25.6157C14.6319 19.117 19.8998 13.8484 26.3985 13.8481ZM26.3985 16.438C21.3301 16.4382 17.2218 20.5473 17.2218 25.6157C17.2218 30.6841 21.3302 34.7933 26.3985 34.7935C31.4671 34.7935 35.5762 30.6842 35.5763 25.6157C35.5763 20.5472 31.4671 16.438 26.3985 16.438Z" fill="#2FAA96"/>
<path d="M26.3985 13.8481L26.3985 12.8481L26.3985 12.8481L26.3985 13.8481ZM38.1661 25.6157L39.1661 25.6157V25.6157H38.1661ZM26.3985 37.3823L26.3985 38.3823H26.3985V37.3823ZM14.6319 25.6157L13.6319 25.6157L13.6319 25.6157L14.6319 25.6157ZM26.3985 16.438L26.3985 15.438L26.3985 15.438L26.3985 16.438ZM17.2218 25.6157L16.2218 25.6157L16.2218 25.6157L17.2218 25.6157ZM26.3985 34.7935L26.3985 35.7935H26.3985V34.7935ZM35.5763 25.6157L36.5763 25.6157V25.6157H35.5763ZM26.3985 13.8481V14.8481C32.3451 14.8481 37.1661 19.6691 37.1661 25.6157H38.1661H39.1661C39.1661 18.5645 33.4497 12.8481 26.3985 12.8481V13.8481ZM38.1661 25.6157L37.1661 25.6157C37.166 31.5621 32.3451 36.3823 26.3985 36.3823V37.3823V38.3823C33.4495 38.3823 39.1659 32.6668 39.1661 25.6157L38.1661 25.6157ZM26.3985 37.3823L26.3986 36.3823C20.4522 36.3821 15.6321 31.562 15.6319 25.6157L14.6319 25.6157L13.6319 25.6157C13.6321 32.6666 19.3476 38.3821 26.3985 38.3823L26.3985 37.3823ZM14.6319 25.6157H15.6319C15.6319 19.6692 20.4522 14.8483 26.3986 14.8481L26.3985 13.8481L26.3985 12.8481C19.3475 12.8484 13.6319 18.5648 13.6319 25.6157H14.6319ZM26.3985 16.438L26.3985 15.438C20.7777 15.4382 16.2218 19.9951 16.2218 25.6157H17.2218H18.2218C18.2218 21.0995 21.8825 17.4382 26.3986 17.438L26.3985 16.438ZM17.2218 25.6157L16.2218 25.6157C16.2218 31.2363 20.7778 35.7933 26.3985 35.7935L26.3985 34.7935L26.3986 33.7935C21.8826 33.7933 18.2218 30.132 18.2218 25.6157L17.2218 25.6157ZM26.3985 34.7935V35.7935C32.0194 35.7935 36.5762 31.2365 36.5763 25.6157L35.5763 25.6157L34.5763 25.6157C34.5762 30.132 30.9148 33.7935 26.3985 33.7935V34.7935ZM35.5763 25.6157H36.5763C36.5763 19.9949 32.0194 15.438 26.3985 15.438V16.438V17.438C30.9148 17.438 34.5763 21.0994 34.5763 25.6157H35.5763Z" fill="black" mask="url(#path-8-outside-1_108_543)"/>
</svg>
