<svg width="51" height="51" viewBox="0 0 51 51" fill="none" xmlns="http://www.w3.org/2000/svg">
<rect x="0.595093" y="1.44727" width="49" height="49" fill="white" stroke="black"/>
<mask id="path-2-inside-1_108_550" fill="white">
<path d="M45.3707 30.2773H25.3228V30.2373L5.79646 28.2236V24.1973L25.3228 21.8721V21.8271H45.3707V30.2773Z"/>
</mask>
<path d="M45.3707 30.2773H25.3228V30.2373L5.79646 28.2236V24.1973L25.3228 21.8721V21.8271H45.3707V30.2773Z" fill="#2FAA96"/>
<path d="M45.3707 30.2773V31.2773H46.3707V30.2773H45.3707ZM25.3228 30.2773H24.3228V31.2773H25.3228V30.2773ZM25.3228 30.2373H26.3228V29.3351L25.4254 29.2426L25.3228 30.2373ZM5.79646 28.2236H4.79646V29.1258L5.69387 29.2184L5.79646 28.2236ZM5.79646 24.1973L5.67821 23.2043L4.79646 23.3093V24.1973H5.79646ZM25.3228 21.8721L25.4411 22.8651L26.3228 22.7601V21.8721H25.3228ZM25.3228 21.8271V20.8271H24.3228V21.8271H25.3228ZM45.3707 21.8271H46.3707V20.8271H45.3707V21.8271ZM45.3707 30.2773V29.2773H25.3228V30.2773V31.2773H45.3707V30.2773ZM25.3228 30.2773H26.3228V30.2373H25.3228H24.3228V30.2773H25.3228ZM25.3228 30.2373L25.4254 29.2426L5.89904 27.2289L5.79646 28.2236L5.69387 29.2184L25.2202 31.232L25.3228 30.2373ZM5.79646 28.2236H6.79646V24.1973H5.79646H4.79646V28.2236H5.79646ZM5.79646 24.1973L5.9147 25.1903L25.4411 22.8651L25.3228 21.8721L25.2046 20.8791L5.67821 23.2043L5.79646 24.1973ZM25.3228 21.8721H26.3228V21.8271H25.3228H24.3228V21.8721H25.3228ZM25.3228 21.8271V22.8271H45.3707V21.8271V20.8271H25.3228V21.8271ZM45.3707 21.8271H44.3707V30.2773H45.3707H46.3707V21.8271H45.3707Z" fill="black" mask="url(#path-2-inside-1_108_550)"/>
<rect x="0.595093" y="1.44727" width="49" height="49" fill="white" stroke="black"/>
<rect x="11.363" y="26.0527" width="10.1111" height="10.1111" transform="rotate(-45 11.363 26.0527)" fill="#2FAA96" stroke="black"/>
<path d="M25.4022 26.0064L18.6667 19.271L29.109 15.5642L25.4022 26.0064Z" fill="#2FAA96" stroke="black"/>
<path d="M18.731 32.9398L25.4678 26.2029L28.8528 36.3248L18.731 32.9398Z" fill="#2FAA96" stroke="black"/>
<mask id="path-8-inside-2_108_550" fill="white">
<ellipse cx="15.6889" cy="25.9473" rx="0.732445" ry="0.732422"/>
</mask>
<path d="M16.4213 25.9473H15.4213C15.4213 25.7995 15.5412 25.6797 15.6889 25.6797V26.6797V27.6797C16.6457 27.6797 17.4213 26.9041 17.4213 25.9473H16.4213ZM15.6889 26.6797V25.6797C15.8366 25.6797 15.9564 25.7995 15.9564 25.9473H14.9564H13.9564C13.9564 26.9041 14.7321 27.6797 15.6889 27.6797V26.6797ZM14.9564 25.9473H15.9564C15.9564 26.0951 15.8366 26.2148 15.6889 26.2148V25.2148V24.2148C14.7321 24.2148 13.9564 24.9904 13.9564 25.9473H14.9564ZM15.6889 25.2148V26.2148C15.5412 26.2148 15.4213 26.0951 15.4213 25.9473H16.4213H17.4213C17.4213 24.9904 16.6457 24.2148 15.6889 24.2148V25.2148Z" fill="black" mask="url(#path-8-inside-2_108_550)"/>
<mask id="path-10-inside-3_108_550" fill="white">
<ellipse cx="17.1538" cy="24.4824" rx="0.732445" ry="0.732422"/>
</mask>
<path d="M17.8862 24.4824H16.8862C16.8862 24.3346 17.006 24.2148 17.1538 24.2148V25.2148V26.2148C18.1105 26.2148 18.8862 25.4392 18.8862 24.4824H17.8862ZM17.1538 25.2148V24.2148C17.3015 24.2148 17.4213 24.3346 17.4213 24.4824H16.4213H15.4213C15.4213 25.4392 16.197 26.2148 17.1538 26.2148V25.2148ZM16.4213 24.4824H17.4213C17.4213 24.6302 17.3015 24.75 17.1538 24.75V23.75V22.75C16.197 22.75 15.4213 23.5256 15.4213 24.4824H16.4213ZM17.1538 23.75V24.75C17.006 24.75 16.8862 24.6302 16.8862 24.4824H17.8862H18.8862C18.8862 23.5256 18.1105 22.75 17.1538 22.75V23.75Z" fill="black" mask="url(#path-10-inside-3_108_550)"/>
<mask id="path-12-inside-4_108_550" fill="white">
<ellipse cx="18.6186" cy="23.0176" rx="0.732445" ry="0.732422"/>
</mask>
<path d="M19.3511 23.0176H18.3511C18.3511 22.8698 18.4709 22.75 18.6186 22.75V23.75V24.75C19.5754 24.75 20.3511 23.9744 20.3511 23.0176H19.3511ZM18.6186 23.75V22.75C18.7664 22.75 18.8862 22.8698 18.8862 23.0176H17.8862H16.8862C16.8862 23.9744 17.6619 24.75 18.6186 24.75V23.75ZM17.8862 23.0176H18.8862C18.8862 23.1654 18.7664 23.2852 18.6186 23.2852V22.2852V21.2852C17.6619 21.2852 16.8862 22.0608 16.8862 23.0176H17.8862ZM18.6186 22.2852V23.2852C18.4709 23.2852 18.3511 23.1654 18.3511 23.0176H19.3511H20.3511C20.3511 22.0608 19.5754 21.2852 18.6186 21.2852V22.2852Z" fill="black" mask="url(#path-12-inside-4_108_550)"/>
<mask id="path-14-inside-5_108_550" fill="white">
<ellipse cx="17.1538" cy="27.4121" rx="0.732445" ry="0.732422"/>
</mask>
<path d="M17.8862 27.4121H16.8862C16.8862 27.2643 17.006 27.1445 17.1538 27.1445V28.1445V29.1445C18.1105 29.1445 18.8862 28.3689 18.8862 27.4121H17.8862ZM17.1538 28.1445V27.1445C17.3015 27.1445 17.4213 27.2643 17.4213 27.4121H16.4213H15.4213C15.4213 28.3689 16.197 29.1445 17.1538 29.1445V28.1445ZM16.4213 27.4121H17.4213C17.4213 27.5599 17.3015 27.6797 17.1538 27.6797V26.6797V25.6797C16.197 25.6797 15.4213 26.4553 15.4213 27.4121H16.4213ZM17.1538 26.6797V27.6797C17.006 27.6797 16.8862 27.5599 16.8862 27.4121H17.8862H18.8862C18.8862 26.4553 18.1105 25.6797 17.1538 25.6797V26.6797Z" fill="black" mask="url(#path-14-inside-5_108_550)"/>
<mask id="path-16-inside-6_108_550" fill="white">
<ellipse cx="18.6186" cy="25.9473" rx="0.732445" ry="0.732422"/>
</mask>
<path d="M19.3511 25.9473H18.3511C18.3511 25.7995 18.4709 25.6797 18.6186 25.6797V26.6797V27.6797C19.5754 27.6797 20.3511 26.9041 20.3511 25.9473H19.3511ZM18.6186 26.6797V25.6797C18.7664 25.6797 18.8862 25.7995 18.8862 25.9473H17.8862H16.8862C16.8862 26.9041 17.6619 27.6797 18.6186 27.6797V26.6797ZM17.8862 25.9473H18.8862C18.8862 26.0951 18.7664 26.2148 18.6186 26.2148V25.2148V24.2148C17.6619 24.2148 16.8862 24.9904 16.8862 25.9473H17.8862ZM18.6186 25.2148V26.2148C18.4709 26.2148 18.3511 26.0951 18.3511 25.9473H19.3511H20.3511C20.3511 24.9904 19.5754 24.2148 18.6186 24.2148V25.2148Z" fill="black" mask="url(#path-16-inside-6_108_550)"/>
<mask id="path-18-inside-7_108_550" fill="white">
<ellipse cx="19.8717" cy="24.4824" rx="0.732445" ry="0.732422"/>
</mask>
<path d="M20.6041 24.4824H19.6041C19.6041 24.3346 19.724 24.2148 19.8717 24.2148V25.2148V26.2148C20.8285 26.2148 21.6041 25.4392 21.6041 24.4824H20.6041ZM19.8717 25.2148V24.2148C20.0194 24.2148 20.1393 24.3346 20.1393 24.4824H19.1393H18.1393C18.1393 25.4392 18.9149 26.2148 19.8717 26.2148V25.2148ZM19.1393 24.4824H20.1393C20.1393 24.6302 20.0194 24.75 19.8717 24.75V23.75V22.75C18.9149 22.75 18.1393 23.5256 18.1393 24.4824H19.1393ZM19.8717 23.75V24.75C19.724 24.75 19.6041 24.6302 19.6041 24.4824H20.6041H21.6041C21.6041 23.5256 20.8285 22.75 19.8717 22.75V23.75Z" fill="black" mask="url(#path-18-inside-7_108_550)"/>
<mask id="path-20-inside-8_108_550" fill="white">
<ellipse cx="18.6186" cy="28.877" rx="0.732445" ry="0.732422"/>
</mask>
<path d="M19.3511 28.877H18.3511C18.3511 28.7291 18.4709 28.6094 18.6186 28.6094V29.6094V30.6094C19.5754 30.6094 20.3511 29.8338 20.3511 28.877H19.3511ZM18.6186 29.6094V28.6094C18.7664 28.6094 18.8862 28.7291 18.8862 28.877H17.8862H16.8862C16.8862 29.8338 17.6619 30.6094 18.6186 30.6094V29.6094ZM17.8862 28.877H18.8862C18.8862 29.0248 18.7664 29.1445 18.6186 29.1445V28.1445V27.1445C17.6619 27.1445 16.8862 27.9201 16.8862 28.877H17.8862ZM18.6186 28.1445V29.1445C18.4709 29.1445 18.3511 29.0248 18.3511 28.877H19.3511H20.3511C20.3511 27.9201 19.5754 27.1445 18.6186 27.1445V28.1445Z" fill="black" mask="url(#path-20-inside-8_108_550)"/>
<mask id="path-22-inside-9_108_550" fill="white">
<ellipse cx="20.0835" cy="27.4121" rx="0.732445" ry="0.732422"/>
</mask>
<path d="M20.816 27.4121H19.816C19.816 27.2643 19.9358 27.1445 20.0835 27.1445V28.1445V29.1445C21.0403 29.1445 21.816 28.3689 21.816 27.4121H20.816ZM20.0835 28.1445V27.1445C20.2313 27.1445 20.3511 27.2643 20.3511 27.4121H19.3511H18.3511C18.3511 28.3689 19.1267 29.1445 20.0835 29.1445V28.1445ZM19.3511 27.4121H20.3511C20.3511 27.5599 20.2313 27.6797 20.0835 27.6797V26.6797V25.6797C19.1267 25.6797 18.3511 26.4553 18.3511 27.4121H19.3511ZM20.0835 26.6797V27.6797C19.9358 27.6797 19.816 27.5599 19.816 27.4121H20.816H21.816C21.816 26.4553 21.0403 25.6797 20.0835 25.6797V26.6797Z" fill="black" mask="url(#path-22-inside-9_108_550)"/>
<mask id="path-24-inside-10_108_550" fill="white">
<ellipse cx="21.3366" cy="25.9473" rx="0.732445" ry="0.732422"/>
</mask>
<path d="M22.069 25.9473H21.069C21.069 25.7995 21.1888 25.6797 21.3366 25.6797V26.6797V27.6797C22.2933 27.6797 23.069 26.9041 23.069 25.9473H22.069ZM21.3366 26.6797V25.6797C21.4843 25.6797 21.6041 25.7995 21.6041 25.9473H20.6041H19.6041C19.6041 26.9041 20.3798 27.6797 21.3366 27.6797V26.6797ZM20.6041 25.9473H21.6041C21.6041 26.0951 21.4843 26.2148 21.3366 26.2148V25.2148V24.2148C20.3798 24.2148 19.6041 24.9904 19.6041 25.9473H20.6041ZM21.3366 25.2148V26.2148C21.1888 26.2148 21.069 26.0951 21.069 25.9473H22.069H23.069C23.069 24.9904 22.2933 24.2148 21.3366 24.2148V25.2148Z" fill="black" mask="url(#path-24-inside-10_108_550)"/>
<path d="M29.0482 15.0577H50.0951" stroke="black"/>
<line x1="29.0482" y1="36.6616" x2="50.0951" y2="36.6616" stroke="black"/>
<line x1="11.6271" y1="25.9722" x2="0.694593" y2="25.9722" stroke="black"/>
</svg>
