<svg width="51" height="51" viewBox="0 0 51 51" fill="none" xmlns="http://www.w3.org/2000/svg">
<rect x="0.67981" y="1.32031" width="49" height="49" fill="white" stroke="black"/>
<path d="M40.4922 25.0605H50.1798" stroke="black"/>
<path d="M0.726624 25.1323L8.77092 25.1323" stroke="black"/>
<rect x="9.27094" y="22.3452" width="33.4444" height="5.66667" fill="#2FAA96" stroke="black"/>
<rect x="17.7609" y="29.6426" width="16.8522" height="8.6403" fill="#C43C5B" stroke="black"/>
<path d="M31.5917 32.3257H40.4364V50.4087H39.4364V33.3257H30.8895L30.7704 32.9956L30.5038 32.2563L29.3495 36.2427L28.869 37.9028L28.3885 36.2427L27.288 32.4399L26.1874 36.2427L25.7069 37.9028L25.2264 36.2427L24.1268 32.439L23.0253 36.2427L22.5009 38.0542L22.0594 36.2212L21.3612 33.3257H13.6073V50.4087H12.6073V32.3257H22.1483L22.2411 32.7085L22.5897 34.1538L23.6063 30.6401H24.6464L25.7069 34.3052L26.7675 30.6401H27.8085L28.869 34.3052L29.9296 30.6401H30.9823L31.5917 32.3257Z" fill="black"/>
</svg>
