<svg width="51" height="51" viewBox="0 0 51 51" fill="none" xmlns="http://www.w3.org/2000/svg">
<rect x="0.831894" y="0.529785" width="49" height="49" fill="white" stroke="black"/>
<path d="M21.0324 36.5171H0.995072" stroke="black"/>
<path d="M21.0324 12.2676L0.995071 12.2676" stroke="black"/>
<mask id="path-4-outside-1_142_111" maskUnits="userSpaceOnUse" x="20.6943" y="8.77148" width="17" height="32" fill="black">
<rect fill="white" x="20.6943" y="8.77148" width="17" height="32"/>
<path d="M21.6943 9.77148C29.8286 9.77201 36.4229 16.3656 36.4229 24.5L36.418 24.8799C36.2163 32.8385 29.7015 39.228 21.6943 39.2285V34.2061C26.8875 34.2055 31.1282 30.1283 31.3887 25L31.4014 24.5C31.4014 19.139 27.0552 14.7925 21.6943 14.792V9.77148Z"/>
</mask>
<path d="M21.6943 9.77148C29.8286 9.77201 36.4229 16.3656 36.4229 24.5L36.418 24.8799C36.2163 32.8385 29.7015 39.228 21.6943 39.2285V34.2061C26.8875 34.2055 31.1282 30.1283 31.3887 25L31.4014 24.5C31.4014 19.139 27.0552 14.7925 21.6943 14.792V9.77148Z" fill="#2FAA96"/>
<path d="M21.6943 9.77148L21.6944 8.77148L20.6943 8.77142V9.77148H21.6943ZM36.4229 24.5L37.4229 24.5129V24.5H36.4229ZM36.418 24.8799L37.4177 24.9052L37.4179 24.8927L36.418 24.8799ZM21.6943 39.2285H20.6943V40.2286L21.6944 40.2285L21.6943 39.2285ZM21.6943 34.2061L21.6942 33.2061L20.6943 33.2062V34.2061H21.6943ZM31.3887 25L32.3874 25.0507L32.388 25.0381L32.3883 25.0254L31.3887 25ZM31.4014 24.5L32.401 24.5254L32.4014 24.5127V24.5H31.4014ZM21.6943 14.792H20.6943V15.7919L21.6942 15.792L21.6943 14.792ZM21.6943 9.77148L21.6943 10.7715C29.2764 10.772 35.4229 16.918 35.4229 24.5H36.4229H37.4229C37.4229 15.8133 30.3808 8.77205 21.6944 8.77148L21.6943 9.77148ZM36.4229 24.5L35.4229 24.4871L35.4181 24.867L36.418 24.8799L37.4179 24.8927L37.4228 24.5129L36.4229 24.5ZM36.418 24.8799L35.4183 24.8545C35.2303 32.2723 29.1577 38.228 21.6943 38.2285L21.6943 39.2285L21.6944 40.2285C30.2453 40.228 37.2023 33.4047 37.4176 24.9052L36.418 24.8799ZM21.6943 39.2285H22.6943V34.2061H21.6943H20.6943V39.2285H21.6943ZM21.6943 34.2061L21.6944 35.2061C27.4226 35.2055 32.1001 30.7084 32.3874 25.0507L31.3887 25L30.39 24.9493C30.1564 29.5483 26.3523 33.2056 21.6942 33.2061L21.6943 34.2061ZM31.3887 25L32.3883 25.0254L32.401 24.5254L31.4014 24.5L30.4017 24.4746L30.389 24.9746L31.3887 25ZM31.4014 24.5H32.4014C32.4014 18.5867 27.6076 13.7926 21.6944 13.792L21.6943 14.792L21.6942 15.792C26.5029 15.7925 30.4014 19.6912 30.4014 24.5H31.4014ZM21.6943 14.792H22.6943V9.77148H21.6943H20.6943V14.792H21.6943Z" fill="black" mask="url(#path-4-outside-1_142_111)"/>
</svg>
