<?xml version="1.0" encoding="UTF-8" standalone="no"?>
<!-- Created with Inkscape (http://www.inkscape.org/) -->

<svg
   version="1.1"
   id="svg1"
   width="3114.8853"
   height="952.10175"
   viewBox="0 0 3114.8852 952.1017"
   xml:space="preserve"
   xmlns="http://www.w3.org/2000/svg"
   xmlns:svg="http://www.w3.org/2000/svg"><defs
     id="defs1" /><g
     id="g1"
     transform="translate(-134.80315,-60.711768)"><g
       id="g19"><path
         style="fill:#002253;fill-opacity:1;stroke:none"
         d="m 437.77781,849.0525 -83.0978,-3.29818 -219.87686,-154.10468 0.42813,-147.93137 122.69149,-96.81007 166.75724,2.96529 -119.0867,-81.65169 1.03435,-150.26759 246.97165,-157.242442 278.41186,113.668202 77.68218,96.42259 -117.68218,120.78143 -149.1256,-71.17205 -115.47597,-0.11995 374.30264,232.16567 1.37895,136.96976 -170.13262,101.36409 -351.44891,-217.12576 -84.25054,56.75517 301.04441,190.0591 89.22761,187.33348 2.14855,5 z"
         id="path2" /><path
         style="fill:#0091e4;fill-opacity:1;stroke:none;stroke-width:0.0377953"
         d="m 164.52531,680.14686 -1.13753,-97.78844 93.21664,51.04267 314.88754,197.93379 64.28888,124.04905 -183.35753,-131.59067 -89.2799,-5.97732 z"
         id="path10" /><path
         style="fill:#0065b1;fill-opacity:1;stroke:none;stroke-width:0.0377953"
         d="m 166.09421,554.31639 110.15478,57.1971 84.42862,-56.77766 -102.71831,-71.27041 z"
         id="path11" /><path
         style="fill:#006ebb;fill-opacity:1;stroke:none;stroke-width:0.0377953"
         d="m 752.69596,659.26367 123.38691,-68.82061 2.3034,85.81223 -130.02774,76.58951 -8.25821,-49.91864 z"
         id="path12" /><path
         style="fill:#0091e4;fill-opacity:1;stroke:none;stroke-width:0.0377953"
         d="m 295.38191,478.14686 173.1667,0.0381 284.14735,181.07871 -4.33743,93.58113 -13.45342,7.92439 -337.22457,-210.58251 z"
         id="path13" /><path
         style="fill:#0065b1;fill-opacity:1;stroke:none;stroke-width:0.0377953"
         d="m 484.67861,420.75298 1.13252,-94.29364 385.2796,239.0159 -88.21552,46.21239 z"
         id="path14" /><path
         style="fill:#003668;fill-opacity:1;stroke:none;stroke-width:0.0377953"
         d="m 516.79357,242.4573 -124.00405,1.33655 27.26646,27.46279 39.39294,20.89019 94.42676,1.2751 z"
         id="path16" /><path
         style="fill:#0091e4;fill-opacity:1;stroke:none;stroke-width:0.0377953"
         d="m 331.01402,351.37801 1.666,-113.11486 48.6666,-0.783 11.4429,6.3137 66.6594,48.35298 -1.4919,142.00001 z"
         id="path15" /><path
         style="fill:#0091e4;fill-opacity:1;stroke:none;stroke-width:0.0377953"
         d="M 365.97777,212.73031 554.53079,94.501913 816.82586,198.81349 l 54.48522,67.04289 -21.39799,23.41359 -263.71467,2.76498 -51.84808,-78.51173 z"
         id="path17" /><path
         d="m 625.29582,162.27356 131.3002,49.46935 7.49236,8.13404 -22.11551,1.91564 -57.81456,19.86114 z"
         style="fill:#002253;fill-opacity:1;stroke:none"
         id="path1" /><path
         d="m 803.1709,252.97322 3.17095,-3.52993 3.4592,-7.80137 5.73434,-2.15443 25.22397,29.6414 z"
         style="fill:#002253;fill-opacity:1;stroke:none"
         id="path1-9" /><path
         style="fill:#0065b1;fill-opacity:1;stroke:none;stroke-width:0.0377953"
         d="m 692.01331,315.54346 136.57928,-0.0633 -39.6978,41.23083 z"
         id="path18" /><path
         style="fill:#003668;fill-opacity:1;stroke:none;stroke-width:0.0377953"
         d="m 803.1709,252.97322 4.21364,-2.3569 2.41651,-8.9744 -4.02948,0.5135 -0.51696,5.4089 z"
         id="path19" /></g><text
       xml:space="preserve"
       style="font-style:normal;font-variant:normal;font-weight:bold;font-stretch:normal;font-size:560px;font-family:'Inter Variable';-inkscape-font-specification:'Inter Variable Bold';text-align:start;writing-mode:lr-tb;direction:ltr;text-anchor:start;display:inline;fill:#0081cc;fill-opacity:1;stroke-width:0.0377953"
       x="1027.7897"
       y="702.6424"
       id="text1"><tspan
         id="tspan1"
         x="1027.7897"
         y="702.6424"
         style="fill:#0081cc;fill-opacity:1">PyTango</tspan></text></g></svg>
