# https://github.com/mikedh/trimesh
mtllib material.mtl
usemtl material_0
v 0.43377481 0.42185580 -0.44834567
v 0.43377481 0.42185580 0.22450370
v -0.43377481 0.42185580 0.22450370
v -0.43377481 0.42185580 -0.44834567
v 0.47682074 0.44635753 0.33973432
v 0.47682074 0.44635753 -0.48808098
v -0.47682074 0.44635753 -0.48808098
v -0.47682074 0.44635753 0.33973432
v -0.47682074 0.15761580 0.33973432
v -0.47682074 0.44635753 0.33973432
v -0.47682074 0.44635753 -0.48808098
v -0.47682074 0.15761580 -0.48808098
v -0.47682074 -0.34437037 -0.48808098
v -0.47682074 -0.34437037 0.33973432
v -0.47682074 0.15761580 -0.48808098
v -0.47682074 0.44635753 -0.48808098
v 0.47682074 0.44635753 -0.48808098
v 0.47682074 0.15761580 -0.48808098
v 0.47682074 -0.34437037 -0.48808098
v -0.47682074 -0.34437037 -0.48808098
v 0.47682074 0.15761580 0.33973432
v 0.47682074 0.44635753 0.33973432
v -0.47682074 0.44635753 0.33973432
v -0.47682074 0.15761580 0.33973432
v -0.47682074 0.15761580 0.40463801
v -0.47682074 -0.34437037 0.40463801
v 0.47682074 -0.34437037 0.40463801
v 0.47682074 0.15761580 0.40463801
v 0.47682074 0.15761580 -0.48808098
v 0.47682074 0.44635753 -0.48808098
v 0.47682074 0.44635753 0.33973432
v 0.47682074 0.15761580 0.33973432
v 0.47682074 -0.34437037 0.33973432
v 0.47682074 -0.34437037 -0.48808098
v -0.47682074 -0.34437037 0.33973432
v 0.47682074 -0.34437037 0.33973432
v 0.47682074 -0.34437037 0.40463801
v -0.47682074 -0.34437037 0.40463801
v 0.47682074 0.15761580 0.40463801
v 0.47682074 -0.34437037 0.40463801
v 0.47682074 0.15761580 0.33973432
v -0.47682074 0.15761580 0.33973432
v -0.47682074 0.15761580 0.40463801
v 0.47682074 0.15761580 0.40463801
v -0.47682074 -0.34437037 0.40463801
v -0.47682074 0.15761580 0.40463801
v 0.47682074 -0.34437037 -0.48808098
v 0.43377481 -0.34437037 0.22450370
v 0.43377481 -0.34437037 -0.44834567
v -0.43377481 -0.34437037 0.22450370
v -0.47682074 -0.34437037 -0.48808098
v -0.43377481 -0.34437037 -0.44834567
v 0.43377481 -0.34437037 -0.44834567
v 0.43377481 -0.34437037 0.22450370
v 0.43377481 0.42185580 0.22450370
v 0.43377481 0.42185580 -0.44834567
v 0.43377481 -0.34437037 0.22450370
v -0.43377481 -0.34437037 0.22450370
v -0.43377481 0.42185580 0.22450370
v 0.43377481 0.42185580 0.22450370
v -0.43377481 -0.34437037 0.22450370
v -0.43377481 -0.34437037 -0.44834567
v -0.43377481 0.42185580 -0.44834567
v -0.43377481 0.42185580 0.22450370
v -0.43377481 -0.34437037 -0.44834567
v 0.43377481 -0.34437037 -0.44834567
v 0.43377481 0.42185580 -0.44834567
v -0.43377481 0.42185580 -0.44834567
v -0.43062250 0.32256866 -0.01340865
v -0.43062250 -0.34467125 -0.01340865
v 0.43062250 -0.34467125 -0.01340865
v 0.43062250 0.32256866 -0.01340865
v 0.43062250 0.40018878 0.01106555
v -0.43062250 0.40018878 0.01106555
v -0.34096634 0.34264771 0.14067923
v -0.34096634 -0.36283394 0.14067923
v 0.36451530 -0.36283394 0.14067923
v 0.36451530 0.34264771 0.14067923
v -0.43062250 0.32256866 -0.12058346
v -0.43062250 -0.34467125 -0.12058346
v 0.43062250 -0.34467125 -0.12058346
v 0.43062250 0.32256866 -0.12058346
v 0.43062250 0.40018878 -0.09610926
v -0.43062250 0.40018878 -0.09610926
v -0.43062250 0.32256866 -0.23169130
v -0.43062250 -0.34467125 -0.23169130
v 0.43062250 -0.34467125 -0.23169130
v 0.43062250 0.32256866 -0.23169130
v 0.43062250 0.40018878 -0.20721709
v -0.43062250 0.40018878 -0.20721709
v -0.43062250 0.32256866 -0.34279913
v -0.43062250 -0.34467125 -0.34279913
v 0.43062250 -0.34467125 -0.34279913
v 0.43062250 0.32256866 -0.34279913
v 0.43062250 0.40018878 -0.31832493
v -0.43062250 0.40018878 -0.31832493
v -0.34096634 0.34264771 0.13772947
v -0.34096634 -0.36283394 0.13772947
v 0.36451530 -0.36283394 0.13772947
v 0.36451530 0.34264771 0.13772947
vn 0.00000000 -1.00000000 0.00000000
vn 0.00000000 -1.00000000 0.00000000
vn 0.00000000 -1.00000000 0.00000000
vn 0.00000000 -1.00000000 0.00000000
vn 0.00000000 1.00000000 0.00000000
vn 0.00000000 1.00000000 0.00000000
vn 0.00000000 1.00000000 0.00000000
vn 0.00000000 1.00000000 0.00000000
vn -1.00000000 0.00000000 0.00000000
vn -1.00000000 0.00000000 0.00000000
vn -1.00000000 0.00000000 0.00000000
vn -1.00000000 0.00000000 0.00000000
vn -1.00000000 0.00000000 0.00000000
vn -1.00000000 0.00000000 0.00000000
vn 0.00000000 0.00000000 -1.00000000
vn 0.00000000 0.00000000 -1.00000000
vn 0.00000000 0.00000000 -1.00000000
vn 0.00000000 0.00000000 -1.00000000
vn 0.00000000 0.00000000 -1.00000000
vn 0.00000000 0.00000000 -1.00000000
vn 0.00000000 0.00000000 1.00000000
vn 0.00000000 0.00000000 1.00000000
vn 0.00000000 0.00000000 1.00000000
vn 0.00000000 0.00000000 1.00000000
vn 0.00000000 0.00000000 1.00000000
vn 0.00000000 0.00000000 1.00000000
vn 0.00000000 0.00000000 1.00000000
vn 0.00000000 0.00000000 1.00000000
vn 1.00000000 0.00000000 0.00000000
vn 1.00000000 0.00000000 0.00000000
vn 1.00000000 0.00000000 0.00000000
vn 1.00000000 0.00000000 0.00000000
vn 1.00000000 0.00000000 0.00000000
vn 1.00000000 0.00000000 0.00000000
vn 0.00000000 -1.00000000 0.00000000
vn 0.00000000 -1.00000000 0.00000000
vn 0.00000000 -1.00000000 0.00000000
vn 0.00000000 -1.00000000 0.00000000
vn 1.00000000 0.00000000 0.00000000
vn 1.00000000 0.00000000 0.00000000
vn 0.00000000 1.00000000 0.00000000
vn 0.00000000 1.00000000 0.00000000
vn 0.00000000 1.00000000 0.00000000
vn 0.00000000 1.00000000 0.00000000
vn -1.00000000 0.00000000 0.00000000
vn -1.00000000 0.00000000 0.00000000
vn 0.00000000 -1.00000000 0.00000000
vn 0.00000000 -1.00000000 0.00000000
vn 0.00000000 -1.00000000 0.00000000
vn 0.00000000 -1.00000000 0.00000000
vn 0.00000000 -1.00000000 0.00000000
vn 0.00000000 -1.00000000 0.00000000
vn -1.00000000 0.00000000 0.00000000
vn -1.00000000 0.00000000 0.00000000
vn -1.00000000 0.00000000 0.00000000
vn -1.00000000 0.00000000 0.00000000
vn 0.00000000 0.00000000 -1.00000000
vn 0.00000000 0.00000000 -1.00000000
vn 0.00000000 0.00000000 -1.00000000
vn 0.00000000 0.00000000 -1.00000000
vn 1.00000000 0.00000000 0.00000000
vn 1.00000000 0.00000000 0.00000000
vn 1.00000000 0.00000000 0.00000000
vn 1.00000000 0.00000000 0.00000000
vn 0.00000000 0.00000000 1.00000000
vn 0.00000000 0.00000000 1.00000000
vn 0.00000000 0.00000000 1.00000000
vn 0.00000000 0.00000000 1.00000000
vn 0.00000000 -0.15209476 0.98836592
vn 0.00000000 0.00000000 1.00000000
vn 0.00000000 0.00000000 1.00000000
vn 0.00000000 -0.15209476 0.98836592
vn 0.00000000 -0.30070539 0.95371708
vn 0.00000000 -0.30070539 0.95371708
vn 0.00000000 0.00000000 1.00000000
vn 0.00000000 0.00000000 1.00000000
vn 0.00000000 0.00000000 1.00000000
vn 0.00000000 0.00000000 1.00000000
vn 0.00000000 -0.15209476 0.98836592
vn 0.00000000 0.00000000 1.00000000
vn 0.00000000 0.00000000 1.00000000
vn 0.00000000 -0.15209476 0.98836592
vn 0.00000000 -0.30070539 0.95371708
vn 0.00000000 -0.30070539 0.95371708
vn 0.00000000 -0.15209476 0.98836592
vn 0.00000000 0.00000000 1.00000000
vn 0.00000000 0.00000000 1.00000000
vn 0.00000000 -0.15209476 0.98836592
vn 0.00000000 -0.30070539 0.95371708
vn 0.00000000 -0.30070539 0.95371708
vn 0.00000000 -0.15209476 0.98836592
vn 0.00000000 0.00000000 1.00000000
vn 0.00000000 0.00000000 1.00000000
vn 0.00000000 -0.15209476 0.98836592
vn 0.00000000 -0.30070539 0.95371708
vn 0.00000000 -0.30070539 0.95371708
vn 0.00000000 0.00000000 -1.00000000
vn 0.00000000 0.00000000 -1.00000000
vn 0.00000000 0.00000000 -1.00000000
vn 0.00000000 0.00000000 -1.00000000
vt 0.27899000 0.38293000
vt 0.07384600 0.38293000
vt 0.07384600 0.64182500
vt 0.27899000 0.64182500
vt 0.22398300 0.24427600
vt 0.22398300 0.37372300
vt 0.35343100 0.37372300
vt 0.35343100 0.24427600
vt 0.16674900 0.36431200
vt 0.21401800 0.36431200
vt 0.21401800 0.24427600
vt 0.16674900 0.24427600
vt 0.08457000 0.24427600
vt 0.08457000 0.36431200
vt 0.36339600 0.32645400
vt 0.36339600 0.37372300
vt 0.49284400 0.37372300
vt 0.49284400 0.32645400
vt 0.49284400 0.24427600
vt 0.36339600 0.24427600
vt 0.66009600 0.78838700
vt 0.70905000 0.78838700
vt 0.70905000 0.65894000
vt 0.66009600 0.65894000
vt 0.65003000 0.65894000
vt 0.57430300 0.65894000
vt 0.57430300 0.78838700
vt 0.65003000 0.78838700
vt 0.57430300 0.88053100
vt 0.57430300 0.92780000
vt 0.69434000 0.92780000
vt 0.69434000 0.88053100
vt 0.69434000 0.79835300
vt 0.57430300 0.79835300
vt 0.01000000 0.08124600
vt 0.99000000 0.08124600
vt 0.99000000 0.01000000
vt 0.01000000 0.01000000
vt 0.70375000 0.88053100
vt 0.70375000 0.79835300
vt 0.73615400 0.92780000
vt 0.73615400 0.79835300
vt 0.71371600 0.79835300
vt 0.71371600 0.92780000
vt 0.08457000 0.37372300
vt 0.16674900 0.37372300
vt 0.99000000 0.99000000
vt 0.94576400 0.20774500
vt 0.94576400 0.94638000
vt 0.05423600 0.20774500
vt 0.01000000 0.99000000
vt 0.05423600 0.94638000
vt 0.70795300 0.64182500
vt 0.70795300 0.43668100
vt 0.50280900 0.43668100
vt 0.50280900 0.64182500
vt 0.28832800 0.38293000
vt 0.28832800 0.64182500
vt 0.49347100 0.64182500
vt 0.49347100 0.38293000
vt 0.50280900 0.22220000
vt 0.50280900 0.42734300
vt 0.70795300 0.42734300
vt 0.70795300 0.22220000
vt 0.35982200 0.66890500
vt 0.35982200 0.92780000
vt 0.56496500 0.92780000
vt 0.56496500 0.66890500
vt 0.07384600 0.68158100
vt 0.07384600 0.92780000
vt 0.35009800 0.92780000
vt 0.35009800 0.68158100
vt 0.35009800 0.65154900
vt 0.07384600 0.65154900
vt 0.72137800 0.56529000
vt 0.72137800 0.78266600
vt 0.93875300 0.78266600
vt 0.93875300 0.56529000
vt 0.07384600 0.68158100
vt 0.07384600 0.92780000
vt 0.35009800 0.92780000
vt 0.35009800 0.68158100
vt 0.35009800 0.65154900
vt 0.07384600 0.65154900
vt 0.07384600 0.68158100
vt 0.07384600 0.92780000
vt 0.35009800 0.92780000
vt 0.35009800 0.68158100
vt 0.35009800 0.65154900
vt 0.07384600 0.65154900
vt 0.07384600 0.68158100
vt 0.07384600 0.92780000
vt 0.35009800 0.92780000
vt 0.35009800 0.68158100
vt 0.35009800 0.65154900
vt 0.07384600 0.65154900
vt 0.72137800 0.56529000
vt 0.72137800 0.78266600
vt 0.93875300 0.78266600
vt 0.93875300 0.56529000
f 4/4/4 1/1/1 2/2/2
f 2/2/2 3/3/3 4/4/4
f 8/8/8 5/5/5 6/6/6
f 6/6/6 7/7/7 8/8/8
f 12/12/12 9/9/9 10/10/10
f 10/10/10 11/11/11 12/12/12
f 9/9/9 12/12/12 13/13/13
f 13/13/13 14/14/14 9/9/9
f 18/18/18 15/15/15 16/16/16
f 16/16/16 17/17/17 18/18/18
f 15/15/15 18/18/18 19/19/19
f 19/19/19 20/20/20 15/15/15
f 24/24/24 21/21/21 22/22/22
f 22/22/22 23/23/23 24/24/24
f 28/28/28 25/25/25 26/26/26
f 26/26/26 27/27/27 28/28/28
f 32/32/32 29/29/29 30/30/30
f 30/30/30 31/31/31 32/32/32
f 29/29/29 32/32/32 33/33/33
f 33/33/33 34/34/34 29/29/29
f 38/38/38 35/35/35 36/36/36
f 36/36/36 37/37/37 38/38/38
f 40/40/40 33/33/33 32/32/32
f 32/32/32 39/39/39 40/40/40
f 44/44/44 41/41/41 42/42/42
f 42/42/42 43/43/43 44/44/44
f 46/46/46 9/9/9 14/14/14
f 14/14/14 45/45/45 46/46/46
f 49/49/49 47/47/47 36/36/36
f 36/36/36 48/48/48 49/49/49
f 48/48/48 36/36/36 35/35/35
f 35/35/35 50/50/50 48/48/48
f 50/50/50 35/35/35 51/51/51
f 51/51/51 52/52/52 50/50/50
f 52/52/52 51/51/51 47/47/47
f 47/47/47 49/49/49 52/52/52
f 56/56/56 53/53/53 54/54/54
f 54/54/54 55/55/55 56/56/56
f 60/60/60 57/57/57 58/58/58
f 58/58/58 59/59/59 60/60/60
f 64/64/64 61/61/61 62/62/62
f 62/62/62 63/63/63 64/64/64
f 68/68/68 65/65/65 66/66/66
f 66/66/66 67/67/67 68/68/68
f 78/78/78 75/75/75 76/76/76
f 76/76/76 77/77/77 78/78/78
f 100/100/100 98/98/98 97/97/97
f 98/98/98 100/100/100 99/99/99
f 72/72/72 69/69/69 70/70/70
f 70/70/70 71/71/71 72/72/72
f 69/69/69 72/72/72 73/73/73
f 73/73/73 74/74/74 69/69/69
f 82/82/82 79/79/79 80/80/80
f 80/80/80 81/81/81 82/82/82
f 79/79/79 82/82/82 83/83/83
f 83/83/83 84/84/84 79/79/79
f 88/88/88 85/85/85 86/86/86
f 86/86/86 87/87/87 88/88/88
f 85/85/85 88/88/88 89/89/89
f 89/89/89 90/90/90 85/85/85
f 94/94/94 91/91/91 92/92/92
f 92/92/92 93/93/93 94/94/94
f 91/91/91 94/94/94 95/95/95
f 95/95/95 96/96/96 91/91/91