# https://github.com/mikedh/trimesh
mtllib material.mtl
usemtl material_0
v -0.50000000 -0.34437037 -0.48808098
v 0.50000000 -0.34437037 -0.48808098
v 0.50000000 -0.37748444 -0.48808098
v -0.50000000 -0.37748444 -0.48808098
v -0.50000000 -0.34437037 0.48808098
v -0.50000000 -0.37748444 0.48808098
v 0.50000000 -0.37748444 0.48808098
v 0.50000000 -0.34437037 0.48808098
v -0.50000000 -0.34437037 0.27748346
v -0.50000000 -0.34437037 0.48808098
v 0.50000000 -0.34437037 0.48808098
v 0.50000000 -0.34437037 0.27748346
v 0.50000000 -0.34437037 0.27748346
v 0.50000000 -0.34437037 0.48808098
v 0.50000000 -0.37748444 0.48808098
v 0.50000000 -0.37748444 0.27748346
v 0.50000000 -0.37748444 0.27748346
v 0.50000000 -0.37748444 0.48808098
v -0.50000000 -0.37748444 0.48808098
v -0.50000000 -0.37748444 0.27748346
v -0.50000000 -0.37748444 0.27748346
v -0.50000000 -0.37748444 0.48808098
v -0.50000000 -0.34437037 0.48808098
v -0.50000000 -0.34437037 0.27748346
v 0.50000000 -0.34437037 0.26423901
v 0.50000000 -0.34437037 -0.48808098
v -0.50000000 -0.34437037 -0.48808098
v -0.50000000 -0.34437037 0.26423901
v 0.50000000 -0.37748444 0.26423901
v 0.50000000 -0.37748444 -0.48808098
v 0.50000000 -0.34437037 -0.48808098
v 0.50000000 -0.34437037 0.26423901
v -0.35590297 -0.36907368 0.10699094
v -0.35590297 -0.36907368 -0.29046144
v 0.35590297 -0.36907368 -0.29046144
v 0.35590297 -0.36907368 0.10699094
v -0.50000000 -0.34437037 0.26423901
v -0.50000000 -0.34437037 -0.48808098
v -0.50000000 -0.37748444 -0.48808098
v -0.50000000 -0.37748444 0.26423901
v -0.50000000 -0.37748444 -0.48808098
v 0.50000000 -0.37748444 -0.48808098
v 0.43305212 -0.37748444 -0.33082505
v -0.43305212 -0.37748444 -0.33082505
v 0.50000000 -0.37748444 0.26423901
v 0.43305212 -0.37748444 0.14735455
v -0.50000000 -0.37748444 0.26423901
v -0.43305212 -0.37748444 0.14735455
v -0.43305212 -0.37748444 0.14735455
v -0.43305212 -0.37748444 -0.33082505
v -0.42928036 -0.36907368 -0.32040353
v -0.42928036 -0.36907368 0.14029773
v -0.43305212 -0.37748444 -0.33082505
v 0.43305212 -0.37748444 -0.33082505
v 0.42928036 -0.36907368 -0.32040353
v -0.42928036 -0.36907368 -0.32040353
v 0.43305212 -0.37748444 -0.33082505
v 0.43305212 -0.37748444 0.14735455
v 0.42928036 -0.36907368 0.14029773
v 0.42928036 -0.36907368 -0.32040353
v 0.43305212 -0.37748444 0.14735455
v -0.43305212 -0.37748444 0.14735455
v -0.42928036 -0.36907368 0.14029773
v 0.42928036 -0.36907368 0.14029773
v -0.42928036 -0.36907368 0.14029773
v -0.42928036 -0.36907368 -0.32040353
v 0.42928036 -0.36907368 -0.32040353
v 0.42928036 -0.36907368 0.14029773
v 0.50000000 -0.34437037 0.27748346
v 0.50000000 -0.37748444 0.27748346
v -0.50000000 -0.37748444 0.27748346
v -0.50000000 -0.34437037 0.27748346
v 0.50000000 -0.34437037 0.26423901
v -0.50000000 -0.34437037 0.26423901
v -0.50000000 -0.37748444 0.26423901
v 0.50000000 -0.37748444 0.26423901
v -0.42053037 -0.42649184 0.06158914
v -0.42053037 -0.37748444 0.06158914
v -0.38079506 -0.37748444 0.06158914
v -0.38079506 -0.42649184 0.06158914
v -0.42053037 -0.37748444 0.14105975
v -0.42053037 -0.42649184 0.14105975
v -0.38079506 -0.42649184 0.14105975
v -0.38079506 -0.37748444 0.14105975
v -0.41059556 -0.44369586 0.14105975
v -0.40580514 -0.44568105 0.14105975
v -0.39552029 -0.44568105 0.14105975
v -0.39072987 -0.44369586 0.14105975
v -0.41471048 -0.44053764 0.14105975
v -0.38661495 -0.44053764 0.14105975
v -0.41786870 -0.43642272 0.14105975
v -0.38345673 -0.43642272 0.14105975
v -0.41985389 -0.43163230 0.14105975
v -0.38147154 -0.43163230 0.14105975
v -0.40066075 -0.44635753 0.14105975
v -0.41786870 -0.43642272 0.06158914
v -0.41786870 -0.43642272 0.14105975
v -0.41985389 -0.43163230 0.14105975
v -0.41985389 -0.43163230 0.06158914
v -0.40580514 -0.44568105 0.06158914
v -0.40580514 -0.44568105 0.14105975
v -0.41059556 -0.44369586 0.14105975
v -0.41059556 -0.44369586 0.06158914
v -0.41471048 -0.44053764 0.14105975
v -0.41471048 -0.44053764 0.06158914
v -0.40066075 -0.44635753 0.06158914
v -0.40066075 -0.44635753 0.14105975
v -0.39072987 -0.44369586 0.06158914
v -0.39072987 -0.44369586 0.14105975
v -0.39552029 -0.44568105 0.14105975
v -0.39552029 -0.44568105 0.06158914
v -0.38661495 -0.44053764 0.06158914
v -0.38661495 -0.44053764 0.14105975
v -0.38345673 -0.43642272 0.06158914
v -0.38345673 -0.43642272 0.14105975
v -0.38147154 -0.43163230 0.06158914
v -0.38147154 -0.43163230 0.14105975
v -0.42053037 -0.42649184 0.06158914
v -0.42053037 -0.42649184 0.14105975
v -0.42053037 -0.37748444 0.14105975
v -0.42053037 -0.37748444 0.06158914
v -0.38079506 -0.37748444 0.14105975
v -0.38079506 -0.42649184 0.14105975
v -0.38079506 -0.42649184 0.06158914
v -0.38079506 -0.37748444 0.06158914
v -0.38147154 -0.43163230 -0.24304691
v -0.38079506 -0.42649184 -0.24304691
v -0.40580514 -0.44568105 -0.24304691
v -0.41059556 -0.44369586 -0.24304691
v -0.41471048 -0.44053764 -0.24304691
v -0.41471048 -0.44053764 -0.24304691
v -0.40066075 -0.44635753 -0.24304691
v -0.39072987 -0.44369586 -0.24304691
v -0.39552029 -0.44568105 -0.24304691
v -0.38661495 -0.44053764 -0.24304691
v -0.38345673 -0.43642272 -0.24304691
v -0.38079506 -0.42649184 0.06158914
v -0.38079506 -0.42649184 -0.24304691
v -0.42053037 -0.42649184 -0.24304691
v -0.42053037 -0.42649184 0.06158914
v -0.42053037 -0.37748444 -0.24304691
v -0.42053037 -0.42649184 -0.24304691
v -0.38079506 -0.42649184 -0.24304691
v -0.38079506 -0.37748444 -0.24304691
v -0.41786870 -0.43642272 -0.24304691
v -0.41786870 -0.43642272 -0.24304691
v -0.42053037 -0.42649184 -0.24304691
v -0.41985389 -0.43163230 -0.24304691
v -0.42053037 -0.37748444 -0.32251654
v -0.38079506 -0.37748444 -0.32251654
v -0.38079506 -0.42649184 -0.32251654
v -0.42053037 -0.42649184 -0.32251654
v -0.41059556 -0.44369586 -0.32251654
v -0.39072987 -0.44369586 -0.32251654
v -0.39552029 -0.44568105 -0.32251654
v -0.39552029 -0.44568105 -0.32251654
v -0.40580514 -0.44568105 -0.32251654
v -0.40580514 -0.44568105 -0.32251654
v -0.41471048 -0.44053764 -0.32251654
v -0.38661495 -0.44053764 -0.32251654
v -0.41786870 -0.43642272 -0.32251654
v -0.38345673 -0.43642272 -0.32251654
v -0.41985389 -0.43163230 -0.32251654
v -0.38147154 -0.43163230 -0.32251654
v -0.40066075 -0.44635753 -0.32251654
v -0.42053037 -0.42649184 -0.32251654
v -0.42053037 -0.37748444 -0.24304691
v -0.42053037 -0.37748444 -0.32251654
v -0.38079506 -0.37748444 -0.32251654
v -0.38079506 -0.37748444 -0.24304691
v -0.38079506 -0.42649184 -0.32251654
v -0.41059556 -0.44369586 -0.32251654
v -0.40580514 -0.44568105 -0.32251654
v -0.41471048 -0.44053764 -0.32251654
v -0.40066075 -0.44635753 -0.32251654
v -0.39552029 -0.44568105 -0.32251654
v -0.39072987 -0.44369586 -0.32251654
v -0.38661495 -0.44053764 -0.32251654
v -0.38147154 -0.43163230 -0.32251654
v -0.38345673 -0.43642272 -0.32251654
v -0.41985389 -0.43163230 -0.32251654
v -0.41786870 -0.43642272 -0.32251654
v -0.41783527 -0.43646697 -0.24304691
vn 0.00000000 0.00000000 -1.00000000
vn 0.00000000 0.00000000 -1.00000000
vn 0.00000000 0.00000000 -1.00000000
vn 0.00000000 0.00000000 -1.00000000
vn 0.00000000 0.00000000 1.00000000
vn 0.00000000 0.00000000 1.00000000
vn 0.00000000 0.00000000 1.00000000
vn 0.00000000 0.00000000 1.00000000
vn 0.00000000 1.00000000 0.00000000
vn 0.00000000 1.00000000 0.00000000
vn 0.00000000 1.00000000 0.00000000
vn 0.00000000 1.00000000 0.00000000
vn 1.00000000 0.00000000 0.00000000
vn 1.00000000 0.00000000 0.00000000
vn 1.00000000 0.00000000 0.00000000
vn 1.00000000 0.00000000 0.00000000
vn 0.00000000 -1.00000000 0.00000000
vn 0.00000000 -1.00000000 0.00000000
vn 0.00000000 -1.00000000 0.00000000
vn 0.00000000 -1.00000000 0.00000000
vn -1.00000000 0.00000000 0.00000000
vn -1.00000000 0.00000000 0.00000000
vn -1.00000000 0.00000000 0.00000000
vn -1.00000000 0.00000000 0.00000000
vn 0.00000000 1.00000000 0.00000000
vn 0.00000000 1.00000000 0.00000000
vn 0.00000000 1.00000000 0.00000000
vn 0.00000000 1.00000000 0.00000000
vn 1.00000000 0.00000000 0.00000000
vn 1.00000000 0.00000000 0.00000000
vn 1.00000000 0.00000000 0.00000000
vn 1.00000000 0.00000000 0.00000000
vn 0.00000000 -1.00000000 0.00000000
vn 0.00000000 -1.00000000 0.00000000
vn 0.00000000 -1.00000000 0.00000000
vn 0.00000000 -1.00000000 0.00000000
vn -1.00000000 0.00000000 0.00000000
vn -1.00000000 0.00000000 0.00000000
vn -1.00000000 0.00000000 0.00000000
vn -1.00000000 0.00000000 0.00000000
vn 0.00000000 -1.00000000 0.00000000
vn 0.00000000 -1.00000000 0.00000000
vn 0.00000000 -1.00000000 0.00000000
vn 0.00000000 -1.00000000 0.00000000
vn 0.00000000 -1.00000000 0.00000000
vn 0.00000000 -1.00000000 0.00000000
vn 0.00000000 -1.00000000 0.00000000
vn 0.00000000 -1.00000000 0.00000000
vn 0.91245397 -0.40917936 0.00000000
vn 0.91245397 -0.40917936 0.00000000
vn 0.91245397 -0.40917936 0.00000000
vn 0.91245397 -0.40917936 0.00000000
vn 0.00000000 -0.77820808 0.62800652
vn 0.00000000 -0.77820808 0.62800652
vn 0.00000000 -0.77820808 0.62800652
vn 0.00000000 -0.77820808 0.62800652
vn -0.91245397 -0.40917936 0.00000000
vn -0.91245397 -0.40917936 0.00000000
vn -0.91245397 -0.40917936 0.00000000
vn -0.91245397 -0.40917936 0.00000000
vn 0.00000000 -0.64276752 -0.76606130
vn 0.00000000 -0.64276752 -0.76606130
vn 0.00000000 -0.64276752 -0.76606130
vn 0.00000000 -0.64276752 -0.76606130
vn 0.00000000 -1.00000000 0.00000000
vn 0.00000000 -1.00000000 0.00000000
vn 0.00000000 -1.00000000 0.00000000
vn 0.00000000 -1.00000000 0.00000000
vn 0.00000000 0.00000000 -1.00000000
vn 0.00000000 0.00000000 -1.00000000
vn 0.00000000 0.00000000 -1.00000000
vn 0.00000000 0.00000000 -1.00000000
vn 0.00000000 0.00000000 1.00000000
vn 0.00000000 0.00000000 1.00000000
vn 0.00000000 0.00000000 1.00000000
vn 0.00000000 0.00000000 1.00000000
vn 0.00000000 0.00000000 -1.00000000
vn 0.00000000 0.00000000 -1.00000000
vn 0.00000000 0.00000000 -1.00000000
vn 0.00000000 0.00000000 -1.00000000
vn 0.00000000 0.00000000 1.00000000
vn 0.00000000 0.00000000 1.00000000
vn 0.00000000 0.00000000 1.00000000
vn 0.00000000 0.00000000 1.00000000
vn 0.00000000 0.00000000 1.00000000
vn 0.00000000 0.00000000 1.00000000
vn 0.00000000 0.00000000 1.00000000
vn 0.00000000 0.00000000 1.00000000
vn 0.00000000 0.00000000 1.00000000
vn 0.00000000 0.00000000 1.00000000
vn 0.00000000 0.00000000 1.00000000
vn 0.00000000 0.00000000 1.00000000
vn 0.00000000 0.00000000 1.00000000
vn 0.00000000 0.00000000 1.00000000
vn 0.00000000 0.00000000 1.00000000
vn -0.86595074 -0.50012930 0.00000000
vn -0.86595074 -0.50012930 0.00000000
vn -0.96590385 -0.25890103 0.00000000
vn -0.96590385 -0.25890103 0.00000000
vn -0.25880773 -0.96592886 0.00000000
vn -0.25880773 -0.96592886 0.00000000
vn -0.50012930 -0.86595074 0.00000000
vn -0.50020429 -0.86590743 0.00000000
vn -0.70710678 -0.70710678 0.00000000
vn -0.70710678 -0.70710678 0.00000000
vn 0.00000000 -1.00000000 0.00000000
vn 0.00010000 -1.00000000 0.00000000
vn 0.50012930 -0.86595074 0.00000000
vn 0.50020429 -0.86590743 0.00000000
vn 0.25880773 -0.96592886 0.00000000
vn 0.25880773 -0.96592886 0.00000000
vn 0.70710678 -0.70710678 0.00000000
vn 0.70710678 -0.70710678 0.00000000
vn 0.86595074 -0.50012930 0.00000000
vn 0.86595074 -0.50012930 0.00000000
vn 0.96590385 -0.25890103 0.00000000
vn 0.96590385 -0.25890103 0.00000000
vn -0.99619958 -0.08709996 0.00000000
vn -0.99785930 -0.06539733 0.00000000
vn -1.00000000 0.00000000 0.00000000
vn -1.00000000 0.00000000 0.00000000
vn 1.00000000 0.00000000 0.00000000
vn 0.99785930 -0.06539733 0.00000000
vn 0.99619089 -0.08719920 0.00000000
vn 1.00000000 0.00000000 0.00000000
vn 0.96590385 -0.25890103 0.00000000
vn 0.99619089 -0.08719920 0.00000000
vn -0.25880773 -0.96592886 0.00000000
vn -0.49989270 -0.86608735 0.00000000
vn -0.70710678 -0.70710678 0.00000000
vn -0.70689643 -0.70619644 0.03979980
vn 0.00010000 -1.00000000 0.00000000
vn 0.50012930 -0.86595074 0.00000000
vn 0.25880773 -0.96592886 0.00000000
vn 0.70710678 -0.70710678 0.00000000
vn 0.86595074 -0.50012930 0.00000000
vn 0.00000000 1.00000000 0.00000000
vn 0.00000000 1.00000000 0.00000000
vn 0.00000000 1.00000000 0.00000000
vn 0.00000000 1.00000000 0.00000000
vn 0.00000000 0.00000000 1.00000000
vn 0.00000000 0.00000000 1.00000000
vn 0.00000000 0.00000000 1.00000000
vn 0.00000000 0.00000000 1.00000000
vn -0.86595074 -0.50012930 0.00000000
vn -0.86562108 -0.50051219 -0.01370033
vn -0.99619958 -0.08709996 0.00000000
vn -0.96590385 -0.25890103 0.00000000
vn 0.00000000 0.00000000 -1.00000000
vn 0.00000000 0.00000000 -1.00000000
vn 0.00000000 0.00000000 -1.00000000
vn 0.00000000 0.00000000 -1.00000000
vn 0.00000000 0.00000000 -1.00000000
vn 0.00000000 0.00000000 -1.00000000
vn 0.00000000 0.00010000 -1.00000000
vn 0.00000000 0.00000000 -1.00000000
vn 0.00000000 0.00000000 -1.00000000
vn 0.00000000 0.00010000 -1.00000000
vn 0.00000000 0.00000000 -1.00000000
vn 0.00000000 0.00000000 -1.00000000
vn 0.00000000 0.00000000 -1.00000000
vn 0.00000000 0.00000000 -1.00000000
vn 0.00000000 0.00000000 -1.00000000
vn 0.00000000 0.00000000 -1.00000000
vn 0.00000000 0.00010000 -1.00000000
vn -0.99785930 -0.06539733 0.00000000
vn -1.00000000 0.00000000 0.00000000
vn -1.00000000 0.00000000 0.00000000
vn 1.00000000 0.00000000 0.00000000
vn 1.00000000 0.00000000 0.00000000
vn 0.99785930 -0.06539733 0.00000000
vn -0.50020429 -0.86590743 0.00000000
vn -0.25880773 -0.96592886 0.00000000
vn -0.70710678 -0.70710678 0.00000000
vn 0.00000000 -1.00000000 0.00000000
vn 0.25880773 -0.96592886 0.00000000
vn 0.50012930 -0.86595074 0.00000000
vn 0.70710678 -0.70710678 0.00000000
vn 0.96590385 -0.25890103 0.00000000
vn 0.86595074 -0.50012930 0.00000000
vn -0.96590385 -0.25890103 0.00000000
vn -0.86595074 -0.50012930 0.00000000
vn -0.79320876 -0.60880672 0.01320015
vt 0.94696900 0.62953900
vt 0.94696900 0.01443400
vt 0.91646300 0.01443400
vt 0.91646300 0.62953900
vt 0.98816500 0.01443400
vt 0.95765800 0.01443400
vt 0.95765800 0.62953900
vt 0.98816500 0.62953900
vt 0.40063200 0.22273300
vt 0.40063200 0.17502900
vt 0.19023100 0.17502900
vt 0.19023100 0.22273300
vt 0.32463800 0.13153800
vt 0.19023100 0.13153800
vt 0.19023100 0.16094000
vt 0.32463800 0.16094000
vt 0.59619300 0.99000000
vt 0.76648700 0.99000000
vt 0.76648700 0.23651500
vt 0.59619300 0.23651500
vt 0.46720400 0.13129900
vt 0.33279600 0.13129900
vt 0.33279600 0.16070100
vt 0.46720400 0.16070100
vt 0.01000000 0.22273300
vt 0.17529000 0.22273300
vt 0.17529000 0.00581100
vt 0.01000000 0.00581100
vt 0.86236200 0.62953900
vt 0.86236200 0.16382200
vt 0.83204900 0.16382200
vt 0.83204900 0.62953900
vt 0.46413500 0.34509100
vt 0.16081400 0.34509100
vt 0.16081400 0.88142400
vt 0.46413500 0.88142400
vt 0.82116700 0.62953900
vt 0.82116700 0.16382300
vt 0.79085400 0.16382300
vt 0.79085400 0.62953900
vt 0.01000000 0.23651500
vt 0.01000000 0.99000000
vt 0.13001100 0.93955600
vt 0.13001100 0.28696000
vt 0.58414000 0.99000000
vt 0.49493900 0.93955600
vt 0.58414000 0.23651500
vt 0.49493900 0.28696000
vt 0.49493900 0.28696000
vt 0.13001100 0.28696000
vt 0.13796400 0.28980200
vt 0.48955300 0.28980200
vt 0.13001100 0.28696000
vt 0.13001100 0.93955600
vt 0.13796400 0.93671300
vt 0.13796400 0.28980200
vt 0.13001100 0.93955600
vt 0.49493900 0.93955600
vt 0.48955300 0.93671300
vt 0.13796400 0.93671300
vt 0.49493900 0.93955600
vt 0.49493900 0.28696000
vt 0.48955300 0.28980200
vt 0.48955300 0.93671300
vt 0.48955300 0.28980200
vt 0.13796400 0.28980200
vt 0.13796400 0.93671300
vt 0.48955300 0.93671300
vt 0.80533500 0.04930700
vt 0.80533500 0.01880000
vt 0.19023100 0.01880000
vt 0.19023100 0.04930700
vt 0.90577400 0.62953900
vt 0.90577400 0.01443400
vt 0.87526700 0.01443400
vt 0.87526700 0.62953900
vt 0.94105400 0.72367600
vt 0.94105400 0.68676900
vt 0.91115300 0.68666800
vt 0.91115300 0.72357400
vt 0.19023100 0.06157400
vt 0.19023100 0.10296400
vt 0.21689200 0.10296400
vt 0.21689200 0.06157400
vt 0.19689600 0.11749600
vt 0.20011100 0.11917200
vt 0.20701200 0.11917200
vt 0.21022700 0.11749600
vt 0.19413500 0.11482900
vt 0.21298700 0.11482900
vt 0.19201600 0.11135400
vt 0.21510600 0.11135400
vt 0.19068500 0.10730700
vt 0.21643800 0.10730700
vt 0.20356100 0.11974400
vt 0.82198000 0.70083700
vt 0.82197900 0.64099600
vt 0.81807400 0.64099600
vt 0.81807500 0.70083700
vt 0.83369400 0.70083800
vt 0.83369600 0.64099600
vt 0.82979000 0.64099600
vt 0.82978900 0.70083800
vt 0.82588500 0.64099600
vt 0.82588400 0.70083700
vt 0.83759800 0.70083800
vt 0.83760100 0.64099600
vt 0.84540700 0.70083800
vt 0.84541200 0.64099600
vt 0.84150600 0.64099600
vt 0.84150300 0.70083800
vt 0.84931200 0.70083800
vt 0.84931700 0.64099600
vt 0.85321600 0.70083900
vt 0.85322300 0.64099600
vt 0.85712100 0.70083900
vt 0.85712900 0.64099600
vt 0.81417100 0.70083700
vt 0.81416900 0.64099700
vt 0.77726700 0.64099800
vt 0.77726900 0.70083800
vt 0.89793700 0.64100200
vt 0.86103400 0.64099600
vt 0.86102600 0.70083900
vt 0.89792900 0.70084400
vt 0.85710700 0.93016900
vt 0.86101100 0.93017000
vt 0.83368300 0.93016700
vt 0.82977900 0.93016600
vt 0.82587500 0.93016600
vt 0.82587500 0.93016600
vt 0.83758700 0.93016700
vt 0.84539500 0.93016800
vt 0.84149100 0.93016800
vt 0.84929900 0.93016900
vt 0.85320300 0.93016900
vt 0.91115300 0.72357400
vt 0.91115300 0.95299200
vt 0.94105400 0.95309400
vt 0.94105400 0.72367600
vt 0.94105400 0.99000000
vt 0.94105400 0.95309400
vt 0.91115300 0.95299200
vt 0.91115200 0.98989900
vt 0.82197100 0.93016600
vt 0.82197100 0.93016600
vt 0.81416300 0.93016500
vt 0.81806700 0.93016500
vt 0.28959600 0.11974400
vt 0.28959600 0.09308300
vt 0.24820600 0.09308300
vt 0.24820600 0.11974400
vt 0.23367400 0.11307900
vt 0.23367400 0.09974800
vt 0.23199800 0.10296300
vt 0.23199800 0.10296300
vt 0.23199800 0.10986400
vt 0.23199800 0.10986400
vt 0.23634100 0.11584000
vt 0.23634100 0.09698700
vt 0.23981600 0.11795800
vt 0.23981600 0.09486900
vt 0.24386300 0.11929000
vt 0.24386300 0.09353700
vt 0.23142600 0.10641300
vt 0.81414500 0.98996700
vt 0.77728800 0.93015200
vt 0.77726700 0.98994900
vt 0.89787500 0.99000000
vt 0.89789800 0.93018400
vt 0.86098900 0.98998600
vt 0.82975900 0.98997400
vt 0.83366300 0.98997500
vt 0.82585500 0.98997200
vt 0.83756600 0.98997700
vt 0.84147000 0.98997900
vt 0.84537400 0.98998000
vt 0.84927700 0.98998100
vt 0.85708500 0.98998500
vt 0.85318100 0.98998300
vt 0.81804800 0.98996800
vt 0.82195200 0.98997000
vt 0.82201000 0.93016600
f 4/4/4 1/1/1 2/2/2
f 2/2/2 3/3/3 4/4/4
f 8/8/8 5/5/5 6/6/6
f 6/6/6 7/7/7 8/8/8
f 12/12/12 9/9/9 10/10/10
f 10/10/10 11/11/11 12/12/12
f 16/16/16 13/13/13 14/14/14
f 14/14/14 15/15/15 16/16/16
f 20/20/20 17/17/17 18/18/18
f 18/18/18 19/19/19 20/20/20
f 24/24/24 21/21/21 22/22/22
f 22/22/22 23/23/23 24/24/24
f 28/28/28 25/25/25 26/26/26
f 26/26/26 27/27/27 28/28/28
f 32/32/32 29/29/29 30/30/30
f 30/30/30 31/31/31 32/32/32
f 36/36/36 33/33/33 34/34/34
f 34/34/34 35/35/35 36/36/36
f 40/40/40 37/37/37 38/38/38
f 38/38/38 39/39/39 40/40/40
f 44/44/44 41/41/41 42/42/42
f 42/42/42 43/43/43 44/44/44
f 43/43/43 42/42/42 45/45/45
f 45/45/45 46/46/46 43/43/43
f 46/46/46 45/45/45 47/47/47
f 47/47/47 48/48/48 46/46/46
f 48/48/48 47/47/47 41/41/41
f 41/41/41 44/44/44 48/48/48
f 52/52/52 49/49/49 50/50/50
f 50/50/50 51/51/51 52/52/52
f 56/56/56 53/53/53 54/54/54
f 54/54/54 55/55/55 56/56/56
f 60/60/60 57/57/57 58/58/58
f 58/58/58 59/59/59 60/60/60
f 64/64/64 61/61/61 62/62/62
f 62/62/62 63/63/63 64/64/64
f 33/33/33 65/65/65 66/66/66
f 66/66/66 34/34/34 33/33/33
f 34/34/34 66/66/66 67/67/67
f 67/67/67 35/35/35 34/34/34
f 35/35/35 67/67/67 68/68/68
f 68/68/68 36/36/36 35/35/35
f 36/36/36 68/68/68 65/65/65
f 65/65/65 33/33/33 36/36/36
f 72/72/72 69/69/69 70/70/70
f 70/70/70 71/71/71 72/72/72
f 76/76/76 73/73/73 74/74/74
f 74/74/74 75/75/75 76/76/76
f 80/80/80 77/77/77 78/78/78
f 78/78/78 79/79/79 80/80/80
f 84/84/84 81/81/81 82/82/82
f 82/82/82 83/83/83 84/84/84
f 88/88/88 85/85/85 86/86/86
f 86/86/86 87/87/87 88/88/88
f 90/90/90 89/89/89 85/85/85
f 85/85/85 88/88/88 90/90/90
f 92/92/92 91/91/91 89/89/89
f 89/89/89 90/90/90 92/92/92
f 94/94/94 93/93/93 91/91/91
f 91/91/91 92/92/92 94/94/94
f 83/83/83 82/82/82 93/93/93
f 93/93/93 94/94/94 83/83/83
f 86/86/86 95/95/95 87/87/87
f 140/140/140 137/137/137 138/138/138
f 138/138/138 139/139/139 140/140/140
f 144/144/144 141/141/141 142/142/142
f 142/142/142 143/143/143 144/144/144
f 152/152/152 149/149/149 150/150/150
f 150/150/150 151/151/151 152/152/152
f 157/157/157 153/153/153 154/154/154
f 154/154/154 156/156/156 157/157/157
f 153/153/153 159/159/159 160/160/160
f 160/160/160 154/154/154 153/153/153
f 159/159/159 161/161/161 162/162/162
f 162/162/162 160/160/160 159/159/159
f 161/161/161 163/163/163 164/164/164
f 164/164/164 162/162/162 161/161/161
f 163/163/163 152/152/152 151/151/151
f 151/151/151 164/164/164 163/163/163
f 158/158/158 155/155/155 165/165/165
f 99/99/99 96/96/96 97/97/97
f 97/97/97 98/98/98 99/99/99
f 103/103/103 100/100/100 101/101/101
f 101/101/101 102/102/102 103/103/103
f 105/105/105 103/103/103 102/102/102
f 102/102/102 104/104/104 105/105/105
f 96/96/96 105/105/105 104/104/104
f 104/104/104 97/97/97 96/96/96
f 100/100/100 106/106/106 107/107/107
f 107/107/107 101/101/101 100/100/100
f 111/111/111 108/108/108 109/109/109
f 109/109/109 110/110/110 111/111/111
f 108/108/108 112/112/112 113/113/113
f 113/113/113 109/109/109 108/108/108
f 112/112/112 114/114/114 115/115/115
f 115/115/115 113/113/113 112/112/112
f 114/114/114 116/116/116 117/117/117
f 117/117/117 115/115/115 114/114/114
f 106/106/106 111/111/111 110/110/110
f 110/110/110 107/107/107 106/106/106
f 121/121/121 118/118/118 119/119/119
f 119/119/119 120/120/120 121/121/121
f 118/118/118 99/99/99 98/98/98
f 98/98/98 119/119/119 118/118/118
f 125/125/125 122/122/122 123/123/123
f 123/123/123 124/124/124 125/125/125
f 117/117/117 116/116/116 124/124/124
f 124/124/124 123/123/123 117/117/117
f 116/116/116 126/126/126 127/127/127
f 127/127/127 124/124/124 116/116/116
f 129/129/129 128/128/128 100/100/100
f 100/100/100 103/103/103 129/129/129
f 130/130/130 129/129/129 103/103/103
f 103/103/103 105/105/105 130/130/130
f 128/128/128 132/132/132 106/106/106
f 106/106/106 100/100/100 128/128/128
f 134/134/134 133/133/133 108/108/108
f 108/108/108 111/111/111 134/134/134
f 133/133/133 135/135/135 112/112/112
f 112/112/112 108/108/108 133/133/133
f 132/132/132 134/134/134 111/111/111
f 111/111/111 106/106/106 132/132/132
f 112/112/112 135/135/135 136/136/136
f 136/136/136 114/114/114 112/112/112
f 116/116/116 114/114/114 136/136/136
f 136/136/136 126/126/126 116/116/116
f 130/130/130 105/105/105 96/96/96
f 96/96/96 145/145/145 130/130/130
f 99/99/99 118/118/118 147/147/147
f 147/147/147 148/148/148 99/99/99
f 148/148/148 145/145/145 96/96/96
f 96/96/96 99/99/99 148/148/148
f 168/168/168 166/166/166 147/147/147
f 147/147/147 167/167/167 168/168/168
f 171/171/171 169/169/169 170/170/170
f 170/170/170 127/127/127 171/171/171
f 128/128/128 129/129/129 172/172/172
f 172/172/172 173/173/173 128/128/128
f 129/129/129 130/130/130 174/174/174
f 174/174/174 172/172/172 129/129/129
f 132/132/132 128/128/128 173/173/173
f 173/173/173 175/175/175 132/132/132
f 133/133/133 134/134/134 176/176/176
f 176/176/176 177/177/177 133/133/133
f 135/135/135 133/133/133 177/177/177
f 177/177/177 178/178/178 135/135/135
f 134/134/134 132/132/132 175/175/175
f 175/175/175 176/176/176 134/134/134
f 179/179/179 171/171/171 127/127/127
f 127/127/127 126/126/126 179/179/179
f 180/180/180 136/136/136 135/135/135
f 135/135/135 178/178/178 180/180/180
f 179/179/179 126/126/126 136/136/136
f 136/136/136 180/180/180 179/179/179
f 166/166/166 181/181/181 148/148/148
f 148/148/148 147/147/147 166/166/166
f 145/145/145 182/182/182 174/174/174
f 145/145/145 174/174/174 130/130/130
f 131/131/131 183/183/183 146/146/146
f 145/145/145 148/148/148 181/181/181
f 181/181/181 182/182/182 145/145/145