<svg width="51" height="51" fill="none" xmlns="http://www.w3.org/2000/svg"><path fill="#fff" stroke="#000" d="M50.406 49.905H1.407v-49h48.999z"/><path stroke="#000" d="M9.308 32.072h-8.4m30-31.667v7.778"/><mask id="a" width="26" height="29" x="8.24" y="15.071" fill="#000" maskUnits="userSpaceOnUse"><path fill="#fff" d="M8.24 15.071h26v29h-26z"/><path d="M9.843 17.08c12.608.319 22.73 10.64 22.73 23.325l-.008.602c-.01.4-.03.797-.06 1.192h-3.012c.052-.59.08-1.19.08-1.794 0-11.054-8.82-20.048-19.807-20.327l-.526-.007v-3l.603.008Z"/></mask><path fill="#2faa96" d="M9.843 33.73c12.609-.319 22.731-10.64 22.731-23.325l-.007-.602c-.01-.4-.031-.797-.061-1.192h-3.012c.052.59.08 1.19.08 1.794 0 11.054-8.82 20.048-19.807 20.327l-.526.007v3z"/><path fill="#000" d="m9.843 17.08.025-1h-.012Zm22.73 23.325 1 .013v-.013zm-.007.602 1 .025v-.012Zm-.061 1.192v1h.927l.07-.924zm-3.012 0-.996-.087-.095 1.087h1.091zm.08-1.794h1zM9.766 20.078l.025-1h-.012Zm-.526-.007h-1v.987l.987.013zm0-3 .013-1-1.013-.013v1.013zm.603.008-.026 1c12.068.306 21.756 10.185 21.756 22.326h2c0-13.229-10.556-23.992-23.705-24.326Zm22.73 23.326-1-.013-.007.602 1 .013 1 .013.007-.602zm-.007.602-1-.025c-.01.382-.03.763-.058 1.141l.997.076.997.076c.031-.411.053-.826.063-1.243zm-.061 1.192v-1h-3.012v2h3.012zm-3.012 0 .996.087c.054-.618.084-1.245.084-1.88h-2c0 .572-.027 1.142-.076 1.706zm.08-1.794h1c0-11.598-9.254-21.034-20.782-21.327l-.025 1-.026 1c10.446.265 18.833 8.817 18.833 19.327zM9.766 20.078l.013-1-.526-.007-.013 1-.013 1 .526.007zm-.526-.007h1v-3h-2v3zm0-3-.013 1 .603.008.013-1 .013-1-.603-.008z" mask="url(#a)" transform="matrix(1 0 0 -1 .001 50.81)"/></svg>