<svg width="51" height="50" viewBox="0 0 51 50" fill="none" xmlns="http://www.w3.org/2000/svg">
<rect x="1.00952" y="0.505859" width="49" height="49" fill="white" stroke="black"/>
<path d="M9.44293 20.543V11.8157H12.4941C13.102 11.8157 13.6034 11.9208 13.9983 12.131C14.3932 12.3384 14.6872 12.6183 14.8804 12.9705C15.0736 13.32 15.1702 13.7077 15.1702 14.1339C15.1702 14.5089 15.1034 14.8185 14.9699 15.0629C14.8392 15.3072 14.6659 15.5004 14.45 15.6424C14.237 15.7844 14.0054 15.8896 13.7554 15.9577V16.043C14.0225 16.06 14.2909 16.1538 14.5608 16.3242C14.8307 16.4947 15.0566 16.739 15.2384 17.0572C15.4202 17.3754 15.5111 17.7646 15.5111 18.2248C15.5111 18.6623 15.4117 19.0558 15.2128 19.4052C15.0139 19.7546 14.7 20.0316 14.2711 20.2362C13.8421 20.4407 13.2838 20.543 12.5963 20.543H9.44293ZM10.4997 19.6055H12.5963C13.2867 19.6055 13.7767 19.4719 14.0665 19.2049C14.3591 18.935 14.5054 18.6083 14.5054 18.2248C14.5054 17.9293 14.4301 17.6566 14.2796 17.4066C14.129 17.1538 13.9145 16.9521 13.6361 16.8015C13.3577 16.6481 13.0282 16.5714 12.6475 16.5714H10.4997V19.6055ZM10.4997 15.6509H12.46C12.7782 15.6509 13.0651 15.5884 13.3208 15.4634C13.5793 15.3384 13.7838 15.1623 13.9344 14.935C14.0878 14.7077 14.1645 14.4407 14.1645 14.1339C14.1645 13.7504 14.031 13.4251 13.7639 13.158C13.4969 12.8881 13.0736 12.7532 12.4941 12.7532H10.4997V15.6509ZM18.1169 11.8157V20.543H17.1113V11.8157H18.1169ZM21.885 20.6964C21.4703 20.6964 21.0938 20.6183 20.7558 20.462C20.4177 20.3029 20.1492 20.0742 19.9504 19.7759C19.7515 19.4748 19.6521 19.1112 19.6521 18.685C19.6521 18.31 19.726 18.006 19.8737 17.7731C20.0214 17.5373 20.2188 17.3526 20.466 17.2191C20.7132 17.0856 20.9859 16.9862 21.2842 16.9208C21.5853 16.8526 21.8879 16.7987 22.1919 16.7589C22.5896 16.7077 22.912 16.6694 23.1592 16.6438C23.4092 16.6154 23.591 16.5685 23.7046 16.5032C23.8211 16.4379 23.8794 16.3242 23.8794 16.1623V16.1282C23.8794 15.7077 23.7643 15.381 23.5342 15.1481C23.3069 14.9151 22.9617 14.7987 22.4987 14.7987C22.0186 14.7987 21.6421 14.9038 21.3694 15.114C21.0967 15.3242 20.9049 15.5487 20.7941 15.7873L19.8396 15.4464C20.01 15.0487 20.2373 14.739 20.5214 14.5174C20.8083 14.293 21.1208 14.1367 21.4589 14.0487C21.7998 13.9577 22.135 13.9123 22.4646 13.9123C22.6748 13.9123 22.9163 13.9379 23.189 13.989C23.4646 14.0373 23.7302 14.1381 23.9859 14.2915C24.2444 14.445 24.4589 14.6765 24.6294 14.9862C24.7998 15.2958 24.885 15.7106 24.885 16.2305V20.543H23.8794V19.6566H23.8282C23.76 19.7987 23.6464 19.9506 23.4873 20.1126C23.3282 20.2745 23.1166 20.4123 22.8524 20.5259C22.5882 20.6396 22.2657 20.6964 21.885 20.6964ZM22.0385 19.793C22.4362 19.793 22.7714 19.7148 23.0441 19.5586C23.3197 19.4023 23.5271 19.2006 23.6663 18.9535C23.8083 18.7063 23.8794 18.4464 23.8794 18.1737V17.2532C23.8367 17.3043 23.743 17.3512 23.5981 17.3938C23.4561 17.4336 23.2913 17.4691 23.1038 17.5004C22.9191 17.5288 22.7387 17.5543 22.5626 17.5771C22.3893 17.5969 22.2487 17.614 22.1407 17.6282C21.8794 17.6623 21.635 17.7177 21.4078 17.7944C21.1833 17.8683 21.0015 17.9805 20.8623 18.131C20.726 18.2788 20.6578 18.4805 20.6578 18.7362C20.6578 19.0856 20.787 19.3498 21.0456 19.5288C21.3069 19.7049 21.6379 19.793 22.0385 19.793ZM29.3797 20.6793C28.7661 20.6793 28.2377 20.5344 27.7945 20.2447C27.3513 19.9549 27.0104 19.5558 26.7718 19.0472C26.5331 18.5387 26.4138 17.9577 26.4138 17.3043C26.4138 16.6396 26.536 16.0529 26.7803 15.5444C27.0274 15.033 27.3712 14.6339 27.8115 14.3469C28.2547 14.0572 28.7718 13.9123 29.3627 13.9123C29.8229 13.9123 30.2377 13.9975 30.607 14.168C30.9763 14.3384 31.2789 14.5771 31.5147 14.8839C31.7505 15.1907 31.8968 15.5487 31.9536 15.9577H30.9479C30.8712 15.6594 30.7007 15.3952 30.4365 15.1651C30.1752 14.9322 29.8229 14.8157 29.3797 14.8157C28.9877 14.8157 28.6439 14.918 28.3485 15.1225C28.0559 15.3242 27.8272 15.6097 27.6624 15.979C27.5005 16.3455 27.4195 16.7759 27.4195 17.2702C27.4195 17.7759 27.499 18.2163 27.6581 18.5913C27.8201 18.9663 28.0473 19.2575 28.3399 19.4648C28.6354 19.6722 28.982 19.7759 29.3797 19.7759C29.6411 19.7759 29.8783 19.7305 30.0914 19.6396C30.3044 19.5487 30.4848 19.418 30.6326 19.2475C30.7803 19.0771 30.8854 18.8725 30.9479 18.6339H31.9536C31.8968 19.0202 31.7561 19.3683 31.5317 19.6779C31.3101 19.9847 31.0161 20.229 30.6496 20.4109C30.286 20.5898 29.8627 20.6793 29.3797 20.6793ZM34.3613 18.1566L34.3442 16.9123H34.5488L37.4124 13.9975H38.6567L35.6056 17.0827H35.5203L34.3613 18.1566ZM33.4238 20.543V11.8157H34.4294V20.543H33.4238ZM37.5828 20.543L35.026 17.3043L35.7419 16.6055L38.8613 20.543H37.5828ZM9.44293 35.543V26.8157H12.4941C13.102 26.8157 13.6034 26.9208 13.9983 27.131C14.3932 27.3384 14.6872 27.6183 14.8804 27.9705C15.0736 28.32 15.1702 28.7077 15.1702 29.1339C15.1702 29.5089 15.1034 29.8185 14.9699 30.0629C14.8392 30.3072 14.6659 30.5004 14.45 30.6424C14.237 30.7844 14.0054 30.8896 13.7554 30.9577V31.043C14.0225 31.06 14.2909 31.1538 14.5608 31.3242C14.8307 31.4947 15.0566 31.739 15.2384 32.0572C15.4202 32.3754 15.5111 32.7646 15.5111 33.2248C15.5111 33.6623 15.4117 34.0558 15.2128 34.4052C15.0139 34.7546 14.7 35.0316 14.2711 35.2362C13.8421 35.4407 13.2838 35.543 12.5963 35.543H9.44293ZM10.4997 34.6055H12.5963C13.2867 34.6055 13.7767 34.4719 14.0665 34.2049C14.3591 33.935 14.5054 33.6083 14.5054 33.2248C14.5054 32.9293 14.4301 32.6566 14.2796 32.4066C14.129 32.1538 13.9145 31.9521 13.6361 31.8015C13.3577 31.6481 13.0282 31.5714 12.6475 31.5714H10.4997V34.6055ZM10.4997 30.6509H12.46C12.7782 30.6509 13.0651 30.5884 13.3208 30.4634C13.5793 30.3384 13.7838 30.1623 13.9344 29.935C14.0878 29.7077 14.1645 29.4407 14.1645 29.1339C14.1645 28.7504 14.031 28.4251 13.7639 28.158C13.4969 27.8881 13.0736 27.7532 12.4941 27.7532H10.4997V30.6509ZM19.7703 35.6793C19.1794 35.6793 18.661 35.5387 18.2149 35.2575C17.7718 34.9762 17.4252 34.5827 17.1752 34.0771C16.928 33.5714 16.8044 32.9805 16.8044 32.3043C16.8044 31.6225 16.928 31.0273 17.1752 30.5188C17.4252 30.0103 17.7718 29.6154 18.2149 29.3342C18.661 29.0529 19.1794 28.9123 19.7703 28.9123C20.3613 28.9123 20.8783 29.0529 21.3215 29.3342C21.7675 29.6154 22.1141 30.0103 22.3613 30.5188C22.6113 31.0273 22.7363 31.6225 22.7363 32.3043C22.7363 32.9805 22.6113 33.5714 22.3613 34.0771C22.1141 34.5827 21.7675 34.9762 21.3215 35.2575C20.8783 35.5387 20.3613 35.6793 19.7703 35.6793ZM19.7703 34.7759C20.2192 34.7759 20.5885 34.6609 20.8783 34.4308C21.1681 34.2006 21.3826 33.8981 21.5218 33.5231C21.661 33.1481 21.7306 32.7418 21.7306 32.3043C21.7306 31.8668 21.661 31.4592 21.5218 31.0813C21.3826 30.7035 21.1681 30.3981 20.8783 30.1651C20.5885 29.9322 20.2192 29.8157 19.7703 29.8157C19.3215 29.8157 18.9522 29.9322 18.6624 30.1651C18.3726 30.3981 18.1581 30.7035 18.0189 31.0813C17.8797 31.4592 17.8101 31.8668 17.8101 32.3043C17.8101 32.7418 17.8797 33.1481 18.0189 33.5231C18.1581 33.8981 18.3726 34.2006 18.6624 34.4308C18.9522 34.6609 19.3215 34.7759 19.7703 34.7759ZM24.7519 28.9975L26.3201 31.6737L27.8882 28.9975H29.0473L26.9337 32.2702L29.0473 35.543H27.8882L26.3201 33.0032L24.7519 35.543H23.5928L25.6723 32.2702L23.5928 28.9975H24.7519Z" fill="#F3C90C"/>
<path fill-rule="evenodd" clip-rule="evenodd" d="M36.2427 24.9071C36.3313 24.8662 36.4334 24.8662 36.5221 24.9071L40.5221 26.7533C40.6401 26.8078 40.7157 26.9259 40.7157 27.056V27.2023C40.7158 27.2072 40.7158 27.212 40.7157 27.2168V31.2098C40.7157 31.3939 40.5665 31.5431 40.3824 31.5431C40.1983 31.5431 40.049 31.3939 40.049 31.2098V27.7332L36.6175 29.3346V30.6517H35.9508V29.3298L32.3824 27.7252V30.9932L35.1844 32.2385C35.3526 32.3133 35.4284 32.5103 35.3536 32.6785C35.2789 32.8467 35.0819 32.9225 34.9137 32.8477L31.9137 31.5144C31.7933 31.4609 31.7157 31.3415 31.7157 31.2098V27.2098C31.7157 27.0798 31.7913 26.9616 31.9093 26.9071L36.2427 24.9071ZM32.853 27.2059L36.2904 28.7516L39.7563 27.1341L36.3824 25.5769L32.853 27.2059Z" fill="#434756"/>
<path fill-rule="evenodd" clip-rule="evenodd" d="M41.4111 29.0744C41.4859 28.9062 41.6829 28.8304 41.8511 28.9052L44.8511 30.2385C44.9715 30.292 45.049 30.4114 45.049 30.5431V34.5431C45.049 34.6731 44.9735 34.7913 44.8554 34.8458L40.5221 36.8458C40.4334 36.8867 40.3313 36.8867 40.2427 36.8458L36.1445 34.9543C36.0264 34.8998 35.9508 34.7817 35.9508 34.6516V30.6517C35.9508 30.538 36.0087 30.4321 36.1045 30.3709C36.2002 30.3096 36.3206 30.3013 36.4238 30.349L40.3824 32.176L43.9079 30.5489L41.5803 29.5144C41.4121 29.4396 41.3363 29.2426 41.4111 29.0744ZM44.3824 31.0641L40.7157 32.7564V36.0222L44.3824 34.3299V31.0641ZM40.0491 36.0222V32.7564L36.6175 31.1726V34.4384L40.0491 36.0222Z" fill="#434756"/>
</svg>
