<svg xmlns="http://www.w3.org/2000/svg" width="16" viewBox="0 0 22 22">
<path d="m12.03 5.191c-1.124-0.004658-2.04 0.5449-2.463 0.8513l1.184 1.356c0.4391-0.2815 0.8799-0.4206 1.273-0.4189 0.6234 0.00258 1.153 0.06533 1.552 0.2927 0.3992 0.2274 0.7749 0.6197 1.058 1.652l0.1772 0.6472 0.6714 0.00806c0.8614 0.0113 1.479 0.2898 1.912 0.7493 0.4333 0.4595 0.709 1.143 0.709 2.092 0 0.7938-0.2222 1.463-0.5801 1.901s-0.8291 0.7009-1.622 0.7009h-10.53c-0.1296 0-0.5456-0.1863-0.8862-0.5962-0.3314-0.3989-0.5675-0.9488-0.5989-1.348l-1.789-0.0081c0.01378 0.4743 0.158 1.469 1.015 2.5 0.5603 0.6744 1.302 1.241 2.259 1.241h10.53c1.254 0 2.329-0.5293 3.008-1.362 0.679-0.8322 0.9829-1.909 0.9829-3.029 5e-6 -1.312-0.4135-2.485-1.2-3.319-0.6524-0.6918-1.576-1.052-2.581-1.19-0.3932-1.017-0.945-1.793-1.649-2.194-0.8367-0.4767-1.717-0.5234-2.433-0.5264zm-4.906 1.413c-0.1964 0.01201-0.3833 0.08847-0.5317 0.2175-0.3702 0.3251-0.4074 0.8885-0.08325 1.26l1.19 1.362-4.67-0.02148c-0.494-0.00327-0.897 0.3949-0.8997 0.8889-0.00178 0.494 0.3976 0.8958 0.8916 0.897l4.616 0.02148-1.157 1.235c-0.3363 0.3606-0.3171 0.9253 0.04297 1.262 0.3606 0.3363 0.9253 0.3171 1.262-0.04297l2.549-2.72c0.3124-0.3354 0.3206-0.8527 0.0188-1.198l-2.498-2.857c-0.183-0.2093-0.453-0.3214-0.7305-0.3035z" fill="#3c8f49"/>
</svg>
