<?xml version="1.0" encoding="UTF-8"?>
<svg width="66.69" height="66.69" version="1.1" viewBox="0 0 66.69 66.69" xml:space="preserve" xmlns="http://www.w3.org/2000/svg"><defs><clipPath id="clipPath26740-9"><path transform="translate(-128.9 -229.9)" d="m0 0h595.3v841.9h-595.3z"/></clipPath></defs><path transform="matrix(1.047 0 0 -1.047 66.44 25.96)" d="m0 0c-0.3 0.3-0.6 0.5-1 0.5h-2.8v15.1c0 1-0.8 1.9-1.9 1.9h-32.7l-2.6 4.4c-0.3 0.6-1 0.9-1.6 0.9h-14.8c-1 0-1.9-0.8-1.9-1.9v-20.5h-2.8c-0.4 0-0.8-0.2-1-0.5-0.3-0.3-0.4-0.7-0.3-1.1l5.2-34.6c0.1-0.7 0.7-1.1 1.3-1.1h50.6c0.7 0 1.2 0.5 1.3 1.2l5.2 34.5c0.1 0.5 0 0.9-0.2 1.2m-57.1 20.7h14.3l2.6-4.4c0.3-0.6 1-0.9 1.6-0.9h32.5v-14.9h-1.1v4.3h-1.1v3.2h-1.1v3.2h-44.5v-3.2h-1.1v-3.2h-1v-4.3h-1.1zm3.2-18.1h44.7v-2.1h-44.7zm1.1 3.2h42.6v-1.1h-42.6zm41.5 2.1h-40.5v1.1h40.5zm4.3-42.6h-49.2l-5 33h59.3z" clip-path="url(#clipPath26740-9)" fill="#3c8f49"/><path d="m42.32 39.13c-2.538-0.01039-5.044 1.229-6.688 3.494-2.341 0.04491-4.566 1.292-5.795 3.486-1.005 0.1705-1.991 0.5543-2.797 1.275-0.9857 0.8818-1.699 2.213-1.699 3.781 8e-6 1.268 0.2283 2.699 1.049 3.922 0.8205 1.223 2.326 2.119 4.281 2.119h18.42c2.268 0 4.052-1.091 5.107-2.6 1.055-1.509 1.477-3.37 1.477-5.148 8e-6 -4.077-3.215-6.794-6.682-6.77-1.626-2.288-4.127-3.55-6.67-3.561zm-0.0098 2.33c1.952 8e-3 3.895 0.9789 5.074 2.922l0.3945 0.6504 0.7539-0.09961c2.401-0.3168 4.809 1.41 4.809 4.527 0 1.394-0.3644 2.822-1.057 3.812-0.6922 0.99-1.618 1.605-3.197 1.605h-18.42c-1.329 1e-6 -1.904-0.4278-2.346-1.086-0.4415-0.6581-0.6543-1.664-0.6543-2.625 8e-6 -0.889 0.3612-1.542 0.9238-2.045 0.5626-0.5034 1.344-0.8018 2-0.8281l0.7266-0.0293 0.293-0.666c0.8267-1.877 2.695-2.853 4.504-2.701l0.7148 0.06055 0.375-0.6113c1.193-1.937 3.148-2.895 5.102-2.887z" fill="#3c8f49"/></svg>
