<?xml version="1.0" encoding="UTF-8"?>
<svg width="16" height="16" version="1.1" viewBox="0 0 16 16" xmlns="http://www.w3.org/2000/svg"><g fill="none" stroke="#3c8f49"><path d="m9.452 9.501c-0.5864-0.002361-1.174 0.2949-1.525 0.8737-0.5737-0.04893-1.16 0.2686-1.417 0.8613-0.4733 0.01928-1.011 0.401-1.011 1.025 4.5e-6 0.5659 0.553 1.238 1.042 1.238h4.605c0.8956 0 1.355-0.8662 1.355-1.672 3e-6 -0.9518-0.7626-1.545-1.532-1.442-0.3469-0.5804-0.9313-0.8817-1.517-0.8841z"/><path d="m0.5 6.5h15l-1.5 9h-12z" stroke-linecap="round" stroke-linejoin="round" style="paint-order:stroke fill markers"/><path d="m2.5 6.5v-5h3l2 1 6-1.935e-4v4" stroke-linejoin="round" style="paint-order:stroke fill markers"/></g></svg>
