<svg width="100" height="100" viewBox="0 0 100 100" fill="none" xmlns="http://www.w3.org/2000/svg">
<path d="M100 50C100 77.6142 77.6142 100 50 100C22.3858 100 0 77.6142 0 50C0 22.3858 22.3858 0 50 0C77.6142 0 100 22.3858 100 50Z" fill="#0055FF"/>
<path d="M48.885 65.495C56.685 65.495 63.045 60.11 63.045 50.375C63.045 40.64 56.685 35.165 48.885 35.165C40.605 35.165 34.41 41.435 34.41 50.375C34.41 59.315 40.605 65.495 48.885 65.495ZM27 50.375C27 37.415 36.42 28.325 48.075 28.325C54.435 28.325 60.15 31.055 63.12 35.57L63.195 29.135H69.87V71.615H63.195L63.12 65.18C60.135 69.68 54.435 72.425 48.075 72.425C36.405 72.425 27 63.335 27 50.375Z" fill="white"/>
</svg>
