<?xml version="1.0" encoding="UTF-8" standalone="no"?>
<!-- Created with Inkscape (http://www.inkscape.org/) -->

<svg
   xmlns:dc="http://purl.org/dc/elements/1.1/"
   xmlns:cc="http://creativecommons.org/ns#"
   xmlns:rdf="http://www.w3.org/1999/02/22-rdf-syntax-ns#"
   xmlns:svg="http://www.w3.org/2000/svg"
   xmlns="http://www.w3.org/2000/svg"
   xmlns:sodipodi="http://sodipodi.sourceforge.net/DTD/sodipodi-0.dtd"
   xmlns:inkscape="http://www.inkscape.org/namespaces/inkscape"
   width="48"
   height="48"
   viewBox="0 0 12.7 12.7"
   version="1.1"
   id="svg8"
   inkscape:version="0.92.4 (5da689c313, 2019-01-14)"
   sodipodi:docname="norm_I.svg">
  <defs
     id="defs2" />
  <sodipodi:namedview
     id="base"
     pagecolor="#ffffff"
     bordercolor="#666666"
     borderopacity="1.0"
     inkscape:pageopacity="0.0"
     inkscape:pageshadow="2"
     inkscape:zoom="11.2"
     inkscape:cx="31.937527"
     inkscape:cy="31.052611"
     inkscape:document-units="mm"
     inkscape:current-layer="layer1"
     showgrid="false"
     units="px"
     inkscape:window-width="1920"
     inkscape:window-height="1043"
     inkscape:window-x="1920"
     inkscape:window-y="0"
     inkscape:window-maximized="1" />
  <metadata
     id="metadata5">
    <rdf:RDF>
      <cc:Work
         rdf:about="">
        <dc:format>image/svg+xml</dc:format>
        <dc:type
           rdf:resource="http://purl.org/dc/dcmitype/StillImage" />
        <dc:title />
      </cc:Work>
    </rdf:RDF>
  </metadata>
  <g
     inkscape:label="Layer 1"
     inkscape:groupmode="layer"
     id="layer1"
     transform="translate(0,-284.3)">
    <g
       aria-label="norm(I)"
       transform="matrix(0.93370219,0,0,1.0710053,-0.1889881,0.80319941)"
       style="font-style:normal;font-variant:normal;font-weight:normal;font-stretch:normal;font-size:8.83768845px;line-height:1.25;font-family:sans-serif;-inkscape-font-specification:sans-serif;letter-spacing:0px;word-spacing:0px;fill:#000000;fill-opacity:1;stroke:none;stroke-width:0.2209422"
       id="text819">
      <path
         d="m 2.3378999,273.14913 c 0,-0.39137 -0.2131229,-0.61612 -0.5696194,-0.61612 -0.2867472,0 -0.4649955,0.1395 -0.7052431,0.2945 l -0.05425,-0.2945 -0.57736934,0.0969 v 0.0969 l 0.14724856,0.0194 c 0.10074901,0.0155 0.12399878,0.0349 0.12399878,0.17438 v 1.22061 c 0,0.19762 -0.0116249,0.20537 -0.29062215,0.22475 v 0.11237 H 1.3575345 v -0.11237 c -0.2751223,-0.0194 -0.2906222,-0.0271 -0.2906222,-0.22475 v -0.90674 c 0,-0.0969 0.00775,-0.15113 0.03875,-0.21312 0.081374,-0.15113 0.2557475,-0.279 0.4611204,-0.279 0.2634975,0 0.4068711,0.14725 0.4068711,0.48437 v 0.91449 c 0,0.19762 -0.011625,0.20537 -0.2906222,0.22475 v 0.11237 h 0.9454908 v -0.11237 c -0.2751223,-0.0194 -0.2906222,-0.0271 -0.2906222,-0.22475 z"
         style="font-size:3.87496209px;stroke-width:0.2209422"
         id="path897"
         inkscape:connector-curvature="0" />
      <path
         d="m 3.8031806,272.53301 c -0.6199939,0 -0.9261159,0.36812 -0.9261159,0.99587 0,0.62774 0.306122,0.99586 0.9261159,0.99586 0.6277439,0 0.9299909,-0.36812 0.9299909,-0.99586 0,-0.62775 -0.302247,-0.99587 -0.9299909,-0.99587 z m -0.5231199,0.99587 c 0,-0.53475 0.1704983,-0.86025 0.5231199,-0.86025 0.3603715,0 0.5269948,0.3255 0.5269948,0.86025 0,0.53474 -0.1666233,0.86024 -0.5269948,0.86024 -0.3526216,0 -0.5231199,-0.3255 -0.5231199,-0.86024 z"
         style="font-size:3.87496209px;stroke-width:0.2209422"
         id="path899"
         inkscape:connector-curvature="0" />
      <path
         d="m 5.6522034,272.53301 -0.5889942,0.0969 v 0.0969 l 0.1472486,0.0194 c 0.100749,0.0155 0.1239987,0.0349 0.1239987,0.17438 v 1.22061 c 0,0.19762 -0.019375,0.20537 -0.2906221,0.22475 v 0.11237 h 1.02299 v -0.11237 C 5.7219528,274.34655 5.698703,274.33885 5.698703,274.1412 v -0.90674 c 0,-0.29837 0.1317487,-0.39912 0.2208728,-0.39912 0.061999,0 0.1278738,0.0233 0.2402477,0.0852 0.027125,0.0155 0.058124,0.0194 0.077499,0.0194 0.092999,0 0.1782483,-0.0969 0.1782483,-0.217 0,-0.0852 -0.05425,-0.18987 -0.205373,-0.18987 -0.1394987,0 -0.2557475,0.0853 -0.511495,0.31 z"
         style="font-size:3.87496209px;stroke-width:0.2209422"
         id="path901"
         inkscape:connector-curvature="0" />
      <path
         d="m 6.5692979,272.62988 v 0.0969 l 0.1472486,0.0194 c 0.100749,0.0155 0.1239988,0.0349 0.1239988,0.17438 v 1.22061 c 0,0.19762 -0.011625,0.20537 -0.2906222,0.22475 v 0.11237 h 0.9454908 v -0.11237 c -0.2751223,-0.0194 -0.2906222,-0.0271 -0.2906222,-0.22475 v -0.90674 c 0,-0.0969 0.00387,-0.15113 0.031,-0.20537 0.073624,-0.155 0.2441226,-0.28675 0.4572455,-0.28675 0.3332468,0 0.3719964,0.24412 0.3719964,0.48437 v 0.91449 c 0,0.19762 -0.011625,0.20537 -0.2906222,0.22475 v 0.11237 h 0.9454908 v -0.11237 C 8.4447799,274.34652 8.42928,274.33882 8.42928,274.14117 v -0.90674 c 0,-0.0969 0.00387,-0.15113 0.027125,-0.21312 0.058124,-0.155 0.2247478,-0.279 0.4417456,-0.279 0.2441227,-0.008 0.3913712,0.14725 0.3913712,0.48437 v 0.91449 c 0,0.19762 -0.011625,0.20537 -0.2906221,0.22475 v 0.11237 h 0.9454907 v -0.11237 c -0.2751223,-0.0194 -0.2906221,-0.0271 -0.2906221,-0.22475 v -0.99199 c 0,-0.39137 -0.209248,-0.61612 -0.5773694,-0.61612 -0.3177469,0 -0.5463697,0.21312 -0.6819933,0.29837 -0.092999,-0.18212 -0.2402477,-0.29837 -0.511495,-0.29837 -0.2983721,0 -0.5424947,0.19375 -0.6781184,0.2945 l -0.034875,-0.2945 z"
         style="font-size:3.87496209px;stroke-width:0.2209422"
         id="path903"
         inkscape:connector-curvature="0" />
      <path
         d="m 10.683841,273.3855 c 0,-1.10824 0.337122,-1.44148 0.581245,-1.49186 v -0.0969 c -0.678119,0.0271 -0.852492,0.86799 -0.852492,1.58873 0,0.72074 0.174373,1.56161 0.852492,1.58874 v -0.0969 c -0.224748,-0.0465 -0.581245,-0.37587 -0.581245,-1.49186 z"
         style="font-size:3.87496209px;stroke-width:0.2209422"
         id="path905"
         inkscape:connector-curvature="0" />
      <path
         d="m 12.228438,272.15714 c 0,-0.217 0.01162,-0.22475 0.348746,-0.248 v -0.11237 H 11.49607 v 0.11237 c 0.340996,0.0233 0.348746,0.031 0.348746,0.248 v 1.96073 c 0,0.217 -0.0077,0.22475 -0.348746,0.248 v 0.11237 h 1.081114 v -0.11237 c -0.337122,-0.0232 -0.348746,-0.031 -0.348746,-0.248 z"
         style="font-size:3.87496209px;stroke-width:0.2209422"
         id="path907"
         inkscape:connector-curvature="0" />
      <path
         d="m 13.393287,273.3855 c 0,1.11599 -0.356496,1.44536 -0.581244,1.49186 v 0.0969 c 0.678118,-0.0271 0.852492,-0.868 0.852492,-1.58874 0,-0.72074 -0.174374,-1.56161 -0.852492,-1.58873 v 0.0969 c 0.244123,0.0504 0.581244,0.38362 0.581244,1.49186 z"
         style="font-size:3.87496209px;stroke-width:0.2209422"
         id="path909"
         inkscape:connector-curvature="0" />
    </g>
    <path
       style="fill:#769393;fill-opacity:1;stroke:none;stroke-width:0.30338553px;stroke-linecap:butt;stroke-linejoin:miter;stroke-opacity:1"
       d="m 0.40159968,286.54441 c 1.33676052,0.9304 2.55579302,2.09298 4.37034962,2.08106 l -0.023623,-2.23636 c 0.9965319,0.9002 1.5863804,1.85216 4.4412199,2.5159 l 0.047247,-2.79544 c 0.9412648,1.21735 1.8967988,2.38465 3.0238088,2.95075 v 2.08105 H 2.4095983 0.35435267 Z"
       id="path895"
       inkscape:connector-curvature="0"
       sodipodi:nodetypes="cccccccccc" />
  </g>
</svg>
