<svg width="891" height="327" viewBox="0 0 891 327" fill="none" xmlns="http://www.w3.org/2000/svg">
<path d="M242.48 248.5V122.5H272.23L274.98 139.25C278.98 133.25 284.23 128.5 290.73 125C297.396 121.333 304.98 119.5 313.48 119.5C319.813 119.5 325.48 120.333 330.48 122C335.48 123.667 339.896 126.083 343.73 129.25C347.73 132.417 350.98 136.417 353.48 141.25C358.146 134.417 364.23 129.083 371.73 125.25C379.23 121.417 387.396 119.5 396.23 119.5C407.23 119.5 416.396 121.75 423.73 126.25C431.063 130.583 436.563 136.917 440.23 145.25C444.063 153.583 445.98 163.833 445.98 176V248.5H412.48V179C412.48 169 410.48 161.333 406.48 156C402.646 150.667 396.646 148 388.48 148C383.146 148 378.396 149.333 374.23 152C370.063 154.667 366.813 158.5 364.48 163.5C362.313 168.5 361.23 174.5 361.23 181.5V248.5H327.48V179C327.48 169 325.48 161.333 321.48 156C317.48 150.667 311.313 148 302.98 148C297.813 148 293.146 149.333 288.98 152C284.98 154.667 281.813 158.5 279.48 163.5C277.313 168.5 276.23 174.5 276.23 181.5V248.5H242.48ZM538.331 251.5C525.665 251.5 514.415 248.833 504.581 243.5C494.915 238 487.331 230.417 481.831 220.75C476.498 210.917 473.831 199.583 473.831 186.75C473.831 173.583 476.498 162 481.831 152C487.331 141.833 494.915 133.917 504.581 128.25C514.248 122.417 525.498 119.5 538.331 119.5C550.831 119.5 561.748 122.25 571.081 127.75C580.415 133.25 587.665 140.667 592.831 150C597.998 159.333 600.581 169.917 600.581 181.75C600.581 183.417 600.581 185.333 600.581 187.5C600.581 189.5 600.415 191.583 600.081 193.75H497.831V173.25H566.581C566.081 165.083 563.165 158.667 557.831 154C552.665 149.333 546.165 147 538.331 147C532.665 147 527.415 148.333 522.581 151C517.748 153.5 513.915 157.417 511.081 162.75C508.415 168.083 507.081 174.833 507.081 183V190.25C507.081 197.083 508.331 203.083 510.831 208.25C513.498 213.25 517.165 217.167 521.831 220C526.498 222.667 531.915 224 538.081 224C544.248 224 549.331 222.667 553.331 220C557.498 217.333 560.581 213.917 562.581 209.75H597.081C594.748 217.583 590.831 224.667 585.331 231C579.831 237.333 573.081 242.333 565.081 246C557.081 249.667 548.165 251.5 538.331 251.5ZM628.222 248.5V122.5H658.222L661.472 145.75C664.472 140.25 668.222 135.583 672.722 131.75C677.389 127.917 682.639 124.917 688.472 122.75C694.472 120.583 701.055 119.5 708.222 119.5V155.25H696.722C691.722 155.25 687.055 155.833 682.722 157C678.555 158.167 674.889 160.083 671.722 162.75C668.555 165.25 666.139 168.75 664.472 173.25C662.805 177.75 661.972 183.417 661.972 190.25V248.5H628.222ZM731.267 248.5V122.5H765.017V248.5H731.267ZM748.267 105.25C742.267 105.25 737.267 103.5 733.267 100C729.434 96.3333 727.517 91.75 727.517 86.25C727.517 80.75 729.434 76.25 733.267 72.75C737.267 69.0833 742.267 67.25 748.267 67.25C754.434 67.25 759.434 69.0833 763.267 72.75C767.267 76.25 769.267 80.75 769.267 86.25C769.267 91.75 767.267 96.3333 763.267 100C759.434 103.5 754.434 105.25 748.267 105.25ZM855.87 248.5C847.037 248.5 839.287 247.167 832.62 244.5C826.12 241.667 821.037 237.083 817.37 230.75C813.704 224.25 811.87 215.417 811.87 204.25V150.75H790.37V122.5H811.87L815.62 88.25H845.62V122.5H878.87V150.75H845.62V204.75C845.62 210.417 846.87 214.333 849.37 216.5C851.87 218.667 856.12 219.75 862.12 219.75H878.62V248.5H855.87Z" fill="white"/>
<mask id="mask0_227_440" style="mask-type:alpha" maskUnits="userSpaceOnUse" x="0" y="117" width="191" height="132">
<path d="M55.8157 134.536L172.696 231.67L135.507 134.536M55.8157 134.536L97.2548 231.67L135.507 134.536M55.8157 134.536L16.501 231.67L135.507 134.536" stroke="url(#paint0_linear_227_440)" stroke-width="2"/>
<path d="M32.4435 233.859C32.4435 229.508 30.9847 225.921 28.0671 223.099C25.0106 220.394 21.19 219.042 16.6052 219.042C12.0205 219.042 8.19985 220.394 5.14334 223.099C2.08685 225.921 0.558594 229.508 0.558594 233.859C0.558594 238.21 2.08685 241.738 5.14334 244.443C8.19985 247.148 12.0205 248.5 16.6052 248.5C21.0511 248.5 24.8022 247.148 27.8587 244.443C30.9152 241.738 32.4435 238.21 32.4435 233.859Z" fill="url(#paint1_linear_227_440)"/>
<path d="M190.812 233.859C190.812 229.508 189.354 225.921 186.436 223.099C183.38 220.394 179.559 219.042 174.974 219.042C170.389 219.042 166.569 220.394 163.512 223.099C160.456 225.921 158.927 229.508 158.927 233.859C158.927 238.21 160.456 241.738 163.512 244.443C166.569 247.148 170.389 248.5 174.974 248.5C179.42 248.5 183.171 247.148 186.228 244.443C189.284 241.738 190.812 238.21 190.812 233.859Z" fill="url(#paint2_linear_227_440)"/>
<path d="M113.204 233.859C113.204 229.508 111.746 225.921 108.828 223.099C105.772 220.394 101.951 219.042 97.3662 219.042C92.7815 219.042 88.9608 220.394 85.9043 223.099C82.8478 225.921 81.3196 229.508 81.3196 233.859C81.3196 238.21 82.8478 241.738 85.9043 244.443C88.9608 247.148 92.7815 248.5 97.3662 248.5C101.812 248.5 105.563 247.148 108.62 244.443C111.676 241.738 113.204 238.21 113.204 233.859Z" fill="url(#paint3_linear_227_440)"/>
<path d="M71.4388 132.189C71.4388 127.838 69.9801 124.252 67.0625 121.429C64.006 118.724 60.1853 117.372 55.6006 117.372C51.0158 117.372 47.1952 118.724 44.1387 121.429C41.0822 124.252 39.554 127.838 39.554 132.189C39.554 136.541 41.0822 140.068 44.1387 142.773C47.1952 145.478 51.0158 146.83 55.6006 146.83C60.0464 146.83 63.7976 145.478 66.8541 142.773C69.9106 140.068 71.4388 136.541 71.4388 132.189Z" fill="url(#paint4_linear_227_440)"/>
<path d="M151.795 132.189C151.795 127.838 150.336 124.252 147.419 121.429C144.362 118.724 140.542 117.372 135.957 117.372C131.372 117.372 127.551 118.724 124.495 121.429C121.438 124.252 119.91 127.838 119.91 132.189C119.91 136.541 121.438 140.068 124.495 142.773C127.551 145.478 131.372 146.83 135.957 146.83C140.403 146.83 144.154 145.478 147.21 142.773C150.267 140.068 151.795 136.541 151.795 132.189Z" fill="url(#paint5_linear_227_440)"/>
</mask>
<g mask="url(#mask0_227_440)">
<rect width="271.813" height="168.712" transform="matrix(1 0 0 -1 -41.3506 272.006)" fill="url(#paint6_linear_227_440)"/>
</g>
<defs>
<linearGradient id="paint0_linear_227_440" x1="94.5982" y1="231.67" x2="94.5982" y2="134.536" gradientUnits="userSpaceOnUse">
<stop stop-color="#EEB080"/>
<stop offset="1" stop-color="#886549"/>
</linearGradient>
<linearGradient id="paint1_linear_227_440" x1="16.501" y1="248.5" x2="16.501" y2="219.042" gradientUnits="userSpaceOnUse">
<stop stop-color="#E7AB7D"/>
<stop offset="1" stop-color="#815F46"/>
</linearGradient>
<linearGradient id="paint2_linear_227_440" x1="174.87" y1="248.5" x2="174.87" y2="219.042" gradientUnits="userSpaceOnUse">
<stop stop-color="#E7AB7D"/>
<stop offset="1" stop-color="#815F46"/>
</linearGradient>
<linearGradient id="paint3_linear_227_440" x1="97.262" y1="248.5" x2="97.262" y2="219.042" gradientUnits="userSpaceOnUse">
<stop stop-color="#E7AB7D"/>
<stop offset="1" stop-color="#815F46"/>
</linearGradient>
<linearGradient id="paint4_linear_227_440" x1="55.4964" y1="146.83" x2="55.4964" y2="117.372" gradientUnits="userSpaceOnUse">
<stop stop-color="#E7AB7D"/>
<stop offset="1" stop-color="#815F46"/>
</linearGradient>
<linearGradient id="paint5_linear_227_440" x1="135.853" y1="146.83" x2="135.853" y2="117.372" gradientUnits="userSpaceOnUse">
<stop stop-color="#E7AB7D"/>
<stop offset="1" stop-color="#815F46"/>
</linearGradient>
<linearGradient id="paint6_linear_227_440" x1="98.8492" y1="8.94446e-07" x2="162.975" y2="168.712" gradientUnits="userSpaceOnUse">
<stop stop-color="#30FFF3"/>
<stop offset="1" stop-color="#B9FFB3"/>
</linearGradient>
</defs>
</svg>
