<svg width="50" height="50" viewBox="0 0 50 50" fill="none" xmlns="http://www.w3.org/2000/svg">
<rect x="0.5" y="0.5" width="49" height="49" fill="white" stroke="black"/>
<rect x="7.38635" y="14.8462" width="36.5867" height="18.1934" fill="#D9D9D9"/>
<path d="M7.38635 23.9429C25.2548 23.9429 30.406 23.9429 30.748 23.9429" stroke="black"/>
<path d="M32.2411 17.5044C32.2411 22.429 32.2411 23.8486 32.2411 23.9429" stroke="#C43C5B"/>
<path d="M35.4808 20.9385C33.5451 22.8742 32.9871 23.4322 32.95 23.4693" stroke="#C43C5B"/>
<path d="M31.6699 24.3477C29.5159 26.5016 28.895 27.1225 28.8538 27.1638" stroke="#C43C5B"/>
<path d="M28.8555 20.853C30.9027 22.9002 31.4929 23.4904 31.5321 23.5296" stroke="#C43C5B"/>
<path d="M32.2411 30.6685C32.2411 25.5243 32.2411 24.0413 32.2411 23.9429" stroke="#C43C5B"/>
<path d="M32.9501 23.9429C37.1627 23.9429 38.3771 23.9429 38.4577 23.9429" stroke="#C43C5B"/>
<path d="M32.9792 24.543C34.9381 26.5019 35.5028 27.0666 35.5403 27.1041" stroke="#C43C5B"/>
<circle cx="32.2411" cy="23.9431" r="1.7702" fill="black"/>
</svg>
