<svg width="51" height="50" viewBox="0 0 51 50" fill="none" xmlns="http://www.w3.org/2000/svg">
<rect x="0.934799" y="0.492676" width="49" height="48.9992" fill="white" stroke="black"/>
<rect x="3.41721" y="40.4922" width="43.8002" height="4.10791" fill="#2FAA96" stroke="black"/>
<path d="M26.4948 19.2544C29.8979 19.2545 32.6569 22.0135 32.6569 25.4165C32.6568 28.8194 29.8979 31.5776 26.4948 31.5776C23.0917 31.5776 20.3328 28.8195 20.3327 25.4165C20.3327 22.0134 23.0916 19.2544 26.4948 19.2544Z" stroke="#C43C5B" stroke-width="3"/>
<path d="M26.9122 9.24609C35.6525 9.46752 42.6699 16.6225 42.67 25.416L42.6651 25.834C42.5498 30.3837 40.555 34.4659 37.4288 37.335H34.169C38.0802 34.8116 40.67 30.4165 40.67 25.416C40.6699 17.5875 34.323 11.2412 26.4942 11.2412C18.6657 11.2415 12.3195 17.5877 12.3194 25.416C12.3194 30.4166 14.9092 34.8117 18.8204 37.335H15.5596C12.4338 34.4659 10.4396 30.3835 10.3243 25.834L10.3194 25.416C10.3195 16.4831 17.5612 9.24147 26.4942 9.24121L26.9122 9.24609Z" fill="#C43C5B"/>
<path d="M2.91721 42.5459H0.839963" stroke="black"/>
<path d="M50.0515 42.5459H47.7174" stroke="black"/>
<rect x="3.15742" y="3.99463" width="44.06" height="4.10791" fill="#2FAA96" stroke="black"/>
<path d="M2.65742 6.04883H0.434796" stroke="black"/>
<path d="M49.881 6.04883H47.7174" stroke="black"/>
<path d="M32.6114 37.3418H41.4542V49.9922H40.4542V38.3418H31.9064L31.7882 38.0098L31.5216 37.2637L30.3673 41.293L29.8868 42.9717L29.4064 41.293L28.3067 37.4502L27.2062 41.293L26.7247 42.9717L26.2442 41.293L25.1446 37.4502L24.0441 41.293L23.5187 43.126L23.0763 41.2715L22.378 38.3418H14.6251V49.9922H13.6251V37.3418H23.1671L23.2589 37.7256L23.6075 39.1855L24.6241 35.6318H25.6642L26.7257 39.3379L27.7862 35.6318H28.8263L29.8878 39.3389L30.9483 35.6318H31.9991L32.6114 37.3418Z" fill="black"/>
<path d="M29.9 10.9443L29.9 0.808311" stroke="black"/>
<mask id="path-12-outside-1_108_376" maskUnits="userSpaceOnUse" x="13.7275" y="12.6499" width="26" height="26" fill="black">
<rect fill="white" x="13.7275" y="12.6499" width="26" height="26"/>
<path d="M26.4941 13.6499C32.993 13.6499 38.2617 18.9187 38.2617 25.4175C38.2614 31.9161 32.9928 37.1841 26.4941 37.1841C19.9956 37.1839 14.7278 31.9159 14.7275 25.4175C14.7275 18.9188 19.9954 13.6501 26.4941 13.6499ZM26.4941 16.2397C21.4257 16.2399 17.3173 20.3491 17.3173 25.4175C17.3176 30.4856 21.4259 34.594 26.4941 34.5942C31.5625 34.5942 35.6716 30.4857 35.6718 25.4175C35.6718 20.349 31.5627 16.2397 26.4941 16.2397Z"/>
</mask>
<path d="M26.4941 13.6499C32.993 13.6499 38.2617 18.9187 38.2617 25.4175C38.2614 31.9161 32.9928 37.1841 26.4941 37.1841C19.9956 37.1839 14.7278 31.9159 14.7275 25.4175C14.7275 18.9188 19.9954 13.6501 26.4941 13.6499ZM26.4941 16.2397C21.4257 16.2399 17.3173 20.3491 17.3173 25.4175C17.3176 30.4856 21.4259 34.594 26.4941 34.5942C31.5625 34.5942 35.6716 30.4857 35.6718 25.4175C35.6718 20.349 31.5627 16.2397 26.4941 16.2397Z" fill="#2FAA96"/>
<path d="M26.4941 13.6499L26.4941 12.6499L26.4941 12.6499L26.4941 13.6499ZM38.2617 25.4175L39.2617 25.4175V25.4175H38.2617ZM26.4941 37.1841L26.4941 38.1841H26.4941V37.1841ZM14.7275 25.4175L13.7275 25.4175L13.7275 25.4175L14.7275 25.4175ZM26.4941 16.2397L26.4941 15.2397L26.4941 15.2397L26.4941 16.2397ZM17.3173 25.4175L16.3173 25.4175L16.3173 25.4175L17.3173 25.4175ZM26.4941 34.5942L26.4941 35.5942H26.4941V34.5942ZM35.6718 25.4175L36.6718 25.4175V25.4175H35.6718ZM26.4941 13.6499V14.6499C32.4407 14.6499 37.2617 19.471 37.2617 25.4175H38.2617H39.2617C39.2617 18.3664 33.5453 12.6499 26.4941 12.6499V13.6499ZM38.2617 25.4175L37.2617 25.4174C37.2614 31.3637 32.4406 36.1841 26.4941 36.1841V37.1841V38.1841C33.5451 38.1841 39.2614 32.4684 39.2617 25.4175L38.2617 25.4175ZM26.4941 37.1841L26.4941 36.1841C20.5479 36.1839 15.7277 31.3636 15.7275 25.4174L14.7275 25.4175L13.7275 25.4175C13.7278 32.4682 19.4432 38.1839 26.4941 38.1841L26.4941 37.1841ZM14.7275 25.4175H15.7275C15.7275 19.471 20.5478 14.6501 26.4941 14.6499L26.4941 13.6499L26.4941 12.6499C19.443 12.6501 13.7275 18.3666 13.7275 25.4175H14.7275ZM26.4941 16.2397L26.4941 15.2397C20.8733 15.24 16.3173 19.7969 16.3173 25.4175H17.3173H18.3173C18.3173 20.9013 21.9781 17.2399 26.4941 17.2397L26.4941 16.2397ZM17.3173 25.4175L16.3173 25.4175C16.3176 31.0379 20.8735 35.594 26.4941 35.5942L26.4941 34.5942L26.4941 33.5942C21.9782 33.5941 18.3176 29.9334 18.3173 25.4174L17.3173 25.4175ZM26.4941 34.5942V35.5942C32.1147 35.5942 36.6716 31.0381 36.6718 25.4175L35.6718 25.4175L34.6718 25.4174C34.6716 29.9334 31.0103 33.5942 26.4941 33.5942V34.5942ZM35.6718 25.4175H36.6718C36.6718 19.7967 32.115 15.2397 26.4941 15.2397V16.2397V17.2397C31.0104 17.2397 34.6718 20.9013 34.6718 25.4175H35.6718Z" fill="black" mask="url(#path-12-outside-1_108_376)"/>
<path d="M23.9407 20.2334L23.9407 0.808234" stroke="black"/>
</svg>
