<?xml version="1.0" encoding="UTF-8"?>
<!-- Created with Inkscape (http://www.inkscape.org/) -->
<svg id="SVGRoot" width="60px" height="60px" version="1.1" viewBox="0 0 60 60" xmlns="http://www.w3.org/2000/svg" xmlns:cc="http://creativecommons.org/ns#" xmlns:dc="http://purl.org/dc/elements/1.1/" xmlns:rdf="http://www.w3.org/1999/02/22-rdf-syntax-ns#">
 <metadata id="metadata818">
  <rdf:RDF>
   <cc:Work rdf:about="">
    <dc:format>image/svg+xml</dc:format>
    <dc:type rdf:resource="http://purl.org/dc/dcmitype/StillImage"/>
    <dc:title/>
   </cc:Work>
  </rdf:RDF>
 </metadata>
 <g id="layer1">
  <path id="path1371" d="m28.626 16.056c10.187-31.532 42.463 1.5011 20.863 18.62-2.8197 3.3869-7.3162 2.1944-8.1355 2.7816 4.264 19.676-17.318 19.823-13.422-3.2535" fill="none" stroke="#000" stroke-width="1.5118"/>
  <path id="path1373" d="m32.662 30.936c8.4502-2.0737 5.9807-9.6521 0.09464-11.814 5.0911-12.349 10.538-9.4728 14.087-1.4916" fill="none" stroke="#000" stroke-width="1px"/>
  <g id="g1383">
   <path id="path1377" d="m1.5234 29.355 5.8958 0.05783 0.31517-9.1399 2.2266 21.445 2.9297-20.039 1.4674 13.06 1.8363-5.9808 7.7706 0.18689" fill="none" stroke="#000" stroke-linejoin="round" stroke-width="1px"/>
  </g>
  <g id="g4593" transform="matrix(.22229 0 0 .21675 42.756 29.163)">
   <path id="path4595" d="m-109.17 7.2266c-0.13666 0.0017-0.27279 0.017412-0.40625 0.046875-3.1949 0.029452-6.176 1.6945-7.7852 4.4824l-62.5 108.25h2e-3c-3.4199 5.9222 1.0169 13.609 7.8555 13.609h125c6.8386-3.2e-4 11.277-7.6872 7.8574-13.609l-31.25-54.127-31.252-54.127c-1.4652-2.5386-4.0792-4.1634-6.9785-4.4492-0.14501-0.042788-0.2944-0.068998-0.44532-0.078125h-4e-3c-0.0312-0.00138-0.0625-0.00203-0.0937-0.00195z" color="#000000" solid-color="#000000"/>
   <path id="path4583" d="m-109.17 9.2266c-2.6399-0.12475-5.1379 1.2403-6.459 3.5293l-62.5 108.25c-2.6746 4.6316 0.77657 10.609 6.125 10.609h125c5.3484-2.5e-4 8.7996-5.9777 6.125-10.609l-31.25-54.127-31.252-54.127c-1.2021-2.0829-3.3869-3.415-5.7891-3.5293h-2e-3z" color="#000000" fill="#fff" solid-color="#000000"/>
   <path id="path4577" d="m-109.26 11.225c-1.8963-0.08961-3.6838 0.88708-4.6328 2.5312l-62.5 108.25c-1.9528 3.3817 0.48755 7.6092 4.3926 7.6094h125c3.905-1.8e-4 6.3454-4.2277 4.3926-7.6094l-31.25-54.127-31.252-54.127c-0.86311-1.4955-2.4276-2.4492-4.1523-2.5312z" color="#000000" solid-color="#000000"/>
   <path id="path4573" d="m-46.997 124.55h-125l62.501-108.26 31.251 54.128z" fill="#fc0"/>
   <g id="g858" transform="translate(-188.06)">
    <circle id="path846" cx="78.564" cy="111.12" r="8.8173"/>
    <path id="circle848" d="m78.564 42.955c-4.8697-5.59e-4 -8.8178 3.9467-8.8184 8.8164l3.1562 37.461c8.93e-4 3.1264 2.5357 5.6603 5.6621 5.6602 3.1264 1.86e-4 5.6612-2.5337 5.6621-5.6602 3.1543-37.461 0 0 3.1543-37.461-5.2e-4 -4.869-3.9475-8.8159-8.8164-8.8164z"/>
   </g>
  </g>
 </g>
</svg>
