<?xml version="1.0" encoding="UTF-8" standalone="no"?>
<!-- Generator: Adobe Illustrator 27.5.0, SVG Export Plug-In . SVG Version: 6.00 Build 0)  -->

<svg
   version="1.1"
   id="Layer_1"
   x="0px"
   y="0px"
   viewBox="0 0 56 56"
   style="enable-background:new 0 0 200 56;"
   xml:space="preserve"
   sodipodi:docname="phoenix.svg"
   inkscape:version="1.4.2 (ebf0e940d0, 2025-05-08)"
   xmlns:inkscape="http://www.inkscape.org/namespaces/inkscape"
   xmlns:sodipodi="http://sodipodi.sourceforge.net/DTD/sodipodi-0.dtd"
   xmlns="http://www.w3.org/2000/svg"
   xmlns:svg="http://www.w3.org/2000/svg"><defs
   id="defs1" /><sodipodi:namedview
   id="namedview1"
   pagecolor="#ffffff"
   bordercolor="#000000"
   borderopacity="0.25"
   inkscape:showpageshadow="2"
   inkscape:pageopacity="0.0"
   inkscape:pagecheckerboard="0"
   inkscape:deskcolor="#d1d1d1"
   inkscape:zoom="9.095"
   inkscape:cx="73.66685"
   inkscape:cy="28.037383"
   inkscape:window-width="1920"
   inkscape:window-height="1131"
   inkscape:window-x="0"
   inkscape:window-y="0"
   inkscape:window-maximized="1"
   inkscape:current-layer="Layer_1" />
<style
   type="text/css"
   id="style1">
	.st0{fill:#fff;}
</style>
<g
   transform="matrix(1.2484,0,0,1.2484,-180.95732,-41.516644)"
   id="g1">
	<path
   class="st0"
   d="m 186.8,58.1 c 1,-2.6 0.9,-2.9 1.2,-4.2 3.1,-1.6 3.8,-5.7 3.8,-6.1 -0.1,-1.2 0,-0.5 -0.1,-0.1 -0.3,1.2 -1.5,2.5 -2.5,3.3 l -0.9,0.6 c 0.1,-1.1 1.3,-8.1 -1.5,-13.5 0.9,2.7 -0.3,5.7 -1.9,7.7 0,-0.4 -0.7,-7.4 -3.8,-10.9 l -0.3,-0.3 c 0.5,0.7 1,5 -1.4,9.1 -1.3,1.9 -3,3.5 -4.5,5.2 -1.4,1.8 -2.1,3.5 -1.4,6.5 0.2,0.8 0.6,2.1 0.9,2.4 0.2,0.1 0.2,-0.2 0.1,-0.4 -0.4,-0.8 -0.9,-4 2.7,-8.1 6.1,-7 4.4,-13.1 4.4,-13.1 1,1 2.6,6.8 2.7,10 -1.9,2.2 -8.7,7 -7.7,10.8 0.1,0.5 0.3,1 0.6,1.4 -0.9,1.4 -1.2,2.5 -0.7,3.9 -1.4,1.1 -2.8,2.6 -3.5,4.3 -1.1,0.4 -2.1,0.9 -3.1,1.8 -0.4,-0.4 -0.7,-0.8 -1.1,-1.1 0.3,-0.2 3,-1.6 4.1,-2.7 1,-1.1 1.7,-2.6 1.3,-4.2 -0.7,-2.9 -7.2,-6.7 -5.8,-8.3 0.7,-0.9 2.3,-1.3 3.3,-0.7 0.1,0 0.2,0.1 0.2,0.2 0.4,-0.6 0.9,-2.2 -1.6,-2.2 -0.2,-0.5 -0.8,-0.7 -1.4,-0.8 -1.6,-0.1 -3.2,0.6 -3.8,2 -0.8,1.8 1.5,5.6 1.3,8.1 0.1,2.1 -4.2,3.5 -4.1,0.2 0,-1.5 3.5,-5.5 0.3,-10.2 -1.2,-1.6 -2.6,-3.1 -3.8,-4.6 -4.4,-5.6 -1.8,-9.7 -1.8,-9.7 -4.3,5.5 -3.3,10 -3.4,9.8 -0.3,-0.5 -2.7,-3.4 -1.5,-7.1 0,0 -2.6,3.3 -2.2,12.8 -0.5,-0.3 -3.2,-2.8 -3.1,-4.6 0,0 -0.6,4.1 3.2,7 0.3,1.5 0.4,2.8 0.9,4.3 -1.5,-0.5 -3.8,-2.3 -4.6,-3.9 -0.1,-0.3 0.5,3.7 5.1,6.1 3.8,6.4 8,4.7 8.8,3.9 1.2,0.5 3,3 3.1,3.4 -2.5,-0.8 -6.5,-1.7 -9.6,-1.8 -1.8,-1.8 -5.7,-5.5 -7.4,-3.7 -1.8,2.3 4.5,5 7.7,5.3 0.9,0.9 2.2,2.2 3,3.3 -1,0.2 -1.2,0.3 -2.5,0.8 -4.7,-3.8 -5.4,-1.2 -5.4,-1.2 -0.7,3.1 5.3,2.9 6,2.8 1.7,1.8 4.3,1.9 5.5,1.5 1.8,1.7 3.8,1.6 4.4,1.5 2,4.5 5.4,2.3 6.2,0.2 1.7,0.5 3.2,-0.2 4.5,-1.2 0.9,0.3 3.3,0.7 5.6,-1.1 5.8,1.1 6.4,-2 6.2,-2.6 -0.8,-1.7 -4.4,0.2 -5.4,1.1 -1,-0.4 -1.5,-0.7 -2.5,-1 1,-1.1 2.2,-2.1 3.3,-3 11.8,-0.8 9.9,-10.3 0.5,-1.6 -2.7,0 -6.9,0.3 -9.8,1.1 0,-0.2 1.8,-2.5 3.3,-3.1 2.9,2.6 7.2,0 9.1,-3.2 2.8,-1.1 4.8,-3.2 5.5,-5.3 l 0.1,-0.4 c -0.5,1.1 -2.6,3.1 -4.8,3.6 m -40.1,2.8 c 1.2,-1.7 5,2 6.2,3.4 -0.7,-0.1 -7.2,-1.6 -6.2,-3.4 m 2.8,8.1 c 0.3,-1.9 3.9,0.4 4.7,1.2 -1.2,0.5 -4.7,0.5 -4.7,-1.2 m 37.8,1.2 c 0.2,0.7 -2,2.3 -4.8,1 2.8,-2 4.7,-1.9 4.8,-1 m 3.3,-7.9 c 1.2,1.6 -4.1,3 -6.3,3.1 0,0 4.7,-4.6 6.3,-3.1 m -17.7,5.3 c -0.1,0.6 -0.1,0.9 -0.1,1.9 -0.6,0.2 -1.2,0.3 -1.7,0.7 -0.2,-0.5 -0.5,-0.9 -0.8,-1.3 0,0 1.3,-0.9 2.6,-1.3 M 153.8,47.7 c 0.9,1.5 7.8,6.7 6.3,9.7 -1.7,-2.3 -5.8,-4.6 -6,-4.8 -0.2,-1.5 -0.3,-3.2 -0.3,-4.9 m 5.8,10.4 c -0.2,0.2 -3.5,1.7 -4.9,-2.8 1.6,0.8 3.6,1.7 4.9,2.8 m -8.4,-18 c -0.1,1 0,3.3 2.2,7 -0.1,1.7 0,3.5 0.3,5.2 -1.2,-0.6 -2.2,-1.3 -3.3,-1.9 -0.1,-1.5 0.1,-8.7 0.8,-10.3 m 0.9,19.1 c 1.7,0.6 7.2,3.1 7.7,3.4 -0.6,0.6 -4.2,1.9 -7.7,-3.4 m 8.4,2.3 c -2.1,-1.6 -5.6,-3.2 -9,-4.5 -0.3,-0.8 -0.9,-3.7 -0.9,-4.2 1,0.8 2.4,1.7 3.7,2.3 1.6,5.1 5,3.7 5.7,3.3 0.7,0.8 0.9,1.9 0.5,3.1 m 0.3,0.3 c 0.6,-1.5 0.3,-2.5 -0.4,-3.9 2.2,-2.8 -0.6,-6.7 -2.5,-8.7 -1,-1.1 -3.5,-3.7 -3.6,-4 -0.5,-4.6 1.8,-8.6 1.9,-8.9 -1.1,2.4 -1.7,5.7 4.6,13.4 1.1,1.4 2.6,2.9 2.6,4.9 0,1.8 -1.5,3.3 -1.3,4.9 0.2,1.1 0.8,2 1.9,2.2 1.2,0.2 2.3,-0.1 3,-1 2.5,-3.3 -1.4,-5.7 -1.4,-8.9 0,-1.2 0.7,-2 1.8,-2.4 0.8,-0.2 1.8,-0.4 2.4,0.2 -0.2,0 -0.7,0.1 -1.2,0.4 -0.1,-0.1 -0.2,-0.2 -0.3,-0.2 -0.2,0 -0.4,0.2 -0.4,0.4 v 0.2 c 0.1,0.1 0.2,0.3 0.4,0.2 0.1,0 0.2,-0.1 0.2,-0.1 0.5,-0.3 1.1,-0.4 1.4,-0.4 2.4,-0.2 1.7,1.1 1.7,1.1 0,0 -1.8,-1 -3.6,0.7 -2.7,2.9 9.5,8.8 0.4,15.4 -0.4,-0.3 -1.6,-1.1 -2.3,-1.4 -0.1,0.1 -0.1,0.2 -0.2,0.2 0.8,0.4 1.6,0.9 2.2,1.4 -0.6,0.4 -0.8,0.7 -1.3,1.1 -0.8,-0.8 -1.8,-1.5 -2.9,-2 -0.5,-2 -1.7,-3.6 -3.1,-4.8 m 3.2,5.5 c 0.9,0.2 1.8,0.9 2.5,1.4 -0.4,0.5 -0.6,0.8 -0.9,1.3 -0.5,-0.3 -0.8,-0.5 -1.7,-0.8 0.2,-0.6 0.2,-1.3 0.1,-1.9 m -9.1,-1.2 c 1.9,0.2 7.4,0.6 8.6,1.1 0.2,0.6 0.2,1.3 0.1,1.9 -1.9,-0.5 -4.2,-0.5 -6,0 0.1,0 -1.8,-2.1 -2.7,-3 m 0.9,5.4 c 0.2,0 1.9,-0.4 2.7,-0.6 0.6,0.6 1.4,1.3 2,1.9 0,0 -2.9,0.5 -4.7,-1.3 m 3.1,-0.7 c 1.4,-0.4 3,-1 4.6,-1 0,0.2 -1.3,2.2 -2.7,2.9 l -1.9,-1.9 m 6.2,3.4 c -1.4,0.2 -3,-0.5 -4,-1.3 2.1,-1.2 2.7,-2.9 2.8,-3.1 0.6,0.1 1.1,0.3 1.5,0.5 -0.4,1 -0.7,2.6 -0.3,3.9 m 0.7,-3.6 c 1.8,1.7 0.3,3 -0.2,3.4 0,0 -0.5,-1.6 0.2,-3.4 m 0,3.8 c 2.4,-1.7 1.1,-3.4 0.2,-4.2 0.2,-0.4 0.4,-0.8 0.9,-1.2 0.5,0.5 0.7,1.1 0.8,1.9 h 0.3 c 0,-0.8 -0.3,-1.6 -0.8,-2.2 0.3,-0.3 1.1,-1 1.4,-1.1 0.4,0.4 0.8,0.7 1.2,1.2 0,0 -1,1 -1,2.2 h 0.3 c 0.1,-0.6 0.1,-1 0.9,-1.8 0.3,0.4 0.6,0.8 0.7,1.3 -0.5,0.4 -2.5,2.2 0,4.2 -2.6,3.9 -4.9,-0.1 -4.9,-0.3 m 5.1,-0.1 c -2,-1.8 -0.2,-3.3 0,-3.4 0.3,0.9 0.3,2.4 0,3.4 m 0.5,0.2 c 0.4,-1.2 0.4,-2.6 -0.1,-3.8 0.1,0 1.1,-0.4 1.6,-0.4 0.9,2.4 2.5,3.1 2.6,3.3 -1.1,0.8 -2.7,1.2 -4.1,0.9 m 4.3,-1.2 c 0,0 -1.7,-0.9 -2.5,-3.1 1.5,0.1 3.2,0.9 4.6,1.3 l -2.1,1.8 m 5.2,-0.9 c -1,0.9 -2.9,1.5 -4.8,1 l 2.1,-1.7 c 0.9,0.3 1.8,0.5 2.7,0.7 m 1.2,-5.3 c -0.9,0.9 -2,1.9 -3,2.8 -1.9,-0.6 -4,-0.8 -6,-0.4 0,-0.7 0,-1.2 0.2,-1.9 2.8,-0.6 6,-0.4 8.8,-0.5 M 185,48.3 c 0.5,-0.6 1.5,-2.4 1.7,-2.8 0.8,-1.8 0.8,-3.9 0.8,-4.7 0.3,0.8 0.4,1.7 0.5,2.6 0.4,2.7 0.2,5.7 -0.2,8.4 -1.1,0.7 -2.3,1.2 -3.4,1.7 0.3,-1.7 0.6,-3.3 0.6,-5.2 m -0.4,0.5 c -0.1,1.8 -0.3,3.3 -0.8,4.9 -0.6,0.4 -5.2,2.6 -6.3,4.4 -1.1,-3.3 5.3,-7 7.1,-9.3 m -1.4,7.6 c -0.4,0.9 -1.1,2.1 -2,2.6 -0.9,0.6 -2.4,0.5 -3.2,-0.1 1.4,-1.1 3.5,-1.9 5.2,-2.5 m -5.7,6.9 c 2.4,-1 5.5,-2.1 7.9,-2.8 -1,1.6 -5.1,5 -7.9,2.8 m 8.6,-4.9 c -2.2,0.7 -4.5,1.4 -6.7,2.4 -0.8,0.4 -1.7,0.9 -2.5,1.4 -0.3,-1.2 0,-2.4 0.9,-3.1 0.7,0.5 1.5,0.7 2.4,0.6 1.8,-0.2 2.8,-1.8 3.5,-3.5 1.3,-0.6 2.6,-1.2 3.8,-2 -0.2,1.3 -0.7,2.7 -1.2,4 -0.1,0.1 0,0.1 -0.2,0.2"
   id="path1" />
</g>
</svg>
