<svg xmlns="http://www.w3.org/2000/svg" viewBox=" 0 0 20.19 24"><path d="M9.905 0v1.524h.762V0Zm0 2.286v1.456a3.043 3.043 0 0 0-2.286-1.037c-1.219 0-2.362.8-2.819 1.943-1.638.19-2.895 1.714-2.895 3.58v.191C.762 9.067 0 10.552 0 12.23c0 1.028.305 2.019.838 2.78-.076.381-.076.8-.038 1.181.19 1.86 1.666 3.267 3.298 3.239a3.202 3.202 0 0 1-.289-1.296c0-.53.134-1.029.37-1.469-.798-.294-1.512-.931-1.512-1.807h.762c0 .572.647.99 1.219 1.143l-.002.01a3.41 3.41 0 0 1 2.211-1.077v-.038c0-.914 1.105-1.905 1.905-1.905v.762c-.381 0-1.143.686-1.143 1.143v.762h-.38c-1.487 0-2.668 1.105-2.668 2.476 0 .42.115.838.343 1.181l-.665.37c.586 1 1.723 1.65 2.99 1.65 1.08 0 2.039-.467 2.666-1.191v1.571h.762V16h1.752l1.665 2.436c-.23.267-.37.614-.37.993 0 .838.686 1.523 1.524 1.523s1.524-.685 1.524-1.523c0-.839-.686-1.524-1.524-1.524-.204 0-.398.04-.576.114l-1.862-2.78h-2.133v-1.144h3.657l1.524 2.286h.962a1.53 1.53 0 0 0 1.476 1.143c.838 0 1.524-.686 1.524-1.524s-.686-1.524-1.524-1.524a1.53 1.53 0 0 0-1.476 1.143h-.581l-1.486-2.286h-4.076V12.19h6.524a1.53 1.53 0 0 0 1.476 1.143c.838 0 1.523-.685 1.523-1.523 0-.839-.685-1.524-1.523-1.524a1.53 1.53 0 0 0-1.476 1.143h-6.524v-1.143h4L16.229 8h.581a1.53 1.53 0 0 0 1.476 1.143c.838 0 1.524-.686 1.524-1.524s-.686-1.524-1.524-1.524a1.53 1.53 0 0 0-1.476 1.143h-.962l-1.562 2.286h-3.62V8.38H12.8l1.718-2.087c.215.116.46.182.72.182.838 0 1.524-.686 1.524-1.524s-.686-1.523-1.524-1.523-1.524.685-1.524 1.523c0 .319.1.615.268.86l-1.563 1.807h-1.752V2.286Zm5.333 1.904c.42 0 .762.343.762.762a.764.764 0 0 1-.762.762.764.764 0 0 1-.762-.762c0-.419.343-.762.762-.762zm-10.552.648.723.229c-.076.228-.076.419-.076.647A2.292 2.292 0 0 0 7.62 8v.762a3.033 3.033 0 0 1-1.979-.734c-.547.212-1.069.602-1.069 1.115H3.81c0-.794.588-1.393 1.293-1.716a3.025 3.025 0 0 1-.53-1.713c0-.305.037-.571.114-.876zM8 5.181c.343.952 1.257 1.486 2.21 1.257l.152.762c-.229.076-.381.076-.572.076-1.104 0-2.095-.686-2.514-1.828zm10.286 1.676c.419 0 .762.343.762.762a.764.764 0 0 1-.762.762.764.764 0 0 1-.762-.762c0-.419.343-.762.762-.762zM8.609 9.905c.61 0 1.143.266 1.562.724.19.228.343.457.458.685l-.258.115-.085.038-.343.152a1.598 1.598 0 0 0-.343-.533 1.283 1.283 0 0 0-.99-.457c-.572 0-1.181.342-1.639.876-.61.762-1.333 1.143-2.019 1.143-.231 0-.445-.035-.654-.116a1.706 1.706 0 0 1-1.631 1.182v-.762c.533 0 .952-.419.952-.952a.943.943 0 0 0-.952-.952v-.762c.87 0 1.583.637 1.698 1.475l.016-.028c.686.42 1.486-.076 2.019-.685.61-.724 1.448-1.143 2.21-1.143Zm10.058 1.143c.419 0 .762.342.762.762a.764.764 0 0 1-.762.761.764.764 0 0 1-.762-.761c0-.42.343-.762.762-.762zm-.381 4.19c.419 0 .762.343.762.762a.764.764 0 0 1-.762.762.764.764 0 0 1-.762-.762c0-.419.343-.762.762-.762zm-8.459.784c.164.003.33.02.497.054l-.153.762c-.952-.228-1.828.305-2.21 1.257l-.723-.266a2.673 2.673 0 0 1 2.59-1.807Zm5.411 2.645c.42 0 .762.343.762.762a.764.764 0 0 1-.762.762.764.764 0 0 1-.762-.762c0-.42.343-.762.762-.762zm-5.333 3.81V24h.762v-1.524z"/></svg>
