<svg width="400" height="400" viewBox="0 0 400 400" fill="none" xmlns="http://www.w3.org/2000/svg">
<path d="M97.2154 196.429H111.675V210.714H97.2154V196.429Z" fill="#FF4B0A"/>
<path d="M97.2154 210.74V225H61.066L53.8362 217.857V175H61.066L68.2959 182.143V210.74H97.2154Z" fill="#FF4B0A"/>
<path d="M136.675 224.315V175H142.394V224.315H136.675ZM139.605 224.315V219.384H168.201V224.315H139.605Z" fill="#07080A"/>
<path d="M187.106 225C183.711 225 180.712 224.224 178.108 222.671C175.504 221.073 173.458 218.904 171.97 216.164C170.482 213.425 169.738 210.274 169.738 206.712C169.738 203.151 170.459 200.023 171.901 197.329C173.388 194.589 175.458 192.466 178.108 190.959C180.759 189.452 183.804 188.699 187.245 188.699C190.546 188.699 193.406 189.406 195.824 190.822C198.288 192.237 200.172 194.224 201.474 196.781C202.822 199.338 203.496 202.352 203.496 205.822C203.496 206.279 203.473 206.712 203.427 207.123C203.427 207.534 203.38 207.991 203.287 208.493H173.923V203.904H199.869L198.056 206.438C198.056 202.237 197.103 199.018 195.196 196.781C193.336 194.498 190.686 193.356 187.245 193.356C183.711 193.356 180.852 194.566 178.666 196.986C176.527 199.361 175.458 202.58 175.458 206.644C175.458 210.799 176.527 214.132 178.666 216.644C180.852 219.11 183.758 220.342 187.385 220.342C189.663 220.342 191.662 219.863 193.383 218.904C195.103 217.9 196.359 216.484 197.149 214.658H202.45C201.288 217.854 199.335 220.388 196.591 222.26C193.894 224.087 190.732 225 187.106 225Z" fill="#07080A"/>
<path d="M232.183 224.315L220.396 208.082L206.307 189.384H212.793L223.674 204.384L238.67 224.315H232.183ZM220.745 204.658L231.904 189.384H238.182L223.674 208.356L220.745 204.658ZM223.116 208.425L211.05 224.315H204.703L220.396 204.521L223.116 208.425Z" fill="#07080A"/>
<path d="M255.571 225C251.2 225 247.713 224.018 245.109 222.055C242.505 220.046 241.017 217.215 240.645 213.562H246.016C246.341 215.799 247.341 217.511 249.015 218.699C250.689 219.886 252.921 220.479 255.711 220.479C258.175 220.479 260.105 220.023 261.5 219.11C262.895 218.196 263.592 216.895 263.592 215.205C263.592 214.018 263.197 212.991 262.406 212.123C261.616 211.21 260.035 210.457 257.664 209.863L251.944 208.425C248.689 207.603 246.248 206.347 244.621 204.658C242.993 202.922 242.18 200.868 242.18 198.493C242.18 195.479 243.319 193.105 245.597 191.37C247.876 189.589 250.968 188.699 254.874 188.699C258.733 188.699 261.872 189.612 264.29 191.438C266.708 193.265 268.079 195.799 268.405 199.041H263.034C262.709 197.169 261.825 195.731 260.384 194.726C258.942 193.721 257.036 193.219 254.664 193.219C252.386 193.219 250.619 193.653 249.364 194.521C248.108 195.342 247.48 196.53 247.48 198.082C247.48 199.269 247.922 200.297 248.806 201.164C249.736 202.032 251.27 202.763 253.409 203.356L258.989 204.863C262.29 205.731 264.778 207.055 266.452 208.836C268.126 210.616 268.963 212.763 268.963 215.274C268.963 218.333 267.777 220.731 265.406 222.466C263.034 224.155 259.756 225 255.571 225Z" fill="#07080A"/>
<path d="M275.621 224.315V189.384H281.201V224.315H275.621ZM275.203 181.438V175H281.62V181.438H275.203Z" fill="#07080A"/>
<path d="M290.703 224.315V217.26H297.887V224.315H290.703Z" fill="#07080A"/>
<path d="M326.812 224.315C326.626 223.539 326.487 222.648 326.394 221.644C326.347 220.639 326.324 219.361 326.324 217.808H325.975V201.096C325.975 198.447 325.347 196.507 324.092 195.274C322.883 193.995 320.907 193.356 318.163 193.356C315.466 193.356 313.304 193.904 311.677 195C310.096 196.05 309.212 197.557 309.026 199.521H303.656C303.888 196.142 305.33 193.493 307.98 191.575C310.631 189.658 314.095 188.699 318.373 188.699C322.79 188.699 326.068 189.726 328.207 191.781C330.346 193.836 331.415 196.918 331.415 201.027V217.808C331.415 218.813 331.485 219.863 331.625 220.959C331.764 222.009 331.95 223.128 332.183 224.315H326.812ZM314.606 225C310.933 225 308.003 224.132 305.818 222.397C303.679 220.616 302.61 218.196 302.61 215.137C302.61 212.078 303.679 209.703 305.818 208.014C307.957 206.324 311.072 205.137 315.164 204.452L327.579 202.397V206.918L316.001 208.699C313.397 209.11 311.421 209.795 310.073 210.753C308.724 211.712 308.05 213.105 308.05 214.932C308.05 216.712 308.654 218.059 309.863 218.973C311.119 219.886 312.955 220.342 315.373 220.342C318.489 220.342 321.023 219.658 322.976 218.288C324.975 216.872 325.975 215.046 325.975 212.808L326.882 217.671C326.138 220 324.673 221.804 322.488 223.082C320.349 224.361 317.722 225 314.606 225Z" fill="#07080A"/>
<path d="M340.776 224.315V189.384H346.356V224.315H340.776ZM340.357 181.438V175H346.774V181.438H340.357Z" fill="#07080A"/>
</svg>
