<?xml version="1.0" encoding="UTF-8"?>
<svg id="_图层_2" data-name="图层 2" xmlns="http://www.w3.org/2000/svg" xmlns:xlink="http://www.w3.org/1999/xlink" viewBox="0 0 839.64 932.93">
  <defs>
    <style>
      .cls-1 {
        fill: url(#_未命名的渐变_2);
      }

      .cls-1, .cls-2 {
        stroke-width: 0px;
      }

      .cls-2 {
        fill: #fff;
      }
    </style>
    <linearGradient id="_未命名的渐变_2" data-name="未命名的渐变 2" x1="419.82" y1="-2346.98" x2="419.82" y2="-1419.89" gradientTransform="translate(0 -1419.07) scale(1 -1)" gradientUnits="userSpaceOnUse">
      <stop offset="0" stop-color="#4ac0fb"/>
      <stop offset="1" stop-color="#4297fb"/>
    </linearGradient>
  </defs>
  <g id="_图层_1-2" data-name="图层 1">
    <g>
      <path class="cls-1" d="M839.64,645.65v-358.56c0-38.51-20.61-74.17-54.09-93.42L473.87,14.44c-33.49-19.25-74.7-19.25-108.19,0L54.09,193.67C20.61,212.93,0,248.5,0,287.1v358.65c0,38.51,20.61,74.17,54.09,93.42l311.59,179.33c33.49,19.25,74.7,19.25,108.19,0l311.59-179.33c33.58-19.34,54.19-54.92,54.19-93.51Z"/>
      <g>
        <path class="cls-2" d="M586.19,582.46v87.75l-87.01,11.3-86.99,11.32v-330.78l-48.36,6.36-46.69,99.09,69.15-8.99v59.87c0,15.93-11.82,29.39-27.62,31.45l-60.19,7.83c-15.83,2.06-29.52,12.04-36.32,26.48l-20.32,43.12-21.05,44.66-102.53,13.51,21.14-44.85,31.24-66.3,44.05-93.47,46.64-98.95,34.38-72.94c5.94-12.6,17.88-21.3,31.69-23.1l80.27-10.44,4.52-.59,58.26-7.57c15.23-1.98,28.73,9.88,28.73,25.24v301.31l87.01-11.32Z"/>
        <path class="cls-2" d="M673.18,240.86v330.31l-86.99,11.3v-299.52c0-17.6,13.05-32.46,30.5-34.73l56.49-7.35Z"/>
      </g>
    </g>
  </g>
</svg>