<svg width="50" height="50" viewBox="0 0 50 50" fill="none" xmlns="http://www.w3.org/2000/svg">
<rect x="0.5" y="0.5" width="49" height="49" fill="white" stroke="black"/>
<path d="M18.5359 32.7383L18.5359 16.8418L32.3035 24.79L18.5359 32.7383Z" fill="#2FAA96" stroke="black"/>
<line x1="0.899597" y1="24.6523" x2="18.6156" y2="24.6523" stroke="black"/>
<line x1="31.7595" y1="24.6523" x2="49.4187" y2="24.6523" stroke="black"/>
<line x1="32.2595" y1="16.2246" x2="32.2595" y2="33.2866" stroke="black"/>
<path d="M33.7955 7.15007C33.7493 6.87782 33.4911 6.6946 33.2188 6.74084L28.7824 7.49427C28.5101 7.54051 28.3269 7.79869 28.3731 8.07093C28.4194 8.34318 28.6776 8.52639 28.9498 8.48016L32.8933 7.81044L33.5631 11.754C33.6093 12.0262 33.8675 12.2094 34.1397 12.1632C34.412 12.117 34.5952 11.8588 34.5489 11.5865L33.7955 7.15007ZM26.9222 16.2246L27.3299 16.514L33.7103 7.52315L33.3026 7.23378L32.8948 6.94441L26.5144 15.9352L26.9222 16.2246Z" fill="#2FAA96"/>
<path d="M28.8635 4.70915C28.8173 4.4369 28.5591 4.25369 28.2868 4.29992L23.8504 5.05336C23.5781 5.09959 23.3949 5.35777 23.4411 5.63001C23.4874 5.90226 23.7455 6.08547 24.0178 6.03924L27.9613 5.36952L28.631 9.31305C28.6773 9.5853 28.9355 9.76852 29.2077 9.72228C29.4799 9.67605 29.6632 9.41787 29.6169 9.14562L28.8635 4.70915ZM21.9902 13.7837L22.3979 14.0731L28.7783 5.08223L28.3706 4.79286L27.9628 4.5035L21.5824 13.4943L21.9902 13.7837Z" fill="#2FAA96"/>
</svg>
