# https://github.com/mikedh/trimesh
mtllib material.mtl
usemtl material_0
v 0.12371097 0.18517260 0.39105487
v 0.08520332 0.20572829 0.39105487
v 0.02172051 0.05245139 0.39105487
v 0.03155298 0.04720966 0.39105487
v 0.15745655 -0.15745645 0.39105487
v 0.18517246 -0.12371086 0.39105487
v 0.04720956 -0.03155287 0.39105487
v 0.04015211 -0.04015200 0.39105487
v -0.18517246 -0.12371086 0.39105487
v -0.15745655 -0.15745645 0.39105487
v -0.04015211 -0.04015200 0.39105487
v -0.04720956 -0.03155287 0.39105487
v -0.08520332 0.20572829 0.39105487
v -0.12371097 0.18517260 0.39105487
v -0.03155298 0.04720966 0.39105487
v -0.02172051 0.05245139 0.39105487
v 0.22268659 0.00000010 0.39105487
v 0.21840416 0.04344112 0.39105487
v 0.05570591 0.01106591 0.39105487
v 0.05676795 0.00000010 0.39105487
v -0.04344101 -0.21840409 0.39105487
v 0.00000000 -0.22268652 0.39105487
v 0.00000000 -0.05676785 0.39105487
v -0.01106581 -0.05570580 0.39105487
v -0.20572815 0.08520345 0.39105487
v -0.21840416 0.04344112 0.39105487
v -0.05570591 0.01106591 0.39105487
v -0.05245126 0.02172061 0.39105487
v 0.15745655 0.15745669 0.39105487
v 0.04015211 0.04015224 0.39105487
v 0.12371097 -0.18517236 0.39105487
v 0.03155298 -0.04720945 0.39105487
v -0.20572815 -0.08520321 0.39105487
v -0.05245126 -0.02172040 0.39105487
v -0.04344101 0.21840429 0.39105487
v -0.01106581 0.05570604 0.39105487
v 0.21840416 -0.04344091 0.39105487
v 0.05570591 -0.01106571 0.39105487
v -0.08520332 -0.20572808 0.39105487
v -0.02172051 -0.05245115 0.39105487
v -0.18517246 0.12371110 0.39105487
v -0.04720956 0.03155308 0.39105487
v 0.18517246 0.12371110 0.39105487
v 0.04720956 0.03155308 0.39105487
v 0.08520332 -0.20572808 0.39105487
v 0.02172051 -0.05245115 0.39105487
v -0.21840416 -0.04344091 0.39105487
v -0.05570591 -0.01106571 0.39105487
v 0.04169378 0.21857559 0.39105487
v 0.00000000 0.22268673 0.39105487
v 0.00000000 0.05676809 0.39105487
v 0.01062044 0.05574030 0.39105487
v 0.01062044 0.05574030 0.39105487
v 0.20572815 -0.08520321 0.39105487
v 0.05245126 -0.02172040 0.39105487
v -0.12371097 -0.18517236 0.39105487
v -0.03155298 -0.04720945 0.39105487
v -0.15930656 0.15824465 0.39033542
v -0.04015211 0.04015224 0.39105487
v 0.20572815 0.08520345 0.39105487
v 0.05245126 0.02172061 0.39105487
v 0.04344101 -0.21840409 0.39105487
v 0.01106581 -0.05570580 0.39105487
v -0.22268659 0.00000010 0.39105487
v -0.05676795 0.00000010 0.39105487
v 0.04344101 0.21840429 0.39105487
v 0.04344101 0.21840429 0.39105487
v 0.01106581 0.05570604 0.39105487
v 0.01106581 0.05570604 0.39105487
v 0.00000000 0.22268662 -0.45104321
v 0.04169378 0.21857549 -0.45104321
v 0.04344101 0.21840419 -0.45104321
v 0.08520332 0.20572818 -0.45104321
v 0.12371097 0.18517250 -0.45104321
v 0.15745655 0.15745658 -0.45104321
v 0.18517246 0.12371100 -0.45104318
v 0.20572815 0.08520332 -0.45104318
v 0.21840416 0.04344101 -0.45104318
v 0.22268659 0.00000000 -0.45104318
v 0.05084106 0.00000000 -0.45104318
v 0.04984754 0.00990099 -0.45104318
v 0.04696974 0.01945938 -0.45104318
v 0.04227619 0.02822981 -0.45104318
v 0.03593819 0.03593819 -0.45104318
v 0.02822981 0.04227619 -0.45104318
v 0.01945938 0.04696974 -0.45104318
v 0.00990099 0.04984754 -0.45104318
v 0.00000000 0.05084106 -0.45104318
v -0.00990099 0.04984754 -0.45104318
v -0.01945938 0.04696974 -0.45104318
v -0.02822981 0.04227619 -0.45104318
v -0.03593819 0.03593819 -0.45104318
v -0.04227619 0.02822981 -0.45104318
v -0.04696974 0.01945938 -0.45104318
v -0.04984754 0.00990099 -0.45104318
v -0.05084106 0.00000000 -0.45104318
v -0.22268659 0.00000000 -0.45104318
v -0.21840416 0.04344101 -0.45104318
v -0.20572815 0.08520332 -0.45104318
v -0.18517246 0.12371100 -0.45104318
v -0.15745655 0.15745658 -0.45104321
v -0.12371097 0.18517250 -0.45104321
v -0.08520332 0.20572818 -0.45104321
v -0.04344101 0.21840419 -0.45104321
v -0.04984754 -0.00990099 -0.45104318
v -0.04696974 -0.01945938 -0.45104318
v -0.04227619 -0.02822981 -0.45104318
v -0.03593819 -0.03593819 -0.45104318
v -0.02822981 -0.04227619 -0.45104318
v -0.01945938 -0.04696974 -0.45104318
v -0.00990099 -0.04984754 -0.45104318
v 0.00000000 -0.05084106 -0.45104318
v 0.00990099 -0.04984754 -0.45104318
v 0.01945938 -0.04696974 -0.45104318
v 0.02822981 -0.04227619 -0.45104318
v 0.03593819 -0.03593819 -0.45104318
v 0.04227619 -0.02822981 -0.45104318
v 0.04696974 -0.01945938 -0.45104318
v 0.04984754 -0.00990099 -0.45104318
v 0.21840416 -0.04344101 -0.45104318
v 0.20572815 -0.08520332 -0.45104318
v 0.18517246 -0.12371100 -0.45104318
v 0.15745655 -0.15745658 -0.45104314
v 0.12371097 -0.18517250 -0.45104314
v 0.08520332 -0.20572818 -0.45104314
v 0.04344101 -0.21840419 -0.45104314
v 0.00000000 -0.22268662 -0.45104314
v -0.04344101 -0.21840419 -0.45104314
v -0.08520332 -0.20572818 -0.45104314
v -0.12371097 -0.18517250 -0.45104314
v -0.15745655 -0.15745658 -0.45104314
v -0.18517246 -0.12371100 -0.45104318
v -0.20572815 -0.08520332 -0.45104318
v -0.21840416 -0.04344101 -0.45104318
vn 0.00000000 0.00000000 1.00000000
vn 0.00000000 0.00000000 1.00000000
vn 0.00000000 0.00000000 1.00000000
vn 0.00000000 0.00000000 1.00000000
vn 0.00000000 0.00000000 1.00000000
vn 0.00000000 0.00000000 1.00000000
vn 0.00000000 0.00000000 1.00000000
vn 0.00000000 0.00000000 1.00000000
vn 0.00000000 0.00000000 1.00000000
vn 0.00000000 0.00000000 1.00000000
vn 0.00000000 0.00000000 1.00000000
vn 0.00000000 0.00000000 1.00000000
vn 0.00000000 0.00000000 1.00000000
vn -0.00629983 -0.00359991 0.99997368
vn 0.00000000 0.00000000 1.00000000
vn 0.00000000 0.00000000 1.00000000
vn 0.00000000 0.00000000 1.00000000
vn 0.00000000 0.00000000 1.00000000
vn 0.00000000 0.00000000 1.00000000
vn 0.00000000 0.00000000 1.00000000
vn 0.00000000 0.00000000 1.00000000
vn 0.00000000 0.00000000 1.00000000
vn 0.00000000 0.00000000 1.00000000
vn 0.00000000 0.00000000 1.00000000
vn 0.00000000 0.00000000 1.00000000
vn 0.00000000 0.00000000 1.00000000
vn 0.00000000 0.00000000 1.00000000
vn 0.00000000 0.00000000 1.00000000
vn 0.00000000 0.00000000 1.00000000
vn 0.00000000 0.00000000 1.00000000
vn 0.00000000 0.00000000 1.00000000
vn 0.00000000 0.00000000 1.00000000
vn 0.00000000 0.00000000 1.00000000
vn 0.00000000 0.00000000 1.00000000
vn 0.00000000 0.00000000 1.00000000
vn 0.00000000 0.00000000 1.00000000
vn 0.00000000 0.00000000 1.00000000
vn 0.00000000 0.00000000 1.00000000
vn 0.00000000 0.00000000 1.00000000
vn 0.00000000 0.00000000 1.00000000
vn 0.00419988 0.00619983 0.99997196
vn 0.00550021 0.00970037 0.99993782
vn 0.00000000 0.00000000 1.00000000
vn 0.00000000 0.00000000 1.00000000
vn 0.00000000 0.00000000 1.00000000
vn 0.00000000 0.00000000 1.00000000
vn 0.00000000 0.00000000 1.00000000
vn 0.00000000 0.00000000 1.00000000
vn 0.00000000 0.00000000 1.00000000
vn 0.00000000 0.00000000 1.00000000
vn 0.00000000 0.00000000 1.00000000
vn 0.00000000 0.00000000 1.00000000
vn 0.00000000 -0.00010000 1.00000000
vn 0.00000000 0.00000000 1.00000000
vn 0.00000000 0.00000000 1.00000000
vn 0.00000000 0.00000000 1.00000000
vn 0.00000000 0.00000000 1.00000000
vn -0.00269998 0.00259998 0.99999298
vn -0.01000037 -0.00500019 0.99993749
vn 0.00000000 0.00000000 1.00000000
vn 0.00000000 0.00000000 1.00000000
vn 0.00000000 0.00000000 1.00000000
vn 0.00000000 0.00000000 1.00000000
vn 0.00000000 0.00000000 1.00000000
vn 0.00000000 0.00000000 1.00000000
vn 0.00000000 0.00000000 1.00000000
vn 0.00000000 -0.00010000 1.00000000
vn 0.00000000 0.00000000 1.00000000
vn 0.00000000 -0.00010000 1.00000000
vn 0.00000000 0.00000000 -1.00000000
vn 0.00000000 0.00000000 -1.00000000
vn 0.00000000 0.00000000 -1.00000000
vn 0.00000000 0.00000000 -1.00000000
vn 0.00000000 0.00000000 -1.00000000
vn 0.00000000 0.00000000 -1.00000000
vn 0.00000000 0.00000000 -1.00000000
vn 0.00000000 0.00000000 -1.00000000
vn 0.00000000 0.00000000 -1.00000000
vn 0.00000000 0.00000000 -1.00000000
vn 0.00000000 0.00000000 -1.00000000
vn 0.00000000 0.00000000 -1.00000000
vn 0.00000000 0.00000000 -1.00000000
vn 0.00000000 0.00000000 -1.00000000
vn 0.00000000 0.00000000 -1.00000000
vn 0.00000000 0.00000000 -1.00000000
vn 0.00000000 0.00000000 -1.00000000
vn 0.00000000 0.00000000 -1.00000000
vn 0.00000000 0.00000000 -1.00000000
vn 0.00000000 0.00000000 -1.00000000
vn 0.00000000 0.00000000 -1.00000000
vn 0.00000000 0.00000000 -1.00000000
vn 0.00000000 0.00000000 -1.00000000
vn 0.00000000 0.00000000 -1.00000000
vn 0.00000000 0.00000000 -1.00000000
vn 0.00000000 0.00000000 -1.00000000
vn 0.00000000 0.00000000 -1.00000000
vn 0.00000000 0.00000000 -1.00000000
vn 0.00000000 0.00000000 -1.00000000
vn 0.00000000 0.00000000 -1.00000000
vn 0.00000000 0.00000000 -1.00000000
vn 0.00000000 0.00000000 -1.00000000
vn 0.00000000 0.00000000 -1.00000000
vn 0.00000000 0.00000000 -1.00000000
vn 0.00000000 0.00000000 -1.00000000
vn 0.00000000 0.00000000 -1.00000000
vn 0.00000000 0.00000000 -1.00000000
vn 0.00000000 0.00000000 -1.00000000
vn 0.00000000 0.00000000 -1.00000000
vn 0.00000000 0.00000000 -1.00000000
vn 0.00000000 0.00000000 -1.00000000
vn 0.00000000 0.00000000 -1.00000000
vn 0.00000000 0.00000000 -1.00000000
vn 0.00000000 0.00000000 -1.00000000
vn 0.00000000 0.00000000 -1.00000000
vn 0.00000000 0.00000000 -1.00000000
vn 0.00000000 0.00000000 -1.00000000
vn 0.00000000 0.00000000 -1.00000000
vn 0.00000000 0.00000000 -1.00000000
vn 0.00000000 0.00000000 -1.00000000
vn 0.00000000 0.00000000 -1.00000000
vn 0.00000000 0.00000000 -1.00000000
vn 0.00000000 0.00000000 -1.00000000
vn 0.00000000 0.00000000 -1.00000000
vn 0.00000000 0.00000000 -1.00000000
vn 0.00000000 0.00000000 -1.00000000
vn 0.00000000 0.00000000 -1.00000000
vn 0.00000000 0.00000000 -1.00000000
vn 0.00000000 0.00000000 -1.00000000
vn 0.00000000 0.00000000 -1.00000000
vn 0.00000000 0.00000000 -1.00000000
vn 0.00000000 0.00000000 -1.00000000
vn 0.00000000 0.00000000 -1.00000000
vn 0.00000000 0.00000000 -1.00000000
vn 0.00000000 0.00000000 -1.00000000
vt 0.77409000 0.08979000
vt 0.68880000 0.04420000
vt 0.57227000 0.34661000
vt 0.59967000 0.36126000
vt 0.84885000 0.84885000
vt 0.91021000 0.77409000
vt 0.64339000 0.58107000
vt 0.62369000 0.60508000
vt 0.08979000 0.77409000
vt 0.15115000 0.84885000
vt 0.39957000 0.60508000
vt 0.37986000 0.58107000
vt 0.31120000 0.04420000
vt 0.22589000 0.08979000
vt 0.42358000 0.36126000
vt 0.45098000 0.34661000
vt 0.99335000 0.50000000
vt 0.98387000 0.40375000
vt 0.66706000 0.46211000
vt 0.67010000 0.49302000
vt 0.40375000 0.98387000
vt 0.50000000 0.99335000
vt 0.51163000 0.65150000
vt 0.48071000 0.64845000
vt 0.04420000 0.31120000
vt 0.01613000 0.40375000
vt 0.35620000 0.46211000
vt 0.36522000 0.43238000
vt 0.84885000 0.15115000
vt 0.62369000 0.38097000
vt 0.77409000 0.91021000
vt 0.59967000 0.62479000
vt 0.04420000 0.68880000
vt 0.36522000 0.55367000
vt 0.40375000 0.01613000
vt 0.48071000 0.33759000
vt 0.98387000 0.59625000
vt 0.66706000 0.52394000
vt 0.31120000 0.95580000
vt 0.45098000 0.63943000
vt 0.08979000 0.22591000
vt 0.37986000 0.40498000
vt 0.91021000 0.22591000
vt 0.64339000 0.40498000
vt 0.68880000 0.95580000
vt 0.57227000 0.63943000
vt 0.01613000 0.59625000
vt 0.35620000 0.52394000
vt 0.59235000 0.01574000
vt 0.50000000 0.00665000
vt 0.51163000 0.33455000
vt 0.54129000 0.33747000
vt 0.54129000 0.33747000
vt 0.95580000 0.68880000
vt 0.65804000 0.55367000
vt 0.22591000 0.91021000
vt 0.42358000 0.62479000
vt 0.14707000 0.14944000
vt 0.39957000 0.38097000
vt 0.95580000 0.31120000
vt 0.65804000 0.43238000
vt 0.59625000 0.98387000
vt 0.54254000 0.64845000
vt 0.00665000 0.50000000
vt 0.35315000 0.49302000
vt 0.59625000 0.01613000
vt 0.59625000 0.01613000
vt 0.54254000 0.33759000
vt 0.54254000 0.33759000
vt 0.50000000 0.00665000
vt 0.59235000 0.01574000
vt 0.59625000 0.01613000
vt 0.68880000 0.04420000
vt 0.77409000 0.08979000
vt 0.84885000 0.15115000
vt 0.91021000 0.22591000
vt 0.95580000 0.31120000
vt 0.98387000 0.40375000
vt 0.99335000 0.50000000
vt 0.65350000 0.49302000
vt 0.65078000 0.46535000
vt 0.64270000 0.43873000
vt 0.62959000 0.41420000
vt 0.61195000 0.39270000
vt 0.59045000 0.37506000
vt 0.56592000 0.36195000
vt 0.53931000 0.35387000
vt 0.51163000 0.35115000
vt 0.48395000 0.35387000
vt 0.45733000 0.36195000
vt 0.43280000 0.37506000
vt 0.41130000 0.39270000
vt 0.39366000 0.41420000
vt 0.38055000 0.43873000
vt 0.37248000 0.46535000
vt 0.36975000 0.49302000
vt 0.00665000 0.50000000
vt 0.01613000 0.40375000
vt 0.04420000 0.31120000
vt 0.08979000 0.22591000
vt 0.15115000 0.15115000
vt 0.22591000 0.08979000
vt 0.31120000 0.04420000
vt 0.40375000 0.01613000
vt 0.37248000 0.52070000
vt 0.38055000 0.54732000
vt 0.39366000 0.57185000
vt 0.41130000 0.59335000
vt 0.43280000 0.61099000
vt 0.45733000 0.62410000
vt 0.48395000 0.63217000
vt 0.51163000 0.63490000
vt 0.53931000 0.63217000
vt 0.56592000 0.62410000
vt 0.59045000 0.61099000
vt 0.61195000 0.59335000
vt 0.62959000 0.57185000
vt 0.64270000 0.54732000
vt 0.65078000 0.52070000
vt 0.98387000 0.59625000
vt 0.95580000 0.68880000
vt 0.91021000 0.77409000
vt 0.84885000 0.84885000
vt 0.77409000 0.91021000
vt 0.68880000 0.95580000
vt 0.59625000 0.98387000
vt 0.50000000 0.99335000
vt 0.40375000 0.98387000
vt 0.31120000 0.95580000
vt 0.22591000 0.91021000
vt 0.15115000 0.84885000
vt 0.08979000 0.77409000
vt 0.04420000 0.68880000
vt 0.01613000 0.59625000
f 1/1/1 2/2/2 3/3/3
f 1/1/1 3/3/3 4/4/4
f 5/5/5 6/6/6 7/7/7
f 5/5/5 7/7/7 8/8/8
f 9/9/9 10/10/10 11/11/11
f 9/9/9 11/11/11 12/12/12
f 13/13/13 15/15/15 16/16/16
f 17/17/17 18/18/18 19/19/19
f 17/17/17 19/19/19 20/20/20
f 21/21/21 22/22/22 23/23/23
f 21/21/21 23/23/23 24/24/24
f 25/25/25 26/26/26 27/27/27
f 25/25/25 27/27/27 28/28/28
f 29/29/29 1/1/1 4/4/4
f 29/29/29 4/4/4 30/30/30
f 31/31/31 5/5/5 8/8/8
f 31/31/31 8/8/8 32/32/32
f 33/33/33 9/9/9 12/12/12
f 33/33/33 12/12/12 34/34/34
f 35/35/35 13/13/13 16/16/16
f 35/35/35 16/16/16 36/36/36
f 37/37/37 17/17/17 20/20/20
f 37/37/37 20/20/20 38/38/38
f 39/39/39 21/21/21 24/24/24
f 39/39/39 24/24/24 40/40/40
f 43/43/43 29/29/29 30/30/30
f 43/43/43 30/30/30 44/44/44
f 45/45/45 31/31/31 32/32/32
f 45/45/45 32/32/32 46/46/46
f 47/47/47 33/33/33 34/34/34
f 47/47/47 34/34/34 48/48/48
f 49/49/49 50/50/50 51/51/51
f 49/49/49 51/51/51 52/52/52
f 50/50/50 35/35/35 36/36/36
f 50/50/50 36/36/36 51/51/51
f 54/54/54 37/37/37 38/38/38
f 54/54/54 38/38/38 55/55/55
f 56/56/56 39/39/39 40/40/40
f 56/56/56 40/40/40 57/57/57
f 60/60/60 43/43/43 44/44/44
f 60/60/60 44/44/44 61/61/61
f 62/62/62 45/45/45 46/46/46
f 62/62/62 46/46/46 63/63/63
f 64/64/64 47/47/47 48/48/48
f 64/64/64 48/48/48 65/65/65
f 2/2/2 66/66/66 68/68/68
f 2/2/2 68/68/68 3/3/3
f 6/6/6 54/54/54 55/55/55
f 6/6/6 55/55/55 7/7/7
f 10/10/10 56/56/56 57/57/57
f 10/10/10 57/57/57 11/11/11
f 18/18/18 60/60/60 61/61/61
f 18/18/18 61/61/61 19/19/19
f 22/22/22 62/62/62 63/63/63
f 22/22/22 63/63/63 23/23/23
f 26/26/26 64/64/64 65/65/65
f 26/26/26 65/65/65 27/27/27
f 66/66/66 49/49/49 52/52/52
f 67/67/67 53/53/53 69/69/69
f 98/98/98 96/96/96 97/97/97
f 96/96/96 98/98/98 99/99/99
f 96/96/96 99/99/99 100/100/100
f 96/96/96 100/100/100 101/101/101
f 96/96/96 101/101/101 102/102/102
f 96/96/96 102/102/102 103/103/103
f 96/96/96 103/103/103 104/104/104
f 96/96/96 104/104/104 95/95/95
f 95/95/95 104/104/104 94/94/94
f 94/94/94 104/104/104 93/93/93
f 93/93/93 104/104/104 70/70/70
f 93/93/93 70/70/70 92/92/92
f 92/92/92 70/70/70 91/91/91
f 91/91/91 70/70/70 90/90/90
f 90/90/90 70/70/70 89/89/89
f 89/89/89 70/70/70 88/88/88
f 88/88/88 70/70/70 71/71/71
f 88/88/88 71/71/71 87/87/87
f 87/87/87 71/71/71 86/86/86
f 86/86/86 71/71/71 85/85/85
f 85/85/85 71/71/71 84/84/84
f 84/84/84 71/71/71 83/83/83
f 83/83/83 71/71/71 72/72/72
f 83/83/83 72/72/72 82/82/82
f 82/82/82 72/72/72 73/73/73
f 82/82/82 73/73/73 81/81/81
f 81/81/81 73/73/73 80/80/80
f 80/80/80 73/73/73 79/79/79
f 79/79/79 73/73/73 74/74/74
f 79/79/79 74/74/74 75/75/75
f 79/79/79 75/75/75 76/76/76
f 79/79/79 76/76/76 77/77/77
f 79/79/79 77/77/77 78/78/78
f 96/96/96 134/134/134 97/97/97
f 134/134/134 96/96/96 133/133/133
f 133/133/133 96/96/96 132/132/132
f 132/132/132 96/96/96 131/131/131
f 131/131/131 96/96/96 130/130/130
f 130/130/130 96/96/96 129/129/129
f 129/129/129 96/96/96 128/128/128
f 128/128/128 96/96/96 105/105/105
f 128/128/128 105/105/105 106/106/106
f 128/128/128 106/106/106 107/107/107
f 128/128/128 107/107/107 127/127/127
f 127/127/127 107/107/107 108/108/108
f 127/127/127 108/108/108 109/109/109
f 127/127/127 109/109/109 110/110/110
f 127/127/127 110/110/110 111/111/111
f 127/127/127 111/111/111 112/112/112
f 127/127/127 112/112/112 113/113/113
f 127/127/127 113/113/113 126/126/126
f 126/126/126 113/113/113 114/114/114
f 126/126/126 114/114/114 115/115/115
f 126/126/126 115/115/115 116/116/116
f 126/126/126 116/116/116 117/117/117
f 126/126/126 117/117/117 118/118/118
f 126/126/126 118/118/118 125/125/125
f 125/125/125 118/118/118 119/119/119
f 125/125/125 119/119/119 80/80/80
f 125/125/125 80/80/80 79/79/79
f 125/125/125 79/79/79 124/124/124
f 124/124/124 79/79/79 123/123/123
f 123/123/123 79/79/79 122/122/122
f 122/122/122 79/79/79 121/121/121
f 121/121/121 79/79/79 120/120/120
f 13/13/13 14/14/14 15/15/15
f 41/41/41 25/25/25 28/28/28
f 41/41/41 28/28/28 42/42/42
f 58/58/58 41/41/41 42/42/42
f 58/58/58 42/42/42 59/59/59
f 14/14/14 58/58/58 59/59/59
f 14/14/14 59/59/59 15/15/15