<?xml version="1.0" encoding="UTF-8" standalone="no"?>
<!-- Created with Inkscape (http://www.inkscape.org/) -->

<svg
   xmlns:dc="http://purl.org/dc/elements/1.1/"
   xmlns:cc="http://creativecommons.org/ns#"
   xmlns:rdf="http://www.w3.org/1999/02/22-rdf-syntax-ns#"
   xmlns:svg="http://www.w3.org/2000/svg"
   xmlns="http://www.w3.org/2000/svg"
   xmlns:sodipodi="http://sodipodi.sourceforge.net/DTD/sodipodi-0.dtd"
   xmlns:inkscape="http://www.inkscape.org/namespaces/inkscape"
   width="248.65234mm"
   height="134.52341mm"
   viewBox="0 0 248.65234 134.52341"
   version="1.1"
   id="svg16684"
   inkscape:export-filename="/home/penkod/WORK/git_work/ggd2/doc/guide/source/images/example_2_8.png"
   inkscape:export-xdpi="200"
   inkscape:export-ydpi="200"
   inkscape:version="0.92.4 (5da689c313, 2019-01-14)"
   sodipodi:docname="example_2_8.svg">
  <defs
     id="defs16678">
    <marker
       inkscape:stockid="Arrow1Mend"
       orient="auto"
       refY="0"
       refX="0"
       id="Arrow1Mend"
       style="overflow:visible"
       inkscape:isstock="true"
       inkscape:collect="always">
      <path
         id="path6810"
         d="M 0,0 5,-5 -12.5,0 5,5 Z"
         style="fill:#000000;fill-opacity:1;fill-rule:evenodd;stroke:#000000;stroke-width:1.00000003pt;stroke-opacity:1"
         transform="matrix(-0.4,0,0,-0.4,-4,0)"
         inkscape:connector-curvature="0" />
    </marker>
    <marker
       inkscape:isstock="true"
       style="overflow:visible"
       id="marker7319"
       refX="0"
       refY="0"
       orient="auto"
       inkscape:stockid="Arrow1Mend">
      <path
         transform="matrix(-0.4,0,0,-0.4,-4,0)"
         style="fill:#000000;fill-opacity:1;fill-rule:evenodd;stroke:#000000;stroke-width:1.00000003pt;stroke-opacity:1"
         d="M 0,0 5,-5 -12.5,0 5,5 Z"
         id="path7317"
         inkscape:connector-curvature="0" />
    </marker>
  </defs>
  <sodipodi:namedview
     id="base"
     pagecolor="#ffffff"
     bordercolor="#666666"
     borderopacity="1.0"
     inkscape:pageopacity="0.0"
     inkscape:pageshadow="2"
     inkscape:zoom="0.49497475"
     inkscape:cx="692.77809"
     inkscape:cy="28.950676"
     inkscape:document-units="mm"
     inkscape:current-layer="layer1"
     showgrid="false"
     fit-margin-top="0"
     fit-margin-left="0"
     fit-margin-right="0"
     fit-margin-bottom="0"
     inkscape:window-width="1920"
     inkscape:window-height="988"
     inkscape:window-x="0"
     inkscape:window-y="0"
     inkscape:window-maximized="1" />
  <metadata
     id="metadata16681">
    <rdf:RDF>
      <cc:Work
         rdf:about="">
        <dc:format>image/svg+xml</dc:format>
        <dc:type
           rdf:resource="http://purl.org/dc/dcmitype/StillImage" />
        <dc:title></dc:title>
      </cc:Work>
    </rdf:RDF>
  </metadata>
  <g
     inkscape:label="Layer 1"
     inkscape:groupmode="layer"
     id="layer1"
     transform="translate(182.91248,-11.880305)">
    <g
       transform="matrix(0.35654488,0,0,0.35654488,-354.50039,76.922464)"
       id="g279213">
      <path
         inkscape:connector-curvature="0"
         id="path279215"
         style="fill:#33949b;fill-opacity:1;fill-rule:nonzero;stroke:#000000;stroke-width:2.45196891;stroke-linecap:butt;stroke-linejoin:miter;stroke-miterlimit:4;stroke-dasharray:none;stroke-opacity:1"
         d="m 545.168,27.23 c 0,3.551 -2.879,6.43 -6.43,6.43 -3.55,0 -6.429,-2.879 -6.429,-6.43 0,-3.55 2.879,-6.425 6.429,-6.425 3.551,0 6.43,2.875 6.43,6.425 z" />
    </g>
    <g
       transform="matrix(0.35654488,0,0,0.35654488,-354.50039,76.922464)"
       id="g279233">
      <path
         inkscape:connector-curvature="0"
         id="path279235"
         style="fill:#33949b;fill-opacity:1;fill-rule:nonzero;stroke:#000000;stroke-width:2.45196891;stroke-linecap:butt;stroke-linejoin:miter;stroke-miterlimit:4;stroke-dasharray:none;stroke-opacity:1"
         d="m 544.992,166.578 c 0,3.551 -2.879,6.43 -6.429,6.43 -3.551,0 -6.43,-2.879 -6.43,-6.43 0,-3.551 2.879,-6.43 6.43,-6.43 3.55,0 6.429,2.879 6.429,6.43 z" />
    </g>
    <g
       transform="matrix(0.35654488,0,0,0.35654488,-354.50039,76.922464)"
       id="g279253">
      <path
         inkscape:connector-curvature="0"
         id="path279255"
         style="fill:#33949b;fill-opacity:1;fill-rule:nonzero;stroke:#000000;stroke-width:2.45196891;stroke-linecap:butt;stroke-linejoin:miter;stroke-miterlimit:4;stroke-dasharray:none;stroke-opacity:1"
         d="m 684.109,26.988 c 0,3.551 -2.879,6.43 -6.429,6.43 -3.547,0 -6.426,-2.879 -6.426,-6.43 0,-3.55 2.879,-6.425 6.426,-6.425 3.55,0 6.429,2.875 6.429,6.425 z" />
    </g>
    <g
       transform="matrix(0.35654488,0,0,0.35654488,-354.50039,76.922464)"
       id="g279273">
      <path
         inkscape:connector-curvature="0"
         id="path279275"
         style="fill:#33949b;fill-opacity:1;fill-rule:nonzero;stroke:#000000;stroke-width:2.45196891;stroke-linecap:butt;stroke-linejoin:miter;stroke-miterlimit:4;stroke-dasharray:none;stroke-opacity:1"
         d="m 683.855,166.113 c 0,3.551 -2.878,6.43 -6.429,6.43 -3.551,0 -6.43,-2.879 -6.43,-6.43 0,-3.55 2.879,-6.429 6.43,-6.429 3.551,0 6.429,2.879 6.429,6.429 z" />
    </g>
    <g
       transform="matrix(0.35654488,0,0,0.35654488,-354.50039,76.922464)"
       id="g279293">
      <path
         inkscape:connector-curvature="0"
         id="path279295"
         style="fill:none;stroke:#3249a2;stroke-width:2.4094491;stroke-linecap:butt;stroke-linejoin:miter;stroke-miterlimit:4;stroke-dasharray:none;stroke-opacity:1"
         d="M 670.094,27.191 H 546.254" />
    </g>
    <g
       transform="matrix(0.35654488,0,0,0.35654488,-354.50039,76.922464)"
       id="g279297">
      <path
         inkscape:connector-curvature="0"
         id="path279299"
         style="fill:none;stroke:#3249a2;stroke-width:2.4094491;stroke-linecap:butt;stroke-linejoin:miter;stroke-miterlimit:4;stroke-dasharray:none;stroke-opacity:1"
         d="M 669.914,166.609 H 546.074" />
    </g>
    <g
       transform="matrix(0.35654488,0,0,0.35654488,-354.50039,76.922464)"
       id="g279301">
      <path
         inkscape:connector-curvature="0"
         id="path279303"
         style="fill:none;stroke:#3249a2;stroke-width:2.4094491;stroke-linecap:butt;stroke-linejoin:miter;stroke-miterlimit:4;stroke-dasharray:none;stroke-opacity:1"
         d="M 538.754,159.023 V 34.844" />
    </g>
    <g
       transform="matrix(0.35654488,0,0,0.35654488,-354.50039,76.922464)"
       id="g279305">
      <path
         inkscape:connector-curvature="0"
         id="path279307"
         style="fill:none;stroke:#3249a2;stroke-width:2.4094491;stroke-linecap:butt;stroke-linejoin:miter;stroke-miterlimit:4;stroke-dasharray:none;stroke-opacity:1"
         d="M 677.332,158.574 V 34.398" />
    </g>
    <path
       inkscape:connector-curvature="0"
       id="path279373"
       style="fill:#aaccff;fill-opacity:1;fill-rule:nonzero;stroke:none;stroke-width:0.35654485"
       d="m -159.82544,135.46131 c -0.12268,-0.56121 -1.04753,-1.54884 -1.62691,-1.73959 l -0.46208,-0.15324 V 89.428237 l 0.50665,-0.211778 c 0.68384,-0.285608 1.23151,-0.823278 1.54349,-1.513906 l 0.25883,-0.574037 h 43.99587 l 0.15293,0.46387 c 0.17577,0.529476 1.05716,1.384468 1.63797,1.586249 l 0.39148,0.136631 v 44.105664 l -0.39433,0.0796 c -0.73949,0.1476 -1.90254,1.47896 -1.90254,2.17672 0,0.18683 -2.28117,0.20893 -22.00415,0.20893 h -22.00382 z" />
    <path
       inkscape:connector-curvature="0"
       id="path279375"
       style="fill:#c8beb7;fill-opacity:1;fill-rule:nonzero;stroke:none;stroke-width:0.35654485"
       d="m -159.80049,135.48091 c -0.10592,-0.52946 -1.07248,-1.56986 -1.65436,-1.78021 l -0.45958,-0.16545 V 89.465591 l 0.54444,-0.246374 c 0.62681,-0.282741 1.33989,-1.016849 1.60303,-1.653295 l 0.18111,-0.437485 h 43.94275 l 0.1697,0.466723 c 0.18826,0.519479 1.24256,1.52207 1.73139,1.64474 l 0.31483,0.07819 v 44.10281 l -0.43035,0.0863 c -0.49882,0.0992 -1.53065,1.10886 -1.80519,1.76633 l -0.18113,0.43285 -3.26986,0.0906 c -1.79949,0.0487 -11.6715,0.0892 -21.93893,0.0892 h -18.66691 z" />
    <g
       id="g7159"
       transform="matrix(0.35654488,0,0,0.35654488,-305.29687,76.922464)">
      <path
         d="m 684.109,26.988 c 0,3.551 -2.879,6.43 -6.429,6.43 -3.547,0 -6.426,-2.879 -6.426,-6.43 0,-3.55 2.879,-6.425 6.426,-6.425 3.55,0 6.429,2.875 6.429,6.425 z"
         style="fill:#33949b;fill-opacity:1;fill-rule:nonzero;stroke:#000000;stroke-width:2.45196891;stroke-linecap:butt;stroke-linejoin:miter;stroke-miterlimit:4;stroke-dasharray:none;stroke-opacity:1"
         id="path7157"
         inkscape:connector-curvature="0" />
    </g>
    <g
       id="g7163"
       transform="matrix(0.35654488,0,0,0.35654488,-305.29687,76.922464)">
      <path
         d="m 683.855,166.113 c 0,3.551 -2.878,6.43 -6.429,6.43 -3.551,0 -6.43,-2.879 -6.43,-6.43 0,-3.55 2.879,-6.429 6.43,-6.429 3.551,0 6.429,2.879 6.429,6.429 z"
         style="fill:#33949b;fill-opacity:1;fill-rule:nonzero;stroke:#000000;stroke-width:2.45196891;stroke-linecap:butt;stroke-linejoin:miter;stroke-miterlimit:4;stroke-dasharray:none;stroke-opacity:1"
         id="path7161"
         inkscape:connector-curvature="0" />
    </g>
    <g
       id="g7167"
       transform="matrix(0.35654488,0,0,0.35654488,-305.29687,76.922464)">
      <path
         d="M 670.094,27.191 H 546.254"
         style="fill:none;stroke:#3249a2;stroke-width:2.4094491;stroke-linecap:butt;stroke-linejoin:miter;stroke-miterlimit:4;stroke-dasharray:none;stroke-opacity:1"
         id="path7165-8"
         inkscape:connector-curvature="0" />
    </g>
    <g
       id="g7171"
       transform="matrix(0.35654488,0,0,0.35654488,-305.29687,76.922464)">
      <path
         d="M 669.914,166.609 H 546.074"
         style="fill:none;stroke:#3249a2;stroke-width:2.4094491;stroke-linecap:butt;stroke-linejoin:miter;stroke-miterlimit:4;stroke-dasharray:none;stroke-opacity:1"
         id="path7169"
         inkscape:connector-curvature="0" />
    </g>
    <g
       id="g7175"
       transform="matrix(0.35654488,0,0,0.35654488,-305.29687,76.922464)">
      <path
         d="M 677.332,158.574 V 34.398"
         style="fill:none;stroke:#3249a2;stroke-width:2.4094491;stroke-linecap:butt;stroke-linejoin:miter;stroke-miterlimit:4;stroke-dasharray:none;stroke-opacity:1"
         id="path7173"
         inkscape:connector-curvature="0" />
    </g>
    <path
       d="m -110.59725,135.48091 c -0.10592,-0.52946 -1.0725,-1.56986 -1.65437,-1.78021 l -0.45958,-0.16545 V 89.465591 l 0.54444,-0.246374 c 0.62679,-0.282741 1.33989,-1.016849 1.60303,-1.653295 l 0.18111,-0.437485 h 43.942887 l 0.169723,0.466723 c 0.188259,0.519479 1.242557,1.52207 1.731388,1.64474 l 0.314831,0.07819 v 44.10281 l -0.430356,0.0863 c -0.498812,0.0992 -1.530656,1.10886 -1.805187,1.76633 l -0.18113,0.43285 -3.269894,0.0906 c -1.799499,0.0487 -11.671573,0.0892 -21.939047,0.0892 h -18.666915 z"
       style="fill:#c8beb7;fill-opacity:1;fill-rule:nonzero;stroke:none;stroke-width:0.35654485"
       id="path7177"
       inkscape:connector-curvature="0" />
    <g
       transform="matrix(0.35654488,0,0,0.35654488,-256.0936,76.922464)"
       id="g7181">
      <path
         inkscape:connector-curvature="0"
         id="path7179"
         style="fill:#33949b;fill-opacity:1;fill-rule:nonzero;stroke:#000000;stroke-width:2.45196891;stroke-linecap:butt;stroke-linejoin:miter;stroke-miterlimit:4;stroke-dasharray:none;stroke-opacity:1"
         d="m 684.109,26.988 c 0,3.551 -2.879,6.43 -6.429,6.43 -3.547,0 -6.426,-2.879 -6.426,-6.43 0,-3.55 2.879,-6.425 6.426,-6.425 3.55,0 6.429,2.875 6.429,6.425 z" />
    </g>
    <g
       transform="matrix(0.35654488,0,0,0.35654488,-256.0936,76.922464)"
       id="g7185">
      <path
         inkscape:connector-curvature="0"
         id="path7183"
         style="fill:#33949b;fill-opacity:1;fill-rule:nonzero;stroke:#000000;stroke-width:2.45196891;stroke-linecap:butt;stroke-linejoin:miter;stroke-miterlimit:4;stroke-dasharray:none;stroke-opacity:1"
         d="m 683.855,166.113 c 0,3.551 -2.878,6.43 -6.429,6.43 -3.551,0 -6.43,-2.879 -6.43,-6.43 0,-3.55 2.879,-6.429 6.43,-6.429 3.551,0 6.429,2.879 6.429,6.429 z" />
    </g>
    <g
       transform="matrix(0.35654488,0,0,0.35654488,-256.0936,76.922464)"
       id="g7189">
      <path
         inkscape:connector-curvature="0"
         id="path7187"
         style="fill:none;stroke:#3249a2;stroke-width:2.4094491;stroke-linecap:butt;stroke-linejoin:miter;stroke-miterlimit:4;stroke-dasharray:none;stroke-opacity:1"
         d="M 670.094,27.191 H 546.254" />
    </g>
    <g
       transform="matrix(0.35654488,0,0,0.35654488,-256.0936,76.922464)"
       id="g7193">
      <path
         inkscape:connector-curvature="0"
         id="path7191"
         style="fill:none;stroke:#3249a2;stroke-width:2.4094491;stroke-linecap:butt;stroke-linejoin:miter;stroke-miterlimit:4;stroke-dasharray:none;stroke-opacity:1"
         d="M 669.914,166.609 H 546.074" />
    </g>
    <g
       transform="matrix(0.35654488,0,0,0.35654488,-256.0936,76.922464)"
       id="g7197">
      <path
         inkscape:connector-curvature="0"
         id="path7195"
         style="fill:none;stroke:#3249a2;stroke-width:2.4094491;stroke-linecap:butt;stroke-linejoin:miter;stroke-miterlimit:4;stroke-dasharray:none;stroke-opacity:1"
         d="M 677.332,158.574 V 34.398" />
    </g>
    <path
       inkscape:connector-curvature="0"
       id="path7199"
       style="fill:#c8beb7;fill-opacity:1;fill-rule:nonzero;stroke:none;stroke-width:0.35654485"
       d="m -61.393842,135.48091 c -0.105921,-0.52946 -1.072489,-1.56986 -1.654392,-1.78021 l -0.459578,-0.16545 V 89.465591 l 0.544439,-0.246374 c 0.62681,-0.282741 1.339906,-1.016849 1.603046,-1.653295 l 0.181114,-0.437485 h 43.942995 l 0.169707,0.466723 c 0.188259,0.519479 1.242572,1.52207 1.731404,1.64474 l 0.31483,0.07819 v 44.10281 l -0.430356,0.0863 c -0.498812,0.0992 -1.530672,1.10886 -1.805202,1.76633 l -0.18113,0.43285 -3.269878,0.0906 c -1.7995,0.0487 -11.671576,0.0892 -21.93906,0.0892 h -18.667011 z" />
    <g
       id="g7203"
       transform="matrix(0.35654488,0,0,0.35654488,-206.89036,76.922464)">
      <path
         d="m 684.109,26.988 c 0,3.551 -2.879,6.43 -6.429,6.43 -3.547,0 -6.426,-2.879 -6.426,-6.43 0,-3.55 2.879,-6.425 6.426,-6.425 3.55,0 6.429,2.875 6.429,6.425 z"
         style="fill:#33949b;fill-opacity:1;fill-rule:nonzero;stroke:#000000;stroke-width:2.45196891;stroke-linecap:butt;stroke-linejoin:miter;stroke-miterlimit:4;stroke-dasharray:none;stroke-opacity:1"
         id="path7201"
         inkscape:connector-curvature="0" />
    </g>
    <g
       id="g7207"
       transform="matrix(0.35654488,0,0,0.35654488,-206.89036,76.922464)">
      <path
         d="m 683.855,166.113 c 0,3.551 -2.878,6.43 -6.429,6.43 -3.551,0 -6.43,-2.879 -6.43,-6.43 0,-3.55 2.879,-6.429 6.43,-6.429 3.551,0 6.429,2.879 6.429,6.429 z"
         style="fill:#33949b;fill-opacity:1;fill-rule:nonzero;stroke:#000000;stroke-width:2.45196891;stroke-linecap:butt;stroke-linejoin:miter;stroke-miterlimit:4;stroke-dasharray:none;stroke-opacity:1"
         id="path7205"
         inkscape:connector-curvature="0" />
    </g>
    <g
       id="g7211"
       transform="matrix(0.35654488,0,0,0.35654488,-206.89036,76.922464)">
      <path
         d="M 670.094,27.191 H 546.254"
         style="fill:none;stroke:#3249a2;stroke-width:2.4094491;stroke-linecap:butt;stroke-linejoin:miter;stroke-miterlimit:4;stroke-dasharray:none;stroke-opacity:1"
         id="path7209"
         inkscape:connector-curvature="0" />
    </g>
    <g
       id="g7215"
       transform="matrix(0.35654488,0,0,0.35654488,-206.89036,76.922464)">
      <path
         d="M 669.914,166.609 H 546.074"
         style="fill:none;stroke:#3249a2;stroke-width:2.4094491;stroke-linecap:butt;stroke-linejoin:miter;stroke-miterlimit:4;stroke-dasharray:none;stroke-opacity:1"
         id="path7213"
         inkscape:connector-curvature="0" />
    </g>
    <g
       id="g7219"
       transform="matrix(0.35654488,0,0,0.35654488,-206.89036,76.922464)">
      <path
         d="M 677.332,158.574 V 34.398"
         style="fill:none;stroke:#3249a2;stroke-width:2.4094491;stroke-linecap:butt;stroke-linejoin:miter;stroke-miterlimit:4;stroke-dasharray:none;stroke-opacity:1"
         id="path7217"
         inkscape:connector-curvature="0" />
    </g>
    <path
       d="m -12.190359,135.48091 c -0.10592,-0.52946 -1.072489,-1.56986 -1.654376,-1.78021 l -0.459594,-0.16545 V 89.465591 l 0.54444,-0.246374 c 0.626825,-0.282741 1.339921,-1.016849 1.603045,-1.653295 l 0.18113,-0.437485 h 43.942978 l 0.169707,0.466723 c 0.188259,0.519479 1.242572,1.52207 1.731403,1.64474 l 0.314831,0.07819 v 44.10281 l -0.430356,0.0863 c -0.498812,0.0992 -1.530656,1.10886 -1.805187,1.76633 l -0.181145,0.43285 -3.269879,0.0906 c -1.799499,0.0487 -11.671573,0.0892 -21.9390622,0.0892 H -12.109431 Z"
       style="fill:#ebc2a5;fill-opacity:1;fill-rule:nonzero;stroke:none;stroke-width:0.35654485"
       id="path7221"
       inkscape:connector-curvature="0" />
    <g
       id="g7225"
       transform="matrix(0.35654488,0,0,0.35654488,-354.50039,27.184126)">
      <path
         d="m 545.168,27.23 c 0,3.551 -2.879,6.43 -6.43,6.43 -3.55,0 -6.429,-2.879 -6.429,-6.43 0,-3.55 2.879,-6.425 6.429,-6.425 3.551,0 6.43,2.875 6.43,6.425 z"
         style="fill:#33949b;fill-opacity:1;fill-rule:nonzero;stroke:#000000;stroke-width:2.45196891;stroke-linecap:butt;stroke-linejoin:miter;stroke-miterlimit:4;stroke-dasharray:none;stroke-opacity:1"
         id="path7223"
         inkscape:connector-curvature="0" />
    </g>
    <g
       id="g7229"
       transform="matrix(0.35654488,0,0,0.35654488,-354.50039,27.184126)">
      <path
         d="m 684.109,26.988 c 0,3.551 -2.879,6.43 -6.429,6.43 -3.547,0 -6.426,-2.879 -6.426,-6.43 0,-3.55 2.879,-6.425 6.426,-6.425 3.55,0 6.429,2.875 6.429,6.425 z"
         style="fill:#33949b;fill-opacity:1;fill-rule:nonzero;stroke:#000000;stroke-width:2.45196891;stroke-linecap:butt;stroke-linejoin:miter;stroke-miterlimit:4;stroke-dasharray:none;stroke-opacity:1"
         id="path7227"
         inkscape:connector-curvature="0" />
    </g>
    <g
       id="g7233"
       transform="matrix(0.35654488,0,0,0.35654488,-354.50039,27.184126)">
      <path
         d="M 670.094,27.191 H 546.254"
         style="fill:none;stroke:#3249a2;stroke-width:2.4094491;stroke-linecap:butt;stroke-linejoin:miter;stroke-miterlimit:4;stroke-dasharray:none;stroke-opacity:1"
         id="path7231"
         inkscape:connector-curvature="0" />
    </g>
    <g
       id="g7237"
       transform="matrix(0.35654488,0,0,0.35654488,-354.50039,27.184126)">
      <path
         d="M 538.754,159.023 V 34.844"
         style="fill:none;stroke:#3249a2;stroke-width:2.4094491;stroke-linecap:butt;stroke-linejoin:miter;stroke-miterlimit:4;stroke-dasharray:none;stroke-opacity:1"
         id="path7235"
         inkscape:connector-curvature="0" />
    </g>
    <g
       id="g7241"
       transform="matrix(0.35654488,0,0,0.35654488,-354.50039,27.184126)">
      <path
         d="M 677.332,158.574 V 34.398"
         style="fill:none;stroke:#3249a2;stroke-width:2.4094491;stroke-linecap:butt;stroke-linejoin:miter;stroke-miterlimit:4;stroke-dasharray:none;stroke-opacity:1"
         id="path7239"
         inkscape:connector-curvature="0" />
    </g>
    <path
       d="m -159.80049,85.742575 c -0.10592,-0.52946 -1.07248,-1.569844 -1.65436,-1.780211 l -0.45958,-0.165446 V 39.727256 l 0.54444,-0.246374 c 0.62681,-0.282741 1.33989,-1.016865 1.60303,-1.653295 l 0.18111,-0.437484 h 43.94275 l 0.1697,0.466722 c 0.18826,0.519479 1.24256,1.522086 1.73139,1.64474 l 0.31483,0.07819 v 44.102817 l -0.43035,0.08633 c -0.49882,0.09918 -1.53065,1.108856 -1.80519,1.766313 l -0.18113,0.432847 -3.26986,0.09056 c -1.79949,0.04889 -11.6715,0.08915 -21.93893,0.08915 h -18.66691 z"
       style="fill:#c8beb7;fill-opacity:1;fill-rule:nonzero;stroke:none;stroke-width:0.35654485"
       id="path7243"
       inkscape:connector-curvature="0" />
    <g
       transform="matrix(0.35654488,0,0,0.35654488,-305.29687,27.184126)"
       id="g7247">
      <path
         inkscape:connector-curvature="0"
         id="path7245"
         style="fill:#33949b;fill-opacity:1;fill-rule:nonzero;stroke:#000000;stroke-width:2.45196891;stroke-linecap:butt;stroke-linejoin:miter;stroke-miterlimit:4;stroke-dasharray:none;stroke-opacity:1"
         d="m 684.109,26.988 c 0,3.551 -2.879,6.43 -6.429,6.43 -3.547,0 -6.426,-2.879 -6.426,-6.43 0,-3.55 2.879,-6.425 6.426,-6.425 3.55,0 6.429,2.875 6.429,6.425 z" />
    </g>
    <g
       transform="matrix(0.35654488,0,0,0.35654488,-305.29687,27.184126)"
       id="g7251">
      <path
         inkscape:connector-curvature="0"
         id="path7249"
         style="fill:none;stroke:#3249a2;stroke-width:2.4094491;stroke-linecap:butt;stroke-linejoin:miter;stroke-miterlimit:4;stroke-dasharray:none;stroke-opacity:1"
         d="M 670.094,27.191 H 546.254" />
    </g>
    <g
       transform="matrix(0.35654488,0,0,0.35654488,-305.29687,27.184126)"
       id="g7255">
      <path
         inkscape:connector-curvature="0"
         id="path7253"
         style="fill:none;stroke:#3249a2;stroke-width:2.4094491;stroke-linecap:butt;stroke-linejoin:miter;stroke-miterlimit:4;stroke-dasharray:none;stroke-opacity:1"
         d="M 677.332,158.574 V 34.398" />
    </g>
    <path
       inkscape:connector-curvature="0"
       id="path7257"
       style="fill:#c8beb7;fill-opacity:1;fill-rule:nonzero;stroke:none;stroke-width:0.35654485"
       d="m -110.59725,85.742575 c -0.10592,-0.52946 -1.0725,-1.569844 -1.65437,-1.780211 l -0.45958,-0.165446 V 39.727256 l 0.54444,-0.246374 c 0.62679,-0.282741 1.33989,-1.016865 1.60303,-1.653295 l 0.18111,-0.437484 h 43.942887 l 0.169723,0.466722 c 0.188259,0.519479 1.242557,1.522086 1.731388,1.64474 l 0.314831,0.07819 v 44.102817 l -0.430356,0.08633 c -0.498812,0.09918 -1.530656,1.108856 -1.805187,1.766313 l -0.18113,0.432847 -3.269894,0.09056 c -1.799499,0.04889 -11.671573,0.08915 -21.939047,0.08915 h -18.666915 z" />
    <g
       id="g7261"
       transform="matrix(0.35654488,0,0,0.35654488,-256.0936,27.184126)">
      <path
         d="m 684.109,26.988 c 0,3.551 -2.879,6.43 -6.429,6.43 -3.547,0 -6.426,-2.879 -6.426,-6.43 0,-3.55 2.879,-6.425 6.426,-6.425 3.55,0 6.429,2.875 6.429,6.425 z"
         style="fill:#33949b;fill-opacity:1;fill-rule:nonzero;stroke:#000000;stroke-width:2.45196891;stroke-linecap:butt;stroke-linejoin:miter;stroke-miterlimit:4;stroke-dasharray:none;stroke-opacity:1"
         id="path7259"
         inkscape:connector-curvature="0" />
    </g>
    <g
       id="g7265"
       transform="matrix(0.35654488,0,0,0.35654488,-256.0936,27.184126)">
      <path
         d="M 670.094,27.191 H 546.254"
         style="fill:none;stroke:#3249a2;stroke-width:2.4094491;stroke-linecap:butt;stroke-linejoin:miter;stroke-miterlimit:4;stroke-dasharray:none;stroke-opacity:1"
         id="path7263"
         inkscape:connector-curvature="0" />
    </g>
    <g
       id="g7269"
       transform="matrix(0.35654488,0,0,0.35654488,-256.0936,27.184126)">
      <path
         d="M 677.332,158.574 V 34.398"
         style="fill:none;stroke:#3249a2;stroke-width:2.4094491;stroke-linecap:butt;stroke-linejoin:miter;stroke-miterlimit:4;stroke-dasharray:none;stroke-opacity:1"
         id="path7267"
         inkscape:connector-curvature="0" />
    </g>
    <path
       d="m -61.393842,85.742575 c -0.105921,-0.52946 -1.072489,-1.569844 -1.654392,-1.780211 l -0.459578,-0.165446 V 39.727256 l 0.544439,-0.246374 c 0.62681,-0.282741 1.339906,-1.016865 1.603046,-1.653295 l 0.181114,-0.437484 h 43.942995 l 0.169707,0.466722 c 0.188259,0.519479 1.242572,1.522086 1.731404,1.64474 l 0.31483,0.07819 v 44.102817 l -0.430356,0.08633 c -0.498812,0.09918 -1.530672,1.108856 -1.805202,1.766313 l -0.18113,0.432847 -3.269878,0.09056 c -1.7995,0.04889 -11.671576,0.08915 -21.93906,0.08915 h -18.667011 z"
       style="fill:#c8beb7;fill-opacity:1;fill-rule:nonzero;stroke:none;stroke-width:0.35654485"
       id="path7271"
       inkscape:connector-curvature="0" />
    <g
       transform="matrix(0.35654488,0,0,0.35654488,-206.89036,27.184126)"
       id="g7275">
      <path
         inkscape:connector-curvature="0"
         id="path7273"
         style="fill:#33949b;fill-opacity:1;fill-rule:nonzero;stroke:#000000;stroke-width:2.45196891;stroke-linecap:butt;stroke-linejoin:miter;stroke-miterlimit:4;stroke-dasharray:none;stroke-opacity:1"
         d="m 684.109,26.988 c 0,3.551 -2.879,6.43 -6.429,6.43 -3.547,0 -6.426,-2.879 -6.426,-6.43 0,-3.55 2.879,-6.425 6.426,-6.425 3.55,0 6.429,2.875 6.429,6.425 z" />
    </g>
    <g
       transform="matrix(0.35654488,0,0,0.35654488,-206.89036,27.184126)"
       id="g7279">
      <path
         inkscape:connector-curvature="0"
         id="path7277"
         style="fill:none;stroke:#3249a2;stroke-width:2.4094491;stroke-linecap:butt;stroke-linejoin:miter;stroke-miterlimit:4;stroke-dasharray:none;stroke-opacity:1"
         d="M 670.094,27.191 H 546.254" />
    </g>
    <g
       transform="matrix(0.35654488,0,0,0.35654488,-206.89036,27.184126)"
       id="g7283">
      <path
         inkscape:connector-curvature="0"
         id="path7281"
         style="fill:none;stroke:#3249a2;stroke-width:2.4094491;stroke-linecap:butt;stroke-linejoin:miter;stroke-miterlimit:4;stroke-dasharray:none;stroke-opacity:1"
         d="M 677.332,158.574 V 34.398" />
    </g>
    <path
       inkscape:connector-curvature="0"
       id="path7285"
       style="fill:#ebc2a5;fill-opacity:1;fill-rule:nonzero;stroke:none;stroke-width:0.35654485"
       d="m -12.190359,85.742575 c -0.10592,-0.52946 -1.072489,-1.569844 -1.654376,-1.780211 l -0.459594,-0.165446 V 39.727256 l 0.54444,-0.246374 c 0.626825,-0.282741 1.339921,-1.016865 1.603045,-1.653295 l 0.18113,-0.437484 h 43.942978 l 0.169707,0.466722 c 0.188259,0.519479 1.242572,1.522086 1.731403,1.64474 l 0.314831,0.07819 v 44.102817 l -0.430356,0.08633 c -0.498812,0.09918 -1.530656,1.108856 -1.805187,1.766313 l -0.181145,0.432847 -3.269879,0.09056 c -1.799499,0.04889 -11.671573,0.08915 -21.9390622,0.08915 H -12.109431 Z" />
    <path
       style="fill:none;stroke:#000000;stroke-width:1.01067841;stroke-linecap:butt;stroke-linejoin:miter;stroke-miterlimit:4;stroke-dasharray:none;stroke-opacity:1;marker-end:url(#marker7319)"
       d="M 36.934638,136.14921 H 63.010244"
       id="path7287"
       inkscape:connector-curvature="0" />
    <path
       style="fill:none;stroke:#000000;stroke-width:1.01067841;stroke-linecap:butt;stroke-linejoin:miter;stroke-miterlimit:4;stroke-dasharray:none;stroke-opacity:1;marker-end:url(#Arrow1Mend)"
       d="M -162.47256,34.426296 V 13.87203"
       id="path7289"
       inkscape:connector-curvature="0" />
    <text
       xml:space="preserve"
       style="font-style:normal;font-weight:normal;font-size:8.55707741px;line-height:0;font-family:sans-serif;letter-spacing:0px;word-spacing:0px;fill:#000000;fill-opacity:1;stroke:none;stroke-width:0.26740867"
       x="60.145168"
       y="146.40372"
       id="text7461"><tspan
         sodipodi:role="line"
         id="tspan7459"
         x="60.145168"
         y="146.40372"
         style="font-size:8.55707741px;stroke-width:0.26740867">X</tspan></text>
    <text
       xml:space="preserve"
       style="font-style:normal;font-weight:normal;font-size:8.55707741px;line-height:0;font-family:sans-serif;letter-spacing:0px;word-spacing:0px;fill:#000000;fill-opacity:1;stroke:none;stroke-width:0.26740867"
       x="-171.54535"
       y="20.721594"
       id="text7465"><tspan
         sodipodi:role="line"
         id="tspan7463"
         x="-171.54535"
         y="20.721594"
         style="font-size:8.55707741px;stroke-width:0.26740867">Y</tspan></text>
    <text
       xml:space="preserve"
       style="font-style:normal;font-weight:normal;font-size:8.55707741px;line-height:0;font-family:sans-serif;letter-spacing:0px;word-spacing:0px;fill:#000000;fill-opacity:1;stroke:none;stroke-width:0.26740867"
       x="-169.91508"
       y="146.05597"
       id="text7469"><tspan
         sodipodi:role="line"
         id="tspan7467"
         x="-169.91508"
         y="146.05597"
         style="font-size:8.55707741px;stroke-width:0.26740867">0.0</tspan></text>
    <text
       id="text7473"
       y="146.05597"
       x="-119.10739"
       style="font-style:normal;font-weight:normal;font-size:8.55707741px;line-height:0;font-family:sans-serif;letter-spacing:0px;word-spacing:0px;fill:#000000;fill-opacity:1;stroke:none;stroke-width:0.26740867"
       xml:space="preserve"><tspan
         style="font-size:8.55707741px;stroke-width:0.26740867"
         y="146.05597"
         x="-119.10739"
         id="tspan7471"
         sodipodi:role="line">1.0</tspan></text>
    <text
       xml:space="preserve"
       style="font-style:normal;font-weight:normal;font-size:8.55707741px;line-height:0;font-family:sans-serif;letter-spacing:0px;word-spacing:0px;fill:#000000;fill-opacity:1;stroke:none;stroke-width:0.26740867"
       x="-70.439026"
       y="146.05597"
       id="text7477"><tspan
         sodipodi:role="line"
         id="tspan7475"
         x="-70.439026"
         y="146.05597"
         style="font-size:8.55707741px;stroke-width:0.26740867">2.0</tspan></text>
    <text
       id="text7481"
       y="146.05597"
       x="-21.771242"
       style="font-style:normal;font-weight:normal;font-size:8.55707741px;line-height:0;font-family:sans-serif;letter-spacing:0px;word-spacing:0px;fill:#000000;fill-opacity:1;stroke:none;stroke-width:0.26740867"
       xml:space="preserve"><tspan
         style="font-size:8.55707741px;stroke-width:0.26740867"
         y="146.05597"
         x="-21.771242"
         id="tspan7479"
         sodipodi:role="line">3.0</tspan></text>
    <text
       xml:space="preserve"
       style="font-style:normal;font-weight:normal;font-size:8.55707741px;line-height:0;font-family:sans-serif;letter-spacing:0px;word-spacing:0px;fill:#000000;fill-opacity:1;stroke:none;stroke-width:0.26740867"
       x="27.431282"
       y="146.05597"
       id="text7485"><tspan
         sodipodi:role="line"
         id="tspan7483"
         x="27.431282"
         y="146.05597"
         style="font-size:8.55707741px;stroke-width:0.26740867">4.0</tspan></text>
    <text
       id="text7489"
       y="139.17976"
       x="-183.47655"
       style="font-style:normal;font-weight:normal;font-size:8.55707741px;line-height:0;font-family:sans-serif;letter-spacing:0px;word-spacing:0px;fill:#000000;fill-opacity:1;stroke:none;stroke-width:0.26740867"
       xml:space="preserve"><tspan
         style="font-size:8.55707741px;stroke-width:0.26740867"
         y="139.17976"
         x="-183.47655"
         id="tspan7487"
         sodipodi:role="line">0.0</tspan></text>
    <text
       xml:space="preserve"
       style="font-style:normal;font-weight:normal;font-size:8.55707741px;line-height:0;font-family:sans-serif;letter-spacing:0px;word-spacing:0px;fill:#000000;fill-opacity:1;stroke:none;stroke-width:0.26740867"
       x="-183.47655"
       y="89.977142"
       id="text7493"><tspan
         sodipodi:role="line"
         id="tspan7491"
         x="-183.47655"
         y="89.977142"
         style="font-size:8.55707741px;stroke-width:0.26740867">1.0</tspan></text>
    <text
       id="text7497"
       y="39.705006"
       x="-183.47655"
       style="font-style:normal;font-weight:normal;font-size:8.55707741px;line-height:0;font-family:sans-serif;letter-spacing:0px;word-spacing:0px;fill:#000000;fill-opacity:1;stroke:none;stroke-width:0.26740867"
       xml:space="preserve"><tspan
         style="font-size:8.55707741px;stroke-width:0.26740867"
         y="39.705006"
         x="-183.47655"
         id="tspan7495"
         sodipodi:role="line">2.0</tspan></text>
  </g>
</svg>
