<?xml version="1.0" encoding="UTF-8" standalone="no"?>
<!-- Created with Inkscape (http://www.inkscape.org/) -->

<svg
   xmlns:dc="http://purl.org/dc/elements/1.1/"
   xmlns:cc="http://creativecommons.org/ns#"
   xmlns:rdf="http://www.w3.org/1999/02/22-rdf-syntax-ns#"
   xmlns:svg="http://www.w3.org/2000/svg"
   xmlns="http://www.w3.org/2000/svg"
   xmlns:sodipodi="http://sodipodi.sourceforge.net/DTD/sodipodi-0.dtd"
   xmlns:inkscape="http://www.inkscape.org/namespaces/inkscape"
   width="246.02516mm"
   height="133.10205mm"
   viewBox="0 0 246.02516 133.10205"
   version="1.1"
   id="svg4318"
   inkscape:version="0.92.4 (5da689c313, 2019-01-14)"
   sodipodi:docname="example_2_1.svg"
   inkscape:export-filename="/home/penkod/WORK/git_work/ggd2/doc/guide/source/images/example_2_1.png"
   inkscape:export-xdpi="200"
   inkscape:export-ydpi="200">
  <defs
     id="defs4312">
    <marker
       inkscape:isstock="true"
       style="overflow:visible"
       id="marker7319"
       refX="0"
       refY="0"
       orient="auto"
       inkscape:stockid="Arrow1Mend">
      <path
         transform="matrix(-0.4,0,0,-0.4,-4,0)"
         style="fill:#000000;fill-opacity:1;fill-rule:evenodd;stroke:#000000;stroke-width:1.00000003pt;stroke-opacity:1"
         d="M 0,0 5,-5 -12.5,0 5,5 Z"
         id="path7317"
         inkscape:connector-curvature="0" />
    </marker>
    <marker
       inkscape:stockid="Arrow1Mend"
       orient="auto"
       refY="0"
       refX="0"
       id="Arrow1Mend"
       style="overflow:visible"
       inkscape:isstock="true"
       inkscape:collect="always">
      <path
         id="path6810"
         d="M 0,0 5,-5 -12.5,0 5,5 Z"
         style="fill:#000000;fill-opacity:1;fill-rule:evenodd;stroke:#000000;stroke-width:1.00000003pt;stroke-opacity:1"
         transform="matrix(-0.4,0,0,-0.4,-4,0)"
         inkscape:connector-curvature="0" />
    </marker>
  </defs>
  <sodipodi:namedview
     id="base"
     pagecolor="#ffffff"
     bordercolor="#666666"
     borderopacity="1.0"
     inkscape:pageopacity="0.0"
     inkscape:pageshadow="2"
     inkscape:zoom="0.7"
     inkscape:cx="668.13797"
     inkscape:cy="5.9269112"
     inkscape:document-units="mm"
     inkscape:current-layer="layer1"
     showgrid="false"
     inkscape:window-width="1920"
     inkscape:window-height="988"
     inkscape:window-x="0"
     inkscape:window-y="0"
     inkscape:window-maximized="1"
     fit-margin-top="0"
     fit-margin-left="0"
     fit-margin-right="0"
     fit-margin-bottom="0" />
  <metadata
     id="metadata4315">
    <rdf:RDF>
      <cc:Work
         rdf:about="">
        <dc:format>image/svg+xml</dc:format>
        <dc:type
           rdf:resource="http://purl.org/dc/dcmitype/StillImage" />
        <dc:title></dc:title>
      </cc:Work>
    </rdf:RDF>
  </metadata>
  <g
     inkscape:label="Layer 1"
     inkscape:groupmode="layer"
     id="layer1"
     transform="translate(-11.242555,-132.71491)">
    <g
       transform="matrix(0.35277777,0,0,0.35277777,-158.53241,197.06985)"
       id="g279213">
      <path
         inkscape:connector-curvature="0"
         id="path279215"
         style="fill:#33949b;fill-opacity:1;fill-rule:nonzero;stroke:#000000;stroke-width:2.45196891;stroke-linecap:butt;stroke-linejoin:miter;stroke-miterlimit:4;stroke-dasharray:none;stroke-opacity:1"
         d="m 545.168,27.23 c 0,3.551 -2.879,6.43 -6.43,6.43 -3.55,0 -6.429,-2.879 -6.429,-6.43 0,-3.55 2.879,-6.425 6.429,-6.425 3.551,0 6.43,2.875 6.43,6.425 z" />
    </g>
    <g
       transform="matrix(0.35277777,0,0,0.35277777,-158.53241,197.06985)"
       id="g279233">
      <path
         inkscape:connector-curvature="0"
         id="path279235"
         style="fill:#33949b;fill-opacity:1;fill-rule:nonzero;stroke:#000000;stroke-width:2.45196891;stroke-linecap:butt;stroke-linejoin:miter;stroke-miterlimit:4;stroke-dasharray:none;stroke-opacity:1"
         d="m 544.992,166.578 c 0,3.551 -2.879,6.43 -6.429,6.43 -3.551,0 -6.43,-2.879 -6.43,-6.43 0,-3.551 2.879,-6.43 6.43,-6.43 3.55,0 6.429,2.879 6.429,6.43 z" />
    </g>
    <g
       transform="matrix(0.35277777,0,0,0.35277777,-158.53241,197.06985)"
       id="g279253">
      <path
         inkscape:connector-curvature="0"
         id="path279255"
         style="fill:#33949b;fill-opacity:1;fill-rule:nonzero;stroke:#000000;stroke-width:2.45196891;stroke-linecap:butt;stroke-linejoin:miter;stroke-miterlimit:4;stroke-dasharray:none;stroke-opacity:1"
         d="m 684.109,26.988 c 0,3.551 -2.879,6.43 -6.429,6.43 -3.547,0 -6.426,-2.879 -6.426,-6.43 0,-3.55 2.879,-6.425 6.426,-6.425 3.55,0 6.429,2.875 6.429,6.425 z" />
    </g>
    <g
       transform="matrix(0.35277777,0,0,0.35277777,-158.53241,197.06985)"
       id="g279273">
      <path
         inkscape:connector-curvature="0"
         id="path279275"
         style="fill:#33949b;fill-opacity:1;fill-rule:nonzero;stroke:#000000;stroke-width:2.45196891;stroke-linecap:butt;stroke-linejoin:miter;stroke-miterlimit:4;stroke-dasharray:none;stroke-opacity:1"
         d="m 683.855,166.113 c 0,3.551 -2.878,6.43 -6.429,6.43 -3.551,0 -6.43,-2.879 -6.43,-6.43 0,-3.55 2.879,-6.429 6.43,-6.429 3.551,0 6.429,2.879 6.429,6.429 z" />
    </g>
    <g
       transform="matrix(0.35277777,0,0,0.35277777,-158.53241,197.06985)"
       id="g279293">
      <path
         inkscape:connector-curvature="0"
         id="path279295"
         style="fill:none;stroke:#3249a2;stroke-width:2.4094491;stroke-linecap:butt;stroke-linejoin:miter;stroke-miterlimit:4;stroke-dasharray:none;stroke-opacity:1"
         d="M 670.094,27.191 H 546.254" />
    </g>
    <g
       transform="matrix(0.35277777,0,0,0.35277777,-158.53241,197.06985)"
       id="g279297">
      <path
         inkscape:connector-curvature="0"
         id="path279299"
         style="fill:none;stroke:#3249a2;stroke-width:2.4094491;stroke-linecap:butt;stroke-linejoin:miter;stroke-miterlimit:4;stroke-dasharray:none;stroke-opacity:1"
         d="M 669.914,166.609 H 546.074" />
    </g>
    <g
       transform="matrix(0.35277777,0,0,0.35277777,-158.53241,197.06985)"
       id="g279301">
      <path
         inkscape:connector-curvature="0"
         id="path279303"
         style="fill:none;stroke:#3249a2;stroke-width:2.4094491;stroke-linecap:butt;stroke-linejoin:miter;stroke-miterlimit:4;stroke-dasharray:none;stroke-opacity:1"
         d="M 538.754,159.023 V 34.844" />
    </g>
    <g
       transform="matrix(0.35277777,0,0,0.35277777,-158.53241,197.06985)"
       id="g279305">
      <path
         inkscape:connector-curvature="0"
         id="path279307"
         style="fill:none;stroke:#3249a2;stroke-width:2.4094491;stroke-linecap:butt;stroke-linejoin:miter;stroke-miterlimit:4;stroke-dasharray:none;stroke-opacity:1"
         d="M 677.332,158.574 V 34.398" />
    </g>
    <g
       transform="matrix(0.35277777,0,0,0.35277777,-158.53241,197.06985)"
       id="g279353" />
    <path
       inkscape:connector-curvature="0"
       id="path279373"
       style="fill:#aaccff;fill-opacity:1;fill-rule:nonzero;stroke:none;stroke-width:0.35277775"
       d="m 34.08567,254.99019 c -0.121356,-0.55527 -1.036462,-1.53246 -1.609725,-1.7212 l -0.4572,-0.1517 v -43.67388 l 0.501297,-0.20955 c 0.676628,-0.28258 1.218494,-0.81457 1.527175,-1.4979 l 0.256116,-0.56797 h 43.531012 l 0.151342,0.45896 c 0.173921,0.52388 1.045988,1.36984 1.620663,1.56951 l 0.38735,0.13512 v 43.63966 l -0.390173,0.0787 c -0.73166,0.14605 -1.882423,1.46333 -1.882423,2.15371 0,0.18486 -2.257071,0.20673 -21.771679,0.20673 H 34.178097 Z" />
    <path
       inkscape:connector-curvature="0"
       id="path279375"
       style="fill:#c8beb7;fill-opacity:1;fill-rule:nonzero;stroke:none;stroke-width:0.35277775"
       d="m 34.110364,255.00959 c -0.104775,-0.52387 -1.061156,-1.55328 -1.636889,-1.76141 l -0.45473,-0.16369 v -43.60404 l 0.538691,-0.24377 c 0.620184,-0.27975 1.325739,-1.00612 1.586089,-1.63583 l 0.179211,-0.43286 h 43.478449 l 0.167923,0.46179 c 0.186267,0.51399 1.229429,1.506 1.713087,1.62736 l 0.311505,0.0773 v 43.63684 l -0.425805,0.0854 c -0.493535,0.0981 -1.514475,1.09714 -1.786112,1.74766 l -0.179213,0.42828 -3.235325,0.0896 c -1.780468,0.0483 -11.548178,0.0882 -21.70712,0.0882 h -18.46968 z" />
    <g
       id="g7159"
       transform="matrix(0.35277777,0,0,0.35277777,-109.84877,197.06985)">
      <path
         d="m 684.109,26.988 c 0,3.551 -2.879,6.43 -6.429,6.43 -3.547,0 -6.426,-2.879 -6.426,-6.43 0,-3.55 2.879,-6.425 6.426,-6.425 3.55,0 6.429,2.875 6.429,6.425 z"
         style="fill:#33949b;fill-opacity:1;fill-rule:nonzero;stroke:#000000;stroke-width:2.45196891;stroke-linecap:butt;stroke-linejoin:miter;stroke-miterlimit:4;stroke-dasharray:none;stroke-opacity:1"
         id="path7157"
         inkscape:connector-curvature="0" />
    </g>
    <g
       id="g7163"
       transform="matrix(0.35277777,0,0,0.35277777,-109.84877,197.06985)">
      <path
         d="m 683.855,166.113 c 0,3.551 -2.878,6.43 -6.429,6.43 -3.551,0 -6.43,-2.879 -6.43,-6.43 0,-3.55 2.879,-6.429 6.43,-6.429 3.551,0 6.429,2.879 6.429,6.429 z"
         style="fill:#33949b;fill-opacity:1;fill-rule:nonzero;stroke:#000000;stroke-width:2.45196891;stroke-linecap:butt;stroke-linejoin:miter;stroke-miterlimit:4;stroke-dasharray:none;stroke-opacity:1"
         id="path7161"
         inkscape:connector-curvature="0" />
    </g>
    <g
       id="g7167"
       transform="matrix(0.35277777,0,0,0.35277777,-109.84877,197.06985)">
      <path
         d="M 670.094,27.191 H 546.254"
         style="fill:none;stroke:#3249a2;stroke-width:2.4094491;stroke-linecap:butt;stroke-linejoin:miter;stroke-miterlimit:4;stroke-dasharray:none;stroke-opacity:1"
         id="path7165"
         inkscape:connector-curvature="0" />
    </g>
    <g
       id="g7171"
       transform="matrix(0.35277777,0,0,0.35277777,-109.84877,197.06985)">
      <path
         d="M 669.914,166.609 H 546.074"
         style="fill:none;stroke:#3249a2;stroke-width:2.4094491;stroke-linecap:butt;stroke-linejoin:miter;stroke-miterlimit:4;stroke-dasharray:none;stroke-opacity:1"
         id="path7169"
         inkscape:connector-curvature="0" />
    </g>
    <g
       id="g7175"
       transform="matrix(0.35277777,0,0,0.35277777,-109.84877,197.06985)">
      <path
         d="M 677.332,158.574 V 34.398"
         style="fill:none;stroke:#3249a2;stroke-width:2.4094491;stroke-linecap:butt;stroke-linejoin:miter;stroke-miterlimit:4;stroke-dasharray:none;stroke-opacity:1"
         id="path7173"
         inkscape:connector-curvature="0" />
    </g>
    <path
       d="m 82.793728,255.00959 c -0.104775,-0.52387 -1.061156,-1.55328 -1.636889,-1.76141 l -0.45473,-0.16369 v -43.60404 l 0.538691,-0.24377 c 0.620184,-0.27975 1.325739,-1.00612 1.586089,-1.63583 l 0.179211,-0.43286 h 43.4786 l 0.16792,0.46179 c 0.18627,0.51399 1.22944,1.506 1.7131,1.62736 l 0.31151,0.0773 v 43.63684 l -0.42581,0.0854 c -0.49354,0.0981 -1.51449,1.09714 -1.78612,1.74766 l -0.17922,0.42828 -3.23534,0.0896 c -1.78048,0.0483 -11.54825,0.0882 -21.70725,0.0882 H 82.873809 Z"
       style="fill:#c8beb7;fill-opacity:1;fill-rule:nonzero;stroke:none;stroke-width:0.35277775"
       id="path7177"
       inkscape:connector-curvature="0" />
    <g
       transform="matrix(0.35277777,0,0,0.35277777,-61.165352,197.06985)"
       id="g7181">
      <path
         inkscape:connector-curvature="0"
         id="path7179"
         style="fill:#33949b;fill-opacity:1;fill-rule:nonzero;stroke:#000000;stroke-width:2.45196891;stroke-linecap:butt;stroke-linejoin:miter;stroke-miterlimit:4;stroke-dasharray:none;stroke-opacity:1"
         d="m 684.109,26.988 c 0,3.551 -2.879,6.43 -6.429,6.43 -3.547,0 -6.426,-2.879 -6.426,-6.43 0,-3.55 2.879,-6.425 6.426,-6.425 3.55,0 6.429,2.875 6.429,6.425 z" />
    </g>
    <g
       transform="matrix(0.35277777,0,0,0.35277777,-61.165352,197.06985)"
       id="g7185">
      <path
         inkscape:connector-curvature="0"
         id="path7183"
         style="fill:#33949b;fill-opacity:1;fill-rule:nonzero;stroke:#000000;stroke-width:2.45196891;stroke-linecap:butt;stroke-linejoin:miter;stroke-miterlimit:4;stroke-dasharray:none;stroke-opacity:1"
         d="m 683.855,166.113 c 0,3.551 -2.878,6.43 -6.429,6.43 -3.551,0 -6.43,-2.879 -6.43,-6.43 0,-3.55 2.879,-6.429 6.43,-6.429 3.551,0 6.429,2.879 6.429,6.429 z" />
    </g>
    <g
       transform="matrix(0.35277777,0,0,0.35277777,-61.165352,197.06985)"
       id="g7189">
      <path
         inkscape:connector-curvature="0"
         id="path7187"
         style="fill:none;stroke:#3249a2;stroke-width:2.4094491;stroke-linecap:butt;stroke-linejoin:miter;stroke-miterlimit:4;stroke-dasharray:none;stroke-opacity:1"
         d="M 670.094,27.191 H 546.254" />
    </g>
    <g
       transform="matrix(0.35277777,0,0,0.35277777,-61.165352,197.06985)"
       id="g7193">
      <path
         inkscape:connector-curvature="0"
         id="path7191"
         style="fill:none;stroke:#3249a2;stroke-width:2.4094491;stroke-linecap:butt;stroke-linejoin:miter;stroke-miterlimit:4;stroke-dasharray:none;stroke-opacity:1"
         d="M 669.914,166.609 H 546.074" />
    </g>
    <g
       transform="matrix(0.35277777,0,0,0.35277777,-61.165352,197.06985)"
       id="g7197">
      <path
         inkscape:connector-curvature="0"
         id="path7195"
         style="fill:none;stroke:#3249a2;stroke-width:2.4094491;stroke-linecap:butt;stroke-linejoin:miter;stroke-miterlimit:4;stroke-dasharray:none;stroke-opacity:1"
         d="M 677.332,158.574 V 34.398" />
    </g>
    <path
       inkscape:connector-curvature="0"
       id="path7199"
       style="fill:#c8beb7;fill-opacity:1;fill-rule:nonzero;stroke:none;stroke-width:0.35277775"
       d="m 131.47727,255.00959 c -0.10478,-0.52387 -1.06116,-1.55328 -1.6369,-1.76141 l -0.45473,-0.16369 v -43.60404 l 0.53869,-0.24377 c 0.62019,-0.27975 1.32575,-1.00612 1.5861,-1.63583 l 0.17921,-0.43286 h 43.4787 l 0.16792,0.46179 c 0.18627,0.51399 1.22944,1.506 1.7131,1.62736 l 0.31151,0.0773 v 43.63684 l -0.42581,0.0854 c -0.49354,0.0981 -1.51449,1.09714 -1.78612,1.74766 l -0.17922,0.42828 -3.23534,0.0896 c -1.78048,0.0483 -11.54825,0.0882 -21.70725,0.0882 h -18.46978 z" />
    <g
       id="g7203"
       transform="matrix(0.35277777,0,0,0.35277777,-12.48199,197.06985)">
      <path
         d="m 684.109,26.988 c 0,3.551 -2.879,6.43 -6.429,6.43 -3.547,0 -6.426,-2.879 -6.426,-6.43 0,-3.55 2.879,-6.425 6.426,-6.425 3.55,0 6.429,2.875 6.429,6.425 z"
         style="fill:#33949b;fill-opacity:1;fill-rule:nonzero;stroke:#000000;stroke-width:2.45196891;stroke-linecap:butt;stroke-linejoin:miter;stroke-miterlimit:4;stroke-dasharray:none;stroke-opacity:1"
         id="path7201"
         inkscape:connector-curvature="0" />
    </g>
    <g
       id="g7207"
       transform="matrix(0.35277777,0,0,0.35277777,-12.48199,197.06985)">
      <path
         d="m 683.855,166.113 c 0,3.551 -2.878,6.43 -6.429,6.43 -3.551,0 -6.43,-2.879 -6.43,-6.43 0,-3.55 2.879,-6.429 6.43,-6.429 3.551,0 6.429,2.879 6.429,6.429 z"
         style="fill:#33949b;fill-opacity:1;fill-rule:nonzero;stroke:#000000;stroke-width:2.45196891;stroke-linecap:butt;stroke-linejoin:miter;stroke-miterlimit:4;stroke-dasharray:none;stroke-opacity:1"
         id="path7205"
         inkscape:connector-curvature="0" />
    </g>
    <g
       id="g7211"
       transform="matrix(0.35277777,0,0,0.35277777,-12.48199,197.06985)">
      <path
         d="M 670.094,27.191 H 546.254"
         style="fill:none;stroke:#3249a2;stroke-width:2.4094491;stroke-linecap:butt;stroke-linejoin:miter;stroke-miterlimit:4;stroke-dasharray:none;stroke-opacity:1"
         id="path7209"
         inkscape:connector-curvature="0" />
    </g>
    <g
       id="g7215"
       transform="matrix(0.35277777,0,0,0.35277777,-12.48199,197.06985)">
      <path
         d="M 669.914,166.609 H 546.074"
         style="fill:none;stroke:#3249a2;stroke-width:2.4094491;stroke-linecap:butt;stroke-linejoin:miter;stroke-miterlimit:4;stroke-dasharray:none;stroke-opacity:1"
         id="path7213"
         inkscape:connector-curvature="0" />
    </g>
    <g
       id="g7219"
       transform="matrix(0.35277777,0,0,0.35277777,-12.48199,197.06985)">
      <path
         d="M 677.332,158.574 V 34.398"
         style="fill:none;stroke:#3249a2;stroke-width:2.4094491;stroke-linecap:butt;stroke-linejoin:miter;stroke-miterlimit:4;stroke-dasharray:none;stroke-opacity:1"
         id="path7217"
         inkscape:connector-curvature="0" />
    </g>
    <path
       d="m 180.16089,255.00959 c -0.10478,-0.52387 -1.06116,-1.55328 -1.6369,-1.76141 l -0.45473,-0.16369 v -43.60404 l 0.53869,-0.24377 c 0.62019,-0.27975 1.32575,-1.00612 1.5861,-1.63583 l 0.17921,-0.43286 h 43.4787 l 0.16792,0.46179 c 0.18627,0.51399 1.22944,1.506 1.7131,1.62736 l 0.31151,0.0773 v 43.63684 l -0.42581,0.0854 c -0.49354,0.0981 -1.51449,1.09714 -1.78612,1.74766 l -0.17922,0.42828 -3.23534,0.0896 c -1.78048,0.0483 -11.54825,0.0882 -21.70725,0.0882 h -18.46978 z"
       style="fill:#c8beb7;fill-opacity:1;fill-rule:nonzero;stroke:none;stroke-width:0.35277775"
       id="path7221"
       inkscape:connector-curvature="0" />
    <g
       id="g7225"
       transform="matrix(0.35277777,0,0,0.35277777,-158.53241,147.85704)">
      <path
         d="m 545.168,27.23 c 0,3.551 -2.879,6.43 -6.43,6.43 -3.55,0 -6.429,-2.879 -6.429,-6.43 0,-3.55 2.879,-6.425 6.429,-6.425 3.551,0 6.43,2.875 6.43,6.425 z"
         style="fill:#33949b;fill-opacity:1;fill-rule:nonzero;stroke:#000000;stroke-width:2.45196891;stroke-linecap:butt;stroke-linejoin:miter;stroke-miterlimit:4;stroke-dasharray:none;stroke-opacity:1"
         id="path7223"
         inkscape:connector-curvature="0" />
    </g>
    <g
       id="g7229"
       transform="matrix(0.35277777,0,0,0.35277777,-158.53241,147.85704)">
      <path
         d="m 684.109,26.988 c 0,3.551 -2.879,6.43 -6.429,6.43 -3.547,0 -6.426,-2.879 -6.426,-6.43 0,-3.55 2.879,-6.425 6.426,-6.425 3.55,0 6.429,2.875 6.429,6.425 z"
         style="fill:#33949b;fill-opacity:1;fill-rule:nonzero;stroke:#000000;stroke-width:2.45196891;stroke-linecap:butt;stroke-linejoin:miter;stroke-miterlimit:4;stroke-dasharray:none;stroke-opacity:1"
         id="path7227"
         inkscape:connector-curvature="0" />
    </g>
    <g
       id="g7233"
       transform="matrix(0.35277777,0,0,0.35277777,-158.53241,147.85704)">
      <path
         d="M 670.094,27.191 H 546.254"
         style="fill:none;stroke:#3249a2;stroke-width:2.4094491;stroke-linecap:butt;stroke-linejoin:miter;stroke-miterlimit:4;stroke-dasharray:none;stroke-opacity:1"
         id="path7231"
         inkscape:connector-curvature="0" />
    </g>
    <g
       id="g7237"
       transform="matrix(0.35277777,0,0,0.35277777,-158.53241,147.85704)">
      <path
         d="M 538.754,159.023 V 34.844"
         style="fill:none;stroke:#3249a2;stroke-width:2.4094491;stroke-linecap:butt;stroke-linejoin:miter;stroke-miterlimit:4;stroke-dasharray:none;stroke-opacity:1"
         id="path7235"
         inkscape:connector-curvature="0" />
    </g>
    <g
       id="g7241"
       transform="matrix(0.35277777,0,0,0.35277777,-158.53241,147.85704)">
      <path
         d="M 677.332,158.574 V 34.398"
         style="fill:none;stroke:#3249a2;stroke-width:2.4094491;stroke-linecap:butt;stroke-linejoin:miter;stroke-miterlimit:4;stroke-dasharray:none;stroke-opacity:1"
         id="path7239"
         inkscape:connector-curvature="0" />
    </g>
    <path
       d="m 34.110364,205.79678 c -0.104775,-0.52387 -1.061156,-1.55328 -1.636889,-1.76141 l -0.45473,-0.16369 v -43.60404 l 0.538691,-0.24377 c 0.620184,-0.27975 1.325739,-1.00612 1.586089,-1.63583 l 0.179211,-0.43286 h 43.478449 l 0.167923,0.46179 c 0.186267,0.51399 1.229429,1.506 1.713087,1.62736 l 0.311505,0.0773 v 43.63684 l -0.425805,0.0854 c -0.493535,0.0981 -1.514475,1.09714 -1.786112,1.74766 l -0.179213,0.42828 -3.235325,0.0896 c -1.780468,0.0483 -11.548178,0.0882 -21.70712,0.0882 h -18.46968 z"
       style="fill:#c8beb7;fill-opacity:1;fill-rule:nonzero;stroke:none;stroke-width:0.35277775"
       id="path7243"
       inkscape:connector-curvature="0" />
    <g
       transform="matrix(0.35277777,0,0,0.35277777,-109.84877,147.85704)"
       id="g7247">
      <path
         inkscape:connector-curvature="0"
         id="path7245"
         style="fill:#33949b;fill-opacity:1;fill-rule:nonzero;stroke:#000000;stroke-width:2.45196891;stroke-linecap:butt;stroke-linejoin:miter;stroke-miterlimit:4;stroke-dasharray:none;stroke-opacity:1"
         d="m 684.109,26.988 c 0,3.551 -2.879,6.43 -6.429,6.43 -3.547,0 -6.426,-2.879 -6.426,-6.43 0,-3.55 2.879,-6.425 6.426,-6.425 3.55,0 6.429,2.875 6.429,6.425 z" />
    </g>
    <g
       transform="matrix(0.35277777,0,0,0.35277777,-109.84877,147.85704)"
       id="g7251">
      <path
         inkscape:connector-curvature="0"
         id="path7249"
         style="fill:none;stroke:#3249a2;stroke-width:2.4094491;stroke-linecap:butt;stroke-linejoin:miter;stroke-miterlimit:4;stroke-dasharray:none;stroke-opacity:1"
         d="M 670.094,27.191 H 546.254" />
    </g>
    <g
       transform="matrix(0.35277777,0,0,0.35277777,-109.84877,147.85704)"
       id="g7255">
      <path
         inkscape:connector-curvature="0"
         id="path7253"
         style="fill:none;stroke:#3249a2;stroke-width:2.4094491;stroke-linecap:butt;stroke-linejoin:miter;stroke-miterlimit:4;stroke-dasharray:none;stroke-opacity:1"
         d="M 677.332,158.574 V 34.398" />
    </g>
    <path
       inkscape:connector-curvature="0"
       id="path7257"
       style="fill:#c8beb7;fill-opacity:1;fill-rule:nonzero;stroke:none;stroke-width:0.35277775"
       d="m 82.793728,205.79678 c -0.104775,-0.52387 -1.061156,-1.55328 -1.636889,-1.76141 l -0.45473,-0.16369 v -43.60404 l 0.538691,-0.24377 c 0.620184,-0.27975 1.325739,-1.00612 1.586089,-1.63583 l 0.179211,-0.43286 h 43.4786 l 0.16792,0.46179 c 0.18627,0.51399 1.22944,1.506 1.7131,1.62736 l 0.31151,0.0773 v 43.63684 l -0.42581,0.0854 c -0.49354,0.0981 -1.51449,1.09714 -1.78612,1.74766 l -0.17922,0.42828 -3.23534,0.0896 c -1.78048,0.0483 -11.54825,0.0882 -21.70725,0.0882 H 82.873809 Z" />
    <g
       id="g7261"
       transform="matrix(0.35277777,0,0,0.35277777,-61.165352,147.85704)">
      <path
         d="m 684.109,26.988 c 0,3.551 -2.879,6.43 -6.429,6.43 -3.547,0 -6.426,-2.879 -6.426,-6.43 0,-3.55 2.879,-6.425 6.426,-6.425 3.55,0 6.429,2.875 6.429,6.425 z"
         style="fill:#33949b;fill-opacity:1;fill-rule:nonzero;stroke:#000000;stroke-width:2.45196891;stroke-linecap:butt;stroke-linejoin:miter;stroke-miterlimit:4;stroke-dasharray:none;stroke-opacity:1"
         id="path7259"
         inkscape:connector-curvature="0" />
    </g>
    <g
       id="g7265"
       transform="matrix(0.35277777,0,0,0.35277777,-61.165352,147.85704)">
      <path
         d="M 670.094,27.191 H 546.254"
         style="fill:none;stroke:#3249a2;stroke-width:2.4094491;stroke-linecap:butt;stroke-linejoin:miter;stroke-miterlimit:4;stroke-dasharray:none;stroke-opacity:1"
         id="path7263"
         inkscape:connector-curvature="0" />
    </g>
    <g
       id="g7269"
       transform="matrix(0.35277777,0,0,0.35277777,-61.165352,147.85704)">
      <path
         d="M 677.332,158.574 V 34.398"
         style="fill:none;stroke:#3249a2;stroke-width:2.4094491;stroke-linecap:butt;stroke-linejoin:miter;stroke-miterlimit:4;stroke-dasharray:none;stroke-opacity:1"
         id="path7267"
         inkscape:connector-curvature="0" />
    </g>
    <path
       d="m 131.47727,205.79678 c -0.10478,-0.52387 -1.06116,-1.55328 -1.6369,-1.76141 l -0.45473,-0.16369 v -43.60404 l 0.53869,-0.24377 c 0.62019,-0.27975 1.32575,-1.00612 1.5861,-1.63583 l 0.17921,-0.43286 h 43.4787 l 0.16792,0.46179 c 0.18627,0.51399 1.22944,1.506 1.7131,1.62736 l 0.31151,0.0773 v 43.63684 l -0.42581,0.0854 c -0.49354,0.0981 -1.51449,1.09714 -1.78612,1.74766 l -0.17922,0.42828 -3.23534,0.0896 c -1.78048,0.0483 -11.54825,0.0882 -21.70725,0.0882 h -18.46978 z"
       style="fill:#c8beb7;fill-opacity:1;fill-rule:nonzero;stroke:none;stroke-width:0.35277775"
       id="path7271"
       inkscape:connector-curvature="0" />
    <g
       transform="matrix(0.35277777,0,0,0.35277777,-12.48199,147.85704)"
       id="g7275">
      <path
         inkscape:connector-curvature="0"
         id="path7273"
         style="fill:#33949b;fill-opacity:1;fill-rule:nonzero;stroke:#000000;stroke-width:2.45196891;stroke-linecap:butt;stroke-linejoin:miter;stroke-miterlimit:4;stroke-dasharray:none;stroke-opacity:1"
         d="m 684.109,26.988 c 0,3.551 -2.879,6.43 -6.429,6.43 -3.547,0 -6.426,-2.879 -6.426,-6.43 0,-3.55 2.879,-6.425 6.426,-6.425 3.55,0 6.429,2.875 6.429,6.425 z" />
    </g>
    <g
       transform="matrix(0.35277777,0,0,0.35277777,-12.48199,147.85704)"
       id="g7279">
      <path
         inkscape:connector-curvature="0"
         id="path7277"
         style="fill:none;stroke:#3249a2;stroke-width:2.4094491;stroke-linecap:butt;stroke-linejoin:miter;stroke-miterlimit:4;stroke-dasharray:none;stroke-opacity:1"
         d="M 670.094,27.191 H 546.254" />
    </g>
    <g
       transform="matrix(0.35277777,0,0,0.35277777,-12.48199,147.85704)"
       id="g7283">
      <path
         inkscape:connector-curvature="0"
         id="path7281"
         style="fill:none;stroke:#3249a2;stroke-width:2.4094491;stroke-linecap:butt;stroke-linejoin:miter;stroke-miterlimit:4;stroke-dasharray:none;stroke-opacity:1"
         d="M 677.332,158.574 V 34.398" />
    </g>
    <path
       inkscape:connector-curvature="0"
       id="path7285"
       style="fill:#c8beb7;fill-opacity:1;fill-rule:nonzero;stroke:none;stroke-width:0.35277775"
       d="m 180.16089,205.79678 c -0.10478,-0.52387 -1.06116,-1.55328 -1.6369,-1.76141 l -0.45473,-0.16369 v -43.60404 l 0.53869,-0.24377 c 0.62019,-0.27975 1.32575,-1.00612 1.5861,-1.63583 l 0.17921,-0.43286 h 43.4787 l 0.16792,0.46179 c 0.18627,0.51399 1.22944,1.506 1.7131,1.62736 l 0.31151,0.0773 v 43.63684 l -0.42581,0.0854 c -0.49354,0.0981 -1.51449,1.09714 -1.78612,1.74766 l -0.17922,0.42828 -3.23534,0.0896 c -1.78048,0.0483 -11.54825,0.0882 -21.70725,0.0882 h -18.46978 z" />
    <path
       style="fill:none;stroke:#000000;stroke-width:1;stroke-linecap:butt;stroke-linejoin:miter;stroke-miterlimit:4;stroke-dasharray:none;stroke-opacity:1;marker-end:url(#marker7319)"
       d="m 228.76685,255.67082 h 25.80011"
       id="path7287"
       inkscape:connector-curvature="0" />
    <path
       style="fill:none;stroke:#000000;stroke-width:1;stroke-linecap:butt;stroke-linejoin:miter;stroke-miterlimit:4;stroke-dasharray:none;stroke-opacity:1;marker-end:url(#Arrow1Mend)"
       d="m 31.466517,155.02269 v -20.3371"
       id="path7289"
       inkscape:connector-curvature="0" />
    <text
       xml:space="preserve"
       style="font-style:normal;font-weight:normal;font-size:8.46666622px;line-height:0;font-family:sans-serif;letter-spacing:0px;word-spacing:0px;fill:#000000;fill-opacity:1;stroke:none;stroke-width:0.26458332"
       x="251.73213"
       y="265.81696"
       id="text7461"><tspan
         sodipodi:role="line"
         id="tspan7459"
         x="251.73213"
         y="265.81696"
         style="font-size:8.46666622px;stroke-width:0.26458332">X</tspan></text>
    <text
       xml:space="preserve"
       style="font-style:normal;font-weight:normal;font-size:8.46666622px;line-height:0;font-family:sans-serif;letter-spacing:0px;word-spacing:0px;fill:#000000;fill-opacity:1;stroke:none;stroke-width:0.26458332"
       x="22.489582"
       y="141.46278"
       id="text7465"><tspan
         sodipodi:role="line"
         id="tspan7463"
         x="22.489582"
         y="141.46278"
         style="font-size:8.46666622px;stroke-width:0.26458332">Y</tspan></text>
    <text
       xml:space="preserve"
       style="font-style:normal;font-weight:normal;font-size:8.46666622px;line-height:0;font-family:sans-serif;letter-spacing:0px;word-spacing:0px;fill:#000000;fill-opacity:1;stroke:none;stroke-width:0.26458332"
       x="24.102604"
       y="265.47293"
       id="text7469"><tspan
         sodipodi:role="line"
         id="tspan7467"
         x="24.102604"
         y="265.47293"
         style="font-size:8.46666622px;stroke-width:0.26458332">0.0</tspan></text>
    <text
       id="text7473"
       y="265.47293"
       x="74.373482"
       style="font-style:normal;font-weight:normal;font-size:8.46666622px;line-height:0;font-family:sans-serif;letter-spacing:0px;word-spacing:0px;fill:#000000;fill-opacity:1;stroke:none;stroke-width:0.26458332"
       xml:space="preserve"><tspan
         style="font-size:8.46666622px;stroke-width:0.26458332"
         y="265.47293"
         x="74.373482"
         id="tspan7471"
         sodipodi:role="line">1.0</tspan></text>
    <text
       xml:space="preserve"
       style="font-style:normal;font-weight:normal;font-size:8.46666622px;line-height:0;font-family:sans-serif;letter-spacing:0px;word-spacing:0px;fill:#000000;fill-opacity:1;stroke:none;stroke-width:0.26458332"
       x="122.52766"
       y="265.47293"
       id="text7477"><tspan
         sodipodi:role="line"
         id="tspan7475"
         x="122.52766"
         y="265.47293"
         style="font-size:8.46666622px;stroke-width:0.26458332">2.0</tspan></text>
    <text
       id="text7481"
       y="265.47293"
       x="170.68124"
       style="font-style:normal;font-weight:normal;font-size:8.46666622px;line-height:0;font-family:sans-serif;letter-spacing:0px;word-spacing:0px;fill:#000000;fill-opacity:1;stroke:none;stroke-width:0.26458332"
       xml:space="preserve"><tspan
         style="font-size:8.46666622px;stroke-width:0.26458332"
         y="265.47293"
         x="170.68124"
         id="tspan7479"
         sodipodi:role="line">3.0</tspan></text>
    <text
       xml:space="preserve"
       style="font-style:normal;font-weight:normal;font-size:8.46666622px;line-height:0;font-family:sans-serif;letter-spacing:0px;word-spacing:0px;fill:#000000;fill-opacity:1;stroke:none;stroke-width:0.26458332"
       x="219.36392"
       y="265.47293"
       id="text7485"><tspan
         sodipodi:role="line"
         id="tspan7483"
         x="219.36392"
         y="265.47293"
         style="font-size:8.46666622px;stroke-width:0.26458332">4.0</tspan></text>
    <text
       id="text7489"
       y="258.66937"
       x="10.684449"
       style="font-style:normal;font-weight:normal;font-size:8.46666622px;line-height:0;font-family:sans-serif;letter-spacing:0px;word-spacing:0px;fill:#000000;fill-opacity:1;stroke:none;stroke-width:0.26458332"
       xml:space="preserve"><tspan
         style="font-size:8.46666622px;stroke-width:0.26458332"
         y="258.66937"
         x="10.684449"
         id="tspan7487"
         sodipodi:role="line">0.0</tspan></text>
    <text
       xml:space="preserve"
       style="font-style:normal;font-weight:normal;font-size:8.46666622px;line-height:0;font-family:sans-serif;letter-spacing:0px;word-spacing:0px;fill:#000000;fill-opacity:1;stroke:none;stroke-width:0.26458332"
       x="10.684449"
       y="209.98662"
       id="text7493"><tspan
         sodipodi:role="line"
         id="tspan7491"
         x="10.684449"
         y="209.98662"
         style="font-size:8.46666622px;stroke-width:0.26458332">1.0</tspan></text>
    <text
       id="text7497"
       y="160.24562"
       x="10.684449"
       style="font-style:normal;font-weight:normal;font-size:8.46666622px;line-height:0;font-family:sans-serif;letter-spacing:0px;word-spacing:0px;fill:#000000;fill-opacity:1;stroke:none;stroke-width:0.26458332"
       xml:space="preserve"><tspan
         style="font-size:8.46666622px;stroke-width:0.26458332"
         y="160.24562"
         x="10.684449"
         id="tspan7495"
         sodipodi:role="line">2.0</tspan></text>
  </g>
</svg>
