<?xml version="1.0" encoding="UTF-8" standalone="no"?>
<!-- Created with Inkscape (http://www.inkscape.org/) -->

<svg
   xmlns:dc="http://purl.org/dc/elements/1.1/"
   xmlns:cc="http://creativecommons.org/ns#"
   xmlns:rdf="http://www.w3.org/1999/02/22-rdf-syntax-ns#"
   xmlns:svg="http://www.w3.org/2000/svg"
   xmlns="http://www.w3.org/2000/svg"
   xmlns:sodipodi="http://sodipodi.sourceforge.net/DTD/sodipodi-0.dtd"
   xmlns:inkscape="http://www.inkscape.org/namespaces/inkscape"
   version="1.1"
   id="svg278961"
   xml:space="preserve"
   width="944.8819"
   height="302.36221"
   viewBox="0 0 944.8819 302.36221"
   sodipodi:docname="grid_structure_1.svg"
   inkscape:version="0.92.4 (5da689c313, 2019-01-14)"><metadata
     id="metadata278967"><rdf:RDF><cc:Work
         rdf:about=""><dc:format>image/svg+xml</dc:format><dc:type
           rdf:resource="http://purl.org/dc/dcmitype/StillImage" /><dc:title /></cc:Work></rdf:RDF></metadata><defs
     id="defs278965">










































</defs><sodipodi:namedview
     pagecolor="#ffffff"
     bordercolor="#666666"
     borderopacity="1"
     objecttolerance="10"
     gridtolerance="10"
     guidetolerance="10"
     inkscape:pageopacity="0"
     inkscape:pageshadow="2"
     inkscape:window-width="1920"
     inkscape:window-height="988"
     id="namedview278963"
     showgrid="false"
     inkscape:zoom="0.70696666"
     inkscape:cx="513.77703"
     inkscape:cy="205.49053"
     inkscape:window-x="0"
     inkscape:window-y="0"
     inkscape:window-maximized="1"
     inkscape:current-layer="g278969" /><g
     id="g278969"
     inkscape:groupmode="layer"
     inkscape:label="grid1"
     transform="matrix(1.3333333,0,0,-1.3333333,0,302.3622)"><g
       transform="matrix(1,0,0,-1,0,226.77165)"
       id="g278973"><path
         inkscape:connector-curvature="0"
         id="path278975"
         style="fill:#33949b;fill-opacity:1;fill-rule:nonzero;stroke:#000000;stroke-width:2.45196891;stroke-linecap:butt;stroke-linejoin:miter;stroke-miterlimit:4;stroke-dasharray:none;stroke-opacity:1"
         d="m 288.414,28.297 c 0,3.551 -2.879,6.43 -6.43,6.43 -3.55,0 -6.429,-2.879 -6.429,-6.43 0,-3.551 2.879,-6.426 6.429,-6.426 3.551,0 6.43,2.875 6.43,6.426 z" /></g><text
       id="text278979"
       style="font-variant:normal;font-weight:normal;font-size:13.99999905px;font-family:Verdana;-inkscape-font-specification:Verdana;writing-mode:lr-tb;fill:#33949b;fill-opacity:1;fill-rule:nonzero;stroke:none"
       transform="scale(1,-1)"
       x="260.556"
       y="-205.97357"><tspan
         id="tspan278977"
         y="-205.97357"
         x="260.556">P</tspan></text>
<g
       transform="matrix(1,0,0,-1,0,226.77165)"
       id="g278981"><path
         inkscape:connector-curvature="0"
         id="path278983"
         style="fill:none;stroke:#000000;stroke-width:0.42519701;stroke-linecap:butt;stroke-linejoin:miter;stroke-miterlimit:4;stroke-dasharray:none;stroke-opacity:1"
         d="m 268.586,13.688 c 0,0.46 -0.086,0.882 -0.25,1.265 -0.156,0.387 -0.375,0.719 -0.656,1 -0.344,0.344 -0.758,0.606 -1.235,0.781 -0.48,0.18 -1.086,0.266 -1.812,0.266 h -1.36 v 3.797 H 261.93 V 10.625 h 2.75 c 0.613,0 1.129,0.055 1.547,0.156 0.425,0.094 0.804,0.25 1.14,0.469 0.383,0.262 0.68,0.59 0.891,0.984 0.219,0.387 0.328,0.871 0.328,1.454 z m -1.406,0.046 c 0,-0.351 -0.063,-0.66 -0.188,-0.921 -0.125,-0.258 -0.312,-0.473 -0.562,-0.641 -0.219,-0.133 -0.469,-0.234 -0.75,-0.297 -0.282,-0.062 -0.637,-0.094 -1.063,-0.094 h -1.344 v 4.063 h 1.141 c 0.551,0 0.992,-0.047 1.328,-0.141 0.344,-0.101 0.625,-0.258 0.844,-0.469 0.207,-0.218 0.359,-0.445 0.453,-0.687 0.094,-0.25 0.141,-0.52 0.141,-0.813 z" /></g><text
       id="text278987"
       style="font-variant:normal;font-weight:normal;font-size:13.99999905px;font-family:Verdana;-inkscape-font-specification:Verdana;writing-mode:lr-tb;fill:#33949b;fill-opacity:1;fill-rule:nonzero;stroke:none"
       transform="scale(1,-1)"
       x="269.00522"
       y="-205.97357"><tspan
         id="tspan278985"
         y="-205.97357"
         x="269.00522">4</tspan></text>
<g
       transform="matrix(1,0,0,-1,0,226.77165)"
       id="g278989"><path
         inkscape:connector-curvature="0"
         id="path278991"
         style="fill:none;stroke:#000000;stroke-width:0.42519701;stroke-linecap:butt;stroke-linejoin:miter;stroke-miterlimit:4;stroke-dasharray:none;stroke-opacity:1"
         d="m 277.223,17.938 h -1.5 v 2.859 h -1.313 v -2.859 h -4.875 v -1.579 l 4.922,-5.734 h 1.266 v 6.219 h 1.5 z M 274.41,16.844 V 12.25 l -3.953,4.594 z" /></g><g
       transform="matrix(1,0,0,-1,0,226.77165)"
       id="g278993"><path
         inkscape:connector-curvature="0"
         id="path278995"
         style="fill:#33949b;fill-opacity:1;fill-rule:nonzero;stroke:#000000;stroke-width:2.45196891;stroke-linecap:butt;stroke-linejoin:miter;stroke-miterlimit:4;stroke-dasharray:none;stroke-opacity:1"
         d="m 288.238,167.645 c 0,3.55 -2.879,6.429 -6.429,6.429 -3.551,0 -6.426,-2.879 -6.426,-6.429 0,-3.551 2.875,-6.43 6.426,-6.43 3.55,0 6.429,2.879 6.429,6.43 z" /></g><text
       id="text278999"
       style="font-variant:normal;font-weight:normal;font-size:13.99999905px;font-family:Verdana;-inkscape-font-specification:Verdana;writing-mode:lr-tb;fill:#33949b;fill-opacity:1;fill-rule:nonzero;stroke:none"
       transform="scale(1,-1)"
       x="260.38116"
       y="-41.1273"><tspan
         id="tspan278997"
         y="-41.1273"
         x="260.38116">P</tspan></text>
<g
       transform="matrix(1,0,0,-1,0,226.77165)"
       id="g279001"><path
         inkscape:connector-curvature="0"
         id="path279003"
         style="fill:none;stroke:#000000;stroke-width:0.42519701;stroke-linecap:butt;stroke-linejoin:miter;stroke-miterlimit:4;stroke-dasharray:none;stroke-opacity:1"
         d="m 268.414,178.535 c 0,0.461 -0.086,0.883 -0.25,1.266 -0.156,0.387 -0.375,0.719 -0.656,1 -0.344,0.344 -0.758,0.605 -1.235,0.781 -0.48,0.18 -1.085,0.266 -1.812,0.266 h -1.359 v 3.797 h -1.344 v -10.172 h 2.75 c 0.613,0 1.129,0.054 1.547,0.156 0.425,0.094 0.804,0.25 1.14,0.469 0.383,0.261 0.68,0.59 0.891,0.984 0.219,0.387 0.328,0.871 0.328,1.453 z m -1.406,0.047 c 0,-0.352 -0.063,-0.66 -0.188,-0.922 -0.125,-0.258 -0.312,-0.472 -0.562,-0.64 -0.219,-0.133 -0.469,-0.235 -0.75,-0.297 -0.281,-0.063 -0.637,-0.094 -1.063,-0.094 h -1.343 v 4.062 h 1.14 c 0.551,0 0.992,-0.046 1.328,-0.14 0.344,-0.102 0.625,-0.258 0.844,-0.469 0.207,-0.219 0.359,-0.445 0.453,-0.687 0.094,-0.25 0.141,-0.52 0.141,-0.813 z" /></g><text
       id="text279007"
       style="font-variant:normal;font-weight:normal;font-size:13.99999905px;font-family:Verdana;-inkscape-font-specification:Verdana;writing-mode:lr-tb;fill:#33949b;fill-opacity:1;fill-rule:nonzero;stroke:none"
       transform="scale(1,-1)"
       x="268.83038"
       y="-41.1273"><tspan
         id="tspan279005"
         y="-41.1273"
         x="268.83038">1</tspan></text>
<g
       transform="matrix(1,0,0,-1,0,226.77165)"
       id="g279009"><path
         inkscape:connector-curvature="0"
         id="path279011"
         style="fill:none;stroke:#000000;stroke-width:0.42519701;stroke-linecap:butt;stroke-linejoin:miter;stroke-miterlimit:4;stroke-dasharray:none;stroke-opacity:1"
         d="m 276.238,185.645 h -5.5 v -1.047 h 2.11 v -6.813 h -2.11 v -0.937 c 0.282,0 0.582,-0.02 0.907,-0.063 0.332,-0.051 0.582,-0.125 0.75,-0.219 0.218,-0.113 0.382,-0.253 0.5,-0.421 0.125,-0.176 0.191,-0.415 0.203,-0.719 h 1.062 v 9.172 h 2.078 z" /></g><g
       transform="matrix(1,0,0,-1,0,226.77165)"
       id="g279013"><path
         inkscape:connector-curvature="0"
         id="path279015"
         style="fill:#33949b;fill-opacity:1;fill-rule:nonzero;stroke:#000000;stroke-width:2.45196891;stroke-linecap:butt;stroke-linejoin:miter;stroke-miterlimit:4;stroke-dasharray:none;stroke-opacity:1"
         d="m 427.355,28.055 c 0,3.55 -2.875,6.429 -6.425,6.429 -3.551,0 -6.43,-2.879 -6.43,-6.429 0,-3.551 2.879,-6.426 6.43,-6.426 3.55,0 6.425,2.875 6.425,6.426 z" /></g><text
       id="text279019"
       style="font-variant:normal;font-weight:normal;font-size:13.99999905px;font-family:Verdana;-inkscape-font-specification:Verdana;writing-mode:lr-tb;fill:#33949b;fill-opacity:1;fill-rule:nonzero;stroke:none"
       transform="scale(1,-1)"
       x="429.49991"
       y="-206.21544"><tspan
         id="tspan279017"
         y="-206.21544"
         x="429.49991">P</tspan></text>
<g
       transform="matrix(1,0,0,-1,0,226.77165)"
       id="g279021"><path
         inkscape:connector-curvature="0"
         id="path279023"
         style="fill:none;stroke:#000000;stroke-width:0.42519701;stroke-linecap:butt;stroke-linejoin:miter;stroke-miterlimit:4;stroke-dasharray:none;stroke-opacity:1"
         d="m 437.531,13.445 c 0,0.461 -0.086,0.883 -0.25,1.266 -0.156,0.387 -0.375,0.719 -0.656,1 -0.344,0.344 -0.758,0.605 -1.234,0.781 -0.481,0.18 -1.086,0.266 -1.813,0.266 h -1.359 v 3.797 h -1.344 V 10.383 h 2.75 c 0.613,0 1.129,0.055 1.547,0.156 0.426,0.094 0.805,0.25 1.141,0.469 0.382,0.262 0.679,0.59 0.89,0.984 0.219,0.387 0.328,0.871 0.328,1.453 z m -1.406,0.047 c 0,-0.351 -0.062,-0.66 -0.187,-0.922 -0.125,-0.257 -0.313,-0.472 -0.563,-0.64 -0.219,-0.133 -0.469,-0.235 -0.75,-0.297 -0.281,-0.063 -0.637,-0.094 -1.062,-0.094 h -1.344 v 4.063 h 1.14 c 0.551,0 0.993,-0.047 1.329,-0.141 0.343,-0.102 0.625,-0.258 0.843,-0.469 0.207,-0.219 0.36,-0.445 0.453,-0.687 0.094,-0.25 0.141,-0.52 0.141,-0.813 z" /></g><text
       id="text279027"
       style="font-variant:normal;font-weight:normal;font-size:13.99999905px;font-family:Verdana;-inkscape-font-specification:Verdana;writing-mode:lr-tb;fill:#33949b;fill-opacity:1;fill-rule:nonzero;stroke:none"
       transform="scale(1,-1)"
       x="437.94913"
       y="-206.21544"><tspan
         id="tspan279025"
         y="-206.21544"
         x="437.94913">3</tspan></text>
<g
       transform="matrix(1,0,0,-1,0,226.77165)"
       id="g279029"><path
         inkscape:connector-curvature="0"
         id="path279031"
         style="fill:none;stroke:#000000;stroke-width:0.42519701;stroke-linecap:butt;stroke-linejoin:miter;stroke-miterlimit:4;stroke-dasharray:none;stroke-opacity:1"
         d="m 445.043,15.648 c 0.219,0.2 0.395,0.45 0.531,0.75 0.145,0.293 0.219,0.672 0.219,1.141 0,0.469 -0.086,0.899 -0.25,1.281 -0.168,0.387 -0.402,0.727 -0.703,1.016 -0.344,0.312 -0.75,0.547 -1.219,0.703 -0.461,0.156 -0.965,0.234 -1.516,0.234 -0.562,0 -1.121,-0.07 -1.671,-0.203 -0.543,-0.132 -0.993,-0.285 -1.344,-0.453 v -1.422 h 0.109 c 0.383,0.25 0.836,0.465 1.36,0.641 0.519,0.168 1.023,0.25 1.515,0.25 0.289,0 0.598,-0.047 0.922,-0.141 0.32,-0.101 0.582,-0.242 0.781,-0.422 0.207,-0.207 0.364,-0.429 0.469,-0.671 0.102,-0.239 0.156,-0.547 0.156,-0.922 0,-0.364 -0.058,-0.66 -0.172,-0.891 -0.117,-0.238 -0.277,-0.43 -0.484,-0.578 -0.211,-0.133 -0.461,-0.227 -0.75,-0.281 -0.293,-0.051 -0.605,-0.078 -0.937,-0.078 h -0.61 v -1.141 h 0.469 c 0.695,0 1.25,-0.141 1.656,-0.422 0.414,-0.289 0.625,-0.719 0.625,-1.281 0,-0.238 -0.054,-0.453 -0.156,-0.641 -0.105,-0.187 -0.25,-0.336 -0.438,-0.453 -0.199,-0.125 -0.414,-0.207 -0.64,-0.25 -0.219,-0.039 -0.469,-0.062 -0.75,-0.062 -0.438,0 -0.902,0.078 -1.391,0.234 -0.48,0.148 -0.937,0.367 -1.375,0.656 h -0.062 v -1.437 c 0.32,-0.157 0.754,-0.301 1.297,-0.438 0.539,-0.133 1.062,-0.203 1.562,-0.203 0.5,0 0.938,0.047 1.313,0.141 0.382,0.086 0.726,0.23 1.031,0.437 0.32,0.219 0.566,0.485 0.734,0.797 0.176,0.305 0.266,0.664 0.266,1.078 0,0.563 -0.203,1.059 -0.61,1.485 -0.398,0.418 -0.867,0.683 -1.406,0.796 v 0.094 c 0.219,0.031 0.469,0.11 0.75,0.235 0.281,0.117 0.52,0.257 0.719,0.421 z" /></g><g
       transform="matrix(1,0,0,-1,0,226.77165)"
       id="g279033"><path
         inkscape:connector-curvature="0"
         id="path279035"
         style="fill:#33949b;fill-opacity:1;fill-rule:nonzero;stroke:#000000;stroke-width:2.45196891;stroke-linecap:butt;stroke-linejoin:miter;stroke-miterlimit:4;stroke-dasharray:none;stroke-opacity:1"
         d="m 427.102,167.18 c 0,3.55 -2.879,6.429 -6.43,6.429 -3.551,0 -6.426,-2.879 -6.426,-6.429 0,-3.551 2.875,-6.43 6.426,-6.43 3.551,0 6.43,2.879 6.43,6.43 z" /></g><text
       id="text279039"
       style="font-variant:normal;font-weight:normal;font-size:13.99999905px;font-family:Verdana;-inkscape-font-specification:Verdana;writing-mode:lr-tb;fill:#33949b;fill-opacity:1;fill-rule:nonzero;stroke:none"
       transform="scale(1,-1)"
       x="429.24463"
       y="-41.591064"><tspan
         id="tspan279037"
         y="-41.591064"
         x="429.24463">P</tspan></text>
<g
       transform="matrix(1,0,0,-1,0,226.77165)"
       id="g279041"><path
         inkscape:connector-curvature="0"
         id="path279043"
         style="fill:none;stroke:#000000;stroke-width:0.42519701;stroke-linecap:butt;stroke-linejoin:miter;stroke-miterlimit:4;stroke-dasharray:none;stroke-opacity:1"
         d="m 437.277,178.07 c 0,0.461 -0.086,0.883 -0.25,1.266 -0.156,0.387 -0.375,0.719 -0.656,1 -0.344,0.344 -0.758,0.605 -1.234,0.781 -0.481,0.18 -1.086,0.266 -1.813,0.266 h -1.359 v 3.797 h -1.344 v -10.172 h 2.75 c 0.613,0 1.129,0.055 1.547,0.156 0.426,0.094 0.805,0.25 1.141,0.469 0.382,0.262 0.679,0.59 0.89,0.984 0.219,0.387 0.328,0.871 0.328,1.453 z m -1.406,0.047 c 0,-0.351 -0.062,-0.66 -0.187,-0.922 -0.125,-0.257 -0.313,-0.472 -0.563,-0.64 -0.219,-0.133 -0.469,-0.235 -0.75,-0.297 -0.281,-0.063 -0.637,-0.094 -1.062,-0.094 h -1.344 v 4.063 h 1.14 c 0.551,0 0.993,-0.047 1.329,-0.141 0.343,-0.102 0.625,-0.258 0.843,-0.469 0.207,-0.219 0.36,-0.445 0.453,-0.687 0.094,-0.25 0.141,-0.52 0.141,-0.813 z" /></g><text
       id="text279047"
       style="font-variant:normal;font-weight:normal;font-size:13.99999905px;font-family:Verdana;-inkscape-font-specification:Verdana;writing-mode:lr-tb;fill:#33949b;fill-opacity:1;fill-rule:nonzero;stroke:none"
       transform="scale(1,-1)"
       x="437.69385"
       y="-41.591064"><tspan
         id="tspan279045"
         y="-41.591064"
         x="437.69385">2</tspan></text>
<g
       transform="matrix(1,0,0,-1,0,226.77165)"
       id="g279049"><path
         inkscape:connector-curvature="0"
         id="path279051"
         style="fill:none;stroke:#000000;stroke-width:0.42519701;stroke-linecap:butt;stroke-linejoin:miter;stroke-miterlimit:4;stroke-dasharray:none;stroke-opacity:1"
         d="m 445.68,185.18 h -6.891 v -1.422 c 0.477,-0.414 0.957,-0.828 1.438,-1.235 0.488,-0.414 0.941,-0.828 1.359,-1.234 0.875,-0.844 1.473,-1.516 1.797,-2.016 0.32,-0.5 0.484,-1.035 0.484,-1.609 0,-0.531 -0.179,-0.941 -0.531,-1.234 -0.344,-0.301 -0.828,-0.453 -1.453,-0.453 -0.418,0 -0.871,0.074 -1.36,0.218 -0.48,0.149 -0.949,0.371 -1.406,0.672 h -0.062 v -1.437 c 0.32,-0.164 0.75,-0.313 1.281,-0.438 0.539,-0.133 1.066,-0.203 1.578,-0.203 1.039,0 1.859,0.258 2.453,0.766 0.594,0.5 0.891,1.179 0.891,2.031 0,0.398 -0.055,0.762 -0.156,1.094 -0.094,0.336 -0.235,0.652 -0.422,0.953 -0.18,0.281 -0.387,0.558 -0.625,0.828 -0.242,0.273 -0.532,0.574 -0.875,0.906 -0.492,0.481 -0.996,0.946 -1.516,1.391 -0.523,0.449 -1.008,0.867 -1.453,1.25 h 5.469 z" /></g><g
       transform="matrix(1,0,0,-1,0,226.77165)"
       id="g279053"><path
         inkscape:connector-curvature="0"
         id="path279055"
         style="fill:none;stroke:#3249a2;stroke-width:2.4094491;stroke-linecap:butt;stroke-linejoin:miter;stroke-miterlimit:4;stroke-dasharray:none;stroke-opacity:1"
         d="M 413.344,28.258 H 289.5" /></g><g
       transform="matrix(1,0,0,-1,0,226.77165)"
       id="g279057"><path
         inkscape:connector-curvature="0"
         id="path279059"
         style="fill:none;stroke:#3249a2;stroke-width:2.4094491;stroke-linecap:butt;stroke-linejoin:miter;stroke-miterlimit:4;stroke-dasharray:none;stroke-opacity:1"
         d="M 413.164,167.676 H 289.32" /></g><g
       transform="matrix(1,0,0,-1,0,226.77165)"
       id="g279061"><path
         inkscape:connector-curvature="0"
         id="path279063"
         style="fill:none;stroke:#3249a2;stroke-width:2.4094491;stroke-linecap:butt;stroke-linejoin:miter;stroke-miterlimit:4;stroke-dasharray:none;stroke-opacity:1"
         d="M 282,160.09 V 35.91" /></g><g
       transform="matrix(1,0,0,-1,0,226.77165)"
       id="g279065"><path
         inkscape:connector-curvature="0"
         id="path279067"
         style="fill:none;stroke:#3249a2;stroke-width:2.4094491;stroke-linecap:butt;stroke-linejoin:miter;stroke-miterlimit:4;stroke-dasharray:none;stroke-opacity:1"
         d="M 420.578,159.641 V 35.465" /></g><text
       id="text279071"
       style="font-variant:normal;font-weight:normal;font-size:13.99999905px;font-family:Verdana;-inkscape-font-specification:Verdana;writing-mode:lr-tb;fill:#3249a2;fill-opacity:1;fill-rule:nonzero;stroke:none"
       transform="scale(1,-1)"
       x="343.33963"
       y="-44.496731"><tspan
         id="tspan279069"
         y="-44.496731"
         x="343.33963">E</tspan></text>
<g
       transform="matrix(1,0,0,-1,0,226.77165)"
       id="g279073"><path
         inkscape:connector-curvature="0"
         id="path279075"
         style="fill:none;stroke:#000000;stroke-width:0.42519701;stroke-linecap:butt;stroke-linejoin:miter;stroke-miterlimit:4;stroke-dasharray:none;stroke-opacity:1"
         d="m 351.418,182.273 h -6.703 v -10.171 h 6.703 v 1.203 h -5.359 v 2.781 h 5.359 v 1.203 h -5.359 v 3.781 h 5.359 z" /></g><text
       id="text279079"
       style="font-variant:normal;font-weight:normal;font-size:13.99999905px;font-family:Verdana;-inkscape-font-specification:Verdana;writing-mode:lr-tb;fill:#3249a2;fill-opacity:1;fill-rule:nonzero;stroke:none"
       transform="scale(1,-1)"
       x="352.19901"
       y="-44.496731"><tspan
         id="tspan279077"
         y="-44.496731"
         x="352.19901">1</tspan></text>
<g
       transform="matrix(1,0,0,-1,0,226.77165)"
       id="g279081"><path
         inkscape:connector-curvature="0"
         id="path279083"
         style="fill:none;stroke:#000000;stroke-width:0.42519701;stroke-linecap:butt;stroke-linejoin:miter;stroke-miterlimit:4;stroke-dasharray:none;stroke-opacity:1"
         d="m 359.605,182.273 h -5.5 v -1.046 h 2.11 v -6.813 h -2.11 v -0.937 c 0.282,0 0.583,-0.02 0.907,-0.063 0.332,-0.051 0.582,-0.125 0.75,-0.219 0.218,-0.113 0.383,-0.254 0.5,-0.422 0.125,-0.175 0.191,-0.414 0.203,-0.718 h 1.062 v 9.172 h 2.078 z" /></g><text
       id="text279087"
       style="font-variant:normal;font-weight:normal;font-size:13.99999905px;font-family:Verdana;-inkscape-font-specification:Verdana;writing-mode:lr-tb;fill:#3249a2;fill-opacity:1;fill-rule:nonzero;stroke:none"
       transform="scale(1,-1)"
       x="345.77124"
       y="-204.92587"><tspan
         id="tspan279085"
         y="-204.92587"
         x="345.77124">E</tspan></text>
<g
       transform="matrix(1,0,0,-1,0,226.77165)"
       id="g279089"><path
         inkscape:connector-curvature="0"
         id="path279091"
         style="fill:none;stroke:#000000;stroke-width:0.42519701;stroke-linecap:butt;stroke-linejoin:miter;stroke-miterlimit:4;stroke-dasharray:none;stroke-opacity:1"
         d="m 353.848,21.848 h -6.703 V 11.676 h 6.703 v 1.203 h -5.36 v 2.781 h 5.36 v 1.203 h -5.36 v 3.782 h 5.36 z" /></g><text
       id="text279095"
       style="font-variant:normal;font-weight:normal;font-size:13.99999905px;font-family:Verdana;-inkscape-font-specification:Verdana;writing-mode:lr-tb;fill:#3249a2;fill-opacity:1;fill-rule:nonzero;stroke:none"
       transform="scale(1,-1)"
       x="354.63062"
       y="-204.92587"><tspan
         id="tspan279093"
         y="-204.92587"
         x="354.63062">3</tspan></text>
<g
       transform="matrix(1,0,0,-1,0,226.77165)"
       id="g279097"><path
         inkscape:connector-curvature="0"
         id="path279099"
         style="fill:none;stroke:#000000;stroke-width:0.42519701;stroke-linecap:butt;stroke-linejoin:miter;stroke-miterlimit:4;stroke-dasharray:none;stroke-opacity:1"
         d="m 361.723,16.941 c 0.218,0.2 0.394,0.45 0.531,0.75 0.144,0.293 0.219,0.672 0.219,1.141 0,0.469 -0.086,0.898 -0.25,1.281 -0.168,0.387 -0.403,0.727 -0.703,1.016 -0.344,0.312 -0.75,0.547 -1.219,0.703 -0.461,0.156 -0.965,0.234 -1.516,0.234 -0.562,0 -1.121,-0.07 -1.672,-0.203 -0.543,-0.133 -0.992,-0.285 -1.343,-0.453 v -1.422 h 0.109 c 0.383,0.25 0.836,0.465 1.359,0.641 0.52,0.168 1.024,0.25 1.516,0.25 0.289,0 0.598,-0.047 0.922,-0.141 0.32,-0.101 0.582,-0.242 0.781,-0.422 0.207,-0.207 0.363,-0.429 0.469,-0.671 0.101,-0.239 0.156,-0.547 0.156,-0.922 0,-0.364 -0.059,-0.66 -0.172,-0.891 -0.117,-0.238 -0.277,-0.43 -0.484,-0.578 -0.211,-0.133 -0.461,-0.227 -0.75,-0.281 -0.293,-0.051 -0.606,-0.078 -0.938,-0.078 h -0.609 v -1.141 h 0.469 c 0.695,0 1.25,-0.141 1.656,-0.422 0.414,-0.289 0.625,-0.719 0.625,-1.281 0,-0.238 -0.055,-0.453 -0.156,-0.641 -0.106,-0.187 -0.25,-0.336 -0.438,-0.453 -0.199,-0.125 -0.414,-0.207 -0.64,-0.25 -0.219,-0.039 -0.469,-0.062 -0.75,-0.062 -0.438,0 -0.903,0.078 -1.391,0.234 -0.481,0.148 -0.938,0.367 -1.375,0.656 h -0.063 v -1.437 c 0.321,-0.157 0.754,-0.301 1.297,-0.438 0.539,-0.133 1.063,-0.203 1.563,-0.203 0.5,0 0.937,0.047 1.312,0.141 0.383,0.086 0.727,0.23 1.032,0.437 0.32,0.219 0.566,0.485 0.734,0.797 0.176,0.305 0.266,0.664 0.266,1.078 0,0.563 -0.204,1.059 -0.61,1.485 -0.398,0.418 -0.867,0.683 -1.406,0.796 v 0.094 c 0.219,0.031 0.469,0.11 0.75,0.235 0.281,0.117 0.519,0.257 0.719,0.421 z" /></g><text
       id="text279103"
       style="font-variant:normal;font-weight:normal;font-size:13.99999905px;font-family:Verdana;-inkscape-font-specification:Verdana;writing-mode:lr-tb;fill:#3249a2;fill-opacity:1;fill-rule:nonzero;stroke:none"
       transform="scale(1,-1)"
       x="426.66412"
       y="-122.42604"><tspan
         id="tspan279101"
         y="-122.42604"
         x="426.66412">E</tspan></text>
<g
       transform="matrix(1,0,0,-1,0,226.77165)"
       id="g279105"><path
         inkscape:connector-curvature="0"
         id="path279107"
         style="fill:none;stroke:#000000;stroke-width:0.42519701;stroke-linecap:butt;stroke-linejoin:miter;stroke-miterlimit:4;stroke-dasharray:none;stroke-opacity:1"
         d="m 434.742,104.344 h -6.703 V 94.172 h 6.703 v 1.203 h -5.359 v 2.781 h 5.359 v 1.203 h -5.359 v 3.782 h 5.359 z" /></g><text
       id="text279111"
       style="font-variant:normal;font-weight:normal;font-size:13.99999905px;font-family:Verdana;-inkscape-font-specification:Verdana;writing-mode:lr-tb;fill:#3249a2;fill-opacity:1;fill-rule:nonzero;stroke:none"
       transform="scale(1,-1)"
       x="435.52347"
       y="-122.42604"><tspan
         id="tspan279109"
         y="-122.42604"
         x="435.52347">2</tspan></text>
<g
       transform="matrix(1,0,0,-1,0,226.77165)"
       id="g279113"><path
         inkscape:connector-curvature="0"
         id="path279115"
         style="fill:none;stroke:#000000;stroke-width:0.42519701;stroke-linecap:butt;stroke-linejoin:miter;stroke-miterlimit:4;stroke-dasharray:none;stroke-opacity:1"
         d="m 443.508,104.344 h -6.891 v -1.422 c 0.477,-0.414 0.957,-0.828 1.438,-1.234 0.488,-0.415 0.941,-0.829 1.359,-1.235 0.875,-0.844 1.473,-1.515 1.797,-2.015 0.32,-0.5 0.484,-1.036 0.484,-1.61 0,-0.531 -0.179,-0.941 -0.531,-1.234 -0.344,-0.301 -0.828,-0.453 -1.453,-0.453 -0.418,0 -0.871,0.074 -1.359,0.218 -0.481,0.149 -0.95,0.371 -1.407,0.672 h -0.062 v -1.437 c 0.32,-0.164 0.75,-0.313 1.281,-0.438 0.539,-0.133 1.066,-0.203 1.578,-0.203 1.039,0 1.86,0.258 2.453,0.766 0.594,0.5 0.891,1.179 0.891,2.031 0,0.398 -0.055,0.762 -0.156,1.094 -0.094,0.336 -0.235,0.652 -0.422,0.953 -0.18,0.281 -0.387,0.558 -0.625,0.828 -0.242,0.273 -0.531,0.574 -0.875,0.906 -0.492,0.481 -0.996,0.946 -1.516,1.391 -0.523,0.449 -1.008,0.867 -1.453,1.25 h 5.469 z" /></g><text
       id="text279119"
       style="font-variant:normal;font-weight:normal;font-size:13.99999905px;font-family:Verdana;-inkscape-font-specification:Verdana;writing-mode:lr-tb;fill:#3249a2;fill-opacity:1;fill-rule:nonzero;stroke:none"
       transform="scale(1,-1)"
       x="259.52124"
       y="-121.89039"><tspan
         id="tspan279117"
         y="-121.89039"
         x="259.52124">E</tspan></text>
<g
       transform="matrix(1,0,0,-1,0,226.77165)"
       id="g279121"><path
         inkscape:connector-curvature="0"
         id="path279123"
         style="fill:none;stroke:#000000;stroke-width:0.42519701;stroke-linecap:butt;stroke-linejoin:miter;stroke-miterlimit:4;stroke-dasharray:none;stroke-opacity:1"
         d="m 267.598,104.883 h -6.703 V 94.711 h 6.703 v 1.203 h -5.36 v 2.781 h 5.36 v 1.203 h -5.36 v 3.782 h 5.36 z" /></g><text
       id="text279127"
       style="font-variant:normal;font-weight:normal;font-size:13.99999905px;font-family:Verdana;-inkscape-font-specification:Verdana;writing-mode:lr-tb;fill:#3249a2;fill-opacity:1;fill-rule:nonzero;stroke:none"
       transform="scale(1,-1)"
       x="268.38062"
       y="-121.89039"><tspan
         id="tspan279125"
         y="-121.89039"
         x="268.38062">4</tspan></text>
<g
       transform="matrix(1,0,0,-1,0,226.77165)"
       id="g279129"><path
         inkscape:connector-curvature="0"
         id="path279131"
         style="fill:none;stroke:#000000;stroke-width:0.42519701;stroke-linecap:butt;stroke-linejoin:miter;stroke-miterlimit:4;stroke-dasharray:none;stroke-opacity:1"
         d="m 276.598,102.023 h -1.5 v 2.86 h -1.313 v -2.86 h -4.875 v -1.578 l 4.922,-5.734 h 1.266 v 6.219 h 1.5 z m -2.813,-1.093 v -4.594 l -3.953,4.594 z" /></g><g
       transform="matrix(1,0,0,-1,0,226.77165)"
       id="g279133"><path
         inkscape:connector-curvature="0"
         id="path279135"
         style="fill:#33949b;fill-opacity:1;fill-rule:nonzero;stroke:#000000;stroke-width:2.45196891;stroke-linecap:butt;stroke-linejoin:miter;stroke-miterlimit:4;stroke-dasharray:none;stroke-opacity:1"
         d="m 29.879,27.762 c 0,3.551 -2.879,6.429 -6.43,6.429 -3.551,0 -6.429,-2.878 -6.429,-6.429 0,-3.551 2.878,-6.43 6.429,-6.43 3.551,0 6.43,2.879 6.43,6.43 z" /></g><text
       id="text279139"
       style="font-variant:normal;font-weight:normal;font-size:13.99999905px;font-family:Verdana;-inkscape-font-specification:Verdana;writing-mode:lr-tb;fill:#33949b;fill-opacity:1;fill-rule:nonzero;stroke:none"
       transform="scale(1,-1)"
       x="2.020241"
       y="-206.50929"><tspan
         id="tspan279137"
         y="-206.50929"
         x="2.020241">P</tspan></text>
<g
       transform="matrix(1,0,0,-1,0,226.77165)"
       id="g279141"><path
         inkscape:connector-curvature="0"
         id="path279143"
         style="fill:none;stroke:#000000;stroke-width:0.42519701;stroke-linecap:butt;stroke-linejoin:miter;stroke-miterlimit:4;stroke-dasharray:none;stroke-opacity:1"
         d="m 10.051,13.152 c 0,0.461 -0.086,0.883 -0.25,1.266 -0.156,0.387 -0.375,0.719 -0.656,1 -0.344,0.344 -0.758,0.605 -1.235,0.781 -0.48,0.18 -1.086,0.266 -1.812,0.266 h -1.36 v 3.797 H 3.395 V 10.09 h 2.75 c 0.613,0 1.128,0.055 1.546,0.156 0.426,0.094 0.805,0.25 1.141,0.469 0.383,0.262 0.68,0.59 0.891,0.984 0.218,0.387 0.328,0.871 0.328,1.453 z m -1.406,0.047 c 0,-0.351 -0.063,-0.66 -0.188,-0.922 C 8.332,12.02 8.145,11.805 7.895,11.637 7.676,11.504 7.426,11.402 7.145,11.34 6.863,11.277 6.508,11.246 6.082,11.246 H 4.738 v 4.063 h 1.141 c 0.551,0 0.992,-0.047 1.328,-0.141 0.344,-0.102 0.625,-0.258 0.844,-0.469 0.207,-0.219 0.359,-0.445 0.453,-0.687 0.094,-0.25 0.141,-0.52 0.141,-0.813 z" /></g><text
       id="text279147"
       style="font-variant:normal;font-weight:normal;font-size:13.99999905px;font-family:Verdana;-inkscape-font-specification:Verdana;writing-mode:lr-tb;fill:#33949b;fill-opacity:1;fill-rule:nonzero;stroke:none"
       transform="scale(1,-1)"
       x="10.469459"
       y="-206.50929"><tspan
         id="tspan279145"
         y="-206.50929"
         x="10.469459">4</tspan></text>
<g
       transform="matrix(1,0,0,-1,0,226.77165)"
       id="g279149"><path
         inkscape:connector-curvature="0"
         id="path279151"
         style="fill:none;stroke:#000000;stroke-width:0.42519701;stroke-linecap:butt;stroke-linejoin:miter;stroke-miterlimit:4;stroke-dasharray:none;stroke-opacity:1"
         d="m 18.688,17.402 h -1.5 v 2.86 h -1.313 v -2.86 H 11 v -1.578 l 4.922,-5.734 h 1.266 v 6.219 h 1.5 z m -2.813,-1.093 v -4.594 l -3.953,4.594 z" /></g><g
       transform="matrix(1,0,0,-1,0,226.77165)"
       id="g279153"><path
         inkscape:connector-curvature="0"
         id="path279155"
         style="fill:#33949b;fill-opacity:1;fill-rule:nonzero;stroke:#000000;stroke-width:2.45196891;stroke-linecap:butt;stroke-linejoin:miter;stroke-miterlimit:4;stroke-dasharray:none;stroke-opacity:1"
         d="m 29.703,167.109 c 0,3.551 -2.879,6.426 -6.43,6.426 -3.55,0 -6.429,-2.875 -6.429,-6.426 0,-3.55 2.879,-6.429 6.429,-6.429 3.551,0 6.43,2.879 6.43,6.429 z" /></g><text
       id="text279159"
       style="font-variant:normal;font-weight:normal;font-size:13.99999905px;font-family:Verdana;-inkscape-font-specification:Verdana;writing-mode:lr-tb;fill:#33949b;fill-opacity:1;fill-rule:nonzero;stroke:none"
       transform="scale(1,-1)"
       x="1.8454109"
       y="-41.663036"><tspan
         id="tspan279157"
         y="-41.663036"
         x="1.8454109">P</tspan></text>
<g
       transform="matrix(1,0,0,-1,0,226.77165)"
       id="g279161"><path
         inkscape:connector-curvature="0"
         id="path279163"
         style="fill:none;stroke:#000000;stroke-width:0.42519701;stroke-linecap:butt;stroke-linejoin:miter;stroke-miterlimit:4;stroke-dasharray:none;stroke-opacity:1"
         d="m 9.875,178 c 0,0.461 -0.086,0.883 -0.25,1.266 -0.156,0.386 -0.375,0.718 -0.656,1 -0.344,0.343 -0.758,0.605 -1.235,0.781 -0.48,0.18 -1.086,0.266 -1.812,0.266 H 4.563 v 3.796 H 3.219 v -10.171 h 2.75 c 0.613,0 1.129,0.054 1.547,0.156 0.425,0.094 0.804,0.25 1.14,0.469 0.383,0.261 0.68,0.589 0.891,0.984 0.219,0.387 0.328,0.871 0.328,1.453 z m -1.406,0.047 c 0,-0.352 -0.063,-0.66 -0.188,-0.922 C 8.156,176.867 7.969,176.652 7.719,176.484 7.5,176.352 7.25,176.25 6.969,176.188 6.688,176.125 6.332,176.094 5.906,176.094 H 4.563 v 4.062 h 1.14 c 0.551,0 0.992,-0.047 1.328,-0.14 0.344,-0.102 0.625,-0.258 0.844,-0.469 0.207,-0.219 0.359,-0.445 0.453,-0.688 0.094,-0.25 0.141,-0.519 0.141,-0.812 z" /></g><text
       id="text279167"
       style="font-variant:normal;font-weight:normal;font-size:13.99999905px;font-family:Verdana;-inkscape-font-specification:Verdana;writing-mode:lr-tb;fill:#33949b;fill-opacity:1;fill-rule:nonzero;stroke:none"
       transform="scale(1,-1)"
       x="10.294629"
       y="-41.663036"><tspan
         id="tspan279165"
         y="-41.663036"
         x="10.294629">1</tspan></text>
<g
       transform="matrix(1,0,0,-1,0,226.77165)"
       id="g279169"><path
         inkscape:connector-curvature="0"
         id="path279171"
         style="fill:none;stroke:#000000;stroke-width:0.42519701;stroke-linecap:butt;stroke-linejoin:miter;stroke-miterlimit:4;stroke-dasharray:none;stroke-opacity:1"
         d="m 17.699,185.109 h -5.5 v -1.046 h 2.11 v -6.813 h -2.11 v -0.937 c 0.281,0 0.582,-0.02 0.906,-0.063 0.333,-0.051 0.583,-0.125 0.75,-0.219 0.219,-0.113 0.383,-0.254 0.5,-0.422 0.125,-0.175 0.192,-0.414 0.204,-0.718 h 1.062 v 9.172 h 2.078 z" /></g><g
       transform="matrix(1,0,0,-1,0,226.77165)"
       id="g279173"><path
         inkscape:connector-curvature="0"
         id="path279175"
         style="fill:#33949b;fill-opacity:1;fill-rule:nonzero;stroke:#000000;stroke-width:2.45196891;stroke-linecap:butt;stroke-linejoin:miter;stroke-miterlimit:4;stroke-dasharray:none;stroke-opacity:1"
         d="m 168.82,27.52 c 0,3.55 -2.879,6.429 -6.425,6.429 -3.551,0 -6.43,-2.879 -6.43,-6.429 0,-3.551 2.879,-6.426 6.43,-6.426 3.546,0 6.425,2.875 6.425,6.426 z" /></g><text
       id="text279179"
       style="font-variant:normal;font-weight:normal;font-size:13.99999905px;font-family:Verdana;-inkscape-font-specification:Verdana;writing-mode:lr-tb;fill:#33949b;fill-opacity:1;fill-rule:nonzero;stroke:none"
       transform="scale(1,-1)"
       x="170.96422"
       y="-206.75117"><tspan
         id="tspan279177"
         y="-206.75117"
         x="170.96422">P</tspan></text>
<g
       transform="matrix(1,0,0,-1,0,226.77165)"
       id="g279181"><path
         inkscape:connector-curvature="0"
         id="path279183"
         style="fill:none;stroke:#000000;stroke-width:0.42519701;stroke-linecap:butt;stroke-linejoin:miter;stroke-miterlimit:4;stroke-dasharray:none;stroke-opacity:1"
         d="m 178.996,12.91 c 0,0.461 -0.086,0.883 -0.25,1.266 -0.156,0.387 -0.375,0.719 -0.656,1 -0.344,0.344 -0.758,0.605 -1.235,0.781 -0.48,0.18 -1.085,0.266 -1.812,0.266 h -1.359 V 20.02 H 172.34 V 9.848 h 2.75 c 0.613,0 1.129,0.054 1.547,0.156 0.426,0.094 0.804,0.25 1.14,0.469 0.383,0.261 0.68,0.59 0.891,0.984 0.219,0.387 0.328,0.871 0.328,1.453 z m -1.406,0.047 c 0,-0.352 -0.063,-0.66 -0.188,-0.922 -0.125,-0.258 -0.312,-0.472 -0.562,-0.64 -0.219,-0.133 -0.469,-0.235 -0.75,-0.297 -0.281,-0.063 -0.637,-0.094 -1.063,-0.094 h -1.343 v 4.062 h 1.14 c 0.551,0 0.992,-0.046 1.328,-0.14 0.344,-0.102 0.625,-0.258 0.844,-0.469 0.207,-0.219 0.359,-0.445 0.453,-0.687 0.094,-0.25 0.141,-0.52 0.141,-0.813 z" /></g><text
       id="text279187"
       style="font-variant:normal;font-weight:normal;font-size:13.99999905px;font-family:Verdana;-inkscape-font-specification:Verdana;writing-mode:lr-tb;fill:#33949b;fill-opacity:1;fill-rule:nonzero;stroke:none"
       transform="scale(1,-1)"
       x="179.41344"
       y="-206.75117"><tspan
         id="tspan279185"
         y="-206.75117"
         x="179.41344">3</tspan></text>
<g
       transform="matrix(1,0,0,-1,0,226.77165)"
       id="g279189"><path
         inkscape:connector-curvature="0"
         id="path279191"
         style="fill:none;stroke:#000000;stroke-width:0.42519701;stroke-linecap:butt;stroke-linejoin:miter;stroke-miterlimit:4;stroke-dasharray:none;stroke-opacity:1"
         d="m 186.508,15.113 c 0.219,0.2 0.394,0.45 0.531,0.75 0.145,0.293 0.219,0.672 0.219,1.141 0,0.469 -0.086,0.898 -0.25,1.281 -0.168,0.387 -0.403,0.727 -0.703,1.016 -0.344,0.312 -0.75,0.547 -1.219,0.703 -0.461,0.156 -0.965,0.234 -1.516,0.234 -0.562,0 -1.121,-0.07 -1.672,-0.203 -0.543,-0.133 -0.992,-0.285 -1.343,-0.453 V 18.16 h 0.109 c 0.383,0.25 0.836,0.465 1.359,0.641 0.52,0.168 1.024,0.25 1.516,0.25 0.289,0 0.598,-0.047 0.922,-0.141 0.32,-0.101 0.582,-0.242 0.781,-0.422 0.207,-0.207 0.363,-0.429 0.469,-0.672 0.102,-0.238 0.156,-0.546 0.156,-0.921 0,-0.364 -0.058,-0.661 -0.172,-0.891 -0.117,-0.238 -0.277,-0.43 -0.484,-0.578 -0.211,-0.133 -0.461,-0.227 -0.75,-0.281 -0.293,-0.051 -0.606,-0.079 -0.938,-0.079 h -0.609 v -1.14 h 0.469 c 0.695,0 1.25,-0.141 1.656,-0.422 0.414,-0.289 0.625,-0.719 0.625,-1.281 0,-0.239 -0.055,-0.453 -0.156,-0.641 -0.106,-0.187 -0.25,-0.336 -0.438,-0.453 -0.199,-0.125 -0.414,-0.207 -0.64,-0.25 -0.219,-0.039 -0.469,-0.063 -0.75,-0.063 -0.438,0 -0.903,0.079 -1.391,0.235 -0.48,0.148 -0.937,0.367 -1.375,0.656 h -0.062 V 10.27 c 0.32,-0.157 0.753,-0.301 1.296,-0.438 0.54,-0.133 1.063,-0.203 1.563,-0.203 0.5,0 0.937,0.047 1.312,0.141 0.383,0.085 0.727,0.23 1.032,0.437 0.32,0.219 0.566,0.484 0.734,0.797 0.176,0.305 0.266,0.664 0.266,1.078 0,0.563 -0.203,1.059 -0.61,1.484 -0.398,0.418 -0.867,0.684 -1.406,0.797 v 0.094 c 0.219,0.031 0.469,0.109 0.75,0.234 0.281,0.118 0.52,0.258 0.719,0.422 z" /></g><g
       transform="matrix(1,0,0,-1,0,226.77165)"
       id="g279193"><path
         inkscape:connector-curvature="0"
         id="path279195"
         style="fill:#33949b;fill-opacity:1;fill-rule:nonzero;stroke:#000000;stroke-width:2.45196891;stroke-linecap:butt;stroke-linejoin:miter;stroke-miterlimit:4;stroke-dasharray:none;stroke-opacity:1"
         d="m 168.566,166.645 c 0,3.55 -2.878,6.429 -6.429,6.429 -3.551,0 -6.43,-2.879 -6.43,-6.429 0,-3.551 2.879,-6.43 6.43,-6.43 3.551,0 6.429,2.879 6.429,6.43 z" /></g><text
       id="text279199"
       style="font-variant:normal;font-weight:normal;font-size:13.99999905px;font-family:Verdana;-inkscape-font-specification:Verdana;writing-mode:lr-tb;fill:#33949b;fill-opacity:1;fill-rule:nonzero;stroke:none"
       transform="scale(1,-1)"
       x="170.70894"
       y="-42.126797"><tspan
         id="tspan279197"
         y="-42.126797"
         x="170.70894">P</tspan></text>
<g
       transform="matrix(1,0,0,-1,0,226.77165)"
       id="g279201"><path
         inkscape:connector-curvature="0"
         id="path279203"
         style="fill:none;stroke:#000000;stroke-width:0.42519701;stroke-linecap:butt;stroke-linejoin:miter;stroke-miterlimit:4;stroke-dasharray:none;stroke-opacity:1"
         d="m 178.738,177.535 c 0,0.461 -0.086,0.883 -0.25,1.266 -0.156,0.387 -0.375,0.719 -0.656,1 -0.344,0.344 -0.758,0.605 -1.234,0.781 -0.481,0.18 -1.086,0.266 -1.813,0.266 h -1.359 v 3.797 h -1.344 v -10.172 h 2.75 c 0.613,0 1.129,0.054 1.547,0.156 0.426,0.094 0.805,0.25 1.141,0.469 0.382,0.261 0.679,0.59 0.89,0.984 0.219,0.387 0.328,0.871 0.328,1.453 z m -1.406,0.047 c 0,-0.352 -0.062,-0.66 -0.187,-0.922 -0.125,-0.258 -0.313,-0.472 -0.563,-0.64 -0.219,-0.133 -0.469,-0.235 -0.75,-0.297 -0.281,-0.063 -0.637,-0.094 -1.062,-0.094 h -1.344 v 4.062 h 1.14 c 0.551,0 0.993,-0.046 1.329,-0.14 0.343,-0.102 0.625,-0.258 0.843,-0.469 0.207,-0.219 0.36,-0.445 0.453,-0.687 0.094,-0.25 0.141,-0.52 0.141,-0.813 z" /></g><text
       id="text279207"
       style="font-variant:normal;font-weight:normal;font-size:13.99999905px;font-family:Verdana;-inkscape-font-specification:Verdana;writing-mode:lr-tb;fill:#33949b;fill-opacity:1;fill-rule:nonzero;stroke:none"
       transform="scale(1,-1)"
       x="179.15816"
       y="-42.126797"><tspan
         id="tspan279205"
         y="-42.126797"
         x="179.15816">2</tspan></text>
<g
       transform="matrix(1,0,0,-1,0,226.77165)"
       id="g279209"><path
         inkscape:connector-curvature="0"
         id="path279211"
         style="fill:none;stroke:#000000;stroke-width:0.42519701;stroke-linecap:butt;stroke-linejoin:miter;stroke-miterlimit:4;stroke-dasharray:none;stroke-opacity:1"
         d="m 187.141,184.645 h -6.891 v -1.422 c 0.477,-0.414 0.957,-0.828 1.438,-1.235 0.488,-0.414 0.941,-0.828 1.359,-1.234 0.875,-0.844 1.473,-1.516 1.797,-2.016 0.32,-0.5 0.484,-1.035 0.484,-1.609 0,-0.531 -0.18,-0.941 -0.531,-1.234 -0.344,-0.301 -0.828,-0.454 -1.453,-0.454 -0.418,0 -0.871,0.075 -1.36,0.219 -0.48,0.149 -0.949,0.371 -1.406,0.672 h -0.062 v -1.437 c 0.32,-0.165 0.75,-0.313 1.281,-0.438 0.539,-0.133 1.066,-0.203 1.578,-0.203 1.039,0 1.859,0.258 2.453,0.766 0.594,0.5 0.891,1.179 0.891,2.031 0,0.398 -0.055,0.762 -0.156,1.094 -0.094,0.335 -0.235,0.652 -0.422,0.953 -0.18,0.281 -0.387,0.558 -0.625,0.828 -0.243,0.273 -0.532,0.574 -0.875,0.906 -0.493,0.481 -0.996,0.945 -1.516,1.391 -0.523,0.449 -1.008,0.867 -1.453,1.25 h 5.469 z" /></g><g
       transform="matrix(1,0,0,-1,0,226.77165)"
       id="g279213"><path
         inkscape:connector-curvature="0"
         id="path279215"
         style="fill:#33949b;fill-opacity:1;fill-rule:nonzero;stroke:#000000;stroke-width:2.45196891;stroke-linecap:butt;stroke-linejoin:miter;stroke-miterlimit:4;stroke-dasharray:none;stroke-opacity:1"
         d="m 545.168,27.23 c 0,3.551 -2.879,6.43 -6.43,6.43 -3.55,0 -6.429,-2.879 -6.429,-6.43 0,-3.55 2.879,-6.425 6.429,-6.425 3.551,0 6.43,2.875 6.43,6.425 z" /></g><text
       id="text279219"
       style="font-variant:normal;font-weight:normal;font-size:13.99999905px;font-family:Verdana;-inkscape-font-specification:Verdana;writing-mode:lr-tb;fill:#33949b;fill-opacity:1;fill-rule:nonzero;stroke:none"
       transform="scale(1,-1)"
       x="517.30902"
       y="-207.04002"><tspan
         id="tspan279217"
         y="-207.04002"
         x="517.30902">P</tspan></text>
<g
       transform="matrix(1,0,0,-1,0,226.77165)"
       id="g279221"><path
         inkscape:connector-curvature="0"
         id="path279223"
         style="fill:none;stroke:#000000;stroke-width:0.42519701;stroke-linecap:butt;stroke-linejoin:miter;stroke-miterlimit:4;stroke-dasharray:none;stroke-opacity:1"
         d="m 525.34,12.621 c 0,0.461 -0.086,0.883 -0.25,1.266 -0.156,0.386 -0.375,0.718 -0.656,1 -0.344,0.343 -0.758,0.605 -1.235,0.781 -0.48,0.18 -1.086,0.266 -1.812,0.266 h -1.36 v 3.796 h -1.343 V 9.559 h 2.75 c 0.613,0 1.129,0.054 1.546,0.156 0.426,0.094 0.805,0.25 1.141,0.469 0.383,0.261 0.68,0.589 0.891,0.984 0.218,0.387 0.328,0.871 0.328,1.453 z m -1.406,0.047 c 0,-0.352 -0.063,-0.66 -0.188,-0.922 -0.125,-0.258 -0.312,-0.473 -0.562,-0.641 -0.219,-0.132 -0.469,-0.234 -0.75,-0.296 -0.282,-0.063 -0.637,-0.094 -1.063,-0.094 h -1.344 v 4.062 h 1.141 c 0.551,0 0.992,-0.047 1.328,-0.14 0.344,-0.102 0.625,-0.258 0.844,-0.469 0.207,-0.219 0.359,-0.445 0.453,-0.688 0.094,-0.25 0.141,-0.519 0.141,-0.812 z" /></g><text
       id="text279227"
       style="font-variant:normal;font-weight:normal;font-size:13.99999905px;font-family:Verdana;-inkscape-font-specification:Verdana;writing-mode:lr-tb;fill:#33949b;fill-opacity:1;fill-rule:nonzero;stroke:none"
       transform="scale(1,-1)"
       x="525.75824"
       y="-207.04002"><tspan
         id="tspan279225"
         y="-207.04002"
         x="525.75824">4</tspan></text>
<g
       transform="matrix(1,0,0,-1,0,226.77165)"
       id="g279229"><path
         inkscape:connector-curvature="0"
         id="path279231"
         style="fill:none;stroke:#000000;stroke-width:0.42519701;stroke-linecap:butt;stroke-linejoin:miter;stroke-miterlimit:4;stroke-dasharray:none;stroke-opacity:1"
         d="m 533.977,16.871 h -1.5 v 2.859 h -1.313 v -2.859 h -4.875 v -1.578 l 4.922,-5.734 h 1.266 v 6.218 h 1.5 z m -2.813,-1.094 v -4.593 l -3.953,4.593 z" /></g><g
       transform="matrix(1,0,0,-1,0,226.77165)"
       id="g279233"><path
         inkscape:connector-curvature="0"
         id="path279235"
         style="fill:#33949b;fill-opacity:1;fill-rule:nonzero;stroke:#000000;stroke-width:2.45196891;stroke-linecap:butt;stroke-linejoin:miter;stroke-miterlimit:4;stroke-dasharray:none;stroke-opacity:1"
         d="m 544.992,166.578 c 0,3.551 -2.879,6.43 -6.429,6.43 -3.551,0 -6.43,-2.879 -6.43,-6.43 0,-3.551 2.879,-6.43 6.43,-6.43 3.55,0 6.429,2.879 6.429,6.43 z" /></g><text
       id="text279239"
       style="font-variant:normal;font-weight:normal;font-size:13.99999905px;font-family:Verdana;-inkscape-font-specification:Verdana;writing-mode:lr-tb;fill:#33949b;fill-opacity:1;fill-rule:nonzero;stroke:none"
       transform="scale(1,-1)"
       x="517.13416"
       y="-42.193752"><tspan
         id="tspan279237"
         y="-42.193752"
         x="517.13416">P</tspan></text>
<g
       transform="matrix(1,0,0,-1,0,226.77165)"
       id="g279241"><path
         inkscape:connector-curvature="0"
         id="path279243"
         style="fill:none;stroke:#000000;stroke-width:0.42519701;stroke-linecap:butt;stroke-linejoin:miter;stroke-miterlimit:4;stroke-dasharray:none;stroke-opacity:1"
         d="m 525.164,177.469 c 0,0.461 -0.086,0.883 -0.25,1.265 -0.156,0.387 -0.375,0.719 -0.656,1 -0.344,0.344 -0.758,0.606 -1.235,0.782 -0.48,0.179 -1.085,0.265 -1.812,0.265 h -1.359 v 3.797 h -1.344 v -10.172 h 2.75 c 0.613,0 1.129,0.055 1.547,0.157 0.425,0.093 0.804,0.25 1.14,0.468 0.383,0.262 0.68,0.59 0.891,0.985 0.219,0.386 0.328,0.871 0.328,1.453 z m -1.406,0.047 c 0,-0.352 -0.063,-0.661 -0.188,-0.922 -0.125,-0.258 -0.312,-0.473 -0.562,-0.641 -0.219,-0.133 -0.469,-0.234 -0.75,-0.297 -0.281,-0.062 -0.637,-0.093 -1.063,-0.093 h -1.343 v 4.062 h 1.14 c 0.551,0 0.992,-0.047 1.328,-0.141 0.344,-0.101 0.625,-0.257 0.844,-0.468 0.207,-0.219 0.359,-0.446 0.453,-0.688 0.094,-0.25 0.141,-0.519 0.141,-0.812 z" /></g><text
       id="text279247"
       style="font-variant:normal;font-weight:normal;font-size:13.99999905px;font-family:Verdana;-inkscape-font-specification:Verdana;writing-mode:lr-tb;fill:#33949b;fill-opacity:1;fill-rule:nonzero;stroke:none"
       transform="scale(1,-1)"
       x="525.58337"
       y="-42.193752"><tspan
         id="tspan279245"
         y="-42.193752"
         x="525.58337">1</tspan></text>
<g
       transform="matrix(1,0,0,-1,0,226.77165)"
       id="g279249"><path
         inkscape:connector-curvature="0"
         id="path279251"
         style="fill:none;stroke:#000000;stroke-width:0.42519701;stroke-linecap:butt;stroke-linejoin:miter;stroke-miterlimit:4;stroke-dasharray:none;stroke-opacity:1"
         d="m 532.988,184.578 h -5.5 v -1.047 h 2.11 v -6.812 h -2.11 v -0.938 c 0.282,0 0.582,-0.019 0.907,-0.062 0.332,-0.051 0.582,-0.125 0.75,-0.219 0.218,-0.113 0.382,-0.254 0.5,-0.422 0.125,-0.176 0.191,-0.414 0.203,-0.719 h 1.062 v 9.172 h 2.078 z" /></g><g
       transform="matrix(1,0,0,-1,0,226.77165)"
       id="g279253"><path
         inkscape:connector-curvature="0"
         id="path279255"
         style="fill:#33949b;fill-opacity:1;fill-rule:nonzero;stroke:#000000;stroke-width:2.45196891;stroke-linecap:butt;stroke-linejoin:miter;stroke-miterlimit:4;stroke-dasharray:none;stroke-opacity:1"
         d="m 684.109,26.988 c 0,3.551 -2.879,6.43 -6.429,6.43 -3.547,0 -6.426,-2.879 -6.426,-6.43 0,-3.55 2.879,-6.425 6.426,-6.425 3.55,0 6.429,2.875 6.429,6.425 z" /></g><text
       id="text279259"
       style="font-variant:normal;font-weight:normal;font-size:13.99999905px;font-family:Verdana;-inkscape-font-specification:Verdana;writing-mode:lr-tb;fill:#33949b;fill-opacity:1;fill-rule:nonzero;stroke:none"
       transform="scale(1,-1)"
       x="686.25293"
       y="-207.28189"><tspan
         id="tspan279257"
         y="-207.28189"
         x="686.25293">P</tspan></text>
<g
       transform="matrix(1,0,0,-1,0,226.77165)"
       id="g279261"><path
         inkscape:connector-curvature="0"
         id="path279263"
         style="fill:none;stroke:#000000;stroke-width:0.42519701;stroke-linecap:butt;stroke-linejoin:miter;stroke-miterlimit:4;stroke-dasharray:none;stroke-opacity:1"
         d="m 694.285,12.379 c 0,0.461 -0.086,0.883 -0.25,1.266 -0.156,0.386 -0.375,0.718 -0.656,1 -0.344,0.343 -0.758,0.605 -1.234,0.781 -0.481,0.179 -1.086,0.265 -1.813,0.265 h -1.359 v 3.797 h -1.344 V 9.316 h 2.75 c 0.613,0 1.129,0.055 1.547,0.157 0.426,0.093 0.804,0.25 1.14,0.468 0.383,0.262 0.68,0.59 0.891,0.985 0.219,0.387 0.328,0.871 0.328,1.453 z m -1.406,0.047 c 0,-0.352 -0.063,-0.66 -0.188,-0.922 -0.125,-0.258 -0.312,-0.473 -0.562,-0.641 -0.219,-0.133 -0.469,-0.234 -0.75,-0.297 -0.281,-0.062 -0.637,-0.093 -1.063,-0.093 h -1.343 v 4.062 h 1.14 c 0.551,0 0.992,-0.047 1.328,-0.14 0.344,-0.102 0.625,-0.258 0.844,-0.469 0.207,-0.219 0.36,-0.446 0.453,-0.688 0.094,-0.25 0.141,-0.519 0.141,-0.812 z" /></g><text
       id="text279267"
       style="font-variant:normal;font-weight:normal;font-size:13.99999905px;font-family:Verdana;-inkscape-font-specification:Verdana;writing-mode:lr-tb;fill:#33949b;fill-opacity:1;fill-rule:nonzero;stroke:none"
       transform="scale(1,-1)"
       x="694.70221"
       y="-207.28189"><tspan
         id="tspan279265"
         y="-207.28189"
         x="694.70221">3</tspan></text>
<g
       transform="matrix(1,0,0,-1,0,226.77165)"
       id="g279269"><path
         inkscape:connector-curvature="0"
         id="path279271"
         style="fill:none;stroke:#000000;stroke-width:0.42519701;stroke-linecap:butt;stroke-linejoin:miter;stroke-miterlimit:4;stroke-dasharray:none;stroke-opacity:1"
         d="m 701.797,14.582 c 0.219,0.199 0.394,0.449 0.531,0.75 0.145,0.293 0.219,0.672 0.219,1.141 0,0.468 -0.086,0.898 -0.25,1.281 -0.168,0.387 -0.402,0.726 -0.703,1.016 -0.344,0.312 -0.75,0.546 -1.219,0.703 -0.461,0.156 -0.965,0.234 -1.516,0.234 -0.562,0 -1.121,-0.07 -1.671,-0.203 -0.543,-0.133 -0.993,-0.285 -1.344,-0.453 v -1.422 h 0.109 c 0.383,0.25 0.836,0.465 1.36,0.641 0.519,0.168 1.023,0.25 1.515,0.25 0.289,0 0.598,-0.047 0.922,-0.141 0.32,-0.102 0.582,-0.242 0.781,-0.422 0.207,-0.207 0.364,-0.43 0.469,-0.672 0.102,-0.238 0.156,-0.547 0.156,-0.922 0,-0.363 -0.058,-0.66 -0.172,-0.89 -0.117,-0.239 -0.277,-0.43 -0.484,-0.578 -0.211,-0.133 -0.461,-0.227 -0.75,-0.282 -0.293,-0.05 -0.605,-0.078 -0.937,-0.078 h -0.61 v -1.14 h 0.469 c 0.695,0 1.25,-0.141 1.656,-0.422 0.414,-0.289 0.625,-0.719 0.625,-1.282 0,-0.238 -0.055,-0.453 -0.156,-0.64 -0.106,-0.188 -0.25,-0.336 -0.438,-0.453 -0.199,-0.125 -0.414,-0.207 -0.64,-0.25 -0.219,-0.039 -0.469,-0.063 -0.75,-0.063 -0.438,0 -0.903,0.078 -1.391,0.235 -0.48,0.148 -0.937,0.367 -1.375,0.656 h -0.062 V 9.738 c 0.32,-0.156 0.754,-0.3 1.297,-0.437 0.539,-0.133 1.062,-0.203 1.562,-0.203 0.5,0 0.938,0.047 1.313,0.14 0.382,0.086 0.726,0.231 1.031,0.438 0.32,0.219 0.566,0.484 0.734,0.797 0.176,0.304 0.266,0.664 0.266,1.078 0,0.562 -0.203,1.058 -0.61,1.484 -0.398,0.418 -0.867,0.684 -1.406,0.797 v 0.094 c 0.219,0.031 0.469,0.109 0.75,0.234 0.281,0.117 0.52,0.258 0.719,0.422 z" /></g><g
       transform="matrix(1,0,0,-1,0,226.77165)"
       id="g279273"><path
         inkscape:connector-curvature="0"
         id="path279275"
         style="fill:#33949b;fill-opacity:1;fill-rule:nonzero;stroke:#000000;stroke-width:2.45196891;stroke-linecap:butt;stroke-linejoin:miter;stroke-miterlimit:4;stroke-dasharray:none;stroke-opacity:1"
         d="m 683.855,166.113 c 0,3.551 -2.878,6.43 -6.429,6.43 -3.551,0 -6.43,-2.879 -6.43,-6.43 0,-3.55 2.879,-6.429 6.43,-6.429 3.551,0 6.429,2.879 6.429,6.429 z" /></g><text
       id="text279279"
       style="font-variant:normal;font-weight:normal;font-size:13.99999905px;font-family:Verdana;-inkscape-font-specification:Verdana;writing-mode:lr-tb;fill:#33949b;fill-opacity:1;fill-rule:nonzero;stroke:none"
       transform="scale(1,-1)"
       x="685.99768"
       y="-42.657516"><tspan
         id="tspan279277"
         y="-42.657516"
         x="685.99768">P</tspan></text>
<g
       transform="matrix(1,0,0,-1,0,226.77165)"
       id="g279281"><path
         inkscape:connector-curvature="0"
         id="path279283"
         style="fill:none;stroke:#000000;stroke-width:0.42519701;stroke-linecap:butt;stroke-linejoin:miter;stroke-miterlimit:4;stroke-dasharray:none;stroke-opacity:1"
         d="m 694.027,177.004 c 0,0.461 -0.086,0.883 -0.25,1.266 -0.156,0.386 -0.375,0.718 -0.656,1 -0.344,0.343 -0.758,0.605 -1.234,0.781 -0.481,0.179 -1.086,0.265 -1.813,0.265 h -1.359 v 3.797 h -1.344 v -10.172 h 2.75 c 0.613,0 1.129,0.055 1.547,0.157 0.426,0.093 0.805,0.25 1.141,0.468 0.382,0.262 0.679,0.59 0.89,0.985 0.219,0.387 0.328,0.871 0.328,1.453 z m -1.406,0.047 c 0,-0.352 -0.062,-0.66 -0.187,-0.922 -0.125,-0.258 -0.313,-0.473 -0.563,-0.641 -0.219,-0.133 -0.469,-0.234 -0.75,-0.297 -0.281,-0.062 -0.637,-0.093 -1.062,-0.093 h -1.344 v 4.062 h 1.14 c 0.551,0 0.993,-0.047 1.329,-0.14 0.343,-0.102 0.625,-0.258 0.843,-0.469 0.207,-0.219 0.36,-0.446 0.453,-0.688 0.094,-0.25 0.141,-0.519 0.141,-0.812 z" /></g><text
       id="text279287"
       style="font-variant:normal;font-weight:normal;font-size:13.99999905px;font-family:Verdana;-inkscape-font-specification:Verdana;writing-mode:lr-tb;fill:#33949b;fill-opacity:1;fill-rule:nonzero;stroke:none"
       transform="scale(1,-1)"
       x="694.4469"
       y="-42.657516"><tspan
         id="tspan279285"
         y="-42.657516"
         x="694.4469">2</tspan></text>
<g
       transform="matrix(1,0,0,-1,0,226.77165)"
       id="g279289"><path
         inkscape:connector-curvature="0"
         id="path279291"
         style="fill:none;stroke:#000000;stroke-width:0.42519701;stroke-linecap:butt;stroke-linejoin:miter;stroke-miterlimit:4;stroke-dasharray:none;stroke-opacity:1"
         d="m 702.43,184.113 h -6.891 v -1.422 c 0.477,-0.414 0.957,-0.828 1.438,-1.234 0.488,-0.414 0.941,-0.828 1.359,-1.234 0.875,-0.844 1.473,-1.516 1.797,-2.016 0.32,-0.5 0.484,-1.035 0.484,-1.609 0,-0.532 -0.179,-0.942 -0.531,-1.235 -0.344,-0.3 -0.828,-0.453 -1.453,-0.453 -0.418,0 -0.871,0.074 -1.36,0.219 -0.48,0.148 -0.949,0.371 -1.406,0.672 h -0.062 v -1.438 c 0.32,-0.164 0.75,-0.312 1.281,-0.437 0.539,-0.133 1.066,-0.203 1.578,-0.203 1.039,0 1.859,0.257 2.453,0.765 0.594,0.5 0.891,1.18 0.891,2.032 0,0.398 -0.055,0.761 -0.156,1.093 -0.094,0.336 -0.235,0.653 -0.422,0.953 -0.18,0.282 -0.387,0.559 -0.625,0.829 -0.242,0.273 -0.532,0.574 -0.875,0.906 -0.492,0.48 -0.996,0.945 -1.516,1.39 -0.523,0.45 -1.008,0.868 -1.453,1.25 h 5.469 z" /></g><g
       transform="matrix(1,0,0,-1,0,226.77165)"
       id="g279293"><path
         inkscape:connector-curvature="0"
         id="path279295"
         style="fill:none;stroke:#3249a2;stroke-width:2.4094491;stroke-linecap:butt;stroke-linejoin:miter;stroke-miterlimit:4;stroke-dasharray:none;stroke-opacity:1"
         d="M 670.094,27.191 H 546.254" /></g><g
       transform="matrix(1,0,0,-1,0,226.77165)"
       id="g279297"><path
         inkscape:connector-curvature="0"
         id="path279299"
         style="fill:none;stroke:#3249a2;stroke-width:2.4094491;stroke-linecap:butt;stroke-linejoin:miter;stroke-miterlimit:4;stroke-dasharray:none;stroke-opacity:1"
         d="M 669.914,166.609 H 546.074" /></g><g
       transform="matrix(1,0,0,-1,0,226.77165)"
       id="g279301"><path
         inkscape:connector-curvature="0"
         id="path279303"
         style="fill:none;stroke:#3249a2;stroke-width:2.4094491;stroke-linecap:butt;stroke-linejoin:miter;stroke-miterlimit:4;stroke-dasharray:none;stroke-opacity:1"
         d="M 538.754,159.023 V 34.844" /></g><g
       transform="matrix(1,0,0,-1,0,226.77165)"
       id="g279305"><path
         inkscape:connector-curvature="0"
         id="path279307"
         style="fill:none;stroke:#3249a2;stroke-width:2.4094491;stroke-linecap:butt;stroke-linejoin:miter;stroke-miterlimit:4;stroke-dasharray:none;stroke-opacity:1"
         d="M 677.332,158.574 V 34.398" /></g><text
       id="text279311"
       style="font-variant:normal;font-weight:normal;font-size:13.99999905px;font-family:Verdana;-inkscape-font-specification:Verdana;writing-mode:lr-tb;fill:#3249a2;fill-opacity:1;fill-rule:nonzero;stroke:none"
       transform="scale(1,-1)"
       x="600.09259"
       y="-45.563183"><tspan
         id="tspan279309"
         y="-45.563183"
         x="600.09259">E</tspan></text>
<g
       transform="matrix(1,0,0,-1,0,226.77165)"
       id="g279313"><path
         inkscape:connector-curvature="0"
         id="path279315"
         style="fill:none;stroke:#000000;stroke-width:0.42519701;stroke-linecap:butt;stroke-linejoin:miter;stroke-miterlimit:4;stroke-dasharray:none;stroke-opacity:1"
         d="m 608.172,181.207 h -6.703 v -10.172 h 6.703 v 1.203 h -5.359 v 2.782 h 5.359 v 1.203 h -5.359 v 3.781 h 5.359 z" /></g><text
       id="text279319"
       style="font-variant:normal;font-weight:normal;font-size:13.99999905px;font-family:Verdana;-inkscape-font-specification:Verdana;writing-mode:lr-tb;fill:#3249a2;fill-opacity:1;fill-rule:nonzero;stroke:none"
       transform="scale(1,-1)"
       x="608.95197"
       y="-45.563183"><tspan
         id="tspan279317"
         y="-45.563183"
         x="608.95197">1</tspan></text>
<g
       transform="matrix(1,0,0,-1,0,226.77165)"
       id="g279321"><path
         inkscape:connector-curvature="0"
         id="path279323"
         style="fill:none;stroke:#000000;stroke-width:0.42519701;stroke-linecap:butt;stroke-linejoin:miter;stroke-miterlimit:4;stroke-dasharray:none;stroke-opacity:1"
         d="m 616.359,181.207 h -5.5 v -1.047 h 2.11 v -6.812 h -2.11 v -0.938 c 0.282,0 0.582,-0.019 0.907,-0.062 0.332,-0.051 0.582,-0.125 0.75,-0.219 0.218,-0.113 0.382,-0.254 0.5,-0.422 0.125,-0.176 0.191,-0.414 0.203,-0.719 h 1.062 v 9.172 h 2.078 z" /></g><text
       id="text279327"
       style="font-variant:normal;font-weight:normal;font-size:13.99999905px;font-family:Verdana;-inkscape-font-specification:Verdana;writing-mode:lr-tb;fill:#3249a2;fill-opacity:1;fill-rule:nonzero;stroke:none"
       transform="scale(1,-1)"
       x="602.52423"
       y="-205.99234"><tspan
         id="tspan279325"
         y="-205.99234"
         x="602.52423">E</tspan></text>
<g
       transform="matrix(1,0,0,-1,0,226.77165)"
       id="g279329"><path
         inkscape:connector-curvature="0"
         id="path279331"
         style="fill:none;stroke:#000000;stroke-width:0.42519701;stroke-linecap:butt;stroke-linejoin:miter;stroke-miterlimit:4;stroke-dasharray:none;stroke-opacity:1"
         d="m 610.602,20.781 h -6.704 V 10.609 h 6.704 v 1.204 h -5.36 v 2.781 h 5.36 v 1.203 h -5.36 v 3.781 h 5.36 z" /></g><text
       id="text279335"
       style="font-variant:normal;font-weight:normal;font-size:13.99999905px;font-family:Verdana;-inkscape-font-specification:Verdana;writing-mode:lr-tb;fill:#3249a2;fill-opacity:1;fill-rule:nonzero;stroke:none"
       transform="scale(1,-1)"
       x="611.38361"
       y="-205.99234"><tspan
         id="tspan279333"
         y="-205.99234"
         x="611.38361">3</tspan></text>
<g
       transform="matrix(1,0,0,-1,0,226.77165)"
       id="g279337"><path
         inkscape:connector-curvature="0"
         id="path279339"
         style="fill:none;stroke:#000000;stroke-width:0.42519701;stroke-linecap:butt;stroke-linejoin:miter;stroke-miterlimit:4;stroke-dasharray:none;stroke-opacity:1"
         d="m 618.477,15.875 c 0.218,0.199 0.394,0.449 0.531,0.75 0.144,0.293 0.219,0.672 0.219,1.141 0,0.468 -0.086,0.898 -0.25,1.281 -0.168,0.387 -0.403,0.726 -0.704,1.016 -0.343,0.312 -0.75,0.546 -1.218,0.703 -0.461,0.156 -0.965,0.234 -1.516,0.234 -0.562,0 -1.121,-0.07 -1.672,-0.203 -0.543,-0.133 -0.992,-0.285 -1.344,-0.453 v -1.422 h 0.11 c 0.383,0.25 0.836,0.465 1.359,0.641 0.52,0.167 1.024,0.25 1.516,0.25 0.289,0 0.597,-0.047 0.922,-0.141 0.32,-0.102 0.582,-0.242 0.781,-0.422 0.207,-0.207 0.363,-0.43 0.469,-0.672 0.101,-0.238 0.156,-0.547 0.156,-0.922 0,-0.363 -0.059,-0.66 -0.172,-0.89 -0.117,-0.239 -0.277,-0.43 -0.484,-0.578 -0.211,-0.133 -0.461,-0.227 -0.75,-0.282 -0.293,-0.051 -0.606,-0.078 -0.938,-0.078 h -0.609 v -1.14 h 0.469 c 0.695,0 1.25,-0.141 1.656,-0.422 0.414,-0.289 0.625,-0.719 0.625,-1.282 0,-0.238 -0.055,-0.453 -0.156,-0.64 -0.106,-0.188 -0.25,-0.336 -0.438,-0.453 -0.199,-0.125 -0.414,-0.207 -0.641,-0.25 -0.218,-0.039 -0.468,-0.063 -0.75,-0.063 -0.437,0 -0.902,0.078 -1.39,0.235 -0.481,0.148 -0.938,0.367 -1.375,0.656 h -0.063 v -1.438 c 0.321,-0.156 0.754,-0.301 1.297,-0.437 0.539,-0.133 1.063,-0.203 1.563,-0.203 0.5,0 0.937,0.047 1.312,0.14 0.383,0.086 0.727,0.231 1.031,0.438 0.321,0.219 0.567,0.484 0.735,0.797 0.176,0.304 0.265,0.664 0.265,1.078 0,0.562 -0.203,1.058 -0.609,1.484 -0.398,0.418 -0.867,0.684 -1.406,0.797 v 0.094 c 0.219,0.031 0.469,0.109 0.75,0.234 0.281,0.117 0.519,0.258 0.719,0.422 z" /></g><text
       id="text279343"
       style="font-variant:normal;font-weight:normal;font-size:13.99999905px;font-family:Verdana;-inkscape-font-specification:Verdana;writing-mode:lr-tb;fill:#3249a2;fill-opacity:1;fill-rule:nonzero;stroke:none"
       transform="scale(1,-1)"
       x="683.41718"
       y="-123.4925"><tspan
         id="tspan279341"
         y="-123.4925"
         x="683.41718">E</tspan></text>
<g
       transform="matrix(1,0,0,-1,0,226.77165)"
       id="g279345"><path
         inkscape:connector-curvature="0"
         id="path279347"
         style="fill:none;stroke:#000000;stroke-width:0.42519701;stroke-linecap:butt;stroke-linejoin:miter;stroke-miterlimit:4;stroke-dasharray:none;stroke-opacity:1"
         d="m 691.496,103.277 h -6.703 V 93.105 h 6.703 v 1.204 h -5.359 v 2.781 h 5.359 v 1.203 h -5.359 v 3.781 h 5.359 z" /></g><text
       id="text279351"
       style="font-variant:normal;font-weight:normal;font-size:13.99999905px;font-family:Verdana;-inkscape-font-specification:Verdana;writing-mode:lr-tb;fill:#3249a2;fill-opacity:1;fill-rule:nonzero;stroke:none"
       transform="scale(1,-1)"
       x="692.27655"
       y="-123.4925"><tspan
         id="tspan279349"
         y="-123.4925"
         x="692.27655">2</tspan></text>
<g
       transform="matrix(1,0,0,-1,0,226.77165)"
       id="g279353"><path
         inkscape:connector-curvature="0"
         id="path279355"
         style="fill:none;stroke:#000000;stroke-width:0.42519701;stroke-linecap:butt;stroke-linejoin:miter;stroke-miterlimit:4;stroke-dasharray:none;stroke-opacity:1"
         d="m 700.262,103.277 h -6.891 v -1.422 c 0.477,-0.414 0.957,-0.828 1.438,-1.234 0.488,-0.414 0.941,-0.828 1.359,-1.234 0.875,-0.844 1.473,-1.516 1.797,-2.016 0.32,-0.5 0.484,-1.035 0.484,-1.609 0,-0.532 -0.179,-0.942 -0.531,-1.235 -0.344,-0.3 -0.828,-0.453 -1.453,-0.453 -0.418,0 -0.871,0.074 -1.36,0.219 -0.48,0.148 -0.949,0.371 -1.406,0.672 h -0.062 v -1.438 c 0.32,-0.164 0.75,-0.312 1.281,-0.437 0.539,-0.133 1.066,-0.203 1.578,-0.203 1.039,0 1.859,0.258 2.453,0.765 0.594,0.5 0.891,1.18 0.891,2.032 0,0.398 -0.055,0.761 -0.156,1.093 -0.094,0.336 -0.235,0.653 -0.422,0.953 -0.18,0.282 -0.387,0.559 -0.625,0.829 -0.242,0.273 -0.532,0.574 -0.875,0.906 -0.492,0.48 -0.996,0.945 -1.516,1.39 -0.523,0.45 -1.008,0.868 -1.453,1.25 h 5.469 z" /></g><text
       id="text279359"
       style="font-variant:normal;font-weight:normal;font-size:13.99999905px;font-family:Verdana;-inkscape-font-specification:Verdana;writing-mode:lr-tb;fill:#3249a2;fill-opacity:1;fill-rule:nonzero;stroke:none"
       transform="scale(1,-1)"
       x="516.27429"
       y="-122.95685"><tspan
         id="tspan279357"
         y="-122.95685"
         x="516.27429">E</tspan></text>
<g
       transform="matrix(1,0,0,-1,0,226.77165)"
       id="g279361"><path
         inkscape:connector-curvature="0"
         id="path279363"
         style="fill:none;stroke:#000000;stroke-width:0.42519701;stroke-linecap:butt;stroke-linejoin:miter;stroke-miterlimit:4;stroke-dasharray:none;stroke-opacity:1"
         d="m 524.352,103.816 h -6.704 V 93.645 h 6.704 v 1.203 h -5.36 v 2.781 h 5.36 v 1.203 h -5.36 v 3.781 h 5.36 z" /></g><text
       id="text279367"
       style="font-variant:normal;font-weight:normal;font-size:13.99999905px;font-family:Verdana;-inkscape-font-specification:Verdana;writing-mode:lr-tb;fill:#3249a2;fill-opacity:1;fill-rule:nonzero;stroke:none"
       transform="scale(1,-1)"
       x="525.13367"
       y="-122.95685"><tspan
         id="tspan279365"
         y="-122.95685"
         x="525.13367">4</tspan></text>
<g
       transform="matrix(1,0,0,-1,0,226.77165)"
       id="g279369"><path
         inkscape:connector-curvature="0"
         id="path279371"
         style="fill:none;stroke:#000000;stroke-width:0.42519701;stroke-linecap:butt;stroke-linejoin:miter;stroke-miterlimit:4;stroke-dasharray:none;stroke-opacity:1"
         d="m 533.352,100.957 h -1.5 v 2.859 h -1.313 v -2.859 h -4.875 v -1.578 l 4.922,-5.734 h 1.266 v 6.218 h 1.5 z m -2.813,-1.094 V 95.27 l -3.953,4.593 z" /></g><path
       inkscape:connector-curvature="0"
       id="path279373"
       style="fill:#aaccff;fill-opacity:1;fill-rule:nonzero;stroke:none"
       d="m 546.004,62.588 c -0.344,1.574 -2.938,4.344 -4.563,4.879 l -1.296,0.43 v 123.8 l 1.421,0.594 c 1.918,0.801 3.454,2.309 4.329,4.246 l 0.726,1.61 h 123.395 l 0.429,-1.301 c 0.493,-1.485 2.965,-3.883 4.594,-4.449 l 1.098,-0.383 V 68.311 l -1.106,-0.223 c -2.074,-0.414 -5.336,-4.148 -5.336,-6.105 0,-0.524 -6.398,-0.586 -61.715,-0.586 h -61.714 z" /><path
       inkscape:connector-curvature="0"
       id="path279375"
       style="fill:#c8beb7;fill-opacity:1;fill-rule:nonzero;stroke:none"
       d="m 546.074,62.533 c -0.297,1.485 -3.008,4.403 -4.64,4.993 l -1.289,0.464 v 123.602 l 1.527,0.691 c 1.758,0.793 3.758,2.852 4.496,4.637 l 0.508,1.227 h 123.246 l 0.476,-1.309 c 0.528,-1.457 3.485,-4.269 4.856,-4.613 l 0.883,-0.219 V 68.311 l -1.207,-0.242 c -1.399,-0.278 -4.293,-3.11 -5.063,-4.954 l -0.508,-1.214 -9.171,-0.254 c -5.047,-0.137 -32.735,-0.25 -61.532,-0.25 h -52.355 z" /><text
       id="text279379"
       style="font-variant:normal;font-weight:normal;font-size:13.99999905px;font-family:Verdana;-inkscape-font-specification:Verdana;writing-mode:lr-tb;fill:#c8beb7;fill-opacity:1;fill-rule:nonzero;stroke:none"
       transform="scale(1,-1)"
       x="601.28735"
       y="-122.4263"><tspan
         id="tspan279377"
         y="-122.4263"
         x="601.28735">C</tspan></text>
<g
       transform="matrix(1,0,0,-1,0,226.77165)"
       id="g279381"><path
         inkscape:connector-curvature="0"
         id="path279383"
         style="fill:none;stroke:#000000;stroke-width:0.70866102;stroke-linecap:butt;stroke-linejoin:miter;stroke-miterlimit:4;stroke-dasharray:none;stroke-opacity:1"
         d="m 610.523,103.609 c -0.25,0.106 -0.48,0.211 -0.687,0.313 -0.199,0.094 -0.465,0.195 -0.797,0.297 -0.281,0.086 -0.586,0.156 -0.906,0.219 -0.324,0.062 -0.684,0.093 -1.078,0.093 -0.742,0 -1.414,-0.105 -2.016,-0.312 -0.605,-0.207 -1.125,-0.531 -1.562,-0.969 -0.438,-0.437 -0.782,-0.988 -1.032,-1.656 -0.25,-0.664 -0.375,-1.442 -0.375,-2.328 0,-0.844 0.118,-1.594 0.36,-2.25 0.238,-0.657 0.582,-1.211 1.031,-1.672 0.426,-0.446 0.945,-0.785 1.562,-1.016 0.614,-0.226 1.297,-0.344 2.047,-0.344 0.539,0 1.082,0.071 1.625,0.204 0.551,0.125 1.16,0.355 1.828,0.687 v 1.609 h -0.109 c -0.562,-0.468 -1.121,-0.804 -1.672,-1.015 -0.554,-0.219 -1.14,-0.328 -1.765,-0.328 -0.512,0 -0.977,0.086 -1.391,0.25 -0.418,0.168 -0.789,0.422 -1.109,0.765 -0.313,0.344 -0.559,0.778 -0.735,1.297 -0.179,0.524 -0.265,1.125 -0.265,1.813 0,0.718 0.097,1.336 0.296,1.843 0.196,0.512 0.446,0.934 0.75,1.266 0.321,0.336 0.692,0.586 1.11,0.75 0.426,0.156 0.879,0.234 1.359,0.234 0.645,0 1.254,-0.109 1.828,-0.328 0.571,-0.226 1.11,-0.566 1.61,-1.015 h 0.093 z" /></g><text
       id="text279387"
       style="font-variant:normal;font-weight:normal;font-size:13.99999905px;font-family:Verdana;-inkscape-font-specification:Verdana;writing-mode:lr-tb;fill:#c8beb7;fill-opacity:1;fill-rule:nonzero;stroke:none"
       transform="scale(1,-1)"
       x="611.07642"
       y="-122.4263"><tspan
         id="tspan279385"
         y="-122.4263"
         x="611.07642">1</tspan></text>
<g
       transform="matrix(1,0,0,-1,0,226.77165)"
       id="g279389"><path
         inkscape:connector-curvature="0"
         id="path279391"
         style="fill:none;stroke:#000000;stroke-width:0.70866102;stroke-linecap:butt;stroke-linejoin:miter;stroke-miterlimit:4;stroke-dasharray:none;stroke-opacity:1"
         d="m 618.484,104.344 h -5.5 v -1.047 h 2.11 v -6.813 h -2.11 v -0.937 c 0.282,0 0.582,-0.02 0.907,-0.063 0.332,-0.05 0.582,-0.125 0.75,-0.218 0.218,-0.114 0.382,-0.254 0.5,-0.422 0.125,-0.176 0.191,-0.414 0.203,-0.719 h 1.062 v 9.172 h 2.078 z" /></g><g
       transform="matrix(1,0,0,-1,0,226.77165)"
       id="g279393"><path
         inkscape:connector-curvature="0"
         id="path279395"
         style="fill:none;stroke:#000000;stroke-width:1.60157502;stroke-linecap:butt;stroke-linejoin:miter;stroke-miterlimit:4;stroke-dasharray:none;stroke-opacity:1"
         d="m 200.809,101.113 h 35.355" /></g><g
       transform="matrix(-1,0,0,1,0,226.77165)"
       id="g279397"><path
         inkscape:connector-curvature="0"
         id="path279399"
         style="fill:#000000;fill-opacity:1;fill-rule:evenodd;stroke:#000000;stroke-width:1.10108304;stroke-linecap:butt;stroke-linejoin:round;stroke-miterlimit:4;stroke-dasharray:none;stroke-opacity:1"
         d="m -219.043,-94.008 -19.25,-7.078 19.25,-7.078 c -3.074,4.18 -3.059,9.894 0,14.156 z" /></g><g
       transform="matrix(1,0,0,-1,0,226.77165)"
       id="g279401"><path
         inkscape:connector-curvature="0"
         id="path279403"
         style="fill:none;stroke:#000000;stroke-width:1.60157502;stroke-linecap:butt;stroke-linejoin:miter;stroke-miterlimit:4;stroke-dasharray:none;stroke-opacity:1"
         d="m 464.648,99.215 h 35.356" /></g><g
       transform="matrix(-1,0,0,1,0,226.77165)"
       id="g279405"><path
         inkscape:connector-curvature="0"
         id="path279407"
         style="fill:#000000;fill-opacity:1;fill-rule:evenodd;stroke:#000000;stroke-width:1.10108304;stroke-linecap:butt;stroke-linejoin:round;stroke-miterlimit:4;stroke-dasharray:none;stroke-opacity:1"
         d="m -482.883,-92.109 -19.25,-7.079 19.25,-7.078 c -3.078,4.18 -3.058,9.899 0,14.157 z" /></g><text
       id="text279411"
       style="font-variant:normal;font-weight:normal;font-size:18px;font-family:Verdana;-inkscape-font-specification:Verdana;writing-mode:lr-tb;fill:#000000;fill-opacity:1;fill-rule:nonzero;stroke:none"
       transform="scale(1,-1)"
       x="81.024773"
       y="-8.1210852"><tspan
         id="tspan279409"
         sodipodi:role="line"
         y="-8.1210852"
         x="81.024773 89.196777 99.996773 337.13821 345.31021 356.5242 595.46289 603.63489 612.99487">(a)(b)(c)</tspan></text>
</g></svg>