<?xml version="1.0" encoding="UTF-8" standalone="no"?>
<!-- Created with Inkscape (http://www.inkscape.org/) -->

<svg
   version="1.1"
   id="svg2"
   xml:space="preserve"
   width="55.506668"
   height="68.426666"
   viewBox="0 0 55.506668 68.426666"
   sodipodi:docname="favicon.svg"
   inkscape:version="1.1.2 (0a00cf5339, 2022-02-04)"
   xmlns:inkscape="http://www.inkscape.org/namespaces/inkscape"
   xmlns:sodipodi="http://sodipodi.sourceforge.net/DTD/sodipodi-0.dtd"
   xmlns="http://www.w3.org/2000/svg"
   xmlns:svg="http://www.w3.org/2000/svg"><defs
     id="defs6" /><sodipodi:namedview
     id="namedview4"
     pagecolor="#ffffff"
     bordercolor="#666666"
     borderopacity="1.0"
     inkscape:pageshadow="2"
     inkscape:pageopacity="0.0"
     inkscape:pagecheckerboard="0"
     showgrid="false"
     inkscape:zoom="9.4115355"
     inkscape:cx="27.731925"
     inkscape:cy="34.160207"
     inkscape:window-width="1920"
     inkscape:window-height="1015"
     inkscape:window-x="0"
     inkscape:window-y="0"
     inkscape:window-maximized="1"
     inkscape:current-layer="g8" /><g
     id="g8"
     inkscape:groupmode="layer"
     inkscape:label="ink_ext_XXXXXX"
     transform="matrix(1.3333333,0,0,-1.3333333,0,68.426667)"><g
       id="g10"
       transform="scale(0.1)"><path
         d="m 163.797,256.289 c -41.82,0 -75.7189,33.899 -75.7189,75.715 0,41.816 33.8989,75.715 75.7189,75.715 41.812,0 75.715,-33.899 75.715,-75.715 0,-41.816 -33.903,-75.715 -75.715,-75.715 z M 351.742,455.016 H 64.5156 C 51.5391,455.016 41.0195,444.5 41.0195,431.52 V 225.262 c 0,-92.285 74.8085,-167.094 167.0935,-167.094 92.285,0 167.098,74.809 167.098,167.094 l 0.031,206.258 c 0,12.98 -10.519,23.496 -23.5,23.496"
         style="fill:#232a59;fill-opacity:1;fill-rule:nonzero;stroke:none"
         id="path12" /></g></g></svg>
