<svg width="51" height="51" viewBox="0 0 51 51" fill="none" xmlns="http://www.w3.org/2000/svg">
<rect x="1.09778" y="1.39258" width="49" height="49" fill="white" stroke="black"/>
<path d="M7.15777 25.9027L1.20394 25.9232" stroke="black"/>
<mask id="path-3-inside-1_108_535" fill="white">
<path d="M6.2995 21.7729L17.7458 21.7729L17.7458 21.8511L45.2927 25.9204L17.7458 30.1431L17.7458 30.2231L6.2995 30.2231L6.2995 21.7729Z"/>
</mask>
<path d="M6.2995 21.7729L17.7458 21.7729L17.7458 21.8511L45.2927 25.9204L17.7458 30.1431L17.7458 30.2231L6.2995 30.2231L6.2995 21.7729Z" fill="#2FAA96" fill-opacity="0.82"/>
<path d="M6.2995 21.7729L6.2995 20.7729L5.2995 20.7729L5.2995 21.7729L6.2995 21.7729ZM17.7458 21.7729L18.7458 21.7729L18.7458 20.7729L17.7458 20.7729L17.7458 21.7729ZM17.7458 21.8511L16.7458 21.8511L16.7458 22.7142L17.5997 22.8403L17.7458 21.8511ZM45.2927 25.9204L45.4442 26.9089L45.4388 24.9311L45.2927 25.9204ZM17.7458 30.1431L17.5943 29.1546L16.7458 29.2847L16.7458 30.1431L17.7458 30.1431ZM17.7458 30.2231L17.7458 31.2231L18.7458 31.2231L18.7458 30.2231L17.7458 30.2231ZM6.2995 30.2231L5.2995 30.2231L5.2995 31.2231L6.2995 31.2231L6.2995 30.2231ZM6.2995 21.7729L6.2995 22.7729L17.7458 22.7729L17.7458 21.7729L17.7458 20.7729L6.2995 20.7729L6.2995 21.7729ZM17.7458 21.7729L16.7458 21.7729L16.7458 21.8511L17.7458 21.8511L18.7458 21.8511L18.7458 21.7729L17.7458 21.7729ZM17.7458 21.8511L17.5997 22.8403L45.1465 26.9097L45.2927 25.9204L45.4388 24.9311L17.8919 20.8618L17.7458 21.8511ZM45.2927 25.9204L45.1411 24.932L17.5943 29.1546L17.7458 30.1431L17.8973 31.1315L45.4442 26.9089L45.2927 25.9204ZM17.7458 30.1431L16.7458 30.1431L16.7458 30.2231L17.7458 30.2231L18.7458 30.2231L18.7458 30.1431L17.7458 30.1431ZM17.7458 30.2231L17.7458 29.2231L6.2995 29.2231L6.2995 30.2231L6.2995 31.2231L17.7458 31.2231L17.7458 30.2231ZM6.2995 30.2231L7.2995 30.2231L7.2995 21.7729L6.2995 21.7729L5.2995 21.7729L5.2995 30.2231L6.2995 30.2231Z" fill="black" mask="url(#path-3-inside-1_108_535)"/>
</svg>
