<?xml version="1.0" encoding="UTF-8"?>
<!-- Generator: Adobe Illustrator 12.0.1, SVG Export Plug-In . SVG Version: 6.00 Build 51448)  -->
<svg id="Layer_4" width="700" height="500" version="1.1" viewBox="0 0 700 500" xml:space="preserve" xmlns="http://www.w3.org/2000/svg" xmlns:xlink="http://www.w3.org/1999/xlink"><defs id="defs453"><radialGradient id="radialGradient5259" cx="292.08" cy="268.3" r="142.24" gradientUnits="userSpaceOnUse" xlink:href="#XMLID_14_"/><radialGradient id="radialGradient5263" cx="286.75" cy="177.63" r="204.83" gradientUnits="userSpaceOnUse" xlink:href="#XMLID_17_"/></defs>
<g id="g446">
	<g id="g35" transform="translate(94.338 6.3317)">
		
			<radialGradient id="XMLID_13_" cx="244.3" cy="214.18" r="149.98" gradientTransform="matrix(1.6296 -.3743 0 1 -174.12 92.913)" gradientUnits="userSpaceOnUse">
			<stop id="stop2" stop-color="#F4FFF3" offset="0"/>
			<stop id="stop4" stop-color="#5EBF53" offset="1"/>
		</radialGradient>
		<polygon id="polygon7" points="241.5 245 333.7 190.3 333.7 332.1 241.5 386.8" fill="url(#XMLID_13_)" opacity=".7"/>
		<g id="g33" fill="none" opacity=".7" stroke="#000" stroke-width=".25">
			<line id="line9" x1="241.5" x2="333.7" y1="363.1" y2="308.4"/>
			<line id="line11" x1="241.5" x2="333.7" y1="339.6" y2="284.9"/>
			<line id="line13" x1="241.5" x2="333.7" y1="315.9" y2="261.2"/>
			<line id="line15" x1="241.5" x2="333.7" y1="292.2" y2="237.5"/>
			<line id="line17" x1="241.5" x2="333.7" y1="268.7" y2="214"/>
			<line id="line19" x1="241.5" x2="333.7" y1="386.8" y2="332.1"/>
			<line id="line21" x1="318.4" x2="318.4" y1="199.5" y2="341.2"/>
			<line id="line23" x1="303" x2="303" y1="208.6" y2="350.3"/>
			<line id="line25" x1="287.6" x2="287.6" y1="217.7" y2="359.4"/>
			<line id="line27" x1="272.2" x2="272.2" y1="226.8" y2="368.5"/>
			<line id="line29" x1="256.8" x2="256.8" y1="235.9" y2="377.7"/>
			<line id="line31" x1="333.7" x2="333.7" y1="190.3" y2="332.1"/>
		</g>
	</g>
	<g id="g70" transform="translate(94.338 6.3317)">
		<radialGradient id="XMLID_14_" cx="292.08" cy="268.3" r="142.24" gradientUnits="userSpaceOnUse">
			<stop id="stop37" stop-color="#FFEEDE" offset="0"/>
			<stop id="stop39" stop-color="#FF8E52" offset="1"/>
		</radialGradient>
		<polygon id="polygon42" points="192 190.3 333.7 190.3 241.5 245 99.7 245" fill="url(#radialGradient5259)" opacity=".7"/>
		<g id="g68" fill="none" opacity=".7" stroke="#000" stroke-width=".25">
			<line id="line44" x1="192" x2="333.7" y1="190.3" y2="190.3"/>
			<line id="line46" x1="115.2" x2="256.9" y1="235.9" y2="235.9"/>
			<line id="line48" x1="130.5" x2="272.2" y1="226.8" y2="226.8"/>
			<line id="line50" x1="145.9" x2="287.6" y1="217.7" y2="217.7"/>
			<line id="line52" x1="161.3" x2="303" y1="208.5" y2="208.5"/>
			<line id="line54" x1="176.6" x2="318.3" y1="199.4" y2="199.4"/>
			<line id="line56" x1="192" x2="99.7" y1="190.3" y2="245"/>
			<line id="line58" x1="310.1" x2="217.9" y1="190.3" y2="245"/>
			<line id="line60" x1="286.5" x2="194.2" y1="190.3" y2="245"/>
			<line id="line62" x1="262.9" x2="170.6" y1="190.3" y2="245"/>
			<line id="line64" x1="239.3" x2="147" y1="190.3" y2="245"/>
			<line id="line66" x1="215.6" x2="123.3" y1="190.3" y2="245"/>
		</g>
	</g>
	<g id="g105" transform="translate(94.338 6.3317)">
		
			<radialGradient id="XMLID_15_" cx="244.3" cy="214.18" r="149.98" gradientTransform="matrix(1.6296 -.3743 0 1 -174.12 92.913)" gradientUnits="userSpaceOnUse">
			<stop id="stop72" stop-color="#F4FFF3" offset="0"/>
			<stop id="stop74" stop-color="#5EBF53" offset="1"/>
		</radialGradient>
		<polygon id="polygon77" points="241.5 103.3 333.7 48.6 333.7 190.3 241.5 245" fill="url(#XMLID_15_)" opacity=".7"/>
		<g id="g103" fill="none" opacity=".7" stroke="#000" stroke-width=".25">
			<line id="line79" x1="241.5" x2="333.7" y1="103.3" y2="48.6"/>
			<line id="line81" x1="241.5" x2="333.7" y1="221.4" y2="166.7"/>
			<line id="line83" x1="241.5" x2="333.7" y1="197.8" y2="143.2"/>
			<line id="line85" x1="241.5" x2="333.7" y1="174.2" y2="119.5"/>
			<line id="line87" x1="241.5" x2="333.7" y1="150.5" y2="95.8"/>
			<line id="line89" x1="241.5" x2="333.7" y1="127" y2="72.3"/>
			<line id="line91" x1="318.4" x2="318.4" y1="57.7" y2="199.5"/>
			<line id="line93" x1="303" x2="303" y1="66.9" y2="208.6"/>
			<line id="line95" x1="287.6" x2="287.6" y1="76" y2="217.7"/>
			<line id="line97" x1="272.2" x2="272.2" y1="85.1" y2="226.8"/>
			<line id="line99" x1="256.8" x2="256.8" y1="94.2" y2="235.9"/>
			<line id="line101" x1="333.7" x2="333.7" y1="48.6" y2="190.3"/>
		</g>
	</g>
	<g id="g135" transform="translate(94.338 6.3317)">
		<polygon id="polygon107" points="333.7 190.3 475.5 190.3 383.2 245 241.5 245" fill="url(#radialGradient5259)" opacity=".7"/>
		<g id="g133" fill="none" opacity=".7" stroke="#000" stroke-width=".25">
			<line id="line109" x1="333.7" x2="475.5" y1="190.3" y2="190.3"/>
			<line id="line111" x1="256.9" x2="398.6" y1="235.9" y2="235.9"/>
			<line id="line113" x1="272.2" x2="413.9" y1="226.8" y2="226.8"/>
			<line id="line115" x1="287.6" x2="429.3" y1="217.7" y2="217.7"/>
			<line id="line117" x1="303" x2="444.7" y1="208.5" y2="208.5"/>
			<line id="line119" x1="318.3" x2="460" y1="199.4" y2="199.4"/>
			<line id="line121" x1="451.9" x2="359.6" y1="190.3" y2="245"/>
			<line id="line123" x1="428.2" x2="335.9" y1="190.3" y2="245"/>
			<line id="line125" x1="404.6" x2="312.3" y1="190.3" y2="245"/>
			<line id="line127" x1="381" x2="288.7" y1="190.3" y2="245"/>
			<line id="line129" x1="357.3" x2="265.1" y1="190.3" y2="245"/>
			<line id="line131" x1="383.2" x2="475.5" y1="245" y2="190.3"/>
		</g>
	</g>
	<g id="g143" transform="translate(94.338 6.3317)">
		<g id="g141">
			<line id="line137" x1="241.5" x2="353.1" y1="245" y2="178.8" fill="none" stroke="#000" stroke-width="4"/>
			<path id="path139" d="m356.7 173.8c-4 1-6.8 1.4-10.2 1.9l6.2 10.4c0.7-1 3.7-5 6.5-8 3-3.3 5.9-6 7.8-7.5-2.3 0.9-6 2.1-10.3 3.2z"/>
		</g>
	</g>
	<g id="g178" transform="translate(94.338 6.3317)">
		<radialGradient id="XMLID_17_" cx="286.75" cy="177.63" r="204.83" gradientUnits="userSpaceOnUse">
			<stop id="stop145" stop-color="#DEEEFF" offset="0"/>
			<stop id="stop147" stop-color="#3374FF" offset="1"/>
		</radialGradient>
		<rect id="rect150" x="241.5" y="103.3" width="141.7" height="141.7" fill="url(#radialGradient5263)" opacity=".7"/>
		<g id="g176" fill="none" opacity=".7" stroke="#000" stroke-width=".25">
			<line id="line152" x1="241.5" x2="383.2" y1="103.3" y2="103.3"/>
			<line id="line154" x1="241.5" x2="383.2" y1="221.4" y2="221.4"/>
			<line id="line156" x1="241.5" x2="383.2" y1="197.8" y2="197.8"/>
			<line id="line158" x1="241.5" x2="383.2" y1="174.2" y2="174.2"/>
			<line id="line160" x1="241.5" x2="383.2" y1="150.5" y2="150.5"/>
			<line id="line162" x1="241.5" x2="383.2" y1="127" y2="127"/>
			<line id="line164" x1="359.6" x2="359.6" y1="103.3" y2="245"/>
			<line id="line166" x1="335.9" x2="335.9" y1="103.3" y2="245"/>
			<line id="line168" x1="312.3" x2="312.3" y1="103.3" y2="245"/>
			<line id="line170" x1="288.7" x2="288.7" y1="103.3" y2="245"/>
			<line id="line172" x1="265.1" x2="265.1" y1="103.3" y2="245"/>
			<line id="line174" x1="383.2" x2="383.2" y1="103.3" y2="245"/>
		</g>
	</g>
	<g id="g208" transform="translate(94.338 6.3317)">
		<rect id="rect180" x="99.7" y="103.3" width="141.7" height="141.7" fill="url(#radialGradient5263)" opacity=".7"/>
		<g id="g206" fill="none" opacity=".7" stroke="#000" stroke-width=".25">
			<line id="line182" x1="99.7" x2="241.5" y1="103.3" y2="103.3"/>
			<line id="line184" x1="99.7" x2="241.5" y1="221.4" y2="221.4"/>
			<line id="line186" x1="99.7" x2="241.5" y1="197.8" y2="197.8"/>
			<line id="line188" x1="99.7" x2="241.5" y1="174.2" y2="174.2"/>
			<line id="line190" x1="99.7" x2="241.5" y1="150.5" y2="150.5"/>
			<line id="line192" x1="99.7" x2="241.5" y1="127" y2="127"/>
			<line id="line194" x1="99.7" x2="99.7" y1="103.3" y2="245"/>
			<line id="line196" x1="217.9" x2="217.9" y1="103.3" y2="245"/>
			<line id="line198" x1="194.2" x2="194.2" y1="103.3" y2="245"/>
			<line id="line200" x1="170.6" x2="170.6" y1="103.3" y2="245"/>
			<line id="line202" x1="147" x2="147" y1="103.3" y2="245"/>
			<line id="line204" x1="123.3" x2="123.3" y1="103.3" y2="245"/>
		</g>
	</g>
	<g id="g238" transform="translate(94.338 6.3317)">
		<rect id="rect210" x="99.7" y="245" width="141.7" height="141.7" fill="url(#radialGradient5263)" opacity=".7"/>
		<g id="g236" fill="none" opacity=".7" stroke="#000" stroke-width=".25">
			<line id="line212" x1="99.7" x2="241.5" y1="363.1" y2="363.1"/>
			<line id="line214" x1="99.7" x2="241.5" y1="339.6" y2="339.6"/>
			<line id="line216" x1="99.7" x2="241.5" y1="315.9" y2="315.9"/>
			<line id="line218" x1="99.7" x2="241.5" y1="292.2" y2="292.2"/>
			<line id="line220" x1="99.7" x2="241.5" y1="268.7" y2="268.7"/>
			<line id="line222" x1="99.7" x2="241.5" y1="386.8" y2="386.8"/>
			<line id="line224" x1="99.7" x2="99.7" y1="245" y2="386.8"/>
			<line id="line226" x1="217.9" x2="217.9" y1="245" y2="386.8"/>
			<line id="line228" x1="194.2" x2="194.2" y1="245" y2="386.8"/>
			<line id="line230" x1="170.6" x2="170.6" y1="245" y2="386.8"/>
			<line id="line232" x1="147" x2="147" y1="245" y2="386.8"/>
			<line id="line234" x1="123.3" x2="123.3" y1="245" y2="386.8"/>
		</g>
	</g>
	<g id="g268" transform="translate(94.338 6.3317)">
		<polygon id="polygon240" points="99.7 245 241.5 245 149.2 299.8 7.5 299.8" fill="url(#radialGradient5259)" opacity=".7"/>
		<g id="g266" fill="none" opacity=".7" stroke="#000" stroke-width=".25">
			<line id="line242" x1="22.9" x2="164.6" y1="290.6" y2="290.6"/>
			<line id="line244" x1="38.2" x2="180" y1="281.5" y2="281.5"/>
			<line id="line246" x1="53.6" x2="195.4" y1="272.4" y2="272.4"/>
			<line id="line248" x1="69" x2="210.8" y1="263.3" y2="263.3"/>
			<line id="line250" x1="84.3" x2="226.1" y1="254.2" y2="254.2"/>
			<line id="line252" x1="7.5" x2="149.2" y1="299.8" y2="299.8"/>
			<line id="line254" x1="99.7" x2="7.5" y1="245" y2="299.8"/>
			<line id="line256" x1="217.9" x2="125.6" y1="245" y2="299.8"/>
			<line id="line258" x1="194.2" x2="102" y1="245" y2="299.8"/>
			<line id="line260" x1="170.6" x2="78.4" y1="245" y2="299.8"/>
			<line id="line262" x1="147" x2="54.8" y1="245" y2="299.8"/>
			<line id="line264" x1="123.3" x2="31.1" y1="245" y2="299.8"/>
		</g>
	</g>
	<g id="g298" transform="translate(94.338 6.3317)">
		<rect id="rect270" x="241.5" y="245" width="141.7" height="141.7" fill="url(#radialGradient5263)" opacity=".7"/>
		<g id="g296" fill="none" opacity=".7" stroke="#000" stroke-width=".25">
			<line id="line272" x1="241.5" x2="383.2" y1="363.1" y2="363.1"/>
			<line id="line274" x1="241.5" x2="383.2" y1="339.6" y2="339.6"/>
			<line id="line276" x1="241.5" x2="383.2" y1="315.9" y2="315.9"/>
			<line id="line278" x1="241.5" x2="383.2" y1="292.2" y2="292.2"/>
			<line id="line280" x1="241.5" x2="383.2" y1="268.7" y2="268.7"/>
			<line id="line282" x1="241.5" x2="383.2" y1="386.8" y2="386.8"/>
			<line id="line284" x1="359.6" x2="359.6" y1="245" y2="386.8"/>
			<line id="line286" x1="335.9" x2="335.9" y1="245" y2="386.8"/>
			<line id="line288" x1="312.3" x2="312.3" y1="245" y2="386.8"/>
			<line id="line290" x1="288.7" x2="288.7" y1="245" y2="386.8"/>
			<line id="line292" x1="265.1" x2="265.1" y1="245" y2="386.8"/>
			<line id="line294" x1="383.2" x2="383.2" y1="245" y2="386.8"/>
		</g>
	</g>
	<g id="g306" transform="translate(94.338 6.3317)">
		<g id="g304">
			<line id="line300" x1="241.5" x2="77.2" y1="245" y2="245" fill="none" stroke="#000" stroke-width="4"/>
			<path id="path302" d="m71.5 247.5c4 1.2 6.5 2.3 9.7 3.6v-12.1c-1.1 0.5-5.8 2.4-9.7 3.6-4.2 1.3-8.1 2.2-10.6 2.5 2.5 0.2 6.4 1.1 10.6 2.4z"/>
		</g>
	</g>
	<g id="g341" transform="translate(94.338 6.3317)">
		
			<radialGradient id="XMLID_22_" cx="244.3" cy="214.18" r="149.98" gradientTransform="matrix(1.6296 -.3743 0 1 -174.12 92.913)" gradientUnits="userSpaceOnUse">
			<stop id="stop308" stop-color="#F4FFF3" offset="0"/>
			<stop id="stop310" stop-color="#5EBF53" offset="1"/>
		</radialGradient>
		<polygon id="polygon313" points="149.2 158 241.5 103.3 241.5 245 149.2 299.7" fill="url(#XMLID_22_)" opacity=".7"/>
		<g id="g339" fill="none" opacity=".7" stroke="#000" stroke-width=".25">
			<line id="line315" x1="149.2" x2="241.5" y1="158" y2="103.3"/>
			<line id="line317" x1="149.2" x2="241.5" y1="276" y2="221.4"/>
			<line id="line319" x1="149.2" x2="241.5" y1="252.5" y2="197.8"/>
			<line id="line321" x1="149.2" x2="241.5" y1="228.8" y2="174.2"/>
			<line id="line323" x1="149.2" x2="241.5" y1="205.2" y2="150.5"/>
			<line id="line325" x1="149.2" x2="241.5" y1="181.6" y2="127"/>
			<line id="line327" x1="149.2" x2="149.2" y1="158" y2="299.7"/>
			<line id="line329" x1="226.1" x2="226.1" y1="112.4" y2="254.1"/>
			<line id="line331" x1="210.7" x2="210.7" y1="121.5" y2="263.3"/>
			<line id="line333" x1="195.4" x2="195.4" y1="130.6" y2="272.4"/>
			<line id="line335" x1="180" x2="180" y1="139.7" y2="281.5"/>
			<line id="line337" x1="164.6" x2="164.6" y1="148.9" y2="290.6"/>
		</g>
	</g>
	<g id="g376" transform="translate(94.338 6.3317)">
		
			<radialGradient id="XMLID_23_" cx="244.3" cy="214.18" r="149.98" gradientTransform="matrix(1.6296 -.3743 0 1 -174.12 92.913)" gradientUnits="userSpaceOnUse">
			<stop id="stop343" stop-color="#F4FFF3" offset="0"/>
			<stop id="stop345" stop-color="#5EBF53" offset="1"/>
		</radialGradient>
		<polygon id="polygon348" points="149.2 299.7 241.5 245 241.5 386.8 149.2 441.4" fill="url(#XMLID_23_)" opacity=".7"/>
		<g id="g374" fill="none" opacity=".7" stroke="#000" stroke-width=".25">
			<line id="line350" x1="149.2" x2="241.5" y1="417.8" y2="363.1"/>
			<line id="line352" x1="149.2" x2="241.5" y1="394.2" y2="339.6"/>
			<line id="line354" x1="149.2" x2="241.5" y1="370.6" y2="315.9"/>
			<line id="line356" x1="149.2" x2="241.5" y1="346.9" y2="292.2"/>
			<line id="line358" x1="149.2" x2="241.5" y1="323.4" y2="268.7"/>
			<line id="line360" x1="149.2" x2="241.5" y1="441.4" y2="386.8"/>
			<line id="line362" x1="149.2" x2="149.2" y1="299.7" y2="441.4"/>
			<line id="line364" x1="226.1" x2="226.1" y1="254.1" y2="395.9"/>
			<line id="line366" x1="210.7" x2="210.7" y1="263.3" y2="405"/>
			<line id="line368" x1="195.4" x2="195.4" y1="272.4" y2="414.1"/>
			<line id="line370" x1="180" x2="180" y1="281.5" y2="423.2"/>
			<line id="line372" x1="164.6" x2="164.6" y1="290.6" y2="432.3"/>
		</g>
	</g>
	<g id="g384" transform="translate(94.338 6.3317)">
		<g id="g382">
			<line id="line378" x1="241.5" x2="241.5" y1="245" y2="409.8" fill="none" stroke="#000" stroke-width="4"/>
			
		</g>
	</g>
	<g id="g414" transform="translate(94.338 6.3317)">
		<polygon id="polygon386" points="241.5 245 383.2 245 291 299.8 149.2 299.8" fill="url(#radialGradient5259)" opacity=".7"/>
		<g id="g412" fill="none" opacity=".7" stroke="#000" stroke-width=".25">
			<line id="line388" x1="164.6" x2="306.4" y1="290.6" y2="290.6"/>
			<line id="line390" x1="180" x2="321.7" y1="281.5" y2="281.5"/>
			<line id="line392" x1="195.4" x2="337.1" y1="272.4" y2="272.4"/>
			<line id="line394" x1="210.8" x2="352.5" y1="263.3" y2="263.3"/>
			<line id="line396" x1="226.1" x2="367.8" y1="254.2" y2="254.2"/>
			<line id="line398" x1="149.2" x2="291" y1="299.8" y2="299.8"/>
			<line id="line400" x1="359.6" x2="267.4" y1="245" y2="299.8"/>
			<line id="line402" x1="335.9" x2="243.7" y1="245" y2="299.8"/>
			<line id="line404" x1="312.3" x2="220.1" y1="245" y2="299.8"/>
			<line id="line406" x1="288.7" x2="196.5" y1="245" y2="299.8"/>
			<line id="line408" x1="265.1" x2="172.8" y1="245" y2="299.8"/>
			<line id="line410" x1="291" x2="383.2" y1="299.8" y2="245"/>
		</g>
	</g>
	<g id="g422" transform="translate(94.338 6.3317)">
		<g id="g420">
			<line id="line416" x1="241.5" x2="241.5" y1="245" y2="80.3" fill="none" stroke="#000" stroke-width="4"/>
			<path id="path418" d="m239 74.6c-1.2 4-2.3 6.5-3.6 9.7h12.1c-0.5-1.1-2.4-5.8-3.6-9.7-1.3-4.2-2.2-8.1-2.5-10.6-0.2 2.5-1.1 6.4-2.4 10.6z"/>
		</g>
	</g>
	<g id="g430" transform="translate(94.338 6.3317)">
		<g id="g428">
			<line id="line424" x1="241.5" x2="405.7" y1="245" y2="245" fill="none" stroke="#000" stroke-width="4"/>
			
		</g>
	</g>
	<g id="g438" transform="translate(94.338 6.3317)">
		<g id="g436" fill="none" stroke-width="4.192">
			<line id="line432" x1="241.58" x2="6.2609" y1="245.16" y2="390.02" stroke="#000"/>
			
		<text id="text2707" transform="rotate(-33.079)" x="-191.08473" y="323.63882" font-size="21.333px" stroke="#525252" xml:space="preserve"><tspan id="tspan2705" x="-191.08473" y="323.63882" fill="#d40000" font-size="21.333px" stroke="none">beam</tspan></text></g>
	</g>
	<text id="text440" x="216.51566" y="303.42902" font-family="'Nimbus Roman No9 L', Times, serif" font-size="36px" font-style="italic">x</text>
	<text id="text442" x="131.44174" y="253.5233" font-family="'Nimbus Roman No9 L', Times, serif" font-size="36px" font-style="italic">y</text>
	<text id="text444" x="289.06998" y="56.171535" font-family="'Nimbus Roman No9 L', Times, serif" font-size="36px" font-style="italic">z</text>
</g>
<rect id="rect448" x="94.338" y="6.3317" width="487.4" height="487.4" fill="none"/>
</svg>
