<?xml version="1.0" encoding="UTF-8" standalone="no"?>
<svg
   xmlns:dc="http://purl.org/dc/elements/1.1/"
   xmlns:cc="http://creativecommons.org/ns#"
   xmlns:rdf="http://www.w3.org/1999/02/22-rdf-syntax-ns#"
   xmlns:svg="http://www.w3.org/2000/svg"
   xmlns="http://www.w3.org/2000/svg"
   xmlns:sodipodi="http://sodipodi.sourceforge.net/DTD/sodipodi-0.dtd"
   xmlns:inkscape="http://www.inkscape.org/namespaces/inkscape"
   width="200"
   height="90"
   viewBox="0 0 52.916667 23.8125"
   version="1.1"
   id="svg8"
   inkscape:version="1.0.2 (e86c870879, 2021-01-15)"
   sodipodi:docname="ctf_z1.svg"
   inkscape:export-filename="/home/payno/dev/tomo/tomwer/tomwer/resources/gui/illustrations/ctf_z1.png"
   inkscape:export-xdpi="134.50999"
   inkscape:export-ydpi="134.50999">
  <defs
     id="defs2">
    <marker
       inkscape:isstock="true"
       style="overflow:visible"
       id="marker3517"
       refX="0"
       refY="0"
       orient="auto"
       inkscape:stockid="Arrow1Sstart">
      <path
         transform="matrix(0.2,0,0,0.2,1.2,0)"
         style="fill:#000000;fill-opacity:1;fill-rule:evenodd;stroke:#000000;stroke-width:1.00000003pt;stroke-opacity:1"
         d="M 0,0 5,-5 -12.5,0 5,5 Z"
         id="path3515"
         inkscape:connector-curvature="0" />
    </marker>
    <marker
       inkscape:stockid="Arrow2Send"
       orient="auto"
       refY="0"
       refX="0"
       id="Arrow2Send"
       style="overflow:visible"
       inkscape:isstock="true">
      <path
         id="path937"
         style="fill:#000000;fill-opacity:1;fill-rule:evenodd;stroke:#000000;stroke-width:0.625;stroke-linejoin:round;stroke-opacity:1"
         d="M 8.7185878,4.0337352 -2.2072895,0.01601326 8.7185884,-4.0017078 c -1.7454984,2.3720609 -1.7354408,5.6174519 -6e-7,8.035443 z"
         transform="matrix(-0.3,0,0,-0.3,0.69,0)"
         inkscape:connector-curvature="0" />
    </marker>
    <marker
       inkscape:isstock="true"
       style="overflow:visible"
       id="marker1789"
       refX="0"
       refY="0"
       orient="auto"
       inkscape:stockid="Arrow1Mend">
      <path
         transform="matrix(-0.4,0,0,-0.4,-4,0)"
         style="fill:#000000;fill-opacity:1;fill-rule:evenodd;stroke:#000000;stroke-width:1.00000003pt;stroke-opacity:1"
         d="M 0,0 5,-5 -12.5,0 5,5 Z"
         id="path1787"
         inkscape:connector-curvature="0" />
    </marker>
    <marker
       inkscape:stockid="Arrow1Mstart"
       orient="auto"
       refY="0"
       refX="0"
       id="Arrow1Mstart"
       style="overflow:visible"
       inkscape:isstock="true">
      <path
         id="path910"
         d="M 0,0 5,-5 -12.5,0 5,5 Z"
         style="fill:#000000;fill-opacity:1;fill-rule:evenodd;stroke:#000000;stroke-width:1.00000003pt;stroke-opacity:1"
         transform="matrix(0.4,0,0,0.4,4,0)"
         inkscape:connector-curvature="0" />
    </marker>
    <marker
       inkscape:stockid="Arrow2Mstart"
       orient="auto"
       refY="0"
       refX="0"
       id="Arrow2Mstart"
       style="overflow:visible"
       inkscape:isstock="true">
      <path
         id="path928"
         style="fill:#000000;fill-opacity:1;fill-rule:evenodd;stroke:#000000;stroke-width:0.625;stroke-linejoin:round;stroke-opacity:1"
         d="M 8.7185878,4.0337352 -2.2072895,0.01601326 8.7185884,-4.0017078 c -1.7454984,2.3720609 -1.7354408,5.6174519 -6e-7,8.035443 z"
         transform="scale(0.6)"
         inkscape:connector-curvature="0" />
    </marker>
    <marker
       inkscape:stockid="Arrow2Mend"
       orient="auto"
       refY="0"
       refX="0"
       id="Arrow2Mend"
       style="overflow:visible"
       inkscape:isstock="true">
      <path
         id="path931"
         style="fill:#000000;fill-opacity:1;fill-rule:evenodd;stroke:#000000;stroke-width:0.625;stroke-linejoin:round;stroke-opacity:1"
         d="M 8.7185878,4.0337352 -2.2072895,0.01601326 8.7185884,-4.0017078 c -1.7454984,2.3720609 -1.7354408,5.6174519 -6e-7,8.035443 z"
         transform="scale(-0.6)"
         inkscape:connector-curvature="0" />
    </marker>
    <marker
       inkscape:stockid="Arrow1Mend"
       orient="auto"
       refY="0"
       refX="0"
       id="Arrow1Mend"
       style="overflow:visible"
       inkscape:isstock="true">
      <path
         id="path913"
         d="M 0,0 5,-5 -12.5,0 5,5 Z"
         style="fill:#000000;fill-opacity:1;fill-rule:evenodd;stroke:#000000;stroke-width:1.00000003pt;stroke-opacity:1"
         transform="matrix(-0.4,0,0,-0.4,-4,0)"
         inkscape:connector-curvature="0" />
    </marker>
    <inkscape:perspective
       sodipodi:type="inkscape:persp3d"
       inkscape:vp_x="0 : 26.458333 : 1"
       inkscape:vp_y="0 : 999.99999 : 0"
       inkscape:vp_z="52.916667 : 26.458333 : 1"
       inkscape:persp3d-origin="26.458333 : 17.638889 : 1"
       id="perspective823" />
    <marker
       inkscape:stockid="Arrow2Send"
       orient="auto"
       refY="0"
       refX="0"
       id="Arrow2Send-6"
       style="overflow:visible"
       inkscape:isstock="true">
      <path
         inkscape:connector-curvature="0"
         id="path937-2"
         style="fill:#000000;fill-opacity:1;fill-rule:evenodd;stroke:#000000;stroke-width:0.625;stroke-linejoin:round;stroke-opacity:1"
         d="M 8.7185878,4.0337352 -2.2072895,0.01601326 8.7185884,-4.0017078 c -1.7454984,2.3720609 -1.7354408,5.6174519 -6e-7,8.035443 z"
         transform="matrix(-0.3,0,0,-0.3,0.69,0)" />
    </marker>
    <marker
       inkscape:stockid="Arrow2Send"
       orient="auto"
       refY="0"
       refX="0"
       id="Arrow2Send-6-7"
       style="overflow:visible"
       inkscape:isstock="true">
      <path
         inkscape:connector-curvature="0"
         id="path937-2-0"
         style="fill:#000000;fill-opacity:1;fill-rule:evenodd;stroke:#000000;stroke-width:0.625;stroke-linejoin:round;stroke-opacity:1"
         d="M 8.7185878,4.0337352 -2.2072895,0.01601326 8.7185884,-4.0017078 c -1.7454984,2.3720609 -1.7354408,5.6174519 -6e-7,8.035443 z"
         transform="matrix(-0.3,0,0,-0.3,0.69,0)" />
    </marker>
  </defs>
  <sodipodi:namedview
     id="base"
     pagecolor="#ffffff"
     bordercolor="#666666"
     borderopacity="1.0"
     inkscape:pageopacity="0.0"
     inkscape:pageshadow="2"
     inkscape:zoom="3.959798"
     inkscape:cx="57.456907"
     inkscape:cy="67.584462"
     inkscape:document-units="mm"
     inkscape:current-layer="layer1"
     showgrid="false"
     units="px"
     width="200px"
     inkscape:window-width="1920"
     inkscape:window-height="1016"
     inkscape:window-x="0"
     inkscape:window-y="27"
     inkscape:window-maximized="1"
     inkscape:document-rotation="0" />
  <metadata
     id="metadata5">
    <rdf:RDF>
      <cc:Work
         rdf:about="">
        <dc:format>image/svg+xml</dc:format>
        <dc:type
           rdf:resource="http://purl.org/dc/dcmitype/StillImage" />
        <dc:title />
      </cc:Work>
    </rdf:RDF>
  </metadata>
  <g
     inkscape:label="Layer 1"
     inkscape:groupmode="layer"
     id="layer1"
     transform="translate(0,-273.1875)">
    <g
       id="g1281"
       style="opacity:0.76200005;stroke:#919191;stroke-opacity:1"
       transform="translate(0,14.287503)">
      <g
         id="g1271"
         style="stroke:#919191;stroke-opacity:1">
        <path
           style="fill:none;stroke:#919191;stroke-width:0.26458332px;stroke-linecap:butt;stroke-linejoin:miter;stroke-opacity:1"
           d="M 22.867559,265.62797 5.1026784,271.10863"
           id="path815"
           inkscape:connector-curvature="0"
           sodipodi:nodetypes="cc" />
      </g>
      <g
         id="g1274"
         style="stroke:#919191;stroke-opacity:1">
        <path
           style="fill:none;stroke:#919191;stroke-width:0.26458332px;stroke-linecap:butt;stroke-linejoin:miter;stroke-opacity:1"
           d="m 5.1026784,271.10863 10.5003856,3.27022 7.198367,2.24184 0.06613,-10.99272 3.458489,-0.0321 v 11.09164"
           id="path817"
           inkscape:connector-curvature="0"
           sodipodi:nodetypes="cccccc" />
      </g>
      <path
         sodipodi:nodetypes="cc"
         inkscape:connector-curvature="0"
         id="path819"
         d="m 22.801431,276.62069 3.524617,0.0668"
         style="fill:none;stroke:#919191;stroke-width:0.26458332px;stroke-linecap:butt;stroke-linejoin:miter;stroke-opacity:1" />
    </g>
    <g
       id="g7049"
       transform="translate(0,14.287503)">
      <path
         style="color:#000000;font-style:normal;font-variant:normal;font-weight:normal;font-stretch:normal;font-size:medium;line-height:normal;font-family:sans-serif;font-variant-ligatures:normal;font-variant-position:normal;font-variant-caps:normal;font-variant-numeric:normal;font-variant-alternates:normal;font-feature-settings:normal;text-indent:0;text-align:start;text-decoration:none;text-decoration-line:none;text-decoration-style:solid;text-decoration-color:#000000;letter-spacing:normal;word-spacing:normal;text-transform:none;writing-mode:lr-tb;direction:ltr;text-orientation:mixed;dominant-baseline:auto;baseline-shift:baseline;text-anchor:start;white-space:normal;shape-padding:0;clip-rule:nonzero;display:inline;overflow:visible;visibility:visible;opacity:1;isolation:auto;mix-blend-mode:normal;color-interpolation:sRGB;color-interpolation-filters:linearRGB;solid-color:#000000;solid-opacity:1;vector-effect:none;fill:#000000;fill-opacity:1;fill-rule:nonzero;stroke:none;stroke-width:0.26499999;stroke-linecap:butt;stroke-linejoin:miter;stroke-miterlimit:4;stroke-dasharray:0.265, 0.265;stroke-dashoffset:0;stroke-opacity:1;color-rendering:auto;image-rendering:auto;shape-rendering:auto;text-rendering:auto;enable-background:accumulate"
         d="m 46.048828,271.69336 0.002,0.26562 0.265625,-0.002 -0.002,-0.26367 z m -0.265625,0.002 -0.263672,0.002 0.002,0.26562 0.263672,-0.002 z m -0.794922,0.004 0.002,0.26562 0.265625,-0.002 -0.002,-0.26367 z m -0.263672,0.002 -0.265625,0.002 0.002,0.26563 0.263671,-0.002 z m -0.794921,0.004 v 0.26562 l 0.265624,-0.002 -0.002,-0.26367 z m -0.265626,0.002 -0.265624,0.002 0.002,0.26563 0.265625,-0.002 z m -0.794921,0.004 0.002,0.26562 0.263672,-0.002 v -0.26367 z m -0.265625,0.002 -0.263672,0.002 v 0.26368 h 0.265625 z m -0.794922,0.004 0.002,0.26562 0.265625,-0.002 -0.002,-0.26367 z m -0.263672,0.002 -0.265625,0.002 0.002,0.26368 h 0.263672 z m -0.794922,0.004 v 0.26562 l 0.265625,-0.002 -0.002,-0.26367 z m -0.265625,0.002 -0.265625,0.002 0.002,0.26367 h 0.265625 z m -0.529297,0.002 -0.265625,0.002 0.002,0.26562 0.263672,-0.002 z m -0.53125,0.004 -0.263672,0.002 v 0.26367 h 0.265625 z m -0.529297,0.002 -0.265625,0.002 0.002,0.26562 0.265625,-0.002 z m -0.53125,0.004 -0.263672,0.002 0.002,0.26367 h 0.263672 z m -0.529297,0.002 -0.265625,0.002 0.002,0.26563 0.265626,-0.002 z m -0.529296,0.004 -0.265626,0.002 0.002,0.26367 h 0.265625 z m -0.53125,0.002 -0.263672,0.002 v 0.26563 l 0.265625,-0.002 z m -0.529297,0.004 -0.265625,0.002 0.002,0.26367 h 0.265625 z m -0.529297,0.002 -0.265625,0.002 0.002,0.26563 0.263672,-0.002 z m -0.53125,0.004 -0.263672,0.002 v 0.26367 h 0.265625 z m -0.529297,0.002 -0.265625,0.002 0.002,0.26563 0.265625,-0.002 z m -0.529297,0.004 -0.265625,0.002 0.002,0.26367 H 34.125 Z m -0.53125,0.002 -0.263672,0.002 v 0.26563 l 0.265625,-0.002 z m -0.529297,0.004 -0.265625,0.002 0.002,0.26367 0.265625,-0.002 z m -0.529297,0.002 -0.265625,0.002 0.002,0.26563 0.263672,-0.002 z m -0.53125,0.004 -0.263672,0.002 v 0.26367 l 0.265625,-0.002 z m -0.529297,0.002 -0.265625,0.002 0.002,0.26563 0.265624,-0.002 z m -0.53125,0.004 -0.263671,0.002 0.002,0.26367 0.263671,-0.002 z m -0.529297,0.002 -0.265624,0.002 0.002,0.26563 0.265625,-0.002 z m -0.794921,0.004 0.002,0.26563 0.265625,-0.002 -0.002,-0.26368 z m -0.265625,0.002 -0.263672,0.002 v 0.26562 l 0.265625,-0.002 z m -0.794922,0.004 0.002,0.26563 0.265625,-0.002 -0.002,-0.26367 z m -0.263672,0.002 -0.265625,0.002 0.002,0.26562 0.263672,-0.002 z M 27.5,271.79492 v 0.26563 l 0.265625,-0.002 -0.002,-0.26367 z m -0.265625,0.002 -0.265625,0.002 0.002,0.26562 0.265625,-0.002 z m -0.794922,0.004 0.002,0.26563 0.263672,-0.002 v -0.26367 z"
         id="path821"
         inkscape:connector-curvature="0" />
      <path
         style="fill:#000000;fill-opacity:1;fill-rule:evenodd;stroke:#000000;stroke-width:0.106pt;stroke-opacity:1"
         d="m 45.484172,271.82975 -0.527089,0.53289 1.852069,-0.54015 -1.857875,-0.51983 z"
         id="path7055"
         inkscape:connector-curvature="0" />
    </g>
    <g
       aria-label="source"
       style="font-style:normal;font-weight:normal;font-size:10.58333302px;line-height:1.25;font-family:sans-serif;letter-spacing:0px;word-spacing:0px;fill:#000000;fill-opacity:1;stroke:none;stroke-width:0.26458332"
       id="text841"
       transform="translate(0,14.287503)">
      <path
         d="m 3.3880368,278.22979 v 0.23978 q -0.107487,-0.0551 -0.2232422,-0.0827 -0.1157552,-0.0276 -0.2397786,-0.0276 -0.1887912,0 -0.2838759,0.0579 -0.093707,0.0579 -0.093707,0.17363 0,0.0882 0.067524,0.13918 0.067524,0.0496 0.2714735,0.0951 l 0.086816,0.0193 q 0.2700955,0.0579 0.3830946,0.16399 0.1143772,0.10473 0.1143772,0.29352 0,0.21497 -0.1708767,0.34037 -0.1694987,0.12541 -0.467155,0.12541 -0.1240234,0 -0.2590712,-0.0248 -0.1336697,-0.0234 -0.2824978,-0.0717 v -0.26182 q 0.1405599,0.073 0.2769857,0.11024 0.1364258,0.0358 0.2700955,0.0358 0.1791449,0 0.2756076,-0.0606 0.096463,-0.062 0.096463,-0.17363 0,-0.10335 -0.07028,-0.15847 -0.068902,-0.0551 -0.3045464,-0.10611 l -0.088194,-0.0207 q -0.2356446,-0.0496 -0.3403755,-0.15159 -0.1047309,-0.10335 -0.1047309,-0.2825 0,-0.21773 0.1543403,-0.33624 0.1543403,-0.11851 0.4382161,-0.11851 0.1405599,0 0.2645834,0.0207 0.1240234,0.0207 0.2287543,0.062 z"
         style="font-size:2.82222223px;stroke-width:0.26458332"
         id="path6947"
         inkscape:connector-curvature="0" />
      <path
         d="m 4.4725528,278.36209 q -0.2039496,0 -0.3224609,0.15985 -0.1185113,0.15847 -0.1185113,0.43546 0,0.27698 0.1171333,0.43684 0.1185113,0.15847 0.3238389,0.15847 0.2025717,0 0.3210829,-0.15985 0.1185113,-0.15985 0.1185113,-0.43546 0,-0.27423 -0.1185113,-0.43408 -0.1185112,-0.16123 -0.3210829,-0.16123 z m 0,-0.21498 q 0.3307292,0 0.5195204,0.21498 0.1887913,0.21497 0.1887913,0.59531 0,0.37896 -0.1887913,0.59531 -0.1887912,0.21498 -0.5195204,0.21498 -0.3321072,0 -0.5208984,-0.21498 -0.1874132,-0.21635 -0.1874132,-0.59531 0,-0.38034 0.1874132,-0.59531 0.1887912,-0.21498 0.5208984,-0.21498 z"
         style="font-size:2.82222223px;stroke-width:0.26458332"
         id="path6949"
         inkscape:connector-curvature="0" />
      <path
         d="m 5.5749835,279.11863 v -0.93431 h 0.253559 v 0.92466 q 0,0.21911 0.085438,0.32935 0.085438,0.10887 0.2563151,0.10887 0.2053277,0 0.323839,-0.13091 0.1198893,-0.13092 0.1198893,-0.35692 v -0.87505 h 0.253559 v 1.5434 h -0.253559 v -0.23702 q -0.092329,0.14056 -0.214974,0.20946 -0.1212673,0.0675 -0.2824978,0.0675 -0.2659614,0 -0.4037652,-0.16537 -0.1378038,-0.16536 -0.1378038,-0.48369 z m 0.6380317,-0.97152 z"
         style="font-size:2.82222223px;stroke-width:0.26458332"
         id="path6951"
         inkscape:connector-curvature="0" />
      <path
         d="m 8.2842064,278.42134 q -0.042719,-0.0248 -0.093707,-0.0358 -0.049609,-0.0124 -0.110243,-0.0124 -0.214974,0 -0.3307292,0.14056 -0.1143772,0.13918 -0.1143772,0.40101 v 0.81304 H 7.380213 v -1.5434 H 7.63515 v 0.23978 q 0.079926,-0.14056 0.2080838,-0.20809 0.1281576,-0.0689 0.3114366,-0.0689 0.026183,0 0.057878,0.004 0.031695,0.003 0.07028,0.01 z"
         style="font-size:2.82222223px;stroke-width:0.26458332"
         id="path6953"
         inkscape:connector-curvature="0" />
      <path
         d="m 9.5988551,278.24358 v 0.23702 q -0.107487,-0.0593 -0.216352,-0.0882 -0.107487,-0.0303 -0.2177301,-0.0303 -0.2466688,0 -0.3830946,0.15709 -0.1364258,0.15572 -0.1364258,0.43822 0,0.2825 0.1364258,0.43959 0.1364258,0.15572 0.3830946,0.15572 0.1102431,0 0.2177301,-0.0289 0.108865,-0.0303 0.216352,-0.0896 v 0.23427 q -0.106109,0.0496 -0.2204861,0.0744 -0.1129992,0.0248 -0.2411567,0.0248 -0.3486437,0 -0.5539714,-0.21911 -0.2053277,-0.21911 -0.2053277,-0.59118 0,-0.37758 0.2067058,-0.59394 0.2080837,-0.21635 0.5691297,-0.21635 0.1171333,0 0.2287544,0.0248 0.1116211,0.0234 0.216352,0.0717 z"
         style="font-size:2.82222223px;stroke-width:0.26458332"
         id="path6955"
         inkscape:connector-curvature="0" />
      <path
         d="m 11.359988,278.89263 v 0.12402 h -1.16582 q 0.01654,0.26183 0.157096,0.39964 0.141938,0.13642 0.394119,0.13642 0.146072,0 0.282498,-0.0358 0.137804,-0.0358 0.272851,-0.10748 v 0.23977 q -0.136426,0.0579 -0.279741,0.0882 -0.143316,0.0303 -0.290767,0.0303 -0.369314,0 -0.585666,-0.21498 -0.2149737,-0.21497 -0.2149737,-0.58153 0,-0.37896 0.2039497,-0.60083 0.205328,-0.22324 0.552593,-0.22324 0.311437,0 0.49196,0.2012 0.181901,0.19981 0.181901,0.54432 z m -0.253559,-0.0744 q -0.0028,-0.20809 -0.117133,-0.33211 -0.113,-0.12402 -0.300413,-0.12402 -0.212218,0 -0.340375,0.11989 -0.12678,0.11988 -0.146072,0.33761 z"
         style="font-size:2.82222223px;stroke-width:0.26458332"
         id="path6957"
         inkscape:connector-curvature="0" />
    </g>
    <g
       aria-label="z1_h"
       style="font-style:normal;font-weight:normal;font-size:10.5833px;line-height:1.25;font-family:sans-serif;letter-spacing:0px;word-spacing:0px;fill:#c20000;fill-opacity:1;stroke:none;stroke-width:0.264583"
       id="text845"
       transform="translate(-4.118294,14.1495)">
      <path
         d="m 11.789953,272.74838 h 1.204405 v 0.23151 l -0.953602,1.10932 h 0.953602 v 0.20257 h -1.238856 v -0.23151 l 0.953602,-1.10932 h -0.919151 z"
         style="font-size:2.82222px;fill:#c20000;fill-opacity:1;stroke-width:0.264583"
         id="path6960"
         inkscape:connector-curvature="0" />
      <path
         d="M 13.465647,274.05751 H 13.9204 v -1.56958 l -0.494716,0.0992 v -0.25356 l 0.49196,-0.0992 h 0.278363 v 1.82314 h 0.454753 v 0.23427 h -1.185113 z"
         style="font-size:2.82222px;fill:#c20000;fill-opacity:1;stroke-width:0.264583"
         id="path6962"
         inkscape:connector-curvature="0" />
      <path
         d="m 16.349881,274.76031 v 0.19706 h -1.466233 v -0.19706 z"
         style="font-size:2.82222px;fill:#c20000;fill-opacity:1;stroke-width:0.264583"
         id="path6964"
         inkscape:connector-curvature="0" />
      <path
         d="m 17.871235,273.36022 v 0.93156 h -0.253559 v -0.92329 q 0,-0.21911 -0.08544,-0.32797 -0.08544,-0.10887 -0.256315,-0.10887 -0.205328,0 -0.323839,0.13092 -0.118511,0.13091 -0.118511,0.35691 v 0.8723 h -0.254937 v -2.14423 h 0.254937 v 0.8406 q 0.09095,-0.13918 0.213596,-0.20808 0.124023,-0.0689 0.285253,-0.0689 0.265962,0 0.402388,0.16536 0.136425,0.16399 0.136425,0.48369 z"
         style="font-size:2.82222px;fill:#c20000;fill-opacity:1;stroke-width:0.264583"
         id="path6966"
         inkscape:connector-curvature="0" />
    </g>
    <g
       aria-label="sample"
       style="font-style:normal;font-weight:normal;font-size:10.58333302px;line-height:1.25;font-family:sans-serif;letter-spacing:0px;word-spacing:0px;fill:#000000;fill-opacity:1;stroke:none;stroke-width:0.26458332"
       id="text841-3"
       transform="translate(0,14.287503)">
      <path
         d="m 20.549924,278.36535 v 0.23978 q -0.107487,-0.0551 -0.223242,-0.0827 -0.115756,-0.0276 -0.239779,-0.0276 -0.188791,0 -0.283876,0.0579 -0.09371,0.0579 -0.09371,0.17363 0,0.0882 0.06752,0.13918 0.06752,0.0496 0.271474,0.0951 l 0.08682,0.0193 q 0.270096,0.0579 0.383095,0.16399 0.114377,0.10473 0.114377,0.29352 0,0.21497 -0.170877,0.34037 -0.169498,0.1254 -0.467155,0.1254 -0.124023,0 -0.259071,-0.0248 -0.13367,-0.0234 -0.282498,-0.0717 v -0.26183 q 0.14056,0.073 0.276986,0.11025 0.136426,0.0358 0.270096,0.0358 0.179144,0 0.275607,-0.0606 0.09646,-0.062 0.09646,-0.17363 0,-0.10335 -0.07028,-0.15847 -0.0689,-0.0551 -0.304547,-0.10611 l -0.08819,-0.0207 q -0.235645,-0.0496 -0.340375,-0.15159 -0.104731,-0.10335 -0.104731,-0.2825 0,-0.21773 0.15434,-0.33624 0.15434,-0.11851 0.438216,-0.11851 0.14056,0 0.264583,0.0207 0.124024,0.0207 0.228755,0.062 z"
         style="font-size:2.82222223px;stroke-width:0.26458332"
         id="path6969"
         inkscape:connector-curvature="0" />
      <path
         d="m 21.737793,279.08745 q -0.307303,0 -0.425814,0.0703 -0.118511,0.0703 -0.118511,0.23977 0,0.13505 0.08819,0.21498 0.08957,0.0786 0.242535,0.0786 0.21084,0 0.337619,-0.14883 0.128158,-0.15021 0.128158,-0.39825 v -0.0565 z m 0.50574,-0.10474 v 0.88057 h -0.253559 v -0.23427 q -0.08682,0.14056 -0.216352,0.20809 -0.129536,0.0661 -0.316949,0.0661 -0.237023,0 -0.377583,-0.13229 -0.139181,-0.13367 -0.139181,-0.35691 0,-0.26045 0.173632,-0.39274 0.175011,-0.13229 0.520899,-0.13229 h 0.355534 v -0.0248 q 0,-0.17501 -0.115756,-0.27009 -0.114377,-0.0965 -0.322461,-0.0965 -0.132291,0 -0.257693,0.0317 -0.125401,0.0317 -0.241156,0.0951 v -0.23426 q 0.139182,-0.0537 0.270095,-0.0799 0.130914,-0.0276 0.254937,-0.0276 0.334863,0 0.500228,0.17363 0.165365,0.17364 0.165365,0.52641 z"
         style="font-size:2.82222223px;stroke-width:0.26458332"
         id="path6971"
         inkscape:connector-curvature="0" />
      <path
         d="m 23.967459,278.61616 q 0.09508,-0.17088 0.227376,-0.25218 0.132292,-0.0813 0.311437,-0.0813 0.241156,0 0.37207,0.1695 0.130913,0.16812 0.130913,0.47956 v 0.93155 H 24.754318 V 278.94 q 0,-0.22187 -0.07855,-0.32936 -0.07855,-0.10748 -0.239778,-0.10748 -0.19706,0 -0.311437,0.13091 -0.114377,0.13091 -0.114377,0.35691 v 0.8723 H 23.755241 V 278.94 q 0,-0.22325 -0.07855,-0.32936 -0.07855,-0.10748 -0.242535,-0.10748 -0.194304,0 -0.308681,0.13229 -0.114377,0.13091 -0.114377,0.35553 v 0.8723 h -0.254937 v -1.5434 H 23.0111 v 0.23978 q 0.08682,-0.14194 0.208084,-0.20946 0.121267,-0.0675 0.28801,-0.0675 0.16812,0 0.285254,0.0854 0.118511,0.0854 0.175011,0.24805 z"
         style="font-size:2.82222223px;stroke-width:0.26458332"
         id="path6973"
         inkscape:connector-curvature="0" />
      <path
         d="m 25.760286,279.63177 v 0.81856 h -0.254937 v -2.13045 h 0.254937 v 0.23426 q 0.07993,-0.1378 0.201194,-0.20394 0.122645,-0.0675 0.292144,-0.0675 0.28112,0 0.45613,0.22324 0.176389,0.22325 0.176389,0.58705 0,0.3638 -0.176389,0.58704 -0.17501,0.22324 -0.45613,0.22324 -0.169499,0 -0.292144,-0.0661 -0.121268,-0.0675 -0.201194,-0.20533 z m 0.862652,-0.53881 q 0,-0.27974 -0.115755,-0.43822 -0.114377,-0.15985 -0.315571,-0.15985 -0.201194,0 -0.316949,0.15985 -0.114377,0.15848 -0.114377,0.43822 0,0.27974 0.114377,0.43959 0.115755,0.15848 0.316949,0.15848 0.201194,0 0.315571,-0.15848 0.115755,-0.15985 0.115755,-0.43959 z"
         style="font-size:2.82222223px;stroke-width:0.26458332"
         id="path6975"
         inkscape:connector-curvature="0" />
      <path
         d="m 27.306445,277.71905 h 0.253559 v 2.14423 h -0.253559 z"
         style="font-size:2.82222223px;stroke-width:0.26458332"
         id="path6977"
         inkscape:connector-curvature="0" />
      <path
         d="m 29.41071,279.02819 v 0.12402 h -1.165821 q 0.01654,0.26183 0.157097,0.39963 0.141938,0.13643 0.394119,0.13643 0.146072,0 0.282498,-0.0358 0.137803,-0.0358 0.272851,-0.10749 v 0.23978 q -0.136426,0.0579 -0.279742,0.0882 -0.143316,0.0303 -0.290766,0.0303 -0.369314,0 -0.585666,-0.21497 -0.214974,-0.21497 -0.214974,-0.58153 0,-0.37896 0.20395,-0.60083 0.205327,-0.22324 0.552593,-0.22324 0.311437,0 0.49196,0.2012 0.181901,0.19981 0.181901,0.54432 z m -0.253559,-0.0744 q -0.0028,-0.20809 -0.117133,-0.33211 -0.113,-0.12402 -0.300413,-0.12402 -0.212218,0 -0.340375,0.11988 -0.12678,0.11989 -0.146072,0.33762 z"
         style="font-size:2.82222223px;stroke-width:0.26458332"
         id="path6979"
         inkscape:connector-curvature="0" />
    </g>
    <g
       aria-label="detector"
       style="font-style:normal;font-weight:normal;font-size:10.58333302px;line-height:1.25;font-family:sans-serif;letter-spacing:0px;word-spacing:0px;fill:#000000;fill-opacity:1;stroke:none;stroke-width:0.26458332"
       id="text841-3-7"
       transform="translate(0,14.287503)">
      <path
         d="m 40.7982,278.56284 v -0.83509 h 0.253559 v 2.14423 H 40.7982 v -0.23151 q -0.07993,0.1378 -0.202572,0.20533 -0.121267,0.0661 -0.292144,0.0661 -0.279741,0 -0.45613,-0.22324 -0.175011,-0.22324 -0.175011,-0.58704 0,-0.36381 0.175011,-0.58705 0.176389,-0.22324 0.45613,-0.22324 0.170877,0 0.292144,0.0675 0.122646,0.0662 0.202572,0.20395 z m -0.86403,0.53882 q 0,0.27974 0.114377,0.43959 0.115755,0.15847 0.316949,0.15847 0.201194,0 0.316949,-0.15847 0.115755,-0.15985 0.115755,-0.43959 0,-0.27975 -0.115755,-0.43822 -0.115755,-0.15985 -0.316949,-0.15985 -0.201194,0 -0.316949,0.15985 -0.114377,0.15847 -0.114377,0.43822 z"
         style="font-size:2.82222223px;stroke-width:0.26458332"
         id="path6982"
         inkscape:connector-curvature="0" />
      <path
         d="m 42.894196,279.03689 v 0.12402 h -1.16582 q 0.01654,0.26183 0.157096,0.39963 0.141938,0.13643 0.394119,0.13643 0.146072,0 0.282498,-0.0358 0.137804,-0.0358 0.272851,-0.10749 v 0.23978 q -0.136425,0.0579 -0.279741,0.0882 -0.143316,0.0303 -0.290766,0.0303 -0.369315,0 -0.585667,-0.21497 -0.214974,-0.21498 -0.214974,-0.58153 0,-0.37896 0.20395,-0.60083 0.205328,-0.22324 0.552593,-0.22324 0.311437,0 0.49196,0.20119 0.181901,0.19982 0.181901,0.54433 z m -0.253559,-0.0744 q -0.0028,-0.20808 -0.117133,-0.3321 -0.112999,-0.12403 -0.300413,-0.12403 -0.212217,0 -0.340375,0.11989 -0.126779,0.11989 -0.146072,0.33762 z"
         style="font-size:2.82222223px;stroke-width:0.26458332"
         id="path6984"
         inkscape:connector-curvature="0" />
      <path
         d="m 43.561166,277.89036 v 0.43822 h 0.522277 v 0.19706 h -0.522277 v 0.83784 q 0,0.18879 0.05099,0.24254 0.05237,0.0537 0.21084,0.0537 h 0.260449 v 0.21222 h -0.260449 q -0.293522,0 -0.405144,-0.10887 -0.111621,-0.11024 -0.111621,-0.39963 v -0.83784 h -0.186035 v -0.19706 h 0.186035 v -0.43822 z"
         style="font-size:2.82222223px;stroke-width:0.26458332"
         id="path6986"
         inkscape:connector-curvature="0" />
      <path
         d="m 45.737089,279.03689 v 0.12402 h -1.165821 q 0.01654,0.26183 0.157097,0.39963 0.141938,0.13643 0.394119,0.13643 0.146072,0 0.282497,-0.0358 0.137804,-0.0358 0.272852,-0.10749 v 0.23978 q -0.136426,0.0579 -0.279742,0.0882 -0.143316,0.0303 -0.290766,0.0303 -0.369314,0 -0.585666,-0.21497 -0.214974,-0.21498 -0.214974,-0.58153 0,-0.37896 0.20395,-0.60083 0.205327,-0.22324 0.552593,-0.22324 0.311437,0 0.49196,0.20119 0.181901,0.19982 0.181901,0.54433 z m -0.253559,-0.0744 q -0.0028,-0.20808 -0.117134,-0.3321 -0.112999,-0.12403 -0.300412,-0.12403 -0.212218,0 -0.340375,0.11989 -0.12678,0.11989 -0.146072,0.33762 z"
         style="font-size:2.82222223px;stroke-width:0.26458332"
         id="path6988"
         inkscape:connector-curvature="0" />
      <path
         d="m 47.263955,278.38783 v 0.23702 q -0.107487,-0.0592 -0.216352,-0.0882 -0.107487,-0.0303 -0.21773,-0.0303 -0.246669,0 -0.383095,0.1571 -0.136426,0.15572 -0.136426,0.43822 0,0.28249 0.136426,0.43959 0.136426,0.15572 0.383095,0.15572 0.110243,0 0.21773,-0.0289 0.108865,-0.0303 0.216352,-0.0896 v 0.23426 q -0.106109,0.0496 -0.220486,0.0744 -0.112999,0.0248 -0.241157,0.0248 -0.348644,0 -0.553971,-0.21911 -0.205328,-0.2191 -0.205328,-0.59117 0,-0.37759 0.206706,-0.59394 0.208084,-0.21635 0.56913,-0.21635 0.117133,0 0.228754,0.0248 0.111621,0.0234 0.216352,0.0717 z"
         style="font-size:2.82222223px;stroke-width:0.26458332"
         id="path6990"
         inkscape:connector-curvature="0" />
      <path
         d="m 47.95573,277.89036 v 0.43822 h 0.522277 v 0.19706 H 47.95573 v 0.83784 q 0,0.18879 0.05099,0.24254 0.05237,0.0537 0.210839,0.0537 h 0.26045 v 0.21222 h -0.26045 q -0.293522,0 -0.405143,-0.10887 -0.111621,-0.11024 -0.111621,-0.39963 V 278.5256 H 47.51476 v -0.19706 h 0.186035 v -0.43822 z"
         style="font-size:2.82222223px;stroke-width:0.26458332"
         id="path6992"
         inkscape:connector-curvature="0" />
      <path
         d="m 49.40956,278.50634 q -0.203949,0 -0.322461,0.15986 -0.118511,0.15847 -0.118511,0.43546 0,0.27698 0.117133,0.43683 0.118512,0.15848 0.323839,0.15848 0.202572,0 0.321083,-0.15985 0.118511,-0.15986 0.118511,-0.43546 0,-0.27423 -0.118511,-0.43409 -0.118511,-0.16123 -0.321083,-0.16123 z m 0,-0.21497 q 0.330729,0 0.519521,0.21497 0.188791,0.21498 0.188791,0.59532 0,0.37896 -0.188791,0.59531 -0.188792,0.21497 -0.519521,0.21497 -0.332107,0 -0.520898,-0.21497 -0.187413,-0.21635 -0.187413,-0.59531 0,-0.38034 0.187413,-0.59532 0.188791,-0.21497 0.520898,-0.21497 z"
         style="font-size:2.82222223px;stroke-width:0.26458332"
         id="path6994"
         inkscape:connector-curvature="0" />
      <path
         d="m 51.432521,278.5656 q -0.04272,-0.0248 -0.09371,-0.0358 -0.04961,-0.0124 -0.110244,-0.0124 -0.214973,0 -0.330729,0.14056 -0.114377,0.13918 -0.114377,0.40101 v 0.81304 h -0.254937 v -1.5434 h 0.254937 v 0.23977 q 0.07993,-0.14056 0.208084,-0.20808 0.128157,-0.0689 0.311437,-0.0689 0.02618,0 0.05788,0.004 0.03169,0.003 0.07028,0.01 z"
         style="font-size:2.82222223px;stroke-width:0.26458332"
         id="path6996"
         inkscape:connector-curvature="0" />
    </g>
    <path
       style="color:#000000;font-style:normal;font-variant:normal;font-weight:normal;font-stretch:normal;font-size:medium;line-height:normal;font-family:sans-serif;font-variant-ligatures:normal;font-variant-position:normal;font-variant-caps:normal;font-variant-numeric:normal;font-variant-alternates:normal;font-feature-settings:normal;text-indent:0;text-align:start;text-decoration:none;text-decoration-line:none;text-decoration-style:solid;text-decoration-color:#000000;letter-spacing:normal;word-spacing:normal;text-transform:none;writing-mode:lr-tb;direction:ltr;text-orientation:mixed;dominant-baseline:auto;baseline-shift:baseline;text-anchor:start;white-space:normal;shape-padding:0;clip-rule:nonzero;display:inline;overflow:visible;visibility:visible;opacity:1;isolation:auto;mix-blend-mode:normal;color-interpolation:sRGB;color-interpolation-filters:linearRGB;solid-color:#000000;solid-opacity:1;vector-effect:none;fill:#000000;fill-opacity:1;fill-rule:nonzero;stroke:none;stroke-width:0.26458332px;stroke-linecap:butt;stroke-linejoin:miter;stroke-miterlimit:4;stroke-dasharray:none;stroke-dashoffset:0;stroke-opacity:1;color-rendering:auto;image-rendering:auto;shape-rendering:auto;text-rendering:auto;enable-background:accumulate"
       d="m 49.222656,276.08251 -5.085937,3.24219 0.002,0.0742 0.335937,12.79297 4.699219,-2.79883 z m -0.265625,0.48438 -0.04687,12.67578 -4.18164,2.49023 -0.324219,-12.26367 z"
       id="path902"
       inkscape:connector-curvature="0" />
    <g
       aria-label="z2"
       style="font-style:normal;font-weight:normal;font-size:10.58333302px;line-height:1.25;font-family:sans-serif;letter-spacing:0px;word-spacing:0px;fill:#c20000;fill-opacity:1;stroke:none;stroke-width:0.26458332"
       id="text845-3"
       transform="translate(0,14.287503)">
      <path
         d="m 34.015571,273.09257 h 1.505506 v 0.28938 l -1.192003,1.38666 h 1.192003 v 0.25321 h -1.54857 v -0.28939 l 1.192003,-1.38665 h -1.148939 z"
         style="font-size:3.52777767px;fill:#c20000;fill-opacity:1;stroke-width:0.26458332"
         id="path6999"
         inkscape:connector-curvature="0" />
      <path
         d="m 36.349623,274.72899 h 1.214396 v 0.29283 h -1.632975 v -0.29283 q 0.198093,-0.20499 0.539157,-0.5495 0.342787,-0.34623 0.430637,-0.44614 0.167087,-0.18775 0.232544,-0.31694 0.06718,-0.13092 0.06718,-0.25666 0,-0.20499 -0.144694,-0.33418 -0.142971,-0.12919 -0.373792,-0.12919 -0.163642,0 -0.346232,0.0568 -0.180868,0.0568 -0.387574,0.17226 v -0.3514 q 0.210151,-0.0844 0.392741,-0.12747 0.18259,-0.0431 0.334174,-0.0431 0.399631,0 0.637343,0.19981 0.237712,0.19982 0.237712,0.53399 0,0.15848 -0.06029,0.30145 -0.05857,0.14125 -0.215318,0.33417 -0.04306,0.05 -0.273885,0.28939 -0.230821,0.23771 -0.651123,0.66663 z"
         style="font-size:3.52777767px;fill:#c20000;fill-opacity:1;stroke-width:0.26458332"
         id="path7001"
         inkscape:connector-curvature="0" />
    </g>
    <g
       aria-label="z2_h"
       transform="rotate(0.14442311,-7482.3839,-3692.9939)"
       style="font-style:normal;font-weight:normal;font-size:10.5833px;line-height:1.25;font-family:sans-serif;letter-spacing:0px;word-spacing:0px;fill:#c20000;fill-opacity:1;stroke:none;stroke-width:0.264583"
       id="text845-1">
      <path
         d="m 25.261291,268.26325 h 0.903304 v 0.17364 l -0.715201,0.83199 h 0.715201 v 0.15193 h -0.929142 v -0.17364 l 0.715202,-0.83199 h -0.689364 z"
         style="font-size:2.11667px;fill:#c20000;fill-opacity:1;stroke-width:0.264583"
         id="path7004"
         inkscape:connector-curvature="0" />
      <path
         d="M 28.681237,269.77221 V 269.92 h -1.099674 v -0.14779 z"
         style="font-size:2.11667px;fill:#c20000;fill-opacity:1;stroke-width:0.264583"
         id="path7008"
         inkscape:connector-curvature="0" />
      <text
         xml:space="preserve"
         style="font-style:normal;font-weight:normal;font-size:10.5833px;line-height:1.25;font-family:sans-serif;letter-spacing:0px;word-spacing:0px;fill:#c20000;fill-opacity:1;stroke:none;stroke-width:0.0700043"
         x="25.452368"
         y="269.54578"
         id="text896"
         transform="rotate(-0.14442311)"><tspan
           sodipodi:role="line"
           id="tspan894"
           x="25.452368"
           y="269.54578"
           style="font-size:2.46944px;fill:#c20000;fill-opacity:1;stroke-width:0.0700043">1</tspan></text>
      <text
         xml:space="preserve"
         style="font-style:normal;font-weight:normal;font-size:10.5833px;line-height:1.25;font-family:sans-serif;letter-spacing:0px;word-spacing:0px;fill:#c20000;fill-opacity:1;stroke:none;stroke-width:0.0700043"
         x="27.967733"
         y="269.59308"
         id="text900"
         transform="rotate(-0.14442311)"><tspan
           sodipodi:role="line"
           id="tspan898"
           x="27.967733"
           y="269.59308"
           style="font-size:2.46944px;fill:#c20000;fill-opacity:1;stroke-width:0.0700043">v</tspan></text>
    </g>
    <path
       style="color:#000000;font-style:normal;font-variant:normal;font-weight:normal;font-stretch:normal;font-size:medium;line-height:normal;font-family:sans-serif;font-variant-ligatures:normal;font-variant-position:normal;font-variant-caps:normal;font-variant-numeric:normal;font-variant-alternates:normal;font-feature-settings:normal;text-indent:0;text-align:start;text-decoration:none;text-decoration-line:none;text-decoration-style:solid;text-decoration-color:#000000;letter-spacing:normal;word-spacing:normal;text-transform:none;writing-mode:lr-tb;direction:ltr;text-orientation:mixed;dominant-baseline:auto;baseline-shift:baseline;text-anchor:start;white-space:normal;shape-padding:0;clip-rule:nonzero;display:inline;overflow:visible;visibility:visible;opacity:0.722;isolation:auto;mix-blend-mode:normal;color-interpolation:sRGB;color-interpolation-filters:linearRGB;solid-color:#000000;solid-opacity:1;vector-effect:none;fill:#d3e01c;fill-opacity:1;fill-rule:nonzero;stroke:none;stroke-width:0.2;stroke-linecap:butt;stroke-linejoin:miter;stroke-miterlimit:4;stroke-dasharray:none;stroke-dashoffset:0;stroke-opacity:1;color-rendering:auto;image-rendering:auto;shape-rendering:auto;text-rendering:auto;enable-background:accumulate"
       d="m 46.638672,285.19579 -41.5371095,0.0996 0.00195,0.20117 41.5351565,-0.10156 z"
       id="path5601"
       inkscape:connector-curvature="0" />
    <text
       xml:space="preserve"
       style="font-style:normal;font-variant:normal;font-weight:normal;font-stretch:normal;font-size:5.15364px;line-height:1.25;font-family:sans-serif;-inkscape-font-specification:sans-serif;letter-spacing:0px;word-spacing:0px;fill:#000000;fill-opacity:1;stroke:none;stroke-width:0.128841"
       x="12.465504"
       y="316.67355"
       id="text962"
       transform="scale(1.095049,0.91320115)"><tspan
         sodipodi:role="line"
         id="tspan960"
         x="12.465504"
         y="316.67355"
         style="stroke-width:0.128841">/</tspan></text>
  </g>
</svg>
