<svg width="36.7cm" height="21cm" viewBox="0 0 367 210" xmlns="http://www.w3.org/2000/svg">
  <rect x="0" y="0" width="367" height="210" fill="#e0e0e0"/>
  <rect x="1" y="3" width="28" height="17" fill="#704214"/>
  <rect x="1" y="22" width="28" height="17" fill="#ab4e52"/>
  <rect x="1" y="41" width="28" height="17" fill="#000000"/>
  <rect x="1" y="59" width="28" height="17" fill="#cc7722"/>
  <rect x="1" y="78" width="28" height="17" fill="#00a550"/>
  <rect x="1" y="97" width="28" height="17" fill="#003153"/>
  <rect x="31" y="3" width="28" height="17" fill="#228b22"/>
  <rect x="31" y="22" width="28" height="17" fill="#120a8f"/>
  <rect x="31" y="41" width="28" height="17" fill="#960018"/>
  <rect x="31" y="59" width="28" height="17" fill="#fff44f"/>
  <rect x="31" y="78" width="28" height="17" fill="#e3a857"/>
  <rect x="31" y="97" width="28" height="17" fill="#e30022"/>
  <rect id="water" x="1" y="116" width="58" height="58" fill="#aaddff"/>
  <rect id="paper" x="70" y="0" width="297" height="210" fill="#ffffff" stroke="#000000" stroke-width="0.5"/>
</svg>
