<?xml version="1.0" encoding="UTF-8" standalone="no"?>
<!-- Created with Inkscape (http://www.inkscape.org/) -->

<svg
   xmlns:dc="http://purl.org/dc/elements/1.1/"
   xmlns:cc="http://creativecommons.org/ns#"
   xmlns:rdf="http://www.w3.org/1999/02/22-rdf-syntax-ns#"
   xmlns:svg="http://www.w3.org/2000/svg"
   xmlns="http://www.w3.org/2000/svg"
   xmlns:sodipodi="http://sodipodi.sourceforge.net/DTD/sodipodi-0.dtd"
   xmlns:inkscape="http://www.inkscape.org/namespaces/inkscape"
   width="48"
   height="48"
   viewBox="0 0 12.7 12.7"
   version="1.1"
   id="svg8"
   inkscape:version="0.92.5 (2060ec1f9f, 2020-04-08)"
   sodipodi:docname="background.svg"
   inkscape:export-filename="/media/payno/830add5c-f5d7-4db2-875e-03be4f0a67f0/dev/tomography/tomwer/tomwer/resources/gui/icons/background.png"
   inkscape:export-xdpi="271.67999"
   inkscape:export-ydpi="271.67999">
  <defs
     id="defs2" />
  <sodipodi:namedview
     id="base"
     pagecolor="#ffffff"
     bordercolor="#666666"
     borderopacity="1.0"
     inkscape:pageopacity="0.0"
     inkscape:pageshadow="2"
     inkscape:zoom="0.70000001"
     inkscape:cx="-223.92298"
     inkscape:cy="9.8035223"
     inkscape:document-units="mm"
     inkscape:current-layer="layer1"
     showgrid="false"
     units="px"
     inkscape:window-width="1848"
     inkscape:window-height="1136"
     inkscape:window-x="72"
     inkscape:window-y="27"
     inkscape:window-maximized="1" />
  <metadata
     id="metadata5">
    <rdf:RDF>
      <cc:Work
         rdf:about="">
        <dc:format>image/svg+xml</dc:format>
        <dc:type
           rdf:resource="http://purl.org/dc/dcmitype/StillImage" />
        <dc:title />
      </cc:Work>
    </rdf:RDF>
  </metadata>
  <g
     inkscape:label="Layer 1"
     inkscape:groupmode="layer"
     id="layer1"
     transform="translate(0,-284.3)">
    <rect
       style="opacity:1;fill:none;fill-opacity:1;fill-rule:evenodd;stroke:#000000;stroke-width:0.3;stroke-linecap:butt;stroke-linejoin:round;stroke-miterlimit:4;stroke-dasharray:none;stroke-dashoffset:0;stroke-opacity:1;paint-order:normal"
       id="rect815"
       width="11.325546"
       height="11.091685"
       x="0.73499119"
       y="285.13992" />
    <path
       style="fill:none;stroke:#000000;stroke-width:0.5;stroke-linecap:butt;stroke-linejoin:miter;stroke-miterlimit:4;stroke-dasharray:none;stroke-opacity:1"
       d="M 0.73499119,285.13992 12.060537,296.2316"
       id="path817"
       inkscape:connector-curvature="0"
       sodipodi:nodetypes="cc" />
    <path
       style="fill:#3cb30f;stroke:#000000;stroke-width:0.4;stroke-linecap:butt;stroke-linejoin:miter;stroke-opacity:1;stroke-miterlimit:4;stroke-dasharray:none;fill-opacity:1"
       d="M 0.73499119,296.2316 6.3810599,290.73587"
       id="path819"
       inkscape:connector-curvature="0" />
    <path
       style="fill:#3cb30f;stroke:#000000;stroke-width:0.40000001;stroke-linecap:butt;stroke-linejoin:miter;stroke-miterlimit:4;stroke-dasharray:none;stroke-opacity:1;fill-opacity:1"
       d="M 3.4243907,296.2316 7.834338,291.93858"
       id="path821"
       inkscape:connector-curvature="0"
       sodipodi:nodetypes="cc" />
    <path
       style="fill:none;stroke:#000000;stroke-width:0.37988845;stroke-linecap:butt;stroke-linejoin:miter;stroke-miterlimit:4;stroke-dasharray:none;stroke-opacity:1"
       d="M 9.0439091,293.11723 5.856367,296.22228"
       id="path823"
       inkscape:connector-curvature="0"
       sodipodi:nodetypes="cc" />
    <path
       style="fill:none;stroke:#000000;stroke-width:0.40000001;stroke-linecap:butt;stroke-linejoin:miter;stroke-miterlimit:4;stroke-dasharray:none;stroke-opacity:1"
       d="m 10.350962,294.1957 -1.9878168,2.00452"
       id="path825"
       inkscape:connector-curvature="0"
       sodipodi:nodetypes="cc" />
    <path
       style="fill:#3cb30f;stroke:#000000;stroke-width:0.40000001;stroke-linecap:butt;stroke-linejoin:miter;stroke-miterlimit:4;stroke-dasharray:none;stroke-opacity:1;fill-opacity:1"
       d="M 0.71828688,293.83453 5.2451644,289.5081"
       id="path821-3"
       inkscape:connector-curvature="0"
       sodipodi:nodetypes="cc" />
    <path
       style="fill:#3cb30f;stroke:#000000;stroke-width:0.40000001;stroke-linecap:butt;stroke-linejoin:miter;stroke-miterlimit:4;stroke-dasharray:none;stroke-opacity:1;fill-opacity:1"
       d="m 4.1593821,288.1634 -3.44109533,3.14042"
       id="path823-6"
       inkscape:connector-curvature="0"
       sodipodi:nodetypes="cc" />
    <path
       style="fill:#3cb30f;stroke:#000000;stroke-width:0.40000001;stroke-linecap:butt;stroke-linejoin:miter;stroke-miterlimit:4;stroke-dasharray:none;stroke-opacity:1;fill-opacity:1"
       d="m 2.9824632,287.00917 -2.24341871,2.10691"
       id="path825-7"
       inkscape:connector-curvature="0"
       sodipodi:nodetypes="cc" />
    <path
       style="opacity:1;fill:none;fill-opacity:1;fill-rule:evenodd;stroke:#000000;stroke-width:0.26834646;stroke-linecap:butt;stroke-linejoin:round;stroke-miterlimit:4;stroke-dasharray:none;stroke-dashoffset:0;stroke-opacity:1;paint-order:normal"
       d="m 28.872348,39.660325 4.813096,-4.721195 1.636344,1.561023 c 0.899989,0.858562 1.647043,1.642266 1.660118,1.741564 0.01308,0.0993 -1.32307,1.525637 -2.969212,3.169643 l -2.992986,2.989101 -3.480228,-0.0095 -3.480229,-0.0095 z"
       id="path831"
       inkscape:connector-curvature="0"
       transform="matrix(0.26458333,0,0,0.26458333,0,284.3)" />
    <path
       style="opacity:0.58;fill:#3cb30f;fill-opacity:1;fill-rule:evenodd;stroke:#000000;stroke-width:0.0239595;stroke-linecap:butt;stroke-linejoin:round;stroke-miterlimit:4;stroke-dasharray:none;stroke-dashoffset:0;stroke-opacity:1;paint-order:normal"
       d="M 3.4161826,10.835619 V 5.1918222 l 2.9464286,2.8789339 c 1.6205357,1.5834135 2.9464285,2.8868459 2.9464285,2.8965169 0,0.02508 -5.1552107,4.865466 -5.5580357,5.218614 l -0.3348214,0.293529 z"
       id="path833"
       inkscape:connector-curvature="0"
       transform="matrix(0.26458333,0,0,0.26458333,0,284.3)" />
    <path
       style="opacity:0.57999998;fill:#3cb30f;fill-opacity:1;fill-rule:evenodd;stroke:#000000;stroke-width:0.0239595;stroke-linecap:butt;stroke-linejoin:round;stroke-miterlimit:4;stroke-dasharray:none;stroke-dashoffset:0;stroke-opacity:1;paint-order:normal"
       d="m 3.4161826,21.701826 v -2.982251 l 3.4801646,-3.272186 c 1.9140906,-1.799702 3.5226478,-3.272185 3.5745718,-3.272185 0.108026,0 3.213121,3.02596 3.213121,3.131232 0,0.06916 -9.927643,9.171532 -10.1499995,9.30624 -0.096693,0.05858 -0.1178579,-0.464155 -0.1178579,-2.91085 z"
       id="path835"
       inkscape:connector-curvature="0"
       transform="matrix(0.26458333,0,0,0.26458333,0,284.3)" />
    <path
       style="opacity:0.57999998;fill:#3cb30f;fill-opacity:1;fill-rule:evenodd;stroke:#000000;stroke-width:0.0239595;stroke-linecap:butt;stroke-linejoin:round;stroke-miterlimit:4;stroke-dasharray:none;stroke-dashoffset:0;stroke-opacity:1;paint-order:normal"
       d="M 3.4161826,30.585887 V 26.91754 l 5.7262851,-5.22631 5.7262853,-5.22631 0.322822,0.259786 c 0.177552,0.142883 0.978124,0.918267 1.779049,1.723076 l 1.456227,1.46329 -6.723682,6.422244 c -3.6980257,3.532235 -7.075426,6.759447 -7.5053345,7.171581 l -0.7816519,0.749337 z"
       id="path837"
       inkscape:connector-curvature="0"
       transform="matrix(0.26458333,0,0,0.26458333,0,284.3)" />
    <path
       style="opacity:0.57999998;fill:#3cb30f;fill-opacity:1;fill-rule:evenodd;stroke:#000000;stroke-width:0.0239595;stroke-linecap:butt;stroke-linejoin:round;stroke-miterlimit:4;stroke-dasharray:none;stroke-dashoffset:0;stroke-opacity:1;paint-order:normal"
       d="M 3.4161826,39.926966 V 36.47568 l 8.0949724,-7.737435 8.094972,-7.737435 1.664623,1.662892 1.664623,1.662893 -1.70156,1.676838 c -0.935857,0.92226 -4.75513,4.643152 -8.487273,8.268648 -3.7321431,3.625496 -7.3582592,7.157542 -8.058036,7.84899 l -1.2723214,1.25718 z"
       id="path839"
       inkscape:connector-curvature="0"
       transform="matrix(0.26458333,0,0,0.26458333,0,284.3)" />
    <path
       style="opacity:0.57999998;fill:#b3320f;fill-opacity:1;fill-rule:evenodd;stroke:#000000;stroke-width:0.03388386;stroke-linecap:butt;stroke-linejoin:round;stroke-miterlimit:4;stroke-dasharray:none;stroke-dashoffset:0;stroke-opacity:1;paint-order:normal"
       d="m 6.0906468,43.025883 c 0.8330215,-0.827429 5.2339452,-5.119171 9.7798312,-9.537205 l 8.265247,-8.032789 1.931058,1.928044 1.931058,1.928043 -0.66299,0.645841 c -0.364644,0.355213 -3.88296,3.779336 -7.818478,7.609162 l -7.155487,6.96332 H 8.4684743 4.5760622 Z"
       id="path857"
       inkscape:connector-curvature="0"
       transform="matrix(0.26458333,0,0,0.26458333,0,284.3)" />
    <path
       style="opacity:0.57999998;fill:#b3320f;fill-opacity:1;fill-rule:evenodd;stroke:#000000;stroke-width:0.03388386;stroke-linecap:butt;stroke-linejoin:round;stroke-miterlimit:4;stroke-dasharray:none;stroke-dashoffset:0;stroke-opacity:1;paint-order:normal"
       d="m 15.703226,43.545532 c 0.564809,-0.534822 3.794141,-3.671405 7.176292,-6.970184 3.382151,-3.298779 6.199161,-6.015957 6.260021,-6.038174 0.13177,-0.0481 3.426181,3.137832 3.375616,3.264463 -0.0192,0.04809 -2.489695,2.481718 -5.489979,5.408053 l -5.455062,5.320609 -3.446908,-0.0062 -3.446907,-0.0062 z"
       id="path859"
       inkscape:connector-curvature="0"
       transform="matrix(0.26458333,0,0,0.26458333,0,284.3)" />
    <path
       style="opacity:0.57999998;fill:#b3320f;fill-opacity:1;fill-rule:evenodd;stroke:#000000;stroke-width:0.03388386;stroke-linecap:butt;stroke-linejoin:round;stroke-miterlimit:4;stroke-dasharray:none;stroke-dashoffset:0;stroke-opacity:1;paint-order:normal"
       d="m 28.106324,40.70594 c 1.919517,-1.895053 3.958247,-3.893102 4.530511,-4.440108 l 1.040481,-0.994557 0.285344,0.236334 c 0.610706,0.505811 2.747591,2.647398 2.747591,2.753637 0,0.06175 -1.288946,1.412316 -2.864325,3.001259 L 30.9816,44.151492 h -3.182653 -3.182653 z"
       id="path861"
       inkscape:connector-curvature="0"
       transform="matrix(0.26458333,0,0,0.26458333,0,284.3)" />
    <path
       style="opacity:0.57999998;fill:#b3320f;fill-opacity:1;fill-rule:evenodd;stroke:#000000;stroke-width:0.03388386;stroke-linecap:butt;stroke-linejoin:round;stroke-miterlimit:4;stroke-dasharray:none;stroke-dashoffset:0;stroke-opacity:1;paint-order:normal"
       d="m 35.743928,41.999136 c 1.358335,-1.39214 2.490968,-2.542767 2.516964,-2.556949 0.026,-0.01418 1.235355,1.124842 2.687466,2.531164 l 2.640202,2.556948 h -5.157165 -5.157166 z"
       id="path863"
       inkscape:connector-curvature="0"
       transform="matrix(0.26458333,0,0,0.26458333,0,284.3)"
       inkscape:export-xdpi="271.67999"
       inkscape:export-ydpi="271.67999" />
  </g>
</svg>
