<?xml version="1.0" encoding="UTF-8" standalone="no"?>
<!-- Created with Inkscape (http://www.inkscape.org/) -->

<svg
   xmlns:dc="http://purl.org/dc/elements/1.1/"
   xmlns:cc="http://creativecommons.org/ns#"
   xmlns:rdf="http://www.w3.org/1999/02/22-rdf-syntax-ns#"
   xmlns:svg="http://www.w3.org/2000/svg"
   xmlns="http://www.w3.org/2000/svg"
   xmlns:sodipodi="http://sodipodi.sourceforge.net/DTD/sodipodi-0.dtd"
   xmlns:inkscape="http://www.inkscape.org/namespaces/inkscape"
   width="48"
   height="48"
   viewBox="0 0 12.7 12.7"
   version="1.1"
   id="svg8"
   inkscape:version="0.92.4 (5da689c313, 2019-01-14)"
   sodipodi:docname="cfg_file_deactive.svg"
   inkscape:export-filename="/home/payno/dev/tomo/tomwer/tomwer/resources/gui/icons/cfg_file_deactive.png"
   inkscape:export-xdpi="170.67"
   inkscape:export-ydpi="170.67">
  <defs
     id="defs2" />
  <sodipodi:namedview
     id="base"
     pagecolor="#ffffff"
     bordercolor="#666666"
     borderopacity="1.0"
     inkscape:pageopacity="0.0"
     inkscape:pageshadow="2"
     inkscape:zoom="7.9195959"
     inkscape:cx="33.594139"
     inkscape:cy="26.383362"
     inkscape:document-units="mm"
     inkscape:current-layer="text819"
     showgrid="false"
     units="px"
     inkscape:window-width="1920"
     inkscape:window-height="1043"
     inkscape:window-x="1920"
     inkscape:window-y="0"
     inkscape:window-maximized="1" />
  <metadata
     id="metadata5">
    <rdf:RDF>
      <cc:Work
         rdf:about="">
        <dc:format>image/svg+xml</dc:format>
        <dc:type
           rdf:resource="http://purl.org/dc/dcmitype/StillImage" />
        <dc:title></dc:title>
      </cc:Work>
    </rdf:RDF>
  </metadata>
  <g
     inkscape:label="Layer 1"
     inkscape:groupmode="layer"
     id="layer1"
     transform="translate(0,-284.3)">
    <path
       style="fill:none;stroke:#000000;stroke-width:0.35696024px;stroke-linecap:butt;stroke-linejoin:miter;stroke-opacity:1"
       d="m 2.8458768,288.12434 2.2e-6,7.52272 7.592841,0.006 -0.03616,-9.69249 H 5.4852939 Z"
       id="path815"
       inkscape:connector-curvature="0"
       sodipodi:nodetypes="cccccc" />
    <g
       aria-label=".cfg"
       style="font-style:normal;font-variant:normal;font-weight:normal;font-stretch:normal;font-size:10.58333302px;line-height:1.25;font-family:sans-serif;-inkscape-font-specification:sans-serif;letter-spacing:0px;word-spacing:0px;fill:#000000;fill-opacity:1;stroke:none;stroke-width:0.26458332"
       id="text819"
       transform="translate(-0.03340869)">
      <path
         d="m 4.7588864,289.83081 c 0,-0.10918 -0.092243,-0.20737 -0.1951299,-0.20737 -0.1099824,0 -0.1986775,0.091 -0.1986775,0.20374 0,0.11279 0.085147,0.20008 0.1951297,0.20008 0.1064349,0 0.1986777,-0.091 0.1986777,-0.19645 z"
         style="font-style:normal;font-variant:normal;font-weight:normal;font-stretch:normal;font-size:2.82222223px;font-family:'STIX Math';-inkscape-font-specification:'STIX Math';stroke-width:0.33680668"
         id="path821"
         inkscape:connector-curvature="0" />
      <path
         d="m 6.4157156,289.41972 c -0.170295,0.25465 -0.2980163,0.34197 -0.5002418,0.34197 -0.3263988,0 -0.5499111,-0.29104 -0.5499111,-0.70941 0,-0.37834 0.1951297,-0.63299 0.4825027,-0.63299 0.1277213,0 0.1738429,0.04 0.209321,0.17461 l 0.021287,0.08 c 0.028383,0.10557 0.092243,0.16734 0.1702951,0.16734 0.092244,0 0.1667472,-0.0691 0.1667472,-0.15279 0,-0.20372 -0.2483469,-0.37471 -0.5463633,-0.37471 -0.1667473,0 -0.3370424,0.0655 -0.478955,0.18555 -0.191582,0.1637 -0.2980163,0.41472 -0.2980163,0.71666 0,0.4693 0.2802773,0.80764 0.6740847,0.80764 0.152556,0 0.287373,-0.0509 0.4079986,-0.1528 0.1064348,-0.0873 0.1773907,-0.19281 0.2909209,-0.41836 z"
         style="font-style:normal;font-variant:normal;font-weight:normal;font-stretch:normal;font-size:2.82222223px;font-family:'STIX Math';-inkscape-font-specification:'STIX Math';stroke-width:0.33680668"
         id="path823"
         inkscape:connector-curvature="0" />
      <path
         d="m 6.6511465,288.35015 v 0.11641 h 0.2909207 v 1.1423 c 0,0.26559 -0.039025,0.30923 -0.2944685,0.32379 v 0.0545 h 0.9224318 v -0.0545 c -0.2909209,-0.0103 -0.3299468,-0.0509 -0.3299468,-0.32379 v -1.1423 H 7.672917 v -0.11641 H 7.2400837 v -0.42199 c 0,-0.21464 0.063861,-0.32378 0.1986775,-0.32378 0.078052,0 0.1241738,0.0364 0.1880342,0.14188 0.056766,0.0982 0.099339,0.13097 0.1596517,0.13097 0.085147,0 0.1490081,-0.0655 0.1490081,-0.14917 0,-0.13096 -0.1561037,-0.22554 -0.3689726,-0.22554 -0.2235123,0 -0.4079986,0.0982 -0.5002418,0.26193 -0.092244,0.16371 -0.1206263,0.29468 -0.1241738,0.5857 z"
         style="font-style:normal;font-variant:normal;font-weight:normal;font-stretch:normal;font-size:2.82222223px;font-family:'STIX Math';-inkscape-font-specification:'STIX Math';stroke-width:0.33680668"
         id="path825"
         inkscape:connector-curvature="0" />
      <path
         d="m 9.4290297,288.57571 v -0.14187 H 9.1558479 c -0.070956,0 -0.1241738,-0.0103 -0.1951298,-0.0364 l -0.078052,-0.0291 c -0.095791,-0.0363 -0.191582,-0.0545 -0.2838251,-0.0545 -0.3299468,0 -0.5924851,0.26193 -0.5924851,0.59298 0,0.2292 0.092243,0.36745 0.3299468,0.48749 -0.049669,0.0509 -0.099338,0.0982 -0.152556,0.14552 -0.1170774,0.10545 -0.1631995,0.17827 -0.1631995,0.25102 0,0.0801 0.039027,0.12001 0.1880342,0.19281 -0.2554427,0.18918 -0.3476859,0.30923 -0.3476859,0.44383 0,0.19282 0.2731817,0.35289 0.613772,0.35289 0.2554426,0 0.5250765,-0.0873 0.7095628,-0.23283 0.1454604,-0.1164 0.2128689,-0.23647 0.2128689,-0.38199 0,-0.22554 -0.1667473,-0.37835 -0.4292855,-0.38925 l -0.4576681,-0.0218 c -0.191582,-0.0103 -0.2767295,-0.04 -0.2767295,-0.0982 0,-0.0727 0.1170775,-0.20009 0.2128688,-0.22919 l 0.067408,0.008 c 0.063861,0.008 0.11353,0.0103 0.134817,0.0103 0.1241738,0 0.2554427,-0.0545 0.3689727,-0.14187 0.1277213,-0.0982 0.1844863,-0.23284 0.1844863,-0.422 0,-0.10545 -0.017739,-0.18918 -0.067408,-0.3056 z m -1.128205,0.1819 c 0,-0.21464 0.099338,-0.34197 0.2625382,-0.34197 0.1099824,0 0.2022255,0.0619 0.2589905,0.17099 0.067408,0.12736 0.1064349,0.29104 0.1064349,0.44019 0,0.20009 -0.1028861,0.32742 -0.2625382,0.32742 -0.2199645,0 -0.3654249,-0.23647 -0.3654249,-0.58571 z m 0.9969358,1.46247 c 0,0.211 -0.2696339,0.35287 -0.6740847,0.35287 -0.3122076,0 -0.5144331,-0.10544 -0.5144331,-0.26557 0,-0.0837 0.03193,-0.13823 0.1738429,-0.31286 0.1206263,0.0254 0.400903,0.0473 0.574746,0.0473 0.322851,0 0.4399289,0.0437 0.4399289,0.17826 z"
         style="font-style:normal;font-variant:normal;font-weight:normal;font-stretch:normal;font-size:2.82222223px;font-family:'STIX Math';-inkscape-font-specification:'STIX Math';stroke-width:0.33680668"
         id="path827"
         inkscape:connector-curvature="0" />
      <path
         style="opacity:1;fill:#e4463c;fill-opacity:1;stroke:none;stroke-width:0.91813016;stroke-linecap:round;stroke-linejoin:miter;stroke-miterlimit:4;stroke-dasharray:none;stroke-opacity:1;paint-order:markers fill stroke"
         id="path849"
         sodipodi:type="arc"
         sodipodi:cx="9.0469656"
         sodipodi:cy="294.42014"
         sodipodi:rx="2.4725063"
         sodipodi:ry="2.4390976"
         sodipodi:start="2.1817837"
         sodipodi:end="2.1143617"
         sodipodi:open="true"
         d="m 7.6285469,296.41796 a 2.4725063,2.4390976 0 0 1 -0.630386,-3.36321 2.4725063,2.4390976 0 0 1 3.3981591,-0.67846 2.4725063,2.4390976 0 0 1 0.744936,3.34033 2.4725063,2.4390976 0 0 1 -3.3730478,0.79107" />
    </g>
  </g>
</svg>
