<?xml version="1.0" encoding="UTF-8"?>
<svg id="svg11300" width="48" height="48" version="1.1" xmlns="http://www.w3.org/2000/svg" xmlns:xlink="http://www.w3.org/1999/xlink">
 <defs id="defs3">
  <linearGradient id="linearGradient3055" x1="19.648" x2="20.631" y1="42.254" y2="6.7758" gradientTransform="translate(-.9434 3.2828) scale(.87827)" gradientUnits="userSpaceOnUse">
   <stop id="stop3051" stop-color="#b6b6b6" offset="0"/>
   <stop id="stop2262" stop-color="#f2f2f2" offset=".5"/>
   <stop id="stop2264" stop-color="#fafafa" offset=".67613"/>
   <stop id="stop2268" stop-color="#d8d8d8" offset=".84052"/>
   <stop id="stop2266" stop-color="#f2f2f2" offset=".875"/>
   <stop id="stop3053" stop-color="#dbdbdb" offset="1"/>
  </linearGradient>
  <linearGradient id="linearGradient3067" x1="50.153" x2="25.291" y1="-3.6324" y2="-4.3003" gradientTransform="translate(1.6926 2.9668) scale(.87827)" gradientUnits="userSpaceOnUse">
   <stop id="stop3063" stop-color="#fff" offset="0"/>
   <stop id="stop3065" offset="1"/>
  </linearGradient>
  <linearGradient id="linearGradient3820" x1="-32.164" x2="-34.733" y1="11.983" y2="14.757" gradientTransform="translate(69.52 -1.6849)" gradientUnits="userSpaceOnUse">
   <stop id="stop3744" stop-color="#666864" offset="0"/>
   <stop id="stop3750" stop-color="#494a47" stop-opacity=".49804" offset=".5"/>
   <stop id="stop3746" stop-color="#666864" offset="1"/>
  </linearGradient>
  <linearGradient id="linearGradient4725" x1="166.95" x2="171.73" y1="48.513" y2="48.513" gradientUnits="userSpaceOnUse">
   <stop id="stop3807-3" stop-color="#c27e13" offset="0"/>
   <stop id="stop3813-6" stop-color="#c27e13" stop-opacity=".49804" offset=".26879"/>
   <stop id="stop3809-4" stop-color="#c27e13" stop-opacity=".97414" offset="1"/>
  </linearGradient>
  <radialGradient id="radialGradient2260" cx="24.812" cy="39.125" r="17.688" gradientTransform="matrix(1 0 0 .37456 0 24.47)" gradientUnits="userSpaceOnUse">
   <stop id="stop3043" offset="0"/>
   <stop id="stop3045" stop-opacity="0" offset="1"/>
  </radialGradient>
 </defs>
 <g id="layer1">
  <path id="path2258" transform="matrix(.75112 0 0 .5787 13.56 17.679)" d="m42.5 39.125a17.688 6.625 0 1 1-35.375 0 17.688 6.625 0 1 1 35.375 0z" fill="url(#radialGradient2260)" opacity=".19886" overflow="visible"/>
  <path id="path3039" transform="matrix(.83607 0 0 .68544 -7.94 15.033)" d="m42.5 39.125a17.688 6.625 0 1 1-35.375 0 17.688 6.625 0 1 1 35.375 0z" fill="url(#radialGradient2260)" opacity=".3125" overflow="visible"/>
  <path id="path2140" d="m14.426 19.531 18.993 19.432c0.76849 0.87827 3.2035 1.5571 4.8305 0 1.5711-1.5036 1.2076-3.6229-0.32935-5.1598l-18.224-19.542c2.25-6.25-2.3039-11.5-8.1789-10.375l-1.2625 1.1527 3.9522 3.7326 0.21957 3.2935-2.9508 2.6936-3.5264-0.38814-3.6229-3.4033-1.2701 1.2549c-0.59076 5.6413 5.3077 10.683 11.37 7.3082z" fill="url(#linearGradient3055)" overflow="visible" stroke="#888a85"/>
  <path id="path3057" d="m14.637 18.255 19.203 20.028c0.59491 0.67989 2.4799 1.2054 3.7394 0 1.2163-1.164 0.93485-2.8046-0.25496-3.9944l-18.492-19.621c1.5-6.5-1.8588-10.005-6.8588-9.8796l-0.27013 0.27338 3.6029 3.2363 0.13017 4.1818-3.6139 3.2985-4.2423-0.45821-3.1766-2.9915-0.35264 0.43006c-0.3125 5.9688 6.4917 8.6848 10.585 5.4973z" fill="none" opacity=".42614" overflow="visible" stroke="#fff"/>
  <rect id="rect3059" transform="rotate(45.738)" x="24.55" y="-1.3019" width="23.268" height="2.0555" rx=".88388" ry=".88388" fill="none" opacity=".17045" overflow="visible" stroke="url(#linearGradient3067)"/>
  <path id="path2146" transform="translate(-1.0532 3.3926) scale(.87827)" d="m43.25 37.5a1.375 1.375 0 1 1-2.75 0 1.375 1.375 0 1 1 2.75 0z" fill="#fff" overflow="visible" stroke="#a1a1a1" stroke-width="1.1386"/>
  <g id="g4721" transform="rotate(45 118.25 -143.03)">
   <path id="path3930" d="m171.04 65.703c2.2822-0.05133 2.249-2.6109 2.1806-5.3441-0.11958-4.7814-0.82929-4.2195-0.97878-10.196-0.14948-5.9768 0.39385-17.608 0.39385-17.608-0.0476-1.9049 0.28281-4.4374-3.2859-4.2035-3.5687-0.23387-3.2382 2.2986-3.2859 4.2035 0 0 0.54333 11.631 0.39385 17.608-0.14949 5.9768-0.8592 5.4149-0.97878 10.196-0.0684 2.7333-0.10158 5.2928 2.1806 5.3441 0 0-0.16595 0.01887 1.6902 0.01887s1.6902-0.01887 1.6902-0.01887z" fill="#e9b96e" overflow="visible" stroke="#8f5902"/>
   <path id="path3933" d="M169.25 29.84375h.1874c.71741-.04701 1.09477.07913 1.25.15625.15523.07712.17681.08319.25.25.13862.315936.16244 1.231053.1875 2.21875 0 0 .00005.123852 0 .125-.008.161592-.52689 11.520677-.375 17.59375.0763 3.048871.31707 4.559136.53125 5.78125.21418 1.222114.3796 2.122413.4375 4.4375.0341 1.360997.0171 2.612163-.15625 3.25-.0866.318919-.18098.434184-.21875.46875h-3.96885c-.0378-.03457-.16335-.149831-.25-.46875-.1733-.637837-.19031-1.889003-.15625-3.25.0579-2.315087.25457-3.215386.46875-4.4375.21418-1.222114.45499-2.732379.53125-5.78125.15189-6.073076-.39864-17.432171-.40625-17.59375.00035-.01399-.00035-.0173 0-.03125-.00003-.000646 0-.09375 0-.09375.0251-.987718.0489-1.902811.1875-2.21875.0732-.166809.0948-.172884.25-.25.15523-.07712.53259-.203264 1.25-.15625z" fill="url(#linearGradient4725)" font-family="Sans" font-weight="400" overflow="visible" stroke-width="3" style="block-progression:tb;text-indent:0;text-transform:none"/>
  </g>
  <g id="g3815" transform="rotate(.611 2.8253 -70.26)">
   <path id="path3732" d="m21.733 4.2896 0.27733 0.042544c3.13-1.2369 10.518 2.5441 9.1293 6.3548-0.37166 0.60671-0.24564 1.6418 0.27745 2.2677l3.389 2.9856c0.99597 0.80239 1.896 0.8267 2.733 0.54707 1.6166-0.54007 2.6204 1.0152 3.6675 2.1344l-0.41952 0.46101c-0.61976 0.70003-0.49657 1.8148 0.28 2.51 0.77657 0.69513 1.9018 0.69437 2.5219 0.0016l2.7739-3.095c0.61976-0.70003 0.49657-1.8148-0.28341-2.5062-0.70063-0.63059-1.6685-0.66386-2.3131-0.1506-2.1377-2.1467-1.0996-2.5442-3.9171-5.3371l-5.2554-4.8071c-3.7763-3.3151-8.4292-3.054-12.861-1.4086z" fill="url(#linearGradient3820)"/>
   <path id="path3723" d="m27.582 3.0964c-1.9316 0.00639-3.9049 0.46761-5.8438 1.1875l0.28125 0.0625c3.13-1.2369 10.513 2.533 9.125 6.3438-0.37166 0.60671-0.24184 1.6241 0.28125 2.25l3.375 3c0.99597 0.80239 1.913 0.84214 2.75 0.5625 1.6166-0.54007 2.6092 1.0058 3.6562 2.125l-0.40625 0.46875c-0.61976 0.70003-0.49532 1.8049 0.28125 2.5 0.77657 0.69513 1.8798 0.69277 2.5 0l2.7812-3.0938c0.61976-0.70003 0.49872-1.8087-0.28125-2.5-0.70063-0.63059-1.6679-0.66951-2.3125-0.15625-2.1377-2.1467-1.0887-2.5509-3.9062-5.3438l-5.2812-4.8125c-2.1241-1.8647-4.5165-2.602-7-2.5938zm2.3125 1.875c1.2866 0.323 2.5359 0.83835 3.6875 1.8438 0.0072 0.00628 0.02406-0.00631 0.03125 0l5.2188 4.8125c1.2456 1.2461 1.5447 1.8107 1.875 2.4688 0.33767 0.6726 0.81281 1.6203 2 2.8125l0.9375 0.9375 1.0625-0.84375c0.04744-0.03777 0.16543-0.09487 0.375 0.09375v0.03125c0.23962 0.21239 0.18669 0.34062 0.15625 0.375l-2.7812 3.0938c-0.01914 0.02138-0.13534 0.08953-0.375-0.125-0.22617-0.20246-0.21757-0.32953-0.1875-0.375 2e-3 -0.0031-0.0019-0.02907 0-0.03125l0.40625-0.4375 0.9375-1.0312-0.9375-1c-0.45009-0.48109-0.97914-1.2102-1.7812-1.8438s-2.1615-1.1242-3.4688-0.6875c-0.48435 0.16181-0.65466 0.21376-1.25-0.25l-0.0625-0.03125-3.1562-2.7812c-0.0042-5e-3 0.0036-0.02347 0-0.03125-0.05479-0.11896-0.05906-0.53669-0.125-0.53125l0.03125-0.09375 0.0625-0.15625c0.52086-1.4297 0.18789-2.9158-0.53125-4.0625-0.53554-0.85393-1.3037-1.545-2.125-2.1562z" fill="#babdb6" font-family="Sans" font-weight="400" overflow="visible" stroke-width="3" style="block-progression:tb;text-indent:0;text-transform:none"/>
   <path id="use3311" d="m22.025 3.8662 0.27571 0.052011c3.1705-1.1291 10.424 2.9025 8.9064 6.6635-0.3922 0.59363-0.30168 1.6324 0.19967 2.2759l3.2848 3.0998c0.96793 0.836 1.8666 0.89111 2.7127 0.64028 1.6341-0.48443 2.5842 1.1043 3.5923 2.2586l-0.43505 0.44638c-0.64336 0.67841-0.55839 1.7968 0.19393 2.5181s1.8769 0.75905 2.5204 0.08791l2.8782-2.9983c0.64336-0.67841 0.55839-1.7968-0.19747-2.5144-0.67864-0.6542-1.6448-0.72058-2.3066-0.22968-2.063-2.2186-1.0119-2.5804-3.7321-5.468l-5.0878-4.9842c-3.6606-3.4424-8.3198-3.3407-12.805-1.8479z" fill="none" stroke="#555753"/>
  </g>
 </g>
 <style id="style3292" type="text/css">.low-specularity{opacity:.25}.specularity{opacity:.5}.high-specularity{opacity:.75}.full-specularity{opacity:1}.low-shade{opacity:.25}.shade{opacity:.5}.high-shade{opacity:.75}.full-shade{opacity:1}.black{fill:#000}.aluminium1{fill:#eeeeec}.aluminium2{fill:#d3d7cf}.aluminium6{fill:#2e3436}.chocolate3{fill:#8f5902}.chocolate2{fill:#c17d11}.aluminium4{fill:#888a85}.base-shadow{opacity:.4}.outline-big{stroke:#000;stroke-width:8;opacity:.25;stroke-linejoin:round}.outline-small,.stroke-highlight{stroke-width:4;stroke-linejoin:round}.outline-small{stroke:#000;opacity:.5}.stroke-highlight{fill:none;stroke:#fff;stroke-opacity:.2}</style>
</svg>
