<?xml version="1.0" encoding="UTF-8" standalone="no"?>
<!-- Created with Inkscape (http://www.inkscape.org/) -->

<svg
   xmlns:dc="http://purl.org/dc/elements/1.1/"
   xmlns:cc="http://creativecommons.org/ns#"
   xmlns:rdf="http://www.w3.org/1999/02/22-rdf-syntax-ns#"
   xmlns:svg="http://www.w3.org/2000/svg"
   xmlns="http://www.w3.org/2000/svg"
   xmlns:sodipodi="http://sodipodi.sourceforge.net/DTD/sodipodi-0.dtd"
   xmlns:inkscape="http://www.inkscape.org/namespaces/inkscape"
   width="32"
   height="32"
   viewBox="0 0 8.4666666 8.4666666"
   version="1.1"
   id="svg8"
   inkscape:version="0.92.5 (2060ec1f9f, 2020-04-08)"
   sodipodi:docname="visible.svg"
   inkscape:export-filename="/media/payno/830add5c-f5d7-4db2-875e-03be4f0a67f0/dev/tomography/tomwer/tomwer/resources/gui/icons/visible.png"
   inkscape:export-xdpi="59.900002"
   inkscape:export-ydpi="59.900002">
  <defs
     id="defs2">
    <marker
       inkscape:stockid="DotM"
       orient="auto"
       refY="0.0"
       refX="0.0"
       id="DotM"
       style="overflow:visible"
       inkscape:isstock="true">
      <path
         id="path902"
         d="M -2.5,-1.0 C -2.5,1.7600000 -4.7400000,4.0 -7.5,4.0 C -10.260000,4.0 -12.5,1.7600000 -12.5,-1.0 C -12.5,-3.7600000 -10.260000,-6.0 -7.5,-6.0 C -4.7400000,-6.0 -2.5,-3.7600000 -2.5,-1.0 z "
         style="fill-rule:evenodd;stroke:#000000;stroke-width:1pt;stroke-opacity:1;fill:#000000;fill-opacity:1"
         transform="scale(0.4) translate(7.4, 1)" />
    </marker>
  </defs>
  <sodipodi:namedview
     id="base"
     pagecolor="#ffffff"
     bordercolor="#666666"
     borderopacity="1.0"
     inkscape:pageopacity="0.0"
     inkscape:pageshadow="2"
     inkscape:zoom="15.839192"
     inkscape:cx="12.258114"
     inkscape:cy="21.086055"
     inkscape:document-units="mm"
     inkscape:current-layer="layer1"
     showgrid="false"
     units="px"
     inkscape:window-width="1920"
     inkscape:window-height="1163"
     inkscape:window-x="1920"
     inkscape:window-y="0"
     inkscape:window-maximized="1" />
  <metadata
     id="metadata5">
    <rdf:RDF>
      <cc:Work
         rdf:about="">
        <dc:format>image/svg+xml</dc:format>
        <dc:type
           rdf:resource="http://purl.org/dc/dcmitype/StillImage" />
        <dc:title />
      </cc:Work>
    </rdf:RDF>
  </metadata>
  <g
     inkscape:label="Layer 1"
     inkscape:groupmode="layer"
     id="layer1"
     transform="translate(0,-288.53334)">
    <path
       style="color:#000000;font-style:normal;font-variant:normal;font-weight:normal;font-stretch:normal;font-size:medium;line-height:normal;font-family:sans-serif;font-variant-ligatures:normal;font-variant-position:normal;font-variant-caps:normal;font-variant-numeric:normal;font-variant-alternates:normal;font-feature-settings:normal;text-indent:0;text-align:start;text-decoration:none;text-decoration-line:none;text-decoration-style:solid;text-decoration-color:#000000;letter-spacing:normal;word-spacing:normal;text-transform:none;writing-mode:lr-tb;direction:ltr;text-orientation:mixed;dominant-baseline:auto;baseline-shift:baseline;text-anchor:start;white-space:normal;shape-padding:0;clip-rule:nonzero;display:inline;overflow:visible;visibility:visible;opacity:1;isolation:auto;mix-blend-mode:normal;color-interpolation:sRGB;color-interpolation-filters:linearRGB;solid-color:#000000;solid-opacity:1;vector-effect:none;fill:#000000;fill-opacity:1;fill-rule:evenodd;stroke:none;stroke-width:0.48723513;stroke-linecap:round;stroke-linejoin:round;stroke-miterlimit:4;stroke-dasharray:none;stroke-dashoffset:0;stroke-opacity:1;paint-order:stroke markers fill;color-rendering:auto;image-rendering:auto;shape-rendering:auto;text-rendering:auto;enable-background:accumulate"
       d="m 3.7519531,291.80078 c -0.3193398,0.10451 -0.6012667,0.34057 -0.765625,0.67774 -0.3020452,0.61962 -0.1064526,1.34288 0.4003907,1.75976 4.22e-4,3.5e-4 -4.226e-4,0.002 0,0.002 a 0.24364193,0.24364193 0 0 0 0.097656,0.13477 0.24364193,0.24364193 0 0 0 0.013672,0.008 0.24364193,0.24364193 0 0 0 0.1875,0.0215 c 0.5892944,0.23016 1.2683357,0.0144 1.5625,-0.59766 0.3250774,-0.67633 0.1114529,-1.51241 -0.5097657,-1.89258 -0.31061,-0.19008 -0.6669883,-0.21778 -0.9863281,-0.11328 z m 0.140625,0.45117 c 0.1894285,-0.0634 0.4000353,-0.0392 0.5917969,0.0781 0.383522,0.2347 0.5430182,0.81041 0.3242188,1.26562 -0.2188025,0.45522 -0.6740645,0.60312 -1.0585938,0.3711 a 0.24364193,0.24364193 0 0 0 -0.00781,-0.006 c -0.3825087,-0.23739 -0.5394615,-0.814 -0.3183594,-1.26758 0.1105509,-0.22679 0.2793216,-0.37801 0.46875,-0.44141 z"
       id="path819"
       inkscape:connector-curvature="0" />
    <path
       style="color:#000000;font-style:normal;font-variant:normal;font-weight:normal;font-stretch:normal;font-size:medium;line-height:normal;font-family:sans-serif;font-variant-ligatures:normal;font-variant-position:normal;font-variant-caps:normal;font-variant-numeric:normal;font-variant-alternates:normal;font-feature-settings:normal;text-indent:0;text-align:start;text-decoration:none;text-decoration-line:none;text-decoration-style:solid;text-decoration-color:#000000;letter-spacing:normal;word-spacing:normal;text-transform:none;writing-mode:lr-tb;direction:ltr;text-orientation:mixed;dominant-baseline:auto;baseline-shift:baseline;text-anchor:start;white-space:normal;shape-padding:0;clip-rule:nonzero;display:inline;overflow:visible;visibility:visible;opacity:1;isolation:auto;mix-blend-mode:normal;color-interpolation:sRGB;color-interpolation-filters:linearRGB;solid-color:#000000;solid-opacity:1;vector-effect:none;fill:#000000;fill-opacity:1;fill-rule:nonzero;stroke:none;stroke-width:0.32228571;stroke-linecap:round;stroke-linejoin:miter;stroke-miterlimit:0.2;stroke-dasharray:none;stroke-dashoffset:0;stroke-opacity:1;color-rendering:auto;image-rendering:auto;shape-rendering:auto;text-rendering:auto;enable-background:accumulate"
       d="M 4.046875,290.73828 C 2.7336872,290.7751 1.469551,291.5796 0.25,293.00586 a 0.16115897,0.16115897 0 1 0 0.24414062,0.20898 c 1.18698038,-1.38816 2.37333088,-2.121 3.56054688,-2.15429 1.187216,-0.0333 2.4174909,0.62838 3.703125,2.13281 a 0.16115897,0.16115897 0 1 0 0.2441406,-0.20898 c -1.3215269,-1.54644 -2.6418903,-2.28292 -3.9550781,-2.2461 z"
       id="path821"
       inkscape:connector-curvature="0" />
    <path
       style="color:#000000;font-style:normal;font-variant:normal;font-weight:normal;font-stretch:normal;font-size:medium;line-height:normal;font-family:sans-serif;font-variant-ligatures:normal;font-variant-position:normal;font-variant-caps:normal;font-variant-numeric:normal;font-variant-alternates:normal;font-feature-settings:normal;text-indent:0;text-align:start;text-decoration:none;text-decoration-line:none;text-decoration-style:solid;text-decoration-color:#000000;letter-spacing:normal;word-spacing:normal;text-transform:none;writing-mode:lr-tb;direction:ltr;text-orientation:mixed;dominant-baseline:auto;baseline-shift:baseline;text-anchor:start;white-space:normal;shape-padding:0;clip-rule:nonzero;display:inline;overflow:visible;visibility:visible;opacity:1;isolation:auto;mix-blend-mode:normal;color-interpolation:sRGB;color-interpolation-filters:linearRGB;solid-color:#000000;solid-opacity:1;vector-effect:none;fill:#000000;fill-opacity:1;fill-rule:nonzero;stroke:none;stroke-width:0.32228571;stroke-linecap:round;stroke-linejoin:miter;stroke-miterlimit:0.2;stroke-dasharray:none;stroke-dashoffset:0;stroke-opacity:1;paint-order:normal;color-rendering:auto;image-rendering:auto;shape-rendering:auto;text-rendering:auto;enable-background:accumulate"
       d="m 7.8652344,292.92578 a 0.16115897,0.16115897 0 0 0 -0.1074219,0.0566 c -1.1923324,1.38236 -2.3829699,2.11993 -3.5703125,2.15625 -1.1873426,0.0363 -2.4135063,-0.62205 -3.69335938,-2.13281 A 0.16115897,0.16115897 0 1 0 0.25,293.21484 c 1.3159437,1.55337 2.6339729,2.28627 3.9472656,2.2461 1.3132927,-0.0402 2.5800501,-0.84777 3.8046875,-2.26758 a 0.16115897,0.16115897 0 0 0 -0.1367187,-0.26758 z"
       id="path821-3"
       inkscape:connector-curvature="0" />
  </g>
</svg>
