<svg xmlns="http://www.w3.org/2000/svg" xmlns:xlink="http://www.w3.org/1999/xlink" width="136.5" height="58" viewBox="0 0 136.5 58"><defs><clipPath id="a"><rect width="136.021" height="58" fill="none"/></clipPath><clipPath id="c"><rect width="136.5" height="58"/></clipPath></defs><g id="b" clip-path="url(#c)"><rect width="136.5" height="58" fill="#fff"/><g clip-path="url(#a)"><path d="M45.415,0H3.435A3.436,3.436,0,0,0,0,3.435V33.58a24.42,24.42,0,0,0,48.841,0V3.435A3.429,3.429,0,0,0,45.412,0ZM17.946,29.044A11.066,11.066,0,1,1,29.012,17.978,11.067,11.067,0,0,1,17.946,29.044" fill="#272857"/><path d="M57.877,17.585h2.8V5.75h3.461V3.273h-9.77V5.75h3.51Z" fill="#272857"/><path d="M97.281,17.637a7.052,7.052,0,0,0,6.9-7.182,6.906,6.906,0,1,0-13.8,0,7.052,7.052,0,0,0,6.9,7.182m0-11.575a4.265,4.265,0,0,1,4.111,4.393,4.12,4.12,0,1,1-8.222,0,4.265,4.265,0,0,1,4.111-4.393" fill="#272857"/><path d="M73.4,9a3.5,3.5,0,0,0-1.365-1.364,4.023,4.023,0,0,0-1.992-.487,3.665,3.665,0,0,0-1.906.481,2.557,2.557,0,0,0-.653.581V3.273h-2.6V17.579h2.6v-5.9a2.709,2.709,0,0,1,.243-1.185,1.753,1.753,0,0,1,.673-.7,2.085,2.085,0,0,1,1.98,0,1.747,1.747,0,0,1,.662.7,2.236,2.236,0,0,1,.244,1.081v6h2.6V11.01A4.1,4.1,0,0,0,73.41,9Z" fill="#272857"/><path d="M84.638,12.673a3.693,3.693,0,0,0,.039-.568,5.4,5.4,0,0,0-.335-1.909,4.864,4.864,0,0,0-.971-1.575,4.522,4.522,0,0,0-1.542-1.085,5.274,5.274,0,0,0-2.094-.393,4.893,4.893,0,0,0-2.562.692,5.02,5.02,0,0,0-1.809,1.873,5.489,5.489,0,0,0-.662,2.708,5.447,5.447,0,0,0,.653,2.679,4.917,4.917,0,0,0,1.828,1.919,5.212,5.212,0,0,0,2.737.708,5.6,5.6,0,0,0,1.906-.315,4.745,4.745,0,0,0,1.5-.877,3.51,3.51,0,0,0,.942-1.3l.039-.1L82.193,14.1l-.052.091a2.4,2.4,0,0,1-.864.89,2.546,2.546,0,0,1-1.338.331,2.638,2.638,0,0,1-1.393-.367,2.289,2.289,0,0,1-.9-1.036,2.762,2.762,0,0,1-.221-.785H84.5a1.567,1.567,0,0,0,.136-.546ZM78.462,9.689a2.321,2.321,0,0,1,1.273-.357,2.276,2.276,0,0,1,1.279.363,2.05,2.05,0,0,1,.763.988,2.092,2.092,0,0,1,.12.49H77.481a3.007,3.007,0,0,1,.14-.442,2.218,2.218,0,0,1,.844-1.045Z" fill="#272857"/><path d="M126.014,12.673a3.692,3.692,0,0,0,.039-.568,5.4,5.4,0,0,0-.335-1.909,4.864,4.864,0,0,0-.971-1.575,4.522,4.522,0,0,0-1.542-1.085,5.274,5.274,0,0,0-2.094-.393,4.893,4.893,0,0,0-2.562.692,5.02,5.02,0,0,0-1.809,1.873,5.489,5.489,0,0,0-.662,2.708,5.447,5.447,0,0,0,.653,2.679,4.917,4.917,0,0,0,1.828,1.919,5.212,5.212,0,0,0,2.737.708,5.6,5.6,0,0,0,1.906-.315,4.745,4.745,0,0,0,1.5-.877,3.51,3.51,0,0,0,.942-1.3l.039-.1L123.569,14.1l-.052.091a2.4,2.4,0,0,1-.864.89,2.546,2.546,0,0,1-1.338.331,2.638,2.638,0,0,1-1.393-.367,2.289,2.289,0,0,1-.9-1.036,2.762,2.762,0,0,1-.221-.785h7.085a1.567,1.567,0,0,0,.136-.546Zm-6.176-2.984a2.321,2.321,0,0,1,1.273-.357,2.276,2.276,0,0,1,1.279.363,2.05,2.05,0,0,1,.763.988,2.092,2.092,0,0,1,.12.49h-4.416a3.007,3.007,0,0,1,.14-.442,2.218,2.218,0,0,1,.844-1.045Z" fill="#272857"/><path d="M129.186,8.017a1,1,0,0,0-1.049-.727h-1.516V17.579h2.6v-6a2.245,2.245,0,0,1,.243-1.081,1.759,1.759,0,0,1,.673-.7,2.085,2.085,0,0,1,1.98,0,1.763,1.763,0,0,1,.663.7,2.245,2.245,0,0,1,.243,1.081v6h2.6V11.014A4.088,4.088,0,0,0,135.144,9a3.487,3.487,0,0,0-1.364-1.364,4.017,4.017,0,0,0-1.993-.487,3.658,3.658,0,0,0-1.906.481,2.864,2.864,0,0,0-.653.532s-.019-.084-.039-.146Z" fill="#272857"/><path d="M110.5,7.146a4.328,4.328,0,0,0-2.977,1.016s-.02-.084-.039-.146a1,1,0,0,0-1.049-.727h-1.516V22h2.6V16.718l.006.007a3.591,3.591,0,0,0,.841.548,4.66,4.66,0,0,0,2.023.439,4.991,4.991,0,0,0,2.624-.7,5.08,5.08,0,0,0,1.825-1.906,5.455,5.455,0,0,0,.668-2.676,5.348,5.348,0,0,0-.678-2.675A4.962,4.962,0,0,0,110.5,7.149Zm2.02,6.783a2.524,2.524,0,0,1-.951,1.013,2.679,2.679,0,0,1-1.4.367,2.489,2.489,0,0,1-1.354-.367,2.579,2.579,0,0,1-.945-1.013,3.414,3.414,0,0,1,0-2.987,2.528,2.528,0,0,1,2.3-1.39,2.687,2.687,0,0,1,1.4.377,2.636,2.636,0,0,1,.955,1.016,3.123,3.123,0,0,1,.344,1.487,3.184,3.184,0,0,1-.344,1.5" fill="#272857"/><rect width="2.698" height="10.29" transform="translate(78.014 24.466)" fill="#272857"/><path d="M79.362,20.423A1.633,1.633,0,1,0,81,22.056a1.634,1.634,0,0,0-1.633-1.633" fill="#272857"/><rect width="2.698" height="10.29" transform="translate(116.951 24.466)" fill="#272857"/><path d="M118.3,20.423a1.633,1.633,0,1,0,1.633,1.633,1.634,1.634,0,0,0-1.633-1.633" fill="#272857"/><path d="M111.1,26.823a1.314,1.314,0,0,1,.834-.234,2.212,2.212,0,0,1,1.241.367,2.016,2.016,0,0,1,.782.984l.065.172,2.108-.99-.056-.146a3.812,3.812,0,0,0-1.584-1.958,5.034,5.034,0,0,0-4.5-.3,3.225,3.225,0,0,0-1.348,1.114,2.917,2.917,0,0,0-.49,1.672,2.756,2.756,0,0,0,.682,1.857,4.01,4.01,0,0,0,1.964,1.153l1.6.451a3.272,3.272,0,0,1,.539.214,1.073,1.073,0,0,1,.361.28.568.568,0,0,1,.117.373.736.736,0,0,1-.312.623,1.5,1.5,0,0,1-.926.254,2.439,2.439,0,0,1-1.409-.439,2.949,2.949,0,0,1-1-1.23l-.071-.156-2.055.987.048.14a4,4,0,0,0,1.663,2.117,5.136,5.136,0,0,0,2.821.776,4.871,4.871,0,0,0,2.017-.393,3.3,3.3,0,0,0,1.367-1.111,2.849,2.849,0,0,0,.5-1.656,2.7,2.7,0,0,0-.7-1.88,4.218,4.218,0,0,0-1.941-1.13l-1.565-.467a5.007,5.007,0,0,1-.581-.224.907.907,0,0,1-.345-.273.614.614,0,0,1-.11-.37.679.679,0,0,1,.279-.572Z" fill="#272857"/><path d="M64.543,28.93a3.175,3.175,0,1,1-6.351,0V20.423H55.4V28.93a5.967,5.967,0,1,0,11.935,0V20.423H64.543Z" fill="#272857"/><path d="M100.71,29.849a3.692,3.692,0,0,0,.039-.568,5.4,5.4,0,0,0-.335-1.909,4.864,4.864,0,0,0-.971-1.575A4.522,4.522,0,0,0,97.9,24.712a5.274,5.274,0,0,0-2.094-.393,4.893,4.893,0,0,0-2.562.692,5.02,5.02,0,0,0-1.809,1.873,5.846,5.846,0,0,0-.009,5.387,4.917,4.917,0,0,0,1.828,1.919,5.214,5.214,0,0,0,2.737.708,5.6,5.6,0,0,0,1.906-.315,4.745,4.745,0,0,0,1.5-.877,3.51,3.51,0,0,0,.942-1.3l.039-.1-2.117-1.039-.052.091a2.4,2.4,0,0,1-.864.89,2.543,2.543,0,0,1-1.338.331,2.638,2.638,0,0,1-1.393-.367,2.289,2.289,0,0,1-.9-1.036,2.762,2.762,0,0,1-.221-.785h7.085a1.567,1.567,0,0,0,.136-.546Zm-6.175-2.984a2.315,2.315,0,0,1,1.272-.357,2.276,2.276,0,0,1,1.279.363,2.044,2.044,0,0,1,.763.988,2.092,2.092,0,0,1,.12.49H93.553a3.007,3.007,0,0,1,.14-.442,2.218,2.218,0,0,1,.844-1.045Z" fill="#272857"/><path d="M125.449,32.505a2.2,2.2,0,0,1-.948-.179,1.074,1.074,0,0,1-.52-.5,1.822,1.822,0,0,1-.168-.825V26.586h1.629v-2.12h-1.629V22h-2.53v2.465h-.815v2.12h.812v4.546a3.709,3.709,0,0,0,.821,2.776,3.771,3.771,0,0,0,2.777.987,5.65,5.65,0,0,0,.636-.039c.23-.026.432-.052.61-.078l.091-.013V32.43l-.467.052a2.812,2.812,0,0,1-.3.02Z" fill="#272857"/><path d="M91.46,24.466H88.525L86.56,30.538a2.36,2.36,0,0,0-.1.448l-.042.338-.043-.338a2.36,2.36,0,0,0-.1-.448L84.31,24.466H81.375l3.867,10.29H87.59l3.867-10.29Z" fill="#272857"/><path d="M133.089,24.466l-2.081,6.072a2.363,2.363,0,0,0-.1.448l-.042.338-.042-.338a2.363,2.363,0,0,0-.1-.448l-1.844-6.072h-2.66l2.666,9.514c.14.5.3.7.637.779l-1.679,4.422h2.783l5.4-14.712h-2.935Z" fill="#272857"/><path d="M70.728,25.193a1,1,0,0,0-1.049-.727H68.163V34.755h2.6v-6a2.245,2.245,0,0,1,.243-1.081,1.759,1.759,0,0,1,.673-.7,2.085,2.085,0,0,1,1.98,0,1.756,1.756,0,0,1,.663.7,2.245,2.245,0,0,1,.243,1.081v6h2.6V28.19a4.088,4.088,0,0,0-.487-2.013,3.487,3.487,0,0,0-1.364-1.364,4.017,4.017,0,0,0-1.993-.487,3.658,3.658,0,0,0-1.906.481,2.865,2.865,0,0,0-.653.532s-.019-.084-.039-.146Z" fill="#272857"/><path d="M104.188,25.339s-.019-.084-.039-.146a1,1,0,0,0-1.049-.727h-1.516V34.755h2.6V29.112a2.5,2.5,0,0,1,.708-1.753,2.28,2.28,0,0,1,1.63-.624,3.462,3.462,0,0,1,1,.12V24.443a1.837,1.837,0,0,0-.715-.12,3.933,3.933,0,0,0-1.415.208,3.549,3.549,0,0,0-1.208.808Z" fill="#272857"/><path d="M66.63,47.357a1.082,1.082,0,0,0-.744.276,1.2,1.2,0,0,0-.353.649h2.224a.925.925,0,0,0-.319-.643A1.2,1.2,0,0,0,66.63,47.357Z" fill="#272857"/><path d="M75.3,47.545a1.216,1.216,0,0,0-.607-.162,1.244,1.244,0,0,0-.607.159,1.217,1.217,0,0,0-.455.467,1.475,1.475,0,0,0-.175.737,1.547,1.547,0,0,0,.175.75,1.254,1.254,0,0,0,.458.487,1.193,1.193,0,0,0,1.208,0,1.24,1.24,0,0,0,.454-.478,1.518,1.518,0,0,0,.176-.746,1.5,1.5,0,0,0-.176-.744,1.228,1.228,0,0,0-.454-.474Z" fill="#272857"/><path d="M91.55,48.48A6.644,6.644,0,0,0,98.434,41.6h-43v13.77h43a6.647,6.647,0,0,0-6.884-6.884ZM60,51.045H58.909v-5.7H60Zm3.727-3.513H63.4a1.025,1.025,0,0,0-.744.244,1.207,1.207,0,0,0-.247.873v2.4H61.325V46.487h1.087v.448a1.521,1.521,0,0,1,.393-.322,1.647,1.647,0,0,1,.828-.2h.091Zm5.13,1.585-.013.071H65.526a1.049,1.049,0,0,0,.347.685,1.118,1.118,0,0,0,.8.3.964.964,0,0,0,.938-.536h1.179l-.013.042a2.058,2.058,0,0,1-.75,1.033,2.224,2.224,0,0,1-1.351.4,2.3,2.3,0,0,1-1.162-.295,2.089,2.089,0,0,1-.815-.831,2.515,2.515,0,0,1-.3-1.228,2.61,2.61,0,0,1,.289-1.233,2.049,2.049,0,0,1,.8-.825,2.383,2.383,0,0,1,1.185-.289,2.282,2.282,0,0,1,1.15.282,2,2,0,0,1,.8.8,2.361,2.361,0,0,1,.283,1.162,2.766,2.766,0,0,1-.036.461Zm2.305,1.925H70.071V44.98h1.088Zm5.864,0H75.929v-.5a2,2,0,0,1-.5.357,2.124,2.124,0,0,1-2.029-.084,2.147,2.147,0,0,1-.776-.844,2.6,2.6,0,0,1-.286-1.221,2.536,2.536,0,0,1,.286-1.211,2.093,2.093,0,0,1,.779-.825,2.125,2.125,0,0,1,1.091-.3,1.973,1.973,0,0,1,.942.215,1.938,1.938,0,0,1,.484.347v-.487h1.094v4.559Zm5.517,0H81.462V48.5a1.2,1.2,0,0,0-.269-.841.96.96,0,0,0-.738-.286.976.976,0,0,0-.74.286,1.181,1.181,0,0,0-.273.841v2.539H78.355V46.483h1.087v.367a1.627,1.627,0,0,1,.442-.279,1.944,1.944,0,0,1,.77-.159,2.066,2.066,0,0,1,.967.224,1.64,1.64,0,0,1,.679.672,2.168,2.168,0,0,1,.243,1.062v2.672Zm5.825,0H87.271v-.5a1.909,1.909,0,0,1-.484.354,2.142,2.142,0,0,1-2.036-.085,2.119,2.119,0,0,1-.779-.844,2.6,2.6,0,0,1-.286-1.221,2.542,2.542,0,0,1,.286-1.211,2.091,2.091,0,0,1,.779-.824,2.124,2.124,0,0,1,1.1-.3,2.149,2.149,0,0,1,.883.195,1.982,1.982,0,0,1,.536.347V44.983h1.094v6.059Z" fill="#272857"/><path d="M86.641,47.545a1.208,1.208,0,0,0-.607-.162,1.233,1.233,0,0,0-.607.159,1.2,1.2,0,0,0-.455.467,1.475,1.475,0,0,0-.175.737,1.539,1.539,0,0,0,.175.75,1.254,1.254,0,0,0,.458.487,1.2,1.2,0,0,0,1.208,0,1.24,1.24,0,0,0,.454-.478,1.518,1.518,0,0,0,.176-.746,1.5,1.5,0,0,0-.176-.744,1.228,1.228,0,0,0-.454-.474Z" fill="#272857"/></g></g></svg>