<svg xmlns="http://www.w3.org/2000/svg" xmlns:xlink="http://www.w3.org/1999/xlink" width="162.508" height="58" viewBox="0 0 162.508 58"><defs><clipPath id="a"><rect width="162.508" height="58" fill="none"/></clipPath></defs><g clip-path="url(#a)"><path d="M45.414,0H3.433A3.432,3.432,0,0,0,0,3.433V33.578a24.421,24.421,0,1,0,48.843,0V3.433A3.426,3.426,0,0,0,45.414,0M17.945,29.044A11.066,11.066,0,1,1,29.011,17.978,11.064,11.064,0,0,1,17.945,29.044" fill="#fff"/><path d="M56.743,16.692h1.842V8.9h2.28V7.269H54.43V8.9h2.313Z" fill="#fff"/><path d="M81.649,16.783a4.723,4.723,0,0,0,4.619-4.811,4.623,4.623,0,1,0-9.238,0,4.723,4.723,0,0,0,4.619,4.811m0-7.75A2.854,2.854,0,0,1,84.4,11.976a2.757,2.757,0,1,1-5.5,0,2.854,2.854,0,0,1,2.751-2.943" fill="#fff"/><path d="M66.965,11.037a2.284,2.284,0,0,0-.9-.9,2.631,2.631,0,0,0-1.313-.322,2.415,2.415,0,0,0-1.253.315,1.713,1.713,0,0,0-.432.383V7.269H61.359v9.42h1.715V12.8a1.806,1.806,0,0,1,.159-.78,1.14,1.14,0,0,1,.442-.458,1.265,1.265,0,0,1,.649-.165,1.281,1.281,0,0,1,.656.165,1.165,1.165,0,0,1,.436.458,1.482,1.482,0,0,1,.159.712v3.953H67.29V12.365a2.661,2.661,0,0,0-.322-1.325Z" fill="#fff"/><path d="M74.361,13.457a2.107,2.107,0,0,0,.026-.373,3.537,3.537,0,0,0-.221-1.257,3.152,3.152,0,0,0-.64-1.037,2.984,2.984,0,0,0-1.014-.714,3.453,3.453,0,0,0-1.38-.257,3.234,3.234,0,0,0-1.689.455,3.292,3.292,0,0,0-1.189,1.234,3.856,3.856,0,0,0-.006,3.547,3.254,3.254,0,0,0,1.2,1.264,3.452,3.452,0,0,0,1.8.467,3.665,3.665,0,0,0,1.254-.208A3.135,3.135,0,0,0,73.5,16a2.318,2.318,0,0,0,.62-.854l.026-.062L72.75,14.4l-.033.058a1.586,1.586,0,0,1-.568.588,1.7,1.7,0,0,1-.881.218,1.748,1.748,0,0,1-.916-.24,1.517,1.517,0,0,1-.6-.682,1.893,1.893,0,0,1-.146-.517h4.664a1,1,0,0,0,.091-.357Zm-4.067-1.965a1.528,1.528,0,0,1,.838-.234,1.478,1.478,0,0,1,.841.241,1.386,1.386,0,0,1,.578.974H69.644a1.637,1.637,0,0,1,.1-.292,1.455,1.455,0,0,1,.555-.689" fill="#fff"/><path d="M100.566,13.457a2.19,2.19,0,0,0,.025-.373,3.537,3.537,0,0,0-.22-1.257,3.152,3.152,0,0,0-.64-1.037,2.984,2.984,0,0,0-1.014-.714,3.453,3.453,0,0,0-1.38-.257,3.234,3.234,0,0,0-1.689.455,3.292,3.292,0,0,0-1.189,1.234,3.856,3.856,0,0,0-.006,3.547,3.254,3.254,0,0,0,1.2,1.264,3.452,3.452,0,0,0,1.8.467,3.665,3.665,0,0,0,1.254-.208A3.135,3.135,0,0,0,99.7,16a2.318,2.318,0,0,0,.62-.854l.026-.062L98.954,14.4l-.032.058a1.586,1.586,0,0,1-.568.588,1.7,1.7,0,0,1-.881.218,1.748,1.748,0,0,1-.916-.24,1.517,1.517,0,0,1-.6-.682,1.893,1.893,0,0,1-.146-.517h4.664a1,1,0,0,0,.091-.357ZM96.5,11.492a1.528,1.528,0,0,1,.838-.234,1.478,1.478,0,0,1,.841.241,1.386,1.386,0,0,1,.578.974H95.849a1.637,1.637,0,0,1,.1-.292A1.455,1.455,0,0,1,96.5,11.492Z" fill="#fff"/><path d="M102.654,10.39a.655.655,0,0,0-.692-.477h-1v6.772h1.715v-3.95a1.5,1.5,0,0,1,.159-.711,1.127,1.127,0,0,1,.442-.458,1.256,1.256,0,0,1,.649-.166,1.278,1.278,0,0,1,.657.166,1.156,1.156,0,0,1,.435.458,1.476,1.476,0,0,1,.159.711v3.95H106.9V12.362a2.665,2.665,0,0,0-.322-1.326,2.284,2.284,0,0,0-.9-.9,2.641,2.641,0,0,0-1.312-.322,2.426,2.426,0,0,0-1.254.315,1.839,1.839,0,0,0-.429.351s-.013-.055-.026-.1Z" fill="#fff"/><path d="M90.354,9.819a2.837,2.837,0,0,0-1.959.669s-.013-.055-.026-.1a.655.655,0,0,0-.692-.478h-1V19.6h1.715V16.12h0a2.263,2.263,0,0,0,.556.367,3.066,3.066,0,0,0,1.331.289,3.282,3.282,0,0,0,1.728-.461,3.346,3.346,0,0,0,1.2-1.257,3.6,3.6,0,0,0,.442-1.76,3.515,3.515,0,0,0-.448-1.761,3.265,3.265,0,0,0-2.852-1.715Zm1.328,4.463a1.7,1.7,0,0,1-.627.669,1.775,1.775,0,0,1-.922.24,1.667,1.667,0,0,1-.894-.24,1.69,1.69,0,0,1-.62-.669,2.1,2.1,0,0,1-.224-.984,2.069,2.069,0,0,1,.227-.981,1.661,1.661,0,0,1,1.514-.913,1.784,1.784,0,0,1,.922.247,1.746,1.746,0,0,1,.627.669,2.253,2.253,0,0,1,0,1.965Z" fill="#fff"/><rect width="1.777" height="6.775" transform="translate(124.325 9.913)" fill="#fff"/><path d="M125.211,7.25a1.075,1.075,0,1,0,1.075,1.075,1.077,1.077,0,0,0-1.075-1.075" fill="#fff"/><rect width="1.777" height="6.775" transform="translate(149.955 9.913)" fill="#fff"/><path d="M150.845,7.25a1.075,1.075,0,1,0,1.075,1.075,1.077,1.077,0,0,0-1.075-1.075" fill="#fff"/><path d="M146.106,11.462a.881.881,0,0,1,.549-.153,1.434,1.434,0,0,1,.815.244,1.332,1.332,0,0,1,.517.646l.042.114,1.387-.653-.036-.094a2.518,2.518,0,0,0-1.043-1.29,3.1,3.1,0,0,0-1.672-.454,3.043,3.043,0,0,0-1.287.26,2.11,2.11,0,0,0-.886.734,1.912,1.912,0,0,0-.322,1.1,1.818,1.818,0,0,0,.448,1.224,2.628,2.628,0,0,0,1.293.757l1.056.3a2.21,2.21,0,0,1,.354.139.712.712,0,0,1,.237.185.372.372,0,0,1,.075.244.481.481,0,0,1-.205.409.993.993,0,0,1-.611.166,1.6,1.6,0,0,1-.929-.289,1.925,1.925,0,0,1-.656-.809l-.045-.1-1.355.65.033.094a2.621,2.621,0,0,0,1.094,1.393,3.386,3.386,0,0,0,1.858.51,3.177,3.177,0,0,0,1.329-.26,2.183,2.183,0,0,0,.9-.73,1.876,1.876,0,0,0,.329-1.088,1.781,1.781,0,0,0-.462-1.238,2.748,2.748,0,0,0-1.279-.744l-1.03-.308a2.839,2.839,0,0,1-.383-.15.641.641,0,0,1-.228-.178.417.417,0,0,1-.074-.244.456.456,0,0,1,.182-.377Z" fill="#fff"/><path d="M115.458,12.852a2.091,2.091,0,1,1-4.183,0v-5.6h-1.839v5.6a3.93,3.93,0,0,0,7.86,0v-5.6h-1.838v5.6Z" fill="#fff"/><path d="M139.266,13.457a2.19,2.19,0,0,0,.025-.373,3.537,3.537,0,0,0-.22-1.257,3.152,3.152,0,0,0-.64-1.037,2.984,2.984,0,0,0-1.014-.714,3.453,3.453,0,0,0-1.38-.257,3.234,3.234,0,0,0-1.689.455,3.292,3.292,0,0,0-1.189,1.234,3.856,3.856,0,0,0-.006,3.547,3.254,3.254,0,0,0,1.2,1.264,3.452,3.452,0,0,0,1.8.467,3.665,3.665,0,0,0,1.254-.208A3.135,3.135,0,0,0,138.4,16a2.318,2.318,0,0,0,.62-.854l.026-.062-1.394-.685-.032.058a1.586,1.586,0,0,1-.568.588,1.7,1.7,0,0,1-.881.218,1.748,1.748,0,0,1-.916-.24,1.517,1.517,0,0,1-.6-.682,1.892,1.892,0,0,1-.146-.517h4.664a1,1,0,0,0,.091-.357ZM135.2,11.492a1.528,1.528,0,0,1,.838-.234,1.478,1.478,0,0,1,.841.241,1.386,1.386,0,0,1,.578.974h-2.907a1.638,1.638,0,0,1,.1-.292A1.455,1.455,0,0,1,135.2,11.492Z" fill="#fff"/><path d="M155.548,15.2a1.438,1.438,0,0,1-.624-.117.708.708,0,0,1-.341-.331,1.209,1.209,0,0,1-.11-.543V11.306h1.072V9.91h-1.072V8.286h-1.666V9.91h-.536v1.4h.536V14.3a2.439,2.439,0,0,0,.542,1.828,2.481,2.481,0,0,0,1.829.65,4.051,4.051,0,0,0,.419-.026c.149-.016.286-.032.4-.049l.062-.009V15.155l-.308.033c-.075.006-.143.013-.2.013Z" fill="#fff"/><path d="M133.176,9.91h-1.933l-1.292,4a1.521,1.521,0,0,0-.065.3l-.029.221-.03-.221a1.777,1.777,0,0,0-.065-.3l-1.292-4h-1.933l2.546,6.775h1.547Z" fill="#fff"/><path d="M160.579,9.91l-1.371,4a1.6,1.6,0,0,0-.065.3l-.029.221-.029-.221a1.885,1.885,0,0,0-.065-.3l-1.215-4h-1.751l1.754,6.262c.091.325.2.461.419.513l-1.1,2.911h1.832l3.553-9.686h-1.929Z" fill="#fff"/><path d="M119.527,10.39a.655.655,0,0,0-.692-.477h-1v6.772h1.715v-3.95a1.5,1.5,0,0,1,.159-.711,1.127,1.127,0,0,1,.442-.458,1.256,1.256,0,0,1,.649-.166,1.278,1.278,0,0,1,.657.166,1.156,1.156,0,0,1,.435.458,1.476,1.476,0,0,1,.159.711v3.95h1.715V12.362a2.665,2.665,0,0,0-.322-1.326,2.284,2.284,0,0,0-.9-.9,2.641,2.641,0,0,0-1.312-.322,2.426,2.426,0,0,0-1.254.315,1.839,1.839,0,0,0-.429.351s-.013-.055-.026-.1Z" fill="#fff"/><path d="M141.555,10.488s-.013-.055-.026-.1a.655.655,0,0,0-.692-.478h-1v6.772h1.715V12.969a1.645,1.645,0,0,1,.468-1.156A1.506,1.506,0,0,1,143.1,11.4a2.3,2.3,0,0,1,.656.078V9.894a1.181,1.181,0,0,0-.471-.078,2.614,2.614,0,0,0-.932.136,2.305,2.305,0,0,0-.8.533Z" fill="#fff"/><path d="M148.555,25.5a2.112,2.112,0,0,0,.026-.374,3.5,3.5,0,0,0-.221-1.253,3.175,3.175,0,0,0-.636-1.037,2.946,2.946,0,0,0-1.014-.714,3.448,3.448,0,0,0-1.377-.257,3.213,3.213,0,0,0-1.685.455,3.3,3.3,0,0,0-1.189,1.231,3.846,3.846,0,0,0-.007,3.54,3.261,3.261,0,0,0,1.2,1.264,3.441,3.441,0,0,0,1.8.468,3.689,3.689,0,0,0,1.254-.208,3.124,3.124,0,0,0,.988-.578,2.322,2.322,0,0,0,.62-.855l.026-.061-1.393-.683-.033.059a1.556,1.556,0,0,1-.568.585,1.7,1.7,0,0,1-.881.217,1.748,1.748,0,0,1-.916-.24,1.505,1.505,0,0,1-.594-.682,1.919,1.919,0,0,1-.146-.517h4.661a1,1,0,0,0,.091-.357Zm-4.063-1.962a1.528,1.528,0,0,1,.838-.234,1.478,1.478,0,0,1,.841.241,1.386,1.386,0,0,1,.578.974h-2.907a1.638,1.638,0,0,1,.1-.292A1.455,1.455,0,0,1,144.492,23.542Z" fill="#fff"/><rect width="1.773" height="6.772" transform="translate(77.644 21.966)" fill="#fff"/><path d="M78.531,19.306a1.075,1.075,0,1,0,1.075,1.075,1.075,1.075,0,0,0-1.075-1.075" fill="#fff"/><path d="M92.65,23.516a.881.881,0,0,1,.549-.153,1.434,1.434,0,0,1,.815.244,1.332,1.332,0,0,1,.517.646l.042.114,1.387-.653-.036-.094a2.53,2.53,0,0,0-1.043-1.29,3.1,3.1,0,0,0-1.672-.454,3.043,3.043,0,0,0-1.287.26,2.131,2.131,0,0,0-.886.73,1.914,1.914,0,0,0-.322,1.1,1.819,1.819,0,0,0,.448,1.225,2.635,2.635,0,0,0,1.293.757l1.056.3a2.212,2.212,0,0,1,.354.14.712.712,0,0,1,.237.185.371.371,0,0,1,.075.244.481.481,0,0,1-.205.409.994.994,0,0,1-.607.166,1.6,1.6,0,0,1-.926-.289,1.925,1.925,0,0,1-.656-.809l-.046-.1-1.351.649.033.1a2.625,2.625,0,0,0,1.094,1.393,3.374,3.374,0,0,0,1.858.51,3.192,3.192,0,0,0,1.329-.26,2.178,2.178,0,0,0,.9-.731,1.875,1.875,0,0,0,.328-1.088,1.788,1.788,0,0,0-.461-1.237,2.775,2.775,0,0,0-1.276-.744l-1.03-.309a2.87,2.87,0,0,1-.383-.149.594.594,0,0,1-.224-.179.405.405,0,0,1-.075-.243.456.456,0,0,1,.182-.377Z" fill="#fff"/><path d="M88.752,21.966l-1.371,4a1.6,1.6,0,0,0-.065.3l-.029.221-.029-.221a1.885,1.885,0,0,0-.065-.3l-1.215-4H84.231l1.754,6.259c.091.325.2.461.419.513l-1.1,2.91h1.832l3.55-9.679H88.752Z" fill="#fff"/><path d="M139.737,22.541s-.013-.055-.026-.1a.653.653,0,0,0-.689-.478h-1v6.769h1.712V25.022a1.647,1.647,0,0,1,.464-1.153,1.506,1.506,0,0,1,1.072-.409,2.3,2.3,0,0,1,.656.078V21.95a1.164,1.164,0,0,0-.467-.078,2.614,2.614,0,0,0-.932.136,2.306,2.306,0,0,0-.8.533Z" fill="#fff"/><path d="M74.818,22.541s-.013-.055-.026-.1a.653.653,0,0,0-.689-.478h-1v6.769h1.712V25.022a1.647,1.647,0,0,1,.464-1.153,1.506,1.506,0,0,1,1.072-.409,2.3,2.3,0,0,1,.656.078V21.95a1.164,1.164,0,0,0-.467-.078,2.614,2.614,0,0,0-.932.136,2.306,2.306,0,0,0-.8.533Z" fill="#fff"/><path d="M106.792,23.487a1.873,1.873,0,1,1-1.731,1.867,1.8,1.8,0,0,1,1.731-1.867m0-1.608a3.478,3.478,0,1,0,3.339,3.475,3.412,3.412,0,0,0-3.339-3.475" fill="#fff"/><path d="M134.257,23.487a1.873,1.873,0,1,1-1.731,1.867,1.8,1.8,0,0,1,1.731-1.867m0-1.608a3.478,3.478,0,1,0,3.339,3.475,3.412,3.412,0,0,0-3.339-3.475" fill="#fff"/><path d="M82.591,20.943a1.38,1.38,0,0,0-.309,1.01v.013h1.381v1.468H82.282v5.3H80.545v-5.3h-.539V21.966h.539v-.221a2.457,2.457,0,0,1,.695-1.88,2.9,2.9,0,0,1,2.066-.66,3.555,3.555,0,0,1,.357.013v1.5A1.5,1.5,0,0,0,82.591,20.943Z" fill="#fff"/><rect width="1.773" height="9.429" transform="translate(110.66 19.306)" fill="#fff"/><path d="M72.161,24.6a2.12,2.12,0,0,0-.825-.685,1.857,1.857,0,0,0,.575-.653A2.294,2.294,0,0,0,72.226,22a3.016,3.016,0,0,0-.321-1.4,2.41,2.41,0,0,0-.9-.958,2.55,2.55,0,0,0-1.325-.341H65.639v9.429h4.4a2.552,2.552,0,0,0,1.325-.344,2.408,2.408,0,0,0,.9-.965,3.012,3.012,0,0,0,.321-1.413,2.415,2.415,0,0,0-.422-1.413ZM69.31,20.865a1.354,1.354,0,0,1,.669.159,1.118,1.118,0,0,1,.432.439,1.086,1.086,0,0,1,.155.594.977.977,0,0,1-.155.539,1.134,1.134,0,0,1-.432.445,1.585,1.585,0,0,1-.734.159H67.429V20.865Zm1.276,5.671a1.1,1.1,0,0,1-.416.425,1.263,1.263,0,0,1-.643.156h-2.1V24.782h2.043a1.49,1.49,0,0,1,.7.156,1.062,1.062,0,0,1,.416.432,1.18,1.18,0,0,1,.15.594,1.065,1.065,0,0,1-.15.575Z" fill="#fff"/><path d="M58.494,25.633v3.1h1.933v-3.1l2.744-6.327H61.242l-1.686,4a1.588,1.588,0,0,0-.065.3l-.029.221-.029-.221a1.873,1.873,0,0,0-.065-.3l-1.686-4H55.753L58.5,25.633Z" fill="#fff"/><path d="M122.061,28.735h2.007L120.5,19.306h-1.569l-3.6,9.429h2.009l1-2.751h2.714Zm-3.2-4.339.848-2.527.843,2.527Z" fill="#fff"/><path d="M152.234,28.826a2.837,2.837,0,0,0,1.959-.669s.013.055.026.1a.654.654,0,0,0,.689.478h1V19.309h-1.712v3.222h0a2.322,2.322,0,0,0-.556-.367,3.066,3.066,0,0,0-1.331-.289,3.3,3.3,0,0,0-1.728.461,3.344,3.344,0,0,0-1.2,1.254,3.6,3.6,0,0,0-.442,1.76,3.479,3.479,0,0,0,.449,1.761,3.268,3.268,0,0,0,2.851,1.715m-1.328-4.463a1.67,1.67,0,0,1,.627-.666,1.775,1.775,0,0,1,.922-.24,1.664,1.664,0,0,1,1.514.906,2.09,2.09,0,0,1,.224.984,2.121,2.121,0,0,1-.224.981,1.658,1.658,0,0,1-1.514.913,1.7,1.7,0,0,1-1.549-.916,2.066,2.066,0,0,1-.224-.978,2.09,2.09,0,0,1,.224-.984" fill="#fff"/><path d="M129.447,21.967a.654.654,0,0,0-.689.477c-.013.042-.026.1-.026.1a2.583,2.583,0,0,0-1.838-.669,3.146,3.146,0,0,0-2.754,1.715,3.606,3.606,0,0,0-.432,1.761,3.67,3.67,0,0,0,.425,1.76,3.243,3.243,0,0,0,1.16,1.254,3.094,3.094,0,0,0,1.669.461,2.876,2.876,0,0,0,1.286-.289,2.168,2.168,0,0,0,.358-.263v.464a1.547,1.547,0,0,1-.179.76,1.168,1.168,0,0,1-.507.484,1.718,1.718,0,0,1-.782.166,1.783,1.783,0,0,1-.991-.27,1.283,1.283,0,0,1-.552-.734l-1.7.588a2.5,2.5,0,0,0,.679,1.036,3.343,3.343,0,0,0,1.133.718,3.914,3.914,0,0,0,1.433.257,3.575,3.575,0,0,0,1.708-.393,2.99,2.99,0,0,0,1.169-1.085,2.765,2.765,0,0,0,.429-1.527V21.967ZM127.969,27a1.6,1.6,0,0,1-.861.24,1.711,1.711,0,0,1-.89-.24,1.617,1.617,0,0,1-.6-.666,2.326,2.326,0,0,1,0-1.962,1.706,1.706,0,0,1,.608-.669,1.644,1.644,0,0,1,.89-.247,1.558,1.558,0,0,1,.86.241,1.671,1.671,0,0,1,.6.672,2.148,2.148,0,0,1,.218.981,2.178,2.178,0,0,1-.218.984,1.652,1.652,0,0,1-.6.666Z" fill="#fff"/><path d="M102.034,21.967a.654.654,0,0,0-.689.477c-.013.042-.026.1-.026.1a2.583,2.583,0,0,0-1.838-.669,3.146,3.146,0,0,0-2.754,1.715,3.606,3.606,0,0,0-.432,1.761,3.67,3.67,0,0,0,.425,1.76,3.243,3.243,0,0,0,1.16,1.254,3.094,3.094,0,0,0,1.669.461,2.876,2.876,0,0,0,1.286-.289,2.168,2.168,0,0,0,.358-.263v.464a1.547,1.547,0,0,1-.179.76,1.168,1.168,0,0,1-.507.484,1.718,1.718,0,0,1-.782.166,1.784,1.784,0,0,1-.991-.27,1.283,1.283,0,0,1-.552-.734l-1.7.588a2.5,2.5,0,0,0,.679,1.036,3.343,3.343,0,0,0,1.133.718,3.914,3.914,0,0,0,1.433.257,3.575,3.575,0,0,0,1.708-.393,2.99,2.99,0,0,0,1.169-1.085,2.765,2.765,0,0,0,.429-1.527V21.967ZM100.556,27a1.6,1.6,0,0,1-.861.24,1.711,1.711,0,0,1-.89-.24,1.617,1.617,0,0,1-.6-.666,2.326,2.326,0,0,1,0-1.962,1.706,1.706,0,0,1,.608-.669,1.644,1.644,0,0,1,.89-.247,1.558,1.558,0,0,1,.86.241,1.671,1.671,0,0,1,.6.672,2.148,2.148,0,0,1,.218.981,2.179,2.179,0,0,1-.218.984,1.652,1.652,0,0,1-.6.666Z" fill="#fff"/><path d="M118.371,42.026a6.648,6.648,0,0,0,6.885-6.886H55.531V48.909h69.725a6.649,6.649,0,0,0-6.885-6.886ZM64.713,44.592H63.554l-1.1-3.943L61.3,44.592l-1.153.01-1.617-5.714h1.149l1.079,4.236,1.166-4.236h1.156l1.082,4.2,1.081-4.2H66.4l-1.692,5.7Zm6.763,0H70.382v-.5a2.047,2.047,0,0,1-1.443.571,2.214,2.214,0,0,1-2.14-2.371,2.175,2.175,0,0,1,2.156-2.332,1.99,1.99,0,0,1,1.429.559v-.487h1.095v4.56Zm2.416,0H72.807V38.531h1.085Zm5.648-1.926-.013.075H76.205a1.1,1.1,0,0,0,1.146.981.974.974,0,0,0,.952-.562l.026-.052h1.156l-.039.117a2.1,2.1,0,0,1-2.1,1.438,2.353,2.353,0,0,1,0-4.7,2.109,2.109,0,0,1,2.222,2.245,3.069,3.069,0,0,1-.033.458Zm2.9,2a1.744,1.744,0,0,1-1.92-1.5v-.094h1.111l.006.081a.717.717,0,0,0,.786.568c.426,0,.712-.165.712-.435,0-.292-.423-.406-.91-.536-.727-.2-1.633-.438-1.633-1.432,0-.786.747-1.355,1.773-1.355a1.6,1.6,0,0,1,1.783,1.491l.007.094H83.068l-.007-.081c-.029-.351-.3-.562-.731-.562s-.649.146-.649.4c0,.309.423.425.909.562.705.195,1.579.435,1.608,1.406,0,.819-.728,1.387-1.767,1.387Zm7.873-.99a1.459,1.459,0,0,0,1.4-.815l.026-.049H93.01l-.049.123a2.715,2.715,0,0,1-2.65,1.712,2.91,2.91,0,0,1,0-5.82,2.716,2.716,0,0,1,2.65,1.718l.049.123H91.733l-.026-.049a1.459,1.459,0,0,0-1.4-.815,1.946,1.946,0,0,0,0,3.882Zm5.414,2.978H94.592l.942-2.254L93.76,40.035h1.2l1.17,3.173,1.214-3.173h1.134l-2.761,6.616Zm10.982-2.059h-1.078V42.055c0-.714-.368-1.127-1.007-1.127s-1.014.409-1.014,1.127v2.537H102.53V42.055c0-.714-.367-1.127-1.007-1.127s-1.013.409-1.013,1.127v2.537H99.425v-4.56h1.085V40.4a1.932,1.932,0,0,1,2.777.341,1.844,1.844,0,0,1,1.526-.78,1.807,1.807,0,0,1,1.894,1.959Zm3.527-3.511h-.321c-.705,0-.991.325-.991,1.117v2.394h-1.085v-4.56h1.085v.442a1.543,1.543,0,0,1,1.221-.517h.091v1.124Zm5.275,3.511h-1.085v-.383a1.772,1.772,0,0,1-1.205.445,1.806,1.806,0,0,1-1.893-1.959V40.032H112.4v2.53c0,.715.367,1.127,1.007,1.127s1.013-.409,1.013-1.127v-2.53h1.085Z" fill="#fff"/><path d="M77.313,40.906a1.089,1.089,0,0,0-1.091.926h2.221a1.053,1.053,0,0,0-1.127-.926Z" fill="#fff"/><path d="M69.147,40.928a1.261,1.261,0,0,0-1.238,1.364,1.3,1.3,0,0,0,1.238,1.4,1.28,1.28,0,0,0,1.237-1.387,1.267,1.267,0,0,0-1.237-1.38" fill="#fff"/></g></svg>