<svg xmlns="http://www.w3.org/2000/svg" width="45.511" height="32" viewBox="0 0 45.511 32"><path d="M59.493,69.007a5.719,5.719,0,0,0-4.024-4.05C51.92,64,37.689,64,37.689,64s-14.232,0-17.781.957a5.719,5.719,0,0,0-4.024,4.05c-.951,3.572-.951,11.025-.951,11.025s0,7.453.951,11.025a5.633,5.633,0,0,0,4.024,3.985C23.457,96,37.689,96,37.689,96s14.232,0,17.781-.957a5.633,5.633,0,0,0,4.024-3.985c.951-3.572.951-11.025.951-11.025S60.444,72.579,59.493,69.007ZM33.034,86.8V73.265l11.895,6.767L33.034,86.8Z" transform="translate(-14.933 -64)" fill="#fff"/></svg>