<svg xmlns="http://www.w3.org/2000/svg" xmlns:xlink="http://www.w3.org/1999/xlink" width="162.5" height="58" viewBox="0 0 162.5 58"><defs><clipPath id="a"><rect width="162.432" height="57.973" transform="translate(0 0)" fill="none"/></clipPath><clipPath id="c"><rect width="162.5" height="58"/></clipPath></defs><g id="b" clip-path="url(#c)"><rect width="162.5" height="58" fill="#fff"/><g transform="translate(0 0)"><g clip-path="url(#a)"><path d="M45.393,0H3.432A3.43,3.43,0,0,0,0,3.431V33.562a24.41,24.41,0,1,0,48.821,0V3.431A3.425,3.425,0,0,0,45.393,0M17.937,29.03A11.061,11.061,0,1,1,29,17.969,11.059,11.059,0,0,1,17.937,29.03" fill="#272857"/><path d="M56.716,16.684h1.841V8.9h2.279V7.266H54.4V8.9h2.312Z" fill="#272857"/><path d="M81.61,16.775a4.721,4.721,0,0,0,4.617-4.808,4.621,4.621,0,1,0-9.234,0,4.721,4.721,0,0,0,4.617,4.808m0-7.746a2.853,2.853,0,0,1,2.75,2.941,2.756,2.756,0,1,1-5.5,0,2.853,2.853,0,0,1,2.75-2.941" fill="#272857"/><path d="M66.933,11.032a2.284,2.284,0,0,0-.9-.9,2.638,2.638,0,0,0-1.312-.321,2.425,2.425,0,0,0-1.253.314,1.716,1.716,0,0,0-.432.384V7.266H61.33v9.415h1.714V12.8a1.8,1.8,0,0,1,.159-.779,1.131,1.131,0,0,1,.441-.458,1.373,1.373,0,0,1,1.3,0,1.156,1.156,0,0,1,.435.458,1.464,1.464,0,0,1,.16.711v3.951h1.714V12.36a2.661,2.661,0,0,0-.322-1.325Z" fill="#272857"/><path d="M74.326,13.45a2.107,2.107,0,0,0,.026-.373,3.545,3.545,0,0,0-.221-1.257,3.126,3.126,0,0,0-.64-1.035,2.98,2.98,0,0,0-1.013-.714A3.434,3.434,0,0,0,71.1,9.814a3.237,3.237,0,0,0-1.689.455A3.28,3.28,0,0,0,68.222,11.5a3.852,3.852,0,0,0-.006,3.545,3.242,3.242,0,0,0,1.2,1.263,3.443,3.443,0,0,0,1.8.468,3.688,3.688,0,0,0,1.253-.208,3.137,3.137,0,0,0,.99-.578,2.318,2.318,0,0,0,.62-.854l.026-.061-1.393-.685-.032.058a1.586,1.586,0,0,1-.568.588,1.7,1.7,0,0,1-.88.217,1.746,1.746,0,0,1-.916-.24,1.511,1.511,0,0,1-.6-.682,1.912,1.912,0,0,1-.146-.516h4.662a1,1,0,0,0,.091-.357Zm-4.065-1.964a1.526,1.526,0,0,1,.838-.234,1.477,1.477,0,0,1,.84.241,1.387,1.387,0,0,1,.578.973h-2.9a1.583,1.583,0,0,1,.094-.292,1.458,1.458,0,0,1,.555-.688" fill="#272857"/><path d="M100.518,13.45a2.107,2.107,0,0,0,.026-.373,3.545,3.545,0,0,0-.221-1.257,3.126,3.126,0,0,0-.64-1.035,2.98,2.98,0,0,0-1.013-.714,3.434,3.434,0,0,0-1.379-.257,3.237,3.237,0,0,0-1.689.455A3.28,3.28,0,0,0,94.414,11.5a3.852,3.852,0,0,0-.006,3.545,3.242,3.242,0,0,0,1.2,1.263,3.443,3.443,0,0,0,1.8.468,3.688,3.688,0,0,0,1.253-.208,3.137,3.137,0,0,0,.99-.578,2.318,2.318,0,0,0,.62-.854l.026-.061-1.393-.685-.032.058a1.586,1.586,0,0,1-.568.588,1.7,1.7,0,0,1-.88.217,1.746,1.746,0,0,1-.916-.24,1.511,1.511,0,0,1-.6-.682,1.912,1.912,0,0,1-.146-.516h4.662a1,1,0,0,0,.091-.357Zm-4.065-1.964a1.526,1.526,0,0,1,.838-.234,1.477,1.477,0,0,1,.84.241,1.387,1.387,0,0,1,.578.973H95.8a1.582,1.582,0,0,1,.094-.292A1.458,1.458,0,0,1,96.453,11.486Z" fill="#272857"/><path d="M102.606,10.386a.655.655,0,0,0-.692-.477h-1v6.769h1.714V12.73a1.5,1.5,0,0,1,.159-.711,1.127,1.127,0,0,1,.442-.458,1.263,1.263,0,0,1,.649-.165,1.284,1.284,0,0,1,.656.165,1.163,1.163,0,0,1,.435.458,1.476,1.476,0,0,1,.159.711v3.948h1.714V12.357a2.672,2.672,0,0,0-.321-1.325,2.293,2.293,0,0,0-.9-.9,2.634,2.634,0,0,0-1.311-.321,2.415,2.415,0,0,0-1.253.315,1.79,1.79,0,0,0-.429.35s-.013-.055-.026-.1Z" fill="#272857"/><path d="M90.311,9.814a2.834,2.834,0,0,0-1.957.669s-.013-.055-.026-.1a.656.656,0,0,0-.692-.478h-1V19.59h1.715V16.113h0a2.264,2.264,0,0,0,.555.366,3.069,3.069,0,0,0,1.331.289,3.287,3.287,0,0,0,1.727-.461,3.356,3.356,0,0,0,1.2-1.256,3.585,3.585,0,0,0,.442-1.76,3.5,3.5,0,0,0-.448-1.759,3.262,3.262,0,0,0-2.851-1.714Zm1.328,4.461a1.7,1.7,0,0,1-.627.669,1.772,1.772,0,0,1-.922.24,1.66,1.66,0,0,1-.892-.24,1.69,1.69,0,0,1-.62-.669,2.084,2.084,0,0,1-.224-.984,2.053,2.053,0,0,1,.227-.98,1.672,1.672,0,0,1,.62-.672,1.7,1.7,0,0,1,.893-.24,1.786,1.786,0,0,1,.922.246,1.751,1.751,0,0,1,.626.669,2.251,2.251,0,0,1,0,1.964Z" fill="#272857"/><rect width="1.776" height="6.772" transform="translate(124.266 9.909)" fill="#272857"/><path d="M125.153,7.246a1.075,1.075,0,1,0,1.075,1.075,1.077,1.077,0,0,0-1.075-1.075" fill="#272857"/><rect width="1.776" height="6.772" transform="translate(149.884 9.909)" fill="#272857"/><path d="M150.774,7.246a1.075,1.075,0,1,0,1.075,1.075,1.077,1.077,0,0,0-1.075-1.075" fill="#272857"/><path d="M146.037,11.457a.881.881,0,0,1,.549-.153,1.438,1.438,0,0,1,.815.244,1.331,1.331,0,0,1,.516.646l.042.114,1.386-.653-.036-.094a2.51,2.51,0,0,0-1.042-1.289,3.1,3.1,0,0,0-1.672-.454,3.049,3.049,0,0,0-1.285.259,2.12,2.12,0,0,0-.887.734,1.919,1.919,0,0,0-.321,1.1,1.811,1.811,0,0,0,.448,1.223,2.62,2.62,0,0,0,1.292.757l1.055.3a2.176,2.176,0,0,1,.354.14.7.7,0,0,1,.237.185.37.37,0,0,1,.075.243.483.483,0,0,1-.205.41,1,1,0,0,1-.61.165,1.59,1.59,0,0,1-.928-.289,1.908,1.908,0,0,1-.656-.808l-.046-.1-1.354.649.033.094a2.621,2.621,0,0,0,1.094,1.393,3.38,3.38,0,0,0,1.857.51,3.191,3.191,0,0,0,1.328-.26,2.184,2.184,0,0,0,.9-.73A1.875,1.875,0,0,0,149.3,14.7a1.78,1.78,0,0,0-.461-1.237,2.739,2.739,0,0,0-1.279-.743l-1.029-.309a2.718,2.718,0,0,1-.383-.149.643.643,0,0,1-.228-.179.412.412,0,0,1-.074-.243.458.458,0,0,1,.181-.377Z" fill="#272857"/><path d="M115.4,12.846a2.091,2.091,0,1,1-4.182,0v-5.6h-1.837v5.6a3.928,3.928,0,0,0,7.857,0v-5.6H115.4v5.6Z" fill="#272857"/><path d="M139.2,13.45a2.107,2.107,0,0,0,.026-.373,3.545,3.545,0,0,0-.221-1.257,3.126,3.126,0,0,0-.64-1.035,2.98,2.98,0,0,0-1.013-.714,3.434,3.434,0,0,0-1.379-.257,3.237,3.237,0,0,0-1.689.455A3.28,3.28,0,0,0,133.1,11.5a3.852,3.852,0,0,0-.006,3.545,3.242,3.242,0,0,0,1.2,1.263,3.443,3.443,0,0,0,1.8.468,3.688,3.688,0,0,0,1.253-.208,3.137,3.137,0,0,0,.99-.578,2.318,2.318,0,0,0,.62-.854l.026-.061-1.393-.685-.032.058a1.586,1.586,0,0,1-.568.588,1.7,1.7,0,0,1-.88.217,1.746,1.746,0,0,1-.916-.24,1.511,1.511,0,0,1-.6-.682,1.912,1.912,0,0,1-.146-.516h4.662a1,1,0,0,0,.091-.357Zm-4.065-1.964a1.526,1.526,0,0,1,.838-.234,1.477,1.477,0,0,1,.84.241,1.387,1.387,0,0,1,.578.973h-2.9a1.584,1.584,0,0,1,.094-.292A1.458,1.458,0,0,1,135.136,11.486Z" fill="#272857"/><path d="M155.475,15.2a1.431,1.431,0,0,1-.623-.117.7.7,0,0,1-.341-.331,1.191,1.191,0,0,1-.111-.542V11.3h1.072V9.9H154.4V8.282h-1.665V9.9H152.2v1.4h.536v2.99a2.439,2.439,0,0,0,.542,1.828,2.478,2.478,0,0,0,1.828.649,3.776,3.776,0,0,0,.419-.026c.149-.016.285-.032.4-.048l.062-.01V15.148l-.308.033c-.075.006-.143.013-.2.013Z" fill="#272857"/><path d="M133.113,9.9h-1.932l-1.292,4a1.6,1.6,0,0,0-.065.3l-.029.221-.029-.221a1.886,1.886,0,0,0-.065-.3l-1.292-4h-1.932l2.545,6.772h1.546Z" fill="#272857"/><path d="M160.5,9.9l-1.37,4a1.6,1.6,0,0,0-.065.3l-.029.221-.029-.221a1.884,1.884,0,0,0-.065-.3l-1.215-4h-1.749l1.753,6.259c.091.325.2.461.419.513l-1.1,2.909h1.831L162.432,9.9H160.5Z" fill="#272857"/><path d="M119.471,10.386a.654.654,0,0,0-.691-.477h-1v6.769H119.5V12.73a1.5,1.5,0,0,1,.159-.711,1.127,1.127,0,0,1,.442-.458,1.263,1.263,0,0,1,.649-.165,1.284,1.284,0,0,1,.656.165,1.163,1.163,0,0,1,.435.458,1.476,1.476,0,0,1,.159.711v3.948h1.714V12.357a2.672,2.672,0,0,0-.321-1.325,2.293,2.293,0,0,0-.9-.9,2.634,2.634,0,0,0-1.311-.321,2.415,2.415,0,0,0-1.253.315,1.791,1.791,0,0,0-.429.35s-.013-.055-.026-.1Z" fill="#272857"/><path d="M141.489,10.483s-.013-.055-.026-.1a.655.655,0,0,0-.691-.478h-1v6.769h1.714V12.963a1.646,1.646,0,0,1,.467-1.155,1.506,1.506,0,0,1,1.072-.409,2.327,2.327,0,0,1,.656.077V9.889a1.181,1.181,0,0,0-.471-.078,2.614,2.614,0,0,0-.932.136,2.311,2.311,0,0,0-.8.533Z" fill="#272857"/><path d="M148.485,25.492a2.107,2.107,0,0,0,.026-.373,3.524,3.524,0,0,0-.22-1.254,3.186,3.186,0,0,0-.637-1.035,2.951,2.951,0,0,0-1.013-.714,3.429,3.429,0,0,0-1.376-.257,3.213,3.213,0,0,0-1.685.455,3.293,3.293,0,0,0-1.188,1.23,3.844,3.844,0,0,0-.007,3.539,3.263,3.263,0,0,0,1.2,1.263,3.441,3.441,0,0,0,1.8.467,3.659,3.659,0,0,0,1.253-.208,3.071,3.071,0,0,0,.987-.578,2.315,2.315,0,0,0,.62-.853l.026-.062-1.393-.682-.032.059a1.56,1.56,0,0,1-.568.584,1.7,1.7,0,0,1-.88.217,1.746,1.746,0,0,1-.916-.24,1.5,1.5,0,0,1-.594-.682,1.912,1.912,0,0,1-.146-.516H148.4a1,1,0,0,0,.091-.357Zm-4.061-1.961a1.526,1.526,0,0,1,.838-.234,1.484,1.484,0,0,1,.84.24,1.33,1.33,0,0,1,.5.65,1.311,1.311,0,0,1,.078.324h-2.9a1.583,1.583,0,0,1,.094-.292A1.458,1.458,0,0,1,144.424,23.531Z" fill="#272857"/><rect width="1.773" height="6.769" transform="translate(77.608 21.956)" fill="#272857"/><path d="M78.494,19.3a1.074,1.074,0,1,0,1.075,1.075A1.074,1.074,0,0,0,78.494,19.3" fill="#272857"/><path d="M92.606,23.5a.881.881,0,0,1,.549-.153,1.438,1.438,0,0,1,.815.244,1.331,1.331,0,0,1,.516.646l.042.114,1.386-.653-.036-.094a2.522,2.522,0,0,0-1.042-1.289,3.1,3.1,0,0,0-1.672-.454,3.049,3.049,0,0,0-1.285.259,2.127,2.127,0,0,0-.886.731,1.911,1.911,0,0,0-.322,1.1,1.812,1.812,0,0,0,.448,1.224,2.627,2.627,0,0,0,1.292.757l1.055.3a2.089,2.089,0,0,1,.354.14.69.69,0,0,1,.237.185.368.368,0,0,1,.075.243.481.481,0,0,1-.205.409.986.986,0,0,1-.607.166,1.6,1.6,0,0,1-.925-.289,1.922,1.922,0,0,1-.656-.808l-.045-.1-1.351.649.033.094A2.625,2.625,0,0,0,91.47,28.31a3.379,3.379,0,0,0,1.857.51,3.191,3.191,0,0,0,1.328-.26,2.2,2.2,0,0,0,.9-.731,1.88,1.88,0,0,0,.328-1.087,1.786,1.786,0,0,0-.461-1.237,2.784,2.784,0,0,0-1.276-.744l-1.029-.308a2.87,2.87,0,0,1-.383-.149.6.6,0,0,1-.224-.179.405.405,0,0,1-.075-.243.456.456,0,0,1,.182-.377Z" fill="#272857"/><path d="M88.711,21.956l-1.37,3.993a1.6,1.6,0,0,0-.065.3l-.029.22-.029-.22a1.885,1.885,0,0,0-.065-.3l-1.215-3.993H84.192l1.753,6.256c.091.325.2.461.419.513l-1.1,2.909h1.831l3.548-9.675H88.711Z" fill="#272857"/><path d="M139.671,22.531s-.013-.055-.026-.1a.654.654,0,0,0-.688-.478h-1v6.766h1.711V25.011a1.644,1.644,0,0,1,.464-1.152,1.506,1.506,0,0,1,1.072-.409,2.3,2.3,0,0,1,.655.078V21.94a1.164,1.164,0,0,0-.467-.078,2.592,2.592,0,0,0-.932.137,2.3,2.3,0,0,0-.795.532Z" fill="#272857"/><path d="M74.783,22.531s-.013-.055-.026-.1a.654.654,0,0,0-.688-.478h-1v6.766h1.711V25.011a1.644,1.644,0,0,1,.464-1.152,1.506,1.506,0,0,1,1.072-.409,2.3,2.3,0,0,1,.655.078V21.94a1.164,1.164,0,0,0-.467-.078,2.592,2.592,0,0,0-.932.137,2.3,2.3,0,0,0-.795.532Z" fill="#272857"/><path d="M106.742,23.475a1.872,1.872,0,1,1-1.73,1.867,1.8,1.8,0,0,1,1.73-1.867m0-1.607a3.477,3.477,0,1,0,3.337,3.474,3.411,3.411,0,0,0-3.337-3.474" fill="#272857"/><path d="M134.194,23.475a1.872,1.872,0,1,1-1.73,1.867,1.8,1.8,0,0,1,1.73-1.867m0-1.607a3.477,3.477,0,1,0,3.337,3.474,3.411,3.411,0,0,0-3.337-3.474" fill="#272857"/><path d="M82.552,20.933a1.379,1.379,0,0,0-.308,1.01v.013h1.379v1.467H82.244v5.3H80.507v-5.3h-.539V21.956h.539v-.221a2.461,2.461,0,0,1,.694-1.88,2.908,2.908,0,0,1,2.065-.659,3.264,3.264,0,0,1,.357.013v1.5A1.5,1.5,0,0,0,82.552,20.933Z" fill="#272857"/><rect width="1.773" height="9.425" transform="translate(110.608 19.297)" fill="#272857"/><path d="M72.128,24.592a2.127,2.127,0,0,0-.825-.685,1.873,1.873,0,0,0,.575-.652A2.3,2.3,0,0,0,72.192,22a3.015,3.015,0,0,0-.321-1.4,2.4,2.4,0,0,0-.9-.958A2.55,2.55,0,0,0,69.65,19.3H65.609v9.425H70a2.552,2.552,0,0,0,1.325-.344,2.4,2.4,0,0,0,.9-.964A3.018,3.018,0,0,0,72.546,26a2.412,2.412,0,0,0-.422-1.412Zm-2.851-3.736a1.348,1.348,0,0,1,.669.159,1.123,1.123,0,0,1,.432.438,1.086,1.086,0,0,1,.156.594.977.977,0,0,1-.156.539,1.141,1.141,0,0,1-.432.445,1.58,1.58,0,0,1-.734.159H67.4V20.856Zm1.276,5.668a1.1,1.1,0,0,1-.416.425,1.262,1.262,0,0,1-.642.156h-2.1V24.771h2.042a1.5,1.5,0,0,1,.705.156,1.06,1.06,0,0,1,.415.432,1.18,1.18,0,0,1,.15.594,1.061,1.061,0,0,1-.15.574Z" fill="#272857"/><path d="M58.466,25.621v3.1H60.4v-3.1L63.141,19.3H61.213L59.528,23.29a1.511,1.511,0,0,0-.065.295l-.03.221-.029-.221a1.767,1.767,0,0,0-.065-.295L57.654,19.3H55.726l2.743,6.324Z" fill="#272857"/><path d="M122,28.721h2.006L120.445,19.3h-1.568l-3.593,9.424h2.009l1-2.749h2.714Zm-3.2-4.337.847-2.526.844,2.526Z" fill="#272857"/><path d="M152.164,28.813a2.834,2.834,0,0,0,1.957-.669s.013.055.026.1a.655.655,0,0,0,.689.478h1V19.3h-1.711v3.221h0a2.3,2.3,0,0,0-.555-.367,3.083,3.083,0,0,0-1.331-.289,3.3,3.3,0,0,0-1.727.461,3.339,3.339,0,0,0-1.2,1.253,3.6,3.6,0,0,0-.442,1.76,3.488,3.488,0,0,0,.448,1.76,3.27,3.27,0,0,0,2.851,1.714m-1.328-4.461a1.677,1.677,0,0,1,.627-.666,1.772,1.772,0,0,1,.922-.24,1.668,1.668,0,0,1,.892.24,1.688,1.688,0,0,1,.62.666,2.076,2.076,0,0,1,.224.984,2.108,2.108,0,0,1-.224.98,1.672,1.672,0,0,1-.62.672,1.693,1.693,0,0,1-.892.24,1.7,1.7,0,0,1-1.549-.915,2.059,2.059,0,0,1-.224-.977,2.088,2.088,0,0,1,.224-.984" fill="#272857"/><path d="M129.386,21.956a.653.653,0,0,0-.688.477c-.013.042-.026.1-.026.1a2.578,2.578,0,0,0-1.838-.669,3.145,3.145,0,0,0-2.753,1.714,3.609,3.609,0,0,0-.431,1.76,3.655,3.655,0,0,0,.425,1.759,3.244,3.244,0,0,0,1.159,1.253,3.094,3.094,0,0,0,1.669.461,2.875,2.875,0,0,0,1.285-.289,2.066,2.066,0,0,0,.357-.263v.465a1.545,1.545,0,0,1-.178.759,1.174,1.174,0,0,1-.507.484,1.728,1.728,0,0,1-.782.166,1.782,1.782,0,0,1-.99-.27,1.283,1.283,0,0,1-.552-.734l-1.7.588a2.5,2.5,0,0,0,.678,1.036,3.366,3.366,0,0,0,1.133.717,3.913,3.913,0,0,0,1.432.257,3.575,3.575,0,0,0,1.708-.393,2.987,2.987,0,0,0,1.168-1.085,2.76,2.76,0,0,0,.429-1.525V21.956Zm-1.477,5.032a1.6,1.6,0,0,1-.86.24,1.711,1.711,0,0,1-.89-.24,1.617,1.617,0,0,1-.6-.666,2.321,2.321,0,0,1,0-1.96,1.7,1.7,0,0,1,.607-.669,1.64,1.64,0,0,1,.89-.247,1.558,1.558,0,0,1,.86.24,1.685,1.685,0,0,1,.6.672,2.147,2.147,0,0,1,.217.981,2.177,2.177,0,0,1-.217.983,1.659,1.659,0,0,1-.6.666Z" fill="#272857"/><path d="M101.985,21.956a.653.653,0,0,0-.688.477c-.013.042-.026.1-.026.1a2.578,2.578,0,0,0-1.838-.669,3.145,3.145,0,0,0-2.753,1.714,3.609,3.609,0,0,0-.431,1.76,3.655,3.655,0,0,0,.425,1.759,3.244,3.244,0,0,0,1.159,1.253,3.094,3.094,0,0,0,1.669.461,2.875,2.875,0,0,0,1.285-.289,2.066,2.066,0,0,0,.357-.263v.465a1.545,1.545,0,0,1-.178.759,1.174,1.174,0,0,1-.507.484,1.728,1.728,0,0,1-.782.166,1.782,1.782,0,0,1-.99-.27,1.283,1.283,0,0,1-.552-.734l-1.7.588a2.5,2.5,0,0,0,.678,1.036,3.366,3.366,0,0,0,1.133.717,3.913,3.913,0,0,0,1.432.257,3.576,3.576,0,0,0,1.708-.393,2.987,2.987,0,0,0,1.168-1.085,2.76,2.76,0,0,0,.429-1.525V21.956Zm-1.477,5.032a1.6,1.6,0,0,1-.86.24,1.711,1.711,0,0,1-.89-.24,1.617,1.617,0,0,1-.6-.666,2.321,2.321,0,0,1,0-1.96,1.7,1.7,0,0,1,.607-.669,1.64,1.64,0,0,1,.89-.247,1.558,1.558,0,0,1,.86.24,1.685,1.685,0,0,1,.6.672,2.147,2.147,0,0,1,.217.981,2.177,2.177,0,0,1-.217.983,1.659,1.659,0,0,1-.6.666Z" fill="#272857"/><path d="M118.315,42.006a6.645,6.645,0,0,0,6.883-6.882H55.505V48.886H125.2A6.646,6.646,0,0,0,118.315,42ZM64.683,44.571H63.524L62.43,40.63l-1.162,3.941-1.153.01L58.5,38.87h1.15L60.726,43.1l1.165-4.234h1.156l1.081,4.2,1.081-4.2h1.159l-1.692,5.7Zm6.759,0H70.348v-.5a2.04,2.04,0,0,1-1.441.571,2.213,2.213,0,0,1-2.14-2.37,2.175,2.175,0,0,1,2.156-2.331,1.987,1.987,0,0,1,1.428.559v-.487h1.094v4.558Zm2.416,0H72.774V38.513h1.084ZM79.5,42.646l-.013.075H76.169a1.1,1.1,0,0,0,1.146.98.971.971,0,0,0,.951-.562l.026-.052h1.156l-.039.117a2.1,2.1,0,0,1-2.1,1.438,2.352,2.352,0,0,1,0-4.7,2.107,2.107,0,0,1,2.22,2.244,3.066,3.066,0,0,1-.032.458Zm2.9,2a1.742,1.742,0,0,1-1.919-1.5v-.1h1.111l.006.082a.716.716,0,0,0,.786.568c.425,0,.711-.166.711-.435,0-.293-.422-.406-.909-.536-.727-.195-1.633-.438-1.633-1.432,0-.785.747-1.354,1.772-1.354a1.6,1.6,0,0,1,1.783,1.491l.006.094H83.029l-.007-.081c-.029-.351-.3-.562-.73-.562s-.649.146-.649.4c0,.308.422.425.909.561.7.195,1.578.435,1.607,1.406,0,.818-.727,1.386-1.766,1.386Zm7.87-.99a1.458,1.458,0,0,0,1.4-.815l.026-.048h1.275l-.048.123a2.715,2.715,0,0,1-2.649,1.711,2.909,2.909,0,0,1,0-5.818,2.716,2.716,0,0,1,2.649,1.718l.048.123H91.691l-.026-.049a1.46,1.46,0,0,0-1.4-.815,1.945,1.945,0,0,0,0,3.88Zm5.412,2.977H94.548l.941-2.253-1.773-4.36h1.2l1.169,3.172L97.3,40.016h1.133l-2.76,6.613Zm10.976-2.058h-1.078V42.035c0-.714-.367-1.126-1.006-1.126s-1.013.409-1.013,1.126v2.536h-1.078V42.035c0-.714-.367-1.126-1.006-1.126s-1.013.409-1.013,1.126v2.536H99.378V40.013h1.085v.367a1.929,1.929,0,0,1,2.775.341,1.845,1.845,0,0,1,1.526-.78,1.806,1.806,0,0,1,1.893,1.958Zm3.526-3.509h-.322c-.7,0-.99.324-.99,1.116v2.393h-1.084V40.013h1.084v.441a1.545,1.545,0,0,1,1.221-.516h.091v1.124Zm5.272,3.509h-1.084v-.383a1.772,1.772,0,0,1-1.205.445,1.806,1.806,0,0,1-1.892-1.958V40.013h1.077v2.529c0,.714.367,1.126,1.007,1.126s1.013-.409,1.013-1.126V40.013h1.084Z" fill="#272857"/><path d="M77.276,40.886a1.089,1.089,0,0,0-1.091.925h2.221a1.054,1.054,0,0,0-1.127-.925Z" fill="#272857"/><path d="M69.115,40.909a1.259,1.259,0,0,0-1.237,1.364,1.3,1.3,0,0,0,1.237,1.4,1.28,1.28,0,0,0,1.237-1.386,1.267,1.267,0,0,0-1.237-1.38" fill="#272857"/></g></g></g></svg>