<?xml version="1.0" encoding="UTF-8"?>
<!-- Created with Inkscape (http://www.inkscape.org/) -->
<svg id="SVGRoot" width="60px" height="60px" version="1.1" viewBox="0 0 60 60" xmlns="http://www.w3.org/2000/svg" xmlns:cc="http://creativecommons.org/ns#" xmlns:dc="http://purl.org/dc/elements/1.1/" xmlns:rdf="http://www.w3.org/1999/02/22-rdf-syntax-ns#">
 <defs id="defs815">
  <clipPath id="clipPath176">
   <path id="path178" d="M 0,841.89 H 595.28 V 0 H 0 Z"/>
  </clipPath>
  <clipPath id="clipPath200">
   <path id="path202" d="m284.96 234.64h131.13v-82.125h-131.13z"/>
  </clipPath>
  <clipPath id="clipPath216">
   <path id="path218" d="m276.33 247.68h17.333v-14.517h-17.333z"/>
  </clipPath>
  <clipPath id="clipPath232">
   <path id="path234" d="m254.67 247.72h19.5v-26.042h-19.5z"/>
  </clipPath>
  <clipPath id="clipPath252">
   <path id="path254" d="m248.21 227.35h33.167v-19h-33.167z"/>
  </clipPath>
  <clipPath id="clipPath184-7">
   <path id="path186-5" d="m282.3 241.52h22.293v-8.079h-22.293z"/>
  </clipPath>
 </defs>
 <metadata id="metadata818">
  <rdf:RDF>
   <cc:Work rdf:about="">
    <dc:format>image/svg+xml</dc:format>
    <dc:type rdf:resource="http://purl.org/dc/dcmitype/StillImage"/>
   </cc:Work>
  </rdf:RDF>
 </metadata>
 <g id="layer1">
  <g id="g4" transform="matrix(.28573 0 0 .27518 -8.8873 30.506)">
   <path id="path206" d="m176.95 85.192c-9.8296 0.02487-19.714-0.36465-29.492-0.07813 8.2679-39.925 16.542-79.878 24.805-119.8l28.477-0.07812c11.056 0.05175 24.338 0.91313 29.883 12.266 6.8369 15.228 1.6219 37.065-14.648 43.984-8.3641 0.8978-0.0201 3.8639 3.1641 5.1562 10.079 6.6443 10.365 20.321 8.125 30.977-0.91079 11.809-9.621 22.117-21.055 25.117-9.6467 1.9878-19.428 2.4361-29.258 2.4609zm56.094-13.555c-72.344 15.078-36.172 7.5391 0 0z" fill="#272a7c" stroke-width="1.25"/>
   <path id="path3703" d="m145.92 86.886 0.46875-2.2656 3.3594-16.328c0.30886-1.2253 0.63488-3.0495 0.97656-4.4922l20.469-98.945 0.27344-1.4844h1.5234c10.13-0.01949 20.26-0.11719 30.391-0.11719l-0.17677-0.01025c11.447 0.19778 19.875 2.1004 24.883 6.875 5.2016 4.8478 7.9112 11.905 7.9112 20.518 0 3.1315-0.21322 6.1235-0.66406 8.9453v0.039062c-1.0339 6.0859-3.6557 11.52-7.7734 16.211-2.8451 3.2502-6.3614 5.6724-10.391 7.3438 3.9098 1.7229 6.9966 3.978 9.1406 6.875 0.0112 0.01389 0.0281 0.02514 0.039 0.03906 3.1597 4.0366 4.6094 9.687 4.6094 16.758 0 3.3672-0.35356 6.9841-1.0156 10.859-3e-3 0.01314 2e-3 0.02593 0 0.03906-1.6972 10.804-6.6641 18.846-14.766 23.477-8.065 4.5585-19.627 5.6642-33.633 5.6641h-33.32-2.3047zm4.6094-3.7499h31.016c13.789 1e-4 24.877-1.284 31.797-5.1953 7.0886-4.0515 11.363-10.797 12.93-20.82 0.63567-3.7091 0.9375-7.1379 0.9375-10.273 0-6.5848-1.3657-11.367-3.8281-14.492l-0.039-0.03906c-2.3891-3.2493-6.4608-5.7572-12.5-7.4219l0.11713-3.6328c5.7347-1.2295 10.206-3.8816 13.75-7.9297 3.6998-4.2145 5.993-8.9142 6.9141-14.336 0.41669-2.6081 0.625-5.4109 0.625-8.3594 0-7.8922-2.2091-13.638-6.5625-17.695-4.0448-3.8565-12.112-5.9375-24.18-5.9375h-1.875l-25.078 0.11719-20.234 97.734-0.039 0.23438-0.0781 0.19531-0.23438 0.46875 0.15625 0.03906-0.35156 1.6406-3.2422 15.703z" color="#000000" fill="#272a7c" style="text-decoration-line:none;text-indent:0;text-transform:none"/>
   <path id="path170-3" d="m194.63 15.663c-7.2155 0.06707-12.311 6.1252-16.124 11.539-5.3558 5.8119-11.993 10.27-17.922 15.469-2.5695 2.7542-7.1538 4.5615-7.8381 8.5129 1.9515 4.7153-2.4698 7.4805-5.2491 10.455-6.9551 7.1786-14.451 13.949-20.336 22.07-1.8749 2.0927-2.7954 6.6543 1.1492 6.4566 1.2203 1.1484 2.1359 1.1548 1.7925 3.1027 3.6204-1.2393 6.5678-4.0602 9.6378-6.3311 7.7902-6.4066 14.175-14.357 22.068-20.63 6.6685-5.1057 15.008-6.9495 22.506-10.385 6.1071-3.4449 10.953-9.2348 12.307-16.224 1.4209-4.6613 0.99078-10.194 3.8528-14.16 4.0404-1.0696 8.2649-1.7637 12.312-2.6562-3.389-0.53905-6.7781-1.0779-10.125-1.8438-0.25411-3.8032-4.7968-5.355-8.0312-5.375z" fill="#46ac32" stroke="#fff" stroke-width="1.1"/>
   <g id="g174" transform="matrix(1.25 0 0 -1.25 -146.97 273.65)" clip-path="url(#clipPath176)">
    <g id="g196">
     <g id="g204">
      <g id="g206" clip-path="url(#clipPath200)" opacity=".7">
       <g id="g208" transform="translate(284.96 234.64)">
        <path id="path210" d="m1.6971-0.91924 19.191-14.496 0.81001 3.2772-0.31568 3.6608z" fill="#fff"/>
       </g>
      </g>
     </g>
    </g>
    <g id="g212">
     <g id="g220">
      <g id="g222" clip-path="url(#clipPath216)" opacity=".5"></g>
     </g>
    </g>
    <g id="g228" transform="matrix(1.048 0 0 1 -13.146 0)">
     <g id="g236">
      <g id="g238" clip-path="url(#clipPath232)" opacity=".5">
       <g id="g240" transform="translate(274.17 221.68)">
        <path id="path242" d="m-0.35355 0.70711-19.146 17.376 1.667 7.875 9.25 0.084z" fill="#fff"/>
       </g>
      </g>
     </g>
    </g>
    <g id="g244" transform="translate(273.69 202.39)">
     <path id="path246" d="m0 0c0-0.76-0.615-1.375-1.375-1.375s-1.375 0.615-1.375 1.375 0.615 1.375 1.375 1.375 1.375-0.615 1.375-1.375" fill="#283172"/>
    </g>
    <g id="g248" transform="matrix(1.0241 0 0 1 -6.7515 0)">
     <g id="g256">
      <g id="g258" clip-path="url(#clipPath252)" opacity=".8">
       <g id="g260" transform="translate(281.38 217.06)">
        <path id="path262" d="m-0.84853 0.6364-32.318-9.3454 3.917 19z" fill="#fff"/>
       </g>
      </g>
     </g>
    </g>
    <g id="g180" transform="matrix(1.0443 0 0 1 -13.602 .36176)">
     <g id="g188" transform="rotate(2.2516 293.45 237.48)">
      <g id="g190" clip-path="url(#clipPath184-7)" opacity=".8">
       <g id="g192" transform="translate(282.3 235.19)">
        <path id="path194" d="m-0.13254 0.075976 18.34 6.253s1.421-1.484 2.543-3.662c1.269-2.463 1.542-4.417 1.542-4.417z" fill="#fff"/>
       </g>
      </g>
     </g>
    </g>
    <g id="g272" transform="translate(290.45 227.91)" stroke="#fff" stroke-width=".88">
     <path id="path274" d="m0-1.3879c0-4.846-3.93-8.775-8.775-8.775-4.846 0-8.776 3.929-8.776 8.775 0 4.847 3.93 8.775 8.776 8.775 4.845 0 8.775-3.928 8.775-8.775" fill="#46ac32" stroke="#fff" stroke-width=".88"/>
    </g>
   </g>
   <path id="path226" d="m213.09-35.126s-3.921-0.77504-7.5205-0.88924c-3.9771-0.30432-7.8119 0.02475-7.8119 0.02475l-1.4724 20.092z" fill="#fff" opacity=".5"/>
  </g>
  <g id="g8801" transform="matrix(.93396 0 0 1.179 -55.327 -31.051)">
   <path id="path1371" d="m85.059 40.356c-8.4773-19.66-35.338 0.93591-17.363 11.609 2.3465 2.1117 6.0885 1.3682 6.7703 1.7343-3.5484 12.268 14.412 12.36 11.17-2.0285" fill="none" stroke="#000" stroke-width="1.089"/>
   <path id="path1373" d="m81.7 49.633c-7.0322-1.2929-4.9771-6.0179-0.078756-7.366-4.2368-7.6992-8.7697-5.9061-11.723-0.92995" fill="none" stroke="#000" stroke-width=".72031px"/>
   <g id="g1383" transform="matrix(-.83219 0 0 .62348 105.18 27.83)">
    <path id="path1377" d="m1.5234 29.355 5.8958 0.05783 0.31517-9.1399 2.2266 21.445 2.9297-20.039 1.4674 13.06 1.8363-5.9808 7.7706 0.18689" fill="none" stroke="#000" stroke-linejoin="round" stroke-width="1px"/>
   </g>
  </g>
 </g>
</svg>
