<?xml version="1.0" encoding="UTF-8" standalone="no"?>
<!-- Created with Inkscape (http://www.inkscape.org/) -->

<svg
   xmlns:dc="http://purl.org/dc/elements/1.1/"
   xmlns:cc="http://creativecommons.org/ns#"
   xmlns:rdf="http://www.w3.org/1999/02/22-rdf-syntax-ns#"
   xmlns:svg="http://www.w3.org/2000/svg"
   xmlns="http://www.w3.org/2000/svg"
   xmlns:sodipodi="http://sodipodi.sourceforge.net/DTD/sodipodi-0.dtd"
   xmlns:inkscape="http://www.inkscape.org/namespaces/inkscape"
   width="48"
   height="48"
   viewBox="0 0 12.7 12.7"
   version="1.1"
   id="svg8"
   inkscape:version="0.92.5 (2060ec1f9f, 2020-04-08)"
   sodipodi:docname="concatenate_nxtomos.svg"
   inkscape:export-filename="/media/payno/830add5c-f5d7-4db2-875e-03be4f0a67f0/dev/tomography/tomwer/orangecontrib/tomwer/widgets/control/icons/concatenate_nxtomos.png"
   inkscape:export-xdpi="59.900002"
   inkscape:export-ydpi="59.900002">
  <defs
     id="defs2">
    <marker
       inkscape:stockid="Arrow2Mend"
       orient="auto"
       refY="0.0"
       refX="0.0"
       id="Arrow2Mend"
       style="overflow:visible;"
       inkscape:isstock="true">
      <path
         id="path1902"
         style="fill-rule:evenodd;stroke-width:0.625;stroke-linejoin:round;stroke:#000000;stroke-opacity:1;fill:#000000;fill-opacity:1"
         d="M 8.7185878,4.0337352 L -2.2072895,0.016013256 L 8.7185884,-4.0017078 C 6.9730900,-1.6296469 6.9831476,1.6157441 8.7185878,4.0337352 z "
         transform="scale(0.6) rotate(180) translate(0,0)" />
    </marker>
    <marker
       inkscape:stockid="Arrow1Lend"
       orient="auto"
       refY="0.0"
       refX="0.0"
       id="Arrow1Lend"
       style="overflow:visible;"
       inkscape:isstock="true">
      <path
         id="path1878"
         d="M 0.0,0.0 L 5.0,-5.0 L -12.5,0.0 L 5.0,5.0 L 0.0,0.0 z "
         style="fill-rule:evenodd;stroke:#000000;stroke-width:1pt;stroke-opacity:1;fill:#000000;fill-opacity:1"
         transform="scale(0.8) rotate(180) translate(12.5,0)" />
    </marker>
    <marker
       inkscape:stockid="Arrow2Mend"
       orient="auto"
       refY="0"
       refX="0"
       id="Arrow2Mend-3"
       style="overflow:visible"
       inkscape:isstock="true">
      <path
         inkscape:connector-curvature="0"
         id="path1902-6"
         style="fill:#000000;fill-opacity:1;fill-rule:evenodd;stroke:#000000;stroke-width:0.625;stroke-linejoin:round;stroke-opacity:1"
         d="M 8.7185878,4.0337352 -2.2072895,0.01601326 8.7185884,-4.0017078 c -1.7454984,2.3720609 -1.7354408,5.6174519 -6e-7,8.035443 z"
         transform="scale(-0.6)" />
    </marker>
  </defs>
  <sodipodi:namedview
     id="base"
     pagecolor="#ffffff"
     bordercolor="#666666"
     borderopacity="1.0"
     inkscape:pageopacity="0.0"
     inkscape:pageshadow="2"
     inkscape:zoom="7.9195959"
     inkscape:cx="51.218248"
     inkscape:cy="33.520255"
     inkscape:document-units="mm"
     inkscape:current-layer="text2005"
     showgrid="false"
     units="px"
     inkscape:window-width="1848"
     inkscape:window-height="1136"
     inkscape:window-x="72"
     inkscape:window-y="27"
     inkscape:window-maximized="1" />
  <metadata
     id="metadata5">
    <rdf:RDF>
      <cc:Work
         rdf:about="">
        <dc:format>image/svg+xml</dc:format>
        <dc:type
           rdf:resource="http://purl.org/dc/dcmitype/StillImage" />
        <dc:title />
      </cc:Work>
    </rdf:RDF>
  </metadata>
  <g
     inkscape:label="Layer 1"
     inkscape:groupmode="layer"
     id="layer1"
     transform="translate(0,-284.3)">
    <g
       style="font-style:normal;font-weight:normal;font-size:10.58333302px;line-height:1.25;font-family:sans-serif;letter-spacing:0px;word-spacing:0px;fill:#000000;fill-opacity:1;stroke:none;stroke-width:0.26458332"
       id="text817" />
    <g
       transform="matrix(0.63149836,0,0,1.2404545,0.62365406,47.657016)"
       style="font-style:normal;font-variant:normal;font-weight:normal;font-stretch:normal;font-size:15.24015903px;line-height:1.25;font-family:sans-serif;-inkscape-font-specification:sans-serif;letter-spacing:0px;word-spacing:0px;opacity:1;fill:#000000;fill-opacity:1;stroke:none;stroke-width:0.07525919"
       id="text2005">
      <g
         id="g838">
        <path
           style="color:#000000;font-style:normal;font-variant:normal;font-weight:normal;font-stretch:normal;font-size:medium;line-height:1.25;font-family:sans-serif;-inkscape-font-specification:sans-serif;font-variant-ligatures:normal;font-variant-position:normal;font-variant-caps:normal;font-variant-numeric:normal;font-variant-alternates:normal;font-feature-settings:normal;text-indent:0;text-align:start;text-decoration:none;text-decoration-line:none;text-decoration-style:solid;text-decoration-color:#000000;letter-spacing:0px;word-spacing:0px;text-transform:none;writing-mode:lr-tb;direction:ltr;text-orientation:mixed;dominant-baseline:auto;baseline-shift:baseline;text-anchor:start;white-space:normal;shape-padding:0;clip-rule:nonzero;display:inline;overflow:visible;visibility:visible;opacity:1;isolation:auto;mix-blend-mode:normal;color-interpolation:sRGB;color-interpolation-filters:linearRGB;solid-color:#000000;solid-opacity:1;vector-effect:none;fill:#000000;fill-opacity:1;fill-rule:nonzero;stroke:none;stroke-width:0.56492847;stroke-linecap:butt;stroke-linejoin:miter;stroke-miterlimit:4;stroke-dasharray:none;stroke-dashoffset:0;stroke-opacity:1;color-rendering:auto;image-rendering:auto;shape-rendering:auto;text-rendering:auto;enable-background:accumulate"
           d="m 17.28125,193.73828 -16.71289062,0.0176 v 0.56641 L 17.28125,194.30273 Z"
           id="path1873"
           inkscape:connector-curvature="0" />
        <path
           d="m 14.323827,192.65629 3.70495,1.35762 -3.701853,1.36605 c 0.590734,-0.8047 0.586075,-1.90475 -0.0031,-2.72367 z"
           style="fill:#000000;fill-opacity:1;fill-rule:evenodd;stroke:#000000;stroke-width:0.21184817;stroke-linejoin:round;stroke-opacity:1"
           id="path844"
           inkscape:connector-curvature="0" />
      </g>
      <path
         style="color:#000000;font-style:normal;font-variant:normal;font-weight:normal;font-stretch:normal;font-size:15.24015903px;line-height:1.25;font-family:sans-serif;-inkscape-font-specification:sans-serif;font-variant-ligatures:normal;font-variant-position:normal;font-variant-caps:normal;font-variant-numeric:normal;font-variant-alternates:normal;font-feature-settings:normal;text-indent:0;text-align:start;text-decoration:none;text-decoration-line:none;text-decoration-style:solid;text-decoration-color:#000000;letter-spacing:0px;word-spacing:0px;text-transform:none;writing-mode:lr-tb;direction:ltr;text-orientation:mixed;dominant-baseline:auto;baseline-shift:baseline;text-anchor:start;white-space:normal;shape-padding:0;clip-rule:nonzero;display:inline;overflow:visible;visibility:visible;opacity:1;isolation:auto;mix-blend-mode:normal;color-interpolation:sRGB;color-interpolation-filters:linearRGB;solid-color:#000000;solid-opacity:1;vector-effect:none;fill:#000000;fill-opacity:1;fill-rule:nonzero;stroke:none;stroke-width:0.56492847;stroke-linecap:butt;stroke-linejoin:miter;stroke-miterlimit:4;stroke-dasharray:none;stroke-dashoffset:0;stroke-opacity:1;color-rendering:auto;image-rendering:auto;shape-rendering:auto;text-rendering:auto;enable-background:accumulate"
         d="m 0.58984375,191.07617 0.0117188,0.56641 c 2.8711456,-0.0599 5.2790636,0.3954 7.0507813,1.04492 l 0.00586,0.004 h 0.00586 c 1.8578476,0.59292 3.7308535,1.60531 7.1074215,1.63086 l 0.0039,-0.56641 c -3.259828,-0.0247 -5.0040168,-0.98213 -6.9277348,-1.59766 -1.8464721,-0.67692 -4.320294,-1.14332 -7.25781245,-1.08203 z"
         id="path1873-7"
         inkscape:connector-curvature="0" />
      <path
         style="color:#000000;font-style:normal;font-variant:normal;font-weight:normal;font-stretch:normal;font-size:15.24015903px;line-height:1.25;font-family:sans-serif;-inkscape-font-specification:sans-serif;font-variant-ligatures:normal;font-variant-position:normal;font-variant-caps:normal;font-variant-numeric:normal;font-variant-alternates:normal;font-feature-settings:normal;text-indent:0;text-align:start;text-decoration:none;text-decoration-line:none;text-decoration-style:solid;text-decoration-color:#000000;letter-spacing:0px;word-spacing:0px;text-transform:none;writing-mode:lr-tb;direction:ltr;text-orientation:mixed;dominant-baseline:auto;baseline-shift:baseline;text-anchor:start;white-space:normal;shape-padding:0;clip-rule:nonzero;display:inline;overflow:visible;visibility:visible;opacity:1;isolation:auto;mix-blend-mode:normal;color-interpolation:sRGB;color-interpolation-filters:linearRGB;solid-color:#000000;solid-opacity:1;vector-effect:none;fill:#000000;fill-opacity:1;fill-rule:nonzero;stroke:none;stroke-width:0.56157011;stroke-linecap:butt;stroke-linejoin:miter;stroke-miterlimit:4;stroke-dasharray:none;stroke-dashoffset:0;stroke-opacity:1;color-rendering:auto;image-rendering:auto;shape-rendering:auto;text-rendering:auto;enable-background:accumulate"
         d="m 14.771484,193.75781 c -3.37559,0.0252 -5.2471096,1.02528 -7.1054684,1.61133 h -0.00586 l -0.00586,0.002 c -1.7722272,0.64201 -4.1810029,1.09439 -7.0527344,1.03516 l -0.0117188,0.5625 C 3.5213259,197.02921 5.9891234,196.571 7.8339844,195.9043 l 0.011719,-0.004 c 1.9232082,-0.60807 3.6688929,-1.5557 6.9296879,-1.58008 z"
         id="path1873-7-5"
         inkscape:connector-curvature="0" />
      <g
         transform="matrix(0.95322397,0,0,0.65787797,0.26370848,68.640045)"
         style="font-style:normal;font-variant:normal;font-weight:normal;font-stretch:normal;font-size:15.24015903px;line-height:1.25;font-family:sans-serif;-inkscape-font-specification:sans-serif;letter-spacing:0px;word-spacing:0px;opacity:1;fill:#000000;fill-opacity:1;stroke:none;stroke-width:0.07525919"
         id="text2005-3">
        <path
           inkscape:connector-curvature="0"
           d="M 0.19471413,195.6209 H 1.1392864 l 2.2989224,4.3374 v -4.3374 h 0.6806477 v 5.18473 H 3.1742841 l -2.29892227,-4.33739 v 4.33739 h -0.6806477 z"
           style="font-style:normal;font-variant:normal;font-weight:normal;font-stretch:normal;font-size:7.1120739px;font-family:'Noto Serif Gurmukhi';-inkscape-font-specification:'Noto Serif Gurmukhi';stroke-width:0.07525919"
           id="path869-5" />
        <path
           inkscape:connector-curvature="0"
           d="m 5.264845,195.6209 h 0.7535742 l 1.2883689,1.92735 1.2953142,-1.92735 h 0.7535742 l -1.6668923,2.48992 1.7780185,2.69481 H 8.7132284 l -1.4585307,-2.20516 -1.4689489,2.20516 H 5.0287019 l 1.850945,-2.76773 z"
           style="font-style:normal;font-variant:normal;font-weight:normal;font-stretch:normal;font-size:7.1120739px;font-family:'Noto Serif Gurmukhi';-inkscape-font-specification:'Noto Serif Gurmukhi';stroke-width:0.07525919"
           id="path871-6" />
        <path
           inkscape:connector-curvature="0"
           d="m 10.340185,198.30877 v 0.55216 h 0.658075 v 0.24829 h -0.658075 v 1.0557 q 0,0.23788 0.06424,0.3056 0.06598,0.0677 0.265661,0.0677 h 0.328169 v 0.26739 h -0.328169 q -0.369842,0 -0.510486,-0.13717 -0.140644,-0.13891 -0.140644,-0.50354 v -1.0557 H 9.7845543 v -0.24829 h 0.2344067 v -0.55216 z"
           style="font-style:normal;font-variant:normal;font-weight:normal;font-stretch:normal;font-size:3.55603695px;font-family:'Noto Serif Gurmukhi';-inkscape-font-specification:'Noto Serif Gurmukhi';stroke-width:0.07525919"
           id="path873" />
        <path
           inkscape:connector-curvature="0"
           d="m 12.17203,199.08491 q -0.25698,0 -0.406305,0.20142 -0.149326,0.19968 -0.149326,0.54869 0,0.349 0.147589,0.55042 0.149326,0.19968 0.408042,0.19968 0.255242,0 0.404568,-0.20142 0.149326,-0.20141 0.149326,-0.54868 0,-0.34554 -0.149326,-0.54695 -0.149326,-0.20316 -0.404568,-0.20316 z m 0,-0.27087 q 0.416723,0 0.654602,0.27087 0.237879,0.27087 0.237879,0.75011 0,0.47749 -0.237879,0.7501 -0.237879,0.27087 -0.654602,0.27087 -0.41846,0 -0.656339,-0.27087 -0.236143,-0.27261 -0.236143,-0.7501 0,-0.47924 0.236143,-0.75011 0.237879,-0.27087 0.656339,-0.27087 z"
           style="font-style:normal;font-variant:normal;font-weight:normal;font-stretch:normal;font-size:3.55603695px;font-family:'Noto Serif Gurmukhi';-inkscape-font-specification:'Noto Serif Gurmukhi';stroke-width:0.07525919"
           id="path875" />
        <path
           inkscape:connector-curvature="0"
           d="m 15.108191,199.23424 q 0.119808,-0.21531 0.286497,-0.31775 0.166689,-0.10245 0.392414,-0.10245 0.303861,0 0.468814,0.21358 0.164953,0.21183 0.164953,0.60424 v 1.17377 h -0.321224 v -1.16335 q 0,-0.27955 -0.09897,-0.41499 -0.09897,-0.13543 -0.302124,-0.13543 -0.248298,0 -0.392414,0.16495 -0.144117,0.16496 -0.144117,0.44972 v 1.0991 h -0.321224 v -1.16335 q 0,-0.28129 -0.09897,-0.41499 -0.09897,-0.13543 -0.305597,-0.13543 -0.244825,0 -0.388941,0.16669 -0.144117,0.16495 -0.144117,0.44798 v 1.0991 h -0.321224 v -1.9447 h 0.321224 v 0.30212 q 0.10939,-0.17884 0.262188,-0.26392 0.152799,-0.0851 0.362897,-0.0851 0.211834,0 0.359423,0.10766 0.149326,0.10765 0.220516,0.31254 z"
           style="font-style:normal;font-variant:normal;font-weight:normal;font-stretch:normal;font-size:3.55603695px;font-family:'Noto Serif Gurmukhi';-inkscape-font-specification:'Noto Serif Gurmukhi';stroke-width:0.07525919"
           id="path877" />
        <path
           inkscape:connector-curvature="0"
           d="m 17.811682,199.08491 q -0.256979,0 -0.406305,0.20142 -0.149326,0.19968 -0.149326,0.54869 0,0.349 0.147589,0.55042 0.149326,0.19968 0.408042,0.19968 0.255243,0 0.404568,-0.20142 0.149326,-0.20141 0.149326,-0.54868 0,-0.34554 -0.149326,-0.54695 -0.149325,-0.20316 -0.404568,-0.20316 z m 0,-0.27087 q 0.416723,0 0.654602,0.27087 0.23788,0.27087 0.23788,0.75011 0,0.47749 -0.23788,0.7501 -0.237879,0.27087 -0.654602,0.27087 -0.41846,0 -0.656339,-0.27087 -0.236143,-0.27261 -0.236143,-0.7501 0,-0.47924 0.236143,-0.75011 0.237879,-0.27087 0.656339,-0.27087 z"
           style="font-style:normal;font-variant:normal;font-weight:normal;font-stretch:normal;font-size:3.55603695px;font-family:'Noto Serif Gurmukhi';-inkscape-font-specification:'Noto Serif Gurmukhi';stroke-width:0.07525919"
           id="path879" />
      </g>
    </g>
  </g>
</svg>
