<?xml version="1.0" encoding="UTF-8" standalone="no"?>
<!-- Created with Inkscape (http://www.inkscape.org/) -->

<svg
   xmlns:dc="http://purl.org/dc/elements/1.1/"
   xmlns:cc="http://creativecommons.org/ns#"
   xmlns:rdf="http://www.w3.org/1999/02/22-rdf-syntax-ns#"
   xmlns:svg="http://www.w3.org/2000/svg"
   xmlns="http://www.w3.org/2000/svg"
   xmlns:sodipodi="http://sodipodi.sourceforge.net/DTD/sodipodi-0.dtd"
   xmlns:inkscape="http://www.inkscape.org/namespaces/inkscape"
   width="60px"
   height="60px"
   viewBox="0 0 60 60"
   version="1.1"
   id="SVGRoot"
   sodipodi:docname="edf2nx.svg"
   inkscape:version="0.92.4 (5da689c313, 2019-01-14)"
   inkscape:export-filename="/home/payno/dev/tomo/tomwer/orangecontrib/tomwer/widgets/control/icons/edf2nx.png"
   inkscape:export-xdpi="67.7192"
   inkscape:export-ydpi="67.7192">
  <defs
     id="defs815">
    <filter
       style="color-interpolation-filters:sRGB"
       id="filter3784-3">
      <feGaussianBlur
         id="feGaussianBlur3786-6"
         stdDeviation="0.10012024" />
    </filter>
    <filter
       style="color-interpolation-filters:sRGB"
       id="filter3784-3-7">
      <feGaussianBlur
         id="feGaussianBlur3786-6-5"
         stdDeviation="0.10012024" />
    </filter>
  </defs>
  <sodipodi:namedview
     id="base"
     pagecolor="#ffffff"
     bordercolor="#666666"
     borderopacity="1.0"
     inkscape:pageopacity="0.0"
     inkscape:pageshadow="2"
     inkscape:zoom="7.7781746"
     inkscape:cx="0.89227316"
     inkscape:cy="25.109756"
     inkscape:document-units="px"
     inkscape:current-layer="text842"
     showgrid="false"
     inkscape:window-width="1920"
     inkscape:window-height="1043"
     inkscape:window-x="1920"
     inkscape:window-y="0"
     inkscape:window-maximized="1"
     inkscape:grid-bbox="true" />
  <metadata
     id="metadata818">
    <rdf:RDF>
      <cc:Work
         rdf:about="">
        <dc:format>image/svg+xml</dc:format>
        <dc:type
           rdf:resource="http://purl.org/dc/dcmitype/StillImage" />
        <dc:title />
      </cc:Work>
    </rdf:RDF>
  </metadata>
  <g
     inkscape:label="Layer 1"
     inkscape:groupmode="layer"
     id="layer1">
    <g
       transform="matrix(0.94575518,0,0,0.95102921,10.243638,8.3847359)"
       id="g1414">
      <path
         sodipodi:nodetypes="ccccccccccccc"
         inkscape:connector-curvature="0"
         id="path1371"
         d="m 8.4471183,29.0843 42.2690057,0.150097 0.139964,3.00195 -3.779017,-0.150098 -0.139964,15.910333 h 4.058944 l 0.139965,3.452242 H 8.5870813 L 8.4471183,47.396192 H 12.785991 L 12.506063,32.686639 8.4471183,32.536542 Z"
         style="fill:none;stroke:#000000;stroke-width:1.23683834px;stroke-linecap:butt;stroke-linejoin:miter;stroke-opacity:1" />
      <path
         inkscape:connector-curvature="0"
         id="rect1373"
         d="M 16.425045,33.222476 H 43.298056 V 47.246095 H 16.425045 Z"
         style="opacity:1;fill:none;fill-opacity:1;stroke:#000000;stroke-width:1.47029889;stroke-linecap:square;stroke-linejoin:miter;stroke-miterlimit:4;stroke-dasharray:none;stroke-dashoffset:0;stroke-opacity:1;paint-order:markers stroke fill" />
      <path
         inkscape:connector-curvature="0"
         id="path1375"
         d="m 28.605353,40.19569 a 0.62983618,0.67543865 0 0 1 0.685689,-0.601564 0.62983618,0.67543865 0 0 1 0.568309,0.72881 0.62983618,0.67543865 0 0 1 -0.673434,0.617277 0.62983618,0.67543865 0 0 1 -0.58283,-0.715497"
         style="opacity:1;fill:none;fill-opacity:1;stroke:#000000;stroke-width:1.40239942;stroke-linecap:square;stroke-linejoin:miter;stroke-miterlimit:4;stroke-dasharray:none;stroke-dashoffset:0;stroke-opacity:1;paint-order:markers stroke fill" />
      <path
         inkscape:connector-curvature="0"
         id="path1377"
         d="m 16.434391,28.576519 a 13.576469,12.025658 0 0 1 6.719603,-10.830226 13.576469,12.025658 0 0 1 13.950848,0.135712 13.576469,12.025658 0 0 1 6.449457,10.958333"
         style="opacity:1;fill:none;fill-opacity:1;stroke:#000000;stroke-width:1.25842679;stroke-linecap:square;stroke-linejoin:miter;stroke-miterlimit:4;stroke-dasharray:none;stroke-dashoffset:0;stroke-opacity:1;paint-order:markers stroke fill" />
      <path
         sodipodi:nodetypes="ccc"
         inkscape:connector-curvature="0"
         id="path1379"
         d="M 29.161731,16.025819 V 11.522896 L 45.183796,11.416761"
         style="fill:none;stroke:#000000;stroke-width:1.23683834px;stroke-linecap:butt;stroke-linejoin:miter;stroke-opacity:1" />
      <path
         inkscape:connector-curvature="0"
         id="path1381"
         d="M 52.051611,8.3760137 A 1.6722079,5.040687 67.707228 0 1 48.960205,10.3603 1.6722079,5.040687 67.707228 0 1 45.183794,11.416762"
         style="opacity:1;fill:none;fill-opacity:1;stroke:#000000;stroke-width:1.21541286;stroke-linecap:square;stroke-linejoin:miter;stroke-miterlimit:4;stroke-dasharray:none;stroke-dashoffset:0;stroke-opacity:1;paint-order:markers stroke fill" />
    </g>
    <g
       id="g1585"
       transform="translate(-2.8703592,-3.4521237)">
      <path
         transform="matrix(1.5517415,0,0,1.6998733,-5.6465133,-11.264387)"
         d="m 25.767931,9.4067963 0.968,1.7106997 h -11.836 l 0.839,-1.7106997 z m 3.394,2.1158997 v 14.944 H 6.173932 l -2e-4,-14.944 22.987999,2e-4 z"
         id="rect1363-59"
         style="fill:#e4ff07;stroke:#000000;stroke-width:0.2;stroke-opacity:1;filter:url(#filter3784-3-7)"
         inkscape:connector-curvature="0" />
      <g
         aria-label="EDF"
         transform="scale(0.85013629,1.176282)"
         style="font-style:normal;font-variant:normal;font-weight:normal;font-stretch:normal;font-size:42.40138626px;line-height:1.25;font-family:sans-serif;-inkscape-font-specification:sans-serif;letter-spacing:0px;word-spacing:0px;fill:#565a32;fill-opacity:1;stroke:none;stroke-width:1.06003463"
         id="text842">
        <path
           d="m 6.1389506,10.179471 h 9.7721944 v 1.759823 H 8.2300346 v 4.57554 h 7.3602014 v 1.759824 H 8.2300346 v 5.600378 h 7.8674444 v 1.759823 H 6.1389506 Z"
           style="font-size:21.20069313px;fill:#565a32;fill-opacity:1;stroke-width:1.06003463"
           id="path844" />
        <path
           d="m 21.646098,11.897887 v 12.018557 h 2.525864 q 3.198737,0 4.679059,-1.449267 1.490674,-1.449266 1.490674,-4.57554 0,-3.10557 -1.490674,-4.544484 -1.480322,-1.449266 -4.679059,-1.449266 z m -2.091084,-1.718416 h 4.296039 q 4.492725,0 6.594161,1.873694 2.101436,1.863342 2.101436,5.838472 0,3.995834 -2.111788,5.869528 -2.111788,1.873694 -6.583809,1.873694 h -4.296039 z"
           style="font-size:21.20069313px;fill:#565a32;fill-opacity:1;stroke-width:1.06003463"
           id="path846" />
        <path
           d="m 35.86961,10.179471 h 8.881931 v 1.759823 h -6.790847 v 4.554837 h 6.128325 v 1.759823 h -6.128325 v 7.380905 H 35.86961 Z"
           style="font-size:21.20069313px;fill:#565a32;fill-opacity:1;stroke-width:1.06003463"
           id="path848" />
      </g>
    </g>
  </g>
</svg>
