<?xml version="1.0" encoding="UTF-8" standalone="no"?>
<!-- Created with Inkscape (http://www.inkscape.org/) -->

<svg
   width="60px"
   height="60px"
   viewBox="0 0 60 60"
   version="1.1"
   id="SVGRoot"
   sodipodi:docname="nxtomomill.svg"
   inkscape:version="1.3.2 (1:1.3.2+202404261509+091e20ef0f)"
   xml:space="preserve"
   xmlns:inkscape="http://www.inkscape.org/namespaces/inkscape"
   xmlns:sodipodi="http://sodipodi.sourceforge.net/DTD/sodipodi-0.dtd"
   xmlns="http://www.w3.org/2000/svg"
   xmlns:svg="http://www.w3.org/2000/svg"
   xmlns:rdf="http://www.w3.org/1999/02/22-rdf-syntax-ns#"
   xmlns:cc="http://creativecommons.org/ns#"
   xmlns:dc="http://purl.org/dc/elements/1.1/"><defs
     id="defs815"><filter
       style="color-interpolation-filters:sRGB"
       id="filter3784-3"><feGaussianBlur
         id="feGaussianBlur3786-6"
         stdDeviation="0.10012024" /></filter><filter
       style="color-interpolation-filters:sRGB"
       id="filter3784-3-7"
       x="-0.014802809"
       y="-0.019946693"
       width="1.0296056"
       height="1.0398934"><feGaussianBlur
         id="feGaussianBlur3786-6-5"
         stdDeviation="0.10012024" /></filter><clipPath
       clipPathUnits="userSpaceOnUse"
       id="clipPath176"><path
         d="M 0,841.89 H 595.28 V 0 H 0 Z"
         id="path178"
         inkscape:connector-curvature="0" /></clipPath><clipPath
       clipPathUnits="userSpaceOnUse"
       id="clipPath200"><path
         d="M 284.958,234.64 H 416.084 V 152.515 H 284.958 Z"
         id="path202"
         inkscape:connector-curvature="0" /></clipPath><clipPath
       clipPathUnits="userSpaceOnUse"
       id="clipPath216"><path
         d="m 276.334,247.677 h 17.333 V 233.16 h -17.333 z"
         id="path218"
         inkscape:connector-curvature="0" /></clipPath><clipPath
       clipPathUnits="userSpaceOnUse"
       id="clipPath232"><path
         d="m 254.667,247.719 h 19.5 v -26.042 h -19.5 z"
         id="path234"
         inkscape:connector-curvature="0" /></clipPath><clipPath
       clipPathUnits="userSpaceOnUse"
       id="clipPath252"><path
         d="m 248.208,227.348 h 33.167 v -19 h -33.167 z"
         id="path254"
         inkscape:connector-curvature="0" /></clipPath><clipPath
       clipPathUnits="userSpaceOnUse"
       id="clipPath184-7"><path
         inkscape:connector-curvature="0"
         d="m 282.299,241.515 h 22.293 v -8.079 h -22.293 z"
         id="path186-5" /></clipPath></defs><sodipodi:namedview
     id="base"
     pagecolor="#ffffff"
     bordercolor="#666666"
     borderopacity="1.0"
     inkscape:pageopacity="0.0"
     inkscape:pageshadow="2"
     inkscape:zoom="7.7781746"
     inkscape:cx="48.083261"
     inkscape:cy="46.283353"
     inkscape:document-units="px"
     inkscape:current-layer="layer1"
     showgrid="false"
     inkscape:window-width="2494"
     inkscape:window-height="1371"
     inkscape:window-x="0"
     inkscape:window-y="0"
     inkscape:window-maximized="1"
     inkscape:grid-bbox="true"
     inkscape:showpageshadow="2"
     inkscape:pagecheckerboard="0"
     inkscape:deskcolor="#d1d1d1" /><metadata
     id="metadata818"><rdf:RDF><cc:Work
         rdf:about=""><dc:format>image/svg+xml</dc:format><dc:type
           rdf:resource="http://purl.org/dc/dcmitype/StillImage" /><dc:title /></cc:Work></rdf:RDF></metadata><g
     inkscape:label="Layer 1"
     inkscape:groupmode="layer"
     id="layer1"><g
       transform="matrix(0.94575518,0,0,0.95102921,10.243638,8.3847359)"
       id="g1414"><path
         sodipodi:nodetypes="ccccccccccccc"
         inkscape:connector-curvature="0"
         id="path1371"
         d="m 8.4471183,29.0843 42.2690057,0.150097 0.139964,3.00195 -3.779017,-0.150098 -0.139964,15.910333 h 4.058944 l 0.139965,3.452242 H 8.5870813 L 8.4471183,47.396192 H 12.785991 L 12.506063,32.686639 8.4471183,32.536542 Z"
         style="fill:none;stroke:#000000;stroke-width:1.23683834px;stroke-linecap:butt;stroke-linejoin:miter;stroke-opacity:1" /><path
         inkscape:connector-curvature="0"
         id="rect1373"
         d="M 16.425045,33.222476 H 43.298056 V 47.246095 H 16.425045 Z"
         style="opacity:1;fill:none;fill-opacity:1;stroke:#000000;stroke-width:1.47029889;stroke-linecap:square;stroke-linejoin:miter;stroke-miterlimit:4;stroke-dasharray:none;stroke-dashoffset:0;stroke-opacity:1;paint-order:markers stroke fill" /><path
         inkscape:connector-curvature="0"
         id="path1375"
         d="m 28.605353,40.19569 a 0.62983618,0.67543865 0 0 1 0.685689,-0.601564 0.62983618,0.67543865 0 0 1 0.568309,0.72881 0.62983618,0.67543865 0 0 1 -0.673434,0.617277 0.62983618,0.67543865 0 0 1 -0.58283,-0.715497"
         style="opacity:1;fill:none;fill-opacity:1;stroke:#000000;stroke-width:1.40239942;stroke-linecap:square;stroke-linejoin:miter;stroke-miterlimit:4;stroke-dasharray:none;stroke-dashoffset:0;stroke-opacity:1;paint-order:markers stroke fill" /><path
         inkscape:connector-curvature="0"
         id="path1377"
         d="m 16.434391,28.576519 a 13.576469,12.025658 0 0 1 6.719603,-10.830226 13.576469,12.025658 0 0 1 13.950848,0.135712 13.576469,12.025658 0 0 1 6.449457,10.958333"
         style="opacity:1;fill:none;fill-opacity:1;stroke:#000000;stroke-width:1.25842679;stroke-linecap:square;stroke-linejoin:miter;stroke-miterlimit:4;stroke-dasharray:none;stroke-dashoffset:0;stroke-opacity:1;paint-order:markers stroke fill" /><path
         sodipodi:nodetypes="ccc"
         inkscape:connector-curvature="0"
         id="path1379"
         d="M 29.161731,16.025819 V 11.522896 L 45.183796,11.416761"
         style="fill:none;stroke:#000000;stroke-width:1.23683834px;stroke-linecap:butt;stroke-linejoin:miter;stroke-opacity:1" /><path
         inkscape:connector-curvature="0"
         id="path1381"
         d="M 52.051611,8.3760137 A 1.6722079,5.040687 67.707228 0 1 48.960205,10.3603 1.6722079,5.040687 67.707228 0 1 45.183794,11.416762"
         style="opacity:1;fill:none;fill-opacity:1;stroke:#000000;stroke-width:1.21541286;stroke-linecap:square;stroke-linejoin:miter;stroke-miterlimit:4;stroke-dasharray:none;stroke-dashoffset:0;stroke-opacity:1;paint-order:markers stroke fill" /></g><g
       id="g4"
       transform="matrix(0.31774821,0,0,0.31535007,-38.814927,12.493027)"><path
         style="fill:#272a7c;fill-opacity:1;fill-rule:nonzero;stroke-width:1.25"
         d="m 176.94761,85.192268 c -9.82962,0.02487 -19.71388,-0.36465 -29.49219,-0.07813 8.26791,-39.92548 16.54204,-79.8780787 24.80469,-119.804687 l 28.47656,-0.07812 c 11.05576,0.05175 24.33776,0.913132 29.88281,12.265625 6.83691,15.227562 1.62193,37.06549 -14.64844,43.984375 -8.36412,0.897801 -0.0201,3.863852 3.16407,5.15625 10.0793,6.644321 10.36492,20.32149 8.125,30.976562 -0.91079,11.808887 -9.62099,22.117463 -21.05469,25.117188 -9.64673,1.98785 -19.4282,2.436062 -29.25781,2.460937 z m 56.09375,-13.554687 c -72.34444,15.078125 -36.17223,7.539062 0,0 z"
         id="path206"
         inkscape:connector-curvature="0"
         sodipodi:nodetypes="sccccccccscc" /><path
         style="color:#000000;font-style:normal;font-variant:normal;font-weight:normal;font-stretch:normal;font-size:medium;line-height:normal;font-family:Sans;-inkscape-font-specification:Sans;text-indent:0;text-align:start;text-decoration:none;text-decoration-line:none;letter-spacing:normal;word-spacing:normal;text-transform:none;writing-mode:lr-tb;direction:ltr;baseline-shift:baseline;text-anchor:start;display:inline;overflow:visible;visibility:visible;fill:#272a7c;fill-opacity:1;fill-rule:nonzero;stroke:none;stroke-width:0;marker:none;enable-background:accumulate"
         d="m 145.92447,86.885737 0.46875,-2.265625 3.35937,-16.328124 c 0.30886,-1.225305 0.63488,-3.049527 0.97656,-4.492187 l 20.46875,-98.945313 0.27344,-1.484375 h 1.52344 c 10.13022,-0.01949 20.26037,-0.117187 30.39062,-0.117187 l -0.17677,-0.01025 c 11.44686,0.197775 19.87492,2.10036 24.88281,6.875 5.20163,4.847773 7.91115,11.90527 7.91115,20.5180772 0,3.1314838 -0.21322,6.1234538 -0.66406,8.94531255 v 0.0390625 C 234.30462,5.7060307 231.6828,11.140533 227.56509,15.831064 c -2.8451,3.250202 -6.36142,5.672374 -10.39062,7.34375 3.90978,1.722943 6.99663,3.978049 9.14062,6.875 0.0112,0.01389 0.0281,0.02514 0.039,0.03906 3.15972,4.036607 4.60938,9.687045 4.60938,16.757812 0,3.36723 -0.35356,6.984089 -1.01563,10.859375 -0.003,0.01314 0.002,0.02593 0,0.03906 -1.69717,10.804019 -6.6641,18.84611 -14.76562,23.47656 -8.06495,4.558463 -19.62714,5.664163 -33.63282,5.664063 h -33.32031 -2.30469 z m 4.60937,-3.749938 h 31.01563 c 13.78932,10e-5 24.87682,-1.283975 31.79687,-5.195312 7.08863,-4.051512 11.36348,-10.79684 12.92969,-20.820311 0.63567,-3.709114 0.9375,-7.137875 0.9375,-10.273438 0,-6.584837 -1.36573,-11.366844 -3.82813,-14.492187 l -0.039,-0.03906 c -2.3891,-3.249346 -6.46077,-5.757211 -12.5,-7.421875 l 0.11713,-3.632812 c 5.73473,-1.229505 10.20645,-3.881585 13.75,-7.929688 3.69979,-4.2144685 5.993,-8.914241 6.91406,-14.335936 0.41669,-2.6081413 0.625,-5.4108588 0.625,-8.359375 0,-7.892193 -2.20912,-13.638086 -6.5625,-17.695314 -4.04485,-3.856457 -12.11205,-5.9375 -24.17969,-5.9375 h -1.875 l -25.07812,0.117188 -20.23438,97.734375 -0.039,0.234375 -0.0781,0.195312 -0.23438,0.46875 0.15625,0.03906 -0.35156,1.640625 -3.24219,15.703123 z"
         inkscape:connector-curvature="0"
         id="path3703"
         sodipodi:nodetypes="ccccccccccsccccccscccsccccsccsccccccscscccccccccc" /><path
         style="fill:#46ac32;fill-opacity:1;fill-rule:nonzero;stroke:#ffffff;stroke-width:1.1;stroke-miterlimit:4;stroke-dasharray:none;stroke-opacity:1"
         d="m 194.6282,15.663287 c -7.21553,0.06707 -12.31116,6.125199 -16.12442,11.538916 -5.35583,5.811865 -11.99338,10.269644 -17.92193,15.469443 -2.56951,2.754188 -7.15376,4.561491 -7.83806,8.51293 1.9515,4.715276 -2.4698,7.480466 -5.24914,10.454636 -6.95511,7.178563 -14.45118,13.948925 -20.33602,22.069725 -1.87489,2.092725 -2.79539,6.654312 1.14916,6.456575 1.22029,1.14845 2.1359,1.154788 1.79249,3.102737 3.62041,-1.239325 6.56782,-4.060162 9.63779,-6.331062 7.79017,-6.406613 14.17465,-14.357262 22.06808,-20.629591 6.66847,-5.105748 15.00814,-6.949509 22.50575,-10.38508 6.10713,-3.444894 10.95333,-9.234839 12.30722,-16.22417 1.42087,-4.661259 0.99078,-10.193529 3.85283,-14.160059 4.04045,-1.069617 8.26488,-1.763707 12.31249,-2.656249 -3.38905,-0.539047 -6.77812,-1.077901 -10.125,-1.84375 -0.25411,-3.803165 -4.79675,-5.355044 -8.03124,-5.375001 z"
         id="path170-3"
         inkscape:connector-curvature="0" /><g
         clip-path="url(#clipPath176)"
         id="g174"
         transform="matrix(1.25,0,0,-1.25,-146.96922,273.65079)"><g
           id="g196"><g
             id="g198" /><g
             id="g204"><g
               style="opacity:0.699997"
               id="g206"
               clip-path="url(#clipPath200)"><g
                 id="g208"
                 transform="translate(284.9585,234.6396)"><path
                   sodipodi:nodetypes="ccccc"
                   inkscape:connector-curvature="0"
                   id="path210"
                   style="fill:#ffffff;fill-opacity:1;fill-rule:nonzero;stroke:none"
                   d="M 1.6970563,-0.91923882 20.8877,-15.415073 l 0.810012,3.277224 -0.315685,3.6608076 z" /></g></g></g></g><g
           id="g212"><g
             id="g214" /><g
             id="g220"><g
               style="opacity:0.5"
               id="g222"
               clip-path="url(#clipPath216)"><g
                 id="g224"
                 transform="translate(293.6675,245.8477)" /></g></g></g><g
           transform="matrix(1.0480122,0,0,1,-13.146359,0)"
           id="g228"><g
             id="g230" /><g
             id="g236"><g
               style="opacity:0.5"
               id="g238"
               clip-path="url(#clipPath232)"><g
                 id="g240"
                 transform="translate(274.1665,221.6768)"><path
                   sodipodi:nodetypes="ccccc"
                   inkscape:connector-curvature="0"
                   id="path242"
                   style="fill:#ffffff;fill-opacity:1;fill-rule:nonzero;stroke:none"
                   d="M -0.35355339,0.70710678 -19.5,18.083 l 1.667,7.875 9.25,0.084 z" /></g></g></g></g><g
           transform="translate(273.687,202.3896)"
           id="g244"><path
             inkscape:connector-curvature="0"
             id="path246"
             style="fill:#283172;fill-opacity:1;fill-rule:nonzero;stroke:none"
             d="m 0,0 c 0,-0.76 -0.615,-1.375 -1.375,-1.375 -0.76,0 -1.375,0.615 -1.375,1.375 0,0.76 0.615,1.375 1.375,1.375 C -0.615,1.375 0,0.76 0,0" /></g><g
           transform="matrix(1.0240673,0,0,1,-6.751519,0)"
           id="g248"><g
             id="g250" /><g
             id="g256"><g
               style="opacity:0.800003"
               id="g258"
               clip-path="url(#clipPath252)"><g
                 id="g260"
                 transform="translate(281.3755,217.0566)"><path
                   sodipodi:nodetypes="cccc"
                   inkscape:connector-curvature="0"
                   id="path262"
                   style="fill:#ffffff;fill-opacity:1;fill-rule:nonzero;stroke:none"
                   d="M -0.84852814,0.6363961 -33.167,-8.709 l 3.917,19 z" /></g></g></g></g><g
           transform="translate(294.5171,226.1113)"
           id="g268" /><g
           transform="translate(352.8594,370.3262)"
           id="g312" /><g
           id="g180"
           transform="matrix(1.0443058,0,0,1,-13.601948,0.36176)"><g
             id="g182" /><g
             transform="rotate(2.2515536,293.4453,237.47524)"
             id="g188"><g
               style="opacity:0.800003"
               id="g190"
               clip-path="url(#clipPath184-7)"><g
                 id="g192"
                 transform="translate(282.2993,235.1855)"><path
                   sodipodi:nodetypes="ccccc"
                   inkscape:connector-curvature="0"
                   id="path194"
                   style="fill:#ffffff;fill-opacity:1;fill-rule:nonzero;stroke:none"
                   d="M -0.13253885,0.07597638 18.207,6.329 c 0,0 1.421,-1.484 2.543,-3.662 1.269,-2.463 1.542,-4.417 1.542,-4.417 z" /></g></g></g></g><g
           style="stroke:#ffffff;stroke-width:0.88;stroke-miterlimit:4;stroke-dasharray:none;stroke-opacity:1"
           transform="translate(290.45341,227.91117)"
           id="g272"><path
             inkscape:connector-curvature="0"
             id="path274"
             style="fill:#46ac32;fill-opacity:1;fill-rule:nonzero;stroke:#ffffff;stroke-width:0.88;stroke-miterlimit:4;stroke-dasharray:none;stroke-opacity:1"
             d="m 0,-1.387868 c 0,-4.846 -3.93,-8.775 -8.775,-8.775 -4.846,0 -8.776,3.929 -8.776,8.775 0,4.847 3.93,8.775 8.776,8.775 4.845,0 8.775,-3.928 8.775,-8.775" /></g></g><path
         d="m 213.08868,-35.125824 c 0,0 -3.92105,-0.775041 -7.52053,-0.88924 -3.97713,-0.304316 -7.81193,0.02475 -7.81193,0.02475 l -1.47243,20.092137 z"
         style="opacity:0.5;fill:#ffffff;fill-opacity:1;fill-rule:nonzero;stroke:none;stroke-width:1.25"
         id="path226"
         inkscape:connector-curvature="0"
         sodipodi:nodetypes="ccccc" /></g></g></svg>
