<?xml version="1.0" encoding="utf-8"?>
<!-- Generator: Adobe Illustrator 23.1.0, SVG Export Plug-In . SVG Version: 6.00 Build 0)  -->
<svg version="1.1" id="Capa_1" xmlns="http://www.w3.org/2000/svg" xmlns:xlink="http://www.w3.org/1999/xlink" x="0px" y="0px"
	 viewBox="0 0 120.2 125.4" enable-background="new 0 0 120.2 125.4" xml:space="preserve">
<path fill="#F3C101" d="M112.3,46.5c-6.6-23.3-29.4-41-54.2-38.1c-0.1-0.2-0.3-0.2-0.6-0.2c-22.6,2.4-41,18.8-47.8,40.1
	c-0.8,2.7-1.5,5.4-2,8.2c-0.2,0.1-0.2,0.4-0.1,0.5c-0.2,1-0.3,2-0.4,3c-0.1,0.1-0.1,0.2,0,0.3C6.3,67.6,6.7,75,8.8,82.1
	c0.8,2.9,2,5.6,3.4,8.1c0,0.2,0.1,0.4,0.3,0.5c3.8,6.5,9.4,11.7,16,16c9.8,6.4,20.5,10.7,32.4,10.6c1.3,0,2.6-0.1,3.9-0.2
	c0.2,0.2,0.7,0.2,0.8-0.1c8.9-0.9,17.7-4,25.3-8.7c9.9-6.2,17-14.6,20.6-25.7C115.1,70.9,115.6,58.2,112.3,46.5z"/>
<linearGradient id="SVGID_1_" gradientUnits="userSpaceOnUse" x1="44.2518" y1="54.8797" x2="112.0273" y2="91.6945">
	<stop  offset="9.587042e-02" style="stop-color:#856715"/>
	<stop  offset="0.2089" style="stop-color:#987615"/>
	<stop  offset="0.5754" style="stop-color:#D7AA0D"/>
	<stop  offset="0.7558" style="stop-color:#F3C101"/>
</linearGradient>
<path fill="url(#SVGID_1_)" d="M55.2,35.1L27,61.7L45.8,70l5.6,26.2l37.5,13.2c0.6-0.4,1.3-0.7,1.9-1.1c9.9-6.2,17-14.6,20.6-25.7
	c2.8-8.7,3.8-18.1,2.7-27.2l-17.3-7.8L55.2,35.1z"/>
<path fill="#FFFFFF" stroke="#FFFFFF" stroke-miterlimit="10" d="M61.5,56.3c0,0,8.1-24.5-19.3-23.5c0,0-26.9,0.8-18.9,23.5
	c0,0,1.9,9.9,18.9,8.8C42.1,65.1,58.2,66.1,61.5,56.3z"/>
<path fill="none" stroke="#F3C101" stroke-width="0.75" stroke-linecap="round" stroke-linejoin="round" stroke-miterlimit="10" d="
	M27,44.9c0,0,9.1-11.4,21.8-6.8"/>
<path fill="#FFFFFF" stroke="#FFFFFF" stroke-miterlimit="10" d="M92.7,70.5c0,0,19-11.4,0.6-26.2c0,0-18-14.6-25.5,4.7
	c0,0-4.3,7.5,7.3,16.3C75.1,65.4,85,75.1,92.7,70.5z"/>
<path fill="none" stroke="#F3C101" stroke-width="0.75" stroke-linecap="round" stroke-linejoin="round" stroke-miterlimit="10" d="
	M76.6,43.8c0,0,12.3-2.3,18,7.8"/>
<path fill="#FFFFFF" stroke="#FFFFFF" stroke-miterlimit="10" d="M75.3,88.9c0,0,7.4-20.9-16.2-20.6c0,0-23.1,0.3-16.7,19.9
	c0,0,1.5,8.5,16.1,7.9C58.4,96.1,72.3,97.3,75.3,88.9z"/>
<path fill="none" stroke="#F3C101" stroke-width="0.75" stroke-linecap="round" stroke-linejoin="round" stroke-miterlimit="10" d="
	M45.8,78.5c0,0,8-9.7,18.8-5.5"/>
</svg>
