<?xml version="1.0" encoding="utf-8"?>
<!-- Generator: Adobe Illustrator 23.1.0, SVG Export Plug-In . SVG Version: 6.00 Build 0)  -->
<svg version="1.1" id="Capa_1" xmlns="http://www.w3.org/2000/svg" xmlns:xlink="http://www.w3.org/1999/xlink" x="0px" y="0px"
	 viewBox="0 0 120.2 125.4" enable-background="new 0 0 120.2 125.4" xml:space="preserve">
<path fill="#9490B5" d="M112.4,46.8C105.9,23.5,83.3,5.5,58.5,8.2C58.4,8.1,58.2,8,57.9,8C35.3,10.3,16.8,26.5,9.8,47.8
	C9,50.5,8.3,53.2,7.8,56c-0.2,0.1-0.3,0.4-0.1,0.5c-0.2,1-0.3,2-0.5,3c-0.1,0.1-0.1,0.2,0,0.3c-0.9,7.3-0.6,14.8,1.5,21.8
	c0.8,2.9,2,5.6,3.4,8.1c0,0.2,0.1,0.4,0.3,0.5c3.8,6.6,9.3,11.8,15.9,16.2c9.7,6.4,20.4,10.9,32.3,10.9c1.3,0,2.6-0.1,3.9-0.2
	c0.2,0.2,0.7,0.2,0.8-0.1c9-0.8,17.7-3.8,25.3-8.5c9.9-6.1,17.1-14.5,20.8-25.6C115,71.3,115.7,58.6,112.4,46.8z"/>
<linearGradient id="SVGID_1_" gradientUnits="userSpaceOnUse" x1="48.9421" y1="59.2641" x2="110.9064" y2="92.9223">
	<stop  offset="6.666187e-02" style="stop-color:#59586D"/>
	<stop  offset="0.4992" style="stop-color:#807C9C"/>
	<stop  offset="0.7558" style="stop-color:#9490B5"/>
</linearGradient>
<path fill="url(#SVGID_1_)" d="M113.6,51.9L63.5,28.2L48.8,58l-12.3,1.4l3.9,37.7l45.3,14c1.6-0.8,3.3-1.7,4.8-2.6
	c9.9-6.1,17.1-14.5,20.8-25.6C114.5,72.9,115.4,62.2,113.6,51.9z"/>
<path fill="#FFFFFF" stroke="#FFFFFF" stroke-width="2.7" stroke-linecap="round" stroke-linejoin="round" stroke-miterlimit="10" d="
	M75.5,52c0.4,6.8-4.8,12.7-11.6,13.1s-12.7-4.8-13.1-11.6s4.1-24.6,10.9-25S75.1,45.1,75.5,52z"/>
<path fill="none" stroke="#9490B5" stroke-width="0.75" stroke-linecap="round" stroke-linejoin="round" stroke-miterlimit="10" d="
	M61.8,34.6c0.9,8.3,1.7,16.5,2.5,24.8"/>
<path fill="#FFFFFF" stroke="#FFFFFF" stroke-width="2.7" stroke-linecap="round" stroke-linejoin="round" stroke-miterlimit="10" d="
	M97.8,88.1c-2.6,6.3-9.9,9.3-16.2,6.6s-9.3-9.9-6.6-16.2c2.6-6.3,14.5-20.3,20.8-17.6C102,63.5,100.4,81.8,97.8,88.1z"/>
<path fill="none" stroke="#9490B5" stroke-width="0.75" stroke-linecap="round" stroke-linejoin="round" stroke-miterlimit="10" d="
	M93.1,66.5c-2.8,7.8-5.7,15.6-8.7,23.4"/>
<path fill="#FFFFFF" stroke="#FFFFFF" stroke-width="2.7" stroke-linecap="round" stroke-linejoin="round" stroke-miterlimit="10" d="
	M21.1,78.2c-3-6.1-0.4-13.5,5.7-16.5c6.1-3,13.5-0.4,16.5,5.7c3,6.1,5.7,24.2-0.5,27.2S24.1,84.3,21.1,78.2z"/>
<path fill="none" stroke="#9490B5" stroke-width="0.75" stroke-linecap="round" stroke-linejoin="round" stroke-miterlimit="10" d="
	M40.4,88.9c-4-7.3-8-14.6-11.8-21.9"/>
</svg>
