<?xml version="1.0" encoding="utf-8" ?>
<svg baseProfile="full" fill="white" height="100%" version="1.1" viewBox="0,0,440,380" width="100%" xmlns="http://www.w3.org/2000/svg" xmlns:ev="http://www.w3.org/2001/xml-events" xmlns:xlink="http://www.w3.org/1999/xlink"><defs><style type="text/css"><![CDATA[.boundary {fill: none; stroke: black; stroke-width: 2;} .strand-0 {fill: #1f77b4;} .strand-1 {fill: #ff7f0e;} .strand-2 {fill: #2ca02c;} .strand-3 {fill: #d62728;} .strand-4 {fill: #9467bd;}]]></style><g class="strand" id="id3"><rect class="interior" height="41" width="40" x="0" y="-1" /><line class="boundary" x1="0" x2="0" y1="-1" y2="40" /><line class="boundary" x1="40" x2="40" y1="-1" y2="40" /></g><g class="strand" id="id5"><path class="interior" d="M 0 -1 v 1c 0 59.5 100 59.5 100 119v 1 h 40 v -1c 0 -59.5 -100 -59.5 -100 -119v -1 Z" /><path class="boundary" d="M 0 -1 v 1c 0 59.5 100 59.5 100 119v 1" /><path class="boundary" d="M 40 -1 v 1c 0 59.5 100 59.5 100 119v 1" /></g><g class="strand" id="id2"><path class="interior" d="M 0 -1 v 1c 0 19.5 40 19.5 40 39v 1 h -40 v -1c 0 -19.5 40 -19.5 40 -39v -1 Z" mask="url(#id1)" /><path class="boundary" d="M 0 -1 v 1c 0 19.5 40 19.5 40 39v 1" mask="url(#id1)" /><path class="boundary" d="M 0 40 v -1c 0 -19.5 40 -19.5 40 -39v -1" /></g><mask id="id1"><rect fill="white" height="42" width="44" x="-2" y="-1" /><circle cx="20.0" cy="20.0" fill="black" r="5" /></mask><g class="strand" id="id6"><rect class="interior" height="121" width="40" x="0" y="-1" /><line class="boundary" x1="0" x2="0" y1="-1" y2="120" /><line class="boundary" x1="40" x2="40" y1="-1" y2="120" /></g><g class="strand" id="id4"><path class="interior" d="M 0 -1 v 1c 0 59.5 -100 59.5 -100 119v 1 h 40 v -1c 0 -59.5 100 -59.5 100 -119v -1 Z" /><path class="boundary" d="M 0 -1 v 1c 0 59.5 -100 59.5 -100 119v 1" /><path class="boundary" d="M 40 -1 v 1c 0 59.5 -100 59.5 -100 119v 1" /></g></defs><g class="strand"><path class="interior" d="M 0 0 v 60 h 40 v -1 a 1 1 0 0 1 60 0 v 1 h 40 v -1 a 1 1 0 0 1 60 0 v 1 h 40 v -1 a 1 1 0 0 1 60 0 v 1 h 40 v -1 a 1 1 0 0 1 60 0 v 1 h 40 v -60 Z" /><line class="boundary" x1="0" x2="0" y1="0" y2="60" /><line class="boundary" x1="440" x2="440" y1="0" y2="60" /><path class="boundary" d="M 100 60 v -1 a 1 1 0 1 0 -60 0 v 1" /><path class="boundary" d="M 200 60 v -1 a 1 1 0 1 0 -60 0 v 1" /><path class="boundary" d="M 300 60 v -1 a 1 1 0 1 0 -60 0 v 1" /><path class="boundary" d="M 400 60 v -1 a 1 1 0 1 0 -60 0 v 1" /></g><use class="strand-0" x="0" xlink:href="#id2" y="60" /><use class="strand-1" x="100" xlink:href="#id2" y="60" /><use class="strand-2" x="200" xlink:href="#id3" y="60" /><use class="strand-3" x="300" xlink:href="#id2" y="60" /><use class="strand-4" x="400" xlink:href="#id2" y="60" /><use class="strand-0" x="0" xlink:href="#id2" y="100" /><use class="strand-1" x="100" xlink:href="#id3" y="100" /><use class="strand-2" x="200" xlink:href="#id3" y="100" /><use class="strand-3" x="300" xlink:href="#id3" y="100" /><use class="strand-4" x="400" xlink:href="#id2" y="100" /><g><use class="strand-0" x="0" xlink:href="#id5" y="140" /><use class="strand-1" x="100" xlink:href="#id4" y="140" /></g><g><use class="strand-3" x="300" xlink:href="#id5" y="140" /><use class="strand-4" x="400" xlink:href="#id4" y="140" /></g><use class="strand-2" x="200" xlink:href="#id6" y="140" /><g class="strand strand-1"><path class="interior" d="M 0 259 v 1 c 0 60.0 0 60.0 0 120 h 440 c 0 -60.0 -400 -60.0 -400 -120 v -1 Z" /><path class="boundary" d="M 0 259 v 1 c 0 60.0 0 60.0 0 120" /><path class="boundary" d="M 40 259 v 1 c 0 60.0 400 60.0 400 120" /></g><g class="strand strand-0"><path class="interior" d="M 100 259 v 1 c 0 60.0 -100 60.0 -100 120 h 440 c 0 -60.0 -300 -60.0 -300 -120 v -1 Z" /><path class="boundary" d="M 100 259 v 1 c 0 60.0 -100 60.0 -100 120" /><path class="boundary" d="M 140 259 v 1 c 0 60.0 300 60.0 300 120" /></g><g class="strand strand-2"><path class="interior" d="M 200 259 v 1 c 0 60.0 -200 60.0 -200 120 h 440 c 0 -60.0 -200 -60.0 -200 -120 v -1 Z" /><path class="boundary" d="M 200 259 v 1 c 0 60.0 -200 60.0 -200 120" /><path class="boundary" d="M 240 259 v 1 c 0 60.0 200 60.0 200 120" /></g><g class="strand strand-4"><path class="interior" d="M 300 259 v 1 c 0 60.0 -300 60.0 -300 120 h 440 c 0 -60.0 -100 -60.0 -100 -120 v -1 Z" /><path class="boundary" d="M 300 259 v 1 c 0 60.0 -300 60.0 -300 120" /><path class="boundary" d="M 340 259 v 1 c 0 60.0 100 60.0 100 120" /></g><g class="strand strand-3"><path class="interior" d="M 400 259 v 1 c 0 60.0 -400 60.0 -400 120 h 440 c 0 -60.0 0 -60.0 0 -120 v -1 Z" /><path class="boundary" d="M 400 259 v 1 c 0 60.0 -400 60.0 -400 120" /><path class="boundary" d="M 440 259 v 1 c 0 60.0 0 60.0 0 120" /></g><g class="boundary" stroke-linecap="square"><line x1="0" x2="440" y1="0" y2="0" /><line x1="0" x2="440" y1="380" y2="380" /></g></svg>