<svg width="51" height="51" viewBox="0 0 51 51" fill="none" xmlns="http://www.w3.org/2000/svg">
<rect x="0.871338" y="1.39258" width="49" height="49" fill="white" stroke="black"/>
<mask id="path-2-inside-1_108_533" fill="white">
<path d="M45.6469 30.2227H25.5991V30.1826L6.07269 28.1689V24.1426L25.5991 21.8174V21.7725H45.6469V30.2227Z"/>
</mask>
<path d="M45.6469 30.2227H25.5991V30.1826L6.07269 28.1689V24.1426L25.5991 21.8174V21.7725H45.6469V30.2227Z" fill="#2FAA96"/>
<path d="M45.6469 30.2227V31.2227H46.6469V30.2227H45.6469ZM25.5991 30.2227H24.5991V31.2227H25.5991V30.2227ZM25.5991 30.1826H26.5991V29.2804L25.7016 29.1879L25.5991 30.1826ZM6.07269 28.1689H5.07269V29.0711L5.97011 29.1637L6.07269 28.1689ZM6.07269 24.1426L5.95445 23.1496L5.07269 23.2546V24.1426H6.07269ZM25.5991 21.8174L25.7173 22.8104L26.5991 22.7054V21.8174H25.5991ZM25.5991 21.7725V20.7725H24.5991V21.7725H25.5991ZM45.6469 21.7725H46.6469V20.7725H45.6469V21.7725ZM45.6469 30.2227V29.2227H25.5991V30.2227V31.2227H45.6469V30.2227ZM25.5991 30.2227H26.5991V30.1826H25.5991H24.5991V30.2227H25.5991ZM25.5991 30.1826L25.7016 29.1879L6.17527 27.1742L6.07269 28.1689L5.97011 29.1637L25.4965 31.1773L25.5991 30.1826ZM6.07269 28.1689H7.07269V24.1426H6.07269H5.07269V28.1689H6.07269ZM6.07269 24.1426L6.19094 25.1356L25.7173 22.8104L25.5991 21.8174L25.4808 20.8244L5.95445 23.1496L6.07269 24.1426ZM25.5991 21.8174H26.5991V21.7725H25.5991H24.5991V21.8174H25.5991ZM25.5991 21.7725V22.7725H45.6469V21.7725V20.7725H25.5991V21.7725ZM45.6469 21.7725H44.6469V30.2227H45.6469H46.6469V21.7725H45.6469Z" fill="black" mask="url(#path-2-inside-1_108_533)"/>
<rect x="0.871338" y="1.39258" width="49" height="49" fill="white" stroke="black"/>
<path d="M6.93132 25.9027L0.884375 25.9228" stroke="black"/>
<path d="M49.8704 25.9478H44.9871" stroke="black"/>
<mask id="path-7-inside-2_108_533" fill="white">
<path d="M45.6469 30.2227H25.5991V30.1826L6.07269 28.1689V24.1426L25.5991 21.8174V21.7725H45.6469V30.2227Z"/>
</mask>
<path d="M45.6469 30.2227H25.5991V30.1826L6.07269 28.1689V24.1426L25.5991 21.8174V21.7725H45.6469V30.2227Z" fill="#2FAA96"/>
<path d="M45.6469 30.2227V31.2227H46.6469V30.2227H45.6469ZM25.5991 30.2227H24.5991V31.2227H25.5991V30.2227ZM25.5991 30.1826H26.5991V29.2804L25.7016 29.1879L25.5991 30.1826ZM6.07269 28.1689H5.07269V29.0711L5.97011 29.1637L6.07269 28.1689ZM6.07269 24.1426L5.95445 23.1496L5.07269 23.2546V24.1426H6.07269ZM25.5991 21.8174L25.7173 22.8104L26.5991 22.7054V21.8174H25.5991ZM25.5991 21.7725V20.7725H24.5991V21.7725H25.5991ZM45.6469 21.7725H46.6469V20.7725H45.6469V21.7725ZM45.6469 30.2227V29.2227H25.5991V30.2227V31.2227H45.6469V30.2227ZM25.5991 30.2227H26.5991V30.1826H25.5991H24.5991V30.2227H25.5991ZM25.5991 30.1826L25.7016 29.1879L6.17527 27.1742L6.07269 28.1689L5.97011 29.1637L25.4965 31.1773L25.5991 30.1826ZM6.07269 28.1689H7.07269V24.1426H6.07269H5.07269V28.1689H6.07269ZM6.07269 24.1426L6.19094 25.1356L25.7173 22.8104L25.5991 21.8174L25.4808 20.8244L5.95445 23.1496L6.07269 24.1426ZM25.5991 21.8174H26.5991V21.7725H25.5991H24.5991V21.8174H25.5991ZM25.5991 21.7725V22.7725H45.6469V21.7725V20.7725H25.5991V21.7725ZM45.6469 21.7725H44.6469V30.2227H45.6469H46.6469V21.7725H45.6469Z" fill="black" mask="url(#path-7-inside-2_108_533)"/>
</svg>
