<svg version="1.1" xmlns="http://www.w3.org/2000/svg" viewBox="0 0 897.3981752930845 99.20387701944333" width="897.3981752930845" height="99.20387701944333"><!-- svg-source:excalidraw --><metadata></metadata><defs><style class="style-fonts">
      </style></defs><rect x="0" y="0" width="897.3981752930845" height="99.20387701944333" fill="#ffffff"></rect><g stroke-linecap="round"><g transform="translate(10 50.136346417872346) rotate(0 43.24120244430105 1.0577814882630605)"><path d="M0 0 C28.77 0.7, 57.54 1.41, 86.48 2.12 M0 0 C23.56 0.58, 47.11 1.15, 86.48 2.12" stroke="#1e1e1e" stroke-width="2" fill="none"></path></g><g transform="translate(10 50.136346417872346) rotate(0 43.24120244430105 1.0577814882630605)"><path d="M62.79 10.09 C70.67 7.44, 78.55 4.78, 86.48 2.12 M62.79 10.09 C69.24 7.92, 75.7 5.75, 86.48 2.12" stroke="#1e1e1e" stroke-width="2" fill="none"></path></g><g transform="translate(10 50.136346417872346) rotate(0 43.24120244430105 1.0577814882630605)"><path d="M63.21 -7.01 C70.95 -3.97, 78.69 -0.94, 86.48 2.12 M63.21 -7.01 C69.55 -4.52, 75.89 -2.04, 86.48 2.12" stroke="#1e1e1e" stroke-width="2" fill="none"></path></g></g><mask></mask><g stroke-linecap="round" transform="translate(709.8600041525947 25) rotate(0 46.36718043034398 27.703877019443325)"><path d="M13.85 0 C27.96 0, 42.07 0, 78.88 0 M13.85 0 C30.06 0, 46.26 0, 78.88 0 M78.88 0 C88.12 0, 92.73 4.62, 92.73 13.85 M78.88 0 C88.12 0, 92.73 4.62, 92.73 13.85 M92.73 13.85 C92.73 23.76, 92.73 33.66, 92.73 41.56 M92.73 13.85 C92.73 21.11, 92.73 28.37, 92.73 41.56 M92.73 41.56 C92.73 50.79, 88.12 55.41, 78.88 55.41 M92.73 41.56 C92.73 50.79, 88.12 55.41, 78.88 55.41 M78.88 55.41 C55.4 55.41, 31.92 55.41, 13.85 55.41 M78.88 55.41 C54.41 55.41, 29.93 55.41, 13.85 55.41 M13.85 55.41 C4.62 55.41, 0 50.79, 0 41.56 M13.85 55.41 C4.62 55.41, 0 50.79, 0 41.56 M0 41.56 C0 34.18, 0 26.81, 0 13.85 M0 41.56 C0 34.4, 0 27.24, 0 13.85 M0 13.85 C0 4.62, 4.62 0, 13.85 0 M0 13.85 C0 4.62, 4.62 0, 13.85 0" stroke="#1e1e1e" stroke-width="2" fill="none"></path></g><g transform="translate(720.0943720829387 41.203877019443325) rotate(0 36.1328125 11.5)"><text x="36.1328125" y="16.900390625" font-family="Helvetica, Segoe UI Emoji" font-size="20px" fill="#1e1e1e" text-anchor="middle" style="white-space: pre;" direction="ltr" dominant-baseline="alphabetic">Clipping</text></g><g stroke-linecap="round"><g transform="translate(810.9157704044824 52.06964587444713) rotate(0 38.24120244430105 0.5577814882630605)"><path d="M0 0 C28.48 0.42, 56.96 0.83, 76.48 1.12 M0 0 C21.96 0.32, 43.92 0.64, 76.48 1.12" stroke="#1e1e1e" stroke-width="2" fill="none"></path></g><g transform="translate(810.9157704044824 52.06964587444713) rotate(0 38.24120244430105 0.5577814882630605)"><path d="M52.87 9.32 C61.66 6.27, 70.45 3.21, 76.48 1.12 M52.87 9.32 C59.65 6.97, 66.43 4.61, 76.48 1.12" stroke="#1e1e1e" stroke-width="2" fill="none"></path></g><g transform="translate(810.9157704044824 52.06964587444713) rotate(0 38.24120244430105 0.5577814882630605)"><path d="M53.12 -7.78 C61.82 -4.47, 70.52 -1.15, 76.48 1.12 M53.12 -7.78 C59.83 -5.22, 66.54 -2.67, 76.48 1.12" stroke="#1e1e1e" stroke-width="2" fill="none"></path></g></g><mask></mask><g stroke-linecap="round" transform="translate(254.33190721619826 24) rotate(0 46.36718043034398 28)"><path d="M14 0 C34.62 0, 55.23 0, 78.73 0 M14 0 C37.77 0, 61.53 0, 78.73 0 M78.73 0 C88.07 0, 92.73 4.67, 92.73 14 M78.73 0 C88.07 0, 92.73 4.67, 92.73 14 M92.73 14 C92.73 22.53, 92.73 31.06, 92.73 42 M92.73 14 C92.73 20.13, 92.73 26.27, 92.73 42 M92.73 42 C92.73 51.33, 88.07 56, 78.73 56 M92.73 42 C92.73 51.33, 88.07 56, 78.73 56 M78.73 56 C53.06 56, 27.39 56, 14 56 M78.73 56 C58.63 56, 38.52 56, 14 56 M14 56 C4.67 56, 0 51.33, 0 42 M14 56 C4.67 56, 0 51.33, 0 42 M0 42 C0 30.83, 0 19.67, 0 14 M0 42 C0 33.26, 0 24.51, 0 14 M0 14 C0 4.67, 4.67 0, 14 0 M0 14 C0 4.67, 4.67 0, 14 0" stroke="#1e1e1e" stroke-width="2" fill="none"></path></g><g transform="translate(269.57115795904224 29) rotate(0 31.1279296875 23)"><text x="31.1279296875" y="16.900390625" font-family="Helvetica, Segoe UI Emoji" font-size="20px" fill="#1e1e1e" text-anchor="middle" style="white-space: pre;" direction="ltr" dominant-baseline="alphabetic">Time</text><text x="31.1279296875" y="39.900390625" font-family="Helvetica, Segoe UI Emoji" font-size="20px" fill="#1e1e1e" text-anchor="middle" style="white-space: pre;" direction="ltr" dominant-baseline="alphabetic">scaling</text></g><g stroke-linecap="round" transform="translate(409.33190721619826 10) rotate(0 46.36718043034398 39.5)"><path d="M19.75 0 C32.82 0, 45.89 0, 72.98 0 M19.75 0 C34.57 0, 49.39 0, 72.98 0 M72.98 0 C86.15 0, 92.73 6.58, 92.73 19.75 M72.98 0 C86.15 0, 92.73 6.58, 92.73 19.75 M92.73 19.75 C92.73 34.78, 92.73 49.8, 92.73 59.25 M92.73 19.75 C92.73 28.76, 92.73 37.77, 92.73 59.25 M92.73 59.25 C92.73 72.42, 86.15 79, 72.98 79 M92.73 59.25 C92.73 72.42, 86.15 79, 72.98 79 M72.98 79 C55.21 79, 37.43 79, 19.75 79 M72.98 79 C52.93 79, 32.87 79, 19.75 79 M19.75 79 C6.58 79, 0 72.42, 0 59.25 M19.75 79 C6.58 79, 0 72.42, 0 59.25 M0 59.25 C0 44.93, 0 30.61, 0 19.75 M0 59.25 C0 45.88, 0 32.51, 0 19.75 M0 19.75 C0 6.58, 6.58 0, 19.75 0 M0 19.75 C0 6.58, 6.58 0, 19.75 0" stroke="#1e1e1e" stroke-width="2" fill="none"></path></g><g transform="translate(415.10826733404224 15) rotate(0 40.5908203125 34.5)"><text x="40.5908203125" y="16.900390625" font-family="Helvetica, Segoe UI Emoji" font-size="20px" fill="#1e1e1e" text-anchor="middle" style="white-space: pre;" direction="ltr" dominant-baseline="alphabetic">Spectral</text><text x="40.5908203125" y="39.900390625" font-family="Helvetica, Segoe UI Emoji" font-size="20px" fill="#1e1e1e" text-anchor="middle" style="white-space: pre;" direction="ltr" dominant-baseline="alphabetic">envelope</text><text x="40.5908203125" y="62.900390625" font-family="Helvetica, Segoe UI Emoji" font-size="20px" fill="#1e1e1e" text-anchor="middle" style="white-space: pre;" direction="ltr" dominant-baseline="alphabetic">scaling</text></g><g stroke-linecap="round" transform="translate(560.3319072161983 10.203877019443325) rotate(0 46.36718043034398 39.5)"><path d="M19.75 0 C35.39 0, 51.03 0, 72.98 0 M19.75 0 C31.83 0, 43.9 0, 72.98 0 M72.98 0 C86.15 0, 92.73 6.58, 92.73 19.75 M72.98 0 C86.15 0, 92.73 6.58, 92.73 19.75 M92.73 19.75 C92.73 34.07, 92.73 48.39, 92.73 59.25 M92.73 19.75 C92.73 33.34, 92.73 46.93, 92.73 59.25 M92.73 59.25 C92.73 72.42, 86.15 79, 72.98 79 M92.73 59.25 C92.73 72.42, 86.15 79, 72.98 79 M72.98 79 C54.82 79, 36.66 79, 19.75 79 M72.98 79 C55.19 79, 37.41 79, 19.75 79 M19.75 79 C6.58 79, 0 72.42, 0 59.25 M19.75 79 C6.58 79, 0 72.42, 0 59.25 M0 59.25 C0 46.99, 0 34.73, 0 19.75 M0 59.25 C0 46.37, 0 33.5, 0 19.75 M0 19.75 C0 6.58, 6.58 0, 19.75 0 M0 19.75 C0 6.58, 6.58 0, 19.75 0" stroke="#1e1e1e" stroke-width="2" fill="none"></path></g><g transform="translate(575.5711579590422 26.703877019443325) rotate(0 31.1279296875 23)"><text x="31.1279296875" y="16.900390625" font-family="Helvetica, Segoe UI Emoji" font-size="20px" fill="#1e1e1e" text-anchor="middle" style="white-space: pre;" direction="ltr" dominant-baseline="alphabetic">Pitch</text><text x="31.1279296875" y="39.900390625" font-family="Helvetica, Segoe UI Emoji" font-size="20px" fill="#1e1e1e" text-anchor="middle" style="white-space: pre;" direction="ltr" dominant-baseline="alphabetic">scaling</text></g><g stroke-linecap="round"><g transform="translate(356.9578852022412 49.646095531180265) rotate(0 21.241202444301052 0.05778148826306051)"><path d="M0 0 C16.9 0.05, 33.79 0.09, 42.48 0.12 M0 0 C14.02 0.04, 28.04 0.08, 42.48 0.12" stroke="#1e1e1e" stroke-width="2" fill="none"></path></g><g transform="translate(356.9578852022412 49.646095531180265) rotate(0 21.241202444301052 0.05778148826306051)"><path d="M22.5 7.33 C30.45 4.46, 38.39 1.59, 42.48 0.12 M22.5 7.33 C29.1 4.95, 35.69 2.57, 42.48 0.12" stroke="#1e1e1e" stroke-width="2" fill="none"></path></g><g transform="translate(356.9578852022412 49.646095531180265) rotate(0 21.241202444301052 0.05778148826306051)"><path d="M22.54 -7.2 C30.47 -4.29, 38.4 -1.38, 42.48 0.12 M22.54 -7.2 C29.12 -4.79, 35.7 -2.37, 42.48 0.12" stroke="#1e1e1e" stroke-width="2" fill="none"></path></g></g><mask></mask><g stroke-linecap="round"><g transform="translate(510.4578852022412 49.646095531180265) rotate(0 20.741202444301052 0.5577814882630605)"><path d="M0 0 C12 0.32, 24 0.65, 41.48 1.12 M0 0 C14.94 0.4, 29.88 0.8, 41.48 1.12" stroke="#1e1e1e" stroke-width="2" fill="none"></path></g><g transform="translate(510.4578852022412 49.646095531180265) rotate(0 20.741202444301052 0.5577814882630605)"><path d="M21.8 7.69 C27.5 5.78, 33.19 3.88, 41.48 1.12 M21.8 7.69 C28.89 5.32, 35.98 2.95, 41.48 1.12" stroke="#1e1e1e" stroke-width="2" fill="none"></path></g><g transform="translate(510.4578852022412 49.646095531180265) rotate(0 20.741202444301052 0.5577814882630605)"><path d="M22.18 -6.5 C27.77 -4.3, 33.35 -2.09, 41.48 1.12 M22.18 -6.5 C29.13 -3.76, 36.08 -1.02, 41.48 1.12" stroke="#1e1e1e" stroke-width="2" fill="none"></path></g></g><mask></mask><g stroke-linecap="round"><g transform="translate(659.9578852022412 52.146095531180265) rotate(0 22.241202444301052 0.5577814882630605)"><path d="M0 0 C15.71 0.39, 31.42 0.79, 44.48 1.12 M0 0 C15.46 0.39, 30.93 0.78, 44.48 1.12" stroke="#1e1e1e" stroke-width="2" fill="none"></path></g><g transform="translate(659.9578852022412 52.146095531180265) rotate(0 22.241202444301052 0.5577814882630605)"><path d="M23.39 8.2 C30.84 5.7, 38.29 3.2, 44.48 1.12 M23.39 8.2 C30.72 5.74, 38.06 3.27, 44.48 1.12" stroke="#1e1e1e" stroke-width="2" fill="none"></path></g><g transform="translate(659.9578852022412 52.146095531180265) rotate(0 22.241202444301052 0.5577814882630605)"><path d="M23.77 -7.02 C31.09 -4.14, 38.4 -1.27, 44.48 1.12 M23.77 -7.02 C30.97 -4.19, 38.17 -1.36, 44.48 1.12" stroke="#1e1e1e" stroke-width="2" fill="none"></path></g></g><mask></mask><g stroke-linecap="round" transform="translate(106.64489620921972 23.101938509721663) rotate(0 46.36718043034398 28)"><path d="M14 0 C28.12 0, 42.25 0, 78.73 0 M14 0 C39.3 0, 64.59 0, 78.73 0 M78.73 0 C88.07 0, 92.73 4.67, 92.73 14 M78.73 0 C88.07 0, 92.73 4.67, 92.73 14 M92.73 14 C92.73 19.81, 92.73 25.63, 92.73 42 M92.73 14 C92.73 24.34, 92.73 34.69, 92.73 42 M92.73 42 C92.73 51.33, 88.07 56, 78.73 56 M92.73 42 C92.73 51.33, 88.07 56, 78.73 56 M78.73 56 C52.89 56, 27.05 56, 14 56 M78.73 56 C56.88 56, 35.03 56, 14 56 M14 56 C4.67 56, 0 51.33, 0 42 M14 56 C4.67 56, 0 51.33, 0 42 M0 42 C0 32.56, 0 23.11, 0 14 M0 42 C0 35.76, 0 29.51, 0 14 M0 14 C0 4.67, 4.67 0, 14 0 M0 14 C0 4.67, 4.67 0, 14 0" stroke="#1e1e1e" stroke-width="2" fill="none"></path></g><g transform="translate(119.1204750770637 39.60193850972166) rotate(0 33.8916015625 11.5)"><text x="33.8916015625" y="16.900390625" font-family="Helvetica, Segoe UI Emoji" font-size="20px" fill="#1e1e1e" text-anchor="middle" style="white-space: pre;" direction="ltr" dominant-baseline="alphabetic">Frames</text></g><g stroke-linecap="round"><g transform="translate(208.77429044678473 50.92061733930342) rotate(0 20.850126004752298 0.22397176048977485)"><path d="M0 0 C11.6 0.12, 23.21 0.25, 41.7 0.45 M0 0 C16.16 0.17, 32.31 0.35, 41.7 0.45" stroke="#1e1e1e" stroke-width="2" fill="none"></path></g><g transform="translate(208.77429044678473 50.92061733930342) rotate(0 20.850126004752298 0.22397176048977485)"><path d="M22.03 7.37 C27.5 5.44, 32.98 3.52, 41.7 0.45 M22.03 7.37 C29.65 4.69, 37.27 2.01, 41.7 0.45" stroke="#1e1e1e" stroke-width="2" fill="none"></path></g><g transform="translate(208.77429044678473 50.92061733930342) rotate(0 20.850126004752298 0.22397176048977485)"><path d="M22.18 -6.89 C27.61 -4.85, 33.04 -2.81, 41.7 0.45 M22.18 -6.89 C29.75 -4.05, 37.31 -1.21, 41.7 0.45" stroke="#1e1e1e" stroke-width="2" fill="none"></path></g></g><mask></mask></svg>