# https://github.com/mikedh/trimesh
mtllib material.mtl
usemtl material_0
v -0.24085004 -0.13127118 -0.50000000
v -0.24580265 -0.13127118 -0.49794849
v -0.24580265 0.20498063 -0.49794849
v -0.24085004 0.20498063 -0.50000000
v -0.24580265 -0.13127118 -0.49794849
v -0.24785471 -0.13127118 -0.49299533
v -0.24785471 0.20498063 -0.49299533
v -0.24580265 0.20498063 -0.49794849
v -0.24085004 -0.13827585 -0.49299533
v -0.24085004 -0.13622434 -0.49794849
v -0.00000027 -0.13622434 -0.49794849
v -0.00000027 -0.13827585 -0.49299533
v -0.24085004 -0.13622434 -0.49794849
v -0.24085004 -0.13127118 -0.50000000
v -0.00000027 -0.13127118 -0.50000000
v -0.00000027 -0.13622434 -0.49794849
v -0.24580265 -0.13622434 -0.49299533
v -0.24580320 -0.13622434 0.48700909
v -0.24785471 -0.13127118 0.48700909
v -0.24580265 -0.13622434 -0.49299533
v -0.24085004 -0.13827585 0.48700909
v -0.24580320 -0.13622434 0.48700909
v 0.24785471 -0.13127118 -0.49299533
v 0.24580320 -0.13127118 -0.49794849
v 0.24580320 0.20498063 -0.49794849
v 0.24785471 0.20498063 -0.49299533
v 0.24580320 -0.13127118 -0.49794849
v 0.24085004 -0.13127118 -0.50000000
v 0.24085004 0.20498063 -0.50000000
v 0.24580320 0.20498063 -0.49794849
v 0.24085004 -0.13827585 -0.49299533
v 0.24580320 -0.13622434 -0.49299533
v 0.24580265 -0.13622434 0.48700909
v 0.24084950 -0.13827585 0.48700909
v 0.24580320 -0.13622434 -0.49299533
v 0.24785471 -0.13127118 0.48700909
v 0.24580265 -0.13622434 0.48700909
v -0.24785471 -0.13127118 0.48700909
v -0.24580320 -0.13127118 0.49196225
v -0.24580320 0.20498063 0.49196225
v -0.24785471 0.20498063 0.48700909
v -0.24580320 -0.13127118 0.49196225
v -0.24085004 -0.13127118 0.49401376
v -0.24085004 0.20498063 0.49401376
v -0.24580320 0.20498063 0.49196225
v -0.24085004 -0.13127118 0.49401376
v -0.24085004 -0.13622434 0.49196225
v -0.00000027 -0.13622434 0.49196225
v -0.00000027 -0.13127118 0.49401376
v -0.24085004 -0.13622434 0.49196225
v -0.00000027 -0.13827585 0.48700909
v -0.00000027 -0.13622434 0.49196225
v 0.24084950 -0.13127118 0.49401376
v 0.24580265 -0.13127118 0.49196225
v 0.24580265 0.20498063 0.49196225
v 0.24084950 0.20498063 0.49401376
v 0.24580265 -0.13127118 0.49196225
v 0.24785471 -0.13127118 0.48700909
v 0.24785471 0.20498063 0.48700909
v 0.24580265 0.20498063 0.49196225
v -0.24785471 0.20498063 0.48700909
v -0.24580320 0.20993379 0.48700909
v -0.24580265 0.20993379 -0.49299533
v -0.24785471 0.20498063 -0.49299533
v -0.24580320 0.20993379 0.48700909
v -0.24085004 0.21198530 0.48700909
v -0.24085004 0.21198530 -0.49299533
v -0.24580265 0.20993379 -0.49299533
v -0.24085058 0.20993379 0.49196225
v -0.00000027 0.20993379 0.49196225
v -0.00000027 0.21198530 0.48700909
v -0.24085058 0.20993379 0.49196225
v -0.24085004 0.20498063 0.49401376
v -0.00000027 0.20498063 0.49401376
v -0.00000027 0.20993379 0.49196225
v 0.24084950 0.21198530 0.48700909
v 0.24580265 0.20993379 0.48700909
v 0.24580320 0.20993379 -0.49299533
v 0.24085004 0.21198530 -0.49299533
v 0.24580265 0.20993379 0.48700909
v 0.24785471 0.20498063 0.48700909
v 0.24785471 0.20498063 -0.49299533
v 0.24580320 0.20993379 -0.49299533
v -0.24085004 0.20498063 -0.50000000
v -0.24085004 0.20993379 -0.49794849
v -0.00000027 0.20993379 -0.49794849
v -0.00000027 0.20498063 -0.50000000
v -0.24085004 0.20993379 -0.49794849
v -0.00000027 0.21198530 -0.49299533
v -0.00000027 0.20993379 -0.49794849
v -0.00000027 -0.13827585 -0.49299533
v -0.00000027 -0.13827585 0.48700909
v -0.00000027 -0.13127118 0.49401376
v -0.00000027 0.20498063 0.49401376
v -0.22999315 0.20097695 0.47615166
v -0.00000027 0.20097695 0.47615166
v -0.00000027 0.20097695 -0.48213790
v -0.22999261 0.20097695 -0.48213790
v 0.24785471 0.20498063 0.48700909
v -0.24785471 0.20498063 0.48700909
v -0.24580265 -0.13127118 -0.49794849
v -0.24489280 -0.13531395 -0.49703809
v -0.24580265 -0.13127118 -0.49794849
v -0.24489280 -0.13531395 -0.49703809
v -0.24489280 -0.13531395 -0.49703809
v 0.24085004 -0.13622434 -0.49794849
v 0.24085004 -0.13127118 -0.50000000
v 0.24580320 -0.13127118 -0.49794849
v 0.24489280 -0.13531395 -0.49703809
v 0.24580320 -0.13127118 -0.49794849
v 0.24489280 -0.13531395 -0.49703809
v 0.24085004 -0.13622434 -0.49794849
v 0.24489280 -0.13531395 -0.49703809
v -0.24580320 -0.13127118 0.49196225
v -0.24489280 -0.13531395 0.49105185
v -0.24580320 -0.13127118 0.49196225
v -0.24489280 -0.13531395 0.49105185
v -0.24489280 -0.13531395 0.49105185
v 0.24580265 -0.13127118 0.49196225
v 0.24489280 -0.13531395 0.49105185
v 0.24580265 -0.13127118 0.49196225
v 0.24084950 -0.13127118 0.49401376
v 0.24084950 -0.13622434 0.49196225
v 0.24489280 -0.13531395 0.49105185
v 0.24084950 -0.13622434 0.49196225
v 0.24489280 -0.13531395 0.49105185
v -0.24489280 0.20902339 0.49105185
v -0.24580320 0.20498063 0.49196225
v -0.24489280 0.20902339 0.49105185
v -0.24580320 0.20498063 0.49196225
v -0.24489280 0.20902339 0.49105185
v 0.24580265 0.20498063 0.49196225
v 0.24489280 0.20902339 0.49105185
v 0.24084950 0.20993379 0.49196225
v 0.24489280 0.20902339 0.49105185
v 0.24084950 0.20993379 0.49196225
v 0.24084950 0.20498063 0.49401376
v 0.24580265 0.20498063 0.49196225
v 0.24489280 0.20902339 0.49105185
v -0.24580265 0.20498063 -0.49794849
v -0.24489280 0.20902339 -0.49703809
v -0.24580265 0.20498063 -0.49794849
v -0.24489280 0.20902339 -0.49703809
v -0.24489280 0.20902339 -0.49703809
v 0.24580320 0.20498063 -0.49794849
v 0.24489280 0.20902339 -0.49703809
v 0.24580320 0.20498063 -0.49794849
v 0.24085004 0.20498063 -0.50000000
v 0.24084950 0.20993379 -0.49794849
v 0.24489280 0.20902339 -0.49703809
v 0.24084950 0.20993379 -0.49794849
v 0.24489280 0.20902339 -0.49703809
v 0.22999207 0.20097695 0.47615166
v 0.22999207 0.20097695 -0.48213790
v -0.00000027 0.21198530 0.47964938
v -0.00000027 0.20848758 0.47615166
v -0.22999315 0.20794471 0.47615166
v -0.22999261 0.21198530 0.48001148
v 0.23348979 0.21198530 0.47964938
v 0.22999207 0.20848758 0.47615166
v -0.22999261 0.21198530 0.48001148
v -0.22999315 0.20794471 0.47615166
v -0.22999261 0.20758207 -0.48213790
v -0.22999261 0.21198530 -0.48635981
v -0.00000027 0.21198530 -0.48563562
v -0.00000027 0.20848758 -0.48213790
v 0.22999261 0.20848758 -0.48213790
v 0.23348979 0.21198530 -0.48563508
v -0.22999261 0.21198530 -0.48635981
v -0.22999261 0.20758207 -0.48213790
v 0.22999207 0.20848758 0.47615166
v 0.23348979 0.21198530 0.47964938
v 0.23348979 0.21198530 -0.48563508
v 0.22999261 0.20848758 -0.48213790
v -0.00000027 0.21198530 0.47964938
v -0.22999261 0.21198530 0.48001148
v -0.22999261 0.21198530 -0.48635981
v -0.00000027 0.21198530 -0.48563562
v 0.23348979 0.21198530 0.47964938
v 0.23348979 0.21198530 -0.48563508
v -0.22999315 0.20794471 0.47615166
v -0.00000027 0.20848758 0.47615166
v -0.00000027 0.20097695 0.47615166
v -0.22999315 0.20097695 0.47615166
v -0.00000027 0.20848758 -0.48213790
v -0.22999261 0.20758207 -0.48213790
v -0.22999261 0.20097695 -0.48213790
v -0.00000027 0.20097695 -0.48213790
v -0.22999315 0.20097695 0.47615166
v -0.22999261 0.20097695 -0.48213790
v 0.22999207 0.20848758 0.47615166
v 0.22999207 0.20097695 0.47615166
v 0.22999207 0.20848758 0.47615166
v 0.22999261 0.20848758 -0.48213790
v 0.22999207 0.20097695 -0.48213790
v 0.22999207 0.20097695 0.47615166
v 0.22999261 0.20848758 -0.48213790
v 0.22999207 0.20097695 -0.48213790
vn -0.16400494 -0.23430706 -0.95822888
vn -0.38231090 -0.00370011 -0.92402634
vn -0.38231090 0.00370011 -0.92402634
vn -0.16400494 0.23430706 -0.95822888
vn -0.92402634 -0.00370011 -0.38231090
vn -0.99997980 -0.00599988 -0.00209996
vn -0.99997980 0.00599988 -0.00209996
vn -0.92402634 0.00370011 -0.38231090
vn -0.00419995 -0.99998898 -0.00209998
vn -0.00259998 -0.92399422 -0.38239761
vn 0.00000000 -0.92387667 -0.38269034
vn 0.00000000 -0.92387667 -0.38269034
vn -0.00259998 -0.38239761 -0.92399422
vn -0.16400494 -0.23430706 -0.95822888
vn 0.00000000 -0.38269034 -0.92387667
vn 0.00000000 -0.38269034 -0.92387667
vn -0.92391124 -0.38260466 -0.00130002
vn -0.92391124 -0.38260466 0.00130002
vn -0.99997980 -0.00599988 0.00209996
vn -0.38260466 -0.92391124 -0.00130002
vn -0.00419995 -0.99998898 0.00209998
vn -0.38251929 -0.92394659 0.00130007
vn 0.99997980 -0.00599988 -0.00209996
vn 0.92402634 -0.00370011 -0.38231090
vn 0.92402634 0.00370011 -0.38231090
vn 0.99997980 0.00599988 -0.00209996
vn 0.38231090 -0.00370011 -0.92402634
vn 0.16400494 -0.23430706 -0.95822888
vn 0.16400494 0.23430706 -0.95822888
vn 0.38231090 0.00370011 -0.92402634
vn 0.00419995 -0.99998898 -0.00209998
vn 0.38251929 -0.92394659 -0.00130007
vn 0.38251929 -0.92394659 0.00130007
vn 0.00419995 -0.99998898 0.00209998
vn 0.92391124 -0.38260466 -0.00130002
vn 0.99997980 -0.00599988 0.00209996
vn 0.92391124 -0.38260466 0.00130002
vn -0.99997980 -0.00599988 0.00209996
vn -0.92402634 -0.00370011 0.38231090
vn -0.92402634 0.00370011 0.38231090
vn -0.99997980 0.00599988 0.00209996
vn -0.38231090 -0.00370011 0.92402634
vn -0.00419989 -0.00599984 0.99997318
vn -0.00419989 0.00599984 0.99997318
vn -0.38231090 0.00370011 0.92402634
vn -0.00419989 -0.00599984 0.99997318
vn -0.00259998 -0.38239761 0.92399422
vn 0.00000000 -0.38269034 0.92387667
vn 0.00000000 -0.38269034 0.92387667
vn -0.00259998 -0.92399422 0.38239761
vn 0.00000000 -0.92387667 0.38269034
vn 0.00000000 -0.92387667 0.38269034
vn 0.00419989 -0.00599984 0.99997318
vn 0.38231090 -0.00370011 0.92402634
vn 0.38231090 0.00370011 0.92402634
vn 0.00419989 0.00599984 0.99997318
vn 0.92402634 -0.00370011 0.38231090
vn 0.99997980 -0.00599988 0.00209996
vn 0.99997980 0.00599988 0.00209996
vn 0.92402634 0.00370011 0.38231090
vn -0.99997980 0.00599988 0.00209996
vn -0.92391124 0.38260466 0.00130002
vn -0.92394659 0.38251929 -0.00130007
vn -0.99997980 0.00599988 -0.00209996
vn -0.38251929 0.92394659 0.00130007
vn -0.00419995 0.99998898 0.00209998
vn -0.00419995 0.99998898 -0.00209998
vn -0.38260466 0.92391124 -0.00130002
vn -0.00259998 0.92399422 0.38239761
vn 0.00000000 0.92387667 0.38269034
vn 0.00000000 0.98588937 0.16739819
vn -0.00259998 0.38239761 0.92399422
vn -0.00419989 0.00599984 0.99997318
vn 0.00000000 0.38269034 0.92387667
vn 0.00000000 0.38269034 0.92387667
vn 0.00419995 0.99998898 0.00209998
vn 0.38251929 0.92394659 0.00130007
vn 0.38251929 0.92394659 -0.00130007
vn 0.00419995 0.99998898 -0.00209998
vn 0.92394659 0.38251929 0.00130007
vn 0.99997980 0.00599988 0.00209996
vn 0.99997980 0.00599988 -0.00209996
vn 0.92391124 0.38260466 -0.00130002
vn -0.16400494 0.23430706 -0.95822888
vn -0.00259998 0.38239761 -0.92399422
vn 0.00000000 0.38269034 -0.92387667
vn 0.00000000 0.38269034 -0.92387667
vn -0.00259998 0.92399422 -0.38239761
vn 0.00000000 0.98568499 -0.16859743
vn 0.00000000 0.92387667 -0.38269034
vn 0.00000000 -1.00000000 0.00000000
vn 0.00000000 -1.00000000 0.00000000
vn 0.00000000 0.00000000 1.00000000
vn 0.00000000 0.00000000 1.00000000
vn -0.00419995 0.99998898 0.00209998
vn 0.00000000 1.00000000 0.00000000
vn 0.00000000 1.00000000 0.00000000
vn -0.00419995 0.99998898 -0.00209998
vn 0.99997980 0.00599988 0.00209996
vn -0.99997980 0.00599988 0.00209996
vn -0.92402634 -0.00370011 -0.38231090
vn -0.88789707 -0.32529893 -0.32529893
vn -0.38231090 -0.00370011 -0.92402634
vn -0.32529893 -0.32529893 -0.88789707
vn -0.32529893 -0.88789707 -0.32529893
vn 0.00259998 -0.38239761 -0.92399422
vn 0.16400494 -0.23430706 -0.95822888
vn 0.38231090 -0.00370011 -0.92402634
vn 0.32520951 -0.32530951 -0.88792595
vn 0.92402634 -0.00370011 -0.38231090
vn 0.88795484 -0.32522008 -0.32522008
vn 0.00259998 -0.92399422 -0.38239761
vn 0.32520951 -0.88792595 -0.32530951
vn -0.38231090 -0.00370011 0.92402634
vn -0.32530951 -0.32520951 0.88792595
vn -0.92402634 -0.00370011 0.38231090
vn -0.88789707 -0.32529893 0.32529893
vn -0.32530951 -0.88792595 0.32520951
vn 0.92402634 -0.00370011 0.38231090
vn 0.88789707 -0.32529893 0.32529893
vn 0.38231090 -0.00370011 0.92402634
vn 0.00419989 -0.00599984 0.99997318
vn 0.00259998 -0.38239761 0.92399422
vn 0.32529893 -0.32529893 0.88789707
vn 0.00259998 -0.92399422 0.38239761
vn 0.32529893 -0.88789707 0.32529893
vn -0.32529893 0.88789707 0.32529893
vn -0.92402634 0.00370011 0.38231090
vn -0.88789707 0.32529893 0.32529893
vn -0.38231090 0.00370011 0.92402634
vn -0.32530951 0.32520951 0.88792595
vn 0.92402634 0.00370011 0.38231090
vn 0.88789707 0.32529893 0.32529893
vn 0.00259998 0.92399422 0.38239761
vn 0.32529893 0.88789707 0.32529893
vn 0.00259998 0.38239761 0.92399422
vn 0.00419989 0.00599984 0.99997318
vn 0.38231090 0.00370011 0.92402634
vn 0.32522008 0.32522008 0.88795484
vn -0.38231090 0.00370011 -0.92402634
vn -0.32529893 0.32529893 -0.88789707
vn -0.92402634 0.00370011 -0.38231090
vn -0.88789707 0.32529893 -0.32529893
vn -0.32529893 0.88789707 -0.32529893
vn 0.92402634 0.00370011 -0.38231090
vn 0.88795484 0.32522008 -0.32522008
vn 0.38231090 0.00370011 -0.92402634
vn 0.16400494 0.23430706 -0.95822888
vn 0.00259998 0.38239761 -0.92399422
vn 0.32522008 0.32522008 -0.88795484
vn 0.00259998 0.92399422 -0.38239761
vn 0.32520951 0.88792595 -0.32530951
vn 0.00419995 0.99998898 0.00209998
vn 0.00419995 0.99998898 -0.00209998
vn -0.00069999 0.70269296 -0.71149287
vn -0.00069999 0.70269296 -0.71149287
vn -0.00140001 0.69840314 -0.71570322
vn -0.00140001 0.69850434 -0.71560445
vn 0.00000000 0.70710678 -0.70710678
vn 0.00000000 0.70710678 -0.70710678
vn 1.00000000 0.00000000 0.00000000
vn 1.00000000 0.00000000 0.00000000
vn 1.00000000 0.00000000 0.00000000
vn 1.00000000 0.00000000 0.00000000
vn -0.00129999 0.70279315 0.71139307
vn -0.00129999 0.70279315 0.71139307
vn 0.00000000 0.70710678 0.70710678
vn 0.00000000 0.70710678 0.70710678
vn -0.00249985 0.69885753 0.71525653
vn -0.00249985 0.69885753 0.71525653
vn -0.70710678 0.70710678 0.00000000
vn -0.70710678 0.70710678 0.00000000
vn -0.70710678 0.70710678 0.00000000
vn -0.70710678 0.70710678 0.00000000
vn 0.00000000 1.00000000 0.00000000
vn 0.00000000 1.00000000 0.00000000
vn 0.00000000 1.00000000 0.00000000
vn 0.00000000 1.00000000 0.00000000
vn 0.00000000 1.00000000 0.00000000
vn 0.00000000 1.00000000 0.00000000
vn 0.00000000 0.00000000 -1.00000000
vn 0.00000000 0.00000000 -1.00000000
vn 0.00000000 0.00000000 -1.00000000
vn 0.00000000 0.00000000 -1.00000000
vn 0.00000000 0.00000000 1.00000000
vn 0.00000000 0.00000000 1.00000000
vn 0.00000000 0.00000000 1.00000000
vn 0.00000000 0.00000000 1.00000000
vn 1.00000000 0.00000000 0.00000000
vn 1.00000000 0.00000000 0.00000000
vn 0.00000000 0.00000000 -1.00000000
vn 0.00000000 0.00000000 -1.00000000
vn -1.00000000 0.00000000 0.00000000
vn -1.00000000 0.00000000 0.00000000
vn -1.00000000 0.00000000 0.00000000
vn -1.00000000 0.00000000 0.00000000
vn 0.00000000 0.00000000 1.00000000
vn 0.00000000 0.00000000 1.00000000
vt 0.21972700 0.99986300
vt 0.21972900 0.99643000
vt 0.00440200 0.99637600
vt 0.00440100 0.99980900
vt 0.21972900 0.99643000
vt 0.21972900 0.99299700
vt 0.00440200 0.99294300
vt 0.00440200 0.99637600
vt 0.22653700 0.99238600
vt 0.22641400 0.99580500
vt 0.38048700 0.99584100
vt 0.38048700 0.99242400
vt 0.22641400 0.99580500
vt 0.22591200 0.99919800
vt 0.38048600 0.99922900
vt 0.38048700 0.99584100
vt 0.22311700 0.99250500
vt 0.22327800 0.36592500
vt 0.21988600 0.36542800
vt 0.22311700 0.99250500
vt 0.22670000 0.36604700
vt 0.22327800 0.36592500
vt 0.54125100 0.99308000
vt 0.54125000 0.99651300
vt 0.75657700 0.99656700
vt 0.75657800 0.99313400
vt 0.54125000 0.99651300
vt 0.54124900 0.99994600
vt 0.75657700 1.00000000
vt 0.75657700 0.99656700
vt 0.53443600 0.99246100
vt 0.53785800 0.99258300
vt 0.53802000 0.36600300
vt 0.53459900 0.36612100
vt 0.53785800 0.99258300
vt 0.54140700 0.36551000
vt 0.53802000 0.36600300
vt 0.99188100 0.99418500
vt 0.99188300 0.99065000
vt 0.77016800 0.99051700
vt 0.77016600 0.99405200
vt 0.99188300 0.99065000
vt 0.99188500 0.98711600
vt 0.77017100 0.98698200
vt 0.77016800 0.99051700
vt 0.22607700 0.35924800
vt 0.22657600 0.36263100
vt 0.38064900 0.36266700
vt 0.38065100 0.35927900
vt 0.22657600 0.36263100
vt 0.38064900 0.36608400
vt 0.38064900 0.36266700
vt 0.99207700 0.66949700
vt 0.99207900 0.66596200
vt 0.77036400 0.66582900
vt 0.77036200 0.66936300
vt 0.99207900 0.66596200
vt 0.99208100 0.66242700
vt 0.77036700 0.66229400
vt 0.77036400 0.66582900
vt 0.01707100 0.00893200
vt 0.01708600 0.01237600
vt 0.64830700 0.01277800
vt 0.64832500 0.00933400
vt 0.01708600 0.01237600
vt 0.01709700 0.01581600
vt 0.64829100 0.01621800
vt 0.64830700 0.01277800
vt 0.01367700 0.01565300
vt 0.00777500 0.17668100
vt 0.01121900 0.17668500
vt 0.01367700 0.01565300
vt 0.01024500 0.01546800
vt 0.00432900 0.17667800
vt 0.00777500 0.17668100
vt 0.01681700 0.33650000
vt 0.01680400 0.33994000
vt 0.64850400 0.33976800
vt 0.64849000 0.33632700
vt 0.01680400 0.33994000
vt 0.01678900 0.34338400
vt 0.64852200 0.34321100
vt 0.64850400 0.33976800
vt 0.65514000 0.01587100
vt 0.65170900 0.01605500
vt 0.65753900 0.17675500
vt 0.66098400 0.17675200
vt 0.65170900 0.01605500
vt 0.65409400 0.17675800
vt 0.65753900 0.17675500
vt 0.38048700 0.99242400
vt 0.38064900 0.36608400
vt 0.99198100 0.82830700
vt 0.77026600 0.82817300
vt 0.02537200 0.02934200
vt 0.02399100 0.17671300
vt 0.64130300 0.17682400
vt 0.64002800 0.02973400
vt 0.75673400 0.36556400
vt 0.00455900 0.36537400
vt 0.22205800 0.99685900
vt 0.22380200 0.99511900
vt 0.22205800 0.99685900
vt 0.22380200 0.99511900
vt 0.22380200 0.99511900
vt 0.53456000 0.99587700
vt 0.53506000 0.99926000
vt 0.53891500 0.99693500
vt 0.53717400 0.99519300
vt 0.53891500 0.99693500
vt 0.53717400 0.99519300
vt 0.53456000 0.99587700
vt 0.53717400 0.99519300
vt 0.22222200 0.36157200
vt 0.22396300 0.36331500
vt 0.22222200 0.36157200
vt 0.22396300 0.36331500
vt 0.22396300 0.36331500
vt 0.53907900 0.36164900
vt 0.53733500 0.36338800
vt 0.53907900 0.36164900
vt 0.53522400 0.35930900
vt 0.53472200 0.36270200
vt 0.53733500 0.36338800
vt 0.53472200 0.36270200
vt 0.53733500 0.36338800
vt 0.01436400 0.01294900
vt 0.01271000 0.01121600
vt 0.01436400 0.01294900
vt 0.01271000 0.01121600
vt 0.01436400 0.01294900
vt 0.01242900 0.34109800
vt 0.01408400 0.33936600
vt 0.01339900 0.33666200
vt 0.01408400 0.33936600
vt 0.01339900 0.33666200
vt 0.00996800 0.33684300
vt 0.01242900 0.34109800
vt 0.01408400 0.33936600
vt 0.65268100 0.01162000
vt 0.65102500 0.01335200
vt 0.65268100 0.01162000
vt 0.65102500 0.01335200
vt 0.65102500 0.01335200
vt 0.65288000 0.34092500
vt 0.65122500 0.33919300
vt 0.65288000 0.34092500
vt 0.65534300 0.33667100
vt 0.65191000 0.33648900
vt 0.65122500 0.33919300
vt 0.65191000 0.33648900
vt 0.65122500 0.33919300
vt 0.02531500 0.32424200
vt 0.64002100 0.32406600
vt 0.01593600 0.17669700
vt 0.01911100 0.17671600
vt 0.02420400 0.02526300
vt 0.02149000 0.02286000
vt 0.02150300 0.33173700
vt 0.02401900 0.32863600
vt 0.02149000 0.02286000
vt 0.02420400 0.02526300
vt 0.64116700 0.02587300
vt 0.64412900 0.02325800
vt 0.64937800 0.17676800
vt 0.64618800 0.17678100
vt 0.64128500 0.32846800
vt 0.64380300 0.33156700
vt 0.64412900 0.02325800
vt 0.64116700 0.02587300
vt 0.02401900 0.32863600
vt 0.02150300 0.33173700
vt 0.64380300 0.33156700
vt 0.64128500 0.32846800
vt 0.01593600 0.17669700
vt 0.02149000 0.02286000
vt 0.64412900 0.02325800
vt 0.64937800 0.17676800
vt 0.02150300 0.33173700
vt 0.64380300 0.33156700
vt 0.02420400 0.02526300
vt 0.01911100 0.17671600
vt 0.02399100 0.17671300
vt 0.02537200 0.02934200
vt 0.64618800 0.17678100
vt 0.64116700 0.02587300
vt 0.64002800 0.02973400
vt 0.64130300 0.17682400
vt 0.02537200 0.02934200
vt 0.64002800 0.02973400
vt 0.02401900 0.32863600
vt 0.02531500 0.32424200
vt 0.02401900 0.32863600
vt 0.64128500 0.32846800
vt 0.64002100 0.32406600
vt 0.02531500 0.32424200
vt 0.64128500 0.32846800
vt 0.64002100 0.32406600
f 1/1/1 2/2/2 3/3/3
f 1/1/1 3/3/3 4/4/4
f 5/5/5 6/6/6 7/7/7
f 5/5/5 7/7/7 8/8/8
f 9/9/9 10/10/10 11/11/11
f 9/9/9 11/11/11 12/12/12
f 13/13/13 14/14/14 15/15/15
f 13/13/13 15/15/15 16/16/16
f 6/6/6 17/17/17 18/18/18
f 6/6/6 18/18/18 19/19/19
f 20/20/20 9/9/9 21/21/21
f 20/20/20 21/21/21 22/22/22
f 23/23/23 24/24/24 25/25/25
f 23/23/23 25/25/25 26/26/26
f 27/27/27 28/28/28 29/29/29
f 27/27/27 29/29/29 30/30/30
f 31/31/31 32/32/32 33/33/33
f 31/31/31 33/33/33 34/34/34
f 35/35/35 23/23/23 36/36/36
f 35/35/35 36/36/36 37/37/37
f 38/38/38 39/39/39 40/40/40
f 38/38/38 40/40/40 41/41/41
f 42/42/42 43/43/43 44/44/44
f 42/42/42 44/44/44 45/45/45
f 46/46/46 47/47/47 48/48/48
f 46/46/46 48/48/48 49/49/49
f 50/50/50 21/21/21 51/51/51
f 50/50/50 51/51/51 52/52/52
f 53/53/53 54/54/54 55/55/55
f 53/53/53 55/55/55 56/56/56
f 57/57/57 58/58/58 59/59/59
f 57/57/57 59/59/59 60/60/60
f 61/61/61 62/62/62 63/63/63
f 61/61/61 63/63/63 64/64/64
f 65/65/65 66/66/66 67/67/67
f 65/65/65 67/67/67 68/68/68
f 66/66/66 69/69/69 70/70/70
f 66/66/66 70/70/70 71/71/71
f 72/72/72 73/73/73 74/74/74
f 72/72/72 74/74/74 75/75/75
f 76/76/76 77/77/77 78/78/78
f 76/76/76 78/78/78 79/79/79
f 80/80/80 81/81/81 82/82/82
f 80/80/80 82/82/82 83/83/83
f 84/84/84 85/85/85 86/86/86
f 84/84/84 86/86/86 87/87/87
f 88/88/88 67/67/67 89/89/89
f 88/88/88 89/89/89 90/90/90
f 9/9/9 91/91/91 92/92/92
f 9/9/9 92/92/92 21/21/21
f 43/43/43 93/93/93 94/94/94
f 43/43/43 94/94/94 44/44/44
f 95/95/95 96/96/96 97/97/97
f 95/95/95 97/97/97 98/98/98
f 23/23/23 26/26/26 99/99/99
f 23/23/23 99/99/99 36/36/36
f 7/7/7 6/6/6 19/19/19
f 7/7/7 19/19/19 100/100/100
f 17/17/17 6/6/6 101/101/101
f 17/17/17 101/101/101 102/102/102
f 103/103/103 14/14/14 13/13/13
f 103/103/103 13/13/13 104/104/104
f 10/10/10 9/9/9 20/20/20
f 10/10/10 20/20/20 105/105/105
f 106/106/106 107/107/107 108/108/108
f 106/106/106 108/108/108 109/109/109
f 110/110/110 23/23/23 35/35/35
f 110/110/110 35/35/35 111/111/111
f 32/32/32 31/31/31 112/112/112
f 32/32/32 112/112/112 113/113/113
f 47/47/47 46/46/46 114/114/114
f 47/47/47 114/114/114 115/115/115
f 116/116/116 19/19/19 18/18/18
f 116/116/116 18/18/18 117/117/117
f 22/22/22 21/21/21 50/50/50
f 22/22/22 50/50/50 118/118/118
f 37/37/37 36/36/36 119/119/119
f 37/37/37 119/119/119 120/120/120
f 121/121/121 122/122/122 123/123/123
f 121/121/121 123/123/123 124/124/124
f 125/125/125 34/34/34 33/33/33
f 125/125/125 33/33/33 126/126/126
f 69/69/69 66/66/66 65/65/65
f 69/69/69 65/65/65 127/127/127
f 62/62/62 61/61/61 128/128/128
f 62/62/62 128/128/128 129/129/129
f 130/130/130 73/73/73 72/72/72
f 130/130/130 72/72/72 131/131/131
f 132/132/132 81/81/81 80/80/80
f 132/132/132 80/80/80 133/133/133
f 77/77/77 76/76/76 134/134/134
f 77/77/77 134/134/134 135/135/135
f 136/136/136 137/137/137 138/138/138
f 136/136/136 138/138/138 139/139/139
f 85/85/85 84/84/84 140/140/140
f 85/85/85 140/140/140 141/141/141
f 142/142/142 64/64/64 63/63/63
f 142/142/142 63/63/63 143/143/143
f 68/68/68 67/67/67 88/88/88
f 68/68/68 88/88/88 144/144/144
f 83/83/83 82/82/82 145/145/145
f 83/83/83 145/145/145 146/146/146
f 147/147/147 148/148/148 149/149/149
f 147/147/147 149/149/149 150/150/150
f 151/151/151 79/79/79 78/78/78
f 151/151/151 78/78/78 152/152/152
f 16/16/16 15/15/15 107/107/107
f 16/16/16 107/107/107 106/106/106
f 12/12/12 11/11/11 112/112/112
f 12/12/12 112/112/112 31/31/31
f 92/92/92 91/91/91 31/31/31
f 92/92/92 31/31/31 34/34/34
f 52/52/52 51/51/51 34/34/34
f 52/52/52 34/34/34 125/125/125
f 49/49/49 48/48/48 123/123/123
f 49/49/49 123/123/123 122/122/122
f 94/94/94 93/93/93 53/53/53
f 94/94/94 53/53/53 56/56/56
f 75/75/75 74/74/74 137/137/137
f 75/75/75 137/137/137 136/136/136
f 71/71/71 70/70/70 134/134/134
f 71/71/71 134/134/134 76/76/76
f 97/97/97 96/96/96 153/153/153
f 97/97/97 153/153/153 154/154/154
f 90/90/90 89/89/89 79/79/79
f 90/90/90 79/79/79 151/151/151
f 87/87/87 86/86/86 149/149/149
f 87/87/87 149/149/149 148/148/148
f 155/155/155 156/156/156 157/157/157
f 155/155/155 157/157/157 158/158/158
f 156/156/156 155/155/155 159/159/159
f 156/156/156 159/159/159 160/160/160
f 161/161/161 162/162/162 163/163/163
f 161/161/161 163/163/163 164/164/164
f 165/165/165 166/166/166 167/167/167
f 165/165/165 167/167/167 168/168/168
f 166/166/166 165/165/165 169/169/169
f 166/166/166 169/169/169 170/170/170
f 171/171/171 172/172/172 173/173/173
f 171/171/171 173/173/173 174/174/174
f 66/66/66 71/71/71 175/175/175
f 66/66/66 175/175/175 176/176/176
f 89/89/89 67/67/67 177/177/177
f 89/89/89 177/177/177 178/178/178
f 67/67/67 66/66/66 176/176/176
f 67/67/67 176/176/176 177/177/177
f 71/71/71 76/76/76 179/179/179
f 71/71/71 179/179/179 175/175/175
f 76/76/76 79/79/79 180/180/180
f 76/76/76 180/180/180 179/179/179
f 79/79/79 89/89/89 178/178/178
f 79/79/79 178/178/178 180/180/180
f 181/181/181 182/182/182 183/183/183
f 181/181/181 183/183/183 184/184/184
f 185/185/185 186/186/186 187/187/187
f 185/185/185 187/187/187 188/188/188
f 163/163/163 162/162/162 189/189/189
f 163/163/163 189/189/189 190/190/190
f 182/182/182 191/191/191 192/192/192
f 182/182/182 192/192/192 183/183/183
f 193/193/193 194/194/194 195/195/195
f 193/193/193 195/195/195 196/196/196
f 197/197/197 185/185/185 188/188/188
f 197/197/197 188/188/188 198/198/198