<?xml version="1.0" encoding="utf-8"?>
<!-- Generator: Adobe Illustrator 27.5.0, SVG Export Plug-In . SVG Version: 6.00 Build 0)  -->
<svg version="1.1" id="Layer_1" xmlns="http://www.w3.org/2000/svg" xmlns:xlink="http://www.w3.org/1999/xlink" x="0px" y="0px"
	 viewBox="0 0 200 56" style="enable-background:new 0 0 200 56;" xml:space="preserve">
<style type="text/css">
	.st0{fill:#FFF;}
</style>
<g transform="matrix(1.2484 0 0 1.2484 -39.451 -42.946)">
	<path class="st0" d="M56.7,39.6c-4.5,0-7.5,3.2-7.5,8.2c0,4.9,2.9,8.2,7.5,8.2s7.5-3.2,7.5-8.2C64.2,42.9,61.3,39.6,56.7,39.6
		 M56.7,52.8c-2.7,0-3.5-2.5-3.5-4.9c0-2.5,0.8-5,3.5-5s3.5,2.5,3.5,5C60.2,50.3,59.4,52.8,56.7,52.8"/>
	<polygon class="st0" points="69.2,55.6 73.8,55.6 78.8,40.1 74.5,40.1 71.5,51.4 68.4,40.1 64.1,40.1 	"/>
	<path class="st0" d="M40.7,74.4c5.3,0,7.2-3.5,7.2-7.6V55.6h-1.8v10.8c0,4.6-1.9,6.4-5.4,6.4s-5.4-1.8-5.4-6.4V55.6h-1.8v11.3
		C33.5,70.9,35.4,74.4,40.7,74.4"/>
	<rect x="65.4" y="59.6" class="st0" width="1.8" height="14.4"/>
	<polygon class="st0" points="74.7,74 76.7,74 82.3,59.6 80.3,59.6 75.7,72.2 71.1,59.6 69.1,59.6 	"/>
	<rect x="118" y="59.6" class="st0" width="1.8" height="14.4"/>
	<path class="st0" d="M98.6,55.6v-8.3c0-3.1,0.9-4.4,3.1-4.4c1.9,0,2.6,1.3,2.6,3.8v8.9h4V46c0-3.8-1.1-6.4-5.3-6.4
		c-1.7,0-3.6,0.9-4.5,2.6V40h-3.8v15.5h3.9"/>
	<path class="st0" d="M114.8,36.2l-4,1.4v2.5h-1.5v2.8h1.5v8c0,3.8,2.1,4.8,4.6,4.8c0.7,0,1.5,0,2.1-0.1v-3.3
		c-0.4,0.1-0.7,0.1-1,0.1c-1.3,0-1.7-0.4-1.7-3.3v-6.2h2.7V40h-2.7V36.2"/>
	<path class="st0" d="M52.4,74v-8.4c0.1-2.8,1.7-4.9,4.5-4.9c2.9,0,3.7,1.9,3.7,4.3v9h1.8v-9.3c0-3.4-1.5-5.5-5.3-5.5
		c-2,0-4.1,1.2-4.8,3v-2.5h-1.7V74H52.4"/>
	<path class="st0" d="M99.8,74v-7.7c0-3,2-5.4,5.4-5.4v-1.8c-2.8,0-4.6,1.5-5.5,3.8v-3.4H98V74H99.8"/>
	<path class="st0" d="M107.8,63c0-1.9,1.6-2.4,3.6-2.4c1.1,0,2.5,0.3,3.5,0.9v-1.7c-1.3-0.4-2.9-0.6-3.7-0.6c-2.7,0-5.2,1-5.2,3.8
		c0,4.6,7.9,3.8,7.9,7.3c0,1.9-2,2.7-3.8,2.7c-1.5,0-3-0.4-4.1-0.9v1.8c1.3,0.5,2.8,0.6,4.2,0.6c2.4,0,5.5-1.1,5.5-4.1
		C115.7,65.3,107.8,65.8,107.8,63"/>
	<path class="st0" d="M136.2,74c-1.4,3.3-3,5.1-5.1,5.4l-0.6-1.4c2.2-0.3,3.2-2.3,3.9-4h-1l-5.1-13h-3v8.8c0,1.5,0.1,2.8,1.3,2.8
		h1.4V74h-1.4c-2.3,0-3-1.5-3-4.2V61h-1.9v-1.4h1.9v-3.2h1.8v3.2h4.4l5.1,13.2l5.3-13.2h2L136.2,74"/>
	<path class="st0" d="M137.9,40.1l-3.7,11.4l-3.7-11.4h-3.3c-2.8,0-3.9,1.5-4.3,2.9v-2.9h-3.8v15.5h4v-7c0-3.4,1.4-5,4.2-5.1l4.1,12
		h1.6c-0.6,1.8-1,2.8-1.9,3.4l1.3,3.4c2-0.6,3.5-3.8,4.4-6.2l5.3-16.1L137.9,40.1"/>
	<path class="st0" d="M45,49.2c-0.6,1.9-1.9,3.1-4,3.1c-3.8,0-5.2-3.3-5.2-6.7c0-3.5,1.4-6.8,5.2-6.8c2,0,3.7,1.4,4.1,3.2l3.8-1.3
		c-1.1-3.6-4.2-5.6-7.9-5.6c-5.9,0-9.4,4.6-9.4,10.5c0,5.7,3.5,10.3,9.4,10.3c3.8,0,6.7-2.1,7.8-5.5L45,49.2"/>
	<path class="st0" d="M89.1,51.2c-0.5,0.8-1.6,1.6-3,1.6c-2.2,0-3.4-1.2-3.6-3.9H93c0.3-4.8-2.1-9.2-7-9.2c-4.4,0-7.4,3.5-7.4,8.2
		c0,4.8,2.8,8.2,7.4,8.2c2.8,0,4.9-1.1,6.2-3.7L89.1,51.2 M85.9,42.8c1.9,0,2.9,1.1,3.2,3.3h-6.5C82.6,44.9,83.4,42.8,85.9,42.8"/>
	<path class="st0" d="M93.3,70.2c-0.7,1.6-2,2.7-4.2,2.7c-3.4,0-4.7-3.1-4.8-5.7h11.1c0.1-4-1.7-8.1-6.4-8.1c-4.6,0-6.5,3.8-6.5,7.6
		c0,4.1,1.9,7.6,6.5,7.6c3,0,4.9-1.3,5.8-3.6L93.3,70.2 M89.1,60.7c2.9,0,4.5,2.5,4.6,5.1h-9.4C84.6,63.2,86.2,60.7,89.1,60.7"/>
	<path class="st0" d="M186.8,58.1c1-2.6,0.9-2.9,1.2-4.2c3.1-1.6,3.8-5.7,3.8-6.1c-0.1-1.2,0-0.5-0.1-0.1c-0.3,1.2-1.5,2.5-2.5,3.3
		l-0.9,0.6c0.1-1.1,1.3-8.1-1.5-13.5c0.9,2.7-0.3,5.7-1.9,7.7c0-0.4-0.7-7.4-3.8-10.9l-0.3-0.3c0.5,0.7,1,5-1.4,9.1
		c-1.3,1.9-3,3.5-4.5,5.2c-1.4,1.8-2.1,3.5-1.4,6.5c0.2,0.8,0.6,2.1,0.9,2.4c0.2,0.1,0.2-0.2,0.1-0.4c-0.4-0.8-0.9-4,2.7-8.1
		c6.1-7,4.4-13.1,4.4-13.1c1,1,2.6,6.8,2.7,10c-1.9,2.2-8.7,7-7.7,10.8c0.1,0.5,0.3,1,0.6,1.4c-0.9,1.4-1.2,2.5-0.7,3.9
		c-1.4,1.1-2.8,2.6-3.5,4.3c-1.1,0.4-2.1,0.9-3.1,1.8c-0.4-0.4-0.7-0.8-1.1-1.1c0.3-0.2,3-1.6,4.1-2.7c1-1.1,1.7-2.6,1.3-4.2
		c-0.7-2.9-7.2-6.7-5.8-8.3c0.7-0.9,2.3-1.3,3.3-0.7c0.1,0,0.2,0.1,0.2,0.2c0.4-0.6,0.9-2.2-1.6-2.2c-0.2-0.5-0.8-0.7-1.4-0.8
		c-1.6-0.1-3.2,0.6-3.8,2c-0.8,1.8,1.5,5.6,1.3,8.1c0.1,2.1-4.2,3.5-4.1,0.2c0-1.5,3.5-5.5,0.3-10.2c-1.2-1.6-2.6-3.1-3.8-4.6
		c-4.4-5.6-1.8-9.7-1.8-9.7c-4.3,5.5-3.3,10-3.4,9.8c-0.3-0.5-2.7-3.4-1.5-7.1c0,0-2.6,3.3-2.2,12.8c-0.5-0.3-3.2-2.8-3.1-4.6
		c0,0-0.6,4.1,3.2,7c0.3,1.5,0.4,2.8,0.9,4.3c-1.5-0.5-3.8-2.3-4.6-3.9c-0.1-0.3,0.5,3.7,5.1,6.1c3.8,6.4,8,4.7,8.8,3.9
		c1.2,0.5,3,3,3.1,3.4c-2.5-0.8-6.5-1.7-9.6-1.8c-1.8-1.8-5.7-5.5-7.4-3.7c-1.8,2.3,4.5,5,7.7,5.3c0.9,0.9,2.2,2.2,3,3.3
		c-1,0.2-1.2,0.3-2.5,0.8c-4.7-3.8-5.4-1.2-5.4-1.2c-0.7,3.1,5.3,2.9,6,2.8c1.7,1.8,4.3,1.9,5.5,1.5c1.8,1.7,3.8,1.6,4.4,1.5
		c2,4.5,5.4,2.3,6.2,0.2c1.7,0.5,3.2-0.2,4.5-1.2c0.9,0.3,3.3,0.7,5.6-1.1c5.8,1.1,6.4-2,6.2-2.6c-0.8-1.7-4.4,0.2-5.4,1.1
		c-1-0.4-1.5-0.7-2.5-1c1-1.1,2.2-2.1,3.3-3c11.8-0.8,9.9-10.3,0.5-1.6c-2.7,0-6.9,0.3-9.8,1.1c0-0.2,1.8-2.5,3.3-3.1
		c2.9,2.6,7.2,0,9.1-3.2c2.8-1.1,4.8-3.2,5.5-5.3l0.1-0.4C191.1,55.6,189,57.6,186.8,58.1 M146.7,60.9c1.2-1.7,5,2,6.2,3.4
		C152.2,64.2,145.7,62.7,146.7,60.9 M149.5,69c0.3-1.9,3.9,0.4,4.7,1.2C153,70.7,149.5,70.7,149.5,69 M187.3,70.2
		c0.2,0.7-2,2.3-4.8,1C185.3,69.2,187.2,69.3,187.3,70.2 M190.6,62.3c1.2,1.6-4.1,3-6.3,3.1C184.3,65.4,189,60.8,190.6,62.3
		 M172.9,67.6c-0.1,0.6-0.1,0.9-0.1,1.9c-0.6,0.2-1.2,0.3-1.7,0.7c-0.2-0.5-0.5-0.9-0.8-1.3C170.3,68.9,171.6,68,172.9,67.6
		 M153.8,47.7c0.9,1.5,7.8,6.7,6.3,9.7c-1.7-2.3-5.8-4.6-6-4.8C153.9,51.1,153.8,49.4,153.8,47.7 M159.6,58.1
		c-0.2,0.2-3.5,1.7-4.9-2.8C156.3,56.1,158.3,57,159.6,58.1 M151.2,40.1c-0.1,1,0,3.3,2.2,7c-0.1,1.7,0,3.5,0.3,5.2
		c-1.2-0.6-2.2-1.3-3.3-1.9C150.3,48.9,150.5,41.7,151.2,40.1 M152.1,59.2c1.7,0.6,7.2,3.1,7.7,3.4
		C159.2,63.2,155.6,64.5,152.1,59.2 M160.5,61.5c-2.1-1.6-5.6-3.2-9-4.5c-0.3-0.8-0.9-3.7-0.9-4.2c1,0.8,2.4,1.7,3.7,2.3
		c1.6,5.1,5,3.7,5.7,3.3C160.7,59.2,160.9,60.3,160.5,61.5 M160.8,61.8c0.6-1.5,0.3-2.5-0.4-3.9c2.2-2.8-0.6-6.7-2.5-8.7
		c-1-1.1-3.5-3.7-3.6-4c-0.5-4.6,1.8-8.6,1.9-8.9c-1.1,2.4-1.7,5.7,4.6,13.4c1.1,1.4,2.6,2.9,2.6,4.9c0,1.8-1.5,3.3-1.3,4.9
		c0.2,1.1,0.8,2,1.9,2.2c1.2,0.2,2.3-0.1,3-1c2.5-3.3-1.4-5.7-1.4-8.9c0-1.2,0.7-2,1.8-2.4c0.8-0.2,1.8-0.4,2.4,0.2
		c-0.2,0-0.7,0.1-1.2,0.4c-0.1-0.1-0.2-0.2-0.3-0.2c-0.2,0-0.4,0.2-0.4,0.4v0.2c0.1,0.1,0.2,0.3,0.4,0.2c0.1,0,0.2-0.1,0.2-0.1
		c0.5-0.3,1.1-0.4,1.4-0.4c2.4-0.2,1.7,1.1,1.7,1.1s-1.8-1-3.6,0.7c-2.7,2.9,9.5,8.8,0.4,15.4c-0.4-0.3-1.6-1.1-2.3-1.4
		c-0.1,0.1-0.1,0.2-0.2,0.2c0.8,0.4,1.6,0.9,2.2,1.4c-0.6,0.4-0.8,0.7-1.3,1.1c-0.8-0.8-1.8-1.5-2.9-2
		C163.4,64.6,162.2,63,160.8,61.8 M164,67.3c0.9,0.2,1.8,0.9,2.5,1.4c-0.4,0.5-0.6,0.8-0.9,1.3c-0.5-0.3-0.8-0.5-1.7-0.8
		C164.1,68.6,164.1,67.9,164,67.3 M154.9,66.1c1.9,0.2,7.4,0.6,8.6,1.1c0.2,0.6,0.2,1.3,0.1,1.9c-1.9-0.5-4.2-0.5-6,0
		C157.7,69.1,155.8,67,154.9,66.1 M155.8,71.5c0.2,0,1.9-0.4,2.7-0.6c0.6,0.6,1.4,1.3,2,1.9C160.5,72.8,157.6,73.3,155.8,71.5
		 M158.9,70.8c1.4-0.4,3-1,4.6-1c0,0.2-1.3,2.2-2.7,2.9L158.9,70.8 M165.1,74.2c-1.4,0.2-3-0.5-4-1.3c2.1-1.2,2.7-2.9,2.8-3.1
		c0.6,0.1,1.1,0.3,1.5,0.5C165,71.3,164.7,72.9,165.1,74.2 M165.8,70.6c1.8,1.7,0.3,3-0.2,3.4C165.6,74,165.1,72.4,165.8,70.6
		 M165.8,74.4c2.4-1.7,1.1-3.4,0.2-4.2c0.2-0.4,0.4-0.8,0.9-1.2c0.5,0.5,0.7,1.1,0.8,1.9h0.3c0-0.8-0.3-1.6-0.8-2.2
		c0.3-0.3,1.1-1,1.4-1.1c0.4,0.4,0.8,0.7,1.2,1.2c0,0-1,1-1,2.2h0.3c0.1-0.6,0.1-1,0.9-1.8c0.3,0.4,0.6,0.8,0.7,1.3
		c-0.5,0.4-2.5,2.2,0,4.2C168.1,78.6,165.8,74.6,165.8,74.4 M170.9,74.3c-2-1.8-0.2-3.3,0-3.4C171.2,71.8,171.2,73.3,170.9,74.3
		 M171.4,74.5c0.4-1.2,0.4-2.6-0.1-3.8c0.1,0,1.1-0.4,1.6-0.4c0.9,2.4,2.5,3.1,2.6,3.3C174.4,74.4,172.8,74.8,171.4,74.5
		 M175.7,73.3c0,0-1.7-0.9-2.5-3.1c1.5,0.1,3.2,0.9,4.6,1.3L175.7,73.3 M180.9,72.4c-1,0.9-2.9,1.5-4.8,1l2.1-1.7
		C179.1,72,180,72.2,180.9,72.4 M182.1,67.1c-0.9,0.9-2,1.9-3,2.8c-1.9-0.6-4-0.8-6-0.4c0-0.7,0-1.2,0.2-1.9
		C176.1,67,179.3,67.2,182.1,67.1 M185,48.3c0.5-0.6,1.5-2.4,1.7-2.8c0.8-1.8,0.8-3.9,0.8-4.7c0.3,0.8,0.4,1.7,0.5,2.6
		c0.4,2.7,0.2,5.7-0.2,8.4c-1.1,0.7-2.3,1.2-3.4,1.7C184.7,51.8,185,50.2,185,48.3 M184.6,48.8c-0.1,1.8-0.3,3.3-0.8,4.9
		c-0.6,0.4-5.2,2.6-6.3,4.4C176.4,54.8,182.8,51.1,184.6,48.8 M183.2,56.4c-0.4,0.9-1.1,2.1-2,2.6c-0.9,0.6-2.4,0.5-3.2-0.1
		C179.4,57.8,181.5,57,183.2,56.4 M177.5,63.3c2.4-1,5.5-2.1,7.9-2.8C184.4,62.1,180.3,65.5,177.5,63.3 M186.1,58.4
		c-2.2,0.7-4.5,1.4-6.7,2.4c-0.8,0.4-1.7,0.9-2.5,1.4c-0.3-1.2,0-2.4,0.9-3.1c0.7,0.5,1.5,0.7,2.4,0.6c1.8-0.2,2.8-1.8,3.5-3.5
		c1.3-0.6,2.6-1.2,3.8-2c-0.2,1.3-0.7,2.7-1.2,4C186.2,58.3,186.3,58.3,186.1,58.4"/>
</g>
</svg>
