<?xml version="1.0" encoding="UTF-8" standalone="no"?>
<!-- Created with Inkscape (http://www.inkscape.org/) -->

<svg
   width="194.26907mm"
   height="66.069916mm"
   viewBox="0 0 194.26907 66.069916"
   version="1.1"
   id="svg14654"
   inkscape:version="1.2 (dc2aeda, 2022-05-15)"
   sodipodi:docname="Thalamus_Nuclei_HCP_L.svg"
   xmlns:inkscape="http://www.inkscape.org/namespaces/inkscape"
   xmlns:sodipodi="http://sodipodi.sourceforge.net/DTD/sodipodi-0.dtd"
   xmlns="http://www.w3.org/2000/svg"
   xmlns:svg="http://www.w3.org/2000/svg">
  <sodipodi:namedview
     id="namedview14656"
     pagecolor="#ffffff"
     bordercolor="#000000"
     borderopacity="0.25"
     inkscape:showpageshadow="2"
     inkscape:pageopacity="0.0"
     inkscape:pagecheckerboard="0"
     inkscape:deskcolor="#d1d1d1"
     inkscape:document-units="mm"
     showgrid="false"
     inkscape:zoom="0.84096521"
     inkscape:cx="461.96917"
     inkscape:cy="169.44815"
     inkscape:window-width="1920"
     inkscape:window-height="1021"
     inkscape:window-x="1470"
     inkscape:window-y="31"
     inkscape:window-maximized="1"
     inkscape:current-layer="layer1" />
  <defs
     id="defs14651">
    <inkscape:path-effect
       effect="bspline"
       id="path-effect4681"
       is_visible="true"
       lpeversion="1"
       weight="33.333333"
       steps="2"
       helper_size="0"
       apply_no_weight="true"
       apply_with_weight="true"
       only_selected="false" />
    <inkscape:path-effect
       effect="bspline"
       id="path-effect4697"
       is_visible="true"
       lpeversion="1"
       weight="33.333333"
       steps="2"
       helper_size="0"
       apply_no_weight="true"
       apply_with_weight="true"
       only_selected="false" />
    <inkscape:path-effect
       effect="bspline"
       id="path-effect4689"
       is_visible="true"
       lpeversion="1"
       weight="33.333333"
       steps="2"
       helper_size="0"
       apply_no_weight="true"
       apply_with_weight="true"
       only_selected="false" />
    <inkscape:path-effect
       effect="bspline"
       id="path-effect4685"
       is_visible="true"
       lpeversion="1"
       weight="33.333333"
       steps="2"
       helper_size="0"
       apply_no_weight="true"
       apply_with_weight="true"
       only_selected="false" />
    <inkscape:path-effect
       effect="bspline"
       id="path-effect10391"
       is_visible="true"
       lpeversion="1"
       weight="33.333333"
       steps="2"
       helper_size="0"
       apply_no_weight="true"
       apply_with_weight="true"
       only_selected="false" />
    <inkscape:path-effect
       effect="bspline"
       id="path-effect4555"
       is_visible="true"
       lpeversion="1"
       weight="33.333333"
       steps="2"
       helper_size="0"
       apply_no_weight="true"
       apply_with_weight="true"
       only_selected="false" />
    <inkscape:path-effect
       effect="bspline"
       id="path-effect4477"
       is_visible="true"
       lpeversion="1"
       weight="33.333333"
       steps="2"
       helper_size="0"
       apply_no_weight="true"
       apply_with_weight="true"
       only_selected="false" />
    <inkscape:path-effect
       effect="bspline"
       id="path-effect4491"
       is_visible="true"
       lpeversion="1"
       weight="33.333333"
       steps="2"
       helper_size="0"
       apply_no_weight="true"
       apply_with_weight="true"
       only_selected="false" />
    <inkscape:path-effect
       effect="bspline"
       id="path-effect4527"
       is_visible="true"
       lpeversion="1"
       weight="33.333333"
       steps="2"
       helper_size="0"
       apply_no_weight="true"
       apply_with_weight="true"
       only_selected="false" />
    <inkscape:path-effect
       effect="bspline"
       id="path-effect4535"
       is_visible="true"
       lpeversion="1"
       weight="33.333333"
       steps="2"
       helper_size="0"
       apply_no_weight="true"
       apply_with_weight="true"
       only_selected="false" />
    <inkscape:path-effect
       effect="bspline"
       id="path-effect4577"
       is_visible="true"
       lpeversion="1"
       weight="33.333333"
       steps="2"
       helper_size="0"
       apply_no_weight="true"
       apply_with_weight="true"
       only_selected="false" />
    <inkscape:path-effect
       effect="bspline"
       id="path-effect4655"
       is_visible="true"
       lpeversion="1"
       weight="33.333333"
       steps="2"
       helper_size="0"
       apply_no_weight="true"
       apply_with_weight="true"
       only_selected="false" />
    <inkscape:path-effect
       effect="bspline"
       id="path-effect3751"
       is_visible="true"
       lpeversion="1"
       weight="33.333333"
       steps="2"
       helper_size="0"
       apply_no_weight="true"
       apply_with_weight="true"
       only_selected="false" />
  </defs>
  <g
     inkscape:label="Layer 1"
     inkscape:groupmode="layer"
     id="layer1">
    <path
       style="fill:#4334a6;fill-opacity:1;stroke:#000000;stroke-width:0.3;stroke-linecap:square;stop-color:#000000"
       d="m 19.613725,19.133802 c 0.921022,1.412235 2.76117,4.233798 3.803107,6.932663 1.041938,2.698865 1.287291,5.275073 1.839639,8.096769 0.552348,2.821696 1.411085,5.888615 2.453907,9.323569 1.042821,3.434955 2.26959,7.237935 3.121682,9.553806 0.852093,2.315871 1.329402,3.145842 1.177655,4.272617 -0.151747,1.126776 -0.933447,2.558276 -4.325505,3.289167 -3.392058,0.73089 -9.390828,0.758809 -12.904389,0.427561 C 11.266261,60.698705 10.197914,60.005671 8.5274454,58.217506 6.8569767,56.429342 4.5874576,53.546442 3.9733125,48.72639 3.3591675,43.906338 4.4005269,37.168139 5.9344474,32.136789 c 1.5339205,-5.031351 3.5565389,-8.34109 5.7658206,-10.458294 2.209282,-2.117205 4.598173,-3.036008 5.795304,-3.496443 1.197131,-0.460435 1.197131,-0.460485 2.118153,0.95175 z"
       id="path4679"
       inkscape:path-effect="#path-effect4681"
       inkscape:original-d="m 18.692703,17.721567 c 1.84211,2.824427 3.68226,5.645989 5.52044,8.464683 0.248,2.578854 0.49335,5.155062 0.73606,7.728625 0.86138,3.069561 1.72012,6.136479 2.57621,9.200749 1.22941,3.80561 2.45618,7.60859 3.6803,11.40892 0.47852,0.83189 0.95583,1.66186 1.4313,2.48882 -0.77873,1.42681 -1.56043,2.85831 -2.34373,4.29199 -6.00113,0.0282 -11.9999,0.0561 -17.96297,0.0836 -1.06409,-0.69019 -2.13244,-1.38322 -3.2063905,-2.07998 -2.26691,-2.87966 -4.53643,-5.76256 -6.808548,-8.64869 1.04409,-6.7539 2.085448,-13.492099 3.128258,-20.241643 2.02504,-3.313017 4.0476602,-6.622755 6.0724905,-9.936802 2.39355,-0.92023 4.78244,-1.839035 7.17658,-2.760222 z"
       sodipodi:nodetypes="ccccccccccccc">
      <title
         id="title15163">Pulvinar_medial_L</title>
    </path>
    <path
       style="fill:#6b7d49;fill-opacity:1;stroke:#000000;stroke-width:0.3;stroke-linecap:square;stop-color:#000000"
       d="m 82.574927,24.668707 c 1.170506,-0.563577 1.170506,-0.563577 1.954985,-1.049727 0.784478,-0.48615 2.346398,-1.454088 3.562834,-0.671922 1.216436,0.782167 2.07863,3.314474 2.972686,5.492702 0.894055,2.178227 1.823686,4.011158 2.584755,6.323392 0.76107,2.312234 1.352119,5.096004 1.495103,7.871017 0.142983,2.775013 -0.163705,5.527253 -0.490564,7.465958 -0.32686,1.938706 -0.673843,3.066395 -1.150905,4.10685 -0.477062,1.040454 -1.084275,1.994649 -1.824707,2.941567 -0.740432,0.946918 -1.619303,1.892387 -2.990603,2.847407 -1.3713,0.955019 -3.20944,1.903679 -5.878812,2.536522 -2.669372,0.632842 -6.153101,0.943487 -8.736502,0.483112 -2.583401,-0.460376 -4.254252,-1.689615 -4.833373,-2.622086 -0.579122,-0.932472 -0.06481,-1.562889 0.367388,-3.527145 0.432195,-1.964255 0.779174,-5.260575 1.039476,-8.773677 0.260301,-3.513102 0.433795,-7.243161 1.431181,-10.713804 0.997386,-3.470642 2.819038,-6.680222 4.90173,-8.84956 2.082691,-2.169337 4.424821,-3.297029 5.595328,-3.860606 z"
       id="path4695"
       inkscape:path-effect="#path-effect4697"
       inkscape:original-d="m 83.745433,24.10513 c 2.7e-4,2.65e-4 2.7e-4,2.65e-4 0,0 1.56915,-0.971989 3.13107,-1.939927 4.70004,-2.912665 0.86387,2.536705 1.72606,5.069014 2.58658,7.59692 0.92754,1.828548 1.85717,3.66148 2.78637,5.493824 0.59304,2.792133 1.18408,5.575905 1.77701,8.369505 -0.30687,2.7565 -0.61356,5.50874 -0.92007,8.25676 -0.34434,1.13033 -0.69132,2.25802 -1.04095,3.38307 -0.60457,0.95685 -1.21179,1.91104 -1.82165,2.8626 -0.87381,0.94057 -1.75268,1.88604 -2.63665,2.83645 -1.85874,0.95969 -3.69688,1.90835 -5.5466,2.86259 -3.48916,0.31142 -6.97289,0.62206 -10.46493,0.93316 -1.67482,-1.23209 -3.34567,-2.46133 -5.02025,-3.69338 0.51666,-0.6327 1.03097,-1.26312 1.54834,-1.89787 0.34963,-3.29369 0.69661,-6.59001 1.04094,-9.88899 0.17614,-3.7274 0.34963,-7.45746 0.52048,-11.190157 1.8243,-3.206935 3.64595,-6.416516 5.46496,-9.628746 2.34477,-1.125042 4.6869,-2.252734 7.02638,-3.383071 z"
       sodipodi:nodetypes="cccccccccccccccccc">
      <title
         id="title15197">Anterior_medial_L</title>
    </path>
    <path
       style="fill:#34569f;fill-opacity:1;stroke:#000000;stroke-width:0.3;stroke-linecap:square;stop-color:#000000"
       d="m 53.54228,6.4279972 c 1.960255,-2.0302889 6.221595,-2.1567866 10.338776,-1.2785896 4.11718,0.878197 8.087702,2.7606833 10.462934,4.0053791 2.375232,1.2446953 3.1587,1.8540583 4.069626,2.4610493 0.910927,0.606992 1.951875,1.214213 3.079139,2.299083 1.127264,1.08487 2.341702,2.646289 3.022355,4.117175 0.680654,1.470886 0.829445,2.850831 0.308727,4.239211 -0.520717,1.38838 -1.710647,2.782472 -3.475628,4.734932 -1.76498,1.952459 -4.106209,4.464623 -6.318715,4.811824 -2.212506,0.347202 -4.290918,-1.46717 -5.420071,-2.506633 C 68.480269,28.271965 68.306779,28.011729 67.786845,27.62078 67.266911,27.229831 66.39946,26.70936 65.445134,26.015656 64.490809,25.321952 63.449864,24.454499 61.240226,22.810988 59.030589,21.167477 55.650969,18.747321 53.787593,15.567005 51.924218,12.386688 51.582025,8.458286 53.54228,6.4279972 Z"
       id="path4687"
       inkscape:path-effect="#path-effect4689"
       inkscape:original-d="m 51.239343,4.524261 c 4.2632,-0.126281 8.52454,-0.252778 12.78742,-0.379594 3.97142,1.88305 7.94194,3.7655393 11.91158,5.6474663 0.78085,0.6073867 1.56406,1.2170797 2.34213,1.8216527 1.04359,0.609865 2.08454,1.217083 3.12283,1.821654 1.21708,1.564066 2.43152,3.125483 3.64331,4.684254 0.14939,1.38326 0.29818,2.763205 0.44696,4.145287 -1.19017,1.394946 -2.3801,2.789038 -3.56979,4.182275 -2.34028,2.511695 -4.68151,5.023858 -7.02368,7.536485 -2.08313,-1.818461 -4.16154,-3.632835 -6.24838,-5.454592 -0.17084,-0.257593 -0.34433,-0.517829 -0.52047,-0.780712 -0.86481,-0.517826 -1.73226,-1.038299 -2.60236,-1.561417 -1.0383,-0.864809 -2.07905,-1.732496 -3.12284,-2.602362 -3.3755,-2.417131 -6.75512,-4.837287 -10.13885,-7.260463 -0.34274,-3.937528 -0.68494,-7.8659297 -1.02786,-11.799934 z"
       sodipodi:nodetypes="ccccccccccccccc">
      <title
         id="title15393">Ventral_Anterior_medial_L</title>
    </path>
    <path
       style="fill:#aab656;fill-opacity:1;stroke:#000000;stroke-width:0.3;stroke-linecap:square;stop-color:#000000"
       d="m 21.390179,21.444181 c -2.34394,-1.171776 -2.65336,-3.024985 -2.548679,-4.345494 0.10468,-1.320509 0.625152,-2.101215 0.885592,-2.577299 0.260441,-0.476084 0.260441,-0.649574 0.434867,-0.781249 0.174426,-0.131675 0.521406,-0.21842 1.329504,-0.772187 0.808099,-0.553766 2.076647,-1.572987 3.405191,-2.577409 1.328545,-1.0044211 2.710195,-1.9888275 4.591084,-2.9533581 1.880889,-0.9645305 4.258048,-1.9073062 6.357788,-2.7257965 2.099741,-0.8184903 3.921402,-1.5124547 5.613723,-1.7287955 1.692322,-0.2163407 3.253742,0.043896 4.899056,0.3902903 1.645315,0.3463945 3.375615,0.778969 5.028372,1.2269138 1.652756,0.4479449 3.200057,0.9035703 4.337025,1.9757864 1.136969,1.0722161 1.849293,2.7490781 2.128101,4.4526496 0.278808,1.703572 0.120811,3.412598 -0.472821,5.122694 -0.593633,1.710096 -1.61883,3.407052 -2.501897,5.599654 -0.883066,2.192602 -1.621679,4.876448 -2.380405,6.347715 -0.758726,1.471267 -1.539436,1.731503 -2.666596,1.861887 -1.127161,0.130383 -2.601841,0.130383 -3.7296,-0.301955 -1.127759,-0.432337 -1.908469,-1.299792 -3.339456,-2.341215 -1.430986,-1.041422 -3.512876,-2.255858 -5.334702,-2.907284 -1.821825,-0.651426 -3.383245,-0.738171 -6.350671,-1.023701 -2.967426,-0.285529 -7.341536,-0.770071 -9.685476,-1.941847 z"
       id="path4683"
       inkscape:path-effect="#path-effect4685"
       inkscape:original-d="m 19.356563,22.131034 c -0.31011,-1.858665 -0.61953,-3.711874 -0.93045,-5.572757 0.52312,-0.778063 1.04359,-1.558771 1.56142,-2.342126 0.003,-0.170847 0.003,-0.344337 0,-0.520475 0.34963,-0.0841 0.69661,-0.170844 1.04095,-0.260236 1.27131,-1.020966 2.53986,-2.040185 3.81154,-3.0624 1.38539,-0.9866177 2.76704,-1.9710247 4.1507,-2.9573147 2.37803,-0.942752 4.75519,-1.8855253 7.13146,-2.8283203 1.8243,-0.691316 3.64596,-1.385281 5.46497,-2.081889 1.56406,0.262882 3.12548,0.523118 4.68425,0.780708 1.73217,0.433241 3.46247,0.865815 5.20473,1.301181 1.56325,0.460508 3.11055,0.916134 4.66846,1.374697 0.71621,1.6856413 1.42853,3.3625053 2.14504,5.049575 -0.15874,1.720154 -0.31673,3.429181 -0.47583,5.146999 -1.02814,1.702537 -2.05334,3.399491 -3.08089,5.099639 -0.73858,2.684954 -1.47719,5.368801 -2.21584,8.051542 -0.77806,0.262883 -1.55877,0.523119 -2.34213,0.780709 -1.47202,0.0026 -2.9467,0.0026 -4.42401,0 -0.77806,-0.864809 -1.55877,-1.732264 -2.34213,-2.602365 -2.07924,-1.211789 -4.16113,-2.426226 -6.24567,-3.643307 -1.55877,-0.0841 -3.12019,-0.170844 -4.68425,-0.260236 -4.37068,-0.483926 -8.74479,-0.968468 -13.12232,-1.453624 z"
       sodipodi:nodetypes="cccccccccccccccccccccc">
      <title
         id="title15437">Ventral_Latero_Dorsal_medial_L</title>
    </path>
    <path
       style="fill:#cdffe2;fill-opacity:1;stroke:#000000;stroke-width:0.3;stroke-linecap:square;stop-color:#000000"
       d="m 39.795741,59.157474 c -0.675173,-0.274951 -0.859186,-0.520299 -0.859186,-0.520299 0,0 0.184013,0.245348 0.183291,6.7e-5 -7.23e-4,-0.245281 -0.184737,-0.98133 -0.277135,-1.410934 -0.0924,-0.429604 -0.0924,-0.552284 0.275694,-0.952361 0.368093,-0.400078 1.104153,-1.074798 1.902486,-1.504322 0.798333,-0.429525 1.657064,-0.613541 2.424123,-0.705336 0.767059,-0.0918 1.441779,-0.0918 1.901814,-0.0918 0.460035,0 0.705395,0 0.950215,0.24694 0.24482,0.24694 0.490176,0.737652 0.796445,1.749695 0.306269,1.012042 0.6743,2.545502 0.215217,3.310679 -0.459082,0.765176 -1.747192,0.765176 -2.636597,0.765176 -0.889405,0 -1.380115,0 -2.20794,-0.152933 -0.827824,-0.152934 -1.993254,-0.459625 -2.668427,-0.734577 z"
       id="path10389"
       inkscape:path-effect="#path-effect10391"
       inkscape:original-d="m 39.302363,59.124914 c -0.18137,-0.24271 -0.36538,-0.48806 -0.55205,-0.73606 0.18667,0.248 0.37068,0.49335 0.55205,0.73606 -0.18137,-0.73342 -0.36538,-1.46947 -0.55205,-2.20818 0.003,-0.12003 0.003,-0.24271 0,-0.36803 0.73871,-0.67208 1.47477,-1.3468 2.20818,-2.02416 0.86139,-0.18137 1.72012,-0.36539 2.57621,-0.55205 0.67737,0.003 1.35209,0.003 2.02417,0 0.24799,0.003 0.49335,0.003 0.73605,0 0.248,0.49335 0.49336,0.98406 0.73606,1.47212 0.37068,1.5361 0.73871,3.06956 1.10409,4.60037 -1.28545,0.003 -2.57356,0.003 -3.86431,0 -0.48806,0.003 -0.97877,0.003 -1.47212,0 -1.16278,-0.30404 -2.32821,-0.61073 -3.49628,-0.92007 z">
      <title
         id="title15312">Ventral_Latero_Ventral_medial_L</title>
    </path>
    <path
       style="fill:#ffffe7;fill-opacity:1;stroke:#000000;stroke-width:0.3;stroke-linecap:square;stop-color:#000000"
       d="m 24.585089,52.990615 c -0.695746,-0.695625 -1.470219,-1.771283 -2.07872,-2.662004 -0.608501,-0.89072 -1.042227,-1.584682 -1.411612,-3.221431 -0.369386,-1.636749 -0.672996,-4.217429 -1.042205,-6.36765 -0.369209,-2.15022 -0.801946,-3.859531 -0.708793,-5.678544 0.09315,-1.819012 0.712839,-3.739882 1.081449,-5.756245 0.36861,-2.016364 0.485877,-4.127284 0.718148,-5.921605 0.232271,-1.79432 0.578513,-3.265857 2.489999,-3.678593 1.911487,-0.412735 5.374297,0.236541 8.975987,0.561969 3.601691,0.325427 7.317111,0.325427 9.841363,0.95662 2.524251,0.631192 3.818791,1.882582 4.557243,3.229402 0.738451,1.34682 0.91095,2.76995 1.063355,5.208615 0.152405,2.438664 0.281947,5.849882 -0.01176,8.720084 -0.293713,2.870202 -1.010498,5.180444 -1.422616,7.30624 -0.412117,2.125796 -0.518877,4.063136 -0.800165,6.10706 -0.281288,2.043924 -0.736676,4.190755 -2.589858,5.512886 -1.853181,1.32213 -5.102451,1.820349 -7.752381,1.451199 -2.649929,-0.36915 -4.683466,-1.602254 -6.083415,-2.492128 -1.399949,-0.889873 -2.156154,-1.430016 -2.839601,-1.853328 -0.683447,-0.423312 -1.290667,-0.726922 -1.986413,-1.422547 z"
       id="path4575"
       inkscape:path-effect="#path-effect4577"
       inkscape:original-d="m 24.671783,53.381714 c -0.78239,-1.08676 -1.55686,-2.16242 -2.34212,-3.25295 -0.43108,-0.69132 -0.86481,-1.38528 -1.30118,-2.08189 -0.30288,-2.57647 -0.60649,-5.15715 -0.91083,-7.74204 -0.43413,-1.71557 -0.86686,-3.424882 -1.30118,-5.139659 0.62075,-1.923101 1.24044,-3.843969 1.86007,-5.765743 0.11755,-2.11104 0.23482,-4.22196 0.35194,-6.335247 0.34745,-1.475297 0.6937,-2.946832 1.04094,-4.424018 3.47538,0.651847 6.93819,1.301125 10.40945,1.951771 3.73216,2.65e-4 7.44758,2.66e-4 11.19017,2e-6 1.30591,1.262388 2.60045,2.513778 3.90354,3.773426 0.17405,1.43396 0.34655,2.85709 0.52047,4.293901 0.13091,3.440536 0.26045,6.851754 0.39036,10.279337 -0.71727,2.31293 -1.43406,4.62317 -2.15173,6.93516 -0.1066,1.93952 -0.21336,3.87686 -0.32052,5.81642 -0.45538,2.14834 -0.91077,4.29517 -1.36624,6.44085 -3.25116,0.49881 -6.50043,0.99703 -9.75886,1.49635 -2.04152,-1.23784 -4.07506,-2.47094 -6.11555,-3.70837 -0.7594,-0.54234 -1.5156,-1.08249 -2.27707,-1.62647 -0.60544,-0.30259 -1.21266,-0.6062 -1.82166,-0.91083 z"
       sodipodi:nodetypes="sccccccccccccccccccs">
      <title
         id="title15272">Central_Lateral-Lateral_Posterior-Medial_Pulvinar_medial_L</title>
    </path>
    <path
       style="fill:#b849cc;fill-opacity:1;stroke:#000000;stroke-width:0.3;stroke-linecap:square;stop-color:#000000"
       d="m 48.561342,29.912194 c 0.335082,-2.614161 0.954536,-4.85231 1.959667,-6.604978 1.005131,-1.752668 2.395524,-3.019202 4.124506,-3.711289 1.728982,-0.692087 3.793162,-0.809341 5.913822,-0.157329 2.12066,0.652011 4.284278,2.068226 6.409014,3.328993 2.124735,1.260766 4.191712,2.355232 5.379674,3.945288 1.187961,1.590057 1.478868,3.658867 1.569823,5.679008 0.09095,2.02014 -0.01637,3.989152 0.43215,6.542765 0.448524,2.553614 1.445636,5.651373 2.038914,8.103015 0.593278,2.451641 0.777128,4.237422 0.416956,5.813153 -0.360172,1.575731 -1.264461,2.940061 -2.789456,4.482191 -1.524994,1.542129 -3.672793,3.263771 -7.247391,4.209651 -3.574597,0.94588 -8.584937,1.11937 -11.852346,0.866415 -3.267408,-0.252955 -4.788528,-0.933244 -5.935014,-1.747596 -1.146486,-0.814352 -1.927196,-1.768552 -2.534925,-2.765965 -0.607729,-0.997414 -1.041457,-2.038365 -0.998049,-4.03907 0.04341,-2.000704 0.562944,-4.944735 1.088173,-7.659736 0.525229,-2.715001 1.056227,-5.200861 1.347429,-7.941641 0.291201,-2.74078 0.341971,-5.728713 0.677053,-8.342875 z"
       id="path4653"
       inkscape:path-effect="#path-effect4655"
       inkscape:original-d="m 48.277073,29.535812 c 0.61966,-2.237693 1.23912,-4.475841 1.85836,-6.714445 1.39096,-1.266541 2.78135,-2.533078 4.17172,-3.800093 2.06736,-0.117155 4.13154,-0.234409 6.20103,-0.352244 2.17177,1.421646 4.33539,2.837859 6.50591,4.258499 2.07894,1.100928 4.14592,2.195389 6.22988,3.298725 0.29224,2.07665 0.58314,4.145461 0.87272,6.206438 -0.10762,1.97935 -0.21494,3.948362 -0.32338,5.932662 1.00537,3.12286 2.00248,6.22062 3.00467,9.3347 0.18444,1.78923 0.3683,3.57501 0.55204,5.36211 -0.90402,1.36459 -1.80831,2.72892 -2.71286,4.09298 -2.14551,1.72029 -4.29331,3.44193 -6.43735,5.16008 -5.00538,0.17359 -10.01572,0.34708 -15.03103,0.52047 -1.51957,-0.67945 -3.04069,-1.35974 -4.55525,-2.03724 -0.77807,-0.95156 -1.55878,-1.90576 -2.34213,-2.8626 -0.43108,-1.0383 -0.86481,-2.07925 -1.30118,-3.12284 0.52217,-2.95722 1.04171,-5.90125 1.56142,-8.84803 0.53075,-2.48321 1.06175,-4.96907 1.59299,-7.45756 0.0511,-2.993131 0.10189,-5.981064 0.15244,-8.971612 z"
       sodipodi:nodetypes="ccccccccccccccccccc">
      <title
         id="title15235">Medio_Dorsal_medial_L</title>
    </path>
    <path
       style="fill:#b849cc;fill-opacity:1;stroke:#000000;stroke-width:0.3;stroke-linecap:square;stop-color:#000000"
       d="m 127.54601,56.922728 c 0.81203,-1.210375 2.43749,-3.633236 3.26627,-5.820163 0.82879,-2.186928 0.85937,-4.129248 0.46005,-5.757628 -0.39932,-1.62838 -1.22486,-2.927832 -1.609,-3.794094 -0.38414,-0.866261 -0.3228,-1.295629 0.19967,-1.634334 0.52247,-0.338705 1.50388,-0.584057 2.70079,-0.729558 1.1969,-0.145502 2.60339,-0.191366 3.09433,1.964887 0.49094,2.156253 0.0624,6.503048 0.2774,9.565806 0.21501,3.062757 1.07375,4.826235 3.12628,5.431087 2.05253,0.604853 5.30018,0.05336 7.1058,0.291737 1.80562,0.238372 2.15793,1.264646 1.14696,1.877226 -1.01097,0.612581 -3.38783,0.81193 -5.19151,0.973107 -1.80368,0.161178 -3.02685,0.283495 -4.83973,0.252791 -1.81288,-0.0307 -4.21841,-0.215743 -6.06003,-0.474456 -1.84161,-0.258714 -3.17134,-0.598878 -3.83033,-0.767455 -0.65898,-0.168578 -0.65897,-0.168578 0.15305,-1.378953 z"
       id="path4553"
       inkscape:path-effect="#path-effect4555"
       inkscape:original-d="m 126.73399,58.133103 c 1.62435,-2.420547 3.24981,-4.843409 4.87639,-7.268586 0.031,-1.948875 0.0616,-3.891195 0.092,-5.842474 -0.8293,-1.305531 -1.65484,-2.604982 -2.48421,-3.910314 0.064,-0.426722 0.12533,-0.856091 0.18402,-1.288105 0.98406,-0.242708 1.96547,-0.488061 2.94424,-0.736058 1.41427,-0.04584 2.82076,-0.09171 4.23234,-0.138011 -0.42943,4.358564 -0.85798,8.70536 -1.2881,13.065054 0.85997,1.765741 1.71871,3.529217 2.57621,5.290429 3.2475,-0.551155 6.49515,-1.102643 9.75278,-1.656135 0.35372,1.029883 0.70602,2.056158 1.05809,3.082249 -2.37414,0.199408 -4.751,0.398757 -7.13058,0.598047 -1.22777,0.123068 -2.45094,0.245386 -3.6803,0.36803 -2.39645,-0.184098 -4.80198,-0.369137 -7.17657,-0.552042 -1.30867,-0.334578 -2.6384,-0.674743 -3.95632,-1.012084 z"
       sodipodi:nodetypes="ccccccccccccccc">
      <title
         id="title16846">Medio_Dorsal_lateral_L</title>
    </path>
    <path
       style="fill:#4334a6;fill-opacity:1;stroke:#000000;stroke-width:0.3;stroke-linecap:square;stop-color:#000000"
       d="m 166.12847,32.378511 c 1.04171,-3.168668 3.02441,-6.616845 5.24862,-9.059114 2.22422,-2.442269 4.63561,-3.820207 6.52562,-3.624523 1.89001,0.195684 3.23456,1.973964 5.16134,4.701782 1.92678,2.727818 4.44548,6.419013 5.81229,10.34613 1.3668,3.927116 1.58326,8.083039 1.38778,11.514251 -0.19549,3.431213 -0.80271,6.120318 -1.49569,7.939336 -0.69298,1.819018 -1.47541,2.775325 -2.64548,3.772058 -1.17008,0.996733 -2.73443,2.039632 -4.72733,2.429604 -1.99289,0.389971 -4.42176,0.129735 -6.87494,-0.174194 -2.45319,-0.303929 -4.91338,-0.649219 -6.65491,-1.389239 -1.74153,-0.74002 -2.73381,-1.861725 -3.01683,-3.379787 -0.28302,-1.518062 0.15071,-3.426463 0.28113,-5.854911 0.13042,-2.428449 -0.0431,-5.377794 -0.0866,-8.283962 -0.0435,-2.906168 0.0433,-5.768764 1.08496,-8.937431 z"
       id="path4475"
       inkscape:path-effect="#path-effect4477"
       inkscape:original-d="m 165.17359,32.682176 c 1.9969,-3.472154 3.9796,-6.920331 5.98543,-10.409454 2.44247,-1.395279 4.85386,-2.773219 7.28662,-4.163782 1.34712,1.781584 2.69167,3.559866 4.03366,5.334845 2.51159,3.680648 5.03029,7.371844 7.54686,11.060045 0.21723,4.166059 0.43368,8.321982 0.65059,12.491342 -0.60781,2.693147 -1.21503,5.382252 -1.82166,8.067327 -0.77935,0.953127 -1.56178,1.909434 -2.34212,2.862599 -1.5599,1.040369 -3.12425,2.083271 -4.68426,3.122834 -2.42623,-0.25759 -4.8551,-0.517826 -7.28662,-0.780708 -2.47463,-0.34709 -4.93482,-0.69238 -7.41673,-1.040945 -1.0011,-1.131712 -1.99338,-2.253416 -2.99272,-3.383071 0.43637,-1.905754 0.8701,-3.814154 1.30118,-5.7252 -0.17084,-2.946699 -0.34433,-5.896044 -0.52047,-8.848034 0.087,-2.86019 0.17369,-5.722788 0.26024,-8.587798 z"
       sodipodi:nodetypes="ccccccccccccccc">
      <title
         id="title15161">Pulvinar_lateral_L</title>
    </path>
    <path
       style="fill:#aab656;fill-opacity:1;stroke:#000000;stroke-width:0.3;stroke-linecap:square;stop-color:#000000"
       d="m 143.57193,29.718033 c -1.74452,-0.852762 -2.06507,-2.277314 -2.56608,-4.4869 -0.50101,-2.209586 -1.17699,-5.179934 -1.63898,-7.777399 -0.46199,-2.597465 -0.70734,-4.811654 -0.92751,-7.015751 -0.22017,-2.2040968 -0.41429,-4.3890677 0.96794,-5.4519939 1.38223,-1.0629263 4.33716,-0.996339 6.8628,-1.1573627 2.52565,-0.1610236 4.61741,-0.5482702 6.76118,-0.2643035 2.14377,0.2839667 4.32162,1.2361969 6.31241,2.0821801 1.99078,0.8459832 3.78177,1.5802348 5.28439,2.424975 1.50263,0.8447402 2.71707,1.7989415 3.8015,2.53599 1.08443,0.737048 2.03863,1.257521 2.90576,1.952012 0.86713,0.69449 1.64784,1.561945 2.26563,2.27143 0.61779,0.709486 1.06992,1.257428 1.12153,2.237583 0.0516,0.980155 -0.29946,2.387155 -1.21828,3.693691 -0.91882,1.306535 -2.40416,2.510727 -3.54809,3.7616 -1.14393,1.250872 -1.94376,2.545135 -2.7278,3.653217 -0.78405,1.108083 -1.54988,2.026353 -2.71189,2.528358 -1.16201,0.502004 -2.72343,0.588749 -4.58838,0.632191 -1.86495,0.04344 -4.03359,0.04344 -5.46475,2.52e-4 -1.43116,-0.04319 -2.12511,-0.129934 -4.05398,-0.310911 -1.92886,-0.180976 -5.09289,-0.456096 -6.8374,-1.308858 z"
       id="path4489"
       inkscape:path-effect="#path-effect4491"
       inkscape:original-d="m 142.14921,30.295397 c -0.3216,-1.430171 -0.64215,-2.854722 -0.96472,-4.28736 -0.67946,-2.986533 -1.35544,-5.956881 -2.03453,-8.940042 -0.24485,-2.211752 -0.4902,-4.425941 -0.73606,-6.642565 -0.19447,-2.1915647 -0.38859,-4.3765357 -0.58362,-6.5690517 2.95924,0.06694 5.91417,0.133531 8.86653,0.199801 2.099,-0.388273 4.19076,-0.77552 6.29032,-1.164524 2.18787,0.956757 4.36572,1.90899 6.55326,2.865307 1.79403,0.735656 3.58501,1.46991 5.37296,2.202762 1.21708,0.956846 2.43152,1.911046 3.64331,2.8625987 0.95685,0.523119 1.91105,1.043592 2.8626,1.561418 0.78335,0.870101 1.56406,1.737555 2.34213,2.602364 0.4574,0.554268 0.90953,1.102212 1.36432,1.653425 -0.35129,1.409196 -0.70236,2.816196 -1.05402,4.224216 -1.48606,1.205263 -2.97139,2.409456 -4.4583,3.614446 -0.80088,1.296656 -1.60071,2.590918 -2.40256,3.887759 -0.76626,0.919373 -1.53209,1.837642 -2.29748,2.754805 -1.55877,0.08939 -3.12019,0.176138 -4.68425,0.260236 -2.16599,0.0026 -4.33463,0.0026 -6.50591,0 -0.69132,-0.0841 -1.38528,-0.170844 -2.08189,-0.260236 -3.16085,-0.274602 -6.32488,-0.549721 -9.49209,-0.825359 z"
       sodipodi:nodetypes="ccccccccccccccccccccc">
      <title
         id="title15435">Ventral_Latero_Dorsal_lateral_L</title>
    </path>
    <path
       style="fill:#34569f;fill-opacity:1;stroke:#000000;stroke-width:0.3;stroke-linecap:square;stop-color:#000000"
       d="m 107.34636,23.231961 c 0.39397,-0.904395 1.18303,-2.715734 1.88936,-4.228222 0.70634,-1.512488 1.3269,-2.719807 2.06756,-3.693193 0.74066,-0.973385 1.59857,-1.708737 2.10468,-2.168796 0.50611,-0.460059 0.65945,-0.644072 1.028,-0.905132 0.36856,-0.26106 0.95128,-0.598424 1.59509,-1.043023 0.64381,-0.444599 1.3492,-0.996642 2.22292,-1.5177941 0.87371,-0.5211517 1.913,-1.0102296 2.91351,-1.4566097 1.00052,-0.4463802 1.93882,-0.8398608 2.85201,-1.164885 0.91319,-0.3250243 1.74725,-0.5633268 2.48198,-0.750911 0.73474,-0.1875842 1.30523,-0.3076876 2.05777,-0.5227113 0.75254,-0.2150237 1.67261,-0.5217143 2.33253,-0.674796 0.65991,-0.1530816 1.05862,-0.1530816 1.53399,-0.1530816 0.47537,0 1.02741,0 1.63372,0.023135 0.60631,0.023136 1.26569,0.069139 1.99017,0.3819084 0.72449,0.3127697 1.52952,0.9010615 2.13264,1.5195491 0.60312,0.6184876 1.01826,1.2796425 1.2255,2.4852142 0.20723,1.2055716 0.20724,2.9537116 0.35273,4.5537576 0.14548,1.600046 0.43607,3.052956 0.66703,4.485026 0.23097,1.43207 0.39965,2.827517 0.49907,3.707615 0.0994,0.880098 0.13009,1.248129 0.37567,2.444346 0.24559,1.196216 0.70562,3.220379 0.88902,4.369728 0.1834,1.14935 0.0914,1.42536 0.0457,1.655908 -0.0457,0.230548 -0.0457,0.414563 -0.26063,0.827579 -0.21488,0.413015 -0.64425,1.057068 -1.05853,1.647741 -0.41427,0.590674 -0.81181,1.12582 -1.26452,1.724323 -0.45272,0.598503 -0.95829,1.257278 -1.32639,1.924499 -0.3681,0.667221 -0.59812,1.341943 -0.91255,1.924673 -0.31444,0.582729 -0.71314,1.073438 -1.31798,1.479356 -0.60484,0.405918 -1.41758,0.727947 -2.14712,0.866227 -0.72954,0.13828 -1.36536,0.09286 -1.9933,-0.147362 -0.62793,-0.240227 -1.21727,-0.663344 -1.68472,-1.015712 -0.46745,-0.352369 -0.80481,-0.62839 -1.29403,-0.942321 -0.48921,-0.31393 -1.13326,-0.666624 -1.91435,-1.238862 -0.78109,-0.572237 -1.67584,-1.345664 -2.6135,-2.10657 -0.93767,-0.760907 -1.8714,-1.472322 -2.98606,-2.183842 -1.11466,-0.711519 -2.2793,-1.338634 -3.31708,-1.903308 -1.03779,-0.564675 -1.92719,-1.055379 -2.97492,-1.71789 -1.04772,-0.66251 -2.22893,-1.48027 -3.6351,-2.446046 -1.40617,-0.965776 -2.99084,-2.047617 -3.78733,-2.591369 -0.79648,-0.543753 -0.79647,-0.543753 -0.4025,-1.448149 z"
       id="path4525"
       inkscape:path-effect="#path-effect4527"
       inkscape:original-d="m 106.95239,24.136357 c 0.78826,-1.808653 1.57731,-3.619993 2.36716,-5.43402 0.62282,-1.210924 1.24339,-2.418243 1.86518,-3.628713 0.85945,-0.73618 1.71736,-1.471535 2.57621,-2.208178 0.15599,-0.181369 0.30933,-0.365384 0.46003,-0.552044 0.58536,-0.334715 1.16808,-0.672076 1.74814,-1.012082 0.70804,-0.549399 1.41343,-1.101444 2.11618,-1.6561337 1.04254,-0.490219 2.08183,-0.979296 3.12825,-1.472119 0.95459,-0.399939 1.89289,-0.793418 2.85223,-1.196097 0.867,-0.247375 1.70106,-0.485678 2.57621,-0.736059 0.59429,-0.124794 1.16478,-0.244899 1.74814,-0.36803 0.92272,-0.304046 1.84279,-0.610737 2.76022,-0.920075 0.40134,0.0026 0.80005,0.0026 1.1961,0 0.55469,0.0026 1.10673,0.0026 1.65613,0 0.6632,0.04651 1.32258,0.09252 1.97816,0.138011 0.79338,0.579847 1.59841,1.168138 2.39219,1.748142 0.41256,0.656883 0.82771,1.318034 1.2421,1.97816 2.7e-4,1.7510657 2.7e-4,3.4992057 1e-5,5.2444237 0.29118,1.454833 0.58176,2.907743 0.87407,4.370352 0.16965,1.401544 0.33833,2.796991 0.50604,4.186339 0.0333,0.370676 0.064,0.738705 0.092,1.104089 0.46268,2.02681 0.92272,4.050972 1.38011,6.072492 -0.0894,0.278667 -0.18137,0.554688 -0.27602,0.828066 0.003,0.186661 0.003,0.370676 0,0.552045 -0.42672,0.646698 -0.85609,1.290749 -1.2881,1.932155 -0.39929,0.538129 -0.79683,1.073274 -1.1961,1.61013 -0.50616,0.660156 -1.01173,1.318932 -1.51812,1.97816 -0.22979,0.675095 -0.45981,1.349817 -0.69006,2.024164 -0.39605,0.49335 -0.79475,0.984057 -1.19609,1.472118 -0.8111,0.321749 -1.62384,0.643776 -2.4382,0.96608 -0.64487,-0.04582 -1.28069,-0.09123 -1.93216,-0.138012 -0.60442,-0.433868 -1.19376,-0.856986 -1.79414,-1.288103 -0.33472,-0.273379 -0.67208,-0.5494 -1.01208,-0.828067 -0.63824,-0.34939 -1.28229,-0.702084 -1.93216,-1.058088 -0.91228,-0.788545 -1.80703,-1.56197 -2.71422,-2.346189 -0.96815,-0.737575 -1.90188,-1.448991 -2.89823,-2.20818 -1.23299,-0.663794 -2.39763,-1.29091 -3.58829,-1.932157 -0.88491,-0.488103 -1.77431,-0.97881 -2.66822,-1.47212 -1.20153,-0.831748 -2.38274,-1.649505 -3.58829,-2.4842 -1.60679,-1.096855 -3.19146,-2.178698 -4.78439,-3.26626 z"
       sodipodi:nodetypes="cccccccccccccccccccccccccccccccccccccccc">
      <title
         id="title15352">Ventral_Anterior_lateral_L</title>
    </path>
    <path
       style="fill:#6b7d49;fill-opacity:1;stroke:#000000;stroke-width:0.3;stroke-linecap:square;stop-color:#000000"
       d="m 128.4496,38.698957 c 1.09482,1.069319 2.40592,2.030118 3.25341,3.337619 0.84749,1.307501 1.20742,2.924567 1.28393,4.263851 0.0765,1.339284 -0.13337,2.384139 -0.34595,3.265878 -0.21258,0.881739 -0.42726,1.598929 -0.70953,2.620665 -0.28227,1.021736 -0.63598,2.362213 -1.65923,3.902185 -1.02325,1.539972 -2.71742,3.284955 -4.59051,4.310253 -1.87309,1.025297 -3.92894,1.331585 -5.76367,1.454954 -1.83472,0.123369 -3.45748,0.06466 -5.01147,-0.07859 -1.55399,-0.143253 -3.02882,-0.369788 -4.0916,-0.556014 -1.06279,-0.186227 -1.70857,-0.331681 -2.8134,-0.77916 -1.10483,-0.44748 -2.6536,-1.190787 -3.84619,-1.994493 -1.1926,-0.803705 -2.03773,-1.674237 -2.89796,-3.026426 -0.86024,-1.35219 -1.724403,-3.166928 -2.198589,-5.95256 -0.474187,-2.785632 -0.55567,-6.539364 -0.314112,-9.326335 0.241558,-2.786971 0.805853,-4.602907 1.412841,-6.420358 0.60699,-1.81745 1.25758,-3.639103 1.73476,-4.767281 0.47718,-1.128178 0.7808,-1.561906 1.63089,-2.723484 0.85008,-1.161577 2.24634,-3.050549 3.34715,-3.853466 1.10081,-0.802918 1.90238,-0.518618 3.37431,0.44902 1.47192,0.967639 3.60943,2.6158 4.87306,3.722275 1.26363,1.106475 1.65399,1.670322 1.84812,1.995427 0.19413,0.325104 0.19413,0.411849 0.49901,0.780562 0.30489,0.368712 0.9121,1.019304 1.30267,1.409403 0.39056,0.3901 0.56405,0.520218 1.43155,1.105656 0.8675,0.585438 2.42892,1.626384 3.44822,2.276814 1.01931,0.650431 1.49641,0.910667 2.16821,1.626946 0.67181,0.716279 1.53926,1.88734 2.63408,2.95666 z"
       id="path4533"
       inkscape:path-effect="#path-effect4535"
       inkscape:original-d="m 128.22003,38.797728 c 1.32436,0.970596 2.63545,1.931395 3.96534,2.905896 0.36533,1.640409 0.72525,3.257477 1.0883,4.889471 -0.20992,1.046678 -0.4198,2.091532 -0.62962,3.134557 -0.21533,0.720485 -0.43001,1.437676 -0.64405,2.151574 -0.3505,1.329561 -0.7042,2.670041 -1.05674,4.0048 -1.69401,1.745365 -3.38818,3.490347 -5.0825,5.234945 -2.05209,0.306032 -4.10794,0.61232 -6.15749,0.917365 -1.61995,-0.05835 -3.24271,-0.117057 -4.86827,-0.17612 -1.48244,-0.22748 -2.95727,-0.454014 -4.44116,-0.682164 -0.64169,-0.144328 -1.28747,-0.289782 -1.93734,-0.43636 -1.5598,-0.748462 -3.10857,-1.491769 -4.65268,-2.232978 -0.84103,-0.866317 -1.68615,-1.736853 -2.53539,-2.611611 -0.87113,-1.829669 -1.735289,-3.644407 -2.602359,-5.464963 -0.0812,-3.750659 -0.16264,-7.504392 -0.24445,-11.261197 0.56498,-1.817034 1.12928,-3.632968 1.692889,-5.447822 0.65323,-1.819011 1.30382,-3.640664 1.95177,-5.464964 0.30625,-0.43108 0.60986,-0.864809 0.91083,-1.301181 1.39649,-1.888675 2.79274,-3.777648 4.19017,-5.668827 0.80385,0.28528 1.60542,0.56958 2.4091,0.854455 2.14019,1.650285 4.2777,3.298448 6.41254,4.944489 0.393,0.566491 0.78336,1.130337 1.17107,1.691537 0.003,0.08939 0.003,0.176135 0,0.260236 0.60986,0.653238 1.21708,1.303827 1.82165,1.951773 0.17614,0.132763 0.34963,0.262882 0.52047,0.390353 1.56407,1.043593 3.12549,2.084538 4.68426,3.122837 0.47974,0.262882 0.95684,0.523119 1.4313,0.780709 0.8701,1.17371 1.73755,2.344772 2.60236,3.51319 z"
       sodipodi:nodetypes="cccccccccccccccccccccccccccc">
      <title
         id="title15199">Anterior_lateral_L</title>
    </path>
    <path
       style="fill:#cdffe2;fill-opacity:1;stroke:#000000;stroke-width:0.3;stroke-linecap:square;stop-color:#000000"
       d="m 133.3252,53.149561 c 0.0125,-2.335344 0.44624,-5.544924 0.79343,-7.801736 0.3472,-2.256813 0.6073,-3.557325 1.85969,-6.241823 1.2524,-2.684498 3.49726,-6.752818 5.98528,-8.876197 2.48801,-2.12338 5.21419,-2.300962 7.88999,-2.044678 2.67581,0.256283 5.28303,0.944155 8.02209,1.36825 2.73906,0.424095 5.59078,0.58144 7.13281,2.014537 1.54203,1.433096 1.76453,4.137991 2.50205,8.519364 0.73751,4.381373 1.98944,10.438389 -0.69889,13.993851 -2.68833,3.555461 -9.31872,4.610386 -13.45739,4.878268 -4.13867,0.267881 -5.78683,-0.252591 -8.58069,-0.477336 -2.79386,-0.224745 -6.72566,-0.152848 -8.88956,-0.845107 -2.1639,-0.69226 -2.57132,-2.15205 -2.55881,-4.487393 z"
       id="path3749"
       inkscape:path-effect="#path-effect3751"
       inkscape:original-d="m 132.90428,54.021554 c 0.43638,-3.206938 0.8701,-6.416519 1.30119,-9.628745 0.26066,-1.301736 0.52076,-2.602248 0.7807,-3.903544 2.24487,-4.067586 4.48973,-8.135906 6.73458,-12.204954 2.73088,-0.177606 5.45706,-0.355187 8.1909,-0.533549 2.6177,0.690829 5.22492,1.378701 7.84137,2.068813 2.86171,0.158146 5.71343,0.315491 8.57472,0.473114 0.22303,2.708301 0.44553,5.413196 0.6675,8.114684 1.25301,6.061237 2.50494,12.118252 3.75652,18.174603 -6.62839,1.054913 -13.25878,2.109839 -19.89117,3.164775 -1.64552,-0.517826 -3.29368,-1.038299 -4.94449,-1.561417 -3.93639,0.07225 -7.86819,0.144149 -11.78956,0.215586 -0.40625,-1.456275 -0.81367,-2.916065 -1.22226,-4.379366 z"
       sodipodi:nodetypes="ccccccccccccc">
      <title
         id="title15310">Ventral_Latero_Ventral_lateral_L</title>
    </path>
  </g>
</svg>
