<svg width="51" height="51" viewBox="0 0 51 51" fill="none" xmlns="http://www.w3.org/2000/svg">
<rect x="1.0488" y="1.39258" width="49" height="49" fill="white" stroke="black"/>
<path d="M7.10878 21.6703L0.907428 21.6897" stroke="black"/>
<path d="M50.0479 21.7158H45.1645" stroke="black"/>
<path d="M7.10878 30.4052L1.04058 30.4252" stroke="black"/>
<path d="M50.0479 30.6147H45.1645" stroke="black"/>
<mask id="path-6-inside-1_108_531" fill="white">
<path d="M39.3898 18.5376L45.8244 19.6919V23.9468L39.3898 24.8315V27.3491L45.8244 28.5034V32.7593L39.3898 33.644V36.0356H12.7677V33.6108L6.25016 32.4419V28.186L12.7677 27.2886V24.7983L6.25016 23.6304V19.3745L12.7677 18.4771V15.7485H39.3898V18.5376Z"/>
</mask>
<path d="M39.3898 18.5376L45.8244 19.6919V23.9468L39.3898 24.8315V27.3491L45.8244 28.5034V32.7593L39.3898 33.644V36.0356H12.7677V33.6108L6.25016 32.4419V28.186L12.7677 27.2886V24.7983L6.25016 23.6304V19.3745L12.7677 18.4771V15.7485H39.3898V18.5376Z" fill="#2FAA96"/>
<path d="M39.3898 18.5376H38.3898V19.3742L39.2132 19.5219L39.3898 18.5376ZM45.8244 19.6919H46.8244V18.8553L46.001 18.7076L45.8244 19.6919ZM45.8244 23.9468L45.9606 24.9375L46.8244 24.8187V23.9468H45.8244ZM39.3898 24.8315L39.2536 23.8409L38.3898 23.9596V24.8315H39.3898ZM39.3898 27.3491H38.3898V28.1857L39.2132 28.3334L39.3898 27.3491ZM45.8244 28.5034H46.8244V27.6668L46.001 27.5191L45.8244 28.5034ZM45.8244 32.7593L45.9606 33.75L46.8244 33.6312V32.7593H45.8244ZM39.3898 33.644L39.2536 32.6534L38.3898 32.7721V33.644H39.3898ZM39.3898 36.0356V37.0356H40.3898V36.0356H39.3898ZM12.7677 36.0356H11.7677V37.0356H12.7677V36.0356ZM12.7677 33.6108H13.7677V32.7742L12.9443 32.6265L12.7677 33.6108ZM6.25016 32.4419H5.25016V33.2785L6.07362 33.4262L6.25016 32.4419ZM6.25016 28.186L6.11375 27.1954L5.25016 27.3143V28.186H6.25016ZM12.7677 27.2886L12.9041 28.2792L13.7677 28.1603V27.2886H12.7677ZM12.7677 24.7983H13.7677V23.9616L12.9441 23.814L12.7677 24.7983ZM6.25016 23.6304H5.25016V24.4671L6.07377 24.6147L6.25016 23.6304ZM6.25016 19.3745L6.11375 18.3839L5.25016 18.5028V19.3745H6.25016ZM12.7677 18.4771L12.9041 19.4677L13.7677 19.3488V18.4771H12.7677ZM12.7677 15.7485V14.7485H11.7677V15.7485H12.7677ZM39.3898 15.7485H40.3898V14.7485H39.3898V15.7485ZM39.3898 18.5376L39.2132 19.5219L45.6478 20.6762L45.8244 19.6919L46.001 18.7076L39.5664 17.5533L39.3898 18.5376ZM45.8244 19.6919H44.8244V23.9468H45.8244H46.8244V19.6919H45.8244ZM45.8244 23.9468L45.6882 22.9561L39.2536 23.8409L39.3898 24.8315L39.526 25.8222L45.9606 24.9375L45.8244 23.9468ZM39.3898 24.8315H38.3898V27.3491H39.3898H40.3898V24.8315H39.3898ZM39.3898 27.3491L39.2132 28.3334L45.6478 29.4877L45.8244 28.5034L46.001 27.5191L39.5664 26.3648L39.3898 27.3491ZM45.8244 28.5034H44.8244V32.7593H45.8244H46.8244V28.5034H45.8244ZM45.8244 32.7593L45.6882 31.7686L39.2536 32.6534L39.3898 33.644L39.526 34.6347L45.9606 33.75L45.8244 32.7593ZM39.3898 33.644H38.3898V36.0356H39.3898H40.3898V33.644H39.3898ZM39.3898 36.0356V35.0356H12.7677V36.0356V37.0356H39.3898V36.0356ZM12.7677 36.0356H13.7677V33.6108H12.7677H11.7677V36.0356H12.7677ZM12.7677 33.6108L12.9443 32.6265L6.4267 31.4576L6.25016 32.4419L6.07362 33.4262L12.5912 34.5951L12.7677 33.6108ZM6.25016 32.4419H7.25016V28.186H6.25016H5.25016V32.4419H6.25016ZM6.25016 28.186L6.38657 29.1767L12.9041 28.2792L12.7677 27.2886L12.6313 26.2979L6.11375 27.1954L6.25016 28.186ZM12.7677 27.2886H13.7677V24.7983H12.7677H11.7677V27.2886H12.7677ZM12.7677 24.7983L12.9441 23.814L6.42655 22.6461L6.25016 23.6304L6.07377 24.6147L12.5913 25.7827L12.7677 24.7983ZM6.25016 23.6304H7.25016V19.3745H6.25016H5.25016V23.6304H6.25016ZM6.25016 19.3745L6.38657 20.3652L12.9041 19.4677L12.7677 18.4771L12.6313 17.4864L6.11375 18.3839L6.25016 19.3745ZM12.7677 18.4771H13.7677V15.7485H12.7677H11.7677V18.4771H12.7677ZM12.7677 15.7485V16.7485H39.3898V15.7485V14.7485H12.7677V15.7485ZM39.3898 15.7485H38.3898V18.5376H39.3898H40.3898V15.7485H39.3898Z" fill="black" mask="url(#path-6-inside-1_108_531)"/>
</svg>
