####
#
# OBJ File Generated by Meshlab
#
####
# Object pincette_left_collider.obj
#
# Vertices: 68
# Faces: 132
#
####
vn 1.3337821436583954 3.5046151489970612 3.0685116065900169
v -0.0040039857849479 0.0526642687618732 0.0715885162353516
vn 0.4404966030763791 -3.7547466341280056 3.5934678996110052
v -0.0040114196017385 -0.0525466203689575 0.0715130567550659
vn 1.9538427615241525 1.6902800908729261 4.7961252621061492
v 0.0021802345290780 0.0412775836884975 0.0748506188392639
vn 0.6530532746977293 -0.8273042989860456 6.0429831001398773
v 0.0035182461142540 -0.0376662574708462 0.0750942230224609
vn 2.4807901682601692 4.7299473216501706 0.8478461782289136
v 0.0029047196730971 0.0564764142036438 0.0515966489911079
vn 0.7362489038588462 -6.0915431749603268 0.5973163018755404
v 0.0049760565161705 -0.0567234680056572 0.0494043864309788
vn 1.8743769549618583 -4.9788158678052907 -2.3126192257020408
v 0.0257976818829775 -0.0512612313032150 0.0292140245437622
vn 2.5821039010641886 4.7517064603385295 -0.6370774867374559
v 0.0036547891795635 0.0562166534364223 0.0394305065274239
vn 1.5143363478863305 -5.8754626087219224 -0.5942305441304168
v 0.0213555376976728 -0.0538181550800800 0.0359109044075012
vn 5.7272657088031123 0.7995901164471135 -1.5970631640632089
v 0.0373057872056961 0.0058935955166817 0.0337100066244602
vn 5.6724158782653173 -0.2203102029599516 -2.5515981227790840
v 0.0311923194676638 -0.0134192034602165 0.0171024240553379
vn 2.4309578957790654 -3.2666045504907530 -3.9549377970035944
v 0.0276606325060129 -0.0451535433530807 0.0224956870079041
vn 4.0646949778975960 -1.5126674684208394 -3.7847249794036548
v 0.0307926740497351 -0.0371402911841869 0.0205627046525478
vn 2.6475951786114340 1.4751072281513555 -4.0890899296110748
v 0.0227156411856413 0.0119779752567410 0.0056656077504158
vn 5.1677091722396762 2.3130106884202095 -2.2692281710369429
v 0.0290740262717009 0.0111760469153523 0.0172300338745117
vn 0.3049466299149556 -5.9572652909610051 -1.3740012717738861
v -0.0002605635672808 -0.0565507411956787 0.0359096005558968
vn 6.1118320537399971 0.3768345564729296 -0.2160391321017289
v 0.0392400175333023 0.0030260155908763 0.0455349050462246
vn 5.7261073841343482 -1.1879753195520237 -1.0123946622602331
v 0.0378061160445213 -0.0401137322187424 0.0375193357467651
vn 5.7667493936537380 -1.0626868287619868 1.0487353219531621
v 0.0377437770366669 -0.0397493727505207 0.0599908195436001
vn 3.3953688369200430 0.7629262791996209 4.0921803955487013
v 0.0341207608580589 0.0056362221948802 0.0686029940843582
vn 5.3706072656858588 2.2257964276208693 0.7835421468022195
v 0.0374256595969200 0.0109506277367473 0.0561915636062622
vn 3.9786031005171276 -3.4358775533733432 -1.2545948304495436
v 0.0341472253203392 -0.0479282028973103 0.0339736342430115
vn 2.8946267251716109 -3.3419442751623771 1.8322898131527312
v 0.0341077670454979 -0.0479730218648911 0.0633166432380676
vn 3.0482497615828175 -1.1599325434216805 3.8813739302370562
v 0.0341142639517784 -0.0403573438525200 0.0687118917703629
vn 5.0204936375866813 1.7432558354050660 2.0863866543199756
v 0.0365478023886681 0.0088503435254097 0.0631700158119202
vn 5.4158831861517696 2.4362955978292424 -0.7619686352482089
v 0.0374567657709122 0.0106506971642375 0.0404676273465157
vn -2.1850156257295916 2.5993095005947677 4.0157730155993692
v -0.0214401893317699 0.0500210486352444 0.0727187395095825
vn -1.9759986409864208 -2.5787148116381973 4.0089731833955797
v -0.0211180709302425 -0.0505108796060085 0.0725895762443542
vn -1.7212888186426321 -4.2123313154700863 2.4073909181621089
v -0.0200184844434261 -0.0532788597047329 0.0704778432846069
vn -1.6423362040317593 3.9845601355736666 2.5643286013085937
v -0.0199607424438000 0.0530906282365322 0.0709167718887329
vn 1.4823820730422546 2.1434393821120761 -4.7086805520325266
v 0.0132629424333572 0.0217906236648560 0.0056146383285522
vn -2.9182731852011075 -1.3713381948861993 -4.9749786196389190
v -0.0224892832338810 -0.0125304423272610 0.0071104802191257
vn -1.6004904710763908 1.5689435896169839 -5.1266526496734031
v -0.0178481768816710 0.0192685704678297 0.0055744126439095
vn -0.7320447772382690 -1.8517439419102815 -5.4471012672249763
v -0.0077345138415694 -0.0246698204427958 0.0055462792515755
vn 0.8868290309200657 -1.7143271540803646 -5.5168529728456051
v 0.0097093172371387 -0.0234686657786369 0.0055913403630257
vn 2.8676160336591119 0.0929066593317864 -4.2055600490348555
v 0.0256761480122805 0.0006499617011286 0.0055615380406380
vn -2.9243001480252739 0.2611314126337544 -4.0947999642922550
v -0.0254548564553261 0.0030257077887654 0.0055969357490540
vn -0.7248325972191703 4.6991987368343242 -3.6031083191695705
v -0.0146332839503884 0.0525745712220669 0.0267338789999485
vn 0.9396646296880163 3.7617755605489132 -4.6832312885134035
v 0.0016450993716717 0.0443373322486877 0.0196384787559509
vn -3.6759175987011661 3.6342227844298733 -2.8083417411795546
v -0.0237095803022385 0.0490766093134880 0.0280316472053528
vn -3.3711586406070015 -2.8923826345050707 -4.0081247631257506
v -0.0235970281064510 -0.0428580604493618 0.0220837704837322
vn -1.0968669729311797 -5.0139878338003934 -2.8852583751606304
v -0.0166409313678741 -0.0539116188883781 0.0289734676480293
vn -1.9608975811846490 -5.4207291062434289 -1.1138068836952728
v -0.0198741834610701 -0.0562900304794312 0.0387305095791817
vn -5.1875521120590768 -1.7941615651552767 -1.4431786744498341
v -0.0277718566358089 -0.0443984232842922 0.0295386984944344
vn -4.3566410213710620 -1.6371739753122752 -3.3717202694649586
v -0.0261664092540741 -0.0336402021348476 0.0190737880766392
vn -5.3068985356406806 -0.4595040517046224 -2.2250579959705474
v -0.0272107459604740 -0.0019103903323412 0.0088103488087654
vn -4.7912807348455493 3.3350824201164380 -1.0557235139533740
v -0.0259613804519176 0.0509230978786945 0.0365461781620979
vn 2.4573175877707505 4.1458737009527731 -2.6958567524104327
v 0.0037088487297297 0.0517011247575283 0.0274704173207283
vn 1.9332092552141757 5.1321378044481269 -1.8950804613671461
v 0.0026009185239673 0.0548308454453945 0.0330572798848152
vn -3.0862667244753692 -4.1922245587351679 -2.8551867279957297
v -0.0214972794055939 -0.0515898391604424 0.0288636088371277
vn -1.3883889868851866 -3.6351000293290294 -4.6998416987282727
v -0.0169893819838762 -0.0457443483173847 0.0209150388836861
vn -4.5221761214993199 1.8064529294148302 -2.8039278532447018
v -0.0266278795897961 0.0393500253558159 0.0226611606776714
vn -5.7301929199590118 1.3987887003521371 -0.9055766565660999
v -0.0281055998057127 0.0444614179432392 0.0332356803119183
vn -1.6306844421967117 3.5049382204581918 -4.5121345548440823
v -0.0183091610670090 0.0463846288621426 0.0215657986700535
vn -1.4551564943984967 5.1936636141954757 -2.2639114406392888
v -0.0176372397691011 0.0550372004508972 0.0317858494818211
vn -0.8020739775264748 5.9651304132040135 -0.5885622347456193
v -0.0173051822930574 0.0574467703700066 0.0419458784162998
vn -3.3105456680959762 4.8747745628882972 -0.8679594371901802
v -0.0221030507236719 0.0553921982645988 0.0396642684936523
vn -3.5515330649725794 -4.6375626545275299 0.1501457861310131
v -0.0236306432634592 -0.0554119907319546 0.0498057082295418
vn 0.2166028860809097 -4.5584867334018844 -3.9121053080322010
v 0.0009436849504709 -0.0508277378976345 0.0237105004489422
vn -2.2238152455879332 0.8462066142783494 4.9700842893016262
v -0.0261164046823978 0.0403070971369743 0.0747761726379395
vn -4.7090809433367342 1.2816954787141110 2.1882656664791922
v -0.0278490558266640 0.0411661751568317 0.0728775858879089
vn -4.7647419821865551 3.1416056389871976 0.5610731474279202
v -0.0262143984436989 0.0519778653979301 0.0564662292599678
vn -2.0669549435626733 5.3136334867018391 0.3919166799237901
v -0.0208201855421066 0.0568512603640556 0.0508167780935764
vn -4.7029554560279889 -1.3745852266525358 2.1718681810384939
v -0.0278191827237606 -0.0412973128259182 0.0727136135101318
vn -0.9531868448065748 -5.9620046553300892 0.3319310848179817
v -0.0185515563935041 -0.0573151111602783 0.0492084696888924
vn -4.9921353498260936 -2.8515229828761415 0.6767464886677004
v -0.0265313033014536 -0.0511609353125095 0.0579242780804634
vn -2.3779198957240157 -0.6982287190555212 4.7599126486657344
v -0.0262992642819881 -0.0393660627305508 0.0748897194862366
vn -4.7957554724055509 -3.3604107713168534 -0.9077553127708580
v -0.0258607547730207 -0.0513136945664883 0.0378882288932800
# 68 vertices, 0 vertices normals

f 58//58 66//66 68//68
f 27//27 61//61 60//60
f 54//54 38//38 39//39
f 8//8 48//48 49//49
f 2//2 67//67 28//28
f 48//48 15//15 14//14
f 29//29 66//66 58//58
f 43//43 68//68 50//50
f 43//43 50//50 42//42
f 53//53 62//62 47//47
f 50//50 51//51 42//42
f 52//52 47//47 40//40
f 29//29 58//58 65//65
f 44//44 45//45 41//41
f 52//52 40//40 54//54
f 44//44 41//41 50//50
f 55//55 40//40 57//57
f 46//46 37//37 32//32
f 62//62 63//63 47//47
f 4//4 60//60 67//67
f 11//11 18//18 13//13
f 40//40 55//55 54//54
f 45//45 46//46 32//32
f 1//1 25//25 5//5
f 32//32 37//37 34//34
f 47//47 57//57 40//40
f 5//5 25//25 21//21
f 48//48 31//31 39//39
f 57//57 63//63 56//56
f 10//10 15//15 26//26
f 6//6 9//9 23//23
f 49//49 56//56 8//8
f 61//61 64//64 67//67
f 12//12 7//7 59//59
f 11//11 13//13 36//36
f 46//46 53//53 52//52
f 17//17 26//26 21//21
f 28//28 29//29 2//2
f 20//20 4//4 24//24
f 49//49 48//48 38//38
f 51//51 59//59 42//42
f 33//33 52//52 54//54
f 13//13 12//12 35//35
f 22//22 7//7 12//12
f 43//43 65//65 58//58
f 11//11 36//36 10//10
f 41//41 51//51 50//50
f 63//63 1//1 5//5
f 68//68 66//66 44//44
f 22//22 13//13 18//18
f 24//24 23//23 19//19
f 17//17 21//21 25//25
f 43//43 58//58 68//68
f 14//14 31//31 48//48
f 7//7 16//16 59//59
f 68//68 44//44 50//50
f 3//3 27//27 60//60
f 6//6 23//23 2//2
f 48//48 26//26 15//15
f 5//5 56//56 63//63
f 48//48 39//39 38//38
f 39//39 33//33 54//54
f 19//19 20//20 24//24
f 57//57 56//56 55//55
f 36//36 15//15 10//10
f 35//35 59//59 34//34
f 62//62 53//53 61//61
f 2//2 65//65 6//6
f 34//34 59//59 51//51
f 25//25 3//3 20//20
f 18//18 23//23 22//22
f 41//41 32//32 34//34
f 22//22 9//9 7//7
f 4//4 2//2 24//24
f 44//44 46//46 45//45
f 18//18 17//17 19//19
f 30//30 61//61 27//27
f 35//35 37//37 31//31
f 16//16 6//6 65//65
f 49//49 38//38 55//55
f 30//30 62//62 61//61
f 46//46 52//52 37//37
f 66//66 64//64 44//44
f 16//16 43//43 42//42
f 61//61 53//53 46//46
f 28//28 64//64 29//29
f 53//53 47//47 52//52
f 38//38 54//54 55//55
f 29//29 64//64 66//66
f 51//51 41//41 34//34
f 42//42 59//59 16//16
f 16//16 9//9 6//6
f 13//13 35//35 36//36
f 16//16 7//7 9//9
f 52//52 33//33 37//37
f 43//43 16//16 65//65
f 26//26 5//5 21//21
f 67//67 64//64 28//28
f 67//67 60//60 61//61
f 2//2 23//23 24//24
f 17//17 25//25 19//19
f 1//1 30//30 27//27
f 45//45 32//32 41//41
f 63//63 57//57 47//47
f 62//62 30//30 63//63
f 13//13 22//22 12//12
f 17//17 10//10 26//26
f 17//17 11//11 10//10
f 2//2 4//4 67//67
f 4//4 3//3 60//60
f 49//49 55//55 56//56
f 20//20 3//3 4//4
f 63//63 30//30 1//1
f 3//3 1//1 27//27
f 48//48 8//8 26//26
f 5//5 8//8 56//56
f 39//39 31//31 33//33
f 19//19 25//25 20//20
f 36//36 14//14 15//15
f 35//35 12//12 59//59
f 2//2 29//29 65//65
f 25//25 1//1 3//3
f 18//18 19//19 23//23
f 22//22 23//23 9//9
f 14//14 36//36 31//31
f 36//36 35//35 31//31
f 35//35 34//34 37//37
f 37//37 33//33 31//31
f 44//44 64//64 46//46
f 64//64 61//61 46//46
f 26//26 8//8 5//5
f 17//17 18//18 11//11
# 132 faces, 0 coords texture

# End of File
