<svg width="51" height="51" viewBox="0 0 51 51" fill="none" xmlns="http://www.w3.org/2000/svg">
<rect x="1.01276" y="1" width="49" height="49" fill="white" stroke="black"/>
<rect x="3.67796" y="41.1416" width="43.2006" height="4.10798" fill="#2FAA96" stroke="black"/>
<path d="M3.80854 43.1958H1.04531" stroke="black"/>
<path d="M50.0732 43.1958H47.3786" stroke="black"/>
<rect x="3.67796" y="7.22217" width="43.0622" height="4.10798" fill="#2FAA96" stroke="black"/>
<path d="M3.42585 9.27637L0.758783 9.27637" stroke="black"/>
<path d="M49.7815 9.27637H47.2402" stroke="black"/>
<mask id="path-8-outside-1_142_110" maskUnits="userSpaceOnUse" x="18.165" y="11.7402" width="15" height="15" fill="black">
<rect fill="white" x="18.165" y="11.7402" width="15" height="15"/>
<path d="M25.2783 12.7402C28.6546 12.7403 31.3914 15.4772 31.3916 18.8535C31.3916 22.2299 28.6547 24.9678 25.2783 24.9678C21.9019 24.9678 19.165 22.2299 19.165 18.8535C19.1651 15.4772 21.9019 12.7402 25.2783 12.7402ZM25.2783 14.0859C22.6451 14.086 20.5108 16.2203 20.5107 18.8535C20.5107 21.4868 22.645 23.622 25.2783 23.6221C27.9116 23.6221 30.0468 21.4868 30.0468 18.8535C30.0467 16.2203 27.9115 14.0859 25.2783 14.0859Z"/>
</mask>
<path d="M25.2783 12.7402C28.6546 12.7403 31.3914 15.4772 31.3916 18.8535C31.3916 22.2299 28.6547 24.9678 25.2783 24.9678C21.9019 24.9678 19.165 22.2299 19.165 18.8535C19.1651 15.4772 21.9019 12.7402 25.2783 12.7402ZM25.2783 14.0859C22.6451 14.086 20.5108 16.2203 20.5107 18.8535C20.5107 21.4868 22.645 23.622 25.2783 23.6221C27.9116 23.6221 30.0468 21.4868 30.0468 18.8535C30.0467 16.2203 27.9115 14.0859 25.2783 14.0859Z" fill="#2FAA96"/>
<path d="M25.2783 12.7402L25.2783 11.7402H25.2783V12.7402ZM31.3916 18.8535L32.3916 18.8535L32.3916 18.8535L31.3916 18.8535ZM25.2783 24.9678L25.2783 25.9678L25.2783 25.9678L25.2783 24.9678ZM19.165 18.8535L18.165 18.8535V18.8535H19.165ZM25.2783 14.0859L25.2783 13.0859L25.2783 13.0859L25.2783 14.0859ZM20.5107 18.8535L19.5107 18.8535V18.8535H20.5107ZM25.2783 23.6221L25.2783 24.6221H25.2783V23.6221ZM30.0468 18.8535L31.0468 18.8535L31.0468 18.8535L30.0468 18.8535ZM25.2783 12.7402L25.2783 13.7402C28.1023 13.7402 30.3914 16.0295 30.3916 18.8536L31.3916 18.8535L32.3916 18.8535C32.3914 14.925 29.2069 11.7403 25.2783 11.7402L25.2783 12.7402ZM31.3916 18.8535H30.3916C30.3916 21.6778 28.1022 23.9678 25.2783 23.9678L25.2783 24.9678L25.2783 25.9678C29.2072 25.9678 32.3916 22.782 32.3916 18.8535H31.3916ZM25.2783 24.9678V23.9678C22.4544 23.9678 20.165 21.6779 20.165 18.8535H19.165H18.165C18.165 22.782 21.3494 25.9678 25.2783 25.9678V24.9678ZM19.165 18.8535L20.165 18.8536C20.1651 16.0295 22.4543 13.7402 25.2783 13.7402V12.7402V11.7402C21.3496 11.7402 18.1652 14.925 18.165 18.8535L19.165 18.8535ZM25.2783 14.0859L25.2783 13.0859C22.0928 13.086 19.5108 15.668 19.5107 18.8535L20.5107 18.8535L21.5107 18.8535C21.5108 16.7726 23.1974 15.086 25.2783 15.0859L25.2783 14.0859ZM20.5107 18.8535H19.5107C19.5107 22.0388 22.0925 24.622 25.2783 24.6221L25.2783 23.6221L25.2783 22.6221C23.1975 22.622 21.5107 20.9348 21.5107 18.8535H20.5107ZM25.2783 23.6221V24.6221C28.4639 24.6221 31.0468 22.0391 31.0468 18.8535H30.0468H29.0468C29.0468 20.9345 27.3593 22.6221 25.2783 22.6221V23.6221ZM30.0468 18.8535L31.0468 18.8535C31.0467 15.6678 28.4636 13.0859 25.2783 13.0859V14.0859V15.0859C27.3595 15.0859 29.0468 16.7728 29.0468 18.8535L30.0468 18.8535Z" fill="black" mask="url(#path-8-outside-1_142_110)"/>
<mask id="path-10-outside-2_142_110" maskUnits="userSpaceOnUse" x="18.165" y="26.0918" width="15" height="15" fill="black">
<rect fill="white" x="18.165" y="26.0918" width="15" height="15"/>
<path d="M25.2783 27.0918C28.6546 27.0918 31.3914 29.8288 31.3916 33.2051C31.3916 36.5815 28.6547 39.3193 25.2783 39.3193C21.9019 39.3193 19.165 36.5815 19.165 33.2051C19.1651 29.8288 21.9019 27.0918 25.2783 27.0918ZM25.2783 28.4375C22.6451 28.4375 20.5108 30.5719 20.5107 33.2051C20.5107 35.8384 22.645 37.9736 25.2783 37.9736C27.9116 37.9736 30.0468 35.8384 30.0468 33.2051C30.0467 30.5718 27.9115 28.4375 25.2783 28.4375Z"/>
</mask>
<path d="M25.2783 27.0918C28.6546 27.0918 31.3914 29.8288 31.3916 33.2051C31.3916 36.5815 28.6547 39.3193 25.2783 39.3193C21.9019 39.3193 19.165 36.5815 19.165 33.2051C19.1651 29.8288 21.9019 27.0918 25.2783 27.0918ZM25.2783 28.4375C22.6451 28.4375 20.5108 30.5719 20.5107 33.2051C20.5107 35.8384 22.645 37.9736 25.2783 37.9736C27.9116 37.9736 30.0468 35.8384 30.0468 33.2051C30.0467 30.5718 27.9115 28.4375 25.2783 28.4375Z" fill="#2FAA96"/>
<path d="M25.2783 27.0918L25.2783 26.0918H25.2783V27.0918ZM31.3916 33.2051L32.3916 33.2051L32.3916 33.205L31.3916 33.2051ZM25.2783 39.3193L25.2783 40.3193L25.2783 40.3193L25.2783 39.3193ZM19.165 33.2051L18.165 33.205V33.2051H19.165ZM25.2783 28.4375L25.2783 27.4375L25.2783 27.4375L25.2783 28.4375ZM20.5107 33.2051L19.5107 33.205V33.2051H20.5107ZM25.2783 37.9736L25.2783 38.9736H25.2783V37.9736ZM30.0468 33.2051L31.0468 33.2051L31.0468 33.205L30.0468 33.2051ZM25.2783 27.0918L25.2783 28.0918C28.1023 28.0918 30.3914 30.381 30.3916 33.2051L31.3916 33.2051L32.3916 33.205C32.3914 29.2765 29.2069 26.0918 25.2783 26.0918L25.2783 27.0918ZM31.3916 33.2051H30.3916C30.3916 36.0294 28.1022 38.3193 25.2783 38.3193L25.2783 39.3193L25.2783 40.3193C29.2072 40.3193 32.3916 37.1336 32.3916 33.2051H31.3916ZM25.2783 39.3193V38.3193C22.4544 38.3193 20.165 36.0294 20.165 33.2051H19.165H18.165C18.165 37.1336 21.3494 40.3193 25.2783 40.3193V39.3193ZM19.165 33.2051L20.165 33.2051C20.1651 30.381 22.4543 28.0918 25.2783 28.0918V27.0918V26.0918C21.3496 26.0918 18.1652 29.2765 18.165 33.205L19.165 33.2051ZM25.2783 28.4375L25.2783 27.4375C22.0928 27.4376 19.5108 30.0196 19.5107 33.205L20.5107 33.2051L21.5107 33.2051C21.5108 31.1242 23.1974 29.4375 25.2783 29.4375L25.2783 28.4375ZM20.5107 33.2051H19.5107C19.5107 36.3904 22.0925 38.9736 25.2783 38.9736L25.2783 37.9736L25.2783 36.9736C23.1975 36.9736 21.5107 35.2863 21.5107 33.2051H20.5107ZM25.2783 37.9736V38.9736C28.4639 38.9736 31.0468 36.3907 31.0468 33.2051H30.0468H29.0468C29.0468 35.2861 27.3593 36.9736 25.2783 36.9736V37.9736ZM30.0468 33.2051L31.0468 33.205C31.0467 30.0193 28.4636 27.4375 25.2783 27.4375V28.4375V29.4375C27.3595 29.4375 29.0468 31.1244 29.0468 33.2051L30.0468 33.2051Z" fill="black" mask="url(#path-10-outside-2_142_110)"/>
</svg>
