<?xml version="1.0" encoding="UTF-8"?>
<svg version="1.1" xmlns="http://www.w3.org/2000/svg" width="358" height="358">
<path d="M0 0 C0.78095032 -0.00705963 1.56190063 -0.01411926 2.36651611 -0.02139282 C34.88684437 -0.24871453 34.88684437 -0.24871453 48.57421875 3.203125 C49.4058252 3.40711914 50.23743164 3.61111328 51.09423828 3.82128906 C75.93826301 10.06067674 99.25784384 20.50063197 119.57421875 36.203125 C120.46753906 36.8734375 121.36085938 37.54375 122.28125 38.234375 C159.26531161 67.06752648 182.50568359 109.77046475 189.10913086 155.94335938 C189.6233058 160.17825879 189.75163215 164.36619355 189.77734375 168.62890625 C189.78440338 169.40985657 189.79146301 170.19080688 189.79873657 170.99542236 C190.02605828 203.51575062 190.02605828 203.51575062 186.57421875 217.203125 C186.26822754 218.45053467 186.26822754 218.45053467 185.95605469 219.72314453 C179.71666701 244.56716926 169.27671178 267.88675009 153.57421875 288.203125 C152.90390625 289.09644531 152.23359375 289.98976563 151.54296875 290.91015625 C122.70981727 327.89421786 80.006879 351.13458984 33.83398438 357.73803711 C29.59908496 358.25221205 25.4111502 358.3805384 21.1484375 358.40625 C20.36748718 358.41330963 19.58653687 358.42036926 18.78192139 358.42764282 C-13.73840687 358.65496453 -13.73840687 358.65496453 -27.42578125 355.203125 C-28.67319092 354.89713379 -28.67319092 354.89713379 -29.94580078 354.58496094 C-54.78982551 348.34557326 -78.10940634 337.90561803 -98.42578125 322.203125 C-99.31910156 321.5328125 -100.21242188 320.8625 -101.1328125 320.171875 C-138.11687411 291.33872352 -161.35724609 248.63578525 -167.96069336 202.46289062 C-168.4748683 198.22799121 -168.60319465 194.04005645 -168.62890625 189.77734375 C-168.63596588 188.99639343 -168.64302551 188.21544312 -168.65029907 187.41082764 C-168.87762078 154.89049938 -168.87762078 154.89049938 -165.42578125 141.203125 C-165.22178711 140.37151855 -165.01779297 139.53991211 -164.80761719 138.68310547 C-158.56822951 113.83908074 -148.12827428 90.51949991 -132.42578125 70.203125 C-131.75546875 69.30980469 -131.08515625 68.41648437 -130.39453125 67.49609375 C-101.56137977 30.51203214 -58.8584415 7.27166016 -12.68554688 0.66821289 C-8.45064746 0.15403795 -4.2627127 0.0257116 0 0 Z " fill="#FDFDFD" transform="translate(168.42578125,-0.203125)"/>
<path d="M0 0 C22.09217147 -0.51325247 45.64192413 3.84616817 65.3046875 14.16015625 C66.61807977 14.81462514 67.93192133 15.4681928 69.24609375 16.12109375 C103.57535745 33.44312797 129.90979477 63.19574791 142.1796875 99.84765625 C150.82961502 126.69033455 151.6224302 153.69095718 145.3046875 181.16015625 C145.06516357 182.20453857 145.06516357 182.20453857 144.82080078 183.27001953 C144.04646803 186.58510536 143.21797037 189.88064048 142.3046875 193.16015625 C141.56734375 192.86367187 140.83 192.5671875 140.0703125 192.26171875 C139.15765625 191.89820313 138.245 191.5346875 137.3046875 191.16015625 C136.61890625 190.87914062 135.933125 190.598125 135.2265625 190.30859375 C124.60719088 186.52687508 110.60605859 186.27384218 100.3046875 191.16015625 C89.39896257 197.27157698 81.46972848 206.32267137 77.3046875 218.16015625 C74.85116141 229.75864324 75.7178378 241.85262696 82.12890625 252.06640625 C83.35163354 253.75292666 84.61007323 255.41455486 85.9140625 257.0390625 C87.3046875 259.16015625 87.3046875 259.16015625 87.3046875 263.16015625 C84.97066703 264.96357811 82.77238874 266.43129077 80.2421875 267.91015625 C79.51700928 268.34553711 78.79183105 268.78091797 78.04467773 269.22949219 C75.80884513 270.55928683 73.55937561 271.86263764 71.3046875 273.16015625 C70.65918945 273.53785156 70.01369141 273.91554688 69.34863281 274.3046875 C39.63596008 291.5703716 1.08567051 296.97955164 -32.34204102 288.35205078 C-34.8072428 287.66118122 -37.25132616 286.92235203 -39.6953125 286.16015625 C-40.82960693 285.82322754 -40.82960693 285.82322754 -41.98681641 285.47949219 C-60.9997472 279.75436247 -81.8546247 269.40082583 -95.39453125 254.56640625 C-96.80091413 252.96875129 -96.80091413 252.96875129 -99.1953125 251.22265625 C-102.1733839 248.76574734 -104.55399776 246.00093674 -107.046875 243.0625 C-108.60807242 241.13441089 -108.60807242 241.13441089 -110.46875 239.7890625 C-111.6953125 238.16015625 -111.6953125 238.16015625 -111.71875 235.5625 C-110.2911954 230.81669827 -107.91260164 226.92431155 -105.3203125 222.72265625 C-104.51110352 221.39693604 -104.51110352 221.39693604 -103.68554688 220.04443359 C-88.72013115 195.84159313 -69.70863843 173.99201033 -46.6953125 157.16015625 C-46.09170898 156.70688965 -45.48810547 156.25362305 -44.86621094 155.78662109 C-36.80895388 149.75948924 -28.52449738 144.82532659 -19.4453125 140.47265625 C-18.53966553 140.03816162 -17.63401855 139.60366699 -16.70092773 139.15600586 C-10.22389476 136.16015625 -10.22389476 136.16015625 -5.6953125 136.16015625 C-5.6953125 164.54015625 -5.6953125 192.92015625 -5.6953125 222.16015625 C17.25951337 219.64020287 17.25951337 219.64020287 39.3046875 214.16015625 C40.46871094 213.79148438 41.63273438 213.4228125 42.83203125 213.04296875 C58.88146118 207.40135096 72.44632386 198.62899087 80.27734375 183.25 C83.74118704 174.88844341 83.84925639 164.25779935 81.23828125 155.640625 C78.47058469 149.64520603 75.11586986 145.43374297 69.84375 141.46484375 C69.33585938 141.03429687 68.82796875 140.60375 68.3046875 140.16015625 C68.3046875 139.50015625 68.3046875 138.84015625 68.3046875 138.16015625 C67.7478125 138.05703125 67.1909375 137.95390625 66.6171875 137.84765625 C64.3046875 137.16015625 64.3046875 137.16015625 62.1171875 135.75 C58.80501461 133.87770227 55.67275992 132.99007494 51.9921875 132.03515625 C50.73792969 131.70257813 49.48367187 131.37 48.19140625 131.02734375 C40.42298402 129.29408773 32.73396167 128.91503533 24.8046875 128.59765625 C23.79148438 128.55447266 22.77828125 128.51128906 21.734375 128.46679688 C19.2579196 128.36166433 16.78138001 128.25951788 14.3046875 128.16015625 C17.52091733 126.01600303 20.78198107 124.76586929 24.3671875 123.41015625 C38.26753545 117.99285063 50.00916467 110.53345705 56.6796875 96.72265625 C59.66886963 88.5024054 59.84822682 78.86769477 57.12890625 70.57421875 C54.61880438 65.32051716 51.87140212 60.85702047 47.3046875 57.16015625 C46.47686768 56.47409302 46.47686768 56.47409302 45.63232422 55.77416992 C40.64999577 51.8140712 35.79418013 49.42907704 29.8046875 47.34765625 C29.00160156 47.04923828 28.19851562 46.75082031 27.37109375 46.44335938 C7.50688666 39.31220561 -14.4875787 42.72009066 -33.6953125 50.16015625 C-32.921875 50.43988281 -32.1484375 50.71960938 -31.3515625 51.0078125 C-20.18426083 55.30611797 -14.29763321 59.95551484 -8.921875 70.70703125 C-5.12622717 81.39286782 -5.45000018 92.17109534 -5.5703125 103.34765625 C-5.5803666 104.98371845 -5.58948814 106.61978667 -5.59765625 108.25585938 C-5.61946758 112.22410941 -5.65386197 116.19206476 -5.6953125 120.16015625 C-6.7560498 120.54905029 -7.81678711 120.93794434 -8.90966797 121.33862305 C-37.34133472 131.83143725 -61.08832489 147.9637014 -82.6953125 169.16015625 C-83.30052734 169.75143311 -83.90574219 170.34270996 -84.52929688 170.9519043 C-98.52069846 184.75812557 -109.52912171 201.26480732 -119.6328125 218.03515625 C-120.3134375 219.06640625 -120.9940625 220.09765625 -121.6953125 221.16015625 C-122.3553125 221.16015625 -123.0153125 221.16015625 -123.6953125 221.16015625 C-128.60470593 211.67028656 -133.12185969 202.25066148 -136.6953125 192.16015625 C-137.05367187 191.19980469 -137.41203125 190.23945313 -137.78125 189.25 C-142.52397924 176.00245179 -144.2065335 162.85094913 -144.08642578 148.87841797 C-144.07031505 146.66050791 -144.08640408 144.44441883 -144.10546875 142.2265625 C-144.12523406 128.39046596 -141.65953548 115.43046295 -137.6953125 102.16015625 C-134.7892029 103.25359214 -132.58885171 104.23873445 -130.0703125 106.09765625 C-120.66885599 111.84299078 -109.80622804 112.40397976 -99.14453125 110.5390625 C-88.40429211 107.89802009 -79.29779655 102.6335387 -72.97265625 93.375 C-66.00687145 81.29671259 -63.21121247 68.45640264 -66.53125 54.6953125 C-70.27472373 45.13563629 -76.3427168 36.21578814 -84.6953125 30.16015625 C-82.47007199 23.48443472 -71.80488145 19.69478108 -65.7578125 16.58984375 C-55.01229121 11.2240828 -44.38841309 6.92114743 -32.6953125 4.16015625 C-32.04868652 4.00466309 -31.40206055 3.84916992 -30.73583984 3.68896484 C-20.50087196 1.28453509 -10.47081787 0.45380923 0 0 Z " fill="#63297F" transform="translate(173.6953125,31.83984375)"/>
<path d="M0 0 C22.08500746 -0.51308603 45.65175793 3.83823946 65.3046875 14.16015625 C66.62987768 14.82617915 67.9554305 15.49148075 69.28125 16.15625 C78.2868462 20.73435587 87.62812441 25.51158509 95.3046875 32.16015625 C95.3046875 33.15015625 95.3046875 34.14015625 95.3046875 35.16015625 C95.9646875 35.49015625 96.6246875 35.82015625 97.3046875 36.16015625 C97.98815432 37.82000423 98.65057065 39.4885243 99.3046875 41.16015625 C99.9440625 42.23265625 100.5834375 43.30515625 101.2421875 44.41015625 C108.93471198 57.64244649 109.61687648 77.01263836 106.80810547 91.76904297 C104.59870758 100.11015978 101.02799443 109.63526572 95.3046875 116.16015625 C94.3146875 116.16015625 93.3246875 116.16015625 92.3046875 116.16015625 C92.3046875 117.48015625 92.3046875 118.80015625 92.3046875 120.16015625 C91.6446875 120.16015625 90.9846875 120.16015625 90.3046875 120.16015625 C90.04816406 120.75570312 89.79164063 121.35125 89.52734375 121.96484375 C88.19499063 124.35711996 86.87100145 125.58743824 84.7421875 127.28515625 C82.09443084 129.36919259 82.09443084 129.36919259 80.3046875 132.16015625 C78.9846875 132.16015625 77.6646875 132.16015625 76.3046875 132.16015625 C75.9746875 133.15015625 75.6446875 134.14015625 75.3046875 135.16015625 C71.86024306 138.16015625 71.86024306 138.16015625 69.3046875 138.16015625 C68.9746875 138.82015625 68.6446875 139.48015625 68.3046875 140.16015625 C68.3046875 139.50015625 68.3046875 138.84015625 68.3046875 138.16015625 C67.7478125 138.05703125 67.1909375 137.95390625 66.6171875 137.84765625 C64.3046875 137.16015625 64.3046875 137.16015625 62.1171875 135.75 C58.80501461 133.87770227 55.67275992 132.99007494 51.9921875 132.03515625 C50.73792969 131.70257813 49.48367187 131.37 48.19140625 131.02734375 C40.42298402 129.29408773 32.73396167 128.91503533 24.8046875 128.59765625 C23.79148438 128.55447266 22.77828125 128.51128906 21.734375 128.46679688 C19.2579196 128.36166433 16.78138001 128.25951788 14.3046875 128.16015625 C17.52091733 126.01600303 20.78198107 124.76586929 24.3671875 123.41015625 C38.26753545 117.99285063 50.00916467 110.53345705 56.6796875 96.72265625 C59.66886963 88.5024054 59.84822682 78.86769477 57.12890625 70.57421875 C54.61880438 65.32051716 51.87140212 60.85702047 47.3046875 57.16015625 C46.47686768 56.47409302 46.47686768 56.47409302 45.63232422 55.77416992 C40.64999577 51.8140712 35.79418013 49.42907704 29.8046875 47.34765625 C29.00160156 47.04923828 28.19851562 46.75082031 27.37109375 46.44335938 C7.50688666 39.31220561 -14.4875787 42.72009066 -33.6953125 50.16015625 C-32.921875 50.43988281 -32.1484375 50.71960938 -31.3515625 51.0078125 C-20.18426083 55.30611797 -14.29763321 59.95551484 -8.921875 70.70703125 C-5.12622717 81.39286782 -5.45000018 92.17109534 -5.5703125 103.34765625 C-5.5803666 104.98371845 -5.58948814 106.61978667 -5.59765625 108.25585938 C-5.61946758 112.22410941 -5.65386197 116.19206476 -5.6953125 120.16015625 C-6.7560498 120.54905029 -7.81678711 120.93794434 -8.90966797 121.33862305 C-37.34133472 131.83143725 -61.08832489 147.9637014 -82.6953125 169.16015625 C-83.30052734 169.75143311 -83.90574219 170.34270996 -84.52929688 170.9519043 C-98.52069846 184.75812557 -109.52912171 201.26480732 -119.6328125 218.03515625 C-120.3134375 219.06640625 -120.9940625 220.09765625 -121.6953125 221.16015625 C-122.3553125 221.16015625 -123.0153125 221.16015625 -123.6953125 221.16015625 C-128.60470593 211.67028656 -133.12185969 202.25066148 -136.6953125 192.16015625 C-137.05367187 191.19980469 -137.41203125 190.23945313 -137.78125 189.25 C-142.52397924 176.00245179 -144.2065335 162.85094913 -144.08642578 148.87841797 C-144.07031505 146.66050791 -144.08640408 144.44441883 -144.10546875 142.2265625 C-144.12523406 128.39046596 -141.65953548 115.43046295 -137.6953125 102.16015625 C-134.7892029 103.25359214 -132.58885171 104.23873445 -130.0703125 106.09765625 C-120.66885599 111.84299078 -109.80622804 112.40397976 -99.14453125 110.5390625 C-88.40429211 107.89802009 -79.29779655 102.6335387 -72.97265625 93.375 C-66.00687145 81.29671259 -63.21121247 68.45640264 -66.53125 54.6953125 C-70.27472373 45.13563629 -76.3427168 36.21578814 -84.6953125 30.16015625 C-82.47007199 23.48443472 -71.80488145 19.69478108 -65.7578125 16.58984375 C-55.01229121 11.2240828 -44.38841309 6.92114743 -32.6953125 4.16015625 C-32.04868652 4.00466309 -31.40206055 3.84916992 -30.73583984 3.68896484 C-20.50087196 1.28453509 -10.47081787 0.45380923 0 0 Z " fill="#EC5212" transform="translate(173.6953125,31.83984375)"/>
<path d="M0 0 C8.17480274 4.63131117 11.96275803 9.7643363 14.87109375 18.671875 C16.6946407 25.96606282 15.87024225 32.68274214 12.5625 39.4375 C9.37047875 44.40286639 6.08707315 49.01207764 0.5625 51.4375 C-0.00984375 51.71207031 -0.5821875 51.98664063 -1.171875 52.26953125 C-7.78913509 55.16789117 -14.64536191 55.55864555 -21.5625 53.375 C-29.27654117 50.08013626 -35.50003395 43.31243211 -39.1875 35.9375 C-41.62607237 28.81040176 -41.66858906 20.55334562 -38.8125 13.5625 C-31.14606386 -1.04661782 -15.45333878 -7.26306922 0 0 Z " fill="#EC5111" transform="translate(77.4375,73.5625)"/>
<path d="M0 0 C1.96537253 0.94444945 3.63432512 1.97883474 5.3828125 3.27734375 C6.4140625 3.97859375 7.4453125 4.67984375 8.5078125 5.40234375 C13.86458069 10.11336454 17.86721979 17.18090814 18.5859375 24.28515625 C18.79101517 33.5478311 16.44459964 41.12135285 10.48828125 48.296875 C4.09769803 54.30805439 -4.04405788 56.72679064 -12.63671875 56.61328125 C-20.4615227 55.73132432 -26.30047952 51.48686827 -31.1484375 45.47265625 C-33.50641454 41.94823312 -35.09593024 38.21952654 -36.6171875 34.27734375 C-36.9471875 33.61734375 -37.2771875 32.95734375 -37.6171875 32.27734375 C-38.76767312 23.20452681 -37.11328368 16.58681586 -31.6171875 9.27734375 C-22.64856331 -0.2179354 -12.93015546 -3.57026681 0 0 Z " fill="#622780" transform="translate(302.6171875,235.72265625)"/>
<path d="M0 0 C0 28.38 0 56.76 0 86 C8.91 85.01 8.91 85.01 18 84 C21.25464709 83.88392842 24.3884245 83.79282133 27.625 83.875 C28.35460937 83.88402344 29.08421875 83.89304687 29.8359375 83.90234375 C31.55745041 83.92499524 33.27878479 83.96078244 35 84 C34.67 84.66 34.34 85.32 34 86 C30.83984375 86.4140625 30.83984375 86.4140625 26.9375 86.625 C25.00197266 86.73714844 25.00197266 86.73714844 23.02734375 86.8515625 C22.02832031 86.90054688 21.02929688 86.94953125 20 87 C20 87.66 20 88.32 20 89 C17.08327116 89.02700675 14.16679323 89.04684237 11.25 89.0625 C10.425 89.07087891 9.6 89.07925781 8.75 89.08789062 C7.55117187 89.09272461 7.55117187 89.09272461 6.328125 89.09765625 C5.5949707 89.10289307 4.86181641 89.10812988 4.10644531 89.11352539 C1.95073752 88.99734503 0.08168674 88.5491876 -2 88 C-2.01030746 87.17251755 -2.02061493 86.3450351 -2.03123474 85.49247742 C-2.12966115 77.65213695 -2.23223492 69.81186368 -2.33933926 61.97163677 C-2.39424513 57.9419724 -2.44760905 53.9123005 -2.49731445 49.88256836 C-2.54544045 45.98566432 -2.59779261 42.0888369 -2.65294075 38.19202614 C-2.67314829 36.71348825 -2.69189352 35.23492954 -2.70907402 33.75635338 C-2.80647217 25.4639414 -3.07212713 17.24761488 -4 9 C-4.99 9.66 -5.98 10.32 -7 11 C-7.33 9.68 -7.66 8.36 -8 7 C-9.32 6.67 -10.64 6.34 -12 6 C-12 6.99 -12 7.98 -12 9 C-17.75 10.125 -17.75 10.125 -20 9 C-17.36189679 5.87370687 -14.24097312 4.50351205 -10.5625 2.8125 C-9.42941406 2.28269531 -8.29632813 1.75289062 -7.12890625 1.20703125 C-4 0 -4 0 0 0 Z " fill="#5B3472" transform="translate(168,168)"/>
<path d="M0 0 C7.37840927 2.44496817 14.03768077 6.13810279 18 13 C21.98166359 21.25130915 23.39582457 28.6193025 20.9375 37.5 C18.67337785 43.61634894 14.7253738 48.90355861 9.5625 52.875 C8.716875 53.24625 7.87125 53.6175 7 54 C6.42765625 54.27457031 5.8553125 54.54914063 5.265625 54.83203125 C-1.52728325 57.80732506 -8.40959494 58.1247001 -15.4375 55.6875 C-18.48677243 54.2431078 -19.82534279 53.37416704 -22 51 C-18.9783962 51.56655071 -16.02779824 52.25999126 -13.0625 53.0625 C-9.64416324 53.93816502 -6.54279185 54.17713959 -3 54 C-6.3 53.67 -9.6 53.34 -13 53 C-11 51 -11 51 -8.3203125 50.76953125 C-7.26585937 50.78371094 -6.21140625 50.79789063 -5.125 50.8125 C-4.07570313 50.81894531 -3.02640625 50.82539062 -1.9453125 50.83203125 C0.55451962 50.97459462 2.59801816 51.38114878 5 52 C7.68149993 51.61432869 7.68149993 51.61432869 10 51 C10 50.34 10 49.68 10 49 C10.66 49 11.32 49 12 49 C12.33 47.68 12.66 46.36 13 45 C13.66 45 14.32 45 15 45 C15.185625 43.7934375 15.185625 43.7934375 15.375 42.5625 C15.58125 41.716875 15.7875 40.87125 16 40 C16.66 39.67 17.32 39.34 18 39 C19.18991844 35.71246894 19.19841685 32.40646693 19.25 28.9375 C19.28867188 27.37322266 19.28867188 27.37322266 19.328125 25.77734375 C19.239503 22.99189977 19.239503 22.99189977 17.609375 21.19140625 C15.99896513 19.92750753 15.99896513 19.92750753 14 19 C13.40234375 17.0390625 13.40234375 17.0390625 12.9375 14.625 C12.41589314 11.97816849 11.85607917 9.5682375 11 7 C10.28972656 6.87882812 9.57945313 6.75765625 8.84765625 6.6328125 C7.92855469 6.46523437 7.00945312 6.29765625 6.0625 6.125 C5.14597656 5.96257812 4.22945312 5.80015625 3.28515625 5.6328125 C2.15400391 5.31957031 2.15400391 5.31957031 1 5 C0.67 4.34 0.34 3.68 0 3 C-2.71446979 2.68758545 -5.33909361 2.48663408 -8.0625 2.375 C-9.20041992 2.31699219 -9.20041992 2.31699219 -10.36132812 2.2578125 C-12.24047195 2.16326438 -14.12020336 2.08053244 -16 2 C-11.03900514 -1.30732991 -5.78424745 -0.71668856 0 0 Z " fill="#CB6134" transform="translate(71,71)"/>
<path d="M0 0 C1.32547852 0.02030273 1.32547852 0.02030273 2.67773438 0.04101562 C4.84792023 0.07620783 7.01779033 0.13001015 9.1875 0.1875 C9.6825 1.6725 9.6825 1.6725 10.1875 3.1875 C11.30125 3.001875 11.30125 3.001875 12.4375 2.8125 C15.1875 3.1875 15.1875 3.1875 17.5 6.1875 C18.056875 7.1775 18.61375 8.1675 19.1875 9.1875 C17.1875 8.1875 15.1875 7.1875 13.1875 6.1875 C12.8575 6.8475 12.5275 7.5075 12.1875 8.1875 C12.1875 7.1975 12.1875 6.2075 12.1875 5.1875 C9.62258544 5.24778001 7.06328243 5.33487947 4.5 5.4375 C3.77876953 5.45167969 3.05753906 5.46585937 2.31445312 5.48046875 C-2.70265969 5.70956066 -4.98342133 6.73787958 -8.8125 10.1875 C-9.8025 10.1875 -10.7925 10.1875 -11.8125 10.1875 C-11.1525 8.5375 -10.4925 6.8875 -9.8125 5.1875 C-12.5964183 6.57945915 -12.79148997 8.34325779 -13.8125 11.1875 C-15.1325 10.8575 -16.4525 10.5275 -17.8125 10.1875 C-18.1425 11.5075 -18.4725 12.8275 -18.8125 14.1875 C-19.4725 14.1875 -20.1325 14.1875 -20.8125 14.1875 C-20.503125 15.8271875 -20.503125 15.8271875 -20.1875 17.5 C-19.8125 21.1875 -19.8125 21.1875 -21.8125 24.1875 C-22.1425 24.1875 -22.4725 24.1875 -22.8125 24.1875 C-23.1425 26.8275 -23.4725 29.4675 -23.8125 32.1875 C-24.1425 32.1875 -24.4725 32.1875 -24.8125 32.1875 C-25.44837993 20.75932466 -24.01027827 13.38772341 -16.47265625 4.6953125 C-11.16232699 -0.12771596 -6.89013049 -0.20038411 0 0 Z " fill="#E34E10" transform="translate(61.8125,72.8125)"/>
<path d="M0 0 C0.66 0.33 1.32 0.66 2 1 C1.01 1.33 0.02 1.66 -1 2 C-1 2.66 -1 3.32 -1 4 C-4.465 5.98 -4.465 5.98 -8 8 C-7.67 8.66 -7.34 9.32 -7 10 C-11.75 11 -11.75 11 -14 11 C-16.34205301 11.97940398 -18.67518826 12.98034573 -21 14 C-21.99 14.33 -22.98 14.66 -24 15 C-24 15.66 -24 16.32 -24 17 C-26.24401957 18.94875383 -28.33636533 20.66818267 -31 22 C-31.33 22.99 -31.66 23.98 -32 25 C-30.35 24.67 -28.7 24.34 -27 24 C-26.67 23.01 -26.34 22.02 -26 21 C-24.35 21.33 -22.7 21.66 -21 22 C-21 22.99 -21 23.98 -21 25 C-23.31 25.33 -25.62 25.66 -28 26 C-27.67 27.32 -27.34 28.64 -27 30 C-26.34 30 -25.68 30 -25 30 C-22.56839395 33.36683915 -22 34.73350364 -22 39 C-21.34 39 -20.68 39 -20 39 C-20 40.65 -20 42.3 -20 44 C-22.32227956 41.02218206 -24.25671511 37.92993448 -26.1875 34.6875 C-29.45620162 29.47713374 -33.12439444 25.71052579 -38 22 C-35.94092752 15.82278256 -26.99923429 12.52138308 -21.37597656 9.66894531 C-5.32659224 1.77553075 -5.32659224 1.77553075 0 0 Z " fill="#D14D12" transform="translate(127,40)"/>
<path d="M0 0 C3.90669429 1.43828546 6.19713709 2.88570788 9 6 C7.35 6 5.7 6 4 6 C4 5.34 4 4.68 4 4 C1.80882227 4.82201984 1.80882227 4.82201984 1.1484375 7.06640625 C0.89320312 7.89011719 0.63796875 8.71382812 0.375 9.5625 C-0.01558594 10.80193359 -0.01558594 10.80193359 -0.4140625 12.06640625 C-0.60742188 12.70449219 -0.80078125 13.34257812 -1 14 C-0.01 14 0.98 14 2 14 C2.28922055 19.39878369 1.79831551 23.02704758 -0.265625 27.9921875 C-2.13473086 33.10240245 -2.13469866 38.61205356 -2 44 C-2.99 44 -3.98 44 -5 44 C-5 49.94 -5 55.88 -5 62 C-5.33 62 -5.66 62 -6 62 C-6.07548262 57.30846478 -6.12921347 52.61730078 -6.16479492 47.92529297 C-6.17966405 46.33701402 -6.19996555 44.74877445 -6.22631836 43.16064453 C-6.46934442 28.11208982 -4.32347716 14.47291643 0 0 Z " fill="#E55511" transform="translate(36,134)"/>
<path d="M0 0 C18.13202866 -0.40497932 37.38329847 2.38836801 54.28515625 9.1640625 C55.27515625 10.1540625 55.27515625 10.1540625 56.28515625 11.1640625 C49.70980764 10.54374659 43.61823033 9.01508967 37.28515625 7.1640625 C37.28515625 6.5040625 37.28515625 5.8440625 37.28515625 5.1640625 C36.28935547 5.18146484 36.28935547 5.18146484 35.2734375 5.19921875 C33.94892578 5.21275391 33.94892578 5.21275391 32.59765625 5.2265625 C31.72753906 5.23816406 30.85742188 5.24976563 29.9609375 5.26171875 C27.28515625 5.1640625 27.28515625 5.1640625 25.18212891 4.66625977 C21.19556401 3.97517903 17.29632192 4.02140458 13.2578125 4.03125 C12.39127548 4.03029327 11.52473846 4.02933655 10.63194275 4.02835083 C8.80386278 4.02767199 6.97578038 4.02950559 5.14770508 4.03369141 C2.36078429 4.03903732 -0.42597487 4.03373971 -3.21289062 4.02734375 C-4.99348994 4.02800471 -6.77408915 4.02928625 -8.5546875 4.03125 C-9.38298569 4.02922577 -10.21128387 4.02720154 -11.06468201 4.02511597 C-15.41122586 4.04258642 -19.41921396 4.44181369 -23.71484375 5.1640625 C-26.08984375 4.2265625 -26.08984375 4.2265625 -27.71484375 3.1640625 C-18.52402269 0.98283077 -9.41317518 0.41572382 0 0 Z " fill="#D2501C" transform="translate(173.71484375,31.8359375)"/>
<path d="M0 0 C1.32 0.66 2.64 1.32 4 2 C4 2.99 4 3.98 4 5 C3.05125 5.309375 2.1025 5.61875 1.125 5.9375 C-2.97262477 7.15361353 -2.97262477 7.15361353 -5.3125 10.4375 C-7.32042313 13.48656845 -8.6691082 13.75091558 -12 15 C-14.45348157 17.61659096 -14.45348157 17.61659096 -15 21 C-15.928125 21.4125 -16.85625 21.825 -17.8125 22.25 C-21.9308017 24.51102838 -23.28525488 26.7420486 -25.5625 30.75 C-26.2740625 31.86375 -26.2740625 31.86375 -27 33 C-27.66 33 -28.32 33 -29 33 C-29.268125 33.804375 -29.53625 34.60875 -29.8125 35.4375 C-30.204375 36.283125 -30.59625 37.12875 -31 38 C-32.485 38.495 -32.485 38.495 -34 39 C-34.144375 39.721875 -34.28875 40.44375 -34.4375 41.1875 C-34.95833333 43.79166667 -35.47916667 46.39583333 -36 49 C-37.32 49 -38.64 49 -40 49 C-40.51155803 44.28514019 -39.12215839 42.23417765 -36.25 38.5625 C-35.8473291 38.0466333 -35.4446582 37.5307666 -35.02978516 36.99926758 C-33.70362001 35.31830171 -32.35551085 33.65737232 -31 32 C-30.55043945 31.44602539 -30.10087891 30.89205078 -29.63769531 30.32128906 C-11.08765778 7.62276473 -11.08765778 7.62276473 0 0 Z " fill="#582C6E" transform="translate(117,197)"/>
<path d="M0 0 C3.49661445 1.39864578 4.50063004 2.6014281 6 6 C6.804375 7.051875 6.804375 7.051875 7.625 8.125 C9 10 9 10 9 12 C9.66 12 10.32 12 11 12 C11 13.32 11 14.64 11 16 C11.66 16 12.32 16 13 16 C13.33 16.66 13.66 17.32 14 18 C14.66 17.67 15.32 17.34 16 17 C16 18.32 16 19.64 16 21 C16.66 21.33 17.32 21.66 18 22 C17.51345947 22.75543091 17.51345947 22.75543091 17.01708984 23.52612305 C15.64333915 26.86750947 15.72150845 30.02798432 15.7265625 33.58203125 C15.70626731 35.0865959 15.68541641 36.59115313 15.6640625 38.09570312 C15.64151843 40.45229359 15.62500974 42.80859004 15.61914062 45.1652832 C15.60955773 47.45056494 15.57571092 49.73454475 15.5390625 52.01953125 C15.54410797 52.71456253 15.54915344 53.40959381 15.55435181 54.12568665 C15.41575853 61.09823341 12.26751379 65.66560776 8 71 C8.45566207 67.44583584 9.23015818 64.3383772 10.5234375 61.01953125 C12.42749639 55.38418202 12.40571935 50.0239203 12.3125 44.125 C12.31572266 43.11308594 12.31894531 42.10117188 12.32226562 41.05859375 C12.26106002 32.36739769 11.4586616 23.65054751 8.0625 15.5625 C7.74410156 14.78003906 7.42570312 13.99757813 7.09765625 13.19140625 C6.06068308 10.93046325 6.06068308 10.93046325 4.37109375 8.96484375 C3 7 3 7 3 3 C2.01 2.67 1.02 2.34 0 2 C0 1.34 0 0.68 0 0 Z " fill="#75275A" transform="translate(268,65)"/>
<path d="M0 0 C1.98 0 3.96 0 6 0 C6 0.66 6 1.32 6 2 C9.3 2 12.6 2 16 2 C16 2.66 16 3.32 16 4 C16.99 3.67 17.98 3.34 19 3 C20.91765594 2.85060226 22.83946522 2.75189717 24.76171875 2.68359375 C25.87998047 2.64169922 26.99824219 2.59980469 28.15039062 2.55664062 C29.31763672 2.51732422 30.48488281 2.47800781 31.6875 2.4375 C32.86634766 2.39431641 34.04519531 2.35113281 35.25976562 2.30664062 C38.17305883 2.20048824 41.08643757 2.09843758 44 2 C44 1.34 44 0.68 44 0 C50.0546875 -0.1953125 50.0546875 -0.1953125 52 0 C54 2 54 2 54 5 C54.86625 4.9175 55.7325 4.835 56.625 4.75 C60.75988007 5.05628741 62.74642697 6.52108722 66 9 C64 10 64 10 61.4609375 9.2578125 C59.41910016 8.50827727 57.37743078 7.75828432 55.3359375 7.0078125 C36.24127323 1.23916685 15.24400842 5.36581512 -3 12 C-3 10 -3 10 -2 8.5 C1.06761157 6.19929132 4.26602613 5.79576492 8 5 C5.03 4.01 2.06 3.02 -1 2 C-0.67 1.34 -0.34 0.68 0 0 Z " fill="#D5581B" transform="translate(142,70)"/>
<path d="M0 0 C0 4.0333534 -1.60879918 5.83517538 -4 9 C-4.66 9 -5.32 9 -6 9 C-6.309375 9.804375 -6.61875 10.60875 -6.9375 11.4375 C-8 14 -8 14 -9 15 C-10.66617115 15.04063832 -12.33388095 15.042721 -14 15 C-13.80528889 16.94999129 -13.80528889 16.94999129 -13 19 C-12.38125 19.2475 -11.7625 19.495 -11.125 19.75 C-8.12205842 21.51643623 -7.75270032 23.70635077 -6.7109375 26.9296875 C-6.06698454 29.01227451 -6.06698454 29.01227451 -4.96777344 30.81787109 C-3.83012026 33.38304368 -3.77057419 35.18708329 -3.8046875 37.984375 C-3.81113281 38.91894531 -3.81757813 39.85351562 -3.82421875 40.81640625 C-3.84097656 41.78449219 -3.85773438 42.75257813 -3.875 43.75 C-3.88402344 44.73355469 -3.89304687 45.71710938 -3.90234375 46.73046875 C-3.92587215 49.15389407 -3.95874632 51.57682222 -4 54 C-4.33 54 -4.66 54 -5 54 C-5.02578125 53.18917969 -5.0515625 52.37835938 -5.078125 51.54296875 C-5.69389696 39.52142062 -8.45586998 29.35833854 -17.25 20.75 C-18.1575 19.8425 -19.065 18.935 -20 18 C-20 17.34 -20 16.68 -20 16 C-18.01310269 14.64721885 -16.01254782 13.31431695 -14 12 C-13.67 11.34 -13.34 10.68 -13 10 C-11.68 10 -10.36 10 -9 10 C-8.74476563 9.40703125 -8.48953125 8.8140625 -8.2265625 8.203125 C-6.88183502 5.78775462 -5.50785633 4.48788294 -3.375 2.75 C-2.74335938 2.22921875 -2.11171875 1.7084375 -1.4609375 1.171875 C-0.73777344 0.59179688 -0.73777344 0.59179688 0 0 Z " fill="#5B2A6B" transform="translate(263,154)"/>
<path d="M0 0 C1.44149414 0.01353516 1.44149414 0.01353516 2.91210938 0.02734375 C5.25417805 0.05064792 7.59569792 0.08335942 9.9375 0.125 C9.9375 0.455 9.9375 0.785 9.9375 1.125 C8.77734375 1.16238281 7.6171875 1.19976562 6.421875 1.23828125 C-2.74745415 1.60092674 -11.23747284 2.373668 -20.0625 5.125 C-20.0625 6.775 -20.0625 8.425 -20.0625 10.125 C-19.0725 10.455 -18.0825 10.785 -17.0625 11.125 C-17.3925 13.105 -17.7225 15.085 -18.0625 17.125 C-17.4025 17.455 -16.7425 17.785 -16.0625 18.125 C-19.0625 18.125 -19.0625 18.125 -21.5 15.875 C-25.88389379 11.95961394 -31.52468613 10.72899463 -37.0625 9.125 C-34.41962242 5.78812939 -31.46018606 5.14485671 -27.4375 4.0625 C-26.26960937 3.74152344 -25.10171875 3.42054687 -23.8984375 3.08984375 C-22.63257813 2.77144531 -21.36671875 2.45304687 -20.0625 2.125 C-19.37647705 1.93969727 -18.6904541 1.75439453 -17.98364258 1.56347656 C-11.940072 0.04130232 -6.2106354 -0.11237058 0 0 Z " fill="#F9EBDA" transform="translate(176.0625,73.875)"/>
<path d="M0 0 C4.26467564 1.42155855 5.27230338 4.46604665 7.25 8.25 C7.641875 8.9927417 8.03375 9.7354834 8.4375 10.50073242 C14.04905251 21.55644738 20.22822898 35.65459784 20.0625 48.25 C20.05347656 49.14203125 20.04445313 50.0340625 20.03515625 50.953125 C20.02355469 51.62859375 20.01195312 52.3040625 20 53 C19.34 53 18.68 53 18 53 C17.86013672 52.37770508 17.72027344 51.75541016 17.57617188 51.11425781 C14.96721852 39.68435766 12.14687682 28.47497844 7.8125 17.5625 C7.47992188 16.71139648 7.14734375 15.86029297 6.8046875 14.98339844 C5.56899232 11.90599959 5.56899232 11.90599959 4 9 C3.01 8.67 2.02 8.34 1 8 C0.67 5.36 0.34 2.72 0 0 Z " fill="#5B346F" transform="translate(300,103)"/>
<path d="M0 0 C2.31 0.33 4.62 0.66 7 1 C3.67652822 3.69696453 0.29394521 6.26104951 -3.1875 8.75 C-16.12378619 18.14091364 -27.81829156 28.5895748 -39 40 C-40.33216014 41.33450549 -41.66520388 42.66813106 -43 44 C-42.45156876 40.16098132 -40.7234735 38.63836495 -38 36 C-37.67 35.01 -37.34 34.02 -37 33 C-36.34 33 -35.68 33 -35 33 C-35 32.01 -35 31.02 -35 30 C-34.01 29.34 -33.02 28.68 -32 28 C-31.67 27.34 -31.34 26.68 -31 26 C-30.01 26.33 -29.02 26.66 -28 27 C-28 26.01 -28 25.02 -28 24 C-27.01 24 -26.02 24 -25 24 C-24.67 22.68 -24.34 21.36 -24 20 C-23.34 20.33 -22.68 20.66 -22 21 C-22 20.01 -22 19.02 -22 18 C-21.34 18 -20.68 18 -20 18 C-19.67 16.68 -19.34 15.36 -19 14 C-19 14.66 -19 15.32 -19 16 C-17.35 15.67 -15.7 15.34 -14 15 C-14 14.34 -14 13.68 -14 13 C-13.01 12.67 -12.02 12.34 -11 12 C-10.67 11.01 -10.34 10.02 -10 9 C-9.34 9 -8.68 9 -8 9 C-8 8.34 -8 7.68 -8 7 C-5.17152224 4.38103911 -2.78786597 3.5260925 1 3 C0.505 1.515 0.505 1.515 0 0 Z " fill="#D55F28" transform="translate(123,168)"/>
<path d="M0 0 C8.0976194 12.1464291 3.10158354 35.79788561 0.59887695 49.26953125 C-0.70955506 55.70955506 -0.70955506 55.70955506 -3 58 C-4.25 50.375 -4.25 50.375 -2 47 C-1.79543593 44.68629693 -1.79543593 44.68629693 -1.9375 42.1875 C-2.03575032 39.43221918 -2.00256494 37.01440342 -1.51806641 34.29370117 C-0.95497135 30.71372218 -0.7883669 27.25496991 -0.68359375 23.6328125 C-0.66281265 22.95322479 -0.64203156 22.27363708 -0.62062073 21.57345581 C-0.5557637 19.42406334 -0.49654059 17.2745593 -0.4375 15.125 C-0.39425388 13.6588431 -0.35063775 12.19269706 -0.30664062 10.7265625 C-0.20014896 7.15115725 -0.09870591 3.57562963 0 0 Z " fill="#5B326E" transform="translate(320,157)"/>
<path d="M0 0 C0.33 0 0.66 0 1 0 C1.64052066 9.51884863 0.126429 16.18475471 -5.6875 23.8125 C-9.83312132 28.28021219 -14.66717228 30.57494371 -20.6953125 31.34375 C-27.32563356 31.57571459 -27.32563356 31.57571459 -29.7890625 29.47265625 C-30.18867188 28.98667969 -30.58828125 28.50070312 -31 28 C-24.375 26.875 -24.375 26.875 -21 28 C-20.01 27.67 -19.02 27.34 -18 27 C-17.67 26.34 -17.34 25.68 -17 25 C-16.01 25 -15.02 25 -14 25 C-12.9739266 23.68662604 -11.97272675 22.35335895 -11 21 C-10.34 21 -9.68 21 -9 21 C-8.67 20.01 -8.34 19.02 -8 18 C-5.9375 17.3125 -5.9375 17.3125 -4 17 C-3.87882812 16.443125 -3.75765625 15.88625 -3.6328125 15.3125 C-2.50669922 10.18435338 -1.29514693 5.08807722 0 0 Z " fill="#592871" transform="translate(319,260)"/>
<path d="M0 0 C0 0.66 0 1.32 0 2 C-2.64 2.99 -5.28 3.98 -8 5 C-6.9790625 4.94779297 -6.9790625 4.94779297 -5.9375 4.89453125 C6.58037155 4.54496303 18.04049525 6.70260153 29.42578125 11.859375 C32.57203604 13.25346665 35.66759555 14.16689889 39 15 C39 14.34 39 13.68 39 13 C40.65 12.67 42.3 12.34 44 12 C42.37660195 13.70884005 40.70680947 15.37446717 39 17 C38.34 17 37.68 17 37 17 C36.67 17.66 36.34 18.32 36 19 C36 18.34 36 17.68 36 17 C35.443125 16.896875 34.88625 16.79375 34.3125 16.6875 C32 16 32 16 29.8125 14.58984375 C26.50032711 12.71754602 23.36807242 11.82991869 19.6875 10.875 C18.43324219 10.54242188 17.17898437 10.20984375 15.88671875 9.8671875 C8.11829652 8.13393148 0.42927417 7.75487908 -7.5 7.4375 C-8.51320312 7.39431641 -9.52640625 7.35113281 -10.5703125 7.30664062 C-13.0467679 7.20150808 -15.52330749 7.09936163 -18 7 C-14.87351251 4.91567501 -11.94269132 3.71441389 -8.4375 2.375 C-7.28121094 1.92898437 -6.12492188 1.48296875 -4.93359375 1.0234375 C-2 0 -2 0 0 0 Z " fill="#D96538" transform="translate(206,153)"/>
<path d="M0 0 C1.32 0.33 2.64 0.66 4 1 C3.6376123 1.43755615 3.27522461 1.8751123 2.90185547 2.32592773 C-6.62391696 13.73886871 -6.62391696 13.73886871 -15 26 C-16.59545983 22.80908035 -17.73983282 19.55561808 -18 16 C-16.1875 13.875 -16.1875 13.875 -14 12 C-13.34 11.01 -12.68 10.02 -12 9 C-11.01 9 -10.02 9 -9 9 C-9 9.66 -9 10.32 -9 11 C-6.50995496 10.43923199 -6.50995496 10.43923199 -4 9 C-2.75 6.08333333 -2.75 6.08333333 -2 3 C-1.34 2.01 -0.68 1.02 0 0 Z " fill="#E35415" transform="translate(76,212)"/>
<path d="M0 0 C7.95041706 6.81464319 10.88553898 15.82899225 12 26 C12.29769791 32.05800085 12.19026185 38.12492068 12.125 44.1875 C12.1149459 45.8235622 12.10582436 47.45963042 12.09765625 49.09570312 C12.07584492 53.06395316 12.04145053 57.03190851 12 61 C10.68 61 9.36 61 8 61 C8 60.34 8 59.68 8 59 C8.66 59 9.32 59 10 59 C9.98026781 54.16522666 9.92763316 49.3321956 9.84741211 44.49804688 C9.82453908 42.86142528 9.80991031 41.22466291 9.80444336 39.58789062 C9.75114124 26.23776079 8.92583267 12.6238947 0 2 C0 1.34 0 0.68 0 0 Z " fill="#C16643" transform="translate(156,91)"/>
<path d="M0 0 C4.35007052 1.45002351 5.48914669 4.31453167 7.63623047 8.23022461 C12.55947681 18.2438563 10.76264132 30.06429139 7.94921875 40.484375 C6.90338941 43.25603793 5.7042669 45.57568034 4 48 C1.3125 48.8125 1.3125 48.8125 -1 49 C-1 49.66 -1 50.32 -1 51 C-1.66 50.67 -2.32 50.34 -3 50 C-2.61328125 49.53851563 -2.2265625 49.07703125 -1.828125 48.6015625 C5.96256108 38.84392102 8.43812204 29.41695185 7.34423828 17.0625 C6.46893737 11.81814392 3.71724545 7.47103545 1 3 C0.67 2.01 0.34 1.02 0 0 Z " fill="#CF663C" transform="translate(225,91)"/>
<path d="M0 0 C6.15234375 0.5859375 6.15234375 0.5859375 8 1 C8.33 1.66 8.66 2.32 9 3 C15.02234868 4.09497249 20.89000318 4.08486107 27 4 C23.7 3.67 20.4 3.34 17 3 C17 2.34 17 1.68 17 1 C21.95 1 26.9 1 32 1 C32 1.66 32 2.32 32 3 C34.64 3 37.28 3 40 3 C32.88471226 7.74352516 24.28796217 7.77553648 16 7 C3.55140505 4.27393228 3.55140505 4.27393228 0 0 Z " fill="#FDF8EE" transform="translate(42,137)"/>
<path d="M0 0 C0 0.66 0 1.32 0 2 C-5.41176471 6 -5.41176471 6 -8 6 C-8 6.66 -8 7.32 -8 8 C-20.54 8 -33.08 8 -46 8 C-45.67 6.35 -45.34 4.7 -45 3 C-44.21238281 3.2165625 -43.42476562 3.433125 -42.61328125 3.65625 C-29.17873259 7.09040682 -18.09451046 6.83543917 -5 2 C-2 0 -2 0 0 0 Z " fill="#D26433" transform="translate(90,137)"/>
<path d="M0 0 C3.68802044 1.22934015 4.72356973 2.93859378 7 6 C5.52519903 9.82448388 3.54705088 11.25042364 0.0625 13.3125 C-0.81277344 13.84488281 -1.68804687 14.37726563 -2.58984375 14.92578125 C-5 16 -5 16 -8 15 C-6.35 12.36 -4.7 9.72 -3 7 C-2.67 7.66 -2.34 8.32 -2 9 C-1.34 8.34 -0.68 7.68 0 7 C-0.33 6.67 -0.66 6.34 -1 6 C-2.32 6 -3.64 6 -5 6 C-4.67 5.01 -4.34 4.02 -4 3 C-3.34 3 -2.68 3 -2 3 C-2 2.34 -2 1.68 -2 1 C-1.34 0.67 -0.68 0.34 0 0 Z " fill="#57286F" transform="translate(255,286)"/>
<path d="M0 0 C2.12457818 3.18686728 2.22987229 4.20215254 2.375 7.875 C2.75774736 12.51497236 3.75094678 14.5652866 7 18 C7.68934964 19.23763545 8.35525933 20.48855087 9 21.75 C10.62582467 25.1013654 10.62582467 25.1013654 13.25 25.9375 C13.8275 25.958125 14.405 25.97875 15 26 C15 26.66 15 27.32 15 28 C15.99 28.33 16.98 28.66 18 29 C15.05307924 29.9261751 13.48081676 30.18492952 10.5625 29.0625 C5.21851408 24.76124304 1.74581007 19.64719232 0 13 C-0.1953125 9.5703125 -0.1953125 9.5703125 -0.125 6.125 C-0.10695313 4.97257812 -0.08890625 3.82015625 -0.0703125 2.6328125 C-0.04710937 1.76398438 -0.02390625 0.89515625 0 0 Z " fill="#572C6B" transform="translate(266,257)"/>
<path d="M0 0 C0.66 0.33 1.32 0.66 2 1 C1.67 1.66 1.34 2.32 1 3 C2.32 3 3.64 3 5 3 C5 3.99 5 4.98 5 6 C6.65 5.67 8.3 5.34 10 5 C10.33 4.01 10.66 3.02 11 2 C12.65 2.33 14.3 2.66 16 3 C16 3.99 16 4.98 16 6 C13.69 6.33 11.38 6.66 9 7 C9.33 8.32 9.66 9.64 10 11 C10.66 11 11.32 11 12 11 C14.43160605 14.36683915 15 15.73350364 15 20 C15.66 20 16.32 20 17 20 C17 21.65 17 23.3 17 25 C14.67772044 22.02218206 12.74328489 18.92993448 10.8125 15.6875 C7.54379838 10.47713374 3.87560556 6.71052579 -1 3 C-0.67 2.01 -0.34 1.02 0 0 Z " fill="#DE5311" transform="translate(90,59)"/>
<path d="M0 0 C1.98 0 3.96 0 6 0 C6 0.66 6 1.32 6 2 C9.3 2 12.6 2 16 2 C16 2.66 16 3.32 16 4 C16.66 4 17.32 4 18 4 C18 4.66 18 5.32 18 6 C17.23816406 6.18175781 16.47632813 6.36351563 15.69140625 6.55078125 C9.34110136 8.09673563 3.16876182 9.84093336 -3 12 C-3 10 -3 10 -2 8.5 C1.06761157 6.19929132 4.26602613 5.79576492 8 5 C5.03 4.01 2.06 3.02 -1 2 C-0.67 1.34 -0.34 0.68 0 0 Z " fill="#E45113" transform="translate(142,70)"/>
<path d="M0 0 C7.86496689 3.47035124 14.48957381 11.8537935 19 19 C19 19.99 19 20.98 19 22 C18.34 22 17.68 22 17 22 C16.34 21.01 15.68 20.02 15 19 C14.01 18.67 13.02 18.34 12 18 C11.67 17.01 11.34 16.02 11 15 C10.01 15.495 10.01 15.495 9 16 C9 15.01 9 14.02 9 13 C8.34 13 7.68 13 7 13 C7 11.68 7 10.36 7 9 C6.34 9 5.68 9 5 9 C3.98133771 7.34467377 2.98189187 5.67739862 2 4 C1.34 3.67 0.68 3.34 0 3 C0 2.01 0 1.02 0 0 Z " fill="#562A68" transform="translate(272,68)"/>
<path d="M0 0 C0.66 0 1.32 0 2 0 C5 5.75 5 5.75 5 8 C5.66 8 6.32 8 7 8 C7.99 10.64 8.98 13.28 10 16 C10.99 15.01 11.98 14.02 13 13 C13.66 13 14.32 13 15 13 C15.66 11.02 16.32 9.04 17 7 C17.99 7 18.98 7 20 7 C18.62992438 10.65573061 16.98982135 13.95467647 15 17.3125 C14.484375 18.19550781 13.96875 19.07851562 13.4375 19.98828125 C12.7259375 20.98408203 12.7259375 20.98408203 12 22 C11.34 22 10.68 22 10 22 C8.70326398 19.46080994 7.41252163 16.91885762 6.125 14.375 C5.76019531 13.66214844 5.39539062 12.94929687 5.01953125 12.21484375 C2.99999073 8.21248163 1.2918889 4.31082927 0 0 Z " fill="#C75B32" transform="translate(40,231)"/>
<path d="M0 0 C0.66 0 1.32 0 2 0 C0.73756969 3.44463128 -0.72708479 6.22159636 -2.875 9.1875 C-6.07861695 13.85158939 -8.11391176 18.68566901 -10 24 C-10.66 23.67 -11.32 23.34 -12 23 C-12.042721 21.33388095 -12.04063832 19.66617115 -12 18 C-11.67 17.67 -11.34 17.34 -11 17 C-10.95919217 15.00041636 -10.95745644 12.99954746 -11 11 C-10.01 10.67 -9.02 10.34 -8 10 C-8.33 9.01 -8.66 8.02 -9 7 C-8.01 6.67 -7.02 6.34 -6 6 C-5.484375 5.484375 -4.96875 4.96875 -4.4375 4.4375 C-3.963125 3.963125 -3.48875 3.48875 -3 3 C-2.34 3 -1.68 3 -1 3 C-0.67 2.01 -0.34 1.02 0 0 Z " fill="#532471" transform="translate(260,229)"/>
<path d="M0 0 C9.99497487 5.21105528 9.99497487 5.21105528 13 9 C13 9.66 13 10.32 13 11 C13.66 11.33 14.32 11.66 15 12 C15.68346682 13.65984798 16.34588315 15.32836805 17 17 C17.67329871 18.17491966 18.36169873 19.34127443 19.0625 20.5 C20.71414076 23.30594731 21.60352564 25.72908654 22 29 C18.77255796 27.38627898 17.83955576 24.15426598 16.21875 21.03125 C15.16138222 18.85699299 15.16138222 18.85699299 13 18 C13 16.35 13 14.7 13 13 C12.34 13 11.68 13 11 13 C11 12.34 11 11.68 11 11 C9.68 10.67 8.36 10.34 7 10 C7.33 9.34 7.66 8.68 8 8 C6.68 7.34 5.36 6.68 4 6 C4 5.34 4 4.68 4 4 C2.68 3.34 1.36 2.68 0 2 C0 1.34 0 0.68 0 0 Z " fill="#D45530" transform="translate(256,56)"/>
<path d="M0 0 C0 4.0333534 -1.60879918 5.83517538 -4 9 C-4.66 9 -5.32 9 -6 9 C-6.309375 9.804375 -6.61875 10.60875 -6.9375 11.4375 C-8 14 -8 14 -9 15 C-10.66617115 15.04063832 -12.33388095 15.042721 -14 15 C-14 15.66 -14 16.32 -14 17 C-14.99 17 -15.98 17 -17 17 C-16.67 17.99 -16.34 18.98 -16 20 C-17.32 19.34 -18.64 18.68 -20 18 C-20 17.34 -20 16.68 -20 16 C-18.01310269 14.64721885 -16.01254782 13.31431695 -14 12 C-13.67 11.34 -13.34 10.68 -13 10 C-11.68 10 -10.36 10 -9 10 C-8.74476563 9.40703125 -8.48953125 8.8140625 -8.2265625 8.203125 C-6.88183502 5.78775462 -5.50785633 4.48788294 -3.375 2.75 C-2.74335938 2.22921875 -2.11171875 1.7084375 -1.4609375 1.171875 C-0.73777344 0.59179688 -0.73777344 0.59179688 0 0 Z " fill="#7E2E5B" transform="translate(263,154)"/>
<path d="M0 0 C3.0216038 0.56655071 5.97220176 1.25999126 8.9375 2.0625 C12.35583676 2.93816502 15.45720815 3.17713959 19 3 C15.7 2.67 12.4 2.34 9 2 C11 0 11 0 13.75 -0.265625 C14.8225 -0.26046875 15.895 -0.2553125 17 -0.25 C18.60875 -0.25773437 18.60875 -0.25773437 20.25 -0.265625 C23 0 23 0 25 2 C23.625 4 23.625 4 21 6 C14.45674571 7.0982494 8.90647502 5.79780396 3 3 C1.27734375 1.39453125 1.27734375 1.39453125 0 0 Z " fill="#E35215" transform="translate(49,122)"/>
<path d="M0 0 C4.23216371 6.34824557 3.24276259 15.39708822 3.3125 22.8125 C3.35600586 24.33713867 3.35600586 24.33713867 3.40039062 25.89257812 C3.461976 33.3254586 1.97076683 39.19972249 -1 46 C-2.16158561 43.09603597 -1.95665967 41.84876626 -1.07470703 38.77124023 C0.12660469 34.55573317 0.25676727 31.00291029 0.1953125 26.66015625 C0.19106766 25.50972084 0.19106766 25.50972084 0.18673706 24.33604431 C0.17563475 21.91136379 0.15054967 19.48706691 0.125 17.0625 C0.1149573 15.4082085 0.10583372 13.75391115 0.09765625 12.09960938 C0.07572817 8.06626077 0.04126843 4.0331952 0 0 Z " fill="#D9553B" transform="translate(278,86)"/>
<path d="M0 0 C6.86050947 0.57170912 12.41887135 2.06799167 17.09765625 7.3828125 C18.92729463 9.8781046 20.63229626 12.22286596 22 15 C21.67 15.99 21.34 16.98 21 18 C19 18 17 18 15 18 C15.01160156 17.38511719 15.02320313 16.77023438 15.03515625 16.13671875 C15.04417969 15.32847656 15.05320313 14.52023438 15.0625 13.6875 C15.07410156 12.88699219 15.08570313 12.08648437 15.09765625 11.26171875 C15.09657855 8.83138666 15.09657855 8.83138666 14 6 C12.576875 5.814375 12.576875 5.814375 11.125 5.625 C8 5 8 5 6 3 C2.41656024 2.83322718 2.41656024 2.83322718 -1 3 C-0.67 2.01 -0.34 1.02 0 0 Z " fill="#DF4D10" transform="translate(139,83)"/>
<path d="M0 0 C0.77923828 0.00451172 1.55847656 0.00902344 2.36132812 0.01367188 C4.26175268 0.02533092 6.16213706 0.04326123 8.0625 0.0625 C8.0625 0.3925 8.0625 0.7225 8.0625 1.0625 C6.81597656 1.16046875 5.56945312 1.2584375 4.28515625 1.359375 C-11.30242694 2.68581393 -25.65249742 5.53480671 -40.27734375 11.109375 C-42.9375 12.0625 -42.9375 12.0625 -44.9375 12.0625 C-44.9375 11.4025 -44.9375 10.7425 -44.9375 10.0625 C-43.2744416 9.38688252 -41.60655395 8.72316719 -39.9375 8.0625 C-38.844375 7.60875 -37.75125 7.155 -36.625 6.6875 C-32.45821738 5.12893246 -28.18409788 4.02304695 -23.875 2.9375 C-23.20235107 2.76686035 -22.52970215 2.5962207 -21.83666992 2.42041016 C-14.47615166 0.61155312 -7.5382808 -0.08397399 0 0 Z " fill="#FEDAC1" transform="translate(161.9375,31.9375)"/>
<path d="M0 0 C4.8757803 4.55445381 6.97912603 9.60839323 7.32421875 16.265625 C7.35642073 17.8018391 7.37321746 19.33844946 7.375 20.875 C7.37653076 21.62475098 7.37806152 22.37450195 7.37963867 23.14697266 C7.30297746 26.93206632 7.14367538 28.78448692 5 32 C4.95101562 30.94941406 4.90203125 29.89882812 4.8515625 28.81640625 C4.46623574 21.34124509 3.94572447 14.26403803 2 7 C-0.97 6.505 -0.97 6.505 -4 6 C-4 5.34 -4 4.68 -4 4 C-2.68 4 -1.36 4 0 4 C0 2.68 0 1.36 0 0 Z " fill="#FDEBD7" transform="translate(226,94)"/>
<path d="M0 0 C0.33 0 0.66 0 1 0 C1.42916747 16.04609483 0.1399064 32.00644622 -1 48 C-1.33 48 -1.66 48 -2 48 C-2.05010501 43.25351432 -2.08604647 38.50718857 -2.10986328 33.76049805 C-2.11981068 32.15174675 -2.13337343 30.54301298 -2.15087891 28.93432617 C-2.25551706 19.05833078 -1.91488238 9.72660945 0 0 Z " fill="#D6673B" transform="translate(32,148)"/>
<path d="M0 0 C0.66 0 1.32 0 2 0 C1.9292627 0.66032227 1.85852539 1.32064453 1.78564453 2.00097656 C0.96970438 10.48732773 0.84626794 18.90346408 0.86962891 27.41943359 C0.87502341 29.76015602 0.8696326 32.10068935 0.86328125 34.44140625 C0.86394162 35.95572958 0.86522192 37.4700528 0.8671875 38.984375 C0.86516327 39.67102234 0.86313904 40.35766968 0.86105347 41.06512451 C0.88360158 45.79619399 1.34304098 50.324957 2 55 C1.01 54.67 0.02 54.34 -1 54 C-1.88825585 48.77388019 -2.08450541 43.8650237 -1.9140625 38.57421875 C-1.89282318 37.78658646 -1.87158386 36.99895416 -1.84970093 36.18745422 C-1.80368717 34.52926635 -1.75478179 32.87115644 -1.703125 31.21313477 C-1.62555339 28.70539022 -1.55813118 26.1975275 -1.4921875 23.68945312 C-1.27011678 15.75027672 -0.94935434 7.89251364 0 0 Z " fill="#FCE2CF" transform="translate(30,149)"/>
<path d="M0 0 C0.33 1.32 0.66 2.64 1 4 C0.01 4.33 -0.98 4.66 -2 5 C-2 5.99 -2 6.98 -2 8 C-2.66 8 -3.32 8 -4 8 C-3.896875 8.7425 -3.79375 9.485 -3.6875 10.25 C-4 13 -4 13 -6.1875 15 C-7.115625 15.66 -8.04375 16.32 -9 17 C-10.68528688 18.64783606 -12.35697047 20.31002677 -14 22 C-14.66 21.67 -15.32 21.34 -16 21 C-11.30257468 13.43829096 -5.77414866 6.74411434 0 0 Z " fill="#FAEEDD" transform="translate(80,212)"/>
<path d="M0 0 C0.25 2.8125 0.25 2.8125 0 6 C-2 7.875 -2 7.875 -4 9 C-4.33 7.68 -4.66 6.36 -5 5 C-6.32 4.67 -7.64 4.34 -9 4 C-9 4.99 -9 5.98 -9 7 C-14.75 8.125 -14.75 8.125 -17 7 C-14.53113696 4.1641438 -11.9005012 2.80399248 -8.5 1.25 C-7.5409375 0.80140625 -6.581875 0.3528125 -5.59375 -0.109375 C-3 -1 -3 -1 0 0 Z " fill="#5A2973" transform="translate(165,170)"/>
<path d="M0 0 C7.905509 -0.65981064 13.71316076 -0.73645143 20.1171875 4.28515625 C22.85219536 6.77616963 24.99410225 8.85742686 27 12 C26.8125 14.875 26.8125 14.875 26 17 C22.72559391 14.88747994 21.81873013 13.74276632 21 10 C20.01979625 8.9805881 19.02196992 7.97753644 18 7 C18 6.34 18 5.68 18 5 C17.36191406 4.86722656 16.72382813 4.73445312 16.06640625 4.59765625 C15.24011719 4.42105469 14.41382813 4.24445313 13.5625 4.0625 C12.73878906 3.88847656 11.91507812 3.71445313 11.06640625 3.53515625 C9 3 9 3 8 2 C6.65252916 1.76924918 5.29622435 1.58846937 3.9375 1.4375 C2.638125 1.293125 1.33875 1.14875 0 1 C0 0.67 0 0.34 0 0 Z " fill="#562A6D" transform="translate(290,236)"/>
<path d="M0 0 C0 0.33 0 0.66 0 1 C-4.62 1 -9.24 1 -14 1 C-14 1.66 -14 2.32 -14 3 C-16.33004685 3.24228363 -18.66047984 3.47726158 -20.9921875 3.703125 C-23.06138024 3.90735701 -25.12909233 4.12698838 -27.1953125 4.359375 C-28.24460938 4.46765625 -29.29390625 4.5759375 -30.375 4.6875 C-31.84066406 4.84798828 -31.84066406 4.84798828 -33.3359375 5.01171875 C-36.1713543 4.99924624 -37.6151711 4.47497712 -40 3 C-26.81286262 -0.12966624 -13.47239788 -0.15746959 0 0 Z " fill="#DA663C" transform="translate(186,32)"/>
<path d="M0 0 C1 3 1 3 -0.4375 6.1875 C-1.2109375 7.5796875 -1.2109375 7.5796875 -2 9 C-2.66 9 -3.32 9 -4 9 C-3.690625 10.6396875 -3.690625 10.6396875 -3.375 12.3125 C-3 16 -3 16 -5 19 C-5.33 19 -5.66 19 -6 19 C-6.33 21.64 -6.66 24.28 -7 27 C-7.33 27 -7.66 27 -8 27 C-8.55957129 16.94326043 -7.75429635 10.11001448 -1.75 1.9375 C-1.1725 1.298125 -0.595 0.65875 0 0 Z " fill="#D45C28" transform="translate(45,78)"/>
<path d="M0 0 C0.99 0.33 1.98 0.66 3 1 C4.37001429 4.1967 3.8252404 6.69903842 3 10 C2.34 9.67 1.68 9.34 1 9 C0.01 10.485 0.01 10.485 -1 12 C-4.44444444 15 -4.44444444 15 -8 15 C-6.29231921 11.44961249 -4.25801816 8.20601621 -2.12109375 4.90234375 C-0.84878807 2.89506996 -0.84878807 2.89506996 0 0 Z " fill="#54266D" transform="translate(254,214)"/>
<path d="M0 0 C0.99 0 1.98 0 3 0 C3.33 2.31 3.66 4.62 4 7 C3.34 7 2.68 7 2 7 C1.67 8.32 1.34 9.64 1 11 C0.34 11 -0.32 11 -1 11 C-1 11.66 -1 12.32 -1 13 C-3.31 13.66 -5.62 14.32 -8 15 C-7 13 -6 11 -5 9 C-3.68 9 -2.36 9 -1 9 C-1.20625 8.2575 -1.4125 7.515 -1.625 6.75 C-2.04408751 3.67669159 -1.61949011 2.57213134 0 0 Z " fill="#EF4B07" transform="translate(82,109)"/>
<path d="M0 0 C0.33 0 0.66 0 1 0 C4.96833637 8.87039895 1.67158443 18.16192824 -1 27 C-3.1642235 23.75366476 -3.37569856 22.75698557 -3 19 C-2.01 17.515 -2.01 17.515 -1 16 C-0.79543593 13.68629693 -0.79543593 13.68629693 -0.9375 11.1875 C-1.02237247 7.32297334 -0.80020997 3.80099735 0 0 Z " fill="#562970" transform="translate(319,188)"/>
<path d="M0 0 C1.11491267 3.34473801 0.80511271 5.60063522 0 9 C0 9.66 0 10.32 0 11 C-5.41176471 15 -5.41176471 15 -8 15 C-8 15.66 -8 16.32 -8 17 C-9.98 17.33 -11.96 17.66 -14 18 C-13.319375 17.360625 -12.63875 16.72125 -11.9375 16.0625 C-7.23905123 11.36405123 -2.78911717 6.05911662 0 0 Z " fill="#D15A29" transform="translate(104,119)"/>
<path d="M0 0 C0.33 1.32 0.66 2.64 1 4 C-5.65594553 6.94397591 -11.75841435 7.64999003 -19 8 C-16.41879025 5.41879025 -13.9172628 4.70385292 -10.5 3.4375 C-1.27893175 0 -1.27893175 0 0 0 Z " fill="#57296E" transform="translate(231,308)"/>
<path d="M0 0 C-0.33 0.99 -0.66 1.98 -1 3 C-2.98 3.33 -4.96 3.66 -7 4 C-7 4.66 -7 5.32 -7 6 C-9.3125 8.1875 -9.3125 8.1875 -12 10 C-12.99 9.67 -13.98 9.34 -15 9 C-15 8.01 -15 7.02 -15 6 C-12.98828125 4.140625 -12.98828125 4.140625 -10.3125 2.25 C-9.44238281 1.61578125 -8.57226562 0.9815625 -7.67578125 0.328125 C-4.55520692 -1.22077321 -3.25392487 -1.05532699 0 0 Z " fill="#572A72" transform="translate(139,185)"/>
<path d="M0 0 C0.66 0 1.32 0 2 0 C2.08636719 0.7528125 2.17273437 1.505625 2.26171875 2.28125 C3.33483062 10.39358197 5.31865257 17.81476978 7.87890625 25.56640625 C8.6879016 28.04413068 9.42527485 30.46216873 10 33 C9.01 33.495 9.01 33.495 8 34 C3.83019266 22.67071212 0.95228599 12.05134345 0 0 Z " fill="#CC5C2E" transform="translate(31,196)"/>
<path d="M0 0 C3.56155352 1.20823304 7.11023485 2.44699463 10.65234375 3.71118164 C6.37290745 5.03714598 3.08896575 3.99642852 -1.09765625 2.77368164 C-2.14373047 2.48074219 -2.14373047 2.48074219 -3.2109375 2.18188477 C-4.92564598 1.70035704 -6.63700502 1.20693007 -8.34765625 0.71118164 C-8.34765625 0.05118164 -8.34765625 -0.60881836 -8.34765625 -1.28881836 C-9.023125 -1.26561523 -9.69859375 -1.24241211 -10.39453125 -1.21850586 C-11.73257813 -1.19143555 -11.73257813 -1.19143555 -13.09765625 -1.16381836 C-13.979375 -1.14061523 -14.86109375 -1.11741211 -15.76953125 -1.09350586 C-18.46124205 -1.29742334 -20.04670599 -1.92330115 -22.34765625 -3.28881836 C-16.3022839 -6.31150453 -6.11817544 -2.00993126 0 0 Z " fill="#D05C36" transform="translate(219.34765625,38.288818359375)"/>
<path d="M0 0 C1.79413411 0.78605876 3.58523715 1.57903863 5.375 2.375 C6.37273437 2.81585938 7.37046875 3.25671875 8.3984375 3.7109375 C11.92222281 5.45695725 14.23510811 8.23510811 17 11 C14 12 14 12 10.8984375 10.48828125 C9.71725721 9.77398641 8.54296003 9.04821282 7.375 8.3125 C6.776875 7.95994141 6.17875 7.60738281 5.5625 7.24414062 C1.22071137 4.55753613 1.22071137 4.55753613 0.1015625 1.73046875 C0.06804687 1.15941406 0.03453125 0.58835937 0 0 Z " fill="#5E3B72" transform="translate(95,296)"/>
<path d="M0 0 C0.99 0.33 1.98 0.66 3 1 C2.649375 2.19625 2.29875 3.3925 1.9375 4.625 C0.98287828 8.37673012 1.05016847 11.2006739 2 15 C-0.46800047 13.84826645 -2.04783565 12.95216435 -4 11 C-3.70608813 6.59132188 -2.46007056 3.63662604 0 0 Z " fill="#4D2569" transform="translate(66,259)"/>
<path d="M0 0 C0.66 0.33 1.32 0.66 2 1 C-16.9940894 12.4414481 -16.9940894 12.4414481 -21.12109375 11.53320312 C-21.74113281 11.35724609 -22.36117187 11.18128906 -23 11 C-20.48043257 9.72660518 -17.95941351 8.45623358 -15.4375 7.1875 C-14.73302734 6.83107422 -14.02855469 6.47464844 -13.30273438 6.10742188 C-8.92890799 3.91043074 -4.57859234 1.73790201 0 0 Z " fill="#FBE0CA" transform="translate(159,154)"/>
<path d="M0 0 C0.36540804 4.50669915 0.36540804 4.50669915 -1.25 6.6875 C-4.63123427 9.2234257 -7.54592282 10.25405201 -11.75 10.625 C-12.54921875 10.69976562 -13.3484375 10.77453125 -14.171875 10.8515625 C-15.07679688 10.92503906 -15.07679688 10.92503906 -16 11 C-12.46750154 8.09088362 -8.81847287 5.51856721 -5 3 C-3.8553125 2.13375 -3.8553125 2.13375 -2.6875 1.25 C-1 0 -1 0 0 0 Z " fill="#DD592B" transform="translate(222,142)"/>
<path d="M0 0 C1.09763672 0.03544922 2.19527344 0.07089844 3.32617188 0.10742188 C4.91075195 0.17219727 4.91075195 0.17219727 6.52734375 0.23828125 C7.97548462 0.29495972 7.97548462 0.29495972 9.45288086 0.3527832 C12.08270313 0.69009131 13.79243316 1.35360537 16.0625 2.6875 C12.12984104 2.73697698 8.19730286 2.77325578 4.2644043 2.79736328 C2.26930382 2.81235495 0.27429054 2.83776731 -1.72070312 2.86328125 C-2.97431641 2.86972656 -4.22792969 2.87617187 -5.51953125 2.8828125 C-6.67686768 2.89328613 -7.8342041 2.90375977 -9.02661133 2.91455078 C-11.9375 2.6875 -11.9375 2.6875 -14.9375 0.6875 C-10.05845155 -0.93884948 -5.09435334 -0.2176055 0 0 Z " fill="#E44B0A" transform="translate(173.9375,70.3125)"/>
<path d="M0 0 C0.66 0 1.32 0 2 0 C2.94605518 4.73027588 3 9.18657218 3 14 C3.309375 15.546875 3.309375 15.546875 3.625 17.125 C4.07770893 20.59576848 3.2995375 22.78937795 2 26 C1.67 26 1.34 26 1 26 C0.67 17.42 0.34 8.84 0 0 Z " fill="#E55008" transform="translate(110,84)"/>
<path d="M0 0 C0.680625 0.268125 1.36125 0.53625 2.0625 0.8125 C2.0625 2.4625 2.0625 4.1125 2.0625 5.8125 C1.381875 5.77125 0.70125 5.73 0 5.6875 C-3.53674168 5.83799965 -6.57073033 6.75625853 -9.9375 7.8125 C-9.9375 4.8125 -9.9375 4.8125 -8.58203125 3.390625 C-3.58896374 -0.22908279 -3.58896374 -0.22908279 0 0 Z " fill="#5A3371" transform="translate(245.9375,230.1875)"/>
<path d="M0 0 C3.49661445 1.39864578 4.50063004 2.6014281 6 6 C6.804375 7.051875 6.804375 7.051875 7.625 8.125 C9 10 9 10 9 12 C9.66 12 10.32 12 11 12 C11.33 15.96 11.66 19.92 12 24 C9.74574638 20.61861957 8.50978279 17.26310117 7.09765625 13.47265625 C6.10120015 10.95328197 6.10120015 10.95328197 4.37109375 8.93359375 C3 7 3 7 3 3 C2.01 2.67 1.02 2.34 0 2 C0 1.34 0 0.68 0 0 Z " fill="#822948" transform="translate(268,65)"/>
<path d="M0 0 C0.33 0.99 0.66 1.98 1 3 C3.00016466 4.20882096 3.00016466 4.20882096 5 5 C5 5.66 5 6.32 5 7 C5.66 7.33 6.32 7.66 7 8 C6.67 8.66 6.34 9.32 6 10 C2.39428893 9.40716913 0.45570562 7.97258223 -2.25 5.5625 C-2.95640625 4.94503906 -3.6628125 4.32757813 -4.390625 3.69140625 C-6 2 -6 2 -6 0 C-2.25 -1.125 -2.25 -1.125 0 0 Z " fill="#57306D" transform="translate(80,281)"/>
<path d="M0 0 C-0.33 0.66 -0.66 1.32 -1 2 C-6.94 2 -12.88 2 -19 2 C-12.29059842 -3.03205119 -7.81151755 -1.65698857 0 0 Z " fill="#5C2281" transform="translate(302,215)"/>
<path d="M0 0 C0.99 0.33 1.98 0.66 3 1 C3.05394705 3.60444348 3.09364469 6.20776998 3.125 8.8125 C3.14175781 9.55048828 3.15851563 10.28847656 3.17578125 11.04882812 C3.21074628 14.91246426 3.19397555 16.70903668 1 20 C0.01 19.67 -0.98 19.34 -2 19 C-1.34 12.73 -0.68 6.46 0 0 Z " fill="#592673" transform="translate(257,195)"/>
<path d="M0 0 C6.15234375 0.5859375 6.15234375 0.5859375 8 1 C8.33 1.66 8.66 2.32 9 3 C11.02820507 3.56240942 11.02820507 3.56240942 13.47265625 3.8515625 C14.82133789 4.04492188 14.82133789 4.04492188 16.19726562 4.2421875 C17.61555664 4.43167969 17.61555664 4.43167969 19.0625 4.625 C20.01189453 4.7590625 20.96128906 4.893125 21.93945312 5.03125 C24.29196345 5.36225648 26.64533094 5.68478072 29 6 C29 6.33 29 6.66 29 7 C19.94852878 7.53331091 8.38209362 7.71777663 1.1328125 1.36328125 C0.57207031 0.68845703 0.57207031 0.68845703 0 0 Z " fill="#FEE8D5" transform="translate(42,137)"/>
<path d="M0 0 C4.88647756 1.62882585 6.21869244 5.61458404 8.546875 10.01171875 C11.35699235 16.6478412 10.53048975 23.96890564 10 31 C9.67 31 9.34 31 9 31 C8.92523438 29.98421875 8.85046875 28.9684375 8.7734375 27.921875 C7.91867705 18.40585125 5.77828524 11.40030904 1 3 C0.67 2.01 0.34 1.02 0 0 Z " fill="#CF5319" transform="translate(225,91)"/>
<path d="M0 0 C6.78080477 -0.43949661 11.73058629 1.00571713 18 3.5 C18.87011719 3.83386719 19.74023438 4.16773437 20.63671875 4.51171875 C22.76269999 5.32940384 24.88319721 6.15890324 27 7 C26.34 7.66 25.68 8.32 25 9 C23.845 8.401875 22.69 7.80375 21.5 7.1875 C14.68500598 4.11364235 7.32738352 3.18676641 0 2 C0 1.34 0 0.68 0 0 Z " fill="#FDEAD5" transform="translate(186,75)"/>
<path d="M0 0 C0.92683594 0.00451172 1.85367187 0.00902344 2.80859375 0.01367188 C5.08079709 0.02538426 7.35286388 0.04178628 9.625 0.0625 C9.625 0.3925 9.625 0.7225 9.625 1.0625 C8.66980469 1.09988281 7.71460938 1.13726562 6.73046875 1.17578125 C-0.58569762 1.54778971 -7.10142891 2.19362366 -14.10546875 4.5390625 C-16.59504918 5.11325145 -17.98558041 4.88643779 -20.375 4.0625 C-14.62293218 -1.02586769 -7.24281159 -0.06715874 0 0 Z " fill="#572B70" transform="translate(292.375,216.9375)"/>
<path d="M0 0 C0.33 1.32 0.66 2.64 1 4 C-3.18586481 7.18923033 -5.70558305 8.50423019 -11 8 C-11 7.01 -11 6.02 -11 5 C-10.37351563 4.72285156 -9.74703125 4.44570313 -9.1015625 4.16015625 C-8.28429687 3.79792969 -7.46703125 3.43570312 -6.625 3.0625 C-5.81289062 2.70285156 -5.00078125 2.34320313 -4.1640625 1.97265625 C-2.76316215 1.3430097 -1.37374716 0.68687358 0 0 Z " fill="#5A2A72" transform="translate(245,300)"/>
<path d="M0 0 C3.26008643 3.16952847 6.22237877 6.39937989 9 10 C8.67 10.66 8.34 11.32 8 12 C7.46375 11.484375 6.9275 10.96875 6.375 10.4375 C3.99503501 8.67394455 3.99503501 8.67394455 0.75 9.3125 C-0.61125 9.6528125 -0.61125 9.6528125 -2 10 C-1.42415568 7.61435923 -0.77772405 5.33317216 0 3 C0 2.01 0 1.02 0 0 Z " fill="#FBF3E6" transform="translate(94,66)"/>
<path d="M0 0 C0.33 0 0.66 0 1 0 C1.50194819 7.45950775 1.10371084 13.55986985 -3 20 C-3.66 20.33 -4.32 20.66 -5 21 C-4.30130124 16.27826731 -3.19817903 11.72224651 -1.9375 7.125 C-1.75123047 6.43664062 -1.56496094 5.74828125 -1.37304688 5.0390625 C-0.91794189 3.35867486 -0.45933322 1.67923678 0 0 Z " fill="#4E2468" transform="translate(319,260)"/>
<path d="M0 0 C0.33 0.66 0.66 1.32 1 2 C1.99 1.67 2.98 1.34 4 1 C6.1875 1.9375 6.1875 1.9375 8 3 C6.40207898 4.17520646 4.79643092 5.33991247 3.1875 6.5 C1.84751953 7.47453125 1.84751953 7.47453125 0.48046875 8.46875 C-2 10 -2 10 -5 10 C-5 9.34 -5 8.68 -5 8 C-4.01 7.67 -3.02 7.34 -2 7 C-2 5.68 -2 4.36 -2 3 C-1.34 3 -0.68 3 0 3 C0 2.01 0 1.02 0 0 Z " fill="#FBEDDF" transform="translate(87,130)"/>
<path d="M0 0 C5.19228855 0.57229633 9.3103703 3.0982161 13.8125 5.5625 C14.60076172 5.98724609 15.38902344 6.41199219 16.20117188 6.84960938 C18.1373378 7.89396554 20.07005367 8.9442077 22 10 C21.34 10.66 20.68 11.32 20 12 C19.319375 11.5875 18.63875 11.175 17.9375 10.75 C16.968125 10.1725 15.99875 9.595 15 9 C13.906875 8.319375 12.81375 7.63875 11.6875 6.9375 C7.92546015 4.77474141 4.23189002 3.89092422 0 3 C0 2.01 0 1.02 0 0 Z " fill="#CF5830" transform="translate(234,45)"/>
<path d="M0 0 C5.92389681 5.07762583 9.82784672 11.81711552 10.8125 19.625 C10.874375 20.73875 10.93625 21.8525 11 23 C10.34 23 9.68 23 9 23 C8.68546875 21.90300781 8.3709375 20.80601563 8.046875 19.67578125 C7.6151855 18.22117532 7.18286009 16.76675801 6.75 15.3125 C6.44255859 14.2306543 6.44255859 14.2306543 6.12890625 13.12695312 C4.76693665 8.60769036 3.14159823 5.61820822 0 2 C0 1.34 0 0.68 0 0 Z " fill="#C46136" transform="translate(156,91)"/>
<path d="M0 0 C7.92 0 15.84 0 24 0 C24.33 1.32 24.66 2.64 25 4 C16.65328509 3.10570912 8.32792142 2.05248577 0 1 C0 0.67 0 0.34 0 0 Z " fill="#FBE3CE" transform="translate(186,32)"/>
<path d="M0 0 C0.66 0.33 1.32 0.66 2 1 C1.34 3.64 0.68 6.28 0 9 C-0.66 9 -1.32 9 -2 9 C-1.67 9.99 -1.34 10.98 -1 12 C-1.99 12.33 -2.98 12.66 -4 13 C-4.804375 13.86625 -5.60875 14.7325 -6.4375 15.625 C-7.283125 16.40875 -8.12875 17.1925 -9 18 C-11.3125 17.8125 -11.3125 17.8125 -13 17 C-12.113125 16.484375 -11.22625 15.96875 -10.3125 15.4375 C-4.71641427 11.69354667 -1.7275392 6.43900975 0 0 Z " fill="#ECDBF0" transform="translate(319,271)"/>
<path d="M0 0 C7.2547009 1.01474939 12.811421 3.08355629 19 7 C18.67 7.66 18.34 8.32 18 9 C16.02 8.34 14.04 7.68 12 7 C12 6.34 12 5.68 12 5 C10.948125 5.103125 9.89625 5.20625 8.8125 5.3125 C5 5 5 5 2.0625 2.5 C1.0415625 1.2625 1.0415625 1.2625 0 0 Z " fill="#FDE7D7" transform="translate(223,163)"/>
<path d="M0 0 C0 0.66 0 1.32 0 2 C-2.64 2.99 -5.28 3.98 -8 5 C-4.7 5.33 -1.4 5.66 2 6 C2 6.33 2 6.66 2 7 C-4.6 7 -11.2 7 -18 7 C-14.87351251 4.91567501 -11.94269132 3.71441389 -8.4375 2.375 C-7.28121094 1.92898437 -6.12492188 1.48296875 -4.93359375 1.0234375 C-2 0 -2 0 0 0 Z " fill="#C56F51" transform="translate(206,153)"/>
<path d="M0 0 C4 2 4 2 5.25 3.75 C6.19251213 6.57753638 6.1345485 9.03993304 6 12 C3.525 11.01 3.525 11.01 1 10 C0.67 6.7 0.34 3.4 0 0 Z " fill="#DB4D1A" transform="translate(84,80)"/>
<path d="M0 0 C-2.38125464 2.38125464 -4.33857567 3.00186241 -7.5 4.125 C-8.4796875 4.47820312 -9.459375 4.83140625 -10.46875 5.1953125 C-13 6 -13 6 -15 6 C-15 5.01 -15 4.02 -15 3 C-9.39347922 -0.85448303 -6.65774342 -1.40163019 0 0 Z " fill="#5A3570" transform="translate(239,239)"/>
<path d="M0 0 C0.66 0.33 1.32 0.66 2 1 C2.33 1.99 2.66 2.98 3 4 C1.35 4 -0.3 4 -2 4 C-2.33 4.99 -2.66 5.98 -3 7 C-5.97 7 -8.94 7 -12 7 C-8.68987756 3.68987756 -7.46840411 3.49648935 -3 3 C-3 2.34 -3 1.68 -3 1 C-2.01 0.67 -1.02 0.34 0 0 Z " fill="#DE4817" transform="translate(209,152)"/>
<path d="M0 0 C1.3778771 3.13153887 0.90076044 4.28779473 -0.25 7.625 C-2 11 -2 11 -5 13 C-5.99 13 -6.98 13 -8 13 C-8 12.34 -8 11.68 -8 11 C-7.34 11 -6.68 11 -6 11 C-6 9.68 -6 8.36 -6 7 C-5.01 7 -4.02 7 -3 7 C-2.690625 6.21625 -2.38125 5.4325 -2.0625 4.625 C-1 2 -1 2 0 0 Z " fill="#782B5A" transform="translate(272,141)"/>
<path d="M0 0 C0.66 0.33 1.32 0.66 2 1 C2 6.61 2 12.22 2 18 C-0.91157394 15.08842606 -0.99261585 13.22890869 -1.125 9.125 C-1.09011399 5.97363054 -0.76739686 3.06958744 0 0 Z " fill="#56226E" transform="translate(247,254)"/>
<path d="M0 0 C-0.6875 1.9375 -0.6875 1.9375 -2 4 C-3.66666667 4.33333333 -5.33333333 4.66666667 -7 5 C-8.36020151 6.96758273 -8.36020151 6.96758273 -9 9 C-9.99 9 -10.98 9 -12 9 C-9.94195865 3.44328837 -5.88351438 0 0 0 Z " fill="#56296C" transform="translate(283,238)"/>
<path d="M0 0 C1.32 0.33 2.64 0.66 4 1 C4 1.66 4 2.32 4 3 C5.32 2.67 6.64 2.34 8 2 C6.79157144 6.43090471 5.48331435 8.98112756 2 12 C2.33 9.36 2.66 6.72 3 4 C2.01 4 1.02 4 0 4 C0 2.68 0 1.36 0 0 Z " fill="#ED5421" transform="translate(268,132)"/>
<path d="M0 0 C1.875 0.1875 1.875 0.1875 4 1 C5 3.125 5 3.125 6 6 C6.66924812 7.17723163 7.35800469 8.34351666 8.0625 9.5 C9.71414076 12.30594731 10.60352564 14.72908654 11 18 C7.77255796 16.38627898 6.83955576 13.15426598 5.21875 10.03125 C4.16138222 7.85699299 4.16138222 7.85699299 2 7 C2 5.35 2 3.7 2 2 C1.34 2 0.68 2 0 2 C0 1.34 0 0.68 0 0 Z " fill="#D3583E" transform="translate(267,67)"/>
<path d="M0 0 C0 0.66 0 1.32 0 2 C-0.66 2 -1.32 2 -2 2 C-2.0825 2.763125 -2.165 3.52625 -2.25 4.3125 C-3 7 -3 7 -4.75 8.75 C-7.18691588 10.10384216 -9.25094301 10.61818653 -12 11 C-2.73033708 0 -2.73033708 0 0 0 Z " fill="#FCE7D1" transform="translate(102,191)"/>
<path d="M0 0 C0 0.66 0 1.32 0 2 C-0.66 2 -1.32 2 -2 2 C-2 2.66 -2 3.32 -2 4 C-4.89589652 4.02706445 -7.79153795 4.04687029 -10.6875 4.0625 C-11.91243164 4.07506836 -11.91243164 4.07506836 -13.16210938 4.08789062 C-17.24499084 4.10442051 -21.01651707 4.03035098 -25 3 C-25 2.34 -25 1.68 -25 1 C-24.05125 1.165 -23.1025 1.33 -22.125 1.5 C-14.0741663 2.62679011 -7.56324976 0 0 0 Z " fill="#FDDEC8" transform="translate(78,125)"/>
<path d="M0 0 C5.80205656 5.64524422 5.80205656 5.64524422 8 9 C8 9.66 8 10.32 8 11 C4.76509224 10.44225728 3.02144994 9.62788492 1 7 C1 6.01 1 5.02 1 4 C0.34 4 -0.32 4 -1 4 C-0.67 2.68 -0.34 1.36 0 0 Z " fill="#532A68" transform="translate(292,90)"/>
<path d="M0 0 C-1.98 1.32 -3.96 2.64 -6 4 C-5.01 4.66 -4.02 5.32 -3 6 C-3 6.66 -3 7.32 -3 8 C-6.63 7.01 -10.26 6.02 -14 5 C-11.15566194 2.15566194 -10.0687814 1.42253897 -6.4375 0.25 C-5.65246094 -0.01296875 -4.86742187 -0.2759375 -4.05859375 -0.546875 C-2 -1 -2 -1 0 0 Z " fill="#FBD2B7" transform="translate(153,78)"/>
<path d="M0 0 C-2.34591251 1.56394167 -4.33744331 2.6243912 -6.875 3.75 C-11.0852858 5.80076651 -13.2640585 8.23808044 -16 12 C-16.33 10.68 -16.66 9.36 -17 8 C-16.34 8 -15.68 8 -15 8 C-14.814375 7.236875 -14.62875 6.47375 -14.4375 5.6875 C-11.51265839 0.21931786 -5.75701812 -0.42124523 0 0 Z " fill="#FCEADF" transform="translate(58,71)"/>
<path d="M0 0 C0.99 0.66 1.98 1.32 3 2 C3 2.66 3 3.32 3 4 C-3.15901243 5.23180249 -8.78675502 4.73030908 -15 4 C-15 3.34 -15 2.68 -15 2 C-14.08476562 2.02320313 -13.16953125 2.04640625 -12.2265625 2.0703125 C-10.44378906 2.09738281 -10.44378906 2.09738281 -8.625 2.125 C-6.84996094 2.15980469 -6.84996094 2.15980469 -5.0390625 2.1953125 C-1.88846183 2.32866229 -1.88846183 2.32866229 0 0 Z " fill="#5A207F" transform="translate(201,316)"/>
<path d="M0 0 C1.32 0.33 2.64 0.66 4 1 C0.04 5.95 -3.92 10.9 -8 16 C-8.33 15.01 -8.66 14.02 -9 13 C-7.6875 10.8125 -7.6875 10.8125 -6 9 C-5.34 9 -4.68 9 -4 9 C-3.71125 8.071875 -3.4225 7.14375 -3.125 6.1875 C-2 3 -2 3 0 0 Z " fill="#D46335" transform="translate(76,212)"/>
<path d="M0 0 C3.93673644 1.31224548 6.22719294 2.91910327 9 6 C7.35 6 5.7 6 4 6 C4 5.34 4 4.68 4 4 C0.98672434 5.50663783 0.38943382 8.03166411 -1 11 C-2.60080151 6.99799622 -1.29279692 3.95443764 0 0 Z " fill="#C85A2D" transform="translate(36,134)"/>
<path d="M0 0 C0.99 0 1.98 0 3 0 C1.43358249 4.30764815 -0.68336156 8.06171464 -3 12 C-4.32 12 -5.64 12 -7 12 C-6.34 10.02 -5.68 8.04 -5 6 C-4.01 6 -3.02 6 -2 6 C-1.34 4.02 -0.68 2.04 0 0 Z " fill="#D65517" transform="translate(57,238)"/>
<path d="M0 0 C1.2065625 0.0309375 1.2065625 0.0309375 2.4375 0.0625 C-0.8483246 2.81417577 -4.19877487 4.28183799 -8.1875 5.8125 C-9.33476562 6.26109375 -10.48203125 6.7096875 -11.6640625 7.171875 C-14.5625 8.0625 -14.5625 8.0625 -16.5625 7.0625 C-15.5625 5.0625 -15.5625 5.0625 -12.875 4.02734375 C-11.781875 3.68832031 -10.68875 3.34929687 -9.5625 3 C-6.29816514 1.97989536 -3.23385943 0.07887462 0 0 Z " fill="#FBE4D1" transform="translate(205.5625,150.9375)"/>
<path d="M0 0 C2.97 0.495 2.97 0.495 6 1 C6 1.66 6 2.32 6 3 C4.04350603 3.83764268 2.08474444 4.66999059 0.125 5.5 C-1.51082031 6.19609375 -1.51082031 6.19609375 -3.1796875 6.90625 C-6 8 -6 8 -8 8 C-7.67 7.01 -7.34 6.02 -7 5 C-5.35 4.67 -3.7 4.34 -2 4 C-2 3.34 -2 2.68 -2 2 C-1.34 2 -0.68 2 0 2 C0 1.34 0 0.68 0 0 Z " fill="#DA582B" transform="translate(158,150)"/>
<path d="M0 0 C-3.53439014 1.97536091 -7.17065751 2.98620707 -11.0625 4.0625 C-16.05683865 5.44756243 -16.05683865 5.44756243 -21 7 C-21 5 -21 5 -19.8984375 3.44921875 C-17.24215915 1.42148363 -14.9179943 1.25332418 -11.625 0.8125 C-10.50351563 0.65394531 -9.38203125 0.49539062 -8.2265625 0.33203125 C-5.4496999 0.04627662 -2.78735675 -0.067857 0 0 Z " fill="#D45D2F" transform="translate(160,75)"/>
<path d="M0 0 C-0.33 0.99 -0.66 1.98 -1 3 C-1.86625 2.690625 -2.7325 2.38125 -3.625 2.0625 C-9.57013265 0.32696438 -15.85139382 0.32405969 -22 0 C-22 -0.33 -22 -0.66 -22 -1 C-19.60458732 -1.19585135 -17.20907226 -1.38192107 -14.8125 -1.5625 C-13.80219727 -1.64661133 -13.80219727 -1.64661133 -12.77148438 -1.73242188 C-8.1401767 -2.07129805 -4.19898033 -2.09949016 0 0 Z " fill="#68417E" transform="translate(309,219)"/>
<path d="M0 0 C1.32 0.33 2.64 0.66 4 1 C3.88648483 2.81325551 3.75887039 4.62563357 3.625 6.4375 C3.55539063 7.44683594 3.48578125 8.45617187 3.4140625 9.49609375 C3.27742188 10.32238281 3.14078125 11.14867187 3 12 C2.01 12.495 2.01 12.495 1 13 C0.1276588 10.00519083 -0.10829766 7.36424089 -0.0625 4.25 C-0.05347656 3.45078125 -0.04445312 2.6515625 -0.03515625 1.828125 C-0.02355469 1.22484375 -0.01195312 0.6215625 0 0 Z " fill="#DD5311" transform="translate(33,196)"/>
<path d="M0 0 C1.46109063 0.25554054 2.91888096 0.53000372 4.375 0.8125 C5.59316406 1.03873047 5.59316406 1.03873047 6.8359375 1.26953125 C9 2 9 2 11 5 C7.04 5 3.08 5 -1 5 C-0.67 3.35 -0.34 1.7 0 0 Z " fill="#D95628" transform="translate(45,140)"/>
<path d="M0 0 C4.38332057 0.82187261 8.67940177 1.90154282 13 3 C13 3.66 13 4.32 13 5 C15.64 5 18.28 5 21 5 C21 5.33 21 5.66 21 6 C14.21929837 6.37516177 9.17494235 5.92497269 3 3 C1.27734375 1.39453125 1.27734375 1.39453125 0 0 Z " fill="#CD5F31" transform="translate(49,122)"/>
<path d="M0 0 C0.99 1.0209375 0.99 1.0209375 2 2.0625 C5.49468234 5.56725347 9.25130779 8.77221788 13 12 C12.01 12.66 11.02 13.32 10 14 C10 13.34 10 12.68 10 12 C8.68 11.67 7.36 11.34 6 11 C6 10.01 6 9.02 6 8 C4.68 7.67 3.36 7.34 2 7 C2 6.01 2 5.02 2 4 C1.34 4 0.68 4 0 4 C0 2.68 0 1.36 0 0 Z " fill="#F9E0C8" transform="translate(40,113)"/>
<path d="M0 0 C0.66 0 1.32 0 2 0 C1.42365861 4.75481646 -0.55068521 7.97048212 -3 12 C-3.99 12 -4.98 12 -6 12 C-4.68448876 7.39571066 -2.90803514 3.81679612 0 0 Z " fill="#552A66" transform="translate(74,246)"/>
<path d="M0 0 C0.33 0 0.66 0 1 0 C2.66666667 6.66666667 4.33333333 13.33333333 6 20 C3 19 3 19 1.8515625 17.421875 C0.67490048 14.07540504 0.53429608 10.76115104 0.375 7.25 C0.33632813 6.55261719 0.29765625 5.85523438 0.2578125 5.13671875 C0.16401376 3.42489182 0.08093826 1.71248318 0 0 Z " fill="#FADFC8" transform="translate(32,206)"/>
<path d="M0 0 C6.27 0 12.54 0 19 0 C12.01700459 3.4914977 7.29736323 2.96217989 0 1 C0 0.67 0 0.34 0 0 Z " fill="#DE4E17" transform="translate(53,145)"/>
<path d="M0 0 C1.79724763 0.36966799 3.58785578 0.7717248 5.375 1.1875 C6.37273437 1.40792969 7.37046875 1.62835938 8.3984375 1.85546875 C11 3 11 3 12.1640625 5.55078125 C12.57785156 6.76314453 12.57785156 6.76314453 13 8 C13.99 8.33 14.98 8.66 16 9 C15.01 9.495 15.01 9.495 14 10 C11.53857997 8.61286881 9.22149631 7.18623319 6.875 5.625 C6.21628906 5.19960938 5.55757813 4.77421875 4.87890625 4.3359375 C3.23027994 3.25733312 1.61219991 2.13232839 0 1 C0 0.67 0 0.34 0 0 Z " fill="#F9E5CF" transform="translate(251,52)"/>
<path d="M0 0 C-3.12305373 1.17192435 -6.24874739 2.33663876 -9.375 3.5 C-10.26445313 3.83386719 -11.15390625 4.16773438 -12.0703125 4.51171875 C-12.92109375 4.82753906 -13.771875 5.14335938 -14.6484375 5.46875 C-15.43395996 5.76201172 -16.21948242 6.05527344 -17.02880859 6.35742188 C-19 7 -19 7 -21 7 C-21 6.34 -21 5.68 -21 5 C-17.99220655 3.77808391 -14.97089553 2.59415923 -11.9375 1.4375 C-11.28652344 1.18871094 -10.63554688 0.93992188 -9.96484375 0.68359375 C-6.12768048 -0.65140341 -3.95575239 -1.10085204 0 0 Z " fill="#FEE9D6" transform="translate(138,37)"/>
<path d="M0 0 C0.99 0.33 1.98 0.66 3 1 C0.03 4.63 -2.94 8.26 -6 12 C-6.33 10.68 -6.66 9.36 -7 8 C-4.96504977 5.02025145 -2.61225159 2.48163901 0 0 Z " fill="#EFE7F4" transform="translate(92,218)"/>
<path d="M0 0 C0.99 0.33 1.98 0.66 3 1 C1.35 1.66 -0.3 2.32 -2 3 C-1.34 2.01 -0.68 1.02 0 0 Z M-7 3 C-5.35 3 -3.7 3 -2 3 C-1.67 4.65 -1.34 6.3 -1 8 C-2.98 8 -4.96 8 -7 8 C-7 6.35 -7 4.7 -7 3 Z " fill="#E8561D" transform="translate(99,180)"/>
<path d="M0 0 C0.66 0 1.32 0 2 0 C2 0.99 2 1.98 2 3 C2.99 3 3.98 3 5 3 C4.75 5.3125 4.75 5.3125 4 8 C2.68 8.99 1.36 9.98 0 11 C0 7.37 0 3.74 0 0 Z " fill="#D45715" transform="translate(33,145)"/>
<path d="M0 0 C5.77378925 0.4811491 9.95859836 2.18467181 15 5 C15 5.99 15 6.98 15 8 C14.67 7.34 14.34 6.68 14 6 C12.00116131 5.65977214 10.00109278 5.32670903 8 5 C7.34 4.34 6.68 3.68 6 3 C2.41656024 2.83322718 2.41656024 2.83322718 -1 3 C-0.67 2.01 -0.34 1.02 0 0 Z " fill="#CF5725" transform="translate(139,83)"/>
<path d="M0 0 C1.8125 0.1875 1.8125 0.1875 4 1 C6.53370588 4.34811134 7 5.70124217 7 10 C7.66 10 8.32 10 9 10 C9 11.65 9 13.3 9 15 C6.8541558 12.17753826 4.80070866 9.310676 2.8125 6.375 C2.01779297 5.21097656 2.01779297 5.21097656 1.20703125 4.0234375 C0 2 0 2 0 0 Z " fill="#CC5E2B" transform="translate(98,69)"/>
<path d="M0 0 C1.485 0.99 1.485 0.99 3 2 C3.99 1.34 4.98 0.68 6 0 C6.99 0.33 7.98 0.66 9 1 C9.33 2.65 9.66 4.3 10 6 C3.6 5.50769231 3.6 5.50769231 0.5625 2.9375 C-0.2109375 1.9784375 -0.2109375 1.9784375 -1 1 C-0.67 0.67 -0.34 0.34 0 0 Z " fill="#FCF0EB" transform="translate(38,132)"/>
<path d="M0 0 C2.5 1.6875 2.5 1.6875 5 4 C5.3125 6.75 5.3125 6.75 5 9 C6.32 9.33 7.64 9.66 9 10 C8.67 11.32 8.34 12.64 8 14 C7.03644756 12.92130607 6.07938583 11.83681257 5.125 10.75 C4.59132813 10.14671875 4.05765625 9.5434375 3.5078125 8.921875 C1.12879752 5.88955539 0 3.89348604 0 0 Z " fill="#CC5D25" transform="translate(38,106)"/>
<path d="M0 0 C0.33 0 0.66 0 1 0 C1.05845196 3.37492629 1.09374742 6.74972087 1.125 10.125 C1.15013672 11.55199219 1.15013672 11.55199219 1.17578125 13.0078125 C1.21066567 18.03116861 1.17819164 22.35420664 -1 27 C-1.66 27.33 -2.32 27.66 -3 28 C-2.47731534 25.23723823 -1.89130413 22.6739124 -1 20 C-0.8535286 18.44733347 -0.75305926 16.89004338 -0.68359375 15.33203125 C-0.64169922 14.43935547 -0.59980469 13.54667969 -0.55664062 12.62695312 C-0.51732422 11.69818359 -0.47800781 10.76941406 -0.4375 9.8125 C-0.39431641 8.87212891 -0.35113281 7.93175781 -0.30664062 6.96289062 C-0.20061335 4.64207146 -0.09854971 2.32114675 0 0 Z " fill="#D74F13" transform="translate(110,90)"/>
<path d="M0 0 C-0.66 1.32 -1.32 2.64 -2 4 C-5.3 4 -8.6 4 -12 4 C-12.33 3.34 -12.66 2.68 -13 2 C-11.21089097 1.47044766 -9.41860852 0.9516063 -7.625 0.4375 C-6.62726563 0.14746094 -5.62953125 -0.14257812 -4.6015625 -0.44140625 C-2 -1 -2 -1 0 0 Z " fill="#D45B2A" transform="translate(143,37)"/>
<path d="M0 0 C1.98 0.495 1.98 0.495 4 1 C4.125 3.875 4.125 3.875 4 7 C3.34 7.66 2.68 8.32 2 9 C1.67 8.01 1.34 7.02 1 6 C0.67 8.64 0.34 11.28 0 14 C-0.33 14 -0.66 14 -1 14 C-1.02694851 12.04174127 -1.04637218 10.08337774 -1.0625 8.125 C-1.07410156 7.03445313 -1.08570313 5.94390625 -1.09765625 4.8203125 C-1 2 -1 2 0 0 Z " fill="#7A528F" transform="translate(266,254)"/>
<path d="M0 0 C0.33 0.66 0.66 1.32 1 2 C0.67 2.66 0.34 3.32 0 4 C-0.99 4 -1.98 4 -3 4 C-3 5.32 -3 6.64 -3 8 C-3.66 8 -4.32 8 -5 8 C-5.2475 8.598125 -5.495 9.19625 -5.75 9.8125 C-7.16370012 12.28647521 -8.65055383 13.43370255 -11 15 C-11 11 -11 11 -9.1875 8.75 C-7 7 -7 7 -4 7 C-4 5.68 -4 4.36 -4 3 C-3.01 3 -2.02 3 -1 3 C-0.67 2.01 -0.34 1.02 0 0 Z " fill="#D95732" transform="translate(269,144)"/>
<path d="M0 0 C-5.52760359 2.10575375 -10.06997733 3.37851209 -16 3 C-16 2.34 -16 1.68 -16 1 C-14.0852312 0.63571223 -12.16807707 0.28394694 -10.25 -0.0625 C-9.18265625 -0.25972656 -8.1153125 -0.45695312 -7.015625 -0.66015625 C-4.25228095 -0.97156937 -2.59053383 -0.8991416 0 0 Z " fill="#613B74" transform="translate(222,316)"/>
<path d="M0 0 C2.10483837 3.15725756 2.30888017 4.39850283 2.5625 8.0625 C2.77633446 11.66760043 2.77633446 11.66760043 4 15 C3.34 15.66 2.68 16.32 2 17 C-0.25998595 13.40537669 -0.20868087 10.43404325 -0.125 6.25 C-0.09792969 4.49429687 -0.09792969 4.49429687 -0.0703125 2.703125 C-0.04710937 1.81109375 -0.02390625 0.9190625 0 0 Z " fill="#502266" transform="translate(266,257)"/>
<path d="M0 0 C1.10844919 3.32534757 0.84454356 5.62182575 0 9 C-2.91517292 7.92598892 -4.77810176 7.22189824 -7 5 C-6.21625 4.54625 -5.4325 4.0925 -4.625 3.625 C-1.96301969 2.11571258 -1.96301969 2.11571258 0 0 Z " fill="#58316A" transform="translate(316,216)"/>
<path d="M0 0 C2.31 0.33 4.62 0.66 7 1 C-0.75 7.28378378 -0.75 7.28378378 -6 7 C-4 4 -4 4 -1.375 3.3125 C-0.59125 3.209375 0.1925 3.10625 1 3 C0.67 2.01 0.34 1.02 0 0 Z " fill="#D95E23" transform="translate(123,168)"/>
<path d="M0 0 C4.95 0 9.9 0 15 0 C15 0.66 15 1.32 15 2 C16.65 2 18.3 2 20 2 C20 2.99 20 3.98 20 5 C19.47792969 4.79503906 18.95585938 4.59007813 18.41796875 4.37890625 C12.29251368 2.13683951 6.49617989 1.35212938 0 1 C0 0.67 0 0.34 0 0 Z " fill="#FDDFC9" transform="translate(60,70)"/>
<path d="M0 0 C0.99 0 1.98 0 3 0 C1.44499019 3.81684226 -1.03595495 6.19195732 -4 9 C-4.33 7.35 -4.66 5.7 -5 4 C-4.01 3.34 -3.02 2.68 -2 2 C-1.34 1.34 -0.68 0.68 0 0 Z " fill="#F9EAD5" transform="translate(99,123)"/>
<path d="M0 0 C3.21043882 1.38188453 5.04936365 2.92421903 7.25 5.625 C8.03117187 6.57246094 8.03117187 6.57246094 8.828125 7.5390625 C9.40820312 8.26222656 9.40820312 8.26222656 10 9 C7.6875 9.3125 7.6875 9.3125 5 9 C3.3125 6.5625 3.3125 6.5625 2 4 C1.34 3.67 0.68 3.34 0 3 C0 2.01 0 1.02 0 0 Z " fill="#6C3B68" transform="translate(272,68)"/>
<path d="M0 0 C0.9796875 0.07863281 1.959375 0.15726563 2.96875 0.23828125 C5.5 0.6875 5.5 0.6875 7.5 2.6875 C0.91447368 2.81414474 0.91447368 2.81414474 -1.75 2 C-2.3275 1.896875 -2.905 1.79375 -3.5 1.6875 C-5.14594139 3.08338754 -5.14594139 3.08338754 -6.5 4.6875 C-7.16 4.6875 -7.82 4.6875 -8.5 4.6875 C-8.125 2.75 -8.125 2.75 -7.5 0.6875 C-4.81257967 -0.65621016 -2.97935898 -0.26265402 0 0 Z " fill="#DA521C" transform="translate(226.5,42.3125)"/>
<path d="M0 0 C0.99 0.33 1.98 0.66 3 1 C3 1.99 3 2.98 3 4 C-0.32561865 5.76062164 -1.59173995 6.10784228 -5.3125 5.125 C-6.199375 4.75375 -7.08625 4.3825 -8 4 C-7.38125 3.855625 -6.7625 3.71125 -6.125 3.5625 C-3.30202858 2.81524286 -2.09152419 2.09152419 0 0 Z " fill="#F9EFE4" transform="translate(230,36)"/>
<path d="M0 0 C3.57104439 1.87949705 5.54744301 3.17053157 7 7 C4.75 7.3125 4.75 7.3125 2 7 C-0.3125 4.5 -0.3125 4.5 -2 2 C-1.34 1.34 -0.68 0.68 0 0 Z " fill="#50236F" transform="translate(70,273)"/>
<path d="M0 0 C3.44517108 4.19412131 4.14140424 7.38451164 4.0625 12.75 C4.05347656 13.54921875 4.04445313 14.3484375 4.03515625 15.171875 C4.01775391 16.07679688 4.01775391 16.07679688 4 17 C3.67 17 3.34 17 3 17 C3 14.69 3 12.38 3 10 C2.34 10 1.68 10 1 10 C0.63883954 8.5225254 0.28624952 7.04295325 -0.0625 5.5625 C-0.25972656 4.73878906 -0.45695312 3.91507813 -0.66015625 3.06640625 C-0.82837891 2.04353516 -0.82837891 2.04353516 -1 1 C-0.67 0.67 -0.34 0.34 0 0 Z " fill="#6F4E80" transform="translate(317,250)"/>
<path d="M0 0 C0.74507813 0.00902344 1.49015625 0.01804688 2.2578125 0.02734375 C4.08868059 0.05081642 5.91938238 0.08668475 7.75 0.125 C7.75 0.455 7.75 0.785 7.75 1.125 C6.69039063 1.25777344 5.63078125 1.39054688 4.5390625 1.52734375 C3.15101721 1.70553875 1.76299769 1.8839346 0.375 2.0625 C-0.32367188 2.14951172 -1.02234375 2.23652344 -1.7421875 2.32617188 C-5.61783575 2.78818128 -5.61783575 2.78818128 -9.25 4.125 C-10.24 3.465 -11.23 2.805 -12.25 2.125 C-8.4084024 -0.44280471 -4.4360825 -0.10188882 0 0 Z " fill="#623F75" transform="translate(292.25,234.875)"/>
<path d="M0 0 C0.66 0 1.32 0 2 0 C1.73781251 4.4571874 1.42288711 6.51522698 -1.5625 9.9375 C-2.366875 10.618125 -3.17125 11.29875 -4 12 C-3.979375 11.21625 -3.95875 10.4325 -3.9375 9.625 C-3.81315937 7.01885039 -3.81315937 7.01885039 -5 5 C-3.35 5 -1.7 5 0 5 C0 3.35 0 1.7 0 0 Z " fill="#D55B24" transform="translate(64,226)"/>
<path d="M0 0 C0.66 0.66 1.32 1.32 2 2 C1.625 4.625 1.625 4.625 1 7 C1.66 7.33 2.32 7.66 3 8 C-1.41236026 8 -2.78384923 5.9302707 -6 3 C-6 2.67 -6 2.34 -6 2 C-4.02 1.34 -2.04 0.68 0 0 Z " fill="#FCE8D6" transform="translate(157,84)"/>
<path d="M0 0 C0 0.66 0 1.32 0 2 C3.63 2.33 7.26 2.66 11 3 C11 3.33 11 3.66 11 4 C4.35590042 4.21432579 -1.53205867 3.51233701 -8 2 C-4.91190305 0.23537317 -3.76687864 0 0 0 Z " fill="#7B5E8A" transform="translate(154,319)"/>
<path d="M0 0 C1.43088528 2.86177057 0.59991697 4.93375773 0 8 C0.66 8.33 1.32 8.66 2 9 C0.68 9.33 -0.64 9.66 -2 10 C-2 9.34 -2 8.68 -2 8 C-2.66 8 -3.32 8 -4 8 C-4 8.99 -4 9.98 -4 11 C-4.66 11 -5.32 11 -6 11 C-4.54955729 6.89041233 -2.48889248 3.56741255 0 0 Z " fill="#F9E5D4" transform="translate(63,234)"/>
<path d="M0 0 C-0.11398665 1.62580966 -0.24155659 3.25067157 -0.375 4.875 C-0.47941406 6.23238281 -0.47941406 6.23238281 -0.5859375 7.6171875 C-1 10 -1 10 -3 12 C-4.35 4.63636364 -4.35 4.63636364 -2.625 1.5 C-1 0 -1 0 0 0 Z " fill="#50226A" transform="translate(320,203)"/>
<path d="M0 0 C1.65 0.33 3.3 0.66 5 1 C4.67 2.65 4.34 4.3 4 6 C1.03 5.505 1.03 5.505 -2 5 C-2 4.34 -2 3.68 -2 3 C-1.34 3 -0.68 3 0 3 C0 2.01 0 1.02 0 0 Z " fill="#5A227C" transform="translate(156,174)"/>
<path d="M0 0 C2.97 0 5.94 0 9 0 C9 1.32 9 2.64 9 4 C6.03 3.67 3.06 3.34 0 3 C0 2.01 0 1.02 0 0 Z " fill="#E65408" transform="translate(196,72)"/>
<path d="M0 0 C2.32597511 0.3813074 4.65912158 0.72460254 7 1 C7 1.33 7 1.66 7 2 C5.27119018 2.05449838 3.54187288 2.09301688 1.8125 2.125 C0.84957031 2.14820313 -0.11335938 2.17140625 -1.10546875 2.1953125 C-4.12812778 1.9913544 -6.26769985 1.26874632 -9 0 C-5.31518667 -2.45654222 -3.90425338 -1.72513521 0 0 Z " fill="#755185" transform="translate(291,290)"/>
<path d="M0 0 C2.45406016 2.45406016 2.38381215 3.5471488 2.6875 6.9375 C2.77386719 7.81277344 2.86023438 8.68804687 2.94921875 9.58984375 C3 12 3 12 2 15 C1.34 15 0.68 15 0 15 C0 10.05 0 5.1 0 0 Z " fill="#55227A" transform="translate(316,253)"/>
<path d="M0 0 C0 0.66 0 1.32 0 2 C1.32 2.33 2.64 2.66 4 3 C2.39658445 3.33692785 0.79223445 3.66941093 -0.8125 4 C-1.70582031 4.185625 -2.59914062 4.37125 -3.51953125 4.5625 C-6 5 -6 5 -9 5 C-6.3784932 1.13015663 -4.82784953 0 0 0 Z " fill="#592F70" transform="translate(216,246)"/>
<path d="M0 0 C0.99 0 1.98 0 3 0 C2.46884894 4.51478398 0.63379708 7.34666857 -2 11 C-2.33 10.01 -2.66 9.02 -3 8 C-2.34 8 -1.68 8 -1 8 C-1.020625 6.865625 -1.04125 5.73125 -1.0625 4.5625 C-1 1 -1 1 0 0 Z " fill="#FDEAD7" transform="translate(228,126)"/>
<path d="M0 0 C3.63 1.65 7.26 3.3 11 5 C10.67 5.66 10.34 6.32 10 7 C9.34 6.67 8.68 6.34 8 6 C7.01 5.9175 6.02 5.835 5 5.75 C4.01 5.5025 3.02 5.255 2 5 C1.34 3.35 0.68 1.7 0 0 Z " fill="#552F6E" transform="translate(95,296)"/>
<path d="M0 0 C4.72463088 0.46319911 8.17057052 1.09891706 12 4 C12 4.66 12 5.32 12 6 C7.76570244 4.68938409 3.92592596 3.05643741 0 1 C0 0.67 0 0.34 0 0 Z " fill="#F7DAC5" transform="translate(239,46)"/>
<path d="M0 0 C1.4589426 0.47730838 2.91713496 0.95691042 4.375 1.4375 C5.18710938 1.70433594 5.99921875 1.97117187 6.8359375 2.24609375 C9 3 9 3 11 4 C10 5 10 5 7.1875 5.1875 C4.13301456 5.00782439 2.56204656 4.57664404 0 3 C0 2.01 0 1.02 0 0 Z " fill="#582D6C" transform="translate(130,313)"/>
<path d="M0 0 C2.2751756 2.20642029 3.90218833 3.98101792 5 7 C4.625 9.25 4.625 9.25 4 11 C1 9 1 9 0.48828125 6.8359375 C0.43027344 6.02382812 0.37226563 5.21171875 0.3125 4.375 C0.24675781 3.55773437 0.18101562 2.74046875 0.11328125 1.8984375 C0.07589844 1.27195312 0.03851563 0.64546875 0 0 Z " fill="#E45824" transform="translate(273,78)"/>
<path d="M0 0 C6.26079448 -0.43177893 9.09075703 0.07260562 14 4 C12 5 12 5 9.1796875 4.22265625 C8.08914062 3.83980469 6.99859375 3.45695312 5.875 3.0625 C4.77929688 2.68222656 3.68359375 2.30195312 2.5546875 1.91015625 C1.71164063 1.60980469 0.86859375 1.30945313 0 1 C0 0.67 0 0.34 0 0 Z " fill="#D66839" transform="translate(194,75)"/>
<path d="M0 0 C0.33 1.32 0.66 2.64 1 4 C0.01 4.33 -0.98 4.66 -2 5 C-2 5.99 -2 6.98 -2 8 C-3.65 8.66 -5.3 9.32 -7 10 C-5.33248852 6.05860922 -2.77289351 3.2107188 0 0 Z " fill="#FBE4CE" transform="translate(80,212)"/>
<path d="M0 0 C0 1.32 0 2.64 0 4 C-5.75 5.125 -5.75 5.125 -8 4 C-5.29881977 1.17603885 -4.05589853 0 0 0 Z " fill="#522C66" transform="translate(156,173)"/>
<path d="M0 0 C0.66 0.33 1.32 0.66 2 1 C2 4.3 2 7.6 2 11 C1.34 11 0.68 11 0 11 C-0.19491452 9.54263913 -0.38069358 8.08405407 -0.5625 6.625 C-0.66691406 5.81289062 -0.77132813 5.00078125 -0.87890625 4.1640625 C-1 2 -1 2 0 0 Z " fill="#572E69" transform="translate(318,145)"/>
<path d="M0 0 C0 0.66 0 1.32 0 2 C-0.639375 2.268125 -1.27875 2.53625 -1.9375 2.8125 C-4.33131686 3.88667752 -4.33131686 3.88667752 -5 7 C-6.98 7 -8.96 7 -11 7 C-4.48275862 0 -4.48275862 0 0 0 Z " fill="#CC6032" transform="translate(103,52)"/>
<path d="M0 0 C0.66 0.33 1.32 0.66 2 1 C1.01 1.33 0.02 1.66 -1 2 C-1 2.66 -1 3.32 -1 4 C-7.96428571 6.27678571 -7.96428571 6.27678571 -12 5 C-10.04578965 4.13644222 -8.08648653 3.28440066 -6.125 2.4375 C-5.03445312 1.96183594 -3.94390625 1.48617187 -2.8203125 0.99609375 C-1.88960937 0.66738281 -0.95890625 0.33867188 0 0 Z " fill="#C75F34" transform="translate(127,40)"/>
<path d="M0 0 C-0.33 0.66 -0.66 1.32 -1 2 C-1.7425 1.814375 -2.485 1.62875 -3.25 1.4375 C-5.94990963 1.00796892 -7.44631077 1.14877026 -10 2 C-9.67 1.01 -9.34 0.02 -9 -1 C-5.79937313 -2.60031344 -3.27728194 -1.03173691 0 0 Z " fill="#5A2C72" transform="translate(130,311)"/>
<path d="M0 0 C1.32 0 2.64 0 4 0 C3.01 2.97 2.02 5.94 1 9 C0.34 9 -0.32 9 -1 9 C-0.67 6.03 -0.34 3.06 0 0 Z " fill="#F2E6F4" transform="translate(61,261)"/>
<path d="M0 0 C3 3.75 3 3.75 3 6 C4.32 5.01 5.64 4.02 7 3 C6.67 5.31 6.34 7.62 6 10 C3.54896452 9.01958581 2.23241214 8.3486182 0.75 6.125 C0 4 0 4 0 0 Z " fill="#F7ECD6" transform="translate(47,247)"/>
<path d="M0 0 C0.33 0.99 0.66 1.98 1 3 C-0.98 4.32 -2.96 5.64 -5 7 C-5.66 6.67 -6.32 6.34 -7 6 C-7 5.34 -7 4.68 -7 4 C-5.68 3.67 -4.36 3.34 -3 3 C-3 2.34 -3 1.68 -3 1 C-2.01 0.67 -1.02 0.34 0 0 Z " fill="#55276F" transform="translate(269,222)"/>
<path d="M0 0 C0.99 0.33 1.98 0.66 3 1 C3 2.98 3 4.96 3 7 C2.01 7.495 2.01 7.495 1 8 C1 6.68 1 5.36 1 4 C-0.32 3.34 -1.64 2.68 -3 2 C-2.01 1.34 -1.02 0.68 0 0 Z " fill="#572168" transform="translate(162,169)"/>
<path d="M0 0 C4.99275057 1.27721526 7.57611908 3.17330957 11 7 C10.01 7 9.02 7 8 7 C8 6.34 8 5.68 8 5 C7.13375 4.814375 7.13375 4.814375 6.25 4.625 C3.97664233 3.99351176 2.0746471 3.11141809 0 2 C0 1.34 0 0.68 0 0 Z " fill="#CA5A38" transform="translate(74,73)"/>
<path d="M0 0 C0.33 0 0.66 0 1 0 C1.33 5.61 1.66 11.22 2 17 C1.01 16.67 0.02 16.34 -1 16 C-0.67 10.72 -0.34 5.44 0 0 Z " fill="#684579" transform="translate(257,195)"/>
<path d="M0 0 C0.66 0 1.32 0 2 0 C1.40716379 3.39192363 0.23256811 5.2107757 -2.0625 7.75 C-2.61035156 8.36359375 -3.15820312 8.9771875 -3.72265625 9.609375 C-4.14417969 10.06828125 -4.56570312 10.5271875 -5 11 C-5.33 10.01 -5.66 9.02 -6 8 C-5.195625 7.236875 -4.39125 6.47375 -3.5625 5.6875 C-0.83200976 3.20569102 -0.83200976 3.20569102 0 0 Z " fill="#CD5F2E" transform="translate(86,201)"/>
<path d="M0 0 C0.33 0.99 0.66 1.98 1 3 C0.360625 3.28875 -0.27875 3.5775 -0.9375 3.875 C-3.15206079 4.82823451 -3.15206079 4.82823451 -4 7 C-5.65 7 -7.3 7 -9 7 C-6.3765992 4.08511023 -3.28183606 2.11496102 0 0 Z " fill="#FDE5D1" transform="translate(131,168)"/>
<path d="M0 0 C1.65 0 3.3 0 5 0 C2.45543849 2.96865509 -0.48994665 4.3619751 -4 6 C-4 4.68 -4 3.36 -4 2 C-2.68 2 -1.36 2 0 2 C0 1.34 0 0.68 0 0 Z " fill="#CF5D29" transform="translate(134,163)"/>
<path d="M0 0 C-1.12073862 0.83905565 -2.24674547 1.67107831 -3.375 2.5 C-4.00148437 2.9640625 -4.62796875 3.428125 -5.2734375 3.90625 C-7 5 -7 5 -9 5 C-9 4.01 -9 3.02 -9 2 C-5.62638617 -0.62392187 -4.03085709 -1.27471549 0 0 Z " fill="#FDE6CF" transform="translate(217,146)"/>
<path d="M0 0 C3 1 3 1 4.203125 2.70703125 C4.54859375 3.40183594 4.8940625 4.09664063 5.25 4.8125 C5.60578125 5.49957031 5.9615625 6.18664062 6.328125 6.89453125 C7.11193544 9.35077442 6.84119973 10.60042386 6 13 C5.18501438 11.3970947 4.37310073 9.79262722 3.5625 8.1875 C3.11003906 7.29417969 2.65757812 6.40085937 2.19140625 5.48046875 C1 3 1 3 0 0 Z " fill="#C4643B" transform="translate(225,91)"/>
<path d="M0 0 C1.8871875 0.061875 1.8871875 0.061875 3.8125 0.125 C3.8125 1.115 3.8125 2.105 3.8125 3.125 C2.45125 3.0940625 2.45125 3.0940625 1.0625 3.0625 C-1.61422588 3.1139755 -3.65738052 3.3465017 -6.1875 4.125 C-6.5175 3.465 -6.8475 2.805 -7.1875 2.125 C-4.09861478 0.06574319 -3.47814073 -0.1140374 0 0 Z " fill="#DB470B" transform="translate(133.1875,39.875)"/>
<path d="M0 0 C2.64465038 3.1254959 3.84414715 6.08788267 5 10 C4.01 10 3.02 10 2 10 C-0.09350689 6.5980513 -0.17942163 3.94727588 0 0 Z " fill="#F6DECC" transform="translate(42,237)"/>
<path d="M0 0 C1.65 0.33 3.3 0.66 5 1 C3.35 2.65 1.7 4.3 0 6 C-0.66 5.34 -1.32 4.68 -2 4 C-1.34 2.68 -0.68 1.36 0 0 Z " fill="#F6ECF3" transform="translate(119,190)"/>
<path d="M0 0 C6.15234375 0.5859375 6.15234375 0.5859375 8 1 C8.33 1.66 8.66 2.32 9 3 C9.99 3.66 10.98 4.32 12 5 C7.25081338 4.53439347 3.89217595 3.83067342 0 1 C0 0.67 0 0.34 0 0 Z " fill="#F9DCC3" transform="translate(42,137)"/>
<path d="M0 0 C0.99 0 1.98 0 3 0 C4.0625 1.8125 4.0625 1.8125 5 4 C4.67 4.99 4.34 5.98 4 7 C2.02 5.35 0.04 3.7 -2 2 C-1.34 1.34 -0.68 0.68 0 0 Z " fill="#F9EED6" transform="translate(82,74)"/>
<path d="M0 0 C0.66 0.33 1.32 0.66 2 1 C1.67 1.66 1.34 2.32 1 3 C2.32 3 3.64 3 5 3 C5.33 4.65 5.66 6.3 6 8 C2.42895561 6.12050295 0.45255699 4.82946843 -1 1 C-0.67 0.67 -0.34 0.34 0 0 Z " fill="#CF6334" transform="translate(90,59)"/>
<path d="M0 0 C1.50433594 0.29197266 1.50433594 0.29197266 3.0390625 0.58984375 C4.19535156 0.82380859 4.19535156 0.82380859 5.375 1.0625 C5.375 1.3925 5.375 1.7225 5.375 2.0625 C3.95876784 2.11697047 2.54191809 2.15550508 1.125 2.1875 C0.33609375 2.21070313 -0.4528125 2.23390625 -1.265625 2.2578125 C-3.83231941 2.0453378 -5.4166067 1.34904105 -7.625 0.0625 C-4.81015955 -1.34492022 -3.05563887 -0.60402164 0 0 Z " fill="#CB5A2A" transform="translate(204.625,34.9375)"/>
<path d="M0 0 C0.66 0.33 1.32 0.66 2 1 C3.32860925 1.35169068 4.66158328 1.68770276 6 2 C5.67 3.65 5.34 5.3 5 7 C2.49642808 5.74821404 0.93566621 4.00018842 -1 2 C-0.67 1.34 -0.34 0.68 0 0 Z " fill="#56276F" transform="translate(108,301)"/>
<path d="M0 0 C1.98 0.495 1.98 0.495 4 1 C4 2.65 4 4.3 4 6 C2.35 5.67 0.7 5.34 -1 5 C-0.67 3.35 -0.34 1.7 0 0 Z " fill="#552175" transform="translate(244,230)"/>
<path d="M0 0 C-1.04874998 2.62187494 -1.64931313 3.79371361 -4.125 5.25 C-4.74375 5.4975 -5.3625 5.745 -6 6 C-6.33 5.01 -6.66 4.02 -7 3 C-3.375 0 -3.375 0 0 0 Z " fill="#55236F" transform="translate(147,179)"/>
<path d="M0 0 C0.33 0.99 0.66 1.98 1 3 C-4.2734375 6.22265625 -4.2734375 6.22265625 -6 7 C-6.66 6.67 -7.32 6.34 -8 6 C-5.36 4.02 -2.72 2.04 0 0 Z " fill="#FDE4CC" transform="translate(121,175)"/>
<path d="M0 0 C3.7910119 1.44950455 7.3874638 3.15172566 11 5 C10.67 5.66 10.34 6.32 10 7 C8.02 6.34 6.04 5.68 4 5 C4 4.34 4 3.68 4 3 C2.68 2.34 1.36 1.68 0 1 C0 0.67 0 0.34 0 0 Z " fill="#FBD7C4" transform="translate(231,165)"/>
<path d="M0 0 C-3.36423277 2.96052484 -6.69159287 3.92289822 -11 5 C-11.33 4.34 -11.66 3.68 -12 3 C-10.68 3 -9.36 3 -8 3 C-8 2.34 -8 1.68 -8 1 C-5.07175348 0.02391783 -3.04386724 -0.08226668 0 0 Z " fill="#D45C2A" transform="translate(150,158)"/>
<path d="M0 0 C0 0.66 0 1.32 0 2 C-5.625 5 -5.625 5 -9 5 C-8.67 4.01 -8.34 3.02 -8 2 C-5.10441559 0.5522078 -3.25811062 0 0 0 Z " fill="#D35D22" transform="translate(80,122)"/>
<path d="M0 0 C2.16796875 0.92578125 2.16796875 0.92578125 4 2 C2.71086513 2.67154933 1.41859796 3.33708859 0.125 4 C-0.59429687 4.37125 -1.31359375 4.7425 -2.0546875 5.125 C-4 6 -4 6 -6 6 C-5 3 -5 3 -2.6875 1.1875 C-1.800625 0.795625 -0.91375 0.40375 0 0 Z " fill="#FCE2D1" transform="translate(105,47)"/>
<path d="M0 0 C0.33 0.66 0.66 1.32 1 2 C2.65 2 4.3 2 6 2 C6 2.99 6 3.98 6 5 C3.23723823 4.47731534 0.6739124 3.89130413 -2 3 C-2 2.34 -2 1.68 -2 1 C-1.34 0.67 -0.68 0.34 0 0 Z " fill="#654276" transform="translate(124,311)"/>
<path d="M0 0 C0.99 0.66 1.98 1.32 3 2 C-1.22949995 4.41685712 -4.12335991 5.34833144 -9 5 C-6.29462171 2.29462171 -3.58833566 1.25906514 0 0 Z " fill="#5A2074" transform="translate(221,311)"/>
<path d="M0 0 C0.5625 1.9375 0.5625 1.9375 1 4 C0 5 0 5 -3.0625 5.0625 C-4.5165625 5.0315625 -4.5165625 5.0315625 -6 5 C-2.25 1.125 -2.25 1.125 0 0 Z " fill="#52266D" transform="translate(245,300)"/>
<path d="M0 0 C2.97 0.33 5.94 0.66 9 1 C7.515 2.485 7.515 2.485 6 4 C2.8125 3.6875 2.8125 3.6875 0 3 C0 2.01 0 1.02 0 0 Z " fill="#572B6E" transform="translate(88,292)"/>
<path d="M0 0 C4.95 1.98 4.95 1.98 10 4 C10 4.33 10 4.66 10 5 C6.05272412 5.17942163 3.4019487 5.09350689 0 3 C0 2.01 0 1.02 0 0 Z " fill="#F8ECF9" transform="translate(277,287)"/>
<path d="M0 0 C0.99 0.33 1.98 0.66 3 1 C3.625 3.3125 3.625 3.3125 4 6 C3.01 7.485 3.01 7.485 2 9 C0.50178941 5.62902617 0 3.79557881 0 0 Z " fill="#DD5001" transform="translate(48,239)"/>
<path d="M0 0 C0.8353125 0.556875 0.8353125 0.556875 1.6875 1.125 C-4.0625 4.125 -4.0625 4.125 -6.3125 4.125 C-6.6425 3.135 -6.9725 2.145 -7.3125 1.125 C-2.88173077 -1.09038462 -2.88173077 -1.09038462 0 0 Z " fill="#F3E6F7" transform="translate(228.3125,238.875)"/>
<path d="M0 0 C0.66 1.32 1.32 2.64 2 4 C1.01 5.485 1.01 5.485 0 7 C-0.99 6.67 -1.98 6.34 -3 6 C-1.125 1.125 -1.125 1.125 0 0 Z " fill="#5B237A" transform="translate(95,221)"/>
<path d="M0 0 C-1.8125 2 -1.8125 2 -4 4 C-4.99 4 -5.98 4 -7 4 C-7.33 2.68 -7.66 1.36 -8 0 C-4.71303767 -0.79953138 -3.28976808 -1.09658936 0 0 Z " fill="#DE552E" transform="translate(258,160)"/>
<path d="M0 0 C1 3 1 3 -0.25 5.6875 C-0.8275 6.450625 -1.405 7.21375 -2 8 C-2.99 8 -3.98 8 -5 8 C-5 7.34 -5 6.68 -5 6 C-4.34 6 -3.68 6 -3 6 C-3 4.68 -3 3.36 -3 2 C-2.01 2 -1.02 2 0 2 C0 1.34 0 0.68 0 0 Z " fill="#8D3353" transform="translate(269,146)"/>
<path d="M0 0 C0.91447302 3.08634644 1.32154416 5.78455841 1 9 C0.04157871 10.36352719 -0.95482149 11.70177827 -2 13 C-1.85915204 11.20793453 -1.71216299 9.41635083 -1.5625 7.625 C-1.48128906 6.62726563 -1.40007812 5.62953125 -1.31640625 4.6015625 C-1 2 -1 2 0 0 Z " fill="#6D2771" transform="translate(274,138)"/>
<path d="M0 0 C0.66 0 1.32 0 2 0 C1.71758359 1.46015291 1.42373386 2.91809793 1.125 4.375 C0.96257812 5.18710938 0.80015625 5.99921875 0.6328125 6.8359375 C0 9 0 9 -2 11 C-1.85957123 9.35369672 -1.71250671 7.70795821 -1.5625 6.0625 C-1.48128906 5.14597656 -1.40007812 4.22945313 -1.31640625 3.28515625 C-1 1 -1 1 0 0 Z " fill="#D95538" transform="translate(278,121)"/>
<path d="M0 0 C0.33 1.32 0.66 2.64 1 4 C0.01 4.33 -0.98 4.66 -2 5 C-3.20882096 7.00016466 -3.20882096 7.00016466 -4 9 C-4.99 9 -5.98 9 -7 9 C-4.69 6.03 -2.38 3.06 0 0 Z " fill="#F8D4C0" transform="translate(89,113)"/>
<path d="M0 0 C0.66 1.32 1.32 2.64 2 4 C1.01 4.99 0.02 5.98 -1 7 C-1.99 5.02 -2.98 3.04 -4 1 C-2.68 0.67 -1.36 0.34 0 0 Z " fill="#F1EEF6" transform="translate(304,99)"/>
<path d="M0 0 C0 1.32 0 2.64 0 4 C-2.64 4.33 -5.28 4.66 -8 5 C-3.16129032 0 -3.16129032 0 0 0 Z " fill="#CB6036" transform="translate(54,73)"/>
<path d="M0 0 C1.98 0.99 1.98 0.99 4 2 C4 4.97 4 7.94 4 11 C3.34 9.68 2.68 8.36 2 7 C1.34 6.01 0.68 5.02 0 4 C0 2.68 0 1.36 0 0 Z " fill="#E3510A" transform="translate(102,68)"/>
<path d="M0 0 C0.99 0.66 1.98 1.32 3 2 C3 2.66 3 3.32 3 4 C0.69 4.33 -1.62 4.66 -4 5 C-2.68 3.35 -1.36 1.7 0 0 Z " fill="#552371" transform="translate(201,316)"/>
<path d="M0 0 C0.33 0 0.66 0 1 0 C1 1.98 1 3.96 1 6 C0.01 6.33 -0.98 6.66 -2 7 C-2 7.66 -2 8.32 -2 9 C-2.66 8.67 -3.32 8.34 -4 8 C-2.68 5.36 -1.36 2.72 0 0 Z " fill="#5A336E" transform="translate(66,259)"/>
<path d="M0 0 C0.66 0 1.32 0 2 0 C1.67 2.31 1.34 4.62 1 7 C0.01 7.33 -0.98 7.66 -2 8 C-1.125 2.25 -1.125 2.25 0 0 Z " fill="#55266A" transform="translate(269,248)"/>
<path d="M0 0 C0.66 0 1.32 0 2 0 C0.79157144 4.43090471 -0.51668565 6.98112756 -4 10 C-3.52449439 8.51965236 -3.04448784 7.04074979 -2.5625 5.5625 C-2.29566406 4.73878906 -2.02882813 3.91507813 -1.75390625 3.06640625 C-1 1 -1 1 0 0 Z " fill="#C45040" transform="translate(274,134)"/>
<path d="M0 0 C2.79872437 2.52788007 4.45773019 4.20411134 5 8 C3.68 7.67 2.36 7.34 1 7 C0.67 4.69 0.34 2.38 0 0 Z " fill="#D2693F" transform="translate(85,80)"/>
<path d="M0 0 C-3.2678206 2.17854707 -6.38058265 3.49760034 -10 5 C-9.6875 3.0625 -9.6875 3.0625 -9 1 C-5.8035914 -0.06546953 -3.34252724 -0.07427838 0 0 Z " fill="#FEE0D0" transform="translate(58,71)"/>
<path d="M0 0 C2.15377564 2.62198774 3.40072174 4.64404172 4 8 C2.68 7.67 1.36 7.34 0 7 C0 4.69 0 2.38 0 0 Z " fill="#FADBC3" transform="translate(38,228)"/>
<path d="M0 0 C1.125 1.75 1.125 1.75 2 4 C1.125 6.25 1.125 6.25 0 8 C-0.99 8 -1.98 8 -3 8 C-2.690625 7.236875 -2.38125 6.47375 -2.0625 5.6875 C-1.32106407 3.81210323 -0.63771783 1.91315348 0 0 Z " fill="#5B376E" transform="translate(254,214)"/>
<path d="M0 0 C2.05078125 0.03255208 4.1015625 0.06510417 6.15234375 0.09765625 C6.15234375 0.75765625 6.15234375 1.41765625 6.15234375 2.09765625 C2.77734375 2.72265625 2.77734375 2.72265625 -0.84765625 3.09765625 C-1.50765625 2.43765625 -2.16765625 1.77765625 -2.84765625 1.09765625 C-1.84765625 0.09765625 -1.84765625 0.09765625 0 0 Z " fill="#EA5504" transform="translate(217.84765625,149.90234375)"/>
<path d="M0 0 C-0.5625 1.9375 -0.5625 1.9375 -2 4 C-5.625 4.75 -5.625 4.75 -9 5 C-2.87096774 0 -2.87096774 0 0 0 Z " fill="#D1633A" transform="translate(215,148)"/>
<path d="M0 0 C0.99 0 1.98 0 3 0 C3 0.99 3 1.98 3 3 C1.35 3.33 -0.3 3.66 -2 4 C-2 4.66 -2 5.32 -2 6 C-2.66 5.67 -3.32 5.34 -4 5 C-2.1875 2.5 -2.1875 2.5 0 0 Z " fill="#DC6537" transform="translate(226,136)"/>
<path d="M0 0 C1.5625 1.6875 1.5625 1.6875 3 4 C2.6875 6.75 2.6875 6.75 2 9 C0.05276405 6.07914607 -0.55175352 4.40667322 -1 1 C-0.67 0.67 -0.34 0.34 0 0 Z " fill="#522969" transform="translate(312,126)"/>
<path d="M0 0 C0.33 0.99 0.66 1.98 1 3 C-0.65 4.65 -2.3 6.3 -4 8 C-4 4.09161134 -2.49432124 2.88405893 0 0 Z " fill="#C9663E" transform="translate(45,78)"/>
<path d="M0 0 C2.96175123 0.61277612 4.38058783 1.25372522 7 3 C5.02 3.66 3.04 4.32 1 5 C0.67 3.35 0.34 1.7 0 0 Z " fill="#F6EAF9" transform="translate(113,310)"/>
<path d="M0 0 C2.15377564 2.62198774 3.40072174 4.64404172 4 8 C3.01 8.33 2.02 8.66 1 9 C0.67 6.03 0.34 3.06 0 0 Z " fill="#633A77" transform="translate(252,278)"/>
<path d="M0 0 C2.00720923 0.28674418 4.0085944 0.61866701 6 1 C3.64046906 3.35953094 2.22104383 3.49141413 -1 4 C-1 1 -1 1 0 0 Z " fill="#512071" transform="translate(233,238)"/>
<path d="M0 0 C0.99 0 1.98 0 3 0 C1.7508258 3.45925163 0.32472205 6.14693203 -2 9 C-1.34 6.03 -0.68 3.06 0 0 Z " fill="#CA642F" transform="translate(57,238)"/>
<path d="M0 0 C0.99 0.33 1.98 0.66 3 1 C1.95125002 3.62187494 1.35068687 4.79371361 -1.125 6.25 C-1.74375 6.4975 -2.3625 6.745 -3 7 C-3 6.01 -3 5.02 -3 4 C-2.01 4 -1.02 4 0 4 C0 2.68 0 1.36 0 0 Z " fill="#FBE6D8" transform="translate(220,138)"/>
<path d="M0 0 C1.68762851 1.6454378 3.3540349 3.31288577 5 5 C5 5.33 5 5.66 5 6 C3.35 6 1.7 6 0 6 C0 4.02 0 2.04 0 0 Z " fill="#FAE6D1" transform="translate(94,66)"/>
<path d="M0 0 C-3.8503105 2.56687367 -5.58569763 1.83288724 -10 1 C-6.42181037 -1.33958553 -4.07775191 -0.9267618 0 0 Z " fill="#D15D31" transform="translate(156,35)"/>
</svg>
