<svg width="51" height="51" viewBox="0 0 51 51" fill="none" xmlns="http://www.w3.org/2000/svg">
<rect x="1.39218" y="0.557129" width="49" height="49" fill="white" stroke="black"/>
<mask id="path-2-inside-1_108_300" fill="white">
<path d="M46.1678 29.3872H26.1199V29.3472L6.59354 27.3335V23.3071L26.1199 20.9819V20.937H46.1678V29.3872Z"/>
</mask>
<path d="M46.1678 29.3872H26.1199V29.3472L6.59354 27.3335V23.3071L26.1199 20.9819V20.937H46.1678V29.3872Z" fill="#2FAA96"/>
<path d="M46.1678 29.3872V30.3872H47.1678V29.3872H46.1678ZM26.1199 29.3872H25.1199V30.3872H26.1199V29.3872ZM26.1199 29.3472H27.1199V28.445L26.2225 28.3524L26.1199 29.3472ZM6.59354 27.3335H5.59354V28.2357L6.49095 28.3282L6.59354 27.3335ZM6.59354 23.3071L6.47529 22.3141L5.59354 22.4191V23.3071H6.59354ZM26.1199 20.9819L26.2381 21.9749L27.1199 21.8699V20.9819H26.1199ZM26.1199 20.937V19.937H25.1199V20.937H26.1199ZM46.1678 20.937H47.1678V19.937H46.1678V20.937ZM46.1678 29.3872V28.3872H26.1199V29.3872V30.3872H46.1678V29.3872ZM26.1199 29.3872H27.1199V29.3472H26.1199H25.1199V29.3872H26.1199ZM26.1199 29.3472L26.2225 28.3524L6.69612 26.3388L6.59354 27.3335L6.49095 28.3282L26.0173 30.3419L26.1199 29.3472ZM6.59354 27.3335H7.59354V23.3071H6.59354H5.59354V27.3335H6.59354ZM6.59354 23.3071L6.71178 24.3001L26.2381 21.9749L26.1199 20.9819L26.0017 19.9889L6.47529 22.3141L6.59354 23.3071ZM26.1199 20.9819H27.1199V20.937H26.1199H25.1199V20.9819H26.1199ZM26.1199 20.937V21.937H46.1678V20.937V19.937H26.1199V20.937ZM46.1678 20.937H45.1678V29.3872H46.1678H47.1678V20.937H46.1678Z" fill="black" mask="url(#path-2-inside-1_108_300)"/>
<rect x="1.39218" y="0.557129" width="49" height="49" fill="white" stroke="black"/>
<path d="M6.89452 20.1376L1.27286 20.1595" stroke="black"/>
<path d="M50.5632 20.1929L44.9497 20.1831" stroke="black"/>
<path d="M50.6073 31.2183H44.9494" stroke="black"/>
<mask id="path-8-inside-2_108_300" fill="white">
<path d="M30.3226 15.9736L45.6791 16.8164V23.2051L30.3226 24.4082V24.418H22.1273V24.4111L6.10486 22.3643V18.3379L22.1273 15.9746V15.9678H30.3226V15.9736Z"/>
</mask>
<path d="M30.3226 15.9736L45.6791 16.8164V23.2051L30.3226 24.4082V24.418H22.1273V24.4111L6.10486 22.3643V18.3379L22.1273 15.9746V15.9678H30.3226V15.9736Z" fill="#2FAA96"/>
<path d="M30.3226 15.9736H29.3226V16.9203L30.2678 16.9721L30.3226 15.9736ZM45.6791 16.8164H46.6791V15.8698L45.7339 15.8179L45.6791 16.8164ZM45.6791 23.2051L45.7572 24.202L46.6791 24.1298V23.2051H45.6791ZM30.3226 24.4082L30.2445 23.4113L29.3226 23.4835V24.4082H30.3226ZM30.3226 24.418V25.418H31.3226V24.418H30.3226ZM22.1273 24.418H21.1273V25.418H22.1273V24.418ZM22.1273 24.4111H23.1273V23.5308L22.254 23.4192L22.1273 24.4111ZM6.10486 22.3643H5.10486V23.2446L5.97814 23.3562L6.10486 22.3643ZM6.10486 18.3379L5.95894 17.3486L5.10486 17.4746V18.3379H6.10486ZM22.1273 15.9746L22.2732 16.9639L23.1273 16.8379V15.9746H22.1273ZM22.1273 15.9678V14.9678H21.1273V15.9678H22.1273ZM30.3226 15.9678H31.3226V14.9678H30.3226V15.9678ZM30.3226 15.9736L30.2678 16.9721L45.6243 17.8149L45.6791 16.8164L45.7339 15.8179L30.3774 14.9751L30.3226 15.9736ZM45.6791 16.8164H44.6791V23.2051H45.6791H46.6791V16.8164H45.6791ZM45.6791 23.2051L45.601 22.2081L30.2445 23.4113L30.3226 24.4082L30.4007 25.4051L45.7572 24.202L45.6791 23.2051ZM30.3226 24.4082H29.3226V24.418H30.3226H31.3226V24.4082H30.3226ZM30.3226 24.418V23.418H22.1273V24.418V25.418H30.3226V24.418ZM22.1273 24.418H23.1273V24.4111H22.1273H21.1273V24.418H22.1273ZM22.1273 24.4111L22.254 23.4192L6.23158 21.3723L6.10486 22.3643L5.97814 23.3562L22.0006 25.4031L22.1273 24.4111ZM6.10486 22.3643H7.10486V18.3379H6.10486H5.10486V22.3643H6.10486ZM6.10486 18.3379L6.25078 19.3272L22.2732 16.9639L22.1273 15.9746L21.9814 14.9853L5.95894 17.3486L6.10486 18.3379ZM22.1273 15.9746H23.1273V15.9678H22.1273H21.1273V15.9746H22.1273ZM22.1273 15.9678V16.9678H30.3226V15.9678V14.9678H22.1273V15.9678ZM30.3226 15.9678H29.3226V15.9736H30.3226H31.3226V15.9678H30.3226Z" fill="black" mask="url(#path-8-inside-2_108_300)"/>
<mask id="path-10-outside-3_108_300" maskUnits="userSpaceOnUse" x="24.5366" y="25.3027" width="21" height="8" fill="black">
<rect fill="white" x="24.5366" y="25.3027" width="21" height="8"/>
<path d="M29.0112 28.999L25.6704 28.999L25.6704 26.8027L29.9575 26.8027L33.2339 30.0801L44.5366 30.0801L44.5366 32.3027L32.3139 32.3027L29.0112 28.999Z"/>
</mask>
<path d="M29.0112 28.999L25.6704 28.999L25.6704 26.8027L29.9575 26.8027L33.2339 30.0801L44.5366 30.0801L44.5366 32.3027L32.3139 32.3027L29.0112 28.999Z" fill="#2FAA96"/>
<path d="M29.0112 28.999L29.7184 28.292L29.4255 27.999L29.0112 27.999L29.0112 28.999ZM25.6704 28.999L24.6704 28.999L24.6704 29.999L25.6704 29.999L25.6704 28.999ZM25.6704 26.8027L25.6704 25.8027L24.6704 25.8027L24.6704 26.8027L25.6704 26.8027ZM29.9575 26.8027L30.6647 26.0957L30.3718 25.8027L29.9575 25.8027L29.9575 26.8027ZM33.2339 30.0801L32.5266 30.7871L32.8196 31.0801L33.2339 31.0801L33.2339 30.0801ZM44.5366 30.0801L45.5366 30.0801L45.5366 29.0801L44.5366 29.0801L44.5366 30.0801ZM44.5366 32.3027L44.5366 33.3027L45.5366 33.3027L45.5366 32.3027L44.5366 32.3027ZM32.3139 32.3027L31.6067 33.0097L31.8996 33.3027L32.3139 33.3027L32.3139 32.3027ZM29.0112 28.999L29.0112 27.999L25.6704 27.999L25.6704 28.999L25.6704 29.999L29.0112 29.999L29.0112 28.999ZM25.6704 28.999L26.6704 28.999L26.6704 26.8027L25.6704 26.8027L24.6704 26.8027L24.6704 28.999L25.6704 28.999ZM25.6704 26.8027L25.6704 27.8027L29.9575 27.8027L29.9575 26.8027L29.9575 25.8027L25.6704 25.8027L25.6704 26.8027ZM29.9575 26.8027L29.2503 27.5097L32.5266 30.7871L33.2339 30.0801L33.9411 29.3731L30.6647 26.0957L29.9575 26.8027ZM33.2339 30.0801L33.2339 31.0801L44.5366 31.0801L44.5366 30.0801L44.5366 29.0801L33.2339 29.0801L33.2339 30.0801ZM44.5366 30.0801L43.5366 30.0801L43.5366 32.3027L44.5366 32.3027L45.5366 32.3027L45.5366 30.0801L44.5366 30.0801ZM44.5366 32.3027L44.5366 31.3027L32.3139 31.3027L32.3139 32.3027L32.3139 33.3027L44.5366 33.3027L44.5366 32.3027ZM32.3139 32.3027L33.0211 31.5957L29.7184 28.292L29.0112 28.999L28.304 29.706L31.6067 33.0097L32.3139 32.3027Z" fill="black" mask="url(#path-10-outside-3_108_300)"/>
</svg>
