# https://github.com/mikedh/trimesh
mtllib material.mtl
usemtl material_0
v -0.13542305 0.04733847 0.08724894
v -0.08437630 -0.06934726 0.08978267
v -0.02351153 -0.03129239 0.31344805
v -0.05517136 0.05630192 0.37123356
v -0.13542305 0.04733847 0.08724894
v -0.05517136 0.05630192 0.37123356
v -0.02351153 0.14389623 0.31344805
v -0.08376770 0.16371516 0.08476566
v -0.16625040 -0.02571250 -0.44765721
v -0.12116509 0.08234561 -0.44713060
v -0.06592435 0.02033616 -0.48148972
v -0.08445828 -0.03267987 -0.48842713
v 0.04033003 0.21234013 0.08380388
v 0.07475694 0.17455330 0.37047832
v 0.16985154 0.14389623 0.31422220
v 0.16504108 0.16565291 0.08405615
v -0.16625040 -0.02571250 -0.44765721
v -0.08445828 -0.03267987 -0.48842713
v -0.06594643 -0.08523709 -0.48148341
v -0.12153403 -0.13408279 -0.44695086
v -0.01312590 0.12682547 -0.44655353
v 0.09484549 0.08234718 -0.44712902
v 0.03962840 0.02033616 -0.48148972
v -0.01314798 0.03861625 -0.48776335
v 0.21704330 0.05038462 0.08493594
v 0.20675859 0.05630192 0.37231516
v 0.21704330 0.05038462 0.08493594
v 0.20675859 0.05630192 0.37231516
v 0.16985154 -0.03129239 0.31422220
v 0.16595398 -0.06649346 0.08705501
v 0.13993868 -0.02565416 -0.44765721
v 0.09521128 -0.13408437 -0.44694928
v 0.03965047 -0.08523709 -0.48148341
v 0.05816233 -0.03267987 -0.48842713
v 0.04092286 -0.11659420 0.08970699
v 0.07475694 -0.06194945 0.37047832
v 0.13993868 -0.02565416 -0.44765721
v 0.05816233 -0.03267987 -0.48842713
v -0.01318424 -0.17889233 -0.44629653
v -0.01314798 -0.10400137 -0.48775704
v -0.01314798 -0.03453878 -0.50000000
v -0.01314798 -0.03453878 -0.50000000
v 0.16985154 -0.03129239 0.31422220
v 0.17004705 -0.03129239 0.34515834
v 0.12785023 -0.10197360 0.29481163
v 0.12765630 -0.11465015 0.25844382
v 0.07475694 0.17455330 0.37047832
v 0.07495087 0.17455346 0.40141446
v 0.08752809 0.22803130 0.28491163
v 0.08580320 0.22069814 0.27143255
v 0.20675859 0.05630192 0.37231516
v 0.16985154 0.14389623 0.31422220
v 0.20862853 0.14389623 0.22892355
v 0.24008498 0.05630192 0.18952692
v -0.02351153 0.14389623 0.31344805
v -0.05517136 0.05630192 0.37123356
v -0.17896636 0.05630192 0.18240188
v -0.12365625 0.11088676 0.22017610
v 0.00262676 -0.19860705 -0.09610376
v -0.16867691 -0.14174548 -0.09889449
v 0.17179402 -0.13868986 -0.10116334
v 0.22657594 0.02464367 -0.10609364
v 0.22657594 0.02464367 -0.10609364
v 0.16678332 0.18428933 -0.11196836
v 0.00206073 0.23651859 -0.11058561
v -0.16447189 0.18388254 -0.10973893
v -0.22289911 0.02214462 -0.10277629
v -0.22289911 0.02214462 -0.10277629
v -0.01316532 -0.24223723 -0.33041176
v 0.15167079 -0.17348888 -0.33092418
v -0.17791629 -0.17349518 -0.33092261
v 0.21813595 -0.00884197 -0.33212089
v 0.14935464 0.15351244 -0.33330025
v 0.21813595 -0.00884197 -0.33212089
v -0.01309595 0.21986880 -0.33376537
v -0.17560171 0.15351086 -0.33329867
v -0.24440194 -0.00891765 -0.33211931
v -0.24440194 -0.00891765 -0.33211931
v -0.02331759 -0.03129239 0.34438419
v 0.07495087 -0.06194945 0.40141446
v 0.07526463 0.02581041 0.46260419
v 0.05172788 0.03493311 0.46257107
v -0.05497585 0.05630192 0.40216969
v 0.04255157 0.05630035 0.46259630
v -0.02331759 0.14389623 0.34438419
v 0.05172788 0.07767231 0.46257107
v 0.07527725 0.08680132 0.46260419
v 0.20695252 0.05630192 0.40325130
v 0.17004705 0.14389623 0.34515834
v 0.09890230 0.07761713 0.46276343
v 0.10826150 0.05630981 0.46286418
v 0.20366828 -0.00966185 0.26843685
v 0.21050006 -0.00966185 0.27387326
v -0.02351153 -0.03129239 0.31344805
v -0.11100966 0.02435198 0.23397524
v -0.11108061 0.02435198 0.22269091
v 0.00612227 -0.10318134 0.25284028
v 0.00631620 -0.09895582 0.29403906
v -0.02351153 0.14389623 0.31344805
v 0.07541757 -0.15074047 0.20605058
v 0.07561151 -0.11331627 0.31304142
v 0.07475694 -0.06194945 0.37047832
v 0.16985154 -0.03129239 0.31422220
v 0.12765630 -0.11465015 0.25844382
v 0.07541757 -0.15074047 0.20605058
v -0.02351153 -0.03129239 0.31344805
v 0.00612227 -0.10318134 0.25284028
v 0.24008498 0.05630192 0.18952692
v 0.20862853 0.14389623 0.22892355
v 0.21133728 0.14389623 0.24476923
v 0.24440194 0.05630192 0.28082328
v 0.11696795 0.24223723 0.19770361
v 0.15652383 0.20125288 0.21821312
v 0.16985154 -0.03129239 0.31422220
v 0.20366828 -0.00966185 0.26843685
v 0.11696795 0.24223723 0.19770361
v 0.13656772 0.23084884 0.24534787
v 0.16088651 0.20542164 0.22588843
v 0.15652383 0.20125288 0.21821312
v 0.07475694 0.17455330 0.37047832
v 0.08580320 0.22069814 0.27143255
v -0.12365625 0.11088676 0.22017610
v -0.17896636 0.05630192 0.18240188
v -0.17889541 0.05630192 0.19368464
v -0.12358530 0.11088676 0.23146043
v -0.02351153 -0.03129239 0.31344805
v -0.11108061 0.02435198 0.22269091
v 0.05172788 0.07767231 0.46257107
v 0.04255157 0.05630035 0.46259630
v 0.04971130 0.05630192 0.49271729
v 0.05626085 0.07286500 0.48876754
v 0.09890230 0.07761713 0.46276343
v 0.07527725 0.08680132 0.46260419
v 0.07507386 0.07993958 0.49272344
v 0.09282260 0.07282243 0.49073997
v 0.09890230 0.03498672 0.46276343
v 0.10826150 0.05630981 0.46286418
v 0.10063665 0.05630981 0.49292368
v 0.09282260 0.03978457 0.49073997
v 0.05172788 0.03493311 0.46257107
v 0.07526463 0.02581041 0.46260419
v 0.07506440 0.03267215 0.49272344
v 0.05626085 0.03974200 0.48876754
v 0.09890230 0.03498672 0.46276343
v 0.07506913 0.05630508 0.50000000
vn -0.92758759 0.02459967 0.37279501
vn -0.63918277 -0.66118217 0.39278941
vn -0.75997638 -0.64987980 -0.00959970
vn -0.28769715 0.30039702 -0.90939099
vn -0.92758759 0.02459967 0.37279501
vn -0.28768851 0.30048800 -0.90936367
vn -0.43648739 0.89937402 0.02459929
vn -0.64451009 0.71631121 0.26740418
vn -0.68149772 -0.01339996 -0.73169755
vn -0.46687479 0.45737531 -0.75685914
vn -0.24830152 0.25060154 -0.93570574
vn -0.31678757 -0.00799969 -0.94846278
vn 0.00169993 0.99036172 0.13849465
vn -0.70179318 0.71139308 -0.03749964
vn -0.28028899 0.17589309 -0.94366292
vn 0.68389473 0.72759439 0.05379959
vn -0.68160113 -0.01340002 -0.73160121
vn -0.31678757 -0.00799969 -0.94846278
vn -0.26391398 -0.27921479 -0.92324889
vn -0.50117878 -0.51987799 -0.69177071
vn 0.00000000 0.63511468 -0.77241785
vn 0.46670439 0.45730430 -0.75700712
vn 0.24830152 0.25060154 -0.93570574
vn 0.00000000 0.30549770 -0.95219282
vn 0.99819793 0.02129996 0.05609988
vn -0.15849555 0.08639757 -0.98357238
vn 0.99819793 0.02129996 0.05609988
vn -0.15849692 0.08629832 -0.98358087
vn 0.63987357 -0.76076858 -0.10859551
vn 0.70770281 -0.68510272 0.17260069
vn 0.68144507 -0.01330088 -0.73174839
vn 0.50110389 -0.51990404 -0.69180538
vn 0.26399964 -0.27929962 -0.92319874
vn 0.31678757 -0.00799969 -0.94846278
vn 0.01619975 -0.94938553 0.31369522
vn 0.13250335 -0.11890300 -0.98402487
vn 0.68139520 -0.01329991 -0.73179484
vn 0.31678757 -0.00799969 -0.94846278
vn -0.00010000 -0.73180970 -0.68150903
vn 0.00000000 -0.34449557 -0.93878794
vn 0.00000000 -0.00629987 -0.99998016
vn 0.00000000 -0.00619988 -0.99998078
vn 0.63987357 -0.76076858 -0.10859551
vn 0.65910987 -0.63970958 0.39540592
vn 0.59760547 -0.74130678 0.30550280
vn 0.44210352 -0.55820445 -0.70210560
vn -0.70174242 0.71144301 -0.03750227
vn -0.04809998 0.81039960 0.58389971
vn -0.32968963 0.89157196 0.31049024
vn -0.93841597 0.09210157 -0.33300567
vn -0.15859303 0.08639620 -0.98355678
vn -0.28028899 0.17589309 -0.94366292
vn 0.23070695 -0.04170126 -0.97212927
vn 0.27620722 -0.22150579 -0.93522444
vn -0.43652665 0.89935491 0.02460150
vn -0.28768851 0.30048800 -0.90936367
vn -0.42391119 -0.28400750 -0.86002270
vn 0.12030078 0.55470359 -0.82330532
vn 0.00060000 -0.95840763 0.28540227
vn -0.68303467 -0.66123357 0.31021575
vn 0.70038576 -0.69548586 0.16049674
vn 0.99985308 0.01439932 0.00929956
vn 0.99985308 0.01439932 0.00929956
vn 0.68189433 0.73049393 -0.03739969
vn -0.01289944 0.99965685 0.02279902
vn -0.69019650 0.71049640 0.13719931
vn -0.96811587 0.02120035 0.24960409
vn -0.96811587 0.02120035 0.24960409
vn -0.00500009 -0.98791708 -0.15490268
vn 0.68348937 -0.69858914 -0.21169671
vn -0.69751874 -0.69511868 -0.17400468
vn 0.95299049 -0.00139999 -0.30299698
vn 0.65141140 0.66521164 -0.36490638
vn 0.95299049 -0.00139999 -0.30299698
vn -0.00840017 0.93131906 -0.36410745
vn -0.67298744 0.66718755 -0.31929404
vn -0.97035319 0.00119994 -0.24168834
vn -0.97034734 0.00120006 -0.24171179
vn -0.63298883 -0.65498844 0.41269272
vn 0.00669978 -0.71967644 0.69427727
vn 0.00279987 -0.83106115 0.55617400
vn -0.59100074 -0.63080079 0.50280063
vn -0.72611732 -0.03220077 0.68681638
vn -0.81311138 0.00000000 0.58210814
vn -0.51078576 0.78927799 0.34079050
vn -0.59100074 0.63080079 0.50280063
vn 0.00290010 0.83102998 0.55622007
vn 0.77820503 -0.00280002 0.62800406
vn 0.64192084 0.61842008 0.45331472
vn 0.58532127 0.63582310 0.50311828
vn 0.80320452 0.00010000 0.59570335
vn -0.23799645 -0.76698857 -0.59589112
vn 0.74800495 -0.66260439 0.03800025
vn -0.75997638 -0.64987980 -0.00959970
vn -0.60558844 -0.77888513 0.16309689
vn 0.41580077 -0.52190097 -0.74480138
vn -0.50780797 -0.23670371 -0.82831300
vn -0.64031404 -0.71611570 0.27780609
vn -0.43648739 0.89937402 0.02459929
vn -0.03769852 -0.64057481 -0.76696984
vn -0.00100001 -0.88941166 0.45710599
vn 0.13240510 -0.11890458 -0.98403790
vn 0.63991530 -0.76071819 -0.10870260
vn 0.44210352 -0.55820445 -0.70210560
vn -0.03770093 -0.64051584 -0.76701897
vn -0.75997638 -0.64987980 -0.00959970
vn -0.50779595 -0.23679811 -0.82829339
vn 0.27621334 -0.22141069 -0.93524515
vn 0.23070695 -0.04170126 -0.97212927
vn 0.85697708 0.51308628 0.04829871
vn 0.98906466 -0.03949859 0.14209492
vn -0.37038289 0.42008059 -0.82846172
vn 0.28460564 0.02080041 -0.95841900
vn 0.63980756 -0.76080899 -0.10870128
vn -0.23799645 -0.76698857 -0.59589112
vn -0.37031216 0.42001379 -0.82852720
vn 0.44689542 0.88079097 0.15649840
vn 0.75739468 0.65029543 -0.05889959
vn 0.28460505 0.02090037 -0.95841700
vn -0.70169250 0.71149239 -0.03749960
vn -0.93837607 0.09219765 -0.33309150
vn 0.12019899 0.55459535 -0.82339310
vn -0.42391119 -0.28400750 -0.86002270
vn -0.97697114 -0.12279637 0.17449484
vn -0.60298065 0.76937531 0.21089323
vn -0.75997638 -0.64987980 -0.00959970
vn 0.41577907 -0.52197372 -0.74476251
vn -0.59109553 0.63079522 0.50269619
vn -0.81311138 0.00000000 0.58210814
vn -0.74290120 0.00000000 0.66940108
vn -0.58039860 0.59979855 0.55079867
vn 0.58532127 0.63582310 0.50311828
vn 0.00290010 0.83102998 0.55622007
vn -0.00810043 0.75433958 0.65643444
vn 0.54438284 0.58878144 0.59748116
vn 0.58529181 -0.63579111 0.50319296
vn 0.80325237 0.00010001 0.59563883
vn 0.74451116 0.00010000 0.66761001
vn 0.54431247 -0.58881349 0.59751369
vn -0.59100074 -0.63080079 0.50280063
vn 0.00279987 -0.83106115 0.55617400
vn -0.00819989 -0.75428945 0.65649082
vn -0.58029746 -0.59989738 0.55079759
vn 0.58529181 -0.63579111 0.50319296
vn -0.02199908 0.00000000 0.99975799
vt 0.03237000 0.51998000
vt 0.13834000 0.52852000
vt 0.15331000 0.33304000
vt 0.08069000 0.27603000
vt 0.50495000 0.49260000
vt 0.55687000 0.75666000
vt 0.63874000 0.69940000
vt 0.62008000 0.49073000
vt 0.63207000 0.02769000
vt 0.68229000 0.10023000
vt 0.72255000 0.05187000
vt 0.70749000 0.00934000
vt 0.73129000 0.50453000
vt 0.72659000 0.75829000
vt 0.82378000 0.72283000
vt 0.84147000 0.51908000
vt 0.14961000 0.97099000
vt 0.23540000 0.99377000
vt 0.25505000 0.94852000
vt 0.21661000 0.90447000
vt 0.75058000 0.13045000
vt 0.82510000 0.12204000
vt 0.80079000 0.06371000
vt 0.76039000 0.06611000
vt 0.95270000 0.53410000
vt 0.89970000 0.78945000
vt 0.46002000 0.45966000
vt 0.38464000 0.23103000
vt 0.32464000 0.30239000
vt 0.35867000 0.49236000
vt 0.43964000 0.91378000
vt 0.35402000 0.87709000
vt 0.33508000 0.93253000
vt 0.37024000 0.96664000
vt 0.24898000 0.51688000
vt 0.23311000 0.27702000
vt 0.89403000 0.06716000
vt 0.82766000 0.02756000
vt 0.28267000 0.87830000
vt 0.29337000 0.93195000
vt 0.30511000 0.99073000
vt 0.76895000 0.00959000
vt 0.12821000 0.08649000
vt 0.13887000 0.10210000
vt 0.17831000 0.05964000
vt 0.18274000 0.03203000
vt 0.13683000 0.23459000
vt 0.14297000 0.21991000
vt 0.08860000 0.25942000
vt 0.08600000 0.26893000
vt 0.65644000 0.81644000
vt 0.58435000 0.87424000
vt 0.60604000 0.94887000
vt 0.68781000 0.96733000
vt 0.73359000 0.97307000
vt 0.80582000 0.98368000
vt 0.78542000 0.83468000
vt 0.75124000 0.88098000
vt 0.25274000 0.66966000
vt 0.13648000 0.69468000
vt 0.37053000 0.64600000
vt 0.49646000 0.61499000
vt 0.98649000 0.36202000
vt 0.84707000 0.36459000
vt 0.72729000 0.35343000
vt 0.61085000 0.32601000
vt 0.47212000 0.29806000
vt 0.00673000 0.69513000
vt 0.26841000 0.80728000
vt 0.36868000 0.79375000
vt 0.17334000 0.83442000
vt 0.96684000 0.16355000
vt 0.84318000 0.21472000
vt 0.49928000 0.80326000
vt 0.73691000 0.21595000
vt 0.63940000 0.18133000
vt 0.05139000 0.88618000
vt 0.53381000 0.09994000
vt 0.24368000 0.14747000
vt 0.18835000 0.12694000
vt 0.17198000 0.16276000
vt 0.17888000 0.16937000
vt 0.21662000 0.19621000
vt 0.17852000 0.17839000
vt 0.19512000 0.24785000
vt 0.17176000 0.18441000
vt 0.16212000 0.18308000
vt 0.12239000 0.15065000
vt 0.09626000 0.19034000
vt 0.15545000 0.17613000
vt 0.15590000 0.16737000
vt 0.08764000 0.08325000
vt 0.08976000 0.08907000
vt 0.26217000 0.14321000
vt 0.32169000 0.21037000
vt 0.32966000 0.21043000
vt 0.27161000 0.07443000
vt 0.25012000 0.09503000
vt 0.20122000 0.26608000
vt 0.24082000 0.00473000
vt 0.20904000 0.07668000
vt 0.90521000 0.81138000
vt 0.82342000 0.82350000
vt 0.85581000 0.89497000
vt 0.88775000 0.94500000
vt 0.98283000 0.84570000
vt 0.94508000 0.90594000
vt 0.00834000 0.10527000
vt 0.02425000 0.17948000
vt 0.03533000 0.17869000
vt 0.06621000 0.12633000
vt 0.49399000 0.97301000
vt 0.54171000 0.95736000
vt 0.74596000 0.83934000
vt 0.72999000 0.88726000
vt 0.02784000 0.28073000
vt 0.05041000 0.25333000
vt 0.03271000 0.23376000
vt 0.02588000 0.23561000
vt 0.50924000 0.81589000
vt 0.48810000 0.90450000
vt 0.29472000 0.28718000
vt 0.34920000 0.26302000
vt 0.34136000 0.25949000
vt 0.28990000 0.28057000
vt 0.87269000 0.95438000
vt 0.82294000 0.87721000
vt 0.35520000 0.00880000
vt 0.28931000 0.06606000
vt 0.36422000 0.10064000
vt 0.38123000 0.07573000
vt 0.50925000 0.08172000
vt 0.44964000 0.00880000
vt 0.41358000 0.08399000
vt 0.43778000 0.10333000
vt 0.44388000 0.22329000
vt 0.50761000 0.16681000
vt 0.43291000 0.13234000
vt 0.41398000 0.15488000
vt 0.28847000 0.15335000
vt 0.34969000 0.22520000
vt 0.38355000 0.14900000
vt 0.35630000 0.12974000
vt 0.16255000 0.16171000
vt 0.39862000 0.11652000
f 1/1/1 2/2/2 3/3/3
f 1/1/1 3/3/3 4/4/4
f 5/5/5 6/6/6 7/7/7
f 5/5/5 7/7/7 8/8/8
f 9/9/9 10/10/10 11/11/11
f 9/9/9 11/11/11 12/12/12
f 13/13/13 8/8/8 7/7/7
f 13/13/13 7/7/7 14/14/14
f 13/13/13 14/14/14 15/15/15
f 13/13/13 15/15/15 16/16/16
f 17/17/17 18/18/18 19/19/19
f 17/17/17 19/19/19 20/20/20
f 21/21/21 22/22/22 23/23/23
f 21/21/21 23/23/23 24/24/24
f 25/25/25 16/16/16 15/15/15
f 25/25/25 15/15/15 26/26/26
f 27/27/27 28/28/28 29/29/29
f 27/27/27 29/29/29 30/30/30
f 21/21/21 24/24/24 11/11/11
f 21/21/21 11/11/11 10/10/10
f 31/31/31 32/32/32 33/33/33
f 31/31/31 33/33/33 34/34/34
f 35/35/35 30/30/30 29/29/29
f 35/35/35 29/29/29 36/36/36
f 35/35/35 36/36/36 3/3/3
f 35/35/35 3/3/3 2/2/2
f 37/37/37 38/38/38 23/23/23
f 37/37/37 23/23/23 22/22/22
f 39/39/39 20/20/20 19/19/19
f 39/39/39 19/19/19 40/40/40
f 41/41/41 40/40/40 19/19/19
f 41/41/41 19/19/19 18/18/18
f 42/42/42 12/12/12 11/11/11
f 42/42/42 11/11/11 24/24/24
f 42/42/42 24/24/24 23/23/23
f 42/42/42 23/23/23 38/38/38
f 41/41/41 34/34/34 33/33/33
f 41/41/41 33/33/33 40/40/40
f 43/43/43 44/44/44 45/45/45
f 43/43/43 45/45/45 46/46/46
f 47/47/47 48/48/48 49/49/49
f 47/47/47 49/49/49 50/50/50
f 51/51/51 52/52/52 53/53/53
f 51/51/51 53/53/53 54/54/54
f 55/55/55 56/56/56 57/57/57
f 55/55/55 57/57/57 58/58/58
f 59/59/59 35/35/35 2/2/2
f 59/59/59 2/2/2 60/60/60
f 59/59/59 61/61/61 30/30/30
f 59/59/59 30/30/30 35/35/35
f 62/62/62 27/27/27 30/30/30
f 62/62/62 30/30/30 61/61/61
f 63/63/63 64/64/64 16/16/16
f 63/63/63 16/16/16 25/25/25
f 65/65/65 13/13/13 16/16/16
f 65/65/65 16/16/16 64/64/64
f 65/65/65 66/66/66 8/8/8
f 65/65/65 8/8/8 13/13/13
f 67/67/67 5/5/5 8/8/8
f 67/67/67 8/8/8 66/66/66
f 68/68/68 60/60/60 2/2/2
f 68/68/68 2/2/2 1/1/1
f 59/59/59 69/69/69 70/70/70
f 59/59/59 70/70/70 61/61/61
f 59/59/59 60/60/60 71/71/71
f 59/59/59 71/71/71 69/69/69
f 63/63/63 72/72/72 73/73/73
f 63/63/63 73/73/73 64/64/64
f 62/62/62 61/61/61 70/70/70
f 62/62/62 70/70/70 74/74/74
f 65/65/65 75/75/75 76/76/76
f 65/65/65 76/76/76 66/66/66
f 65/65/65 64/64/64 73/73/73
f 65/65/65 73/73/73 75/75/75
f 68/68/68 77/77/77 71/71/71
f 68/68/68 71/71/71 60/60/60
f 67/67/67 66/66/66 76/76/76
f 67/67/67 76/76/76 78/78/78
f 69/69/69 39/39/39 32/32/32
f 69/69/69 32/32/32 70/70/70
f 69/69/69 71/71/71 20/20/20
f 69/69/69 20/20/20 39/39/39
f 72/72/72 37/37/37 22/22/22
f 72/72/72 22/22/22 73/73/73
f 74/74/74 70/70/70 32/32/32
f 74/74/74 32/32/32 31/31/31
f 75/75/75 21/21/21 10/10/10
f 75/75/75 10/10/10 76/76/76
f 75/75/75 73/73/73 22/22/22
f 75/75/75 22/22/22 21/21/21
f 77/77/77 17/17/17 20/20/20
f 77/77/77 20/20/20 71/71/71
f 78/78/78 76/76/76 10/10/10
f 78/78/78 10/10/10 9/9/9
f 39/39/39 40/40/40 33/33/33
f 39/39/39 33/33/33 32/32/32
f 79/79/79 80/80/80 81/81/81
f 79/79/79 81/81/81 82/82/82
f 83/83/83 79/79/79 82/82/82
f 83/83/83 82/82/82 84/84/84
f 48/48/48 85/85/85 86/86/86
f 48/48/48 86/86/86 87/87/87
f 88/88/88 89/89/89 90/90/90
f 88/88/88 90/90/90 91/91/91
f 44/44/44 43/43/43 92/92/92
f 44/44/44 92/92/92 93/93/93
f 94/94/94 79/79/79 95/95/95
f 94/94/94 95/95/95 96/96/96
f 79/79/79 94/94/94 97/97/97
f 79/79/79 97/97/97 98/98/98
f 47/47/47 99/99/99 85/85/85
f 47/47/47 85/85/85 48/48/48
f 100/100/100 46/46/46 45/45/45
f 100/100/100 45/45/45 101/101/101
f 97/97/97 100/100/100 101/101/101
f 97/97/97 101/101/101 98/98/98
f 80/80/80 79/79/79 98/98/98
f 80/80/80 98/98/98 101/101/101
f 102/102/102 103/103/103 104/104/104
f 102/102/102 104/104/104 105/105/105
f 44/44/44 80/80/80 101/101/101
f 44/44/44 101/101/101 45/45/45
f 106/106/106 102/102/102 105/105/105
f 106/106/106 105/105/105 107/107/107
f 108/108/108 109/109/109 110/110/110
f 108/108/108 110/110/110 111/111/111
f 92/92/92 108/108/108 111/111/111
f 92/92/92 111/111/111 93/93/93
f 88/88/88 44/44/44 93/93/93
f 88/88/88 93/93/93 111/111/111
f 53/53/53 52/52/52 112/112/112
f 53/53/53 112/112/112 113/113/113
f 114/114/114 51/51/51 54/54/54
f 114/114/114 54/54/54 115/115/115
f 89/89/89 88/88/88 111/111/111
f 89/89/89 111/111/111 110/110/110
f 116/116/116 50/50/50 49/49/49
f 116/116/116 49/49/49 117/117/117
f 116/116/116 117/117/117 118/118/118
f 116/116/116 118/118/118 119/119/119
f 89/89/89 110/110/110 118/118/118
f 89/89/89 118/118/118 117/117/117
f 52/52/52 120/120/120 121/121/121
f 52/52/52 121/121/121 112/112/112
f 48/48/48 89/89/89 117/117/117
f 48/48/48 117/117/117 49/49/49
f 110/110/110 109/109/109 119/119/119
f 110/110/110 119/119/119 118/118/118
f 122/122/122 123/123/123 124/124/124
f 122/122/122 124/124/124 125/125/125
f 123/123/123 96/96/96 95/95/95
f 123/123/123 95/95/95 124/124/124
f 79/79/79 83/83/83 124/124/124
f 79/79/79 124/124/124 95/95/95
f 83/83/83 85/85/85 125/125/125
f 83/83/83 125/125/125 124/124/124
f 56/56/56 126/126/126 127/127/127
f 56/56/56 127/127/127 57/57/57
f 85/85/85 99/99/99 122/122/122
f 85/85/85 122/122/122 125/125/125
f 128/128/128 129/129/129 130/130/130
f 128/128/128 130/130/130 131/131/131
f 132/132/132 133/133/133 134/134/134
f 132/132/132 134/134/134 135/135/135
f 136/136/136 137/137/137 138/138/138
f 136/136/136 138/138/138 139/139/139
f 140/140/140 141/141/141 142/142/142
f 140/140/140 142/142/142 143/143/143
f 44/44/44 88/88/88 91/91/91
f 44/44/44 91/91/91 144/144/144
f 89/89/89 48/48/48 87/87/87
f 89/89/89 87/87/87 90/90/90
f 85/85/85 83/83/83 84/84/84
f 85/85/85 84/84/84 86/86/86
f 80/80/80 44/44/44 144/144/144
f 80/80/80 144/144/144 81/81/81
f 143/143/143 142/142/142 145/145/145
f 143/143/143 145/145/145 130/130/130
f 142/142/142 139/139/139 138/138/138
f 142/142/142 138/138/138 145/145/145
f 130/130/130 145/145/145 134/134/134
f 130/130/130 134/134/134 131/131/131
f 145/145/145 138/138/138 135/135/135
f 145/145/145 135/135/135 134/134/134
f 141/141/141 136/136/136 139/139/139
f 141/141/141 139/139/139 142/142/142
f 137/137/137 132/132/132 135/135/135
f 137/137/137 135/135/135 138/138/138
f 133/133/133 128/128/128 131/131/131
f 133/133/133 131/131/131 134/134/134
f 129/129/129 140/140/140 143/143/143
f 129/129/129 143/143/143 130/130/130